<?xml version="1.0" encoding="UTF-8" standalone="no"?>
<!-- Created with Inkscape (http://www.inkscape.org/) -->

<svg
   width="720"
   height="720"
   viewBox="0 0 190.5 190.5"
   version="1.1"
   id="svg5"
   sodipodi:docname="39.svg"
   inkscape:version="1.2.1 (9c6d41e410, 2022-07-14)"
   xmlns:inkscape="http://www.inkscape.org/namespaces/inkscape"
   xmlns:sodipodi="http://sodipodi.sourceforge.net/DTD/sodipodi-0.dtd"
   xmlns="http://www.w3.org/2000/svg"
   xmlns:svg="http://www.w3.org/2000/svg">
  <sodipodi:namedview
     id="namedview7"
     pagecolor="#ffffff"
     bordercolor="#000000"
     borderopacity="0.25"
     inkscape:showpageshadow="2"
     inkscape:pageopacity="0.0"
     inkscape:pagecheckerboard="0"
     inkscape:deskcolor="#d1d1d1"
     inkscape:document-units="mm"
     showgrid="true"
     inkscape:zoom="1.0255231"
     inkscape:cx="402.23375"
     inkscape:cy="371.51772"
     inkscape:window-width="1520"
     inkscape:window-height="1030"
     inkscape:window-x="10"
     inkscape:window-y="0"
     inkscape:window-maximized="0"
     inkscape:current-layer="layer1">
    <inkscape:grid
       type="xygrid"
       id="grid9"
       spacingx="19.05"
       spacingy="19.05" />
  </sodipodi:namedview>
  <defs
     id="defs2">
    <rect
       x="584.09216"
       y="481.70539"
       width="537.28678"
       height="297.4092"
       id="rect4253" />
    <rect
       x="266.20561"
       y="258.40471"
       width="392.97018"
       height="108.23744"
       id="rect3681" />
  </defs>
  <g
     inkscape:label="Ebene 1"
     inkscape:groupmode="layer"
     id="layer1">
    <path
       id="path4282"
       style="font-size:22.5778px;font-family:'Arial Nova';-inkscape-font-specification:'Arial Nova';stroke-width:0.264583"
       d="M 69.755949 75.72406 C 68.763761 75.72406 67.881817 75.966595 67.110116 76.451664 C 66.345764 76.936734 65.750451 77.594173 65.324178 78.42467 C 64.905254 79.255168 64.695793 80.174205 64.695793 81.181091 C 64.695793 82.16593 64.908757 83.054879 65.33503 83.848629 C 65.761303 84.642379 66.334567 85.267261 67.054822 85.722933 C 67.782426 86.171254 68.583698 86.395243 69.458293 86.395243 C 70.28879 86.395243 71.03494 86.21185 71.696399 85.844373 C 72.365207 85.476896 72.912403 84.947729 73.338676 84.256873 L 73.383118 84.256873 L 73.383118 84.499235 C 73.383118 85.756006 73.224758 86.83989 72.908728 87.751233 C 72.592698 88.655226 72.155745 89.346254 71.59718 89.823975 C 71.038615 90.294345 70.402708 90.529358 69.689803 90.529358 C 68.954849 90.529358 68.356034 90.305369 67.893014 89.857048 C 67.429993 89.401376 67.110288 88.754445 66.933899 87.916597 L 64.971228 88.225623 C 65.09617 89.041421 65.364773 89.746976 65.776347 90.342289 C 66.19527 90.930252 66.72794 91.382248 67.374699 91.698279 C 68.028808 92.006959 68.763934 92.1613 69.579732 92.1613 C 71.461214 92.1613 72.894373 91.429676 73.879211 89.967118 C 74.864049 88.49721 75.356124 86.336446 75.356124 83.484827 C 75.356124 80.949236 74.878576 79.024002 73.923136 77.708435 C 72.975046 76.385518 71.585984 75.72406 69.755949 75.72406 z M 120.65775 75.736462 C 119.66557 75.736462 118.78362 75.978997 118.01192 76.464067 C 117.24757 76.949136 116.65225 77.607092 116.22598 78.43759 C 115.80705 79.268087 115.5976 80.186607 115.5976 81.193494 C 115.5976 82.178331 115.81056 83.067797 116.23683 83.861548 C 116.66311 84.655298 117.23637 85.280181 117.95662 85.735852 C 118.68422 86.184174 119.4855 86.408162 120.3601 86.408162 C 121.19059 86.408162 121.93623 86.224252 122.59768 85.856775 C 123.2665 85.489298 123.81421 84.960132 124.24048 84.269275 L 124.2844 84.269275 L 124.2844 84.512154 C 124.2844 85.768925 124.12656 86.852809 123.81053 87.764152 C 123.4945 88.668145 123.05703 89.359174 122.49847 89.836894 C 121.93991 90.307265 121.30451 90.542277 120.59161 90.542277 C 119.85665 90.542277 119.25733 90.318289 118.7943 89.869967 C 118.33128 89.414296 118.01157 88.767364 117.83518 87.929517 L 115.87303 88.238025 C 115.99797 89.053823 116.26606 89.759379 116.67763 90.354692 C 117.09656 90.942654 117.62974 91.394651 118.2765 91.710681 C 118.93061 92.019362 119.66523 92.173702 120.48102 92.173702 C 122.3625 92.173702 123.79566 91.442595 124.7805 89.980037 C 125.76534 88.51013 126.25793 86.349366 126.25793 83.497746 C 126.25793 80.962156 125.78038 79.036405 124.82494 77.720837 C 123.87685 76.397921 122.48779 75.736462 120.65775 75.736462 z M 69.77817 77.344633 C 70.40288 77.344633 70.96512 77.517003 71.464889 77.862431 C 71.964657 78.20051 72.357513 78.663531 72.644145 79.251493 C 72.930776 79.832107 73.074093 80.468014 73.074093 81.15887 C 73.074093 81.827678 72.927274 82.430513 72.633293 82.967029 C 72.34666 83.503545 71.957307 83.922469 71.464889 84.2238 C 70.97247 84.517781 70.439284 84.6646 69.86602 84.6646 C 69.256008 84.6646 68.712315 84.513762 68.234595 84.212431 C 67.756875 83.90375 67.385551 83.477821 67.120968 82.933956 C 66.856385 82.38274 66.724093 81.754355 66.724093 81.0488 C 66.724093 80.372642 66.852882 79.751262 67.110116 79.185347 C 67.374699 78.619433 67.738501 78.171456 68.201522 77.840727 C 68.671893 77.509998 69.197556 77.344633 69.77817 77.344633 z M 120.67946 77.357035 C 121.30417 77.357035 121.86641 77.529922 122.36617 77.87535 C 122.86595 78.213428 123.25932 78.67645 123.54595 79.264412 C 123.83258 79.845027 123.9759 80.480934 123.9759 81.17179 C 123.9759 81.840598 123.82907 82.442915 123.5351 82.979431 C 123.24846 83.515947 122.85859 83.934871 122.36617 84.236202 C 121.87375 84.530184 121.34108 84.677519 120.76782 84.677519 C 120.15781 84.677519 119.61412 84.526681 119.1364 84.22535 C 118.65868 83.91667 118.28736 83.490224 118.02277 82.946358 C 117.75819 82.395143 117.6259 81.766758 117.6259 81.061202 C 117.6259 80.385045 117.75469 79.764181 118.01192 79.198267 C 118.2765 78.632352 118.6403 78.183858 119.10332 77.853129 C 119.5737 77.5224 120.09884 77.357035 120.67946 77.357035 z M 95.525435 99.30815 C 94.533248 99.30815 93.651303 99.550683 92.879602 100.03575 C 92.11525 100.52082 91.519938 101.17878 91.093665 102.00928 C 90.674741 102.83978 90.465279 103.7583 90.465279 104.76518 C 90.465279 105.75002 90.678243 106.63949 91.104517 107.43324 C 91.53079 108.22699 92.104054 108.85135 92.824308 109.30702 C 93.551912 109.75534 94.353184 109.97985 95.227779 109.97985 C 96.058277 109.97985 96.803911 109.79594 97.465369 109.42846 C 98.134177 109.06099 98.681889 108.53182 99.108162 107.84096 L 99.152087 107.84096 L 99.152087 108.08333 C 99.152087 109.3401 98.994245 110.4245 98.678215 111.33584 C 98.362185 112.23983 97.924715 112.93035 97.36615 113.40806 C 96.807585 113.87844 96.172194 114.11396 95.45929 114.11396 C 94.724336 114.11396 94.125004 113.88946 93.661983 113.44114 C 93.198962 112.98546 92.879258 112.33905 92.702869 111.5012 L 90.740715 111.80971 C 90.865656 112.62551 91.133742 113.33107 91.545317 113.92638 C 91.96424 114.51434 92.497426 114.96634 93.144185 115.28237 C 93.798294 115.59105 94.532903 115.74539 95.348702 115.74539 C 97.230184 115.74539 98.663343 115.01428 99.648181 113.55173 C 100.63302 112.08182 101.12561 109.92106 101.12561 107.06943 C 101.12561 104.53384 100.64806 102.60809 99.692623 101.29253 C 98.744532 99.969608 97.35547 99.30815 95.525435 99.30815 z M 95.547139 100.92872 C 96.17185 100.92872 96.734089 101.10161 97.233858 101.44704 C 97.733626 101.78512 98.126999 102.24814 98.413631 102.8361 C 98.700263 103.41671 98.843579 104.0521 98.843579 104.74296 C 98.843579 105.41177 98.696761 106.0146 98.402779 106.55112 C 98.116147 107.08763 97.726277 107.50656 97.233858 107.80789 C 96.741439 108.10187 96.20877 108.24869 95.635506 108.24869 C 95.025494 108.24869 94.481801 108.09836 94.004081 107.79704 C 93.526361 107.48835 93.155037 107.06191 92.890454 106.51805 C 92.62587 105.96683 92.493579 105.33844 92.493579 104.63289 C 92.493579 103.95673 92.622368 103.33587 92.879602 102.76995 C 93.144185 102.20403 93.507987 101.75554 93.971008 101.42482 C 94.441378 101.09409 94.966526 100.92872 95.547139 100.92872 z " />
    <text
       xml:space="preserve"
       transform="scale(0.26458333)"
       id="text3679"
       style="font-size:85.3333px;font-family:'Arial Nova';-inkscape-font-specification:'Arial Nova, Normal';white-space:pre;shape-inside:url(#rect3681);display:inline;fill:#000000" />
    <text
       xml:space="preserve"
       transform="scale(0.26458333)"
       id="text4251"
       style="fill:#000000;font-size:85.33333333px;-inkscape-font-specification:'Arial Nova, Normal';font-family:'Arial Nova';white-space:pre;shape-inside:url(#rect4253)" />
  </g>
</svg>
