<?xml version="1.0" encoding="UTF-8" standalone="no"?>
<!-- Created with Inkscape (http://www.inkscape.org/) -->

<svg
   width="720"
   height="720"
   viewBox="0 0 190.5 190.5"
   version="1.1"
   id="svg5"
   sodipodi:docname="3four.svg"
   inkscape:version="1.2.1 (9c6d41e410, 2022-07-14)"
   xmlns:inkscape="http://www.inkscape.org/namespaces/inkscape"
   xmlns:sodipodi="http://sodipodi.sourceforge.net/DTD/sodipodi-0.dtd"
   xmlns="http://www.w3.org/2000/svg"
   xmlns:svg="http://www.w3.org/2000/svg">
  <sodipodi:namedview
     id="namedview7"
     pagecolor="#ffffff"
     bordercolor="#000000"
     borderopacity="0.25"
     inkscape:showpageshadow="2"
     inkscape:pageopacity="0.0"
     inkscape:pagecheckerboard="0"
     inkscape:deskcolor="#d1d1d1"
     inkscape:document-units="mm"
     showgrid="true"
     inkscape:zoom="1.0255231"
     inkscape:cx="349.57769"
     inkscape:cy="371.51772"
     inkscape:window-width="1520"
     inkscape:window-height="1030"
     inkscape:window-x="10"
     inkscape:window-y="0"
     inkscape:window-maximized="0"
     inkscape:current-layer="layer1">
    <inkscape:grid
       type="xygrid"
       id="grid9"
       spacingx="19.05"
       spacingy="19.05" />
  </sodipodi:namedview>
  <defs
     id="defs2">
    <rect
       x="266.20561"
       y="258.40471"
       width="392.97018"
       height="108.23744"
       id="rect3681" />
  </defs>
  <g
     inkscape:label="Ebene 1"
     inkscape:groupmode="layer"
     id="layer1">
    <path
       id="path4180"
       style="font-size:22.5778px;font-family:'Arial Nova';-inkscape-font-specification:'Arial Nova';stroke-width:0.264583"
       d="M 55.170793 75.448108 C 54.024264 75.448108 53.197442 75.720213 52.690324 76.264079 C 52.183206 76.800595 51.929647 77.645964 51.929647 78.799841 L 51.929647 80.188904 L 50.16593 80.188904 L 50.16593 81.72111 L 51.929647 81.72111 L 51.929647 91.885347 L 53.914022 91.885347 L 53.914022 81.72111 L 56.173832 81.72111 L 56.173832 80.188904 L 53.914022 80.188904 L 53.914022 78.953837 C 53.914022 78.534913 53.943595 78.204184 54.002389 77.96165 C 54.068534 77.719114 54.21185 77.528199 54.432336 77.388558 C 54.652822 77.241567 54.987054 77.1679 55.435376 77.1679 C 55.927795 77.1679 56.438416 77.249089 56.967582 77.410779 L 57.39753 75.72406 C 56.647877 75.540322 55.905746 75.448108 55.170793 75.448108 z M 106.0726 75.461027 C 104.92606 75.461027 104.09925 75.733132 103.59213 76.276998 C 103.08501 76.813514 102.83145 77.658367 102.83145 78.812244 L 102.83145 80.201306 L 101.06722 80.201306 L 101.06722 81.734029 L 102.83145 81.734029 L 102.83145 91.898267 L 104.81582 91.898267 L 104.81582 81.734029 L 107.07563 81.734029 L 107.07563 80.201306 L 104.81582 80.201306 L 104.81582 78.966756 C 104.81582 78.547833 104.84487 78.217104 104.90367 77.974569 C 104.96982 77.732034 105.11314 77.541118 105.33362 77.401477 C 105.55411 77.254487 105.88886 77.180819 106.33718 77.180819 C 106.8296 77.180819 107.34022 77.261491 107.86938 77.423181 L 108.29933 75.736462 C 107.54968 75.552724 106.80755 75.461027 106.0726 75.461027 z M 62.314543 79.92432 C 61.226811 79.92432 60.267697 80.166855 59.437199 80.651925 C 58.614051 81.136994 57.974641 81.83853 57.51897 82.757222 C 57.063299 83.675914 56.835291 84.77134 56.835291 86.04281 C 56.835291 87.351027 57.066801 88.464482 57.529822 89.383175 C 58.000192 90.301867 58.647124 90.996398 59.470272 91.466768 C 60.29342 91.929789 61.24151 92.1613 62.314543 92.1613 C 63.394925 92.1613 64.346518 91.922268 65.169666 91.444548 C 66.000163 90.959478 66.647095 90.257425 67.110116 89.338733 C 67.573136 88.412691 67.804647 87.306759 67.804647 86.020589 C 67.804647 84.727071 67.573136 83.624641 67.110116 82.713298 C 66.654444 81.794606 66.015034 81.100074 65.191886 80.629704 C 64.368738 80.159333 63.409624 79.92432 62.314543 79.92432 z M 87.483032 79.92432 C 86.850972 79.92432 86.310781 80.07866 85.862459 80.387341 C 85.414138 80.696022 84.973166 81.217667 84.539543 81.95262 L 84.539543 80.188904 L 82.687459 80.188904 L 82.687459 91.885347 L 84.671834 91.885347 L 84.671834 85.645935 C 84.671834 84.484708 84.89232 83.580715 85.333293 82.933956 C 85.781614 82.279847 86.428546 81.95262 87.273743 81.95262 C 87.810259 81.95262 88.291309 82.066367 88.717582 82.294202 L 89.401261 80.464339 C 89.085231 80.273251 88.773048 80.137457 88.464368 80.056612 C 88.163037 79.968418 87.835811 79.92432 87.483032 79.92432 z M 113.21635 79.936723 C 112.12861 79.936723 111.16949 80.179257 110.339 80.664327 C 109.51585 81.149397 108.87645 81.85145 108.42077 82.770142 C 107.96511 83.688834 107.73709 84.783742 107.73709 86.055212 C 107.73709 87.36343 107.9686 88.476885 108.43162 89.395577 C 108.902 90.314269 109.54893 91.008801 110.37207 91.479171 C 111.19522 91.942192 112.14331 92.173702 113.21635 92.173702 C 114.29673 92.173702 115.24832 91.935186 116.07147 91.457467 C 116.90197 90.972397 117.5489 90.270344 118.01192 89.351652 C 118.47494 88.42561 118.70645 87.319677 118.70645 86.033508 C 118.70645 84.73999 118.47494 83.637559 118.01192 82.726217 C 117.55625 81.807524 116.91683 81.112993 116.09369 80.642623 C 115.27054 80.172253 114.31143 79.936723 113.21635 79.936723 z M 138.38483 79.936723 C 137.75278 79.936723 137.21259 80.091063 136.76426 80.399744 C 136.31594 80.708424 135.87496 81.230586 135.44135 81.96554 L 135.44135 80.201306 L 133.58926 80.201306 L 133.58926 91.898267 L 135.57364 91.898267 L 135.57364 85.658337 C 135.57364 84.497111 135.79412 83.593118 136.2351 82.946358 C 136.68341 82.29225 137.32983 81.96554 138.17503 81.96554 C 138.71154 81.96554 139.19311 82.079285 139.61938 82.307121 L 140.30306 80.477258 C 139.98703 80.28617 139.67433 80.149859 139.36565 80.069014 C 139.06433 79.98082 138.73761 79.936723 138.38483 79.936723 z M 70.086678 80.188904 L 70.086678 88.104183 C 70.086678 89.405051 70.428432 90.408262 71.111938 91.113818 C 71.802795 91.812024 72.828056 92.1613 74.18772 92.1613 C 74.937373 92.1613 75.613358 91.999438 76.21602 91.676058 C 76.826031 91.352678 77.340671 90.882136 77.759595 90.264775 L 77.759595 91.885347 L 79.611678 91.885347 L 79.611678 80.188904 L 77.627303 80.188904 L 77.627303 86.71512 C 77.627303 87.611764 77.51706 88.309797 77.296574 88.809566 C 77.076087 89.309334 76.719807 89.70621 76.227389 90.000191 C 75.742319 90.294172 75.172558 90.441508 74.518449 90.441508 C 73.732048 90.441508 73.125711 90.221022 72.699438 89.78005 C 72.280515 89.339077 72.071053 88.692145 72.071053 87.8396 L 72.071053 80.188904 L 70.086678 80.188904 z M 120.98848 80.201306 L 120.98848 88.117102 C 120.98848 89.41797 121.33024 90.421182 122.01374 91.126737 C 122.70459 91.824943 123.72986 92.173702 125.08952 92.173702 C 125.83917 92.173702 126.51516 92.012357 127.11782 91.688977 C 127.72783 91.365598 128.24247 90.895055 128.6614 90.277694 L 128.6614 91.898267 L 130.51348 91.898267 L 130.51348 80.201306 L 128.52911 80.201306 L 128.52911 86.72804 C 128.52911 87.624683 128.41886 88.322717 128.19838 88.822485 C 127.97789 89.322254 127.62109 89.719129 127.12867 90.01311 C 126.64361 90.307092 126.07436 90.45391 125.42025 90.45391 C 124.63385 90.45391 124.02751 90.233424 123.60124 89.792452 C 123.18231 89.35148 122.97286 88.705065 122.97286 87.852519 L 122.97286 80.201306 L 120.98848 80.201306 z M 62.303691 81.555745 C 62.987197 81.555745 63.589515 81.728632 64.111332 82.07406 C 64.633149 82.412139 65.041048 82.915238 65.33503 83.584045 C 65.629012 84.252853 65.776347 85.065149 65.776347 86.020589 C 65.776347 86.96868 65.633031 87.780976 65.346399 88.457133 C 65.067117 89.133291 64.666222 89.647414 64.144405 90.000191 C 63.622588 90.352969 63.012749 90.529358 62.314543 90.529358 C 61.638385 90.529358 61.03957 90.360491 60.517753 90.022412 C 60.003285 89.676984 59.598888 89.169866 59.304907 88.501058 C 59.010926 87.824901 58.864107 87.0056 58.864107 86.04281 C 58.864107 85.080021 59.010926 84.264222 59.304907 83.595414 C 59.606238 82.919257 60.014138 82.412139 60.528605 82.07406 C 61.050422 81.728632 61.642232 81.555745 62.303691 81.555745 z M 113.20498 81.568665 C 113.88848 81.568665 114.49132 81.741034 115.01313 82.086462 C 115.53495 82.424541 115.94285 82.928157 116.23683 83.596965 C 116.53081 84.265773 116.67763 85.078069 116.67763 86.033508 C 116.67763 86.981599 116.53432 87.793378 116.24768 88.469535 C 115.96841 89.145693 115.56803 89.660333 115.04621 90.01311 C 114.52439 90.365889 113.91455 90.542277 113.21635 90.542277 C 112.54019 90.542277 111.94086 90.37341 111.41904 90.035331 C 110.90457 89.689903 110.5007 89.182785 110.20671 88.513977 C 109.91273 87.83782 109.76539 87.018001 109.76539 86.055212 C 109.76539 85.092423 109.91273 84.276625 110.20671 83.607817 C 110.50804 82.931659 110.91594 82.424541 111.43041 82.086462 C 111.95223 81.741034 112.54352 81.568665 113.20498 81.568665 z M 80.940279 99.032715 C 79.793752 99.032715 78.966929 99.304303 78.45981 99.848169 C 77.952692 100.38469 77.699133 101.23005 77.699133 102.38393 L 77.699133 103.77299 L 75.9349 103.77299 L 75.9349 105.3052 L 77.699133 105.3052 L 77.699133 115.46995 L 79.683508 115.46995 L 79.683508 105.3052 L 81.943319 105.3052 L 81.943319 103.77299 L 79.683508 103.77299 L 79.683508 102.53844 C 79.683508 102.11952 79.712565 101.78879 79.771358 101.54626 C 79.837504 101.30372 79.98082 101.11229 80.201306 100.97265 C 80.421793 100.82566 80.756541 100.75251 81.204862 100.75251 C 81.697281 100.75251 82.207902 100.83318 82.737069 100.99487 L 83.167017 99.30815 C 82.417364 99.124412 81.675233 99.032715 80.940279 99.032715 z M 88.084029 103.50841 C 86.996298 103.50841 86.037183 103.75095 85.206685 104.23601 C 84.383537 104.72109 83.744127 105.42314 83.288456 106.34183 C 82.832785 107.26052 82.604777 108.35543 82.604777 109.6269 C 82.604777 110.93512 82.836287 112.04857 83.299308 112.96726 C 83.769678 113.88596 84.41661 114.58049 85.239758 115.05086 C 86.062906 115.51388 87.010996 115.74539 88.084029 115.74539 C 89.164411 115.74539 90.116004 115.50636 90.939152 115.02864 C 91.769649 114.54356 92.416581 113.84203 92.879602 112.92334 C 93.342623 111.9973 93.574133 110.89085 93.574133 109.60468 C 93.574133 108.31116 93.342623 107.20873 92.879602 106.29739 C 92.423931 105.3787 91.784521 104.68417 90.961373 104.21379 C 90.138225 103.74343 89.17911 103.50841 88.084029 103.50841 z M 113.25252 103.50841 C 112.62046 103.50841 112.08027 103.66275 111.63195 103.97143 C 111.18362 104.28011 110.74265 104.80176 110.30903 105.53671 L 110.30903 103.77299 L 108.45695 103.77299 L 108.45695 115.46995 L 110.44132 115.46995 L 110.44132 109.23003 C 110.44132 108.06879 110.66181 107.16481 111.10278 106.51805 C 111.5511 105.86394 112.19751 105.53671 113.04271 105.53671 C 113.57923 105.53671 114.0608 105.65098 114.48707 105.87881 L 115.17075 104.04843 C 114.85472 103.85734 114.54202 103.72155 114.23334 103.6407 C 113.932 103.55251 113.6053 103.50841 113.25252 103.50841 z M 95.856165 103.77299 L 95.856165 111.68827 C 95.856165 112.98914 96.197918 113.99235 96.881425 114.69791 C 97.572281 115.39611 98.597542 115.74539 99.957206 115.74539 C 100.70686 115.74539 101.38285 115.58353 101.98551 115.26015 C 102.59552 114.93677 103.11016 114.46674 103.52908 113.84938 L 103.52908 115.46995 L 105.38116 115.46995 L 105.38116 103.77299 L 103.39679 103.77299 L 103.39679 110.29921 C 103.39679 111.19585 103.28655 111.8944 103.06606 112.39417 C 102.84557 112.89394 102.48878 113.29082 101.99636 113.5848 C 101.51129 113.87878 100.94205 114.0256 100.28794 114.0256 C 99.501538 114.0256 98.895199 113.80511 98.468925 113.36414 C 98.050001 112.92317 97.84054 112.27624 97.84054 111.42369 L 97.84054 103.77299 L 95.856165 103.77299 z M 88.07266 105.13984 C 88.756168 105.13984 89.359002 105.31272 89.880819 105.65815 C 90.402636 105.99623 90.810536 106.49985 91.104517 107.16865 C 91.398498 107.83746 91.545317 108.64924 91.545317 109.60468 C 91.545317 110.55277 91.402 111.36506 91.115369 112.04122 C 90.836086 112.71738 90.435709 113.23202 89.913892 113.5848 C 89.392075 113.93758 88.782235 114.11396 88.084029 114.11396 C 87.407872 114.11396 86.80854 113.94458 86.286723 113.6065 C 85.772255 113.26108 85.368375 112.75396 85.074394 112.08515 C 84.780413 111.409 84.633077 110.58969 84.633077 109.6269 C 84.633077 108.66411 84.780413 107.84832 85.074394 107.1795 C 85.375725 106.50335 85.783624 105.99623 86.298092 105.65815 C 86.819909 105.31272 87.411202 105.13984 88.07266 105.13984 z " />
    <text
       xml:space="preserve"
       transform="scale(0.26458333)"
       id="text3679"
       style="font-size:85.3333px;font-family:'Arial Nova';-inkscape-font-specification:'Arial Nova, Normal';white-space:pre;shape-inside:url(#rect3681);display:inline;fill:#000000" />
  </g>
</svg>
