<?xml version="1.0" encoding="UTF-8" standalone="no"?>
<!-- Created with Inkscape (http://www.inkscape.org/) -->

<svg
   width="720"
   height="720"
   viewBox="0 0 190.5 190.5"
   version="1.1"
   id="svg5"
   sodipodi:docname="3S.svg"
   inkscape:version="1.2.1 (9c6d41e410, 2022-07-14)"
   xmlns:inkscape="http://www.inkscape.org/namespaces/inkscape"
   xmlns:sodipodi="http://sodipodi.sourceforge.net/DTD/sodipodi-0.dtd"
   xmlns="http://www.w3.org/2000/svg"
   xmlns:svg="http://www.w3.org/2000/svg">
  <sodipodi:namedview
     id="namedview7"
     pagecolor="#ffffff"
     bordercolor="#000000"
     borderopacity="0.25"
     inkscape:showpageshadow="2"
     inkscape:pageopacity="0.0"
     inkscape:pagecheckerboard="0"
     inkscape:deskcolor="#d1d1d1"
     inkscape:document-units="mm"
     showgrid="true"
     inkscape:zoom="1.0255231"
     inkscape:cx="402.23375"
     inkscape:cy="371.51772"
     inkscape:window-width="1520"
     inkscape:window-height="1030"
     inkscape:window-x="10"
     inkscape:window-y="0"
     inkscape:window-maximized="0"
     inkscape:current-layer="layer1">
    <inkscape:grid
       type="xygrid"
       id="grid9"
       spacingx="19.05"
       spacingy="19.05" />
  </sodipodi:namedview>
  <defs
     id="defs2">
    <rect
       x="584.09216"
       y="481.70539"
       width="537.28678"
       height="297.4092"
       id="rect4253" />
    <rect
       x="266.20561"
       y="258.40471"
       width="392.97018"
       height="108.23744"
       id="rect3681" />
  </defs>
  <g
     inkscape:label="Ebene 1"
     inkscape:groupmode="layer"
     id="layer1">
    <path
       id="path4407"
       style="font-size:22.5778px;font-family:'Arial Nova';-inkscape-font-specification:'Arial Nova';stroke-width:0.264583"
       d="M 69.86602 75.448108 C 68.815036 75.448108 67.863443 75.635521 67.010897 76.010347 C 66.1657 76.377824 65.500739 76.888962 65.01567 77.54307 C 64.53795 78.197179 64.298918 78.928286 64.298918 79.736735 C 64.298918 80.479038 64.420185 81.121951 64.66272 81.665816 C 64.912604 82.202332 65.350074 82.683899 65.974784 83.110173 C 66.606845 83.536445 67.48477 83.900248 68.609249 84.201579 C 68.859133 84.275074 69.2931 84.381815 69.910461 84.521456 C 70.946746 84.763991 71.736476 84.980458 72.280343 85.171545 C 72.934451 85.399381 73.427043 85.704559 73.757772 86.086735 C 74.088501 86.461561 74.253866 86.987225 74.253866 87.663383 C 74.253866 88.1705 74.077477 88.629502 73.724699 89.041077 C 73.379271 89.445302 72.908728 89.761504 72.313416 89.989339 C 71.718103 90.217175 71.067669 90.33092 70.362113 90.33092 C 69.009798 90.33092 67.947963 90.000191 67.176261 89.338733 C 66.411909 88.669925 65.95641 87.674235 65.80942 86.351318 L 63.703605 86.847412 C 63.95349 88.581903 64.655542 89.901317 65.80942 90.80531 C 66.970647 91.709303 68.517552 92.1613 70.45048 92.1613 C 71.56761 92.1613 72.570821 91.951838 73.460116 91.532914 C 74.349409 91.106641 75.043941 90.525855 75.543709 89.790902 C 76.050827 89.055948 76.304386 88.232627 76.304386 87.321285 C 76.304386 86.417292 76.109452 85.664137 75.719926 85.061475 C 75.33775 84.451463 74.720389 83.940843 73.867843 83.529268 C 73.022646 83.117694 71.876118 82.753892 70.428259 82.437862 C 69.377276 82.210027 68.568998 81.993043 68.003084 81.787256 C 67.44452 81.581469 67.029099 81.324407 66.757166 81.015727 C 66.485232 80.707046 66.349438 80.295127 66.349438 79.78066 C 66.349438 79.280892 66.500276 78.843939 66.801607 78.469112 C 67.102938 78.086937 67.521862 77.792783 68.058378 77.586995 C 68.594894 77.381208 69.212255 77.278487 69.910461 77.278487 C 70.976144 77.278487 71.817494 77.532046 72.434855 78.039164 C 73.059566 78.546282 73.489514 79.387632 73.724699 80.563558 L 73.768624 80.563558 L 75.830514 80.100537 C 75.705571 79.130398 75.381847 78.296053 74.86003 77.597847 C 74.345563 76.899642 73.662056 76.366972 72.809509 75.999495 C 71.956963 75.632019 70.9758 75.448108 69.86602 75.448108 z M 120.76782 75.461027 C 119.71684 75.461027 118.76525 75.64844 117.9127 76.023267 C 117.0675 76.390744 116.40203 76.901364 115.91696 77.555473 C 115.43924 78.209582 115.20072 78.941206 115.20072 79.749654 C 115.20072 80.491957 115.32198 81.134869 115.56452 81.678735 C 115.8144 82.215251 116.25136 82.696819 116.87607 83.123092 C 117.50813 83.549365 118.38657 83.913167 119.51105 84.214498 C 119.76094 84.287993 120.19439 84.394217 120.81175 84.533858 C 121.84803 84.776393 122.63828 84.993376 123.18215 85.184465 C 123.83625 85.4123 124.32884 85.717478 124.65957 86.099654 C 124.9903 86.47448 125.15567 86.999628 125.15567 87.675785 C 125.15567 88.182903 124.97928 88.642422 124.6265 89.053996 C 124.28108 89.45822 123.81053 89.774423 123.21522 90.002258 C 122.61991 90.230094 121.96947 90.34384 121.26392 90.34384 C 119.9116 90.34384 118.84976 90.013111 118.07806 89.351652 C 117.31371 88.682845 116.85769 87.687155 116.71071 86.364237 L 114.60541 86.860331 C 114.85529 88.594821 115.55683 89.913719 116.71071 90.817712 C 117.87193 91.721705 119.41936 92.173702 121.35228 92.173702 C 122.46941 92.173702 123.47263 91.96424 124.36192 91.545317 C 125.25121 91.119044 125.94574 90.538775 126.44551 89.803821 C 126.95262 89.068868 127.20619 88.245547 127.20619 87.334204 C 127.20619 86.430211 127.01125 85.677056 126.62173 85.074394 C 126.23955 84.464382 125.62219 83.953245 124.76965 83.541671 C 123.92445 83.130097 122.77792 82.766295 121.33006 82.450264 C 120.27908 82.222429 119.47081 82.005962 118.90489 81.800175 C 118.34633 81.594388 117.9309 81.336809 117.65897 81.028129 C 117.38704 80.719449 117.25124 80.308047 117.25124 79.793579 C 117.25124 79.29381 117.40157 78.856341 117.70289 78.481514 C 118.00423 78.099339 118.42314 77.805702 118.95966 77.599915 C 119.49618 77.394127 120.11354 77.290889 120.81175 77.290889 C 121.87743 77.290889 122.7193 77.544448 123.33666 78.051567 C 123.96137 78.558684 124.39132 79.400551 124.6265 80.576477 L 124.67043 80.576477 L 126.7318 80.113456 C 126.60686 79.143317 126.28365 78.308973 125.76183 77.610767 C 125.24737 76.912561 124.56386 76.379892 123.71131 76.012415 C 122.85877 75.644938 121.87761 75.461027 120.76782 75.461027 z M 95.635506 99.032715 C 94.584522 99.032715 93.632929 99.220128 92.780383 99.594954 C 91.935186 99.962431 91.269709 100.47305 90.784639 101.12716 C 90.30692 101.78127 90.068404 102.51238 90.068404 103.32083 C 90.068404 104.06313 90.189672 104.70656 90.432206 105.25042 C 90.682091 105.78694 91.119043 106.26799 91.743754 106.69426 C 92.375814 107.12054 93.254256 107.48434 94.378735 107.78567 C 94.628619 107.85916 95.06207 107.9659 95.679431 108.10555 C 96.715716 108.34808 97.505964 108.56507 98.049829 108.75615 C 98.703938 108.98399 99.196529 109.28865 99.527258 109.67083 C 99.857987 110.04565 100.02335 110.57131 100.02335 111.24747 C 100.02335 111.75459 99.846963 112.2141 99.494185 112.62568 C 99.148757 113.0299 98.678215 113.34559 98.082902 113.57343 C 97.487589 113.80126 96.837155 113.91553 96.1316 113.91553 C 94.779285 113.91553 93.71745 113.5848 92.945748 112.92334 C 92.181397 112.25453 91.725381 111.25833 91.578389 109.93541 L 89.473092 110.4315 C 89.722975 112.16599 90.424512 113.48541 91.578389 114.3894 C 92.739616 115.29339 94.287038 115.74539 96.219967 115.74539 C 97.337096 115.74539 98.340308 115.53593 99.229602 115.117 C 100.1189 114.69073 100.81343 114.10994 101.3132 113.37499 C 101.82032 112.64004 102.07387 111.81724 102.07387 110.90589 C 102.07387 110.0019 101.87894 109.24822 101.48941 108.64556 C 101.10724 108.03555 100.48988 107.52493 99.637329 107.11336 C 98.792132 106.70179 97.645604 106.33799 96.197746 106.02195 C 95.146762 105.79412 94.338486 105.57713 93.772571 105.37135 C 93.214006 105.16555 92.798585 104.9085 92.526652 104.59982 C 92.25472 104.29114 92.118925 103.87973 92.118925 103.36527 C 92.118925 102.8655 92.269246 102.42803 92.570577 102.0532 C 92.871908 101.67102 93.290832 101.37687 93.827348 101.17109 C 94.363864 100.9653 94.981225 100.86258 95.679431 100.86258 C 96.745114 100.86258 97.58698 101.11613 98.204342 101.62325 C 98.829052 102.13037 99.259 102.97172 99.494185 104.14765 L 99.53811 104.14765 L 101.59948 103.68463 C 101.47454 102.71449 101.15133 101.88066 100.62952 101.18245 C 100.11505 100.48425 99.431542 99.951066 98.578996 99.583586 C 97.72645 99.216109 96.745286 99.032715 95.635506 99.032715 z " />
    <text
       xml:space="preserve"
       transform="scale(0.26458333)"
       id="text3679"
       style="font-size:85.3333px;font-family:'Arial Nova';-inkscape-font-specification:'Arial Nova, Normal';white-space:pre;shape-inside:url(#rect3681);display:inline;fill:#000000" />
    <text
       xml:space="preserve"
       transform="scale(0.26458333)"
       id="text4251"
       style="fill:#000000;font-size:85.33333333px;-inkscape-font-specification:'Arial Nova, Normal';font-family:'Arial Nova';white-space:pre;shape-inside:url(#rect4253)" />
  </g>
</svg>
