<?xml version="1.0" encoding="UTF-8" standalone="no"?>
<!-- Created with Inkscape (http://www.inkscape.org/) -->

<svg
   width="720"
   height="720"
   viewBox="0 0 190.5 190.5"
   version="1.1"
   id="svg5"
   sodipodi:docname="35.svg"
   inkscape:version="1.2.1 (9c6d41e410, 2022-07-14)"
   xmlns:inkscape="http://www.inkscape.org/namespaces/inkscape"
   xmlns:sodipodi="http://sodipodi.sourceforge.net/DTD/sodipodi-0.dtd"
   xmlns="http://www.w3.org/2000/svg"
   xmlns:svg="http://www.w3.org/2000/svg">
  <sodipodi:namedview
     id="namedview7"
     pagecolor="#ffffff"
     bordercolor="#000000"
     borderopacity="0.25"
     inkscape:showpageshadow="2"
     inkscape:pageopacity="0.0"
     inkscape:pagecheckerboard="0"
     inkscape:deskcolor="#d1d1d1"
     inkscape:document-units="mm"
     showgrid="true"
     inkscape:zoom="1.0255231"
     inkscape:cx="402.23375"
     inkscape:cy="371.51772"
     inkscape:window-width="1520"
     inkscape:window-height="1030"
     inkscape:window-x="10"
     inkscape:window-y="0"
     inkscape:window-maximized="0"
     inkscape:current-layer="layer1">
    <inkscape:grid
       type="xygrid"
       id="grid9"
       spacingx="19.05"
       spacingy="19.05" />
  </sodipodi:namedview>
  <defs
     id="defs2">
    <rect
       x="584.09216"
       y="481.70539"
       width="537.28678"
       height="297.4092"
       id="rect4253" />
    <rect
       x="266.20561"
       y="258.40471"
       width="392.97018"
       height="108.23744"
       id="rect3681" />
  </defs>
  <g
     inkscape:label="Ebene 1"
     inkscape:groupmode="layer"
     id="layer1">
    <path
       id="path4257"
       style="font-size:22.5778px;font-family:'Arial Nova';-inkscape-font-specification:'Arial Nova';stroke-width:0.264583"
       d="M 66.570097 75.988643 L 65.324178 84.300798 L 67.087895 84.565381 C 67.381876 84.10236 67.8008 83.720012 68.344666 83.418681 C 68.895881 83.11735 69.447096 82.967029 69.998311 82.967029 C 70.645071 82.967029 71.214832 83.11735 71.707251 83.418681 C 72.19967 83.712662 72.582018 84.135605 72.853951 84.68682 C 73.133233 85.238036 73.27253 85.88445 73.27253 86.626754 C 73.27253 87.361708 73.129214 88.027185 72.842582 88.622498 C 72.55595 89.210461 72.155573 89.676984 71.641105 90.022412 C 71.126638 90.360491 70.545852 90.529358 69.899093 90.529358 C 69.083294 90.529358 68.399787 90.272296 67.848572 89.757829 C 67.304706 89.243361 66.944923 88.486187 66.768534 87.48665 L 64.784159 87.795675 C 65.011995 89.206786 65.566713 90.287167 66.448657 91.03682 C 67.330602 91.786473 68.477129 92.1613 69.888241 92.1613 C 71.00537 92.1613 71.979011 91.918765 72.809509 91.433695 C 73.640007 90.948626 74.279417 90.276143 74.727738 89.416248 C 75.17606 88.549002 75.400566 87.556815 75.400566 86.439685 C 75.400566 85.396051 75.183582 84.477014 74.749959 83.683264 C 74.323686 82.889514 73.739398 82.279675 72.997095 81.853402 C 72.262141 81.419779 71.44284 81.202795 70.538847 81.202795 C 69.958233 81.202795 69.414023 81.29099 68.906905 81.467379 C 68.399787 81.643767 67.944288 81.893824 67.540063 82.217204 L 68.19067 77.906873 L 74.62852 77.906873 L 74.62852 75.988643 L 66.570097 75.988643 z M 117.47138 76.001046 L 116.22598 84.313717 L 117.9897 84.5783 C 118.28368 84.115279 118.7026 83.732931 119.24647 83.4316 C 119.79768 83.130269 120.34889 82.979431 120.90011 82.979431 C 121.54687 82.979431 122.11663 83.130269 122.60905 83.4316 C 123.10147 83.725582 123.4833 84.148007 123.75524 84.699223 C 124.03452 85.250438 124.17433 85.89737 124.17433 86.639673 C 124.17433 87.374627 124.03102 88.039587 123.74438 88.6349 C 123.45775 89.222863 123.05737 89.689903 122.54291 90.035331 C 122.02844 90.37341 121.44765 90.542277 120.8009 90.542277 C 119.9851 90.542277 119.30159 90.285216 118.75037 89.770748 C 118.20651 89.25628 117.84621 88.499106 117.66982 87.499569 L 115.68545 87.808077 C 115.91328 89.219188 116.46851 90.29957 117.35046 91.049223 C 118.23241 91.798875 119.37893 92.173702 120.79004 92.173702 C 121.90717 92.173702 122.88081 91.931167 123.71131 91.446098 C 124.54181 90.961028 125.18122 90.288546 125.62954 89.42865 C 126.07786 88.561404 126.30185 87.569217 126.30185 86.452087 C 126.30185 85.408453 126.08538 84.489933 125.65176 83.696183 C 125.22549 82.902433 124.6412 82.292594 123.8989 81.866321 C 123.16394 81.432699 122.34413 81.215715 121.44013 81.215715 C 120.85952 81.215715 120.31583 81.303909 119.80871 81.480298 C 119.30159 81.656687 118.84609 81.906743 118.44187 82.230123 L 119.09196 77.919275 L 125.53032 77.919275 L 125.53032 76.001046 L 117.47138 76.001046 z M 92.339067 99.572734 L 91.093665 107.88489 L 92.857381 108.14947 C 93.151363 107.68645 93.570287 107.30462 94.114152 107.00329 C 94.665367 106.70196 95.216582 106.55112 95.767798 106.55112 C 96.414557 106.55112 96.984318 106.70196 97.476737 107.00329 C 97.969156 107.29727 98.350988 107.7197 98.622921 108.27091 C 98.902203 108.82212 99.042017 109.46905 99.042017 110.21136 C 99.042017 110.94631 98.898701 111.61127 98.612069 112.20659 C 98.325437 112.79455 97.925059 113.26108 97.410592 113.6065 C 96.896124 113.94458 96.315338 114.11396 95.668579 114.11396 C 94.852781 114.11396 94.169274 113.85639 93.618058 113.34192 C 93.074192 112.82745 92.713893 112.07079 92.537504 111.07126 L 90.553129 111.37976 C 90.780965 112.79088 91.336199 113.87126 92.218144 114.62091 C 93.100088 115.37056 94.246616 115.74539 95.657727 115.74539 C 96.774857 115.74539 97.748499 115.50286 98.578996 115.01779 C 99.409494 114.53272 100.0489 113.86024 100.49722 113.00034 C 100.94554 112.13309 101.16954 111.1409 101.16954 110.02378 C 101.16954 108.98014 100.95307 108.06162 100.51945 107.26787 C 100.09318 106.47412 99.508884 105.86376 98.766581 105.43749 C 98.031627 105.00387 97.21181 104.7874 96.307817 104.7874 C 95.727203 104.7874 95.18351 104.8756 94.676392 105.05199 C 94.169273 105.22837 93.713774 105.47791 93.30955 105.80129 L 93.959639 101.49096 L 100.39801 101.49096 L 100.39801 99.572734 L 92.339067 99.572734 z " />
    <text
       xml:space="preserve"
       transform="scale(0.26458333)"
       id="text3679"
       style="font-size:85.3333px;font-family:'Arial Nova';-inkscape-font-specification:'Arial Nova, Normal';white-space:pre;shape-inside:url(#rect3681);display:inline;fill:#000000" />
    <text
       xml:space="preserve"
       transform="scale(0.26458333)"
       id="text4251"
       style="fill:#000000;font-size:85.33333333px;-inkscape-font-specification:'Arial Nova, Normal';font-family:'Arial Nova';white-space:pre;shape-inside:url(#rect4253)" />
  </g>
</svg>
