<?xml version="1.0" encoding="UTF-8" standalone="no"?>
<!-- Created with Inkscape (http://www.inkscape.org/) -->

<svg
   width="720"
   height="720"
   viewBox="0 0 190.5 190.5"
   version="1.1"
   id="svg5"
   sodipodi:docname="3B.svg"
   inkscape:version="1.2.1 (9c6d41e410, 2022-07-14)"
   xmlns:inkscape="http://www.inkscape.org/namespaces/inkscape"
   xmlns:sodipodi="http://sodipodi.sourceforge.net/DTD/sodipodi-0.dtd"
   xmlns="http://www.w3.org/2000/svg"
   xmlns:svg="http://www.w3.org/2000/svg">
  <sodipodi:namedview
     id="namedview7"
     pagecolor="#ffffff"
     bordercolor="#000000"
     borderopacity="0.25"
     inkscape:showpageshadow="2"
     inkscape:pageopacity="0.0"
     inkscape:pagecheckerboard="0"
     inkscape:deskcolor="#d1d1d1"
     inkscape:document-units="mm"
     showgrid="true"
     inkscape:zoom="1.0255231"
     inkscape:cx="402.23375"
     inkscape:cy="371.51772"
     inkscape:window-width="1520"
     inkscape:window-height="1030"
     inkscape:window-x="10"
     inkscape:window-y="0"
     inkscape:window-maximized="0"
     inkscape:current-layer="layer1">
    <inkscape:grid
       type="xygrid"
       id="grid9"
       spacingx="19.05"
       spacingy="19.05" />
  </sodipodi:namedview>
  <defs
     id="defs2">
    <rect
       x="584.09216"
       y="481.70539"
       width="537.28678"
       height="297.4092"
       id="rect4253" />
    <rect
       x="266.20561"
       y="258.40471"
       width="392.97018"
       height="108.23744"
       id="rect3681" />
  </defs>
  <g
     inkscape:label="Ebene 1"
     inkscape:groupmode="layer"
     id="layer1">
    <path
       id="path4332"
       style="font-size:22.5778px;font-family:'Arial Nova';-inkscape-font-specification:'Arial Nova';stroke-width:0.264583"
       d="M 63.924264 75.72406 L 63.924264 91.885347 L 70.229822 91.885347 C 71.405747 91.885347 72.419984 91.701954 73.27253 91.334477 C 74.125077 90.95965 74.775511 90.422962 75.223832 89.724756 C 75.679504 89.0192 75.907511 88.173831 75.907511 87.188993 C 75.907511 86.189456 75.646431 85.351609 75.124613 84.675452 C 74.602797 83.999294 73.857163 83.536274 72.887024 83.286389 C 73.59258 82.95566 74.139776 82.489137 74.529301 81.886475 C 74.926176 81.276463 75.124613 80.596458 75.124613 79.846806 C 75.124613 79.023658 74.933697 78.303576 74.551522 77.686214 C 74.169346 77.068853 73.585057 76.587286 72.798657 76.241858 C 72.019606 75.89643 71.049467 75.72406 69.888241 75.72406 L 63.924264 75.72406 z M 114.82555 75.736462 L 114.82555 91.898267 L 121.13162 91.898267 C 122.30755 91.898267 123.32179 91.714356 124.17433 91.346879 C 125.02688 90.972053 125.67732 90.435882 126.12563 89.737675 C 126.58131 89.03212 126.80931 88.18675 126.80931 87.201912 C 126.80931 86.202375 126.54823 85.364528 126.02642 84.688371 C 125.5046 84.012213 124.75845 83.549193 123.78831 83.299308 C 124.49386 82.968579 125.04158 82.502056 125.4311 81.899394 C 125.82798 81.289382 126.02642 80.609378 126.02642 79.859725 C 126.02642 79.036576 125.8355 78.316494 125.45332 77.699133 C 125.07115 77.081772 124.48687 76.600205 123.70046 76.254777 C 122.92141 75.909349 121.95127 75.736462 120.79004 75.736462 L 114.82555 75.736462 z M 66.062634 77.642289 L 69.414368 77.642289 C 70.671138 77.642289 71.578633 77.840727 72.137199 78.237602 C 72.695764 78.627127 72.974874 79.181845 72.974874 79.9021 C 72.974874 80.835491 72.699266 81.500452 72.148051 81.897327 C 71.604185 82.294202 70.781381 82.492639 69.678951 82.492639 L 66.062634 82.492639 L 66.062634 77.642289 z M 116.96444 77.654692 L 120.31565 77.654692 C 121.57243 77.654692 122.48044 77.853129 123.039 78.250004 C 123.59756 78.63953 123.87668 79.194764 123.87668 79.915019 C 123.87668 80.84841 123.60107 81.51337 123.04985 81.910246 C 122.50599 82.307121 121.68267 82.505558 120.58024 82.505558 L 116.96444 82.505558 L 116.96444 77.654692 z M 66.062634 84.410868 L 69.712024 84.410868 C 71.04229 84.410868 72.03798 84.631354 72.699438 85.072327 C 73.368246 85.513299 73.702478 86.218854 73.702478 87.188993 C 73.702478 88.122384 73.404822 88.820935 72.809509 89.283956 C 72.214197 89.739627 71.273628 89.967118 69.987459 89.967118 L 66.062634 89.967118 L 66.062634 84.410868 z M 116.96444 84.423787 L 120.61331 84.423787 C 121.94358 84.423787 122.93978 84.644274 123.60124 85.085246 C 124.27005 85.526218 124.60428 86.231773 124.60428 87.201912 C 124.60428 88.135304 124.30662 88.833337 123.71131 89.296358 C 123.116 89.752029 122.17543 89.980037 120.88926 89.980037 L 116.96444 89.980037 L 116.96444 84.423787 z M 89.693233 99.30815 L 89.693233 115.46995 L 95.999308 115.46995 C 97.175234 115.46995 98.18947 115.28605 99.042017 114.91857 C 99.894565 114.54374 100.545 114.00705 100.99332 113.30885 C 101.44899 112.60329 101.677 111.75844 101.677 110.7736 C 101.677 109.77406 101.41592 108.93621 100.8941 108.26006 C 100.37228 107.5839 99.626129 107.12088 98.655994 106.871 C 99.361549 106.54027 99.90926 106.07323 100.29879 105.47056 C 100.69566 104.86056 100.8941 104.18107 100.8941 103.43141 C 100.8941 102.60826 100.70318 101.88766 100.32101 101.2703 C 99.93883 100.65294 99.354544 100.1719 98.568144 99.826465 C 97.789093 99.481037 96.818955 99.30815 95.657727 99.30815 L 89.693233 99.30815 z M 91.832121 101.22638 L 95.183337 101.22638 C 96.440108 101.22638 97.348121 101.42481 97.906685 101.82169 C 98.46525 102.21121 98.74436 102.76593 98.74436 103.48619 C 98.74436 104.41958 98.468753 105.08506 97.917537 105.48193 C 97.373672 105.87881 96.550352 106.07725 95.447921 106.07725 L 91.832121 106.07725 L 91.832121 101.22638 z M 91.832121 107.99548 L 95.480994 107.99548 C 96.81126 107.99548 97.807467 108.21596 98.468925 108.65693 C 99.137733 109.09791 99.471965 109.80346 99.471965 110.7736 C 99.471965 111.70699 99.174309 112.40503 98.578996 112.86805 C 97.983684 113.32372 97.043115 113.55173 95.756946 113.55173 L 91.832121 113.55173 L 91.832121 107.99548 z " />
    <text
       xml:space="preserve"
       transform="scale(0.26458333)"
       id="text3679"
       style="font-size:85.3333px;font-family:'Arial Nova';-inkscape-font-specification:'Arial Nova, Normal';white-space:pre;shape-inside:url(#rect3681);display:inline;fill:#000000" />
    <text
       xml:space="preserve"
       transform="scale(0.26458333)"
       id="text4251"
       style="fill:#000000;font-size:85.33333333px;-inkscape-font-specification:'Arial Nova, Normal';font-family:'Arial Nova';white-space:pre;shape-inside:url(#rect4253)" />
  </g>
</svg>
