<?xml version="1.0" encoding="UTF-8" standalone="no"?>
<!-- Created with Inkscape (http://www.inkscape.org/) -->

<svg
   width="720"
   height="720"
   viewBox="0 0 190.5 190.5"
   version="1.1"
   id="svg5"
   sodipodi:docname="3five.svg"
   inkscape:version="1.2.1 (9c6d41e410, 2022-07-14)"
   xmlns:inkscape="http://www.inkscape.org/namespaces/inkscape"
   xmlns:sodipodi="http://sodipodi.sourceforge.net/DTD/sodipodi-0.dtd"
   xmlns="http://www.w3.org/2000/svg"
   xmlns:svg="http://www.w3.org/2000/svg">
  <sodipodi:namedview
     id="namedview7"
     pagecolor="#ffffff"
     bordercolor="#000000"
     borderopacity="0.25"
     inkscape:showpageshadow="2"
     inkscape:pageopacity="0.0"
     inkscape:pagecheckerboard="0"
     inkscape:deskcolor="#d1d1d1"
     inkscape:document-units="mm"
     showgrid="true"
     inkscape:zoom="1.0255231"
     inkscape:cx="349.57769"
     inkscape:cy="371.51772"
     inkscape:window-width="1520"
     inkscape:window-height="1030"
     inkscape:window-x="10"
     inkscape:window-y="0"
     inkscape:window-maximized="0"
     inkscape:current-layer="layer1">
    <inkscape:grid
       type="xygrid"
       id="grid9"
       spacingx="19.05"
       spacingy="19.05" />
  </sodipodi:namedview>
  <defs
     id="defs2">
    <rect
       x="266.20561"
       y="258.40471"
       width="392.97018"
       height="108.23744"
       id="rect3681" />
  </defs>
  <g
     inkscape:label="Ebene 1"
     inkscape:groupmode="layer"
     id="layer1">
    <path
       id="path4091"
       style="font-size:22.5778px;font-family:'Arial Nova';-inkscape-font-specification:'Arial Nova';stroke-width:0.264583"
       d="M 58.180428 75.448108 C 57.092696 75.448108 56.306468 75.73474 55.821399 76.308004 C 55.343679 76.881268 55.104647 77.660491 55.104647 78.645329 L 55.104647 80.188904 L 53.34093 80.188904 L 53.34093 81.72111 L 55.104647 81.72111 L 55.104647 91.885347 L 57.089022 91.885347 L 57.089022 81.72111 L 59.172616 81.72111 L 59.172616 80.188904 L 57.089022 80.188904 L 57.089022 79.075277 C 57.089022 78.502013 57.177217 78.042495 57.353605 77.697066 C 57.529994 77.344289 57.857221 77.1679 58.334941 77.1679 C 58.65832 77.1679 59.066219 77.241567 59.558639 77.388558 L 59.977218 75.72406 C 59.61709 75.628519 59.297385 75.558354 59.018103 75.514254 C 58.74617 75.470154 58.46706 75.448108 58.180428 75.448108 z M 109.08223 75.461027 C 107.9945 75.461027 107.20775 75.747659 106.72268 76.320923 C 106.24497 76.894187 106.00645 77.67341 106.00645 78.658248 L 106.00645 80.201306 L 104.24222 80.201306 L 104.24222 81.734029 L 106.00645 81.734029 L 106.00645 91.898267 L 107.99082 91.898267 L 107.99082 81.734029 L 110.07442 81.734029 L 110.07442 80.201306 L 107.99082 80.201306 L 107.99082 79.088196 C 107.99082 78.514932 108.07902 78.055414 108.25541 77.709985 C 108.43179 77.357208 108.75851 77.180819 109.23623 77.180819 C 109.55961 77.180819 109.9675 77.254487 110.45992 77.401477 L 110.87902 75.736462 C 110.51889 75.640921 110.19919 75.571273 109.91991 75.527173 C 109.64797 75.483073 109.36886 75.461027 109.08223 75.461027 z M 60.859334 75.72406 L 60.859334 77.973018 L 62.854561 77.973018 L 62.854561 75.72406 L 60.859334 75.72406 z M 111.76114 75.736462 L 111.76114 77.985421 L 113.75636 77.985421 L 113.75636 75.736462 L 111.76114 75.736462 z M 81.419836 79.92432 C 80.302707 79.92432 79.328549 80.177879 78.498051 80.684998 C 77.674902 81.192116 77.043015 81.912198 76.602043 82.845589 C 76.16107 83.77898 75.940584 84.873889 75.940584 86.13066 C 75.940584 87.350683 76.164572 88.416538 76.612895 89.327881 C 77.061216 90.231874 77.697123 90.929907 78.520272 91.422327 C 79.350769 91.914746 80.32441 92.1613 81.441541 92.1613 C 82.71301 92.1613 83.800914 91.834073 84.704907 91.179964 C 85.61625 90.518506 86.237114 89.595967 86.567843 88.412691 L 84.627909 88.115035 C 84.414773 88.842639 84.032425 89.426927 83.481209 89.8679 C 82.937344 90.308872 82.290413 90.529358 81.540759 90.529358 C 80.857253 90.529358 80.254935 90.375017 79.733118 90.066337 C 79.21865 89.750307 78.810751 89.294808 78.50942 88.699495 C 78.208091 88.096833 78.035205 87.376751 77.991105 86.538904 L 86.744576 86.538904 L 86.744576 86.13066 C 86.744576 84.822442 86.527593 83.701982 86.09397 82.768591 C 85.660347 81.8352 85.042986 81.129645 84.241886 80.651925 C 83.440787 80.166855 82.500218 79.92432 81.419836 79.92432 z M 132.32112 79.936723 C 131.204 79.936723 130.23035 80.190282 129.39985 80.6974 C 128.57671 81.204518 127.94482 81.925117 127.50385 82.858508 C 127.06287 83.791899 126.84239 84.886808 126.84239 86.143579 C 126.84239 87.363603 127.06638 88.429458 127.5147 89.3408 C 127.96302 90.244793 128.59892 90.942827 129.42207 91.435246 C 130.25257 91.927665 131.22621 92.173702 132.34334 92.173702 C 133.61482 92.173702 134.70272 91.846992 135.60671 91.192883 C 136.51805 90.531425 137.13891 89.608886 137.46965 88.42561 L 135.5292 88.127954 C 135.31606 88.855559 134.93422 89.439846 134.38301 89.880819 C 133.83915 90.321791 133.19221 90.542277 132.44256 90.542277 C 131.75906 90.542277 131.15622 90.387937 130.6344 90.079256 C 130.11994 89.763227 129.71204 89.307727 129.41071 88.712415 C 129.10935 88.109752 128.93697 87.389153 128.89291 86.551306 L 137.64586 86.551306 L 137.64586 86.143579 C 137.64586 84.835362 137.4294 83.714385 136.99577 82.780994 C 136.56215 81.847602 135.94479 81.142047 135.14369 80.664327 C 134.34259 80.179257 133.40151 79.936723 132.32112 79.936723 z M 60.859334 80.188904 L 60.859334 91.885347 L 62.854561 91.885347 L 62.854561 80.188904 L 60.859334 80.188904 z M 64.563501 80.188904 L 69.017493 91.885347 L 70.869576 91.885347 L 75.289978 80.188904 L 73.261678 80.188904 L 70.65977 87.321285 C 70.321691 88.239977 70.083176 88.986127 69.943534 89.559391 L 69.899093 89.559391 C 69.649208 88.63335 69.373601 87.751405 69.07227 86.913558 L 66.669316 80.188904 L 64.563501 80.188904 z M 111.76114 80.201306 L 111.76114 91.898267 L 113.75636 91.898267 L 113.75636 80.201306 L 111.76114 80.201306 z M 115.4653 80.201306 L 119.91878 91.898267 L 121.77086 91.898267 L 126.19178 80.201306 L 124.16348 80.201306 L 121.56157 87.334204 C 121.22349 88.252897 120.98446 88.999046 120.84482 89.57231 L 120.8009 89.57231 C 120.55102 88.646269 120.27541 87.764324 119.97407 86.926477 L 117.5706 80.201306 L 115.4653 80.201306 z M 81.397616 81.544893 C 82.323657 81.544893 83.065788 81.835028 83.624353 82.415641 C 84.190268 82.996255 84.532021 83.82658 84.649613 84.906962 L 78.057251 84.906962 C 78.145446 84.238155 78.34038 83.650364 78.641711 83.143245 C 78.950392 82.636127 79.339745 82.242755 79.810116 81.963472 C 80.280486 81.68419 80.809653 81.544893 81.397616 81.544893 z M 132.29942 81.557296 C 133.22546 81.557296 133.96759 81.847947 134.52616 82.42856 C 135.09207 83.009174 135.43382 83.839499 135.55142 84.919881 L 128.95905 84.919881 C 129.04725 84.251073 129.24167 83.663283 129.543 83.156165 C 129.85168 82.649046 130.24155 82.255674 130.71192 81.976392 C 131.18229 81.697109 131.71146 81.557296 132.29942 81.557296 z M 83.949915 99.032715 C 82.862183 99.032715 82.075438 99.319347 81.590369 99.892611 C 81.112648 100.46588 80.874133 101.24458 80.874133 102.22942 L 80.874133 103.77299 L 79.1099 103.77299 L 79.1099 105.3052 L 80.874133 105.3052 L 80.874133 115.46995 L 82.858508 115.46995 L 82.858508 105.3052 L 84.942102 105.3052 L 84.942102 103.77299 L 82.858508 103.77299 L 82.858508 102.65937 C 82.858508 102.08611 82.946702 101.62711 83.123092 101.28167 C 83.29948 100.9289 83.62619 100.75251 84.10391 100.75251 C 84.42729 100.75251 84.835189 100.82566 85.327608 100.97265 L 85.746704 99.30815 C 85.386577 99.212609 85.066872 99.142961 84.78759 99.098861 C 84.515656 99.054761 84.236546 99.032715 83.949915 99.032715 z M 86.628821 99.30815 L 86.628821 101.55711 L 88.624048 101.55711 L 88.624048 99.30815 L 86.628821 99.30815 z M 107.18881 103.50841 C 106.07167 103.50841 105.09804 103.76197 104.26754 104.26909 C 103.44439 104.77621 102.8125 105.49629 102.37153 106.42968 C 101.93056 107.36307 101.71007 108.45849 101.71007 109.71527 C 101.71007 110.93529 101.93406 112.00063 102.38238 112.91197 C 102.83071 113.81596 103.46661 114.51451 104.28976 115.00693 C 105.12026 115.49935 106.0939 115.74539 107.21103 115.74539 C 108.4825 115.74539 109.5704 115.41817 110.47439 114.76405 C 111.38574 114.1026 112.0066 113.18058 112.33733 111.9973 L 110.39688 111.69964 C 110.18375 112.42725 109.80192 113.01153 109.2507 113.45251 C 108.70683 113.89348 108.0599 114.11396 107.31025 114.11396 C 106.62674 114.11396 106.02391 113.95962 105.50209 113.65094 C 104.98762 113.33491 104.57972 112.8789 104.27839 112.28359 C 103.97709 111.68093 103.80472 110.96084 103.76059 110.12299 L 112.51355 110.12299 L 112.51355 109.71527 C 112.51355 108.40705 112.29708 107.28607 111.86346 106.35268 C 111.42983 105.41929 110.81247 104.71373 110.01137 104.23601 C 109.21027 103.75095 108.26919 103.50841 107.18881 103.50841 z M 86.628821 103.77299 L 86.628821 115.46995 L 88.624048 115.46995 L 88.624048 103.77299 L 86.628821 103.77299 z M 90.332987 103.77299 L 94.786462 115.46995 L 96.638546 115.46995 L 101.05946 103.77299 L 99.031165 103.77299 L 96.429256 110.90589 C 96.091178 111.82458 95.852145 112.57022 95.712504 113.14348 L 95.668579 113.14348 C 95.418695 112.21744 95.143087 111.3355 94.841756 110.49765 L 92.438285 103.77299 L 90.332987 103.77299 z M 107.1671 105.12898 C 108.09314 105.12898 108.83527 105.41912 109.39384 105.99973 C 109.95975 106.58034 110.30151 107.41118 110.4191 108.49157 L 103.82674 108.49157 C 103.91493 107.82276 104.10935 107.23445 104.41068 106.72734 C 104.71936 106.22022 105.10923 105.82737 105.5796 105.54808 C 106.04997 105.2688 106.57914 105.12898 107.1671 105.12898 z " />
    <text
       xml:space="preserve"
       transform="scale(0.26458333)"
       id="text3679"
       style="font-size:85.3333px;font-family:'Arial Nova';-inkscape-font-specification:'Arial Nova, Normal';white-space:pre;shape-inside:url(#rect3681);display:inline;fill:#000000" />
  </g>
</svg>
