<?xml version="1.0" encoding="UTF-8" standalone="no"?>
<!-- Created with Inkscape (http://www.inkscape.org/) -->

<svg
   width="720"
   height="720"
   viewBox="0 0 190.5 190.5"
   version="1.1"
   id="svg5"
   sodipodi:docname="3W.svg"
   inkscape:version="1.2.1 (9c6d41e410, 2022-07-14)"
   xmlns:inkscape="http://www.inkscape.org/namespaces/inkscape"
   xmlns:sodipodi="http://sodipodi.sourceforge.net/DTD/sodipodi-0.dtd"
   xmlns="http://www.w3.org/2000/svg"
   xmlns:svg="http://www.w3.org/2000/svg">
  <sodipodi:namedview
     id="namedview7"
     pagecolor="#ffffff"
     bordercolor="#000000"
     borderopacity="0.25"
     inkscape:showpageshadow="2"
     inkscape:pageopacity="0.0"
     inkscape:pagecheckerboard="0"
     inkscape:deskcolor="#d1d1d1"
     inkscape:document-units="mm"
     showgrid="true"
     inkscape:zoom="1.0255231"
     inkscape:cx="402.23375"
     inkscape:cy="371.51772"
     inkscape:window-width="1520"
     inkscape:window-height="1030"
     inkscape:window-x="10"
     inkscape:window-y="0"
     inkscape:window-maximized="0"
     inkscape:current-layer="layer1">
    <inkscape:grid
       type="xygrid"
       id="grid9"
       spacingx="19.05"
       spacingy="19.05" />
  </sodipodi:namedview>
  <defs
     id="defs2">
    <rect
       x="584.09216"
       y="481.70539"
       width="537.28678"
       height="297.4092"
       id="rect4253" />
    <rect
       x="266.20561"
       y="258.40471"
       width="392.97018"
       height="108.23744"
       id="rect3681" />
  </defs>
  <g
     inkscape:label="Ebene 1"
     inkscape:groupmode="layer"
     id="layer1">
    <path
       id="path4382"
       style="font-size:22.5778px;font-family:'Arial Nova';-inkscape-font-specification:'Arial Nova';stroke-width:0.264583"
       d="M 60.363241 75.72406 L 64.464282 91.885347 L 66.614022 91.885347 L 69.877389 79.582222 C 70.031728 78.99426 70.156498 78.43202 70.252043 77.895504 C 70.318188 78.218883 70.42091 78.652851 70.560551 79.196716 L 73.83477 91.885347 L 75.984509 91.885347 L 80.163066 75.72406 L 78.013326 75.72406 L 75.632076 85.943591 C 75.227852 87.685432 74.985317 88.820935 74.904472 89.350102 C 74.742782 88.166826 74.511272 87.001752 74.209941 85.855225 L 71.585811 75.72406 L 69.028345 75.72406 L 66.184074 86.494462 C 66.059131 86.972182 65.937864 87.4793 65.820272 88.015816 C 65.710029 88.552332 65.629356 88.997324 65.577909 89.350102 C 65.452967 88.387313 65.261535 87.358033 65.004301 86.262952 L 62.546053 75.72406 L 60.363241 75.72406 z M 111.26504 75.736462 L 115.36608 91.898267 L 117.51582 91.898267 L 120.77867 79.595142 C 120.93301 79.007179 121.0583 78.444939 121.15385 77.908423 C 121.21999 78.231802 121.32271 78.665253 121.46235 79.209119 L 124.73657 91.898267 L 126.88631 91.898267 L 131.06435 75.736462 L 128.91461 75.736462 L 126.53336 85.955994 C 126.12914 87.697834 125.8866 88.833337 125.80576 89.362504 C 125.64407 88.179229 125.41256 87.014672 125.11123 85.868144 L 122.48761 75.736462 L 119.93015 75.736462 L 117.08588 86.507381 C 116.96093 86.985101 116.83967 87.492219 116.72207 88.028735 C 116.61185 88.565251 116.53066 89.009726 116.4792 89.362504 C 116.35426 88.399714 116.16334 87.370952 115.9061 86.275871 L 113.44786 75.736462 L 111.26504 75.736462 z M 86.132727 99.30815 L 90.233769 115.46995 L 92.383508 115.46995 L 95.646358 103.16683 C 95.800699 102.57887 95.925985 102.01663 96.021529 101.48011 C 96.087675 101.80349 96.190396 102.23694 96.330037 102.78081 L 99.604256 115.46995 L 101.754 115.46995 L 105.93204 99.30815 L 103.7823 99.30815 L 101.40105 109.52768 C 100.99682 111.26953 100.75429 112.40503 100.67344 112.93419 C 100.51176 111.75091 100.28024 110.58584 99.97891 109.43931 L 97.355298 99.30815 L 94.797831 99.30815 L 91.95356 110.07907 C 91.828619 110.55679 91.707351 111.06391 91.589758 111.60042 C 91.479515 112.13694 91.398326 112.58141 91.346879 112.93419 C 91.221937 111.9714 91.031021 110.94264 90.773787 109.84756 L 88.31554 99.30815 L 86.132727 99.30815 z " />
    <text
       xml:space="preserve"
       transform="scale(0.26458333)"
       id="text3679"
       style="font-size:85.3333px;font-family:'Arial Nova';-inkscape-font-specification:'Arial Nova, Normal';white-space:pre;shape-inside:url(#rect3681);display:inline;fill:#000000" />
    <text
       xml:space="preserve"
       transform="scale(0.26458333)"
       id="text4251"
       style="fill:#000000;font-size:85.33333333px;-inkscape-font-specification:'Arial Nova, Normal';font-family:'Arial Nova';white-space:pre;shape-inside:url(#rect4253)" />
  </g>
</svg>
