<?xml version="1.0" encoding="UTF-8" standalone="no"?>
<!-- Created with Inkscape (http://www.inkscape.org/) -->

<svg
   width="720"
   height="720"
   viewBox="0 0 190.5 190.5"
   version="1.1"
   id="svg5"
   sodipodi:docname="4D.svg"
   inkscape:version="1.2.1 (9c6d41e410, 2022-07-14)"
   xmlns:inkscape="http://www.inkscape.org/namespaces/inkscape"
   xmlns:sodipodi="http://sodipodi.sourceforge.net/DTD/sodipodi-0.dtd"
   xmlns="http://www.w3.org/2000/svg"
   xmlns:svg="http://www.w3.org/2000/svg">
  <sodipodi:namedview
     id="namedview7"
     pagecolor="#ffffff"
     bordercolor="#000000"
     borderopacity="0.25"
     inkscape:showpageshadow="2"
     inkscape:pageopacity="0.0"
     inkscape:pagecheckerboard="0"
     inkscape:deskcolor="#d1d1d1"
     inkscape:document-units="mm"
     showgrid="true"
     inkscape:zoom="1.0255231"
     inkscape:cx="349.57769"
     inkscape:cy="371.51772"
     inkscape:window-width="1520"
     inkscape:window-height="1030"
     inkscape:window-x="10"
     inkscape:window-y="0"
     inkscape:window-maximized="0"
     inkscape:current-layer="layer1">
    <inkscape:grid
       type="xygrid"
       id="grid9"
       spacingx="19.05"
       spacingy="19.05" />
  </sodipodi:namedview>
  <defs
     id="defs2">
    <rect
       x="266.20561"
       y="258.40471"
       width="392.97018"
       height="108.23744"
       id="rect3681" />
  </defs>
  <g
     inkscape:label="Ebene 1"
     inkscape:groupmode="layer"
     id="layer1">
    <path
       id="path3903"
       style="font-size:22.5778px;font-family:'Arial Nova';-inkscape-font-specification:'Arial Nova';stroke-width:0.264583"
       d="M 63.924264 75.72406 L 63.924264 91.885347 L 69.645878 91.885347 C 71.152533 91.885347 72.442377 91.573164 73.515409 90.948454 C 74.588442 90.316394 75.407742 89.390352 75.973657 88.170329 C 76.546921 86.950306 76.833553 85.465527 76.833553 83.716337 C 76.833553 81.996545 76.554444 80.541337 75.995878 79.350712 C 75.437313 78.152737 74.636042 77.248744 73.592407 76.638733 C 72.548773 76.028722 71.295505 75.72406 69.832947 75.72406 L 63.924264 75.72406 z M 114.82555 75.736462 L 114.82555 91.898267 L 120.54716 91.898267 C 122.05382 91.898267 123.34366 91.586084 124.4167 90.961373 C 125.48973 90.329312 126.30955 89.403271 126.87546 88.183248 C 127.44873 86.963224 127.73536 85.478446 127.73536 83.729256 C 127.73536 82.009465 127.45573 80.554257 126.89716 79.363631 C 126.3386 78.165657 125.53784 77.261664 124.49421 76.651652 C 123.45058 76.041641 122.19731 75.736462 120.73475 75.736462 L 114.82555 75.736462 z M 66.062634 77.642289 L 69.557511 77.642289 C 71.218507 77.642289 72.475277 78.127359 73.327824 79.097498 C 74.18772 80.060287 74.617668 81.585144 74.617668 83.672412 C 74.617668 85.833176 74.195242 87.424179 73.350045 88.445764 C 72.504848 89.46 71.215004 89.967118 69.480514 89.967118 L 66.062634 89.967118 L 66.062634 77.642289 z M 116.96444 77.654692 L 120.45931 77.654692 C 122.12031 77.654692 123.37708 78.139761 124.22963 79.1099 C 125.08953 80.07269 125.51947 81.598063 125.51947 83.685331 C 125.51947 85.846095 125.09653 87.437098 124.25133 88.458683 C 123.40614 89.472919 122.11629 89.980037 120.3818 89.980037 L 116.96444 89.980037 L 116.96444 77.654692 z M 63.662781 99.295231 L 63.662781 115.45704 L 69.384395 115.45704 C 70.891051 115.45704 72.180894 115.14485 73.253927 114.52014 C 74.326959 113.88808 75.14626 112.96204 75.712174 111.74202 C 76.285438 110.52199 76.57207 109.03722 76.57207 107.28802 C 76.57207 105.56823 76.29296 104.11303 75.734395 102.9224 C 75.175831 101.72443 74.374559 100.82043 73.330924 100.21042 C 72.28729 99.600411 71.034022 99.295231 69.571464 99.295231 L 63.662781 99.295231 z M 114.56407 99.30815 L 114.56407 115.46995 L 120.28568 115.46995 C 121.79234 115.46995 123.08218 115.15726 124.15521 114.53254 C 125.22824 113.90048 126.04806 112.97444 126.61398 111.75442 C 127.18724 110.5344 127.47387 109.05014 127.47387 107.30094 C 127.47387 105.58115 127.19425 104.12594 126.63568 102.93532 C 126.07712 101.73735 125.27636 100.83335 124.23273 100.22334 C 123.18909 99.613326 121.93583 99.30815 120.47327 99.30815 L 114.56407 99.30815 z M 65.801152 101.21346 L 69.296029 101.21346 C 70.957024 101.21346 72.213795 101.69853 73.066341 102.66867 C 73.926237 103.63145 74.356185 105.15683 74.356185 107.2441 C 74.356185 109.40486 73.933759 110.99587 73.088562 112.01745 C 72.243366 113.03168 70.953522 113.53881 69.219031 113.53881 L 65.801152 113.53881 L 65.801152 101.21346 z M 116.70295 101.22638 L 120.19783 101.22638 C 121.85882 101.22638 123.11559 101.71145 123.96814 102.68159 C 124.82804 103.64438 125.25799 105.16924 125.25799 107.2565 C 125.25799 109.41727 124.83505 111.00879 123.98985 112.03037 C 123.14466 113.04461 121.85481 113.55173 120.12032 113.55173 L 116.70295 113.55173 L 116.70295 101.22638 z " />
    <text
       xml:space="preserve"
       transform="scale(0.26458333)"
       id="text3679"
       style="font-size:85.3333px;font-family:'Arial Nova';-inkscape-font-specification:'Arial Nova, Normal';white-space:pre;shape-inside:url(#rect3681);display:inline;fill:#000000" />
  </g>
</svg>
