<?xml version="1.0" encoding="UTF-8" standalone="no"?>
<!-- Created with Inkscape (http://www.inkscape.org/) -->

<svg
   width="720"
   height="720"
   viewBox="0 0 190.5 190.5"
   version="1.1"
   id="svg5"
   sodipodi:docname="4five.svg"
   inkscape:version="1.2.1 (9c6d41e410, 2022-07-14)"
   xmlns:inkscape="http://www.inkscape.org/namespaces/inkscape"
   xmlns:sodipodi="http://sodipodi.sourceforge.net/DTD/sodipodi-0.dtd"
   xmlns="http://www.w3.org/2000/svg"
   xmlns:svg="http://www.w3.org/2000/svg">
  <sodipodi:namedview
     id="namedview7"
     pagecolor="#ffffff"
     bordercolor="#000000"
     borderopacity="0.25"
     inkscape:showpageshadow="2"
     inkscape:pageopacity="0.0"
     inkscape:pagecheckerboard="0"
     inkscape:deskcolor="#d1d1d1"
     inkscape:document-units="mm"
     showgrid="true"
     inkscape:zoom="1.0255231"
     inkscape:cx="349.57769"
     inkscape:cy="371.51772"
     inkscape:window-width="1520"
     inkscape:window-height="1030"
     inkscape:window-x="10"
     inkscape:window-y="0"
     inkscape:window-maximized="0"
     inkscape:current-layer="layer1">
    <inkscape:grid
       type="xygrid"
       id="grid9"
       spacingx="19.05"
       spacingy="19.05" />
  </sodipodi:namedview>
  <defs
     id="defs2">
    <rect
       x="266.20561"
       y="258.40471"
       width="392.97018"
       height="108.23744"
       id="rect3681" />
  </defs>
  <g
     inkscape:label="Ebene 1"
     inkscape:groupmode="layer"
     id="layer1">
    <path
       id="path4027"
       style="font-size:22.5778px;font-family:'Arial Nova';-inkscape-font-specification:'Arial Nova';stroke-width:0.264583"
       d="M 58.180428 75.448108 C 57.092696 75.448108 56.306468 75.73474 55.821399 76.308004 C 55.343679 76.881268 55.104647 77.660491 55.104647 78.645329 L 55.104647 80.188904 L 53.34093 80.188904 L 53.34093 81.72111 L 55.104647 81.72111 L 55.104647 91.885347 L 57.089022 91.885347 L 57.089022 81.72111 L 59.172616 81.72111 L 59.172616 80.188904 L 57.089022 80.188904 L 57.089022 79.075277 C 57.089022 78.502013 57.177217 78.042495 57.353605 77.697066 C 57.529994 77.344289 57.857221 77.1679 58.334941 77.1679 C 58.65832 77.1679 59.066219 77.241567 59.558639 77.388558 L 59.977218 75.72406 C 59.61709 75.628519 59.297385 75.558354 59.018103 75.514254 C 58.74617 75.470154 58.46706 75.448108 58.180428 75.448108 z M 109.08223 75.461027 C 107.9945 75.461027 107.20775 75.747659 106.72268 76.320923 C 106.24497 76.894187 106.00645 77.67341 106.00645 78.658248 L 106.00645 80.201306 L 104.24222 80.201306 L 104.24222 81.734029 L 106.00645 81.734029 L 106.00645 91.898267 L 107.99082 91.898267 L 107.99082 81.734029 L 110.07442 81.734029 L 110.07442 80.201306 L 107.99082 80.201306 L 107.99082 79.088196 C 107.99082 78.514932 108.07902 78.055414 108.25541 77.709985 C 108.43179 77.357208 108.75851 77.180819 109.23623 77.180819 C 109.55961 77.180819 109.9675 77.254487 110.45992 77.401477 L 110.87902 75.736462 C 110.51889 75.640921 110.19919 75.571273 109.91991 75.527173 C 109.64797 75.483073 109.36886 75.461027 109.08223 75.461027 z M 60.859334 75.72406 L 60.859334 77.973018 L 62.854561 77.973018 L 62.854561 75.72406 L 60.859334 75.72406 z M 111.76114 75.736462 L 111.76114 77.985421 L 113.75636 77.985421 L 113.75636 75.736462 L 111.76114 75.736462 z M 81.419836 79.92432 C 80.302707 79.92432 79.328549 80.177879 78.498051 80.684998 C 77.674902 81.192116 77.043015 81.912198 76.602043 82.845589 C 76.16107 83.77898 75.940584 84.873889 75.940584 86.13066 C 75.940584 87.350683 76.164572 88.416538 76.612895 89.327881 C 77.061216 90.231874 77.697123 90.929907 78.520272 91.422327 C 79.350769 91.914746 80.32441 92.1613 81.441541 92.1613 C 82.71301 92.1613 83.800914 91.834073 84.704907 91.179964 C 85.61625 90.518506 86.237114 89.595967 86.567843 88.412691 L 84.627909 88.115035 C 84.414773 88.842639 84.032425 89.426927 83.481209 89.8679 C 82.937344 90.308872 82.290413 90.529358 81.540759 90.529358 C 80.857253 90.529358 80.254935 90.375017 79.733118 90.066337 C 79.21865 89.750307 78.810751 89.294808 78.50942 88.699495 C 78.208091 88.096833 78.035205 87.376751 77.991105 86.538904 L 86.744576 86.538904 L 86.744576 86.13066 C 86.744576 84.822442 86.527593 83.701982 86.09397 82.768591 C 85.660347 81.8352 85.042986 81.129645 84.241886 80.651925 C 83.440787 80.166855 82.500218 79.92432 81.419836 79.92432 z M 132.32112 79.936723 C 131.204 79.936723 130.23035 80.190282 129.39985 80.6974 C 128.57671 81.204518 127.94482 81.925117 127.50385 82.858508 C 127.06287 83.791899 126.84239 84.886808 126.84239 86.143579 C 126.84239 87.363603 127.06638 88.429458 127.5147 89.3408 C 127.96302 90.244793 128.59892 90.942827 129.42207 91.435246 C 130.25257 91.927665 131.22621 92.173702 132.34334 92.173702 C 133.61482 92.173702 134.70272 91.846992 135.60671 91.192883 C 136.51805 90.531425 137.13891 89.608886 137.46965 88.42561 L 135.5292 88.127954 C 135.31606 88.855559 134.93422 89.439846 134.38301 89.880819 C 133.83915 90.321791 133.19221 90.542277 132.44256 90.542277 C 131.75906 90.542277 131.15622 90.387937 130.6344 90.079256 C 130.11994 89.763227 129.71204 89.307727 129.41071 88.712415 C 129.10935 88.109752 128.93697 87.389153 128.89291 86.551306 L 137.64586 86.551306 L 137.64586 86.143579 C 137.64586 84.835362 137.4294 83.714385 136.99577 82.780994 C 136.56215 81.847602 135.94479 81.142047 135.14369 80.664327 C 134.34259 80.179257 133.40151 79.936723 132.32112 79.936723 z M 60.859334 80.188904 L 60.859334 91.885347 L 62.854561 91.885347 L 62.854561 80.188904 L 60.859334 80.188904 z M 64.563501 80.188904 L 69.017493 91.885347 L 70.869576 91.885347 L 75.289978 80.188904 L 73.261678 80.188904 L 70.65977 87.321285 C 70.321691 88.239977 70.083176 88.986127 69.943534 89.559391 L 69.899093 89.559391 C 69.649208 88.63335 69.373601 87.751405 69.07227 86.913558 L 66.669316 80.188904 L 64.563501 80.188904 z M 111.76114 80.201306 L 111.76114 91.898267 L 113.75636 91.898267 L 113.75636 80.201306 L 111.76114 80.201306 z M 115.4653 80.201306 L 119.91878 91.898267 L 121.77086 91.898267 L 126.19178 80.201306 L 124.16348 80.201306 L 121.56157 87.334204 C 121.22349 88.252897 120.98446 88.999046 120.84482 89.57231 L 120.8009 89.57231 C 120.55102 88.646269 120.27541 87.764324 119.97407 86.926477 L 117.5706 80.201306 L 115.4653 80.201306 z M 81.397616 81.544893 C 82.323657 81.544893 83.065788 81.835028 83.624353 82.415641 C 84.190268 82.996255 84.532021 83.82658 84.649613 84.906962 L 78.057251 84.906962 C 78.145446 84.238155 78.34038 83.650364 78.641711 83.143245 C 78.950392 82.636127 79.339745 82.242755 79.810116 81.963472 C 80.280486 81.68419 80.809653 81.544893 81.397616 81.544893 z M 132.29942 81.557296 C 133.22546 81.557296 133.96759 81.847947 134.52616 82.42856 C 135.09207 83.009174 135.43382 83.839499 135.55142 84.919881 L 128.95905 84.919881 C 129.04725 84.251073 129.24167 83.663283 129.543 83.156165 C 129.85168 82.649046 130.24155 82.255674 130.71192 81.976392 C 131.18229 81.697109 131.71146 81.557296 132.29942 81.557296 z M 57.918945 99.019796 C 56.831214 99.019796 56.044986 99.306427 55.559916 99.879692 C 55.082196 100.45296 54.843164 101.23218 54.843164 102.21702 L 54.843164 103.76007 L 53.079447 103.76007 L 53.079447 105.2928 L 54.843164 105.2928 L 54.843164 115.45704 L 56.827539 115.45704 L 56.827539 105.2928 L 58.911133 105.2928 L 58.911133 103.76007 L 56.827539 103.76007 L 56.827539 102.64696 C 56.827539 102.07371 56.915733 101.61418 57.092122 101.26875 C 57.268512 100.91597 57.595738 100.73959 58.073458 100.73959 C 58.396838 100.73959 58.804737 100.81326 59.297156 100.96025 L 59.715735 99.295231 C 59.355608 99.19969 59.035903 99.130042 58.75662 99.085942 C 58.484687 99.041842 58.205577 99.019796 57.918945 99.019796 z M 108.82075 99.032715 C 107.73302 99.032715 106.94627 99.319347 106.4612 99.892611 C 105.98348 100.46588 105.74497 101.24458 105.74497 102.22942 L 105.74497 103.77299 L 103.98073 103.77299 L 103.98073 105.3052 L 105.74497 105.3052 L 105.74497 115.46995 L 107.72934 115.46995 L 107.72934 105.3052 L 109.81294 105.3052 L 109.81294 103.77299 L 107.72934 103.77299 L 107.72934 102.65937 C 107.72934 102.08611 107.81754 101.62711 107.99392 101.28167 C 108.17031 100.9289 108.49702 100.75251 108.97474 100.75251 C 109.29812 100.75251 109.70602 100.82566 110.19844 100.97265 L 110.61754 99.30815 C 110.25741 99.212609 109.93771 99.142961 109.65842 99.098861 C 109.38649 99.054761 109.10738 99.032715 108.82075 99.032715 z M 60.597852 99.295231 L 60.597852 101.54419 L 62.593079 101.54419 L 62.593079 99.295231 L 60.597852 99.295231 z M 111.49965 99.30815 L 111.49965 101.55711 L 113.49488 101.55711 L 113.49488 99.30815 L 111.49965 99.30815 z M 81.158354 103.49549 C 80.041223 103.49549 79.067065 103.74906 78.236568 104.25617 C 77.41342 104.76329 76.781532 105.48388 76.34056 106.41728 C 75.899588 107.35067 75.679102 108.44558 75.679102 109.70235 C 75.679102 110.92237 75.90309 111.98822 76.351412 112.89957 C 76.799733 113.80356 77.435641 114.50159 78.258789 114.99401 C 79.089287 115.48643 80.062928 115.73247 81.180058 115.73247 C 82.451528 115.73247 83.539431 115.40576 84.443424 114.75165 C 85.354767 114.0902 85.97563 113.16766 86.30636 111.98438 L 84.366427 111.68672 C 84.15329 112.41433 83.770942 112.99861 83.219727 113.43959 C 82.67586 113.88056 82.028929 114.10105 81.279277 114.10105 C 80.59577 114.10105 79.993452 113.9467 79.471635 113.63802 C 78.957167 113.32199 78.549268 112.8665 78.247937 112.27118 C 77.946609 111.66852 77.773722 110.94792 77.729622 110.11007 L 86.483093 110.11007 L 86.483093 109.70235 C 86.483093 108.39413 86.26611 107.27315 85.832487 106.33976 C 85.398864 105.40637 84.781503 104.70082 83.980404 104.2231 C 83.179304 103.73803 82.238735 103.49549 81.158354 103.49549 z M 132.05964 103.50841 C 130.94251 103.50841 129.96887 103.76197 129.13837 104.26909 C 128.31522 104.77621 127.68334 105.49629 127.24236 106.42968 C 126.80139 107.36307 126.5809 108.45849 126.5809 109.71527 C 126.5809 110.93529 126.80489 112.00063 127.25321 112.91197 C 127.70153 113.81596 128.33744 114.51451 129.16059 115.00693 C 129.99109 115.49935 130.96473 115.74539 132.08186 115.74539 C 133.35333 115.74539 134.44123 115.41817 135.34523 114.76405 C 136.25657 114.1026 136.87743 113.18058 137.20816 111.9973 L 135.26771 111.69964 C 135.05457 112.42725 134.67274 113.01153 134.12153 113.45251 C 133.57766 113.89348 132.93073 114.11396 132.18108 114.11396 C 131.49757 114.11396 130.89474 113.95962 130.37292 113.65094 C 129.85845 113.33491 129.45056 112.8789 129.14922 112.28359 C 128.84786 111.68093 128.67549 110.96084 128.63142 110.12299 L 137.38438 110.12299 L 137.38438 109.71527 C 137.38438 108.40705 137.16792 107.28607 136.73429 106.35268 C 136.30067 105.41929 135.68331 104.71373 134.88221 104.23601 C 134.08111 103.75095 133.14003 103.50841 132.05964 103.50841 z M 60.597852 103.76007 L 60.597852 115.45704 L 62.593079 115.45704 L 62.593079 103.76007 L 60.597852 103.76007 z M 64.302018 103.76007 L 68.75601 115.45704 L 70.608093 115.45704 L 75.028495 103.76007 L 73.000195 103.76007 L 70.398287 110.89297 C 70.060209 111.81167 69.821693 112.55781 69.682052 113.13108 L 69.63761 113.13108 C 69.387725 112.20504 69.112118 111.3231 68.810787 110.48525 L 66.407833 103.76007 L 64.302018 103.76007 z M 111.49965 103.77299 L 111.49965 115.46995 L 113.49488 115.46995 L 113.49488 103.77299 L 111.49965 103.77299 z M 115.20382 103.77299 L 119.6573 115.46995 L 121.50938 115.46995 L 125.9303 103.77299 L 123.902 103.77299 L 121.30009 110.90589 C 120.96201 111.82458 120.72298 112.57022 120.58334 113.14348 L 120.53941 113.14348 C 120.28953 112.21744 120.01392 111.3355 119.71259 110.49765 L 117.30912 103.77299 L 115.20382 103.77299 z M 81.136133 105.11606 C 82.062175 105.11606 82.804306 105.40672 83.36287 105.98733 C 83.928784 106.56794 84.270538 107.39826 84.388131 108.47865 L 77.795768 108.47865 C 77.883963 107.80984 78.078898 107.22205 78.380229 106.71493 C 78.688909 106.20781 79.078263 105.81444 79.548633 105.53516 C 80.019004 105.25587 80.54817 105.11606 81.136133 105.11606 z M 132.03794 105.12898 C 132.96398 105.12898 133.70611 105.41912 134.26467 105.99973 C 134.83059 106.58034 135.17234 107.41118 135.28993 108.49157 L 128.69757 108.49157 C 128.78576 107.82276 128.98019 107.23445 129.28151 106.72734 C 129.5902 106.22022 129.98007 105.82737 130.45044 105.54808 C 130.92081 105.2688 131.44998 105.12898 132.03794 105.12898 z " />
    <text
       xml:space="preserve"
       transform="scale(0.26458333)"
       id="text3679"
       style="font-size:85.3333px;font-family:'Arial Nova';-inkscape-font-specification:'Arial Nova, Normal';white-space:pre;shape-inside:url(#rect3681);display:inline;fill:#000000" />
  </g>
</svg>
