<?xml version="1.0" encoding="UTF-8" standalone="no"?>
<!-- Created with Inkscape (http://www.inkscape.org/) -->

<svg
   width="720"
   height="720"
   viewBox="0 0 190.5 190.5"
   version="1.1"
   id="svg5"
   sodipodi:docname="40.svg"
   inkscape:version="1.2.1 (9c6d41e410, 2022-07-14)"
   xmlns:inkscape="http://www.inkscape.org/namespaces/inkscape"
   xmlns:sodipodi="http://sodipodi.sourceforge.net/DTD/sodipodi-0.dtd"
   xmlns="http://www.w3.org/2000/svg"
   xmlns:svg="http://www.w3.org/2000/svg">
  <sodipodi:namedview
     id="namedview7"
     pagecolor="#ffffff"
     bordercolor="#000000"
     borderopacity="0.25"
     inkscape:showpageshadow="2"
     inkscape:pageopacity="0.0"
     inkscape:pagecheckerboard="0"
     inkscape:deskcolor="#d1d1d1"
     inkscape:document-units="mm"
     showgrid="true"
     inkscape:zoom="1.0255231"
     inkscape:cx="349.57769"
     inkscape:cy="371.51772"
     inkscape:window-width="1520"
     inkscape:window-height="1030"
     inkscape:window-x="10"
     inkscape:window-y="0"
     inkscape:window-maximized="0"
     inkscape:current-layer="layer1">
    <inkscape:grid
       type="xygrid"
       id="grid9"
       spacingx="19.05"
       spacingy="19.05" />
  </sodipodi:namedview>
  <defs
     id="defs2">
    <rect
       x="266.20561"
       y="258.40471"
       width="392.97018"
       height="108.23744"
       id="rect3681" />
  </defs>
  <g
     inkscape:label="Ebene 1"
     inkscape:groupmode="layer"
     id="layer1">
    <path
       id="path3738"
       style="font-size:22.5778px;font-family:'Arial Nova';-inkscape-font-specification:'Arial Nova';stroke-width:0.264583"
       d="M 70.031384 75.72406 C 68.642322 75.72406 67.565959 76.098887 66.801607 76.848539 C 66.037255 77.598192 65.508088 78.549785 65.214107 79.703662 C 64.920126 80.85019 64.772791 82.272325 64.772791 83.970068 C 64.772791 86.579154 65.173685 88.596602 65.974784 90.022412 C 66.775884 91.448223 68.127854 92.1613 70.031384 92.1613 C 71.84672 92.1613 73.177158 91.470271 74.022355 90.088558 C 74.874901 88.706845 75.301347 86.656324 75.301347 83.936995 C 75.301347 81.078025 74.860375 78.994432 73.97843 77.686214 C 73.096486 76.377997 71.780574 75.72406 70.031384 75.72406 z M 120.93319 75.736462 C 119.54412 75.736462 118.46725 76.111289 117.70289 76.860942 C 116.93854 77.610595 116.40937 78.562704 116.11539 79.716581 C 115.82141 80.863109 115.67459 82.285244 115.67459 83.982987 C 115.67459 86.592074 116.07497 88.609521 116.87607 90.035331 C 117.67717 91.461141 119.02966 92.173702 120.93319 92.173702 C 122.74852 92.173702 124.07896 91.48319 124.92416 90.101477 C 125.7767 88.719764 126.20263 86.669243 126.20263 83.949915 C 126.20263 81.090945 125.76166 79.007351 124.87972 77.699133 C 123.99777 76.390915 122.68237 75.736462 120.93319 75.736462 z M 69.998311 77.355485 C 70.747964 77.355485 71.35832 77.568449 71.828691 77.994722 C 72.30641 78.413646 72.662691 79.108177 72.897876 80.078316 C 73.140411 81.041105 73.261678 82.334969 73.261678 83.959216 C 73.261678 85.576115 73.143913 86.865959 72.908728 87.828748 C 72.680892 88.784188 72.332134 89.4747 71.861764 89.900972 C 71.391393 90.319896 70.781037 90.529358 70.031384 90.529358 C 69.274382 90.529358 68.66104 90.319896 68.19067 89.900972 C 67.727649 89.4747 67.381876 88.784188 67.154041 87.828748 C 66.926205 86.865959 66.812459 85.576115 66.812459 83.959216 C 66.812459 82.334969 66.930224 81.041105 67.165409 80.078316 C 67.400594 79.108177 67.749353 78.413646 68.212374 77.994722 C 68.675395 77.568449 69.270707 77.355485 69.998311 77.355485 z M 120.90011 77.368404 C 121.64977 77.368404 122.2596 77.581369 122.72998 78.007642 C 123.2077 78.426565 123.56449 79.121096 123.79968 80.091235 C 124.04221 81.054025 124.16348 82.347371 124.16348 83.971619 C 124.16348 85.588516 124.04572 86.87836 123.81053 87.84115 C 123.5827 88.79659 123.23342 89.487619 122.76305 89.913892 C 122.29268 90.332816 121.68284 90.542277 120.93319 90.542277 C 120.17618 90.542277 119.56232 90.332816 119.09196 89.913892 C 118.62893 89.487619 118.28368 88.79659 118.05584 87.84115 C 117.82801 86.87836 117.71426 85.588516 117.71426 83.971619 C 117.71426 82.347371 117.83152 81.054025 118.0667 80.091235 C 118.30188 79.121096 118.65116 78.426565 119.11418 78.007642 C 119.5772 77.581369 120.17251 77.368404 120.90011 77.368404 z M 69.769902 99.295231 C 68.380839 99.295231 67.304476 99.670054 66.540125 100.41971 C 65.775773 101.16936 65.246606 102.12148 64.952625 103.27535 C 64.658643 104.42188 64.511308 105.84402 64.511308 107.54176 C 64.511308 110.15085 64.912202 112.16829 65.713302 113.5941 C 66.514401 115.01991 67.866371 115.73247 69.769902 115.73247 C 71.585237 115.73247 72.915676 115.04196 73.760872 113.66025 C 74.613419 112.27853 75.039864 110.22801 75.039864 107.50868 C 75.039864 104.64971 74.598892 102.56612 73.716947 101.2579 C 72.835003 99.949687 71.519091 99.295231 69.769902 99.295231 z M 120.6717 99.30815 C 119.28265 99.30815 118.20576 99.682976 117.44141 100.43263 C 116.67706 101.18228 116.14789 102.13387 115.85391 103.28775 C 115.55993 104.43428 115.41311 105.85641 115.41311 107.55416 C 115.41311 110.16324 115.81349 112.18069 116.61459 113.6065 C 117.41569 115.03231 118.76818 115.74539 120.6717 115.74539 C 122.48704 115.74539 123.81748 115.05436 124.66267 113.67265 C 125.51522 112.29094 125.94115 110.24042 125.94115 107.52109 C 125.94115 104.66212 125.50018 102.57852 124.61823 101.2703 C 123.73629 99.962085 122.4209 99.30815 120.6717 99.30815 z M 69.736829 100.92717 C 70.486481 100.92717 71.096838 101.14014 71.567208 101.56641 C 72.044928 101.98534 72.401208 102.67987 72.636393 103.65 C 72.878928 104.6128 73.000195 105.90614 73.000195 107.53039 C 73.000195 109.14729 72.882431 110.43713 72.647245 111.39992 C 72.41941 112.35536 72.070652 113.04639 71.600281 113.47266 C 71.129911 113.89158 70.519554 114.10105 69.769902 114.10105 C 69.012899 114.10105 68.399557 113.89158 67.929187 113.47266 C 67.466166 113.04639 67.120394 112.35536 66.892558 111.39992 C 66.664722 110.43713 66.550977 109.14729 66.550977 107.53039 C 66.550977 105.90614 66.668741 104.6128 66.903927 103.65 C 67.139112 102.67987 67.487871 101.98534 67.950891 101.56641 C 68.413912 101.14014 69.009224 100.92717 69.736829 100.92717 z M 120.63863 100.93958 C 121.38828 100.93958 121.99812 101.15306 122.46849 101.57933 C 122.94621 101.99825 123.30301 102.69278 123.5382 103.66292 C 123.78073 104.62572 123.902 105.91906 123.902 107.54331 C 123.902 109.1602 123.78423 110.45005 123.54905 111.41284 C 123.32121 112.36828 122.97194 113.05931 122.50157 113.48558 C 122.03119 113.90451 121.42136 114.11396 120.6717 114.11396 C 119.9147 114.11396 119.30085 113.90451 118.83047 113.48558 C 118.36745 113.05931 118.02219 112.36828 117.79436 111.41284 C 117.56652 110.45005 117.45278 109.1602 117.45278 107.54331 C 117.45278 105.91906 117.57003 104.62572 117.80521 103.66292 C 118.0404 102.69278 118.38967 101.99825 118.85269 101.57933 C 119.31571 101.15306 119.91103 100.93958 120.63863 100.93958 z " />
    <text
       xml:space="preserve"
       transform="scale(0.26458333)"
       id="text3679"
       style="font-size:85.3333px;font-family:'Arial Nova';-inkscape-font-specification:'Arial Nova, Normal';white-space:pre;shape-inside:url(#rect3681);display:inline;fill:#000000" />
  </g>
</svg>
