<?xml version="1.0" encoding="UTF-8" standalone="no"?>
<!-- Created with Inkscape (http://www.inkscape.org/) -->

<svg
   width="720"
   height="720"
   viewBox="0 0 190.5 190.5"
   version="1.1"
   id="svg5"
   sodipodi:docname="45.svg"
   inkscape:version="1.2.1 (9c6d41e410, 2022-07-14)"
   xmlns:inkscape="http://www.inkscape.org/namespaces/inkscape"
   xmlns:sodipodi="http://sodipodi.sourceforge.net/DTD/sodipodi-0.dtd"
   xmlns="http://www.w3.org/2000/svg"
   xmlns:svg="http://www.w3.org/2000/svg">
  <sodipodi:namedview
     id="namedview7"
     pagecolor="#ffffff"
     bordercolor="#000000"
     borderopacity="0.25"
     inkscape:showpageshadow="2"
     inkscape:pageopacity="0.0"
     inkscape:pagecheckerboard="0"
     inkscape:deskcolor="#d1d1d1"
     inkscape:document-units="mm"
     showgrid="true"
     inkscape:zoom="1.0255231"
     inkscape:cx="349.57769"
     inkscape:cy="371.51772"
     inkscape:window-width="1520"
     inkscape:window-height="1030"
     inkscape:window-x="10"
     inkscape:window-y="0"
     inkscape:window-maximized="0"
     inkscape:current-layer="layer1">
    <inkscape:grid
       type="xygrid"
       id="grid9"
       spacingx="19.05"
       spacingy="19.05" />
  </sodipodi:namedview>
  <defs
     id="defs2">
    <rect
       x="266.20561"
       y="258.40471"
       width="392.97018"
       height="108.23744"
       id="rect3681" />
  </defs>
  <g
     inkscape:label="Ebene 1"
     inkscape:groupmode="layer"
     id="layer1">
    <path
       id="path3790"
       style="font-size:22.5778px;font-family:'Arial Nova';-inkscape-font-specification:'Arial Nova';stroke-width:0.264583"
       d="M 66.570097 75.988643 L 65.324178 84.300798 L 67.087895 84.565381 C 67.381876 84.10236 67.8008 83.720012 68.344666 83.418681 C 68.895881 83.11735 69.447096 82.967029 69.998311 82.967029 C 70.645071 82.967029 71.214832 83.11735 71.707251 83.418681 C 72.19967 83.712662 72.582018 84.135605 72.853951 84.68682 C 73.133233 85.238036 73.27253 85.88445 73.27253 86.626754 C 73.27253 87.361708 73.129214 88.027185 72.842582 88.622498 C 72.55595 89.210461 72.155573 89.676984 71.641105 90.022412 C 71.126638 90.360491 70.545852 90.529358 69.899093 90.529358 C 69.083294 90.529358 68.399787 90.272296 67.848572 89.757829 C 67.304706 89.243361 66.944923 88.486187 66.768534 87.48665 L 64.784159 87.795675 C 65.011995 89.206786 65.566713 90.287167 66.448657 91.03682 C 67.330602 91.786473 68.477129 92.1613 69.888241 92.1613 C 71.00537 92.1613 71.979011 91.918765 72.809509 91.433695 C 73.640007 90.948626 74.279417 90.276143 74.727738 89.416248 C 75.17606 88.549002 75.400566 87.556815 75.400566 86.439685 C 75.400566 85.396051 75.183582 84.477014 74.749959 83.683264 C 74.323686 82.889514 73.739398 82.279675 72.997095 81.853402 C 72.262141 81.419779 71.44284 81.202795 70.538847 81.202795 C 69.958233 81.202795 69.414023 81.29099 68.906905 81.467379 C 68.399787 81.643767 67.944288 81.893824 67.540063 82.217204 L 68.19067 77.906873 L 74.62852 77.906873 L 74.62852 75.988643 L 66.570097 75.988643 z M 117.47138 76.001046 L 116.22598 84.313717 L 117.9897 84.5783 C 118.28368 84.115279 118.7026 83.732931 119.24647 83.4316 C 119.79768 83.130269 120.3489 82.979431 120.90011 82.979431 C 121.54687 82.979431 122.11663 83.130269 122.60905 83.4316 C 123.10147 83.725582 123.4833 84.148007 123.75524 84.699223 C 124.03452 85.250438 124.17433 85.89737 124.17433 86.639673 C 124.17433 87.374627 124.03102 88.039587 123.74438 88.6349 C 123.45775 89.222863 123.05737 89.689903 122.54291 90.035331 C 122.02844 90.37341 121.44765 90.542277 120.8009 90.542277 C 119.9851 90.542277 119.30159 90.285216 118.75037 89.770748 C 118.20651 89.25628 117.84621 88.499106 117.66982 87.499569 L 115.68545 87.808077 C 115.91328 89.219188 116.46852 90.29957 117.35046 91.049223 C 118.23241 91.798875 119.37893 92.173702 120.79004 92.173702 C 121.90718 92.173702 122.88082 91.931167 123.71131 91.446098 C 124.54181 90.961028 125.18121 90.288546 125.62954 89.42865 C 126.07786 88.561404 126.30237 87.569217 126.30237 86.452087 C 126.30237 85.408453 126.08539 84.489933 125.65176 83.696183 C 125.22549 82.902433 124.6412 82.292594 123.8989 81.866321 C 123.16394 81.432699 122.34413 81.215715 121.44013 81.215715 C 120.85951 81.215715 120.31582 81.303909 119.80871 81.480298 C 119.30159 81.656687 118.84609 81.906743 118.44187 82.230123 L 119.09196 77.919275 L 125.53032 77.919275 L 125.53032 76.001046 L 117.47138 76.001046 z M 66.308614 99.559814 L 65.062695 107.87249 L 66.826412 108.13707 C 67.120394 107.67404 67.539317 107.2917 68.083183 106.99037 C 68.634398 106.68904 69.185613 106.5382 69.736829 106.5382 C 70.383588 106.5382 70.953349 106.68904 71.445768 106.99037 C 71.938187 107.28435 72.320535 107.70678 72.592468 108.25799 C 72.871751 108.80921 73.011047 109.45614 73.011047 110.19844 C 73.011047 110.9334 72.867731 111.59836 72.581099 112.19367 C 72.294467 112.78163 71.89409 113.24867 71.379622 113.5941 C 70.865155 113.93218 70.284369 114.10105 69.63761 114.10105 C 68.821811 114.10105 68.138304 113.84398 67.587089 113.32952 C 67.043224 112.81505 66.683441 112.05788 66.507052 111.05834 L 64.522677 111.36685 C 64.750512 112.77796 65.30523 113.85834 66.187174 114.60799 C 67.069119 115.35764 68.215647 115.73247 69.626758 115.73247 C 70.743887 115.73247 71.717529 115.48993 72.548027 115.00487 C 73.378524 114.51979 74.017933 113.84731 74.466256 112.98742 C 74.914577 112.12017 75.139083 111.12799 75.139083 110.01086 C 75.139083 108.96722 74.922099 108.0487 74.488477 107.25495 C 74.062204 106.46121 73.477915 105.85137 72.735612 105.42509 C 72.000658 104.99147 71.181357 104.77448 70.277364 104.77448 C 69.696751 104.77448 69.152541 104.86268 68.645422 105.03907 C 68.138305 105.21546 67.682806 105.46551 67.278581 105.78889 L 67.929187 101.47804 L 74.367037 101.47804 L 74.367037 99.559814 L 66.308614 99.559814 z M 117.2099 99.572734 L 115.9645 107.88489 L 117.72821 108.14947 C 118.02219 107.68645 118.44112 107.30462 118.98499 107.00329 C 119.5362 106.70195 120.08742 106.55112 120.63863 106.55112 C 121.28539 106.55112 121.85515 106.70195 122.34757 107.00329 C 122.83999 107.29727 123.22182 107.71969 123.49375 108.27091 C 123.77303 108.82212 123.91285 109.46905 123.91285 110.21136 C 123.91285 110.94631 123.76953 111.61127 123.4829 112.20659 C 123.19627 112.79455 122.7959 113.26107 122.28142 113.6065 C 121.76696 113.94458 121.18617 114.11396 120.53941 114.11396 C 119.72361 114.11396 119.0401 113.85639 118.48889 113.34192 C 117.94503 112.82745 117.58472 112.0708 117.40834 111.07126 L 115.42396 111.37976 C 115.6518 112.79087 116.20703 113.87126 117.08898 114.62091 C 117.97092 115.37056 119.11745 115.74539 120.52856 115.74539 C 121.64569 115.74539 122.61933 115.50285 123.44983 115.01779 C 124.28033 114.53272 124.91974 113.86024 125.36806 113.00034 C 125.81638 112.13309 126.04037 111.14091 126.04037 110.02378 C 126.04037 108.98014 125.82391 108.06162 125.39028 107.26787 C 124.96401 106.47412 124.37971 105.86376 123.63741 105.43749 C 122.90246 105.00387 122.08264 104.7874 121.17865 104.7874 C 120.59804 104.7874 120.05434 104.87559 119.54722 105.05199 C 119.04011 105.22837 118.58461 105.47791 118.18038 105.80129 L 118.83047 101.49096 L 125.26884 101.49096 L 125.26884 99.572734 L 117.2099 99.572734 z " />
    <text
       xml:space="preserve"
       transform="scale(0.26458333)"
       id="text3679"
       style="font-size:85.3333px;font-family:'Arial Nova';-inkscape-font-specification:'Arial Nova, Normal';white-space:pre;shape-inside:url(#rect3681);display:inline;fill:#000000" />
  </g>
</svg>
