<?xml version="1.0" encoding="UTF-8" standalone="no"?>
<!-- Created with Inkscape (http://www.inkscape.org/) -->

<svg
   width="720"
   height="720"
   viewBox="0 0 190.5 190.5"
   version="1.1"
   id="svg5"
   sodipodi:docname="4R.svg"
   inkscape:version="1.2.1 (9c6d41e410, 2022-07-14)"
   xmlns:inkscape="http://www.inkscape.org/namespaces/inkscape"
   xmlns:sodipodi="http://sodipodi.sourceforge.net/DTD/sodipodi-0.dtd"
   xmlns="http://www.w3.org/2000/svg"
   xmlns:svg="http://www.w3.org/2000/svg">
  <sodipodi:namedview
     id="namedview7"
     pagecolor="#ffffff"
     bordercolor="#000000"
     borderopacity="0.25"
     inkscape:showpageshadow="2"
     inkscape:pageopacity="0.0"
     inkscape:pagecheckerboard="0"
     inkscape:deskcolor="#d1d1d1"
     inkscape:document-units="mm"
     showgrid="true"
     inkscape:zoom="1.0255231"
     inkscape:cx="349.57769"
     inkscape:cy="371.51772"
     inkscape:window-width="1520"
     inkscape:window-height="1030"
     inkscape:window-x="10"
     inkscape:window-y="0"
     inkscape:window-maximized="0"
     inkscape:current-layer="layer1">
    <inkscape:grid
       type="xygrid"
       id="grid9"
       spacingx="19.05"
       spacingy="19.05" />
  </sodipodi:namedview>
  <defs
     id="defs2">
    <rect
       x="266.20561"
       y="258.40471"
       width="392.97018"
       height="108.23744"
       id="rect3681" />
  </defs>
  <g
     inkscape:label="Ebene 1"
     inkscape:groupmode="layer"
     id="layer1">
    <path
       id="path3877"
       style="font-size:22.5778px;font-family:'Arial Nova';-inkscape-font-specification:'Arial Nova';stroke-width:0.264583"
       d="M 63.924264 75.72406 L 63.924264 91.885347 L 66.062634 91.885347 L 66.062634 84.885258 L 67.926086 84.885258 C 68.65369 84.885258 69.260027 85.002506 69.745097 85.237691 C 70.230166 85.465527 70.656095 85.822324 71.023572 86.307393 C 71.391048 86.785113 71.791943 87.479644 72.225566 88.390987 L 73.923136 91.885347 L 76.315238 91.885347 L 74.264718 87.817379 C 73.867843 87.030978 73.537114 86.424641 73.27253 85.998368 C 73.007947 85.572095 72.765412 85.256409 72.544926 85.050623 C 72.331789 84.837485 72.096776 84.683146 71.839543 84.587602 L 71.850395 84.521456 C 73.018972 84.212776 73.904935 83.694633 74.507597 82.967029 C 75.110259 82.239424 75.411418 81.320388 75.411418 80.210608 C 75.411418 78.7554 74.9519 77.645964 74.033207 76.881612 C 73.114515 76.109911 71.732974 75.72406 69.888241 75.72406 L 63.924264 75.72406 z M 114.82555 75.736462 L 114.82555 91.898267 L 116.96444 91.898267 L 116.96444 84.89766 L 118.82737 84.89766 C 119.55498 84.89766 120.16132 85.015425 120.64638 85.25061 C 121.13146 85.478446 121.5579 85.834726 121.92537 86.319796 C 122.29285 86.797516 122.69375 87.492047 123.12737 88.403389 L 124.82494 91.898267 L 127.21704 91.898267 L 125.16652 87.830298 C 124.76965 87.043897 124.43892 86.437561 124.17433 86.011287 C 123.90975 85.585015 123.66721 85.268812 123.44673 85.063025 C 123.23359 84.849888 122.99858 84.695548 122.74135 84.600004 L 122.7522 84.533858 C 123.92077 84.225178 124.80622 83.707036 125.40888 82.979431 C 126.01154 82.251827 126.31322 81.333307 126.31322 80.223527 C 126.31322 78.768318 125.8537 77.658366 124.93501 76.894014 C 124.01632 76.122313 122.63477 75.736462 120.79004 75.736462 L 114.82555 75.736462 z M 66.062634 77.642289 L 69.844316 77.642289 C 70.961445 77.642289 71.799292 77.858757 72.357857 78.292379 C 72.916422 78.718652 73.195532 79.380111 73.195532 80.276754 C 73.195532 81.180747 72.901378 81.857248 72.313416 82.30557 C 71.732802 82.746543 70.88795 82.967029 69.77817 82.967029 L 66.062634 82.967029 L 66.062634 77.642289 z M 116.96444 77.654692 L 120.7456 77.654692 C 121.86273 77.654692 122.70058 77.871675 123.25914 78.305298 C 123.8177 78.731571 124.09733 79.393029 124.09733 80.289673 C 124.09733 81.193666 123.80318 81.869651 123.21522 82.317973 C 122.63461 82.758945 121.78924 82.979431 120.67946 82.979431 L 116.96444 82.979431 L 116.96444 77.654692 z M 63.662781 99.295231 L 63.662781 115.45704 L 65.801152 115.45704 L 65.801152 108.45643 L 67.664604 108.45643 C 68.392208 108.45643 68.998545 108.57419 69.483614 108.80938 C 69.968683 109.03721 70.394612 109.39349 70.762089 109.87856 C 71.129566 110.35628 71.53046 111.05082 71.964083 111.96216 L 73.661654 115.45704 L 76.053756 115.45704 L 74.003235 111.38907 C 73.60636 110.60267 73.27563 109.99633 73.011047 109.57006 C 72.746464 109.14378 72.50393 108.82758 72.283443 108.62179 C 72.070307 108.40865 71.835294 108.25431 71.57806 108.15877 L 71.588912 108.09263 C 72.757488 107.78395 73.643452 107.26581 74.246114 106.5382 C 74.848776 105.81059 75.149935 104.89207 75.149935 103.7823 C 75.149935 102.32709 74.690416 101.21714 73.771724 100.45278 C 72.853032 99.681081 71.471491 99.295231 69.626758 99.295231 L 63.662781 99.295231 z M 114.56407 99.30815 L 114.56407 115.46995 L 116.70295 115.46995 L 116.70295 108.46935 L 118.56589 108.46935 C 119.2935 108.46935 119.89983 108.58712 120.3849 108.8223 C 120.86997 109.05014 121.29642 109.40642 121.66389 109.89148 C 122.03137 110.3692 122.43175 111.06373 122.86537 111.97508 L 124.56346 115.46995 L 126.95556 115.46995 L 124.90504 111.40199 C 124.50816 110.61559 124.17744 110.00925 123.91285 109.58298 C 123.64827 109.1567 123.40573 108.8405 123.18525 108.63471 C 122.97211 108.42158 122.7371 108.26724 122.47986 108.17169 L 122.49071 108.10555 C 123.65929 107.79687 124.54473 107.27872 125.1474 106.55112 C 125.75006 105.82352 126.05174 104.90499 126.05174 103.79521 C 126.05174 102.34 125.59222 101.23005 124.67353 100.4657 C 123.75483 99.694002 122.37329 99.30815 120.52856 99.30815 L 114.56407 99.30815 z M 65.801152 101.21346 L 69.582833 101.21346 C 70.699963 101.21346 71.53781 101.43045 72.096375 101.86407 C 72.654939 102.29034 72.934049 102.9518 72.934049 103.84844 C 72.934049 104.75243 72.639896 105.42842 72.051933 105.87674 C 71.471319 106.31771 70.626467 106.5382 69.516687 106.5382 L 65.801152 106.5382 L 65.801152 101.21346 z M 116.70295 101.22638 L 120.48412 101.22638 C 121.60125 101.22638 122.43909 101.44337 122.99766 101.87699 C 123.55622 102.30326 123.83585 102.96471 123.83585 103.86136 C 123.83585 104.76535 123.54169 105.44133 122.95374 105.88966 C 122.37312 106.33063 121.52775 106.55112 120.41797 106.55112 L 116.70295 106.55112 L 116.70295 101.22638 z " />
    <text
       xml:space="preserve"
       transform="scale(0.26458333)"
       id="text3679"
       style="font-size:85.3333px;font-family:'Arial Nova';-inkscape-font-specification:'Arial Nova, Normal';white-space:pre;shape-inside:url(#rect3681);display:inline;fill:#000000" />
  </g>
</svg>
