<?xml version="1.0" encoding="UTF-8" standalone="no"?>
<!-- Created with Inkscape (http://www.inkscape.org/) -->

<svg
   width="720"
   height="720"
   viewBox="0 0 190.5 190.5"
   version="1.1"
   id="svg5"
   sodipodi:docname="4zero.svg"
   inkscape:version="1.2.1 (9c6d41e410, 2022-07-14)"
   xmlns:inkscape="http://www.inkscape.org/namespaces/inkscape"
   xmlns:sodipodi="http://sodipodi.sourceforge.net/DTD/sodipodi-0.dtd"
   xmlns="http://www.w3.org/2000/svg"
   xmlns:svg="http://www.w3.org/2000/svg">
  <sodipodi:namedview
     id="namedview7"
     pagecolor="#ffffff"
     bordercolor="#000000"
     borderopacity="0.25"
     inkscape:showpageshadow="2"
     inkscape:pageopacity="0.0"
     inkscape:pagecheckerboard="0"
     inkscape:deskcolor="#d1d1d1"
     inkscape:document-units="mm"
     showgrid="true"
     inkscape:zoom="1.0255231"
     inkscape:cx="349.57769"
     inkscape:cy="371.51772"
     inkscape:window-width="1520"
     inkscape:window-height="1030"
     inkscape:window-x="10"
     inkscape:window-y="0"
     inkscape:window-maximized="0"
     inkscape:current-layer="layer1">
    <inkscape:grid
       type="xygrid"
       id="grid9"
       spacingx="19.05"
       spacingy="19.05" />
  </sodipodi:namedview>
  <defs
     id="defs2">
    <rect
       x="266.20561"
       y="258.40471"
       width="392.97018"
       height="108.23744"
       id="rect3681" />
  </defs>
  <g
     inkscape:label="Ebene 1"
     inkscape:groupmode="layer"
     id="layer1">
    <path
       id="text248"
       style="font-style:normal;font-variant:normal;font-weight:normal;font-stretch:normal;font-size:22.5778px;font-family:'Arial Nova';-inkscape-font-specification:'Arial Nova';fill:#000000;stroke-width:0.264583"
       d="M 65.610982 77.807654 C 64.493853 77.807654 63.519694 78.061213 62.689197 78.568331 C 61.866049 79.075449 61.234161 79.795531 60.793188 80.728923 C 60.352216 81.662314 60.13173 82.757222 60.13173 84.013993 C 60.13173 85.234016 60.355719 86.299872 60.804041 87.211214 C 61.252362 88.115207 61.888269 88.813241 62.711418 89.30566 C 63.541915 89.798079 64.515557 90.044633 65.632686 90.044633 C 66.904156 90.044633 67.99206 89.717406 68.896053 89.063298 C 69.807396 88.401839 70.428259 87.4793 70.758988 86.296025 L 68.819055 85.998368 C 68.605919 86.725973 68.22357 87.310261 67.672355 87.751233 C 67.128489 88.192205 66.481558 88.412691 65.731905 88.412691 C 65.048398 88.412691 64.446081 88.258351 63.924264 87.94967 C 63.409796 87.63364 63.001897 87.178141 62.700566 86.582829 C 62.399235 85.980167 62.226348 85.260084 62.182251 84.422237 L 70.935722 84.422237 L 70.935722 84.013993 C 70.935722 82.705776 70.718738 81.585316 70.285116 80.651925 C 69.851493 79.718533 69.234132 79.012978 68.433032 78.535258 C 67.631933 78.050189 66.691364 77.807654 65.610982 77.807654 z M 78.03503 77.807654 C 77.40297 77.807654 76.862779 77.961994 76.414457 78.270675 C 75.966135 78.579355 75.525163 79.101 75.091541 79.835954 L 75.091541 78.072237 L 73.239457 78.072237 L 73.239457 89.768681 L 75.223832 89.768681 L 75.223832 83.529268 C 75.223832 82.368042 75.444318 81.464048 75.885291 80.817289 C 76.333612 80.16318 76.980544 79.835954 77.825741 79.835954 C 78.362257 79.835954 78.843824 79.949699 79.270097 80.177535 L 79.953259 78.347673 C 79.637229 78.156585 79.325046 78.02079 79.016366 77.939945 C 78.715035 77.851751 78.387808 77.807654 78.03503 77.807654 z M 85.906384 77.807654 C 84.818653 77.807654 83.859538 78.050189 83.029041 78.535258 C 82.205892 79.020327 81.566483 79.721864 81.110811 80.640556 C 80.65514 81.559248 80.427649 82.654673 80.427649 83.926143 C 80.427649 85.234361 80.659159 86.347816 81.12218 87.266508 C 81.592551 88.1852 82.238965 88.879731 83.062113 89.350102 C 83.885262 89.813123 84.833352 90.044633 85.906384 90.044633 C 86.986766 90.044633 87.938876 89.805601 88.762024 89.327881 C 89.592522 88.842811 90.238936 88.140758 90.701957 87.222066 C 91.164978 86.296025 91.396488 85.190092 91.396488 83.903923 C 91.396488 82.610404 91.164978 81.507973 90.701957 80.596631 C 90.246286 79.677939 89.606876 78.983407 88.783728 78.513037 C 87.96058 78.042667 87.001465 77.807654 85.906384 77.807654 z M 116.51227 77.820056 C 115.39514 77.820056 114.4215 78.073615 113.591 78.580733 C 112.76785 79.087851 112.13596 79.80845 111.69499 80.741842 C 111.25402 81.675233 111.03353 82.770142 111.03353 84.026912 C 111.03353 85.246936 111.25752 86.312791 111.70584 87.224133 C 112.15416 88.128126 112.79007 88.82616 113.61322 89.318579 C 114.44372 89.810998 115.41736 90.057035 116.53449 90.057035 C 117.80596 90.057035 118.89386 89.730325 119.79786 89.076217 C 120.7092 88.414758 121.33006 87.492219 121.66079 86.308944 L 119.72034 86.011287 C 119.5072 86.738892 119.12537 87.32318 118.57416 87.764152 C 118.03029 88.205124 117.38336 88.42561 116.63371 88.42561 C 115.9502 88.42561 115.34737 88.27127 114.82555 87.96259 C 114.31108 87.646559 113.90318 87.19106 113.60185 86.595748 C 113.30052 85.993086 113.12815 85.272487 113.08405 84.434639 L 121.83701 84.434639 L 121.83701 84.026912 C 121.83701 82.718695 121.62054 81.597718 121.18692 80.664327 C 120.7533 79.730936 120.13593 79.02538 119.33483 78.54766 C 118.53374 78.062591 117.59265 77.820056 116.51227 77.820056 z M 128.93683 77.820056 C 128.30477 77.820056 127.76458 77.974396 127.31626 78.283077 C 126.86794 78.591758 126.42697 79.113919 125.99334 79.848873 L 125.99334 78.084639 L 124.14126 78.084639 L 124.14126 89.7816 L 126.12563 89.7816 L 126.12563 83.541671 C 126.12563 82.380444 126.34612 81.476451 126.78709 80.829692 C 127.23541 80.175583 127.88235 79.848873 128.72754 79.848873 C 129.26406 79.848873 129.74511 79.962618 130.17138 80.190454 L 130.85506 78.360592 C 130.53903 78.169504 130.22685 78.033193 129.91817 77.952348 C 129.61684 77.864153 129.28961 77.820056 128.93683 77.820056 z M 136.80819 77.820056 C 135.72046 77.820056 134.76134 78.062591 133.93084 78.54766 C 133.10769 79.03273 132.46829 79.734783 132.01261 80.653475 C 131.55694 81.572167 131.32893 82.667076 131.32893 83.938546 C 131.32893 85.246763 131.56045 86.360218 132.02347 87.27891 C 132.49384 88.197602 133.14077 88.892134 133.96392 89.362504 C 134.78706 89.825525 135.73515 90.057035 136.80819 90.057035 C 137.88857 90.057035 138.84016 89.81852 139.66331 89.3408 C 140.49381 88.855731 141.14074 88.153677 141.60376 87.234985 C 142.06678 86.308944 142.29829 85.203011 142.29829 83.916842 C 142.29829 82.623323 142.06678 81.520893 141.60376 80.60955 C 141.14809 79.690858 140.50868 78.996327 139.68553 78.525956 C 138.86238 78.055586 137.90327 77.820056 136.80819 77.820056 z M 49.746834 78.072237 L 49.746834 79.703662 L 55.909249 79.703662 L 49.383032 88.170329 L 49.383032 89.768681 L 58.885811 89.768681 L 58.885811 88.048889 L 51.907426 88.048889 L 58.621228 79.362081 L 58.621228 78.072237 L 49.746834 78.072237 z M 100.64864 78.084639 L 100.64864 79.716581 L 106.81105 79.716581 L 100.28483 88.183248 L 100.28483 89.7816 L 109.78761 89.7816 L 109.78761 88.061808 L 102.80923 88.061808 L 109.52303 79.374483 L 109.52303 78.084639 L 100.64864 78.084639 z M 65.588761 79.428227 C 66.514803 79.428227 67.256934 79.718361 67.815499 80.298975 C 68.381413 80.879588 68.723167 81.709913 68.840759 82.790295 L 62.248397 82.790295 C 62.336591 82.121488 62.531526 81.533697 62.832857 81.026579 C 63.141538 80.519461 63.530891 80.126088 64.001261 79.846806 C 64.471632 79.567523 65.000798 79.428227 65.588761 79.428227 z M 85.895532 79.439079 C 86.579039 79.439079 87.181873 79.611965 87.703691 79.957393 C 88.225508 80.295472 88.633407 80.798571 88.927389 81.467379 C 89.22137 82.136187 89.368188 82.948483 89.368188 83.903923 C 89.368188 84.852013 89.224873 85.664309 88.938241 86.340466 C 88.658958 87.016624 88.258581 87.530747 87.736764 87.883525 C 87.214946 88.236302 86.60459 88.412691 85.906384 88.412691 C 85.230227 88.412691 84.631412 88.243824 84.109595 87.905745 C 83.595127 87.560317 83.19073 87.053199 82.896749 86.384391 C 82.602767 85.708234 82.455949 84.888933 82.455949 83.926143 C 82.455949 82.963354 82.602767 82.147555 82.896749 81.478748 C 83.19808 80.80259 83.605979 80.295472 84.120447 79.957393 C 84.642264 79.611965 85.234074 79.439079 85.895532 79.439079 z M 116.49056 79.440629 C 117.41661 79.440629 118.15874 79.73128 118.7173 80.311894 C 119.28322 80.892507 119.62497 81.722833 119.74256 82.803215 L 113.1502 82.803215 C 113.23839 82.134407 113.43281 81.546616 113.73414 81.039498 C 114.04282 80.53238 114.43269 80.139007 114.90306 79.859725 C 115.37343 79.580443 115.9026 79.440629 116.49056 79.440629 z M 136.79733 79.451998 C 137.48084 79.451998 138.08316 79.624367 138.60498 79.969796 C 139.12679 80.307874 139.53469 80.81149 139.82867 81.480298 C 140.12266 82.149106 140.26999 82.961402 140.26999 83.916842 C 140.26999 84.864932 140.12668 85.676711 139.84004 86.352869 C 139.56076 87.029026 139.15987 87.543666 138.63805 87.896444 C 138.11623 88.249221 137.50639 88.42561 136.80819 88.42561 C 136.13203 88.42561 135.53321 88.256743 135.0114 87.918665 C 134.49693 87.573236 134.09253 87.066118 133.79855 86.39731 C 133.50457 85.721153 133.35775 84.901335 133.35775 83.938546 C 133.35775 82.975756 133.50457 82.159958 133.79855 81.49115 C 134.09988 80.814992 134.50778 80.307874 135.02225 79.969796 C 135.54407 79.624367 136.13588 79.451998 136.79733 79.451998 z M 65.3495 101.37882 C 64.23237 101.37882 63.258212 101.63238 62.427714 102.1395 C 61.604566 102.64662 60.972678 103.36722 60.531706 104.30061 C 60.090733 105.234 59.870247 106.32891 59.870247 107.58568 C 59.870247 108.8057 60.094236 109.87156 60.542558 110.7829 C 60.99088 111.6869 61.626787 112.38493 62.449935 112.87735 C 63.280433 113.36977 64.254074 113.6158 65.371204 113.6158 C 66.642674 113.6158 67.730577 113.28909 68.63457 112.63499 C 69.545913 111.97353 70.166777 111.05099 70.497506 109.86771 L 68.557572 109.57006 C 68.344436 110.29766 67.962088 110.88195 67.410872 111.32292 C 66.867007 111.76389 66.220075 111.98438 65.470422 111.98438 C 64.786915 111.98438 64.184598 111.83004 63.662781 111.52136 C 63.148313 111.20533 62.740414 110.74983 62.439083 110.15452 C 62.137752 109.55185 61.964865 108.83126 61.920768 107.99341 L 70.674239 107.99341 L 70.674239 107.58568 C 70.674239 106.27746 70.457256 105.15649 70.023633 104.2231 C 69.59001 103.2897 68.972649 102.58415 68.171549 102.10643 C 67.37045 101.62136 66.429881 101.37882 65.3495 101.37882 z M 77.773547 101.37882 C 77.141487 101.37882 76.601296 101.53317 76.152974 101.84185 C 75.704653 102.15053 75.26368 102.67269 74.830058 103.40764 L 74.830058 101.64341 L 72.977974 101.64341 L 72.977974 113.34037 L 74.962349 113.34037 L 74.962349 107.10044 C 74.962349 105.93921 75.182836 105.03522 75.623808 104.38846 C 76.07213 103.73435 76.719061 103.40764 77.564258 103.40764 C 78.100774 103.40764 78.582341 103.52139 79.008614 103.74922 L 79.691777 101.91936 C 79.375746 101.72827 79.063563 101.59196 78.754883 101.51112 C 78.453552 101.42292 78.126325 101.37882 77.773547 101.37882 z M 85.644902 101.37882 C 84.55717 101.37882 83.598055 101.62136 82.767558 102.10643 C 81.94441 102.5915 81.305 103.29355 80.849329 104.21224 C 80.393657 105.13094 80.166166 106.22584 80.166166 107.49731 C 80.166166 108.80553 80.397677 109.91899 80.860697 110.83768 C 81.331068 111.75637 81.977483 112.4509 82.800631 112.92127 C 83.623779 113.38429 84.571869 113.6158 85.644902 113.6158 C 86.725283 113.6158 87.677393 113.37729 88.500541 112.89957 C 89.331039 112.4145 89.977454 111.71245 90.440474 110.79375 C 90.903495 109.86771 91.135006 108.76178 91.135006 107.47561 C 91.135006 106.18209 90.903495 105.07966 90.440474 104.16832 C 89.984803 103.24963 89.345393 102.5551 88.522245 102.08472 C 87.699097 101.61435 86.739983 101.37882 85.644902 101.37882 z M 116.25079 101.39174 C 115.13366 101.39174 114.16001 101.6453 113.32952 102.15242 C 112.50637 102.65954 111.87448 103.37962 111.43351 104.31301 C 110.99254 105.2464 110.77205 106.34183 110.77205 107.5986 C 110.77205 108.81862 110.99604 109.88396 111.44436 110.7953 C 111.89268 111.6993 112.52859 112.39785 113.35174 112.89027 C 114.18224 113.38269 115.15588 113.62872 116.27301 113.62872 C 117.54448 113.62872 118.63238 113.3015 119.53637 112.64739 C 120.44772 111.98593 121.06858 111.06391 121.39931 109.88063 L 119.45886 109.58298 C 119.24572 110.31058 118.86389 110.89487 118.31267 111.33584 C 117.76881 111.77681 117.12188 111.9973 116.37222 111.9973 C 115.68872 111.9973 115.08588 111.84296 114.56407 111.53428 C 114.0496 111.21825 113.6417 110.76223 113.34037 110.16692 C 113.03904 109.56426 112.86667 108.84417 112.82257 108.00633 L 121.57552 108.00633 L 121.57552 107.5986 C 121.57552 106.29038 121.35906 105.16941 120.92544 104.23601 C 120.49181 103.30262 119.87445 102.59707 119.07335 102.11935 C 118.27225 101.63428 117.33117 101.39174 116.25079 101.39174 z M 128.67535 101.39174 C 128.04329 101.39174 127.5031 101.54608 127.05478 101.85476 C 126.60646 102.16345 126.16548 102.68509 125.73186 103.42004 L 125.73186 101.65633 L 123.87978 101.65633 L 123.87978 113.35329 L 125.86415 113.35329 L 125.86415 107.11336 C 125.86415 105.95213 126.08464 105.04814 126.52561 104.40138 C 126.97393 103.74727 127.62086 103.42004 128.46606 103.42004 C 129.00258 103.42004 129.48363 103.53431 129.9099 103.76214 L 130.59358 101.93176 C 130.27755 101.74067 129.96537 101.60488 129.65669 101.52404 C 129.35535 101.43584 129.02813 101.39174 128.67535 101.39174 z M 136.5467 101.39174 C 135.45897 101.39174 134.49986 101.63428 133.66936 102.11935 C 132.84621 102.60442 132.2068 103.30647 131.75113 104.22516 C 131.29546 105.14385 131.06745 106.23876 131.06745 107.51023 C 131.06745 108.81845 131.29896 109.93191 131.76198 110.8506 C 132.23235 111.76929 132.87929 112.46382 133.70243 112.93419 C 134.52558 113.39721 135.47367 113.62872 136.5467 113.62872 C 137.62709 113.62872 138.57868 113.38969 139.40183 112.91197 C 140.23232 112.4269 140.87926 111.72537 141.34228 110.80667 C 141.8053 109.88063 142.03681 108.77418 142.03681 107.48801 C 142.03681 106.19449 141.8053 105.09206 141.34228 104.18072 C 140.88661 103.26203 140.2472 102.5675 139.42405 102.09713 C 138.6009 101.62676 137.64179 101.39174 136.5467 101.39174 z M 49.485352 101.64341 L 49.485352 103.27535 L 55.647766 103.27535 L 49.121549 111.74202 L 49.121549 113.34037 L 58.624329 113.34037 L 58.624329 111.62058 L 51.645943 111.62058 L 58.359745 102.93325 L 58.359745 101.64341 L 49.485352 101.64341 z M 100.38715 101.65633 L 100.38715 103.28775 L 106.54957 103.28775 L 100.02335 111.75442 L 100.02335 113.35329 L 109.52613 113.35329 L 109.52613 111.6335 L 102.54775 111.6335 L 109.26155 102.94617 L 109.26155 101.65633 L 100.38715 101.65633 z M 65.327279 102.9994 C 66.25332 102.9994 66.995451 103.29005 67.554016 103.87066 C 68.11993 104.45128 68.461684 105.2816 68.579277 106.36198 L 61.986914 106.36198 C 62.075109 105.69318 62.270043 105.10538 62.571375 104.59827 C 62.880055 104.09115 63.269408 103.69778 63.739779 103.41849 C 64.210149 103.13921 64.739316 102.9994 65.327279 102.9994 z M 85.634049 103.01077 C 86.317556 103.01077 86.920391 103.18314 87.442208 103.52856 C 87.964025 103.86664 88.371924 104.37026 88.665906 105.03907 C 88.959887 105.70787 89.106706 106.52017 89.106706 107.47561 C 89.106706 108.4237 88.96339 109.23548 88.676758 109.91164 C 88.397475 110.58779 87.997098 111.10243 87.475281 111.45521 C 86.953464 111.80799 86.343108 111.98438 85.644902 111.98438 C 84.968744 111.98438 84.369929 111.81551 83.848112 111.47743 C 83.333644 111.13201 82.929248 110.62489 82.635266 109.95608 C 82.341285 109.27992 82.194466 108.4601 82.194466 107.49731 C 82.194466 106.53453 82.341285 105.71873 82.635266 105.04992 C 82.936597 104.37376 83.344496 103.86664 83.858964 103.52856 C 84.380781 103.18314 84.972591 103.01077 85.634049 103.01077 z M 116.22908 103.01232 C 117.15512 103.01232 117.89725 103.30245 118.45582 103.88306 C 119.02173 104.46368 119.36349 105.29452 119.48108 106.3749 L 112.88872 106.3749 C 112.97691 105.70609 113.17133 105.11779 113.47266 104.61067 C 113.78134 104.10355 114.17121 103.7107 114.64158 103.43141 C 115.11195 103.15213 115.64112 103.01232 116.22908 103.01232 z M 136.53585 103.02317 C 137.21936 103.02317 137.82168 103.19606 138.34349 103.54148 C 138.86531 103.87956 139.27321 104.38318 139.56719 105.05199 C 139.86117 105.72079 140.00851 106.53257 140.00851 107.48801 C 140.00851 108.4361 139.86519 109.2484 139.57856 109.92456 C 139.29928 110.60071 138.89838 111.11535 138.37657 111.46813 C 137.85475 111.82091 137.24491 111.9973 136.5467 111.9973 C 135.87055 111.9973 135.27173 111.82791 134.74991 111.48984 C 134.23545 111.14441 133.83105 110.63729 133.53707 109.96848 C 133.24309 109.29232 133.09627 108.47302 133.09627 107.51023 C 133.09627 106.54744 133.24309 105.73165 133.53707 105.06284 C 133.8384 104.38668 134.2463 103.87956 134.76077 103.54148 C 135.28258 103.19606 135.87439 103.02317 136.53585 103.02317 z " />
    <text
       xml:space="preserve"
       transform="scale(0.26458333)"
       id="text3679"
       style="font-size:85.3333px;font-family:'Arial Nova';-inkscape-font-specification:'Arial Nova, Normal';white-space:pre;shape-inside:url(#rect3681);display:inline;fill:#000000" />
  </g>
</svg>
