<?xml version="1.0" encoding="UTF-8" standalone="no"?>
<!-- Created with Inkscape (http://www.inkscape.org/) -->

<svg
   width="720"
   height="720"
   viewBox="0 0 190.5 190.5"
   version="1.1"
   id="svg5"
   sodipodi:docname="50.svg"
   inkscape:version="1.2.1 (9c6d41e410, 2022-07-14)"
   xmlns:inkscape="http://www.inkscape.org/namespaces/inkscape"
   xmlns:sodipodi="http://sodipodi.sourceforge.net/DTD/sodipodi-0.dtd"
   xmlns="http://www.w3.org/2000/svg"
   xmlns:svg="http://www.w3.org/2000/svg">
  <sodipodi:namedview
     id="namedview7"
     pagecolor="#ffffff"
     bordercolor="#000000"
     borderopacity="0.25"
     inkscape:showpageshadow="2"
     inkscape:pageopacity="0.0"
     inkscape:pagecheckerboard="0"
     inkscape:deskcolor="#d1d1d1"
     inkscape:document-units="mm"
     showgrid="true"
     inkscape:zoom="1.0255231"
     inkscape:cx="377.85594"
     inkscape:cy="365.66704"
     inkscape:window-width="1520"
     inkscape:window-height="1030"
     inkscape:window-x="10"
     inkscape:window-y="0"
     inkscape:window-maximized="0"
     inkscape:current-layer="layer1">
    <inkscape:grid
       type="xygrid"
       id="grid9"
       spacingx="19.05"
       spacingy="19.05" />
  </sodipodi:namedview>
  <defs
     id="defs2" />
  <g
     inkscape:label="Ebene 1"
     inkscape:groupmode="layer"
     id="layer1">
    <path
       id="path3283"
       style="font-size:22.5778px;font-family:'Arial Nova';-inkscape-font-specification:'Arial Nova';stroke-width:0.264583"
       d="M 45.636491 75.851701 C 44.247428 75.851701 43.171066 76.226527 42.406714 76.97618 C 41.642362 77.725833 41.113195 78.677425 40.819214 79.831303 C 40.525232 80.97783 40.377897 82.399966 40.377897 84.097709 C 40.377897 86.706795 40.778792 88.724243 41.579891 90.150053 C 42.380991 91.575863 43.732961 92.28894 45.636491 92.28894 C 47.451826 92.28894 48.782265 91.597912 49.627462 90.216199 C 50.480008 88.834486 50.906453 86.783966 50.906453 84.064636 C 50.906453 81.205666 50.465481 79.122072 49.583537 77.813855 C 48.701592 76.505637 47.38568 75.851701 45.636491 75.851701 z M 97.223006 76.122485 C 95.833944 76.122485 94.757581 76.497311 93.993229 77.246965 C 93.228877 77.996617 92.69971 78.948727 92.405729 80.102604 C 92.111747 81.249132 91.964412 82.671267 91.964412 84.36901 C 91.964412 86.978096 92.365307 88.995544 93.166406 90.421354 C 93.967506 91.847165 95.319476 92.560242 97.223006 92.560242 C 99.038342 92.560242 100.36878 91.869213 101.21398 90.4875 C 102.06652 89.105787 102.49297 87.055266 102.49297 84.335937 C 102.49297 81.476968 102.052 79.393374 101.17005 78.085156 C 100.28811 76.776938 98.972196 76.122485 97.223006 76.122485 z M 144.76067 76.122485 C 143.37161 76.122485 142.29473 76.497311 141.53038 77.246965 C 140.76603 77.996617 140.23686 78.948727 139.94288 80.102604 C 139.64889 81.249132 139.50208 82.671267 139.50208 84.36901 C 139.50208 86.978096 139.90246 88.995544 140.70356 90.421354 C 141.50466 91.847165 142.85714 92.560242 144.76067 92.560242 C 146.57601 92.560242 147.90645 91.869213 148.75164 90.4875 C 149.6042 89.105787 150.03012 87.055266 150.03012 84.335937 C 150.03012 81.476968 149.58915 79.393374 148.7072 78.085156 C 147.82526 76.776938 146.50986 76.122485 144.76067 76.122485 z M 45.603418 77.483126 C 46.353071 77.483126 46.963426 77.69609 47.433797 78.122363 C 47.911517 78.541287 48.267797 79.236335 48.502983 80.206474 C 48.745518 81.169263 48.866785 82.462609 48.866785 84.086857 C 48.866785 85.703755 48.74902 86.993599 48.513835 87.956388 C 48.285999 88.911828 47.93724 89.602856 47.46687 90.02913 C 46.996499 90.448054 46.386143 90.657515 45.636491 90.657515 C 44.879488 90.657515 44.266147 90.448054 43.795776 90.02913 C 43.332755 89.602856 42.986983 88.911828 42.759147 87.956388 C 42.531312 86.993599 42.417566 85.703755 42.417566 84.086857 C 42.417566 82.462609 42.535331 81.169263 42.770516 80.206474 C 43.005701 79.236335 43.35446 78.541287 43.81748 78.122363 C 44.280501 77.69609 44.875814 77.483126 45.603418 77.483126 z M 97.189933 77.754427 C 97.939586 77.754427 98.549942 77.967391 99.020312 78.393665 C 99.498032 78.812588 99.854311 79.50712 100.0895 80.477258 C 100.33203 81.440048 100.4533 82.733911 100.4533 84.358158 C 100.4533 85.975057 100.33554 87.264901 100.10035 88.22769 C 99.872515 89.183129 99.523756 89.873641 99.053385 90.299915 C 98.583015 90.718838 97.972659 90.9283 97.223006 90.9283 C 96.466004 90.9283 95.852662 90.718838 95.382292 90.299915 C 94.919271 89.873641 94.573498 89.183129 94.345662 88.22769 C 94.117827 87.264901 94.004081 85.975057 94.004081 84.358158 C 94.004081 82.733911 94.121846 81.440048 94.357031 80.477258 C 94.592216 79.50712 94.940975 78.812588 95.403996 78.393665 C 95.867017 77.967391 96.462329 77.754427 97.189933 77.754427 z M 144.7276 77.754427 C 145.47725 77.754427 146.08709 77.967391 146.55746 78.393665 C 147.03518 78.812588 147.39198 79.50712 147.62716 80.477258 C 147.8697 81.440048 147.99097 82.733911 147.99097 84.358158 C 147.99097 85.975057 147.8732 87.264901 147.63802 88.22769 C 147.41018 89.183129 147.0609 89.873641 146.59054 90.299915 C 146.12016 90.718838 145.51033 90.9283 144.76067 90.9283 C 144.00367 90.9283 143.38981 90.718838 142.91944 90.299915 C 142.45642 89.873641 142.11116 89.183129 141.88333 88.22769 C 141.65549 87.264901 141.54175 85.975057 141.54175 84.358158 C 141.54175 82.733911 141.65899 81.440048 141.89418 80.477258 C 142.12937 79.50712 142.47864 78.812588 142.94166 78.393665 C 143.40468 77.967391 143.99999 77.754427 144.7276 77.754427 z M 70.299068 99.824398 C 68.910006 99.824398 67.833643 100.19923 67.069291 100.94888 C 66.304939 101.69853 65.775773 102.65064 65.481791 103.80452 C 65.18781 104.95105 65.040474 106.37318 65.040474 108.07092 C 65.040474 110.68001 65.441369 112.69746 66.242468 114.12327 C 67.043568 115.54908 68.395538 116.26164 70.299068 116.26164 C 72.114404 116.26164 73.444842 115.57112 74.290039 114.18941 C 75.142585 112.8077 75.569031 110.75718 75.569031 108.03785 C 75.569031 105.17888 75.128059 103.09529 74.246114 101.78707 C 73.36417 100.47885 72.048258 99.824398 70.299068 99.824398 z M 121.20087 99.837317 C 119.81181 99.837317 118.73493 100.21215 117.97058 100.9618 C 117.20622 101.71145 116.67706 102.66304 116.38308 103.81692 C 116.0891 104.96345 115.94228 106.38559 115.94228 108.08333 C 115.94228 110.69241 116.34265 112.70986 117.14375 114.13567 C 117.94485 115.56148 119.29734 116.27456 121.20087 116.27456 C 123.0162 116.27456 124.34664 115.58353 125.19184 114.20181 C 126.04439 112.8201 126.47032 110.76958 126.47032 108.05025 C 126.47032 105.19128 126.02935 103.10769 125.1474 101.79947 C 124.26546 100.49125 122.95006 99.837317 121.20087 99.837317 z M 70.265995 101.45634 C 71.015648 101.45634 71.626004 101.6693 72.096375 102.09558 C 72.574094 102.5145 72.930375 103.20903 73.16556 104.17917 C 73.408095 105.14196 73.529362 106.4353 73.529362 108.05955 C 73.529362 109.67645 73.411597 110.9663 73.176412 111.92909 C 72.948576 112.88453 72.599818 113.57555 72.129447 114.00183 C 71.659077 114.42075 71.048721 114.63021 70.299068 114.63021 C 69.542066 114.63021 68.928724 114.42075 68.458354 114.00183 C 67.995333 113.57555 67.64956 112.88453 67.421724 111.92909 C 67.193889 110.9663 67.080143 109.67645 67.080143 108.05955 C 67.080143 106.4353 67.197907 105.14196 67.433093 104.17917 C 67.668278 103.20903 68.017037 102.5145 68.480058 102.09558 C 68.943079 101.6693 69.538391 101.45634 70.265995 101.45634 z M 121.1678 101.46874 C 121.91745 101.46874 122.52729 101.68222 122.99766 102.1085 C 123.47538 102.52742 123.83218 103.22195 124.06736 104.19209 C 124.3099 105.15488 124.43116 106.44822 124.43116 108.07247 C 124.43116 109.68937 124.31339 110.97922 124.07821 111.942 C 123.85037 112.89744 123.5011 113.58847 123.03073 114.01475 C 122.56036 114.43367 121.95052 114.64313 121.20087 114.64313 C 120.44386 114.64313 119.83001 114.43367 119.35964 114.01475 C 118.89662 113.58847 118.55137 112.89744 118.32353 111.942 C 118.09569 110.97922 117.98195 109.68937 117.98195 108.07247 C 117.98195 106.44822 118.09919 105.15488 118.33438 104.19209 C 118.56956 103.22195 118.91883 102.52742 119.38186 102.1085 C 119.84488 101.68222 120.44019 101.46874 121.1678 101.46874 z " />
  </g>
</svg>
