<?xml version="1.0" encoding="UTF-8" standalone="no"?>
<!-- Created with Inkscape (http://www.inkscape.org/) -->

<svg
   width="720"
   height="720"
   viewBox="0 0 190.5 190.5"
   version="1.1"
   id="svg5"
   sodipodi:docname="5five.svg"
   inkscape:version="1.2.1 (9c6d41e410, 2022-07-14)"
   xmlns:inkscape="http://www.inkscape.org/namespaces/inkscape"
   xmlns:sodipodi="http://sodipodi.sourceforge.net/DTD/sodipodi-0.dtd"
   xmlns="http://www.w3.org/2000/svg"
   xmlns:svg="http://www.w3.org/2000/svg">
  <sodipodi:namedview
     id="namedview7"
     pagecolor="#ffffff"
     bordercolor="#000000"
     borderopacity="0.25"
     inkscape:showpageshadow="2"
     inkscape:pageopacity="0.0"
     inkscape:pagecheckerboard="0"
     inkscape:deskcolor="#d1d1d1"
     inkscape:document-units="mm"
     showgrid="true"
     inkscape:zoom="1.0255231"
     inkscape:cx="377.85594"
     inkscape:cy="365.66704"
     inkscape:window-width="1520"
     inkscape:window-height="1030"
     inkscape:window-x="10"
     inkscape:window-y="0"
     inkscape:window-maximized="0"
     inkscape:current-layer="layer1">
    <inkscape:grid
       type="xygrid"
       id="grid9"
       spacingx="19.05"
       spacingy="19.05" />
  </sodipodi:namedview>
  <defs
     id="defs2" />
  <g
     inkscape:label="Ebene 1"
     inkscape:groupmode="layer"
     id="layer1">
    <path
       id="path3478"
       style="font-size:22.5778px;font-family:'Arial Nova';-inkscape-font-specification:'Arial Nova';stroke-width:0.264583"
       d="M 34.314701 75.575749 C 33.22697 75.575749 32.440741 75.862381 31.955672 76.435645 C 31.477952 77.008909 31.23892 77.788132 31.23892 78.77297 L 31.23892 80.316545 L 29.475203 80.316545 L 29.475203 81.848751 L 31.23892 81.848751 L 31.23892 92.013505 L 33.223295 92.013505 L 33.223295 81.848751 L 35.306889 81.848751 L 35.306889 80.316545 L 33.223295 80.316545 L 33.223295 79.202917 C 33.223295 78.629653 33.311489 78.170135 33.487878 77.824707 C 33.664267 77.471929 33.991494 77.29554 34.469214 77.29554 L 34.469214 77.296057 C 34.792594 77.296057 35.200493 77.369208 35.692912 77.516199 L 36.111491 75.851701 C 35.751363 75.75616 35.431659 75.686511 35.152376 75.642411 C 34.880444 75.598311 34.601334 75.575749 34.314701 75.575749 z M 85.901217 75.84705 C 84.813485 75.84705 84.027257 76.133682 83.542187 76.706946 C 83.064468 77.28021 82.825435 78.059433 82.825435 79.044271 L 82.825435 80.587329 L 81.061719 80.587329 L 81.061719 82.120052 L 82.825435 82.120052 L 82.825435 92.28429 L 84.80981 92.28429 L 84.80981 82.120052 L 86.893404 82.120052 L 86.893404 80.587329 L 84.80981 80.587329 L 84.80981 79.474219 C 84.80981 78.900955 84.898005 78.441437 85.074394 78.096008 C 85.250782 77.743231 85.578009 77.566842 86.055729 77.566842 C 86.379109 77.566842 86.787008 77.640509 87.279427 77.7875 L 87.698006 76.122485 C 87.337879 76.026944 87.018174 75.957296 86.738892 75.913196 C 86.466959 75.869096 86.187849 75.84705 85.901217 75.84705 z M 133.43888 75.84705 C 132.35115 75.84705 131.56492 76.133682 131.07985 76.706946 C 130.60213 77.28021 130.3631 78.059433 130.3631 79.044271 L 130.3631 80.587329 L 128.59939 80.587329 L 128.59939 82.120052 L 130.3631 82.120052 L 130.3631 92.28429 L 132.34748 92.28429 L 132.34748 82.120052 L 134.43107 82.120052 L 134.43107 80.587329 L 132.34748 80.587329 L 132.34748 79.474219 C 132.34748 78.900955 132.43567 78.441437 132.61206 78.096008 C 132.78845 77.743231 133.11568 77.566842 133.5934 77.566842 C 133.91678 77.566842 134.32467 77.640509 134.81709 77.7875 L 135.23567 76.122485 C 134.87555 76.026944 134.55584 75.957296 134.27656 75.913196 C 134.00463 75.869096 133.72552 75.84705 133.43888 75.84705 z M 36.993608 75.851701 L 36.993608 78.100659 L 38.988835 78.100659 L 38.988835 75.851701 L 36.993608 75.851701 z M 88.580123 76.122485 L 88.580123 78.371444 L 90.57535 78.371444 L 90.57535 76.122485 L 88.580123 76.122485 z M 136.11779 76.122485 L 136.11779 78.371444 L 138.11302 78.371444 L 138.11302 76.122485 L 136.11779 76.122485 z M 57.55411 80.051961 C 56.43698 80.051961 55.462822 80.30552 54.632324 80.812638 C 53.809176 81.319757 53.177288 82.039839 52.736316 82.97323 C 52.295344 83.906621 52.074858 85.002046 52.074858 86.258818 C 52.074858 87.47884 52.298846 88.544179 52.747168 89.455522 C 53.19549 90.359515 53.831397 91.058065 54.654545 91.550484 C 55.485043 92.042903 56.458684 92.28894 57.575814 92.28894 C 58.847284 92.28894 59.935187 91.961714 60.839181 91.307605 C 61.750523 90.646146 62.371387 89.724124 62.702116 88.540849 L 60.762183 88.243193 C 60.549046 88.970796 60.166698 89.555085 59.615483 89.996057 C 59.071617 90.437029 58.424685 90.657515 57.675033 90.657515 C 56.991525 90.657515 56.389208 90.503175 55.867391 90.194495 C 55.352923 89.878464 54.945023 89.422449 54.643693 88.827136 C 54.342365 88.224474 54.169478 87.504392 54.125378 86.666545 L 62.878849 86.666545 L 62.878849 86.258818 C 62.878849 84.9506 62.661866 83.829623 62.228243 82.896232 C 61.794621 81.962841 61.17726 81.257286 60.37616 80.779565 C 59.57506 80.294496 58.634492 80.051961 57.55411 80.051961 z M 36.993608 80.316545 L 36.993608 92.013505 L 38.988835 92.013505 L 38.988835 80.316545 L 36.993608 80.316545 z M 40.697774 80.316545 L 45.151766 92.013505 L 47.003849 92.013505 L 51.424251 80.316545 L 49.395951 80.316545 L 46.794043 87.449443 C 46.455964 88.368134 46.217449 89.113768 46.077808 89.687032 L 46.033366 89.687032 C 45.783481 88.76099 45.507874 87.879046 45.206543 87.041199 L 42.803589 80.316545 L 40.697774 80.316545 z M 109.14062 80.322746 C 108.02349 80.322746 107.04933 80.576305 106.21884 81.083423 C 105.39569 81.590541 104.7638 82.31114 104.32283 83.244531 C 103.88186 84.177922 103.66137 85.272831 103.66137 86.529602 C 103.66137 87.749625 103.88536 88.81548 104.33368 89.726823 C 104.782 90.630816 105.41791 91.32885 106.24106 91.821269 C 107.07155 92.313688 108.0452 92.560242 109.16233 92.560242 C 110.4338 92.560242 111.5217 92.233016 112.4257 91.578906 C 113.33703 90.917448 113.95841 89.994909 114.28915 88.811633 L 112.3487 88.513977 C 112.13556 89.241582 111.75321 89.825869 111.202 90.266842 C 110.65813 90.707814 110.0112 90.9283 109.26155 90.9283 C 108.57804 90.9283 107.97573 90.77396 107.45391 90.465279 C 106.93944 90.149249 106.53154 89.69375 106.23021 89.098437 C 105.92885 88.495775 105.75596 87.775693 105.71189 86.937846 L 114.46536 86.937846 L 114.46536 86.529602 C 114.46536 85.221385 114.24838 84.100924 113.81476 83.167533 C 113.38114 82.234142 112.76377 81.528069 111.96267 81.05035 C 111.16158 80.56528 110.22101 80.322746 109.14062 80.322746 z M 156.67829 80.322746 C 155.56116 80.322746 154.58701 80.576305 153.75651 81.083423 C 152.93336 81.590541 152.30147 82.31114 151.8605 83.244531 C 151.41953 84.177922 151.19904 85.272831 151.19904 86.529602 C 151.19904 87.749625 151.42302 88.81548 151.87135 89.726823 C 152.31967 90.630816 152.95558 91.32885 153.77873 91.821269 C 154.60923 92.313688 155.58286 92.560242 156.7 92.560242 C 157.97146 92.560242 159.05937 92.233016 159.96336 91.578906 C 160.87471 90.917448 161.49557 89.994909 161.8263 88.811633 L 159.88636 88.513977 C 159.67323 89.241582 159.29088 89.825869 158.73966 90.266842 C 158.19581 90.707814 157.54887 90.9283 156.79921 90.9283 C 156.1157 90.9283 155.51339 90.77396 154.99157 90.465279 C 154.47711 90.149249 154.06921 89.69375 153.76788 89.098437 C 153.46652 88.495775 153.29363 87.775693 153.24956 86.937846 L 162.00303 86.937846 L 162.00303 86.529602 C 162.00303 85.221385 161.78604 84.100924 161.35243 83.167533 C 160.9188 82.234142 160.30144 81.528069 159.50034 81.05035 C 158.69924 80.56528 157.75867 80.322746 156.67829 80.322746 z M 88.580123 80.587329 L 88.580123 92.28429 L 90.57535 92.28429 L 90.57535 80.587329 L 88.580123 80.587329 z M 92.28429 80.587329 L 96.738281 92.28429 L 98.590365 92.28429 L 103.01077 80.587329 L 100.98247 80.587329 L 98.380558 87.720227 C 98.042479 88.638919 97.803964 89.385069 97.664323 89.958333 L 97.619881 89.958333 C 97.369997 89.032292 97.094389 88.150347 96.793058 87.3125 L 94.390104 80.587329 L 92.28429 80.587329 z M 136.11779 80.587329 L 136.11779 92.28429 L 138.11302 92.28429 L 138.11302 80.587329 L 136.11779 80.587329 z M 139.82196 80.587329 L 144.27595 92.28429 L 146.12803 92.28429 L 150.54843 80.587329 L 148.52013 80.587329 L 145.91823 87.720227 C 145.58015 88.638919 145.34164 89.385069 145.20199 89.958333 L 145.15755 89.958333 C 144.90766 89.032292 144.63206 88.150347 144.33073 87.3125 L 141.92777 80.587329 L 139.82196 80.587329 z M 57.531889 81.672534 C 58.45793 81.672534 59.200062 81.962669 59.758626 82.543282 C 60.324541 83.123895 60.666294 83.954738 60.783887 85.03512 L 54.191524 85.03512 C 54.279718 84.366312 54.474654 83.778004 54.775985 83.270886 C 55.084666 82.763768 55.474019 82.370912 55.944389 82.09163 C 56.414759 81.812348 56.943925 81.672534 57.531889 81.672534 z M 109.1184 81.943319 C 110.04445 81.943319 110.78658 82.23397 111.34514 82.814583 C 111.91106 83.395197 112.25281 84.225523 112.3704 85.305904 L 105.77804 85.305904 C 105.86624 84.637096 106.06117 84.049306 106.3625 83.542187 C 106.67118 83.03507 107.06053 82.641697 107.5309 82.362415 C 108.00128 82.083132 108.53044 81.943319 109.1184 81.943319 z M 156.65607 81.943319 C 157.58211 81.943319 158.32424 82.23397 158.88281 82.814583 C 159.44872 83.395197 159.79048 84.225523 159.90807 85.305904 L 153.31571 85.305904 C 153.4039 84.637096 153.59883 84.049306 153.90017 83.542187 C 154.20885 83.03507 154.5982 82.641697 155.06857 82.362415 C 155.53894 82.083132 156.0681 81.943319 156.65607 81.943319 z M 58.977279 99.548962 C 57.889547 99.548962 57.103319 99.835596 56.61825 100.40886 C 56.14053 100.98212 55.901497 101.76134 55.901497 102.74618 L 55.901497 104.28924 L 54.137781 104.28924 L 54.137781 105.82196 L 55.901497 105.82196 L 55.901497 115.9862 L 57.885872 115.9862 L 57.885872 105.82196 L 59.969466 105.82196 L 59.969466 104.28924 L 57.885872 104.28924 L 57.885872 103.17613 C 57.885872 102.60287 57.974067 102.14335 58.150456 101.79792 C 58.326845 101.44514 58.654071 101.26875 59.131791 101.26875 C 59.455171 101.26875 59.86307 101.34242 60.355489 101.48941 L 60.774068 99.824398 C 60.413941 99.728857 60.094236 99.659208 59.814954 99.615108 C 59.543021 99.571008 59.26391 99.548962 58.977279 99.548962 z M 109.87908 99.561882 C 108.79135 99.561882 108.0046 99.848515 107.51954 100.42178 C 107.04182 100.99504 106.8033 101.77375 106.8033 102.75859 L 106.8033 104.30216 L 105.03907 104.30216 L 105.03907 105.83437 L 106.8033 105.83437 L 106.8033 115.99912 L 108.78767 115.99912 L 108.78767 105.83437 L 110.87127 105.83437 L 110.87127 104.30216 L 108.78767 104.30216 L 108.78767 103.18853 C 108.78767 102.61527 108.87587 102.15627 109.05226 101.81084 C 109.22864 101.45806 109.55536 101.28167 110.03308 101.28167 C 110.35646 101.28167 110.76436 101.35482 111.25677 101.50181 L 111.67587 99.837317 C 111.31574 99.741776 110.99604 99.672127 110.71676 99.628027 C 110.44482 99.583934 110.16571 99.561882 109.87908 99.561882 z M 61.656185 99.824398 L 61.656185 102.07336 L 63.651412 102.07336 L 63.651412 99.824398 L 61.656185 99.824398 z M 112.55799 99.837317 L 112.55799 102.08628 L 114.55321 102.08628 L 114.55321 99.837317 L 112.55799 99.837317 z M 82.216687 104.02466 C 81.099557 104.02466 80.125399 104.27822 79.294902 104.78534 C 78.471754 105.29245 77.839865 106.01305 77.398893 106.94644 C 76.957921 107.87984 76.737435 108.97474 76.737435 110.23151 C 76.737435 111.45154 76.961424 112.5174 77.409745 113.42874 C 77.858067 114.33273 78.493974 115.03076 79.317122 115.52318 C 80.14762 116.0156 81.121261 116.26164 82.238391 116.26164 C 83.509861 116.26164 84.597765 115.93492 85.501758 115.28082 C 86.413101 114.61936 87.033964 113.69682 87.364693 112.51355 L 85.42476 112.21589 C 85.211623 112.94349 84.829275 113.52778 84.27806 113.96875 C 83.734194 114.40973 83.087263 114.63021 82.33761 114.63021 C 81.654103 114.63021 81.051785 114.47587 80.529968 114.16719 C 80.0155 113.85116 79.607601 113.39566 79.30627 112.80035 C 79.004942 112.19768 78.832056 111.47709 78.787956 110.63924 L 87.541427 110.63924 L 87.541427 110.23151 C 87.541427 108.9233 87.324443 107.80232 86.89082 106.86893 C 86.457198 105.93554 85.839837 105.22998 85.038737 104.75226 C 84.237638 104.2672 83.297069 104.02466 82.216687 104.02466 z M 133.11797 104.03758 C 132.00084 104.03758 131.0272 104.29113 130.1967 104.79825 C 129.37355 105.30537 128.74167 106.02545 128.3007 106.95885 C 127.85972 107.89224 127.63924 108.98766 127.63924 110.24443 C 127.63924 111.46446 127.86322 112.5298 128.31155 113.44114 C 128.75987 114.34513 129.39578 115.04368 130.21892 115.5361 C 131.04942 116.02852 132.02306 116.27456 133.14019 116.27456 C 134.41167 116.27456 135.49957 115.94733 136.40356 115.29322 C 137.3149 114.63176 137.93576 113.70974 138.2665 112.52646 L 136.32605 112.22881 C 136.11291 112.95641 135.73108 113.5407 135.17986 113.98167 C 134.636 114.42265 133.98907 114.64313 133.23941 114.64313 C 132.55591 114.64313 131.95307 114.48879 131.43125 114.18011 C 130.91679 113.86408 130.50889 113.40807 130.20756 112.81275 C 129.9062 112.21009 129.73382 111.49001 129.68976 110.65216 L 138.44271 110.65216 L 138.44271 110.24443 C 138.44271 108.93621 138.22624 107.81524 137.79262 106.88185 C 137.359 105.94846 136.74165 105.2429 135.94054 104.76518 C 135.13944 104.28012 134.19835 104.03758 133.11797 104.03758 z M 61.656185 104.28924 L 61.656185 115.9862 L 63.651412 115.9862 L 63.651412 104.28924 L 61.656185 104.28924 z M 65.360352 104.28924 L 69.814343 115.9862 L 71.666427 115.9862 L 76.086829 104.28924 L 74.058529 104.28924 L 71.45662 111.42214 C 71.118541 112.34083 70.880026 113.08699 70.740385 113.66025 L 70.695943 113.66025 C 70.446059 112.73421 70.170451 111.85226 69.86912 111.01441 L 67.466166 104.28924 L 65.360352 104.28924 z M 112.55799 104.30216 L 112.55799 115.99912 L 114.55321 115.99912 L 114.55321 104.30216 L 112.55799 104.30216 z M 116.26215 104.30216 L 120.71563 115.99912 L 122.56771 115.99912 L 126.98863 104.30216 L 124.96033 104.30216 L 122.35842 111.43506 C 122.02034 112.35375 121.78131 113.09938 121.64167 113.67265 L 121.59775 113.67265 C 121.34786 112.74661 121.07225 111.86466 120.77092 111.02681 L 118.36745 104.30216 L 116.26215 104.30216 z M 82.194466 105.64523 C 83.120508 105.64523 83.862639 105.93588 84.421204 106.5165 C 84.987118 107.09712 85.328871 107.92744 85.446464 109.00782 L 78.854102 109.00782 C 78.942296 108.33901 79.137231 107.75122 79.438562 107.2441 C 79.747242 106.73698 80.136595 106.34361 80.606966 106.06433 C 81.077336 105.78504 81.606503 105.64523 82.194466 105.64523 z M 133.09627 105.65815 C 134.02231 105.65815 134.76445 105.94829 135.32301 106.5289 C 135.88893 107.10951 136.23068 107.94035 136.34827 109.02074 L 129.7559 109.02074 C 129.8441 108.35193 130.03852 107.76362 130.33985 107.2565 C 130.64853 106.74938 131.0384 106.35653 131.50877 106.07725 C 131.97914 105.79796 132.50831 105.65815 133.09627 105.65815 z " />
  </g>
</svg>
