<?xml version="1.0" encoding="UTF-8" standalone="no"?>
<!-- Created with Inkscape (http://www.inkscape.org/) -->

<svg
   width="720"
   height="720"
   viewBox="0 0 190.5 190.5"
   version="1.1"
   id="svg5"
   sodipodi:docname="55.svg"
   inkscape:version="1.2.1 (9c6d41e410, 2022-07-14)"
   xmlns:inkscape="http://www.inkscape.org/namespaces/inkscape"
   xmlns:sodipodi="http://sodipodi.sourceforge.net/DTD/sodipodi-0.dtd"
   xmlns="http://www.w3.org/2000/svg"
   xmlns:svg="http://www.w3.org/2000/svg">
  <sodipodi:namedview
     id="namedview7"
     pagecolor="#ffffff"
     bordercolor="#000000"
     borderopacity="0.25"
     inkscape:showpageshadow="2"
     inkscape:pageopacity="0.0"
     inkscape:pagecheckerboard="0"
     inkscape:deskcolor="#d1d1d1"
     inkscape:document-units="mm"
     showgrid="true"
     inkscape:zoom="1.0255231"
     inkscape:cx="377.85594"
     inkscape:cy="365.66704"
     inkscape:window-width="1520"
     inkscape:window-height="1030"
     inkscape:window-x="10"
     inkscape:window-y="0"
     inkscape:window-maximized="0"
     inkscape:current-layer="layer1">
    <inkscape:grid
       type="xygrid"
       id="grid9"
       spacingx="19.05"
       spacingy="19.05" />
  </sodipodi:namedview>
  <defs
     id="defs2" />
  <g
     inkscape:label="Ebene 1"
     inkscape:groupmode="layer"
     id="layer1">
    <path
       id="path3259"
       style="font-size:22.5778px;font-family:'Arial Nova';-inkscape-font-specification:'Arial Nova, Normal';stroke-width:0.264583"
       d="M 42.175203 76.116284 L 40.929285 84.428438 L 42.693001 84.693022 C 42.986983 84.230001 43.405906 83.848169 43.949772 83.546838 C 44.500987 83.245507 45.052203 83.09467 45.603418 83.09467 C 46.250177 83.09467 46.819939 83.245507 47.312358 83.546838 C 47.804776 83.840819 48.187125 84.263246 48.459058 84.814461 C 48.73834 85.365677 48.877637 86.012608 48.877637 86.754911 C 48.877637 87.489865 48.734321 88.154826 48.447689 88.750138 C 48.161056 89.338101 47.760679 89.804625 47.246212 90.150053 C 46.731744 90.488132 46.150959 90.657515 45.504199 90.657515 C 44.688401 90.657515 44.004894 90.399937 43.453678 89.88547 C 42.909813 89.371002 42.55003 88.614345 42.373641 87.614807 L 40.389266 87.923315 C 40.617102 89.334427 41.171819 90.414809 42.053764 91.164461 C 42.935708 91.914115 44.082236 92.28894 45.493347 92.28894 C 46.610477 92.28894 47.584118 92.046406 48.414616 91.561336 C 49.245114 91.076267 49.884524 90.403784 50.332845 89.543888 C 50.781167 88.676643 51.005672 87.684456 51.005672 86.567326 C 51.005672 85.523692 50.788688 84.605172 50.355066 83.811422 C 49.928792 83.017672 49.344505 82.407315 48.602201 81.981042 C 47.867248 81.54742 47.047947 81.330953 46.143953 81.330953 C 45.56334 81.330953 45.01913 81.419147 44.512012 81.595536 C 44.004894 81.771925 43.549395 82.021465 43.14517 82.344845 L 43.795776 78.034513 L 50.233626 78.034513 L 50.233626 76.116284 L 42.175203 76.116284 z M 93.761719 76.387069 L 92.5158 84.69974 L 94.279517 84.964323 C 94.573498 84.501302 94.992421 84.118954 95.536287 83.817623 C 96.087502 83.516292 96.638718 83.365971 97.189933 83.365971 C 97.836693 83.365971 98.406454 83.516292 98.898873 83.817623 C 99.391292 84.111605 99.77364 84.534547 100.04557 85.085763 C 100.32485 85.636978 100.46415 86.283393 100.46415 87.025696 C 100.46415 87.760649 100.32083 88.426127 100.0342 89.02144 C 99.747569 89.609402 99.347195 90.075926 98.832727 90.421354 C 98.31826 90.759433 97.737474 90.9283 97.090715 90.9283 C 96.274916 90.9283 95.591409 90.671238 95.040194 90.156771 C 94.496328 89.642303 94.136545 88.885129 93.960156 87.885592 L 91.975781 88.194617 C 92.203617 89.605728 92.758335 90.68611 93.640279 91.435763 C 94.522224 92.185416 95.668751 92.560242 97.079862 92.560242 C 98.196992 92.560242 99.170635 92.317707 100.00113 91.832638 C 100.83163 91.347568 101.47104 90.675085 101.91936 89.81519 C 102.36769 88.947944 102.59219 87.955757 102.59219 86.838627 C 102.59219 85.794993 102.37521 84.875956 101.94158 84.082206 C 101.51531 83.288456 100.93102 82.678617 100.18872 82.252344 C 99.453761 81.818722 98.634462 81.601737 97.730469 81.601737 C 97.149855 81.601737 96.605645 81.689932 96.098527 81.866321 C 95.591409 82.04271 95.13591 82.292766 94.731685 82.616146 L 95.382292 78.305298 L 101.82014 78.305298 L 101.82014 76.387069 L 93.761719 76.387069 z M 141.29887 76.387069 L 140.05347 84.69974 L 141.81718 84.964323 C 142.11116 84.501302 142.53009 84.118954 143.07395 83.817623 C 143.62517 83.516292 144.17639 83.365971 144.7276 83.365971 C 145.37436 83.365971 145.94412 83.516292 146.43654 83.817623 C 146.92896 84.111605 147.31079 84.534547 147.58272 85.085763 C 147.862 85.636978 148.00182 86.283393 148.00182 87.025696 C 148.00182 87.760649 147.8585 88.426127 147.57187 89.02144 C 147.28524 89.609402 146.88486 90.075926 146.37039 90.421354 C 145.85593 90.759433 145.27514 90.9283 144.62838 90.9283 C 143.81258 90.9283 143.12907 90.671238 142.57786 90.156771 C 142.03399 89.642303 141.6737 88.885129 141.49731 87.885592 L 139.51293 88.194617 C 139.74076 89.605728 140.296 90.68611 141.17795 91.435763 C 142.05989 92.185416 143.20642 92.560242 144.61753 92.560242 C 145.73465 92.560242 146.7083 92.317707 147.5388 91.832638 C 148.3693 91.347568 149.00871 90.675085 149.45703 89.81519 C 149.90535 88.947944 150.12934 87.955757 150.12934 86.838627 C 150.12934 85.794993 149.91287 84.875956 149.47925 84.082206 C 149.05298 83.288456 148.46869 82.678617 147.72638 82.252344 C 146.99143 81.818722 146.17161 81.601737 145.26762 81.601737 C 144.68701 81.601737 144.14331 81.689932 143.63619 81.866321 C 143.12907 82.04271 142.67357 82.292766 142.26935 82.616146 L 142.91944 78.305298 L 149.35781 78.305298 L 149.35781 76.387069 L 141.29887 76.387069 z M 66.837781 100.08898 L 65.591862 108.40165 L 67.355579 108.66624 C 67.64956 108.20321 68.068484 107.82086 68.612349 107.51954 C 69.163565 107.2182 69.71478 107.06737 70.265995 107.06737 C 70.912755 107.06737 71.482516 107.2182 71.974935 107.51954 C 72.467354 107.81352 72.849702 108.23595 73.121635 108.78716 C 73.400917 109.33838 73.540214 109.98531 73.540214 110.72761 C 73.540214 111.46257 73.396898 112.12753 73.110266 112.72284 C 72.823634 113.3108 72.423257 113.77784 71.908789 114.12327 C 71.394322 114.46135 70.813536 114.63021 70.166777 114.63021 C 69.350978 114.63021 68.667471 114.37315 68.116256 113.85868 C 67.57239 113.34422 67.212607 112.58704 67.036218 111.5875 L 65.051843 111.89601 C 65.279679 113.30712 65.834397 114.38751 66.716341 115.13716 C 67.598286 115.88681 68.744813 116.26164 70.155924 116.26164 C 71.273054 116.26164 72.246695 116.0191 73.077193 115.53403 C 73.907691 115.04896 74.547101 114.37648 74.995422 113.51659 C 75.443744 112.64934 75.66825 111.65716 75.66825 110.54002 C 75.66825 109.49639 75.451266 108.57787 75.017643 107.78412 C 74.59137 106.99037 74.007082 106.38053 73.264779 105.95426 C 72.529825 105.52064 71.710524 105.30365 70.806531 105.30365 C 70.225917 105.30365 69.681707 105.39185 69.174589 105.56823 C 68.667471 105.74463 68.211972 105.99468 67.807747 106.31806 L 68.458354 102.00721 L 74.896204 102.00721 L 74.896204 100.08898 L 66.837781 100.08898 z M 117.73907 100.1019 L 116.49366 108.41405 L 118.25738 108.67864 C 118.55136 108.21561 118.97029 107.83378 119.51415 107.53245 C 120.06536 107.23112 120.61658 107.08029 121.1678 107.08029 C 121.81456 107.08029 122.38432 107.23112 122.87674 107.53245 C 123.36916 107.82643 123.75099 108.24886 124.02292 108.80008 C 124.30221 109.3513 124.44202 109.99823 124.44202 110.74053 C 124.44202 111.47548 124.2987 112.14044 124.01207 112.73575 C 123.72544 113.32372 123.32506 113.79024 122.81059 114.13567 C 122.29613 114.47375 121.71534 114.64313 121.06858 114.64313 C 120.25278 114.64313 119.56928 114.38555 119.01806 113.87109 C 118.47419 113.35662 118.11389 112.59996 117.9375 111.60042 L 115.95313 111.90893 C 116.18097 113.32004 116.7362 114.40042 117.61814 115.15008 C 118.50008 115.89973 119.64662 116.27456 121.05773 116.27456 C 122.17486 116.27456 123.1485 116.03203 123.979 115.54695 C 124.80949 115.06189 125.4489 114.3894 125.89722 113.5295 C 126.34554 112.66227 126.56954 111.67007 126.56954 110.55294 C 126.56954 109.50931 126.35307 108.59079 125.91945 107.79704 C 125.49317 107.00329 124.90889 106.39293 124.16658 105.96666 C 123.43163 105.53304 122.61181 105.31657 121.70782 105.31657 C 121.1272 105.31657 120.58351 105.40477 120.07639 105.58115 C 119.56927 105.75755 119.11378 106.00708 118.70955 106.33046 L 119.35964 102.02013 L 125.79801 102.02013 L 125.79801 100.1019 L 117.73907 100.1019 z " />
  </g>
</svg>
