<?xml version="1.0" encoding="UTF-8" standalone="no"?>
<!-- Created with Inkscape (http://www.inkscape.org/) -->

<svg
   width="720"
   height="720"
   viewBox="0 0 190.5 190.5"
   version="1.1"
   id="svg5"
   sodipodi:docname="5S.svg"
   inkscape:version="1.2.1 (9c6d41e410, 2022-07-14)"
   xmlns:inkscape="http://www.inkscape.org/namespaces/inkscape"
   xmlns:sodipodi="http://sodipodi.sourceforge.net/DTD/sodipodi-0.dtd"
   xmlns="http://www.w3.org/2000/svg"
   xmlns:svg="http://www.w3.org/2000/svg">
  <sodipodi:namedview
     id="namedview7"
     pagecolor="#ffffff"
     bordercolor="#000000"
     borderopacity="0.25"
     inkscape:showpageshadow="2"
     inkscape:pageopacity="0.0"
     inkscape:pagecheckerboard="0"
     inkscape:deskcolor="#d1d1d1"
     inkscape:document-units="mm"
     showgrid="true"
     inkscape:zoom="1.0255231"
     inkscape:cx="377.85594"
     inkscape:cy="365.66704"
     inkscape:window-width="1520"
     inkscape:window-height="1030"
     inkscape:window-x="10"
     inkscape:window-y="0"
     inkscape:window-maximized="0"
     inkscape:current-layer="layer1">
    <inkscape:grid
       type="xygrid"
       id="grid9"
       spacingx="19.05"
       spacingy="19.05" />
  </sodipodi:namedview>
  <defs
     id="defs2" />
  <g
     inkscape:label="Ebene 1"
     inkscape:groupmode="layer"
     id="layer1">
    <path
       id="path3418"
       style="font-size:22.5778px;font-family:'Arial Nova';-inkscape-font-specification:'Arial Nova';stroke-width:0.264583"
       d="M 46.000293 75.575749 C 44.949309 75.575749 43.997717 75.763162 43.14517 76.137988 C 42.299974 76.505465 41.635013 77.016603 41.149943 77.670711 C 40.672224 78.32482 40.433191 79.055927 40.433191 79.864376 C 40.433191 80.606679 40.554459 81.250108 40.796993 81.793974 C 41.046877 82.33049 41.484347 82.81154 42.109058 83.237813 C 42.741118 83.664086 43.619043 84.027889 44.743522 84.32922 C 44.993407 84.402715 45.427373 84.509455 46.044735 84.649097 C 47.081019 84.891632 47.87075 85.108615 48.414616 85.299703 C 49.068725 85.527539 49.561316 85.8322 49.892045 86.214376 C 50.222775 86.589202 50.388139 87.114866 50.388139 87.791024 C 50.388139 88.298141 50.21175 88.75766 49.858972 89.169234 C 49.513545 89.573459 49.043002 89.889145 48.447689 90.11698 C 47.852376 90.344816 47.201942 90.459078 46.496387 90.459078 C 45.144072 90.459078 44.082237 90.128348 43.310535 89.46689 C 42.546183 88.798082 42.090684 87.801876 41.943693 86.478959 L 39.837878 86.975053 C 40.087763 88.709544 40.789816 90.028958 41.943693 90.932951 C 43.10492 91.836944 44.651825 92.28894 46.584753 92.28894 C 47.701883 92.28894 48.705094 92.079479 49.594389 91.660555 C 50.483683 91.234281 51.178214 90.653496 51.677983 89.918542 C 52.185101 89.183589 52.43866 88.360785 52.43866 87.449443 C 52.43866 86.545449 52.243725 85.791777 51.854199 85.189115 C 51.472023 84.579104 50.854662 84.068483 50.002116 83.656909 C 49.156919 83.245335 48.010391 82.881533 46.562533 82.565503 C 45.511548 82.337668 44.703272 82.120684 44.137358 81.914897 C 43.578793 81.70911 43.163372 81.452048 42.891439 81.143368 C 42.619506 80.834686 42.483712 80.423285 42.483712 79.908818 C 42.483712 79.409049 42.63455 78.97158 42.935881 78.596753 C 43.237212 78.214577 43.656135 77.920423 44.192651 77.714636 C 44.729167 77.508849 45.346529 77.406128 46.044735 77.406128 C 47.110418 77.406128 47.951768 77.659687 48.569128 78.166805 C 49.193839 78.673923 49.623787 79.515273 49.858972 80.691199 L 49.902897 80.691199 L 51.964787 80.228178 C 51.839845 79.258039 51.516121 78.423694 50.994303 77.725488 C 50.479836 77.027282 49.796329 76.494613 48.943783 76.127136 C 48.091236 75.75966 47.110073 75.575749 46.000293 75.575749 z M 97.586808 75.84705 C 96.535824 75.84705 95.584232 76.034463 94.731685 76.40929 C 93.886489 76.776766 93.221528 77.287386 92.736458 77.941496 C 92.258739 78.595604 92.019706 79.327228 92.019706 80.135677 C 92.019706 80.87798 92.140974 81.520893 92.383508 82.064758 C 92.633393 82.601274 93.070862 83.082841 93.695573 83.509115 C 94.327633 83.935387 95.205559 84.29919 96.330037 84.600521 C 96.579922 84.674016 97.013889 84.780757 97.63125 84.920398 C 98.667534 85.162933 99.457267 85.3794 100.00113 85.570487 C 100.65524 85.798323 101.14783 86.103501 101.47856 86.485677 C 101.80929 86.860503 101.97465 87.386168 101.97465 88.062325 C 101.97465 88.569443 101.79827 89.028444 101.44549 89.440019 C 101.10006 89.844243 100.62952 90.160445 100.0342 90.388281 C 99.438889 90.616117 98.788457 90.729862 98.082902 90.729862 C 96.730587 90.729862 95.668751 90.399133 94.89705 89.737675 C 94.132698 89.068867 93.677199 88.073177 93.530208 86.75026 L 91.424394 87.246354 C 91.674278 88.980845 92.376331 90.300259 93.530208 91.204252 C 94.691435 92.108245 96.238341 92.560242 98.171269 92.560242 C 99.288398 92.560242 100.29161 92.35078 101.1809 91.931856 C 102.0702 91.505583 102.76473 90.924798 103.2645 90.189844 C 103.77162 89.45489 104.02517 88.631569 104.02517 87.720227 C 104.02517 86.816234 103.83024 86.063079 103.44071 85.460417 C 103.05854 84.850405 102.44118 84.339784 101.58863 83.92821 C 100.74344 83.516636 99.596908 83.152835 98.149048 82.836804 C 97.098064 82.608968 96.289787 82.391984 95.723873 82.186198 C 95.165308 81.980411 94.749887 81.722833 94.477954 81.414152 C 94.206021 81.105472 94.070227 80.69407 94.070227 80.179602 C 94.070227 79.679833 94.221065 79.242364 94.522396 78.867537 C 94.823727 78.485362 95.24265 78.191725 95.779167 77.985937 C 96.315683 77.78015 96.933044 77.676912 97.63125 77.676912 C 98.696933 77.676912 99.538285 77.930471 100.15564 78.43759 C 100.78036 78.944708 101.2103 79.786575 101.44549 80.9625 L 101.48941 80.9625 L 103.5513 80.499479 C 103.42636 79.52934 103.10264 78.694996 102.58082 77.99679 C 102.06635 77.298584 101.38284 76.765914 100.5303 76.398437 C 99.677751 76.030961 98.696588 75.84705 97.586808 75.84705 z M 145.12448 75.84705 C 144.07349 75.84705 143.1219 76.034463 142.26935 76.40929 C 141.42416 76.776766 140.75868 77.287386 140.27361 77.941496 C 139.79589 78.595604 139.55737 79.327228 139.55737 80.135677 C 139.55737 80.87798 139.67864 81.520893 139.92118 82.064758 C 140.17106 82.601274 140.60801 83.082841 141.23272 83.509115 C 141.86478 83.935387 142.74323 84.29919 143.8677 84.600521 C 144.11759 84.674016 144.55104 84.780757 145.1684 84.920398 C 146.20469 85.162933 146.99493 85.3794 147.5388 85.570487 C 148.1929 85.798323 148.68549 86.103501 149.01623 86.485677 C 149.34695 86.860503 149.51232 87.386168 149.51232 88.062325 C 149.51232 88.569443 149.33593 89.028444 148.98315 89.440019 C 148.63773 89.844243 148.16718 90.160445 147.57187 90.388281 C 146.97656 90.616117 146.32612 90.729862 145.62057 90.729862 C 144.26825 90.729862 143.20642 90.399133 142.43472 89.737675 C 141.67036 89.068867 141.21435 88.073177 141.06736 86.75026 L 138.96206 87.246354 C 139.21195 88.980845 139.91349 90.300259 141.06736 91.204252 C 142.22859 92.108245 143.77601 92.560242 145.70894 92.560242 C 146.82607 92.560242 147.82928 92.35078 148.71857 91.931856 C 149.60786 91.505583 150.30239 90.924798 150.80216 90.189844 C 151.30928 89.45489 151.56284 88.631569 151.56284 87.720227 C 151.56284 86.816234 151.36791 86.063079 150.97838 85.460417 C 150.59621 84.850405 149.97884 84.339784 149.1263 83.92821 C 148.2811 83.516636 147.13457 83.152835 145.68671 82.836804 C 144.63573 82.608968 143.82745 82.391984 143.26154 82.186198 C 142.70297 81.980411 142.28755 81.722833 142.01562 81.414152 C 141.74369 81.105472 141.60789 80.69407 141.60789 80.179602 C 141.60789 79.679833 141.75822 79.242364 142.05955 78.867537 C 142.36088 78.485362 142.7798 78.191725 143.31632 77.985937 C 143.85284 77.78015 144.47019 77.676912 145.1684 77.676912 C 146.23409 77.676912 147.07595 77.930471 147.69331 78.43759 C 148.31802 78.944708 148.74797 79.786575 148.98315 80.9625 L 149.02708 80.9625 L 151.08845 80.499479 C 150.96351 79.52934 150.6403 78.694996 150.11849 77.99679 C 149.60402 77.298584 148.92052 76.765914 148.06796 76.398437 C 147.21542 76.030961 146.23425 75.84705 145.12448 75.84705 z M 70.66287 99.548962 C 69.611887 99.548962 68.660294 99.736373 67.807747 100.1112 C 66.962551 100.47867 66.29759 100.9893 65.81252 101.64341 C 65.3348 102.29751 65.095768 103.02914 65.095768 103.83759 C 65.095768 104.57989 65.217035 105.2228 65.45957 105.76667 C 65.709455 106.30319 66.146924 106.78475 66.771635 107.21103 C 67.403695 107.6373 68.281621 108.00111 69.406099 108.30243 C 69.655984 108.37593 70.089951 108.48215 70.707312 108.62179 C 71.743596 108.86433 72.533327 109.08131 73.077193 109.2724 C 73.731302 109.50024 74.223893 109.80542 74.554622 110.18759 C 74.885351 110.56242 75.050716 111.08756 75.050716 111.76372 C 75.050716 112.27084 74.874327 112.73036 74.521549 113.14193 C 74.176121 113.54616 73.705578 113.86236 73.110266 114.09019 C 72.514953 114.31803 71.864519 114.43177 71.158964 114.43177 C 69.806649 114.43177 68.744813 114.10104 67.973112 113.43959 C 67.20876 112.77077 66.753261 111.77508 66.60627 110.45217 L 64.500456 110.94827 C 64.75034 112.68276 65.452393 114.00166 66.60627 114.90565 C 67.767497 115.80964 69.314403 116.26164 71.247331 116.26164 C 72.36446 116.26164 73.367672 116.05218 74.256966 115.63325 C 75.14626 115.20698 75.840791 114.62671 76.34056 113.89176 C 76.847677 113.1568 77.101237 112.33348 77.101237 111.42214 C 77.101237 110.51814 76.906301 109.76499 76.516777 109.16233 C 76.1346 108.55232 75.51724 108.04118 74.664693 107.62961 C 73.819497 107.21803 72.672968 106.85423 71.22511 106.5382 C 70.174126 106.31037 69.365849 106.0939 68.799935 105.88811 C 68.24137 105.68232 67.825949 105.42474 67.554016 105.11606 C 67.282083 104.80738 67.146289 104.39599 67.146289 103.88151 C 67.146289 103.38175 67.297127 102.94428 67.598458 102.56945 C 67.899789 102.18727 68.318713 101.89364 68.855229 101.68785 C 69.391745 101.48206 70.009106 101.37882 70.707312 101.37882 C 71.772995 101.37882 72.614345 101.63238 73.231706 102.1395 C 73.856416 102.64662 74.286364 103.48849 74.521549 104.66441 L 74.565474 104.66441 L 76.627364 104.20139 C 76.502422 103.23125 76.178698 102.39691 75.656881 101.6987 C 75.142413 101.0005 74.458906 100.46783 73.60636 100.10035 C 72.753813 99.732874 71.772651 99.548962 70.66287 99.548962 z M 121.56467 99.561882 C 120.51369 99.561882 119.5621 99.749292 118.70955 100.12412 C 117.86435 100.49159 117.19888 101.00221 116.71381 101.65633 C 116.23609 102.31043 115.99757 103.04155 115.99757 103.84999 C 115.99757 104.5923 116.11883 105.23572 116.36137 105.77959 C 116.61125 106.31611 117.04821 106.79716 117.67292 107.22343 C 118.30498 107.6497 119.18342 108.01351 120.3079 108.31484 C 120.55779 108.38834 120.99124 108.49507 121.6086 108.63471 C 122.64488 108.87725 123.43513 109.09423 123.979 109.28532 C 124.6331 109.51316 125.12569 109.81782 125.45642 110.19999 C 125.78715 110.57482 125.95252 111.10048 125.95252 111.77664 C 125.95252 112.28376 125.77613 112.74328 125.42335 113.15485 C 125.07793 113.55908 124.60738 113.87476 124.01207 114.1026 C 123.41676 114.33043 122.76632 114.44469 122.06077 114.44469 C 120.70845 114.44469 119.64661 114.11397 118.87491 113.45251 C 118.11056 112.7837 117.65454 111.78749 117.50756 110.46458 L 115.40226 110.96067 C 115.65214 112.69516 116.35368 114.01457 117.50756 114.91857 C 118.66878 115.82256 120.21621 116.27456 122.14913 116.27456 C 123.26627 116.27456 124.26948 116.0651 125.15877 115.64617 C 126.04806 115.2199 126.74259 114.63911 127.24236 113.90416 C 127.74948 113.16921 128.00304 112.3464 128.00304 111.43506 C 128.00304 110.53107 127.8081 109.77739 127.41858 109.17473 C 127.0364 108.56472 126.41904 108.0541 125.5665 107.64253 C 124.7213 107.23095 123.57477 106.86715 122.12691 106.55112 C 121.07593 106.32329 120.26766 106.1063 119.70174 105.90051 C 119.14318 105.69473 118.72775 105.43766 118.45582 105.12898 C 118.18389 104.8203 118.04809 104.4089 118.04809 103.89443 C 118.04809 103.39467 118.19842 102.9572 118.49974 102.58237 C 118.80108 102.20019 119.22 101.90604 119.75651 101.70025 C 120.29303 101.49447 120.91039 101.39174 121.6086 101.39174 C 122.67428 101.39174 123.51615 101.6453 124.13351 102.15242 C 124.75822 102.65954 125.18817 103.50089 125.42335 104.67681 L 125.46728 104.67681 L 127.52865 104.21379 C 127.40371 103.24365 127.0805 102.40983 126.55868 101.71162 C 126.04422 101.01342 125.36071 100.48023 124.50816 100.11275 C 123.65562 99.745277 122.67446 99.561882 121.56467 99.561882 z " />
  </g>
</svg>
