<?xml version="1.0" encoding="UTF-8" standalone="no"?>
<!-- Created with Inkscape (http://www.inkscape.org/) -->

<svg
   width="720"
   height="720"
   viewBox="0 0 190.5 190.5"
   version="1.1"
   id="svg5"
   sodipodi:docname="5V.svg"
   inkscape:version="1.2.1 (9c6d41e410, 2022-07-14)"
   xmlns:inkscape="http://www.inkscape.org/namespaces/inkscape"
   xmlns:sodipodi="http://sodipodi.sourceforge.net/DTD/sodipodi-0.dtd"
   xmlns="http://www.w3.org/2000/svg"
   xmlns:svg="http://www.w3.org/2000/svg">
  <sodipodi:namedview
     id="namedview7"
     pagecolor="#ffffff"
     bordercolor="#000000"
     borderopacity="0.25"
     inkscape:showpageshadow="2"
     inkscape:pageopacity="0.0"
     inkscape:pagecheckerboard="0"
     inkscape:deskcolor="#d1d1d1"
     inkscape:document-units="mm"
     showgrid="true"
     inkscape:zoom="1.0255231"
     inkscape:cx="377.85594"
     inkscape:cy="365.66704"
     inkscape:window-width="1520"
     inkscape:window-height="1030"
     inkscape:window-x="10"
     inkscape:window-y="0"
     inkscape:window-maximized="0"
     inkscape:current-layer="layer1">
    <inkscape:grid
       type="xygrid"
       id="grid9"
       spacingx="19.05"
       spacingy="19.05" />
  </sodipodi:namedview>
  <defs
     id="defs2" />
  <g
     inkscape:label="Ebene 1"
     inkscape:groupmode="layer"
     id="layer1">
    <path
       id="path3364"
       style="font-size:22.5778px;font-family:'Arial Nova';-inkscape-font-specification:'Arial Nova';stroke-width:0.264583"
       d="M 38.867912 75.851701 L 44.898035 92.013505 L 47.091699 92.013505 L 53.188485 75.851701 L 50.928158 75.851701 L 46.727897 87.592586 C 46.470663 88.32754 46.243172 89.146841 46.044735 90.050834 L 46.000293 90.050834 C 45.919448 89.609861 45.813224 89.15086 45.680933 88.67314 C 45.548641 88.19542 45.419852 87.772478 45.29491 87.405001 L 41.216089 75.851701 L 38.867912 75.851701 z M 90.454427 76.122485 L 96.48455 92.28429 L 98.678215 92.28429 L 104.775 76.122485 L 102.51467 76.122485 L 98.314412 87.863888 C 98.057179 88.598841 97.829687 89.418142 97.63125 90.322135 L 97.586808 90.322135 C 97.505963 89.881163 97.39974 89.421644 97.267448 88.943925 C 97.135157 88.466205 97.006368 88.043779 96.881425 87.676302 L 92.802604 76.122485 L 90.454427 76.122485 z M 137.99158 76.122485 L 144.02222 92.28429 L 146.21588 92.28429 L 152.31215 76.122485 L 150.05234 76.122485 L 145.85208 87.863888 C 145.59485 88.598841 145.36684 89.418142 145.1684 90.322135 L 145.12448 90.322135 C 145.04363 89.881163 144.93688 89.421644 144.8046 88.943925 C 144.6723 88.466205 144.54403 88.043779 144.41909 87.676302 L 140.33975 76.122485 L 137.99158 76.122485 z M 63.530489 99.824398 L 69.560612 115.9862 L 71.754277 115.9862 L 77.851062 99.824398 L 75.590735 99.824398 L 71.390474 111.56528 C 71.133241 112.30024 70.905749 113.12006 70.707312 114.02405 L 70.66287 114.02405 C 70.582026 113.58308 70.475802 113.12356 70.34351 112.64584 C 70.211218 112.16812 70.082429 111.74569 69.957487 111.37821 L 65.878666 99.824398 L 63.530489 99.824398 z M 114.43177 99.837317 L 120.46241 115.99912 L 122.65608 115.99912 L 128.75235 99.837317 L 126.49254 99.837317 L 122.29228 111.5782 C 122.03504 112.31315 121.80704 113.13246 121.6086 114.03645 L 121.56467 114.03645 C 121.48383 113.59548 121.37709 113.13648 121.2448 112.65876 C 121.1125 112.18104 120.98423 111.75809 120.85929 111.39062 L 116.77995 99.837317 L 114.43177 99.837317 z " />
  </g>
</svg>
