<?xml version="1.0" encoding="UTF-8" standalone="no"?>
<!-- Created with Inkscape (http://www.inkscape.org/) -->

<svg
   width="720"
   height="720"
   viewBox="0 0 190.5 190.5"
   version="1.1"
   id="svg5"
   sodipodi:docname="5zero.svg"
   inkscape:version="1.2.1 (9c6d41e410, 2022-07-14)"
   xmlns:inkscape="http://www.inkscape.org/namespaces/inkscape"
   xmlns:sodipodi="http://sodipodi.sourceforge.net/DTD/sodipodi-0.dtd"
   xmlns="http://www.w3.org/2000/svg"
   xmlns:svg="http://www.w3.org/2000/svg">
  <sodipodi:namedview
     id="namedview7"
     pagecolor="#ffffff"
     bordercolor="#000000"
     borderopacity="0.25"
     inkscape:showpageshadow="2"
     inkscape:pageopacity="0.0"
     inkscape:pagecheckerboard="0"
     inkscape:deskcolor="#d1d1d1"
     inkscape:document-units="mm"
     showgrid="true"
     inkscape:zoom="1.0255231"
     inkscape:cx="377.85594"
     inkscape:cy="365.66704"
     inkscape:window-width="1520"
     inkscape:window-height="1030"
     inkscape:window-x="10"
     inkscape:window-y="0"
     inkscape:window-maximized="0"
     inkscape:current-layer="layer1">
    <inkscape:grid
       type="xygrid"
       id="grid9"
       spacingx="19.05"
       spacingy="19.05" />
  </sodipodi:namedview>
  <defs
     id="defs2" />
  <g
     inkscape:label="Ebene 1"
     inkscape:groupmode="layer"
     id="layer1">
    <path
       id="path3535"
       style="font-size:22.5778px;font-family:'Arial Nova';-inkscape-font-specification:'Arial Nova';stroke-width:0.264583"
       d="M 41.216089 80.051961 C 40.098959 80.051961 39.124801 80.30552 38.294303 80.812638 C 37.471155 81.319757 36.839267 82.039839 36.398295 82.97323 C 35.957323 83.906621 35.736837 85.002046 35.736837 86.258818 C 35.736837 87.47884 35.960826 88.544179 36.409147 89.455522 C 36.857469 90.359515 37.493376 91.058065 38.316524 91.550484 C 39.147022 92.042903 40.120663 92.28894 41.237793 92.28894 C 42.509263 92.28894 43.597167 91.961714 44.50116 91.307605 C 45.412502 90.646146 46.033365 89.724124 46.364095 88.540849 L 44.424162 88.243193 C 44.211025 88.970796 43.828677 89.555085 43.277462 89.996057 C 42.733596 90.437029 42.086664 90.657515 41.337012 90.657515 C 40.653505 90.657515 40.051188 90.503175 39.52937 90.194495 C 39.014903 89.878464 38.607003 89.422449 38.305672 88.827136 C 38.004344 88.224474 37.831458 87.504392 37.787358 86.666545 L 46.540828 86.666545 L 46.540828 86.258818 C 46.540828 84.9506 46.323845 83.829623 45.890222 82.896232 C 45.456599 81.962841 44.839238 81.257286 44.038139 80.779565 C 43.237039 80.294496 42.29647 80.051961 41.216089 80.051961 z M 53.640137 80.051961 C 53.008077 80.051961 52.467886 80.206302 52.019564 80.514982 C 51.571242 80.823663 51.13027 81.345308 50.696647 82.080261 L 50.696647 80.316545 L 48.844564 80.316545 L 48.844564 92.013505 L 50.828939 92.013505 L 50.828939 85.773576 C 50.828939 84.612349 51.049425 83.708356 51.490397 83.061597 C 51.938719 82.407487 52.58565 82.080261 53.430847 82.080261 C 53.967363 82.080261 54.448931 82.194523 54.875203 82.422359 L 55.558366 80.59198 C 55.242336 80.400892 54.930153 80.265098 54.621472 80.184253 C 54.320141 80.096058 53.992914 80.051961 53.640137 80.051961 z M 61.511491 80.051961 C 60.423759 80.051961 59.464644 80.294496 58.634147 80.779565 C 57.810999 81.264635 57.171589 81.966688 56.715918 82.88538 C 56.260246 83.804072 56.032756 84.898981 56.032756 86.170451 C 56.032756 87.478668 56.264266 88.592123 56.727287 89.510815 C 57.197657 90.429508 57.844072 91.124039 58.66722 91.594409 C 59.490368 92.05743 60.438459 92.28894 61.511491 92.28894 C 62.591873 92.28894 63.543983 92.049909 64.367131 91.572188 C 65.197628 91.087119 65.844043 90.385582 66.307064 89.46689 C 66.770085 88.540849 67.001595 87.434399 67.001595 86.14823 C 67.001595 84.854712 66.770085 83.752281 66.307064 82.840938 C 65.851393 81.922247 65.211983 81.227715 64.388835 80.757345 C 63.565687 80.286974 62.606572 80.051961 61.511491 80.051961 z M 25.351941 80.316545 L 25.351941 81.94797 L 31.514355 81.94797 L 24.988139 90.414636 L 24.988139 92.013505 L 34.490918 92.013505 L 34.490918 90.293713 L 27.512533 90.293713 L 34.226335 81.606388 L 34.226335 80.316545 L 25.351941 80.316545 z M 92.802604 80.322746 C 91.685474 80.322746 90.711316 80.576305 89.880819 81.083423 C 89.05767 81.590541 88.425783 82.31114 87.98481 83.244531 C 87.543838 84.177922 87.323352 85.272831 87.323352 86.529602 C 87.323352 87.749625 87.547341 88.81548 87.995662 89.726823 C 88.443985 90.630816 89.079892 91.32885 89.90304 91.821269 C 90.733537 92.313688 91.707179 92.560242 92.824308 92.560242 C 94.095778 92.560242 95.183682 92.233016 96.087675 91.578906 C 96.999017 90.917448 97.619881 89.994909 97.95061 88.811633 L 96.010677 88.513977 C 95.797541 89.241582 95.415192 89.825869 94.863977 90.266842 C 94.320111 90.707814 93.67318 90.9283 92.923527 90.9283 C 92.24002 90.9283 91.637703 90.77396 91.115885 90.465279 C 90.601418 90.149249 90.193519 89.69375 89.892187 89.098437 C 89.590859 88.495775 89.417973 87.775693 89.373873 86.937846 L 98.127344 86.937846 L 98.127344 86.529602 C 98.127344 85.221385 97.91036 84.100924 97.476737 83.167533 C 97.043115 82.234142 96.425753 81.528069 95.624654 81.05035 C 94.823554 80.56528 93.882986 80.322746 92.802604 80.322746 z M 105.22665 80.322746 C 104.59459 80.322746 104.05441 80.477086 103.60608 80.785767 C 103.15776 81.094448 102.71678 81.616609 102.28316 82.351562 L 102.28316 80.587329 L 100.43108 80.587329 L 100.43108 92.28429 L 102.41545 92.28429 L 102.41545 86.044877 C 102.41545 84.88365 102.63594 83.979657 103.07691 83.332898 C 103.52523 82.678789 104.17216 82.351562 105.01736 82.351562 C 105.55388 82.351562 106.03545 82.465308 106.46172 82.693144 L 107.14488 80.863281 C 106.82885 80.672193 106.51667 80.535882 106.20799 80.455037 C 105.90666 80.366843 105.57943 80.322746 105.22665 80.322746 z M 113.09801 80.322746 C 112.01027 80.322746 111.05115 80.56528 110.22066 81.05035 C 109.39751 81.535419 108.75811 82.237473 108.30243 83.156165 C 107.84677 84.074857 107.61927 85.170282 107.61927 86.441752 C 107.61927 87.749969 107.85078 88.863424 108.3138 89.782117 C 108.78417 90.700808 109.43059 91.39534 110.25374 91.86571 C 111.07688 92.328731 112.02497 92.560242 113.09801 92.560242 C 114.17839 92.560242 115.1305 92.32121 115.95365 91.84349 C 116.78415 91.35842 117.43108 90.656367 117.8941 89.737675 C 118.35712 88.811633 118.58863 87.705701 118.58863 86.419531 C 118.58863 85.126013 118.35712 84.023582 117.8941 83.11224 C 117.43842 82.193548 116.79901 81.499017 115.97587 81.028646 C 115.15272 80.558276 114.19309 80.322746 113.09801 80.322746 z M 140.34027 80.322746 C 139.22315 80.322746 138.24898 80.576305 137.41849 81.083423 C 136.59533 81.590541 135.96345 82.31114 135.52248 83.244531 C 135.08151 84.177922 134.86102 85.272831 134.86102 86.529602 C 134.86102 87.749625 135.08501 88.81548 135.53333 89.726823 C 135.98165 90.630816 136.61755 91.32885 137.44071 91.821269 C 138.2712 92.313688 139.24484 92.560242 140.36198 92.560242 C 141.63345 92.560242 142.72135 92.233016 143.62534 91.578906 C 144.53668 90.917448 145.15754 89.994909 145.48828 88.811633 L 143.54834 88.513977 C 143.3352 89.241582 142.95286 89.825869 142.40164 90.266842 C 141.85778 90.707814 141.21085 90.9283 140.46119 90.9283 C 139.77769 90.9283 139.17537 90.77396 138.65355 90.465279 C 138.13909 90.149249 137.73119 89.69375 137.42985 89.098437 C 137.12849 88.495775 136.95561 87.775693 136.91154 86.937846 L 145.66501 86.937846 L 145.66501 86.529602 C 145.66501 85.221385 145.44803 84.100924 145.0144 83.167533 C 144.58078 82.234142 143.96342 81.528069 143.16232 81.05035 C 142.36122 80.56528 141.42066 80.322746 140.34027 80.322746 z M 152.76432 80.322746 C 152.13225 80.322746 151.59207 80.477086 151.14375 80.785767 C 150.69543 81.094448 150.25446 81.616609 149.82083 82.351562 L 149.82083 80.587329 L 147.96875 80.587329 L 147.96875 92.28429 L 149.95312 92.28429 L 149.95312 86.044877 C 149.95312 84.88365 150.17361 83.979657 150.61458 83.332898 C 151.06291 82.678789 151.70984 82.351562 152.55503 82.351562 C 153.09155 82.351562 153.57311 82.465308 153.99939 82.693144 L 154.68255 80.863281 C 154.36651 80.672193 154.05433 80.535882 153.74565 80.455037 C 153.44432 80.366843 153.11709 80.322746 152.76432 80.322746 z M 160.63567 80.322746 C 159.54794 80.322746 158.58883 80.56528 157.75833 81.05035 C 156.93518 81.535419 156.29577 82.237473 155.8401 83.156165 C 155.38443 84.074857 155.15694 85.170282 155.15694 86.441752 C 155.15694 87.749969 155.38844 88.863424 155.85147 89.782117 C 156.32184 90.700808 156.96825 91.39534 157.7914 91.86571 C 158.61455 92.328731 159.56264 92.560242 160.63567 92.560242 C 161.71605 92.560242 162.66816 92.32121 163.49131 91.84349 C 164.32181 91.35842 164.96822 90.656367 165.43125 89.737675 C 165.89427 88.811633 166.12578 87.705701 166.12578 86.419531 C 166.12578 85.126013 165.89427 84.023582 165.43125 83.11224 C 164.97557 82.193548 164.33616 81.499017 163.51302 81.028646 C 162.68986 80.558276 161.73075 80.322746 160.63567 80.322746 z M 76.938456 80.587329 L 76.938456 82.219271 L 83.100871 82.219271 L 76.574654 90.685937 L 76.574654 92.28429 L 86.077433 92.28429 L 86.077433 90.564498 L 79.099048 90.564498 L 85.81285 81.877173 L 85.81285 80.587329 L 76.938456 80.587329 z M 124.47612 80.587329 L 124.47612 82.219271 L 130.63854 82.219271 L 124.11232 90.685937 L 124.11232 92.28429 L 133.6151 92.28429 L 133.6151 90.564498 L 126.63671 90.564498 L 133.35052 81.877173 L 133.35052 80.587329 L 124.47612 80.587329 z M 41.193868 81.672534 C 42.11991 81.672534 42.862041 81.962669 43.420605 82.543282 C 43.98652 83.123895 44.328273 83.954738 44.445866 85.03512 L 37.853503 85.03512 C 37.941698 84.366312 38.136633 83.778004 38.437964 83.270886 C 38.746644 82.763768 39.135998 82.370912 39.606368 82.09163 C 40.076739 81.812348 40.605905 81.672534 41.193868 81.672534 z M 61.500639 81.683386 C 62.184146 81.683386 62.78698 81.856273 63.308797 82.201701 C 63.830615 82.53978 64.238514 83.043396 64.532495 83.712203 C 64.826477 84.381011 64.973295 85.19279 64.973295 86.14823 C 64.973295 87.09632 64.82998 87.908616 64.543347 88.584774 C 64.264065 89.260932 63.863687 89.775571 63.34187 90.128349 C 62.820053 90.481126 62.209697 90.657515 61.511491 90.657515 C 60.835334 90.657515 60.236518 90.488132 59.714701 90.150053 C 59.200234 89.804625 58.795837 89.297506 58.501855 88.628699 C 58.207874 87.952541 58.061056 87.13324 58.061056 86.170451 C 58.061056 85.207662 58.207874 84.391863 58.501855 83.723055 C 58.803187 83.046898 59.211086 82.53978 59.725553 82.201701 C 60.247371 81.856273 60.839181 81.683386 61.500639 81.683386 z M 92.780383 81.943319 C 93.706425 81.943319 94.448556 82.23397 95.007121 82.814583 C 95.573035 83.395197 95.914789 84.225523 96.032381 85.305904 L 89.440019 85.305904 C 89.528213 84.637096 89.723148 84.049306 90.024479 83.542187 C 90.33316 83.03507 90.722513 82.641697 91.192883 82.362415 C 91.663254 82.083132 92.192421 81.943319 92.780383 81.943319 z M 140.31805 81.943319 C 141.2441 81.943319 141.98623 82.23397 142.54479 82.814583 C 143.11071 83.395197 143.45245 84.225523 143.57005 85.305904 L 136.97769 85.305904 C 137.06589 84.637096 137.26082 84.049306 137.56215 83.542187 C 137.87083 83.03507 138.26018 82.641697 138.73055 82.362415 C 139.20092 82.083132 139.73009 81.943319 140.31805 81.943319 z M 113.08715 81.954687 C 113.77066 81.954687 114.37349 82.127574 114.89531 82.473002 C 115.41713 82.81108 115.82502 83.314179 116.11901 83.982987 C 116.41299 84.651795 116.55981 85.464092 116.55981 86.419531 C 116.55981 87.367622 116.4165 88.179918 116.12986 88.856075 C 115.85058 89.532232 115.4502 90.046355 114.92839 90.399133 C 114.40657 90.751911 113.79621 90.9283 113.09801 90.9283 C 112.42185 90.9283 111.82304 90.759433 111.30122 90.421354 C 110.78675 90.075926 110.38236 89.568808 110.08837 88.9 C 109.79439 88.223843 109.64757 87.404541 109.64757 86.441752 C 109.64757 85.478962 109.79439 84.663164 110.08837 83.994356 C 110.3897 83.318199 110.7976 82.81108 111.31207 82.473002 C 111.83389 82.127574 112.42569 81.954687 113.08715 81.954687 z M 160.62482 81.954687 C 161.30833 81.954687 161.91117 82.127574 162.43298 82.473002 C 162.9548 82.81108 163.3627 83.314179 163.65668 83.982987 C 163.95066 84.651795 164.09748 85.464092 164.09748 86.419531 C 164.09748 87.367622 163.95416 88.179918 163.66753 88.856075 C 163.38824 89.532232 162.98787 90.046355 162.46605 90.399133 C 161.94423 90.751911 161.33388 90.9283 160.63567 90.9283 C 159.95951 90.9283 159.3607 90.759433 158.83888 90.421354 C 158.32441 90.075926 157.92002 89.568808 157.62604 88.9 C 157.33206 88.223843 157.18524 87.404541 157.18524 86.441752 C 157.18524 85.478962 157.33206 84.663164 157.62604 83.994356 C 157.92737 83.318199 158.33527 82.81108 158.84974 82.473002 C 159.37155 82.127574 159.96337 81.954687 160.62482 81.954687 z M 65.878666 104.02466 C 64.761537 104.02466 63.787379 104.27822 62.956881 104.78534 C 62.133733 105.29245 61.501845 106.01305 61.060872 106.94644 C 60.6199 107.87984 60.399414 108.97474 60.399414 110.23151 C 60.399414 111.45154 60.623403 112.5174 61.071724 113.42874 C 61.520047 114.33273 62.155954 115.03076 62.979102 115.52318 C 63.809599 116.0156 64.783241 116.26164 65.90037 116.26164 C 67.17184 116.26164 68.259744 115.93492 69.163737 115.28082 C 70.075079 114.61936 70.695943 113.69682 71.026672 112.51355 L 69.086739 112.21589 C 68.873602 112.94349 68.491254 113.52778 67.940039 113.96875 C 67.396173 114.40973 66.749242 114.63021 65.999589 114.63021 C 65.316082 114.63021 64.713764 114.47587 64.191947 114.16719 C 63.67748 113.85116 63.269581 113.39566 62.96825 112.80035 C 62.666921 112.19768 62.494035 111.47709 62.449935 110.63924 L 71.203406 110.63924 L 71.203406 110.23151 C 71.203406 108.9233 70.986422 107.80232 70.552799 106.86893 C 70.119177 105.93554 69.501815 105.22998 68.700716 104.75226 C 67.899616 104.2672 66.959048 104.02466 65.878666 104.02466 z M 78.302714 104.02466 C 77.670654 104.02466 77.130463 104.179 76.682141 104.48768 C 76.23382 104.79636 75.792847 105.31852 75.359224 106.05347 L 75.359224 104.28924 L 73.507141 104.28924 L 73.507141 115.9862 L 75.491516 115.9862 L 75.491516 109.74627 C 75.491516 108.58505 75.712002 107.68105 76.152974 107.03429 C 76.601296 106.38018 77.248227 106.05347 78.093424 106.05347 C 78.629941 106.05347 79.111508 106.16722 79.537781 106.39506 L 80.220943 104.56519 C 79.904913 104.37411 79.59273 104.2378 79.284049 104.15695 C 78.982718 104.06876 78.655492 104.02466 78.302714 104.02466 z M 86.174068 104.02466 C 85.086337 104.02466 84.127222 104.2672 83.296724 104.75226 C 82.473576 105.23734 81.834167 105.93938 81.378495 106.85808 C 80.922824 107.77677 80.695333 108.87168 80.695333 110.14315 C 80.695333 111.45137 80.926843 112.56482 81.389864 113.48351 C 81.860234 114.4022 82.50665 115.09673 83.329797 115.56711 C 84.152946 116.03013 85.101036 116.26164 86.174068 116.26164 C 87.25445 116.26164 88.20656 116.02312 89.029708 115.5454 C 89.860206 115.06034 90.50662 114.35828 90.969641 113.43959 C 91.432662 112.51354 91.664172 111.40761 91.664172 110.12144 C 91.664172 108.82792 91.432662 107.7255 90.969641 106.81415 C 90.51397 105.89546 89.87456 105.20092 89.051412 104.73056 C 88.228263 104.26019 87.269149 104.02466 86.174068 104.02466 z M 116.77995 104.03758 C 115.66282 104.03758 114.68918 104.29113 113.85868 104.79825 C 113.03553 105.30537 112.40365 106.02545 111.96267 106.95885 C 111.52171 107.89224 111.30122 108.98766 111.30122 110.24443 C 111.30122 111.46446 111.52521 112.5298 111.97353 113.44114 C 112.42185 114.34513 113.05775 115.04368 113.8809 115.5361 C 114.7114 116.02852 115.68504 116.27456 116.80217 116.27456 C 118.07364 116.27456 119.16155 115.94733 120.06554 115.29322 C 120.97688 114.63176 121.59774 113.70974 121.92847 112.52646 L 119.98802 112.22881 C 119.77489 112.95641 119.39305 113.5407 118.84184 113.98167 C 118.29798 114.42265 117.65104 114.64313 116.90139 114.64313 C 116.21789 114.64313 115.61505 114.48879 115.09323 114.18011 C 114.57877 113.86408 114.17087 113.40807 113.86954 112.81275 C 113.56818 112.21009 113.3958 111.49001 113.35174 110.65216 L 122.10469 110.65216 L 122.10469 110.24443 C 122.10469 108.93621 121.88823 107.81524 121.4546 106.88185 C 121.02098 105.94846 120.40362 105.2429 119.60252 104.76518 C 118.80142 104.28012 117.86034 104.03758 116.77995 104.03758 z M 129.20452 104.03758 C 128.57245 104.03758 128.03226 104.19192 127.58394 104.5006 C 127.13562 104.80928 126.69465 105.33092 126.26103 106.06588 L 126.26103 104.30216 L 124.40894 104.30216 L 124.40894 115.99912 L 126.39332 115.99912 L 126.39332 109.75919 C 126.39332 108.59797 126.6138 107.69397 127.05478 107.04721 C 127.5031 106.3931 128.15003 106.06588 128.99523 106.06588 C 129.53175 106.06588 130.01279 106.18014 130.43907 106.40798 L 131.12275 104.5776 C 130.80671 104.38651 130.49453 104.25072 130.18585 104.16987 C 129.88452 104.08168 129.55729 104.03758 129.20452 104.03758 z M 137.07587 104.03758 C 135.98814 104.03758 135.02903 104.28012 134.19853 104.76518 C 133.37538 105.25025 132.73597 105.9523 132.2803 106.871 C 131.82462 107.78969 131.59662 108.8846 131.59662 110.15607 C 131.59662 111.46429 131.82812 112.57774 132.29115 113.49643 C 132.76152 114.41512 133.40845 115.10965 134.2316 115.58003 C 135.05475 116.04304 136.00284 116.27456 137.07587 116.27456 C 138.15625 116.27456 139.10784 116.03552 139.93099 115.5578 C 140.76149 115.07273 141.40842 114.3712 141.87144 113.45251 C 142.33446 112.52647 142.56597 111.42001 142.56597 110.13385 C 142.56597 108.84033 142.33446 107.7379 141.87144 106.82655 C 141.41577 105.90786 140.77636 105.21333 139.95321 104.74296 C 139.13006 104.27259 138.17095 104.03758 137.07587 104.03758 z M 50.014518 104.28924 L 50.014518 105.92118 L 56.176933 105.92118 L 49.650716 114.38785 L 49.650716 115.9862 L 59.153495 115.9862 L 59.153495 114.26641 L 52.17511 114.26641 L 58.888912 105.57909 L 58.888912 104.28924 L 50.014518 104.28924 z M 100.91632 104.30216 L 100.91632 105.93359 L 107.07874 105.93359 L 100.55252 114.40025 L 100.55252 115.99912 L 110.0553 115.99912 L 110.0553 114.27933 L 103.07691 114.27933 L 109.79071 105.592 L 109.79071 104.30216 L 100.91632 104.30216 z M 65.856445 105.64523 C 66.782487 105.64523 67.524618 105.93588 68.083183 106.5165 C 68.649097 107.09712 68.990851 107.92744 69.108443 109.00782 L 62.516081 109.00782 C 62.604275 108.33901 62.79921 107.75122 63.100541 107.2441 C 63.409222 106.73698 63.798575 106.34361 64.268945 106.06433 C 64.739316 105.78504 65.268482 105.64523 65.856445 105.64523 z M 86.163216 105.6566 C 86.846723 105.6566 87.449557 105.82897 87.971375 106.1744 C 88.493191 106.51248 88.901091 107.01609 89.195072 107.6849 C 89.489054 108.35371 89.635872 109.166 89.635872 110.12144 C 89.635872 111.06953 89.492557 111.88131 89.205924 112.55747 C 88.926642 113.23363 88.526264 113.74827 88.004447 114.10105 C 87.48263 114.45383 86.872274 114.63021 86.174068 114.63021 C 85.497911 114.63021 84.899095 114.46135 84.377279 114.12327 C 83.86281 113.77784 83.458414 113.27072 83.164433 112.60191 C 82.870451 111.92575 82.723633 111.10594 82.723633 110.14315 C 82.723633 109.18036 82.870451 108.36456 83.164433 107.69575 C 83.465764 107.01959 83.873663 106.51248 84.388131 106.1744 C 84.909948 105.82897 85.501757 105.6566 86.163216 105.6566 z M 116.75825 105.65815 C 117.68429 105.65815 118.42643 105.94829 118.98499 106.5289 C 119.5509 107.10951 119.89265 107.94035 120.01025 109.02074 L 113.41788 109.02074 C 113.50608 108.35193 113.7005 107.76362 114.00183 107.2565 C 114.31051 106.74938 114.70038 106.35653 115.17075 106.07725 C 115.64112 105.79796 116.17029 105.65815 116.75825 105.65815 z M 137.06502 105.669 C 137.74853 105.669 138.35085 105.84189 138.87266 106.18732 C 139.39448 106.5254 139.80238 107.02901 140.09636 107.69782 C 140.39034 108.36663 140.53767 109.1784 140.53767 110.13385 C 140.53767 111.08193 140.39435 111.89423 140.10773 112.57039 C 139.82844 113.24655 139.42755 113.76119 138.90573 114.11396 C 138.38391 114.46674 137.77408 114.64313 137.07587 114.64313 C 136.39971 114.64313 135.80089 114.47375 135.27908 114.13567 C 134.76461 113.79024 134.36022 113.28312 134.06624 112.61431 C 133.77226 111.93816 133.62544 111.11886 133.62544 110.15607 C 133.62544 109.19328 133.77226 108.37748 134.06624 107.70867 C 134.36757 107.03251 134.77547 106.5254 135.28993 106.18732 C 135.81175 105.84189 136.40357 105.669 137.06502 105.669 z " />
  </g>
</svg>
