<?xml version="1.0" encoding="UTF-8" standalone="no"?>
<!-- Created with Inkscape (http://www.inkscape.org/) -->

<svg
   width="720"
   height="720"
   viewBox="0 0 190.5 190.5"
   version="1.1"
   id="svg5"
   sodipodi:docname="65.svg"
   inkscape:version="1.2.1 (9c6d41e410, 2022-07-14)"
   xmlns:inkscape="http://www.inkscape.org/namespaces/inkscape"
   xmlns:sodipodi="http://sodipodi.sourceforge.net/DTD/sodipodi-0.dtd"
   xmlns="http://www.w3.org/2000/svg"
   xmlns:svg="http://www.w3.org/2000/svg">
  <sodipodi:namedview
     id="namedview7"
     pagecolor="#ffffff"
     bordercolor="#000000"
     borderopacity="0.25"
     inkscape:showpageshadow="2"
     inkscape:pageopacity="0.0"
     inkscape:pagecheckerboard="0"
     inkscape:deskcolor="#d1d1d1"
     inkscape:document-units="mm"
     showgrid="true"
     inkscape:zoom="1.0255231"
     inkscape:cx="129.20236"
     inkscape:cy="396.38308"
     inkscape:window-width="1920"
     inkscape:window-height="1001"
     inkscape:window-x="-9"
     inkscape:window-y="-9"
     inkscape:window-maximized="1"
     inkscape:current-layer="layer1">
    <inkscape:grid
       type="xygrid"
       id="grid9"
       spacingx="19.05"
       spacingy="19.05" />
  </sodipodi:namedview>
  <defs
     id="defs2">
    <rect
       x="67.282738"
       y="190.14687"
       width="570.4406"
       height="346.16481"
       id="rect2264" />
  </defs>
  <g
     inkscape:label="Ebene 1"
     inkscape:groupmode="layer"
     id="layer1">
    <path
       id="path855"
       style="font-size:22.5778px;font-family:'Arial Nova';-inkscape-font-specification:'Arial Nova';stroke-width:0.264583"
       d="M 42.586031 75.081722 L 41.340112 83.394393 L 43.103829 83.658976 C 43.397811 83.195955 43.816734 82.813607 44.3606 82.512276 C 44.911815 82.210945 45.46303 82.060107 46.014246 82.060107 C 46.661005 82.060107 47.230766 82.210945 47.723185 82.512276 C 48.215604 82.806258 48.597952 83.228684 48.869885 83.779899 C 49.149168 84.331114 49.288464 84.978046 49.288464 85.720349 C 49.288464 86.455303 49.145149 87.120263 48.858516 87.715576 C 48.571885 88.303539 48.171507 88.770579 47.657039 89.116007 C 47.142572 89.454086 46.561786 89.622953 45.915027 89.622953 C 45.099228 89.622953 44.415721 89.365892 43.864506 88.851424 C 43.32064 88.336957 42.960857 87.579782 42.784469 86.580245 L 40.800094 86.888753 C 41.027929 88.299865 41.582647 89.380247 42.464591 90.129899 C 43.346536 90.879552 44.493064 91.254378 45.904175 91.254378 C 47.021304 91.254378 47.994946 91.011844 48.825444 90.526774 C 49.655941 90.041705 50.29535 89.369222 50.743673 88.509326 C 51.191994 87.64208 51.4165 86.649893 51.4165 85.532764 C 51.4165 84.489129 51.199516 83.570609 50.765894 82.77686 C 50.339621 81.98311 49.755332 81.373271 49.013029 80.946997 C 48.278075 80.513375 47.458774 80.296391 46.554781 80.296391 C 45.974168 80.296391 45.429958 80.384586 44.922839 80.560974 C 44.415721 80.737363 43.960222 80.987419 43.555998 81.310799 L 44.206604 76.999951 L 50.644454 76.999951 L 50.644454 75.081722 L 42.586031 75.081722 z M 94.172546 75.353023 L 92.926628 83.665177 L 94.690344 83.929761 C 94.984326 83.46674 95.40325 83.084909 95.947115 82.783577 C 96.498331 82.482246 97.049545 82.331409 97.600761 82.331409 C 98.24752 82.331409 98.817282 82.482246 99.309701 82.783577 C 99.802117 83.077559 100.18447 83.499986 100.4564 84.0512 C 100.73569 84.602416 100.87498 85.249347 100.87498 85.99165 C 100.87498 86.726604 100.73166 87.391565 100.44503 87.986877 C 100.1584 88.574841 99.758022 89.041364 99.243555 89.386792 C 98.729087 89.72487 98.148302 89.894255 97.501542 89.894255 C 96.685744 89.894255 96.002237 89.636676 95.451021 89.122209 C 94.907156 88.607741 94.547373 87.851083 94.370984 86.851546 L 92.386609 87.160055 C 92.614445 88.571166 93.169162 89.651548 94.051107 90.4012 C 94.933051 91.150853 96.079579 91.52568 97.49069 91.52568 C 98.60782 91.52568 99.581459 91.283145 100.41196 90.798075 C 101.24245 90.313006 101.88186 89.640523 102.33019 88.780627 C 102.77851 87.913382 103.00302 86.921194 103.00302 85.804065 C 103.00302 84.760431 102.78603 83.841911 102.35241 83.048161 C 101.92614 82.25441 101.34185 81.644054 100.59954 81.217782 C 99.86459 80.784159 99.045289 80.567692 98.141296 80.567692 C 97.560683 80.567692 97.016473 80.655886 96.509355 80.832275 C 96.002237 81.008665 95.546738 81.258205 95.142513 81.581584 L 95.793119 77.271252 L 102.23097 77.271252 L 102.23097 75.353023 L 94.172546 75.353023 z M 141.7097 75.353023 L 140.46378 83.665177 L 142.22801 83.929761 C 142.52199 83.46674 142.94092 83.084909 143.48478 82.783577 C 144.036 82.482246 144.58721 82.331409 145.13843 82.331409 C 145.78519 82.331409 146.35443 82.482246 146.84685 82.783577 C 147.33927 83.077559 147.72162 83.499986 147.99355 84.0512 C 148.27283 84.602416 148.41265 85.249347 148.41265 85.99165 C 148.41265 86.726604 148.26933 87.391565 147.9827 87.986877 C 147.69607 88.574841 147.29518 89.041364 146.7807 89.386792 C 146.26624 89.72487 145.68597 89.894255 145.03921 89.894255 C 144.22341 89.894255 143.5399 89.636676 142.98869 89.122209 C 142.44482 88.607741 142.08452 87.851083 141.90813 86.851546 L 139.92376 87.160055 C 140.15159 88.571166 140.70631 89.651548 141.58826 90.4012 C 142.4702 91.150853 143.61673 91.52568 145.02784 91.52568 C 146.14497 91.52568 147.11913 91.283145 147.94963 90.798075 C 148.78012 90.313006 149.41954 89.640523 149.86785 88.780627 C 150.31618 87.913382 150.54017 86.921194 150.54017 85.804065 C 150.54017 84.760431 150.32319 83.841911 149.88956 83.048161 C 149.46329 82.25441 148.879 81.644054 148.13669 81.217782 C 147.40174 80.784159 146.58244 80.567692 145.67845 80.567692 C 145.09783 80.567692 144.55414 80.655886 144.04702 80.832275 C 143.53991 81.008665 143.08389 81.258205 142.67966 81.581584 L 143.33027 77.271252 L 149.76864 77.271252 L 149.76864 75.353023 L 141.7097 75.353023 z M 42.161251 99.635262 L 40.915332 107.94742 L 42.679565 108.212 C 42.973547 107.74898 43.392472 107.36715 43.936336 107.06582 C 44.487552 106.76448 45.038768 106.61365 45.589982 106.61365 C 46.23674 106.61365 46.805985 106.76448 47.298405 107.06582 C 47.790823 107.3598 48.173172 107.78222 48.445105 108.33344 C 48.724387 108.88465 48.864201 109.53158 48.864201 110.27389 C 48.864201 111.00884 48.720885 111.6738 48.434253 112.26912 C 48.147621 112.85708 47.746727 113.3236 47.232259 113.66903 C 46.717793 114.00711 46.137523 114.17649 45.490763 114.17649 C 44.674966 114.17649 43.991457 113.91892 43.440243 113.40445 C 42.896376 112.88998 42.536077 112.13332 42.359688 111.13378 L 40.375313 111.44229 C 40.603149 112.8534 41.157868 113.93379 42.039811 114.68344 C 42.921755 115.43309 44.068285 115.80792 45.479395 115.80792 C 46.596523 115.80792 47.570684 115.56538 48.40118 115.08031 C 49.231677 114.59525 49.871088 113.92277 50.319409 113.06287 C 50.767731 112.19562 50.99172 111.20344 50.99172 110.0863 C 50.99172 109.04267 50.774736 108.12415 50.341113 107.3304 C 49.914841 106.53665 49.330551 105.92629 48.588249 105.50002 C 47.853295 105.06639 47.033993 104.84993 46.130001 104.84993 C 45.549387 104.84993 45.005693 104.93812 44.498576 105.11451 C 43.991458 105.2909 43.535442 105.54044 43.131217 105.86382 L 43.781824 101.55349 L 50.22019 101.55349 L 50.22019 99.635262 L 42.161251 99.635262 z M 93.747766 99.906563 L 92.501847 108.21872 L 94.266081 108.4833 C 94.560062 108.02028 94.978985 107.63793 95.522852 107.3366 C 96.074066 107.03527 96.625282 106.88495 97.176497 106.88495 C 97.823257 106.88495 98.392501 107.03527 98.88492 107.3366 C 99.37734 107.63058 99.75969 108.05352 100.03162 108.60474 C 100.31091 109.15595 100.45072 109.80237 100.45072 110.54467 C 100.45072 111.27963 100.3074 111.9451 100.02077 112.54042 C 99.734136 113.12838 99.333243 113.5949 98.818774 113.94033 C 98.304307 114.27841 97.724038 114.44728 97.077279 114.44728 C 96.26148 114.44728 95.577973 114.19022 95.026758 113.67575 C 94.482892 113.16128 94.122593 112.40411 93.946204 111.40457 L 91.961829 111.71359 C 92.189664 113.12471 92.744382 114.20509 93.626326 114.95474 C 94.508271 115.70439 95.654799 116.07922 97.06591 116.07922 C 98.183039 116.07922 99.157197 115.83668 99.987695 115.35162 C 100.81819 114.86654 101.4576 114.19406 101.90592 113.33417 C 102.35424 112.46692 102.57823 111.47474 102.57823 110.3576 C 102.57823 109.31397 102.36125 108.39494 101.92763 107.60118 C 101.50136 106.80744 100.91707 106.19759 100.17476 105.77132 C 99.43981 105.3377 98.620509 105.12072 97.716516 105.12072 C 97.135903 105.12072 96.592209 105.20891 96.085091 105.3853 C 95.577973 105.56169 95.121957 105.81174 94.717733 106.13512 L 95.368339 101.82479 L 101.80671 101.82479 L 101.80671 99.906563 L 93.747766 99.906563 z M 141.28492 99.906563 L 140.03951 108.21872 L 141.80323 108.4833 C 142.09722 108.02028 142.51614 107.63793 143.06 107.3366 C 143.61121 107.03527 144.16243 106.88495 144.71365 106.88495 C 145.36041 106.88495 145.93017 107.03527 146.42259 107.3366 C 146.91501 107.63058 147.29684 108.05352 147.56877 108.60474 C 147.84806 109.15595 147.98787 109.80237 147.98787 110.54467 C 147.98787 111.27963 147.84455 111.9451 147.55792 112.54042 C 147.27129 113.12838 146.87091 113.5949 146.35644 113.94033 C 145.84198 114.27841 145.26119 114.44728 144.61443 114.44728 C 143.79863 114.44728 143.11513 114.19022 142.56391 113.67575 C 142.02004 113.16128 141.65974 112.40411 141.48335 111.40457 L 139.49898 111.71359 C 139.72682 113.12471 140.28205 114.20509 141.16399 114.95474 C 142.04594 115.70439 143.19246 116.07922 144.60358 116.07922 C 145.72071 116.07922 146.69435 115.83668 147.52485 115.35162 C 148.35534 114.86654 148.99475 114.19406 149.44307 113.33417 C 149.89139 112.46692 150.11538 111.47474 150.11538 110.3576 C 150.11538 109.31397 149.89892 108.39494 149.4653 107.60118 C 149.03902 106.80744 148.45473 106.19759 147.71243 105.77132 C 146.97748 105.3377 146.15766 105.12072 145.25367 105.12072 C 144.67305 105.12072 144.12935 105.20891 143.62224 105.3853 C 143.11512 105.56169 142.65963 105.81174 142.2554 106.13512 L 142.90549 101.82479 L 149.34386 101.82479 L 149.34386 99.906563 L 141.28492 99.906563 z " />
    <text
       xml:space="preserve"
       transform="scale(0.26458333)"
       id="text2262"
       style="font-style:normal;font-variant:normal;font-weight:normal;font-stretch:normal;font-size:85.3333px;font-family:'Arial Nova';-inkscape-font-specification:'Arial Nova, Normal';font-variant-ligatures:normal;font-variant-caps:normal;font-variant-numeric:normal;font-variant-east-asian:normal;white-space:pre;shape-inside:url(#rect2264);display:inline;fill:#000000" />
  </g>
</svg>
