<?xml version="1.0" encoding="UTF-8" standalone="no"?>
<!-- Created with Inkscape (http://www.inkscape.org/) -->

<svg
   width="720"
   height="720"
   viewBox="0 0 190.5 190.5"
   version="1.1"
   id="svg5"
   sodipodi:docname="6five.svg"
   inkscape:version="1.2.1 (9c6d41e410, 2022-07-14)"
   xmlns:inkscape="http://www.inkscape.org/namespaces/inkscape"
   xmlns:sodipodi="http://sodipodi.sourceforge.net/DTD/sodipodi-0.dtd"
   xmlns="http://www.w3.org/2000/svg"
   xmlns:svg="http://www.w3.org/2000/svg">
  <sodipodi:namedview
     id="namedview7"
     pagecolor="#ffffff"
     bordercolor="#000000"
     borderopacity="0.25"
     inkscape:showpageshadow="2"
     inkscape:pageopacity="0.0"
     inkscape:pagecheckerboard="0"
     inkscape:deskcolor="#d1d1d1"
     inkscape:document-units="mm"
     showgrid="true"
     inkscape:zoom="1.0255231"
     inkscape:cx="342.75192"
     inkscape:cy="395.89553"
     inkscape:window-width="1520"
     inkscape:window-height="1030"
     inkscape:window-x="10"
     inkscape:window-y="1"
     inkscape:window-maximized="0"
     inkscape:current-layer="layer1">
    <inkscape:grid
       type="xygrid"
       id="grid9"
       spacingx="19.05"
       spacingy="19.05" />
  </sodipodi:namedview>
  <defs
     id="defs2">
    <rect
       x="67.282738"
       y="190.14687"
       width="570.4406"
       height="346.16481"
       id="rect2264" />
  </defs>
  <g
     inkscape:label="Ebene 1"
     inkscape:groupmode="layer"
     id="layer1">
    <path
       id="path3064"
       style="font-size:22.5778px;font-family:'Arial Nova';-inkscape-font-specification:'Arial Nova';stroke-width:0.264583"
       d="M 34.196362 74.541703 C 33.108631 74.541703 32.322402 74.828335 31.837333 75.401599 C 31.359613 75.974863 31.120581 76.754086 31.120581 77.738924 L 31.120581 79.281982 L 29.356864 79.281982 L 29.356864 80.814705 L 31.120581 80.814705 L 31.120581 90.978943 L 33.104956 90.978943 L 33.104956 80.814705 L 35.18855 80.814705 L 35.18855 79.281982 L 33.104956 79.281982 L 33.104956 78.168872 C 33.104956 77.595609 33.19315 77.13609 33.369539 76.790662 C 33.545928 76.437884 33.873155 76.261495 34.350875 76.261495 C 34.674255 76.261495 35.082154 76.335163 35.574573 76.482153 L 35.993152 74.817139 C 35.633024 74.721597 35.31332 74.651949 35.034037 74.607849 C 34.762105 74.563749 34.482995 74.541703 34.196362 74.541703 z M 85.782878 74.813005 C 84.695146 74.813005 83.908918 75.099636 83.423848 75.6729 C 82.946128 76.246164 82.707096 77.02487 82.707096 78.009709 L 82.707096 79.553284 L 80.94338 79.553284 L 80.94338 81.08549 L 82.707096 81.08549 L 82.707096 91.250244 L 84.691471 91.250244 L 84.691471 81.08549 L 86.775065 81.08549 L 86.775065 79.553284 L 84.691471 79.553284 L 84.691471 78.439657 C 84.691471 77.866392 84.779666 77.407391 84.956055 77.061963 C 85.132444 76.709185 85.459671 76.532796 85.93739 76.532796 C 86.26077 76.532796 86.668669 76.605947 87.161088 76.752938 L 87.579667 75.08844 C 87.21954 74.992899 86.899835 74.92325 86.620553 74.87915 C 86.34862 74.83505 86.069509 74.813005 85.782878 74.813005 z M 133.32054 74.813005 C 132.23281 74.813005 131.44606 75.099636 130.961 75.6729 C 130.48327 76.246164 130.24476 77.02487 130.24476 78.009709 L 130.24476 79.553284 L 128.48053 79.553284 L 128.48053 81.08549 L 130.24476 81.08549 L 130.24476 91.250244 L 132.22914 91.250244 L 132.22914 81.08549 L 134.31273 81.08549 L 134.31273 79.553284 L 132.22914 79.553284 L 132.22914 78.439657 C 132.22914 77.866392 132.31733 77.407391 132.49372 77.061963 C 132.67011 76.709185 132.99682 76.532796 133.47454 76.532796 C 133.79792 76.532796 134.20582 76.605947 134.69824 76.752938 L 135.11733 75.08844 C 134.75721 74.992899 134.4375 74.92325 134.15822 74.87915 C 133.88629 74.83505 133.60718 74.813005 133.32054 74.813005 z M 36.875269 74.817139 L 36.875269 77.066097 L 38.870496 77.066097 L 38.870496 74.817139 L 36.875269 74.817139 z M 88.461784 75.08844 L 88.461784 77.337398 L 90.457011 77.337398 L 90.457011 75.08844 L 88.461784 75.08844 z M 135.99945 75.08844 L 135.99945 77.337398 L 137.99468 77.337398 L 137.99468 75.08844 L 135.99945 75.08844 z M 57.435771 79.017399 C 56.318641 79.017399 55.344483 79.270958 54.513985 79.778076 C 53.690837 80.285194 53.058949 81.005793 52.617977 81.939185 C 52.177005 82.872576 51.956519 83.967485 51.956519 85.224255 C 51.956519 86.444279 52.180507 87.510134 52.628829 88.421476 C 53.07715 89.325469 53.713058 90.023503 54.536206 90.515922 C 55.366704 91.008341 56.340345 91.254378 57.457475 91.254378 C 58.728945 91.254378 59.816848 90.927668 60.720841 90.27356 C 61.632184 89.612102 62.253048 88.689562 62.583777 87.506287 L 60.643844 87.20863 C 60.430707 87.936234 60.048359 88.520523 59.497144 88.961495 C 58.953278 89.402468 58.306346 89.622953 57.556694 89.622953 C 56.873186 89.622953 56.270869 89.468613 55.749052 89.159932 C 55.234584 88.843903 54.826685 88.388404 54.525354 87.793091 C 54.224026 87.190429 54.051139 86.46983 54.007039 85.631982 L 62.76051 85.631982 L 62.76051 85.224255 C 62.76051 83.916038 62.543527 82.795062 62.109904 81.86167 C 61.676282 80.928279 61.058921 80.222723 60.257821 79.745003 C 59.456721 79.259934 58.516153 79.017399 57.435771 79.017399 z M 36.875269 79.281982 L 36.875269 90.978943 L 38.870496 90.978943 L 38.870496 79.281982 L 36.875269 79.281982 z M 40.579435 79.281982 L 45.033427 90.978943 L 46.88551 90.978943 L 51.305912 79.281982 L 49.277612 79.281982 L 46.675704 86.41488 C 46.337625 87.333573 46.09911 88.079723 45.959469 88.652987 L 45.915027 88.652987 C 45.665142 87.726945 45.389535 86.845 45.088204 86.007153 L 42.68525 79.281982 L 40.579435 79.281982 z M 109.02229 79.2887 C 107.90515 79.2887 106.931 79.54226 106.1005 80.049377 C 105.27735 80.556496 104.64547 81.276577 104.20449 82.209969 C 103.76352 83.14336 103.54303 84.238786 103.54303 85.495557 C 103.54303 86.715579 103.76702 87.780918 104.21534 88.692261 C 104.66366 89.596254 105.29958 90.294804 106.12272 90.787223 C 106.95322 91.279642 107.92686 91.52568 109.04399 91.52568 C 110.31546 91.52568 111.40336 91.198453 112.30736 90.544344 C 113.2187 89.882885 113.83957 88.960863 114.17029 87.777588 L 112.23036 87.479932 C 112.01723 88.207536 111.63488 88.791824 111.08366 89.232796 C 110.5398 89.673768 109.89286 89.894255 109.14321 89.894255 C 108.4597 89.894255 107.85738 89.739914 107.33557 89.431234 C 106.82109 89.115203 106.4132 88.659187 106.11187 88.063875 C 105.81051 87.461213 105.63762 86.741131 105.59355 85.903284 L 114.34703 85.903284 L 114.34703 85.495557 C 114.34703 84.187339 114.13004 83.066363 113.69642 82.132971 C 113.26279 81.19958 112.64544 80.494025 111.84434 80.016305 C 111.04324 79.531236 110.10266 79.2887 109.02229 79.2887 z M 156.55944 79.2887 C 155.4423 79.2887 154.46867 79.54226 153.63817 80.049377 C 152.81502 80.556496 152.18313 81.276577 151.74216 82.209969 C 151.30119 83.14336 151.0807 84.238786 151.0807 85.495557 C 151.0807 86.715579 151.30468 87.780918 151.75301 88.692261 C 152.20133 89.596254 152.83724 90.294804 153.66039 90.787223 C 154.49089 91.279642 155.46452 91.52568 156.58166 91.52568 C 157.85312 91.52568 158.94103 91.198453 159.84502 90.544344 C 160.75637 89.882885 161.37723 88.960863 161.70796 87.777588 L 159.76751 87.479932 C 159.55438 88.207536 159.17254 88.791824 158.62133 89.232796 C 158.07746 89.673768 157.43053 89.894255 156.68088 89.894255 C 155.99736 89.894255 155.39453 89.739914 154.87272 89.431234 C 154.35825 89.115203 153.95035 88.659187 153.64902 88.063875 C 153.34766 87.461213 153.17529 86.741131 153.13122 85.903284 L 161.88418 85.903284 L 161.88418 85.495557 C 161.88418 84.187339 161.66771 83.066363 161.23409 82.132971 C 160.80046 81.19958 160.1831 80.494025 159.382 80.016305 C 158.5809 79.531236 157.63981 79.2887 156.55944 79.2887 z M 88.461784 79.553284 L 88.461784 91.250244 L 90.457011 91.250244 L 90.457011 79.553284 L 88.461784 79.553284 z M 92.165951 79.553284 L 96.619942 91.250244 L 98.472026 91.250244 L 102.89243 79.553284 L 100.86413 79.553284 L 98.262219 86.686182 C 97.924141 87.604874 97.685625 88.350508 97.545984 88.923771 L 97.501542 88.923771 C 97.251658 87.99773 96.97605 87.115786 96.674719 86.277938 L 94.271765 79.553284 L 92.165951 79.553284 z M 135.99945 79.553284 L 135.99945 91.250244 L 137.99468 91.250244 L 137.99468 79.553284 L 135.99945 79.553284 z M 139.70362 79.553284 L 144.15709 91.250244 L 146.00918 91.250244 L 150.43009 79.553284 L 148.40179 79.553284 L 145.79989 86.686182 C 145.46181 87.604874 145.22277 88.350508 145.08313 88.923771 L 145.03921 88.923771 C 144.78932 87.99773 144.51372 87.115786 144.21239 86.277938 L 141.80892 79.553284 L 139.70362 79.553284 z M 57.41355 80.637972 C 58.339591 80.637972 59.081722 80.928623 59.640287 81.509237 C 60.206201 82.08985 60.547955 82.920175 60.665548 84.000557 L 54.073185 84.000557 C 54.161379 83.331749 54.356315 82.743959 54.657646 82.236841 C 54.966327 81.729723 55.35568 81.33635 55.82605 81.057068 C 56.29642 80.777785 56.825586 80.637972 57.41355 80.637972 z M 109.00007 80.909273 C 109.9261 80.909273 110.66824 81.199408 111.2268 81.780021 C 111.79272 82.360635 112.13447 83.191476 112.25206 84.271859 L 105.6597 84.271859 C 105.74789 83.603051 105.94283 83.014743 106.24416 82.507625 C 106.55284 82.000507 106.94219 81.607652 107.41257 81.328369 C 107.88293 81.049087 108.4121 80.909273 109.00007 80.909273 z M 156.53773 80.909273 C 157.46377 80.909273 158.2059 81.199408 158.76447 81.780021 C 159.33038 82.360635 159.67214 83.191476 159.78973 84.271859 L 153.19737 84.271859 C 153.28556 83.603051 153.47998 83.014743 153.78131 82.507625 C 154.08999 82.000507 154.47986 81.607652 154.95023 81.328369 C 155.4206 81.049087 155.94977 80.909273 156.53773 80.909273 z M 33.771582 99.095243 C 32.68385 99.095243 31.897622 99.381876 31.412553 99.955139 C 30.934833 100.5284 30.695801 101.30711 30.695801 102.29195 L 30.695801 103.83552 L 28.932084 103.83552 L 28.932084 105.36773 L 30.695801 105.36773 L 30.695801 115.53248 L 32.680176 115.53248 L 32.680176 105.36773 L 34.76377 105.36773 L 34.76377 103.83552 L 32.680176 103.83552 L 32.680176 102.7219 C 32.680176 102.14863 32.768371 101.68963 32.944759 101.3442 C 33.121148 100.99142 33.448374 100.81503 33.926095 100.81503 C 34.249474 100.81503 34.657374 100.88818 35.149792 101.03518 L 35.568888 99.370679 C 35.208761 99.275137 34.889056 99.205489 34.609774 99.161389 C 34.337841 99.117289 34.058214 99.095243 33.771582 99.095243 z M 85.358097 99.366028 C 84.270366 99.366028 83.484138 99.652658 82.999068 100.22592 C 82.521349 100.79918 82.282316 101.57841 82.282316 102.56325 L 82.282316 104.10682 L 80.518599 104.10682 L 80.518599 105.63903 L 82.282316 105.63903 L 82.282316 115.80327 L 84.266691 115.80327 L 84.266691 105.63903 L 86.350285 105.63903 L 86.350285 104.10682 L 84.266691 104.10682 L 84.266691 102.9932 C 84.266691 102.41993 84.354886 101.96041 84.531274 101.61499 C 84.707664 101.26221 85.03489 101.08582 85.51261 101.08582 C 85.83599 101.08582 86.243889 101.15948 86.736308 101.30648 L 87.155404 99.64198 C 86.795276 99.546439 86.475571 99.476274 86.196289 99.432174 C 85.924357 99.388074 85.64473 99.366028 85.358097 99.366028 z M 132.89576 99.366028 C 131.80803 99.366028 131.02181 99.652658 130.53674 100.22592 C 130.05902 100.79918 129.81998 101.57841 129.81998 102.56325 L 129.81998 104.10682 L 128.05627 104.10682 L 128.05627 105.63903 L 129.81998 105.63903 L 129.81998 115.80327 L 131.80436 115.80327 L 131.80436 105.63903 L 133.88795 105.63903 L 133.88795 104.10682 L 131.80436 104.10682 L 131.80436 102.9932 C 131.80436 102.41993 131.89255 101.96041 132.06894 101.61499 C 132.24533 101.26221 132.57256 101.08582 133.05028 101.08582 C 133.37366 101.08582 133.78156 101.15948 134.27397 101.30648 L 134.69255 99.64198 C 134.33243 99.546439 134.01272 99.476274 133.73344 99.432174 C 133.46151 99.388074 133.1824 99.366028 132.89576 99.366028 z M 36.450488 99.370679 L 36.450488 101.61964 L 38.446232 101.61964 L 38.446232 99.370679 L 36.450488 99.370679 z M 88.037004 99.64198 L 88.037004 101.89094 L 90.032747 101.89094 L 90.032747 99.64198 L 88.037004 99.64198 z M 135.57467 99.64198 L 135.57467 101.89094 L 137.5699 101.89094 L 137.5699 99.64198 L 135.57467 99.64198 z M 57.01099 103.57094 C 55.893861 103.57094 54.92022 103.8245 54.089722 104.33162 C 53.266574 104.83874 52.634169 105.55882 52.193197 106.49221 C 51.752224 107.4256 51.531738 108.52103 51.531738 109.7778 C 51.531738 110.99782 51.756244 112.06315 52.204565 112.9745 C 52.652887 113.87849 53.288277 114.57704 54.111426 115.06946 C 54.941924 115.56187 55.916082 115.80792 57.033211 115.80792 C 58.304681 115.80792 59.392069 115.48069 60.296061 114.82658 C 61.207404 114.16512 61.828784 113.2431 62.159513 112.05983 L 60.219063 111.76217 C 60.005927 112.48978 59.623579 113.07406 59.072363 113.51503 C 58.528498 113.95601 57.882083 114.17649 57.13243 114.17649 C 56.448923 114.17649 55.846088 114.02216 55.324272 113.71347 C 54.809803 113.39745 54.401905 112.94143 54.100574 112.34611 C 53.799239 111.74345 53.626352 111.02337 53.582259 110.18552 L 62.33573 110.18552 L 62.33573 109.7778 C 62.33573 108.46958 62.118747 107.3486 61.685124 106.41521 C 61.251501 105.48182 60.63414 104.77626 59.83304 104.29854 C 59.031941 103.81347 58.091373 103.57094 57.01099 103.57094 z M 36.450488 103.83552 L 36.450488 115.53248 L 38.446232 115.53248 L 38.446232 103.83552 L 36.450488 103.83552 z M 40.154655 103.83552 L 44.608647 115.53248 L 46.46073 115.53248 L 50.881649 103.83552 L 48.852832 103.83552 L 46.25144 110.96842 C 45.913361 111.88711 45.67433 112.63274 45.534688 113.20601 L 45.490763 113.20601 C 45.240879 112.27996 44.965271 111.39802 44.66394 110.56018 L 42.26047 103.83552 L 40.154655 103.83552 z M 108.59751 103.84224 C 107.48037 103.84224 106.50674 104.0958 105.67624 104.60292 C 104.85309 105.11004 104.22068 105.83012 103.77971 106.76351 C 103.33874 107.69689 103.11825 108.79181 103.11825 110.04858 C 103.11825 111.26861 103.34276 112.33446 103.79108 113.2458 C 104.23941 114.1498 104.8748 114.84783 105.69794 115.34025 C 106.52844 115.83267 107.50259 116.07922 108.61973 116.07922 C 109.89119 116.07922 110.97858 115.75199 111.88258 115.09788 C 112.79392 114.43642 113.4153 113.51388 113.74603 112.33061 L 111.80558 112.03295 C 111.59245 112.76056 111.2101 113.34485 110.65888 113.78582 C 110.11501 114.22679 109.4686 114.44728 108.71895 114.44728 C 108.03544 114.44728 107.4326 114.29294 106.91079 113.98426 C 106.39631 113.66823 105.98842 113.21273 105.68709 112.61742 C 105.38572 112.01475 105.21284 111.29467 105.16877 110.45682 L 113.92225 110.45682 L 113.92225 110.04858 C 113.92225 108.74036 113.70526 107.6199 113.27164 106.68651 C 112.83801 105.75312 112.22065 105.04756 111.41956 104.56984 C 110.61846 104.08477 109.67788 103.84224 108.59751 103.84224 z M 156.13517 103.84224 C 155.01804 103.84224 154.04389 104.0958 153.21339 104.60292 C 152.39024 105.11004 151.75835 105.83012 151.31738 106.76351 C 150.87641 107.69689 150.65592 108.79181 150.65592 110.04858 C 150.65592 111.26861 150.87991 112.33446 151.32823 113.2458 C 151.77656 114.1498 152.41246 114.84783 153.23561 115.34025 C 154.06611 115.83267 155.03974 116.07922 156.15688 116.07922 C 157.42834 116.07922 158.51625 115.75199 159.42024 115.09788 C 160.33159 114.43642 160.95245 113.51388 161.28318 112.33061 L 159.34325 112.03295 C 159.13011 112.76056 158.74776 113.34485 158.19655 113.78582 C 157.65268 114.22679 157.00575 114.44728 156.2561 114.44728 C 155.57259 114.44728 154.97027 114.29294 154.44845 113.98426 C 153.93398 113.66823 153.52608 113.21273 153.22476 112.61742 C 152.92339 112.01475 152.75051 111.29467 152.70644 110.45682 L 161.45991 110.45682 L 161.45991 110.04858 C 161.45991 108.74036 161.24293 107.6199 160.80931 106.68651 C 160.37568 105.75312 159.75832 105.04756 158.95722 104.56984 C 158.15612 104.08477 157.21555 103.84224 156.13517 103.84224 z M 88.037004 104.10682 L 88.037004 115.80327 L 90.032747 115.80327 L 90.032747 104.10682 L 88.037004 104.10682 z M 91.74117 104.10682 L 96.195162 115.80327 L 98.047245 115.80327 L 102.46816 104.10682 L 100.43935 104.10682 L 97.837956 111.2392 C 97.499877 112.1579 97.260845 112.90405 97.121204 113.47731 L 97.077279 113.47731 C 96.827394 112.55127 96.551787 111.66932 96.250456 110.83148 L 93.846985 104.10682 L 91.74117 104.10682 z M 135.57467 104.10682 L 135.57467 115.80327 L 137.5699 115.80327 L 137.5699 104.10682 L 135.57467 104.10682 z M 139.27884 104.10682 L 143.73283 115.80327 L 145.58491 115.80327 L 150.00531 104.10682 L 147.97701 104.10682 L 145.37511 111.2392 C 145.03703 112.1579 144.79852 112.90405 144.65887 113.47731 L 144.61443 113.47731 C 144.36454 112.55127 144.08894 111.66932 143.78761 110.83148 L 141.38465 104.10682 L 139.27884 104.10682 z M 56.98877 105.19151 C 57.914811 105.19151 58.657459 105.48165 59.216024 106.06226 C 59.781939 106.64287 60.123692 107.47372 60.241284 108.5541 L 53.648405 108.5541 C 53.7366 107.88529 53.931534 107.29698 54.232865 106.78986 C 54.541546 106.28275 54.930899 105.88989 55.40127 105.61061 C 55.87164 105.33133 56.400807 105.19151 56.98877 105.19151 z M 108.57528 105.46281 C 109.50132 105.46281 110.24397 105.75295 110.80254 106.33356 C 111.36845 106.91417 111.71021 107.7445 111.8278 108.82488 L 105.23492 108.82488 C 105.32311 108.15608 105.51805 107.56828 105.81938 107.06117 C 106.12806 106.55405 106.51741 106.16068 106.98778 105.88139 C 107.45815 105.60211 107.98732 105.46281 108.57528 105.46281 z M 156.11295 105.46281 C 157.03899 105.46281 157.78112 105.75295 158.33969 106.33356 C 158.9056 106.91417 159.24736 107.7445 159.36495 108.82488 L 152.77259 108.82488 C 152.86078 108.15608 153.05571 107.56828 153.35705 107.06117 C 153.66573 106.55405 154.05508 106.16068 154.52545 105.88139 C 154.99582 105.60211 155.52499 105.46281 156.11295 105.46281 z " />
    <text
       xml:space="preserve"
       transform="scale(0.26458333)"
       id="text2262"
       style="font-style:normal;font-variant:normal;font-weight:normal;font-stretch:normal;font-size:85.3333px;font-family:'Arial Nova';-inkscape-font-specification:'Arial Nova, Normal';font-variant-ligatures:normal;font-variant-caps:normal;font-variant-numeric:normal;font-variant-east-asian:normal;white-space:pre;shape-inside:url(#rect2264);display:inline;fill:#000000" />
  </g>
</svg>
