<?xml version="1.0" encoding="UTF-8" standalone="no"?>
<!-- Created with Inkscape (http://www.inkscape.org/) -->

<svg
   width="720"
   height="720"
   viewBox="0 0 190.5 190.5"
   version="1.1"
   id="svg5"
   sodipodi:docname="6four.svg"
   inkscape:version="1.2.1 (9c6d41e410, 2022-07-14)"
   xmlns:inkscape="http://www.inkscape.org/namespaces/inkscape"
   xmlns:sodipodi="http://sodipodi.sourceforge.net/DTD/sodipodi-0.dtd"
   xmlns="http://www.w3.org/2000/svg"
   xmlns:svg="http://www.w3.org/2000/svg">
  <sodipodi:namedview
     id="namedview7"
     pagecolor="#ffffff"
     bordercolor="#000000"
     borderopacity="0.25"
     inkscape:showpageshadow="2"
     inkscape:pageopacity="0.0"
     inkscape:pagecheckerboard="0"
     inkscape:deskcolor="#d1d1d1"
     inkscape:document-units="mm"
     showgrid="true"
     inkscape:zoom="1.0255231"
     inkscape:cx="342.75192"
     inkscape:cy="395.89553"
     inkscape:window-width="1520"
     inkscape:window-height="1030"
     inkscape:window-x="10"
     inkscape:window-y="1"
     inkscape:window-maximized="0"
     inkscape:current-layer="layer1">
    <inkscape:grid
       type="xygrid"
       id="grid9"
       spacingx="19.05"
       spacingy="19.05" />
  </sodipodi:namedview>
  <defs
     id="defs2">
    <rect
       x="67.282738"
       y="190.14687"
       width="570.4406"
       height="346.16481"
       id="rect2264" />
  </defs>
  <g
     inkscape:label="Ebene 1"
     inkscape:groupmode="layer"
     id="layer1">
    <path
       id="path2976"
       style="font-size:22.5778px;font-family:'Arial Nova';-inkscape-font-specification:'Arial Nova';stroke-width:0.264583"
       d="M 31.715894 74.541703 C 30.569366 74.541703 29.742543 74.813808 29.235425 75.357674 C 28.728307 75.89419 28.474748 76.739043 28.474748 77.89292 L 28.474748 79.281982 L 26.711031 79.281982 L 26.711031 80.814705 L 28.474748 80.814705 L 28.474748 90.978943 L 30.459123 90.978943 L 30.459123 80.814705 L 32.718933 80.814705 L 32.718933 79.281982 L 30.459123 79.281982 L 30.459123 78.047432 C 30.459123 77.628509 30.488696 77.29778 30.547489 77.055245 C 30.613635 76.812711 30.756951 76.621795 30.977437 76.482153 C 31.197923 76.335163 31.532155 76.261495 31.980477 76.261495 C 32.472896 76.261495 32.983516 76.342168 33.512683 76.503857 L 33.942631 74.817139 C 33.192978 74.6334 32.450847 74.541703 31.715894 74.541703 z M 83.302409 74.813005 C 82.155881 74.813005 81.329058 75.084593 80.82194 75.628459 C 80.314823 76.164975 80.061263 77.010344 80.061263 78.164221 L 80.061263 79.553284 L 78.297546 79.553284 L 78.297546 81.08549 L 80.061263 81.08549 L 80.061263 91.250244 L 82.045638 91.250244 L 82.045638 81.08549 L 84.305448 81.08549 L 84.305448 79.553284 L 82.045638 79.553284 L 82.045638 78.318734 C 82.045638 77.89981 82.075211 77.569081 82.134005 77.326546 C 82.200151 77.084012 82.343467 76.892579 82.563953 76.752938 C 82.784439 76.605947 83.118671 76.532796 83.566992 76.532796 C 84.059412 76.532796 84.570032 76.613469 85.099198 76.775159 L 85.529146 75.08844 C 84.779493 74.904701 84.037362 74.813005 83.302409 74.813005 z M 130.84008 74.813005 C 129.69354 74.813005 128.86673 75.084593 128.35961 75.628459 C 127.85249 76.164975 127.59893 77.010344 127.59893 78.164221 L 127.59893 79.553284 L 125.8347 79.553284 L 125.8347 81.08549 L 127.59893 81.08549 L 127.59893 91.250244 L 129.5833 91.250244 L 129.5833 81.08549 L 131.84312 81.08549 L 131.84312 79.553284 L 129.5833 79.553284 L 129.5833 78.318734 C 129.5833 77.89981 129.61235 77.569081 129.67115 77.326546 C 129.7373 77.084012 129.88062 76.892579 130.1011 76.752938 C 130.32159 76.605947 130.65634 76.532796 131.10466 76.532796 C 131.59708 76.532796 132.1077 76.613469 132.63687 76.775159 L 133.06681 75.08844 C 132.31716 74.904701 131.57503 74.813005 130.84008 74.813005 z M 38.859644 79.017399 C 37.771912 79.017399 36.812798 79.259934 35.9823 79.745003 C 35.159151 80.230073 34.519742 80.932126 34.064071 81.850818 C 33.608399 82.76951 33.380391 83.864419 33.380391 85.135889 C 33.380391 86.444106 33.611902 87.557561 34.074923 88.476253 C 34.545293 89.394945 35.192224 90.089477 36.015373 90.559847 C 36.838521 91.022868 37.786611 91.254378 38.859644 91.254378 C 39.940025 91.254378 40.891618 91.015862 41.714766 90.538143 C 42.545264 90.053073 43.192196 89.351021 43.655216 88.432328 C 44.118237 87.506287 44.349748 86.400353 44.349748 85.114185 C 44.349748 83.820666 44.118237 82.718235 43.655216 81.806893 C 43.199546 80.8882 42.560136 80.193669 41.736987 79.723299 C 40.913839 79.252929 39.954724 79.017399 38.859644 79.017399 z M 64.028133 79.017399 C 63.396073 79.017399 62.855882 79.17174 62.40756 79.48042 C 61.959239 79.7891 61.518266 80.311262 61.084644 81.046216 L 61.084644 79.281982 L 59.23256 79.281982 L 59.23256 90.978943 L 61.216935 90.978943 L 61.216935 84.739014 C 61.216935 83.577787 61.437421 82.673794 61.878394 82.027035 C 62.326715 81.372926 62.973646 81.046216 63.818844 81.046216 C 64.35536 81.046216 64.83641 81.159961 65.262683 81.387797 L 65.946362 79.557935 C 65.630332 79.366847 65.318149 79.230535 65.009469 79.149691 C 64.708138 79.061496 64.380911 79.017399 64.028133 79.017399 z M 46.631779 79.281982 L 46.631779 87.197778 C 46.631779 88.498646 46.973533 89.501858 47.657039 90.207414 C 48.347896 90.90562 49.373156 91.254378 50.732821 91.254378 C 51.482473 91.254378 52.158459 91.093033 52.761121 90.769653 C 53.371132 90.446274 53.885772 89.975731 54.304696 89.35837 L 54.304696 90.978943 L 56.156779 90.978943 L 56.156779 79.281982 L 54.172404 79.281982 L 54.172404 85.808716 C 54.172404 86.70536 54.062161 87.403393 53.841675 87.903162 C 53.621189 88.40293 53.264909 88.799806 52.772489 89.093787 C 52.287421 89.387768 51.717659 89.534587 51.06355 89.534587 C 50.277149 89.534587 49.670812 89.3141 49.244539 88.873128 C 48.825616 88.432156 48.616154 87.785741 48.616154 86.933195 L 48.616154 79.281982 L 46.631779 79.281982 z M 90.446159 79.2887 C 89.358427 79.2887 88.399313 79.531236 87.568815 80.016305 C 86.745667 80.501374 86.106257 81.203427 85.650586 82.122119 C 85.194915 83.040812 84.966907 84.135721 84.966907 85.40719 C 84.966907 86.715408 85.198417 87.828863 85.661438 88.747555 C 86.131808 89.666247 86.77874 90.360778 87.601888 90.831148 C 88.425037 91.294169 89.373127 91.52568 90.446159 91.52568 C 91.526541 91.52568 92.478134 91.286647 93.301282 90.808927 C 94.13178 90.323858 94.778711 89.622322 95.241732 88.70363 C 95.704753 87.777588 95.936263 86.671138 95.936263 85.384969 C 95.936263 84.09145 95.704753 82.98902 95.241732 82.077677 C 94.78606 81.158985 94.14665 80.464454 93.323503 79.994084 C 92.500354 79.523713 91.54124 79.2887 90.446159 79.2887 z M 115.61465 79.2887 C 114.98259 79.2887 114.4424 79.443041 113.99408 79.751721 C 113.54575 80.060402 113.10478 80.582046 112.67116 81.317 L 112.67116 79.553284 L 110.81908 79.553284 L 110.81908 91.250244 L 112.80345 91.250244 L 112.80345 85.010315 C 112.80345 83.849088 113.02394 82.945095 113.46491 82.298336 C 113.91323 81.644227 114.56016 81.317 115.40536 81.317 C 115.94187 81.317 116.42293 81.431263 116.8492 81.659098 L 117.53288 79.828719 C 117.21685 79.637631 116.90466 79.501837 116.59598 79.420992 C 116.29465 79.332798 115.96743 79.2887 115.61465 79.2887 z M 137.98383 79.2887 C 136.89609 79.2887 135.93697 79.531236 135.10648 80.016305 C 134.28333 80.501374 133.64392 81.203427 133.18825 82.122119 C 132.73258 83.040812 132.50457 84.135721 132.50457 85.40719 C 132.50457 86.715408 132.73609 87.828863 133.1991 88.747555 C 133.66948 89.666247 134.31641 90.360778 135.13955 90.831148 C 135.9627 91.294169 136.91079 91.52568 137.98383 91.52568 C 139.06421 91.52568 140.0158 91.286647 140.83895 90.808927 C 141.66945 90.323858 142.31638 89.622322 142.7794 88.70363 C 143.24242 87.777588 143.47393 86.671138 143.47393 85.384969 C 143.47393 84.09145 143.24242 82.98902 142.7794 82.077677 C 142.32373 81.158985 141.68432 80.464454 140.86117 79.994084 C 140.03802 79.523713 139.07891 79.2887 137.98383 79.2887 z M 163.15232 79.2887 C 162.52026 79.2887 161.98007 79.443041 161.53174 79.751721 C 161.08342 80.060402 160.64245 80.582046 160.20883 81.317 L 160.20883 79.553284 L 158.35674 79.553284 L 158.35674 91.250244 L 160.34112 91.250244 L 160.34112 85.010315 C 160.34112 83.849088 160.5616 82.945095 161.00258 82.298336 C 161.4509 81.644227 162.09731 81.317 162.94251 81.317 C 163.47902 81.317 163.96059 81.431263 164.38687 81.659098 L 165.07054 79.828719 C 164.75451 79.637631 164.44181 79.501837 164.13313 79.420992 C 163.83181 79.332798 163.50509 79.2887 163.15232 79.2887 z M 98.218294 79.553284 L 98.218294 87.468563 C 98.218294 88.769431 98.560047 89.772643 99.243555 90.478198 C 99.934414 91.176404 100.95968 91.52568 102.31934 91.52568 C 103.06899 91.52568 103.74497 91.363818 104.34764 91.040438 C 104.95765 90.717058 105.47229 90.247032 105.89121 89.629671 L 105.89121 91.250244 L 107.74329 91.250244 L 107.74329 79.553284 L 105.75892 79.553284 L 105.75892 86.0795 C 105.75892 86.976143 105.64868 87.674694 105.42819 88.174463 C 105.2077 88.674231 104.85142 89.071106 104.359 89.365088 C 103.87394 89.65907 103.30418 89.805888 102.65007 89.805888 C 101.86367 89.805888 101.25733 89.585402 100.83105 89.14443 C 100.41214 88.703457 100.20267 88.056526 100.20267 87.203979 L 100.20267 79.553284 L 98.218294 79.553284 z M 145.75596 79.553284 L 145.75596 87.468563 C 145.75596 88.769431 146.09772 89.772643 146.78122 90.478198 C 147.47207 91.176404 148.49734 91.52568 149.857 91.52568 C 150.60666 91.52568 151.28264 91.363818 151.8853 91.040438 C 152.49531 90.717058 153.00995 90.247032 153.42888 89.629671 L 153.42888 91.250244 L 155.28096 91.250244 L 155.28096 79.553284 L 153.29659 79.553284 L 153.29659 86.0795 C 153.29659 86.976143 153.18634 87.674694 152.96586 88.174463 C 152.74537 88.674231 152.38857 89.071106 151.89615 89.365088 C 151.41109 89.65907 150.84184 89.805888 150.18773 89.805888 C 149.40133 89.805888 148.79499 89.585402 148.36872 89.14443 C 147.9498 88.703457 147.74034 88.056526 147.74034 87.203979 L 147.74034 79.553284 L 145.75596 79.553284 z M 38.848792 80.649341 C 39.532299 80.649341 40.134616 80.82171 40.656433 81.167139 C 41.178251 81.505217 41.58615 82.008833 41.880131 82.677641 C 42.174113 83.346449 42.321448 84.158745 42.321448 85.114185 C 42.321448 86.062275 42.178132 86.874054 41.8915 87.550212 C 41.612217 88.226369 41.211324 88.741009 40.689506 89.093787 C 40.167689 89.446565 39.55785 89.622953 38.859644 89.622953 C 38.183486 89.622953 37.584671 89.454086 37.062854 89.116007 C 36.548387 88.770579 36.14399 88.263461 35.850008 87.594653 C 35.556026 86.918496 35.409208 86.098678 35.409208 85.135889 C 35.409208 84.173099 35.556026 83.357301 35.850008 82.688493 C 36.151339 82.012336 36.559239 81.505217 37.073706 81.167139 C 37.595524 80.82171 38.187333 80.649341 38.848792 80.649341 z M 90.435307 80.920125 C 91.118813 80.920125 91.721131 81.093012 92.242948 81.43844 C 92.764765 81.776519 93.172665 82.280134 93.466646 82.948942 C 93.760628 83.61775 93.907963 84.429529 93.907963 85.384969 C 93.907963 86.333059 93.764648 87.145356 93.478015 87.821513 C 93.198733 88.49767 92.797838 89.01231 92.276021 89.365088 C 91.754204 89.717866 91.144365 89.894255 90.446159 89.894255 C 89.770002 89.894255 89.171187 89.72487 88.649369 89.386792 C 88.134902 89.041364 87.730504 88.534246 87.436523 87.865438 C 87.142542 87.189281 86.995723 86.36998 86.995723 85.40719 C 86.995723 84.444401 87.142542 83.628602 87.436523 82.959794 C 87.737854 82.283637 88.145754 81.776519 88.660221 81.43844 C 89.182038 81.093012 89.773848 80.920125 90.435307 80.920125 z M 137.97246 80.920125 C 138.65596 80.920125 139.2588 81.093012 139.78062 81.43844 C 140.30243 81.776519 140.71033 82.280134 141.00431 82.948942 C 141.29829 83.61775 141.44511 84.429529 141.44511 85.384969 C 141.44511 86.333059 141.3018 87.145356 141.01517 87.821513 C 140.73589 88.49767 140.33551 89.01231 139.81369 89.365088 C 139.29187 89.717866 138.68203 89.894255 137.98383 89.894255 C 137.30767 89.894255 136.70834 89.72487 136.18652 89.386792 C 135.67205 89.041364 135.26818 88.534246 134.97419 87.865438 C 134.68021 87.189281 134.53287 86.36998 134.53287 85.40719 C 134.53287 84.444401 134.68021 83.628602 134.97419 82.959794 C 135.27552 82.283637 135.68342 81.776519 136.19789 81.43844 C 136.71971 81.093012 137.311 80.920125 137.97246 80.920125 z M 31.291113 99.095243 C 30.144586 99.095243 29.317763 99.366832 28.810645 99.910697 C 28.303526 100.44722 28.049967 101.29259 28.049967 102.44646 L 28.049967 103.83552 L 26.286251 103.83552 L 26.286251 105.36773 L 28.049967 105.36773 L 28.049967 115.53248 L 30.034342 115.53248 L 30.034342 105.36773 L 32.29467 105.36773 L 32.29467 103.83552 L 30.034342 103.83552 L 30.034342 102.60097 C 30.034342 102.18205 30.063909 101.85132 30.122709 101.60878 C 30.188854 101.36625 30.332171 101.17482 30.552657 101.03518 C 30.773143 100.88818 31.107374 100.81503 31.555697 100.81503 C 32.048115 100.81503 32.559253 100.8957 33.08842 101.0574 L 33.518368 99.370679 C 32.768715 99.18694 32.026067 99.095243 31.291113 99.095243 z M 82.877629 99.366028 C 81.731101 99.366028 80.904278 99.638133 80.39716 100.182 C 79.890042 100.71851 79.636483 101.56388 79.636483 102.71776 L 79.636483 104.10682 L 77.872766 104.10682 L 77.872766 105.63903 L 79.636483 105.63903 L 79.636483 115.80327 L 81.620858 115.80327 L 81.620858 105.63903 L 83.881185 105.63903 L 83.881185 104.10682 L 81.620858 104.10682 L 81.620858 102.87176 C 81.620858 102.45284 81.650431 102.12211 81.709224 101.87957 C 81.77537 101.63704 81.918686 101.44612 82.139172 101.30648 C 82.359658 101.15948 82.69389 101.08582 83.142212 101.08582 C 83.634631 101.08582 84.145768 101.16701 84.674935 101.3287 L 85.104883 99.64198 C 84.35523 99.458241 83.612583 99.366028 82.877629 99.366028 z M 130.4153 99.366028 C 129.26877 99.366028 128.44195 99.638133 127.93483 100.182 C 127.42771 100.71851 127.17415 101.56388 127.17415 102.71776 L 127.17415 104.10682 L 125.41043 104.10682 L 125.41043 105.63903 L 127.17415 105.63903 L 127.17415 115.80327 L 129.15852 115.80327 L 129.15852 105.63903 L 131.41833 105.63903 L 131.41833 104.10682 L 129.15852 104.10682 L 129.15852 102.87176 C 129.15852 102.45284 129.18809 102.12211 129.24689 101.87957 C 129.31304 101.63704 129.45635 101.44612 129.67684 101.30648 C 129.89733 101.15948 130.23155 101.08582 130.67988 101.08582 C 131.17229 101.08582 131.68291 101.16701 132.21208 101.3287 L 132.64203 99.64198 C 131.89238 99.458241 131.15025 99.366028 130.4153 99.366028 z M 38.434863 103.57094 C 37.347132 103.57094 36.388017 103.81347 35.55752 104.29854 C 34.734371 104.78361 34.094961 105.48567 33.63929 106.40436 C 33.183619 107.32305 32.956128 108.41796 32.956128 109.68943 C 32.956128 110.99765 33.187638 112.1111 33.650659 113.02979 C 34.121029 113.94849 34.767444 114.64302 35.590592 115.11339 C 36.41374 115.57641 37.36183 115.80792 38.434863 115.80792 C 39.515245 115.80792 40.467354 115.56889 41.290503 115.09117 C 42.121 114.6061 42.767415 113.90456 43.230436 112.98587 C 43.693457 112.05983 43.924967 110.95338 43.924967 109.66721 C 43.924967 108.37369 43.693457 107.27126 43.230436 106.35992 C 42.774765 105.44122 42.135356 104.7467 41.312207 104.27632 C 40.489059 103.80595 39.529944 103.57094 38.434863 103.57094 z M 63.603353 103.57094 C 62.971293 103.57094 62.431102 103.72528 61.98278 104.03396 C 61.534458 104.34265 61.093486 104.86429 60.659863 105.59924 L 60.659863 103.83552 L 58.80778 103.83552 L 58.80778 115.53248 L 60.792155 115.53248 L 60.792155 109.29255 C 60.792155 108.13133 61.012641 107.22733 61.453613 106.58057 C 61.901935 105.92647 62.548866 105.59924 63.394063 105.59924 C 63.930579 105.59924 64.412147 105.7135 64.83842 105.94134 L 65.521582 104.11096 C 65.205552 103.91987 64.893369 103.78407 64.584688 103.70323 C 64.283357 103.61503 63.956131 103.57094 63.603353 103.57094 z M 46.206999 103.83552 L 46.206999 111.7508 C 46.206999 113.05167 46.548752 114.05488 47.232259 114.76044 C 47.923116 115.45864 48.948376 115.80792 50.30804 115.80792 C 51.057693 115.80792 51.734195 115.64605 52.336857 115.32268 C 52.946868 114.9993 53.460992 114.52928 53.879915 113.91191 L 53.879915 115.53248 L 55.731999 115.53248 L 55.731999 103.83552 L 53.747624 103.83552 L 53.747624 110.36174 C 53.747624 111.25838 53.637381 111.95694 53.416895 112.4567 C 53.196409 112.95647 52.840129 113.35335 52.347709 113.64733 C 51.86264 113.94131 51.292878 114.08813 50.63877 114.08813 C 49.852369 114.08813 49.246032 113.86764 48.819759 113.42667 C 48.400836 112.9857 48.191374 112.33876 48.191374 111.48622 L 48.191374 103.83552 L 46.206999 103.83552 z M 90.021379 103.84224 C 88.933647 103.84224 87.974533 104.08477 87.144035 104.56984 C 86.320886 105.05491 85.681477 105.75645 85.225806 106.67514 C 84.770134 107.59383 84.542643 108.68926 84.542643 109.96073 C 84.542643 111.26895 84.774154 112.3824 85.237174 113.30109 C 85.707545 114.21979 86.353959 114.91432 87.177108 115.38469 C 88.000256 115.84771 88.948346 116.07922 90.021379 116.07922 C 91.10176 116.07922 92.05387 115.84019 92.877018 115.36247 C 93.707515 114.8774 94.353931 114.17535 94.816951 113.25665 C 95.279972 112.33061 95.511483 111.22468 95.511483 109.93851 C 95.511483 108.64499 95.279972 107.54256 94.816951 106.63122 C 94.361281 105.71253 93.721871 105.018 92.898722 104.54762 C 92.075574 104.07725 91.116459 103.84224 90.021379 103.84224 z M 115.18987 103.84224 C 114.55781 103.84224 114.01761 103.99658 113.5693 104.30526 C 113.12097 104.61395 112.68 105.13559 112.24638 105.87054 L 112.24638 104.10682 L 110.3943 104.10682 L 110.3943 115.80327 L 112.37867 115.80327 L 112.37867 109.56385 C 112.37867 108.40263 112.59916 107.49864 113.04013 106.85188 C 113.48845 106.19777 114.13538 105.87054 114.98058 105.87054 C 115.51709 105.87054 115.99866 105.98429 116.42493 106.21212 L 117.1081 104.38226 C 116.79207 104.19117 116.47988 104.05538 116.1712 103.97453 C 115.86987 103.88634 115.54265 103.84224 115.18987 103.84224 z M 137.55905 103.84224 C 136.47131 103.84224 135.5122 104.08477 134.6817 104.56984 C 133.85856 105.05491 133.21915 105.75645 132.76347 106.67514 C 132.3078 107.59383 132.07979 108.68926 132.07979 109.96073 C 132.07979 111.26895 132.3113 112.3824 132.77432 113.30109 C 133.24469 114.21979 133.89162 114.91432 134.71477 115.38469 C 135.53792 115.84771 136.48601 116.07922 137.55905 116.07922 C 138.63942 116.07922 139.59102 115.84019 140.41417 115.36247 C 141.24466 114.8774 141.89159 114.17535 142.35462 113.25665 C 142.81764 112.33061 143.04915 111.22468 143.04915 109.93851 C 143.04915 108.64499 142.81764 107.54256 142.35462 106.63122 C 141.89895 105.71253 141.25954 105.018 140.43639 104.54762 C 139.61324 104.07725 138.65412 103.84224 137.55905 103.84224 z M 162.72753 103.84224 C 162.09547 103.84224 161.55528 103.99658 161.10696 104.30526 C 160.65864 104.61395 160.21767 105.13559 159.78405 105.87054 L 159.78405 104.10682 L 157.93196 104.10682 L 157.93196 115.80327 L 159.91634 115.80327 L 159.91634 109.56385 C 159.91634 108.40263 160.13682 107.49864 160.5778 106.85188 C 161.02612 106.19777 161.67305 105.87054 162.51825 105.87054 C 163.05476 105.87054 163.53581 105.98429 163.96208 106.21212 L 164.64576 104.38226 C 164.32973 104.19117 164.01755 104.05538 163.70887 103.97453 C 163.40754 103.88634 163.08031 103.84224 162.72753 103.84224 z M 97.793514 104.10682 L 97.793514 112.0221 C 97.793514 113.32297 98.135268 114.32619 98.818774 115.03174 C 99.509631 115.72994 100.53489 116.07922 101.89456 116.07922 C 102.64421 116.07922 103.32071 115.91736 103.92337 115.59398 C 104.53339 115.2706 105.04751 114.80005 105.46643 114.18269 L 105.46643 115.80327 L 107.31851 115.80327 L 107.31851 104.10682 L 105.33414 104.10682 L 105.33414 110.63304 C 105.33414 111.52969 105.2239 112.22772 105.00341 112.72749 C 104.78292 113.22726 104.42664 113.62413 103.93422 113.91811 C 103.44916 114.21209 102.8794 114.35943 102.22528 114.35943 C 101.43889 114.35943 100.83255 114.13894 100.40627 113.69797 C 99.987351 113.257 99.777889 112.61007 99.777889 111.75752 L 99.777889 104.10682 L 97.793514 104.10682 z M 145.33118 104.10682 L 145.33118 112.0221 C 145.33118 113.32297 145.67294 114.32619 146.35644 115.03174 C 147.0473 115.72994 148.07256 116.07922 149.43222 116.07922 C 150.18188 116.07922 150.85786 115.91736 151.46052 115.59398 C 152.07054 115.2706 152.58517 114.80005 153.0041 114.18269 L 153.0041 115.80327 L 154.85618 115.80327 L 154.85618 104.10682 L 152.87181 104.10682 L 152.87181 110.63304 C 152.87181 111.52969 152.76156 112.22772 152.54108 112.72749 C 152.32059 113.22726 151.96431 113.62413 151.47189 113.91811 C 150.98682 114.21209 150.41706 114.35943 149.76295 114.35943 C 148.97655 114.35943 148.37021 114.13894 147.94394 113.69797 C 147.52501 113.257 147.31556 112.61007 147.31556 111.75752 L 147.31556 104.10682 L 145.33118 104.10682 z M 38.424011 105.20236 C 39.107519 105.20236 39.710353 105.37525 40.23217 105.72068 C 40.753987 106.05875 41.161886 106.56237 41.455868 107.23118 C 41.749849 107.89999 41.896667 108.71177 41.896667 109.66721 C 41.896667 110.6153 41.753351 111.4276 41.46672 112.10375 C 41.187437 112.77991 40.78706 113.29455 40.265243 113.64733 C 39.743426 114.00011 39.133069 114.17649 38.434863 114.17649 C 37.758705 114.17649 37.159891 114.00711 36.638074 113.66903 C 36.123606 113.3236 35.71921 112.81648 35.425228 112.14768 C 35.131246 111.47152 34.984428 110.65221 34.984428 109.68943 C 34.984428 108.72664 35.131246 107.91084 35.425228 107.24203 C 35.726559 106.56587 36.134458 106.05875 36.648926 105.72068 C 37.170743 105.37525 37.762553 105.20236 38.424011 105.20236 z M 90.010527 105.47367 C 90.694034 105.47367 91.296868 105.64655 91.818685 105.99198 C 92.340502 106.33006 92.748402 106.83315 93.042383 107.50197 C 93.336365 108.17077 93.483183 108.98307 93.483183 109.93851 C 93.483183 110.8866 93.339867 111.6989 93.053235 112.37505 C 92.773952 113.05121 92.373575 113.56533 91.851758 113.91811 C 91.329941 114.27089 90.719585 114.44728 90.021379 114.44728 C 89.345221 114.44728 88.746406 114.27841 88.224589 113.94033 C 87.710122 113.5949 87.305725 113.08778 87.011743 112.41898 C 86.717761 111.74282 86.570943 110.92352 86.570943 109.96073 C 86.570943 108.99794 86.717761 108.18214 87.011743 107.51333 C 87.313074 106.83717 87.720974 106.33006 88.235441 105.99198 C 88.757259 105.64655 89.349069 105.47367 90.010527 105.47367 z M 137.54819 105.47367 C 138.23171 105.47367 138.83402 105.64655 139.35583 105.99198 C 139.87765 106.33006 140.28555 106.83315 140.57953 107.50197 C 140.87351 108.17077 141.02085 108.98307 141.02085 109.93851 C 141.02085 110.8866 140.87753 111.6989 140.5909 112.37505 C 140.31162 113.05121 139.91072 113.56533 139.38891 113.91811 C 138.86709 114.27089 138.25725 114.44728 137.55905 114.44728 C 136.88289 114.44728 136.28407 114.27841 135.76226 113.94033 C 135.24778 113.5949 134.84339 113.08778 134.54941 112.41898 C 134.25543 111.74282 134.10861 110.92352 134.10861 109.96073 C 134.10861 108.99794 134.25543 108.18214 134.54941 107.51333 C 134.85074 106.83717 135.25864 106.33006 135.77311 105.99198 C 136.29493 105.64655 136.88674 105.47367 137.54819 105.47367 z " />
    <text
       xml:space="preserve"
       transform="scale(0.26458333)"
       id="text2262"
       style="font-style:normal;font-variant:normal;font-weight:normal;font-stretch:normal;font-size:85.3333px;font-family:'Arial Nova';-inkscape-font-specification:'Arial Nova, Normal';font-variant-ligatures:normal;font-variant-caps:normal;font-variant-numeric:normal;font-variant-east-asian:normal;white-space:pre;shape-inside:url(#rect2264);display:inline;fill:#000000" />
  </g>
</svg>
