<?xml version="1.0" encoding="UTF-8" standalone="no"?>
<!-- Created with Inkscape (http://www.inkscape.org/) -->

<svg
   width="720"
   height="720"
   viewBox="0 0 190.5 190.5"
   version="1.1"
   id="svg5"
   sodipodi:docname="6nine.svg"
   inkscape:version="1.2.1 (9c6d41e410, 2022-07-14)"
   xmlns:inkscape="http://www.inkscape.org/namespaces/inkscape"
   xmlns:sodipodi="http://sodipodi.sourceforge.net/DTD/sodipodi-0.dtd"
   xmlns="http://www.w3.org/2000/svg"
   xmlns:svg="http://www.w3.org/2000/svg">
  <sodipodi:namedview
     id="namedview7"
     pagecolor="#ffffff"
     bordercolor="#000000"
     borderopacity="0.25"
     inkscape:showpageshadow="2"
     inkscape:pageopacity="0.0"
     inkscape:pagecheckerboard="0"
     inkscape:deskcolor="#d1d1d1"
     inkscape:document-units="mm"
     showgrid="true"
     inkscape:zoom="1.0255231"
     inkscape:cx="342.75192"
     inkscape:cy="395.89553"
     inkscape:window-width="1520"
     inkscape:window-height="1030"
     inkscape:window-x="10"
     inkscape:window-y="1"
     inkscape:window-maximized="0"
     inkscape:current-layer="layer1">
    <inkscape:grid
       type="xygrid"
       id="grid9"
       spacingx="19.05"
       spacingy="19.05" />
  </sodipodi:namedview>
  <defs
     id="defs2">
    <rect
       x="67.282738"
       y="190.14687"
       width="570.4406"
       height="346.16481"
       id="rect2264" />
  </defs>
  <g
     inkscape:label="Ebene 1"
     inkscape:groupmode="layer"
     id="layer1">
    <path
       id="path3134"
       style="font-size:22.5778px;font-family:'Arial Nova';-inkscape-font-specification:'Arial Nova';stroke-width:0.264583"
       d="M 38.506694 74.817139 L 38.506694 77.066097 L 40.491069 77.066097 L 40.491069 74.817139 L 38.506694 74.817139 z M 90.093209 75.08844 L 90.093209 77.337398 L 92.077584 77.337398 L 92.077584 75.08844 L 90.093209 75.08844 z M 137.63088 75.08844 L 137.63088 77.337398 L 139.61525 77.337398 L 139.61525 75.08844 L 137.63088 75.08844 z M 31.385164 79.017399 C 30.628162 79.017399 29.937133 79.186783 29.312423 79.524862 C 28.695061 79.862941 28.191962 80.325961 27.802437 80.913924 L 27.802437 79.281982 L 25.950354 79.281982 L 25.950354 90.978943 L 27.934729 90.978943 L 27.934729 84.463578 C 27.934729 83.16271 28.206317 82.21462 28.750183 81.619307 C 29.301399 81.023995 30.069598 80.726339 31.054435 80.726339 C 31.833486 80.726339 32.436321 80.946825 32.862594 81.387797 C 33.288866 81.828769 33.501831 82.475701 33.501831 83.328247 L 33.501831 90.978943 L 35.486206 90.978943 L 35.486206 83.063664 C 35.486206 81.762796 35.14095 80.763086 34.450094 80.06488 C 33.759237 79.366674 32.737479 79.017399 31.385164 79.017399 z M 48.990808 79.017399 C 48.233806 79.017399 47.543294 79.186783 46.918583 79.524862 C 46.301222 79.862941 45.797606 80.325961 45.408081 80.913924 L 45.408081 79.281982 L 43.555998 79.281982 L 43.555998 90.978943 L 45.540373 90.978943 L 45.540373 84.463578 C 45.540373 83.16271 45.812477 82.21462 46.356344 81.619307 C 46.907559 81.023995 47.675241 80.726339 48.660079 80.726339 C 49.43913 80.726339 50.041964 80.946825 50.468237 81.387797 C 50.89451 81.828769 51.107475 82.475701 51.107475 83.328247 L 51.107475 90.978943 L 53.09185 90.978943 L 53.09185 83.063664 C 53.09185 81.762796 52.746593 80.763086 52.055737 80.06488 C 51.364881 79.366674 50.343123 79.017399 48.990808 79.017399 z M 60.853133 79.017399 C 59.736004 79.017399 58.762362 79.270958 57.931864 79.778076 C 57.108716 80.285194 56.476312 81.005793 56.035339 81.939185 C 55.594367 82.872576 55.373881 83.967485 55.373881 85.224255 C 55.373881 86.444279 55.598387 87.510134 56.046708 88.421476 C 56.49503 89.325469 57.130421 90.023503 57.953569 90.515922 C 58.784066 91.008341 59.758224 91.254378 60.875354 91.254378 C 62.146824 91.254378 63.234211 90.927668 64.138204 90.27356 C 65.049546 89.612102 65.670927 88.689562 66.001656 87.506287 L 64.061206 87.20863 C 63.848069 87.936234 63.465721 88.520523 62.914506 88.961495 C 62.37064 89.402468 61.724225 89.622953 60.974573 89.622953 C 60.291065 89.622953 59.688231 89.468613 59.166414 89.159932 C 58.651947 88.843903 58.244048 88.388404 57.942716 87.793091 C 57.641388 87.190429 57.468502 86.46983 57.424402 85.631982 L 66.177873 85.631982 L 66.177873 85.224255 C 66.177873 83.916038 65.960889 82.795062 65.527266 81.86167 C 65.093644 80.928279 64.476282 80.222723 63.675183 79.745003 C 62.874083 79.259934 61.933515 79.017399 60.853133 79.017399 z M 38.506694 79.281982 L 38.506694 90.978943 L 40.491069 90.978943 L 40.491069 79.281982 L 38.506694 79.281982 z M 82.97168 79.2887 C 82.214678 79.2887 81.523649 79.457568 80.898938 79.795646 C 80.281577 80.133725 79.778478 80.596746 79.388953 81.184709 L 79.388953 79.553284 L 77.536869 79.553284 L 77.536869 91.250244 L 79.521244 91.250244 L 79.521244 84.73488 C 79.521244 83.434012 79.792832 82.485921 80.336698 81.890609 C 80.887913 81.295297 81.656112 80.99764 82.640951 80.99764 C 83.420001 80.99764 84.022835 81.218126 84.449109 81.659098 C 84.875382 82.100071 85.088346 82.746486 85.088346 83.599032 L 85.088346 91.250244 L 87.072721 91.250244 L 87.072721 83.334448 C 87.072721 82.03358 86.727466 81.034388 86.036609 80.336182 C 85.345753 79.637976 84.323995 79.2887 82.97168 79.2887 z M 100.57732 79.2887 C 99.820323 79.2887 99.129809 79.457568 98.505098 79.795646 C 97.887737 80.133725 97.384122 80.596746 96.994596 81.184709 L 96.994596 79.553284 L 95.142513 79.553284 L 95.142513 91.250244 L 97.126888 91.250244 L 97.126888 84.73488 C 97.126888 83.434012 97.398993 82.485921 97.942859 81.890609 C 98.494074 81.295297 99.261759 80.99764 100.24659 80.99764 C 101.02565 80.99764 101.62848 81.218126 102.05475 81.659098 C 102.48103 82.100071 102.69399 82.746486 102.69399 83.599032 L 102.69399 91.250244 L 104.67837 91.250244 L 104.67837 83.334448 C 104.67837 82.03358 104.33311 81.034388 103.64225 80.336182 C 102.9514 79.637976 101.92964 79.2887 100.57732 79.2887 z M 112.43965 79.2887 C 111.32252 79.2887 110.34888 79.54226 109.51838 80.049377 C 108.69523 80.556496 108.06283 81.276577 107.62185 82.209969 C 107.18088 83.14336 106.9604 84.238786 106.9604 85.495557 C 106.9604 86.715579 107.1849 87.780918 107.63322 88.692261 C 108.08154 89.596254 108.71694 90.294804 109.54008 90.787223 C 110.37058 91.279642 111.34474 91.52568 112.46187 91.52568 C 113.73333 91.52568 114.82073 91.198453 115.72472 90.544344 C 116.63606 89.882885 117.25745 88.960863 117.58817 87.777588 L 115.64772 87.479932 C 115.43459 88.207536 115.05224 88.791824 114.50102 89.232796 C 113.95716 89.673768 113.31075 89.894255 112.56109 89.894255 C 111.87758 89.894255 111.27474 89.739914 110.75293 89.431234 C 110.23846 89.115203 109.83056 88.659187 109.52923 88.063875 C 109.22787 87.461213 109.05498 86.741131 109.01092 85.903284 L 117.76439 85.903284 L 117.76439 85.495557 C 117.76439 84.187339 117.5474 83.066363 117.11378 82.132971 C 116.68016 81.19958 116.0628 80.494025 115.2617 80.016305 C 114.4606 79.531236 113.52003 79.2887 112.43965 79.2887 z M 130.50935 79.2887 C 129.75234 79.2887 129.06131 79.457568 128.4366 79.795646 C 127.81924 80.133725 127.31562 80.596746 126.9261 81.184709 L 126.9261 79.553284 L 125.07402 79.553284 L 125.07402 91.250244 L 127.05839 91.250244 L 127.05839 84.73488 C 127.05839 83.434012 127.3305 82.485921 127.87437 81.890609 C 128.42558 81.295297 129.19378 80.99764 130.17862 80.99764 C 130.95767 80.99764 131.55999 81.218126 131.98626 81.659098 C 132.41253 82.100071 132.62601 82.746486 132.62601 83.599032 L 132.62601 91.250244 L 134.61039 91.250244 L 134.61039 83.334448 C 134.61039 82.03358 134.26461 81.034388 133.57376 80.336182 C 132.8829 79.637976 131.86166 79.2887 130.50935 79.2887 z M 148.11499 79.2887 C 147.35799 79.2887 146.66696 79.457568 146.04225 79.795646 C 145.42489 80.133725 144.92179 80.596746 144.53226 81.184709 L 144.53226 79.553284 L 142.68018 79.553284 L 142.68018 91.250244 L 144.66455 91.250244 L 144.66455 84.73488 C 144.66455 83.434012 144.93614 82.485921 145.48001 81.890609 C 146.03123 81.295297 146.79943 80.99764 147.78426 80.99764 C 148.56331 80.99764 149.16615 81.218126 149.59242 81.659098 C 150.01869 82.100071 150.23166 82.746486 150.23166 83.599032 L 150.23166 91.250244 L 152.21603 91.250244 L 152.21603 83.334448 C 152.21603 82.03358 151.87078 81.034388 151.17992 80.336182 C 150.48907 79.637976 149.46731 79.2887 148.11499 79.2887 z M 159.97732 79.2887 C 158.86018 79.2887 157.88603 79.54226 157.05553 80.049377 C 156.23238 80.556496 155.60049 81.276577 155.15952 82.209969 C 154.71855 83.14336 154.49806 84.238786 154.49806 85.495557 C 154.49806 86.715579 154.72205 87.780918 155.17037 88.692261 C 155.61869 89.596254 156.2546 90.294804 157.07775 90.787223 C 157.90825 91.279642 158.88189 91.52568 159.99902 91.52568 C 161.27048 91.52568 162.35839 91.198453 163.26239 90.544344 C 164.17373 89.882885 164.7946 88.960863 165.12532 87.777588 L 163.18539 87.479932 C 162.97226 88.207536 162.58991 88.791824 162.03869 89.232796 C 161.49483 89.673768 160.84789 89.894255 160.09824 89.894255 C 159.41473 89.894255 158.81241 89.739914 158.2906 89.431234 C 157.77612 89.115203 157.36822 88.659187 157.0669 88.063875 C 156.76554 87.461213 156.59265 86.741131 156.54858 85.903284 L 165.30205 85.903284 L 165.30205 85.495557 C 165.30205 84.187339 165.08507 83.066363 164.65145 82.132971 C 164.21782 81.19958 163.60046 80.494025 162.79937 80.016305 C 161.99827 79.531236 161.05769 79.2887 159.97732 79.2887 z M 90.093209 79.553284 L 90.093209 91.250244 L 92.077584 91.250244 L 92.077584 79.553284 L 90.093209 79.553284 z M 137.63088 79.553284 L 137.63088 91.250244 L 139.61525 91.250244 L 139.61525 79.553284 L 137.63088 79.553284 z M 60.830912 80.637972 C 61.756954 80.637972 62.499602 80.928623 63.058167 81.509237 C 63.624081 82.08985 63.965834 82.920175 64.083427 84.000557 L 57.490548 84.000557 C 57.578742 83.331749 57.773677 82.743959 58.075008 82.236841 C 58.383688 81.729723 58.773042 81.33635 59.243412 81.057068 C 59.713782 80.777785 60.242949 80.637972 60.830912 80.637972 z M 112.41743 80.909273 C 113.34347 80.909273 114.08612 81.199408 114.64468 81.780021 C 115.21059 82.360635 115.55235 83.191476 115.66994 84.271859 L 109.07706 84.271859 C 109.16526 83.603051 109.36019 83.014743 109.66152 82.507625 C 109.9702 82.000507 110.35955 81.607652 110.82993 81.328369 C 111.30029 81.049087 111.82946 80.909273 112.41743 80.909273 z M 159.95509 80.909273 C 160.88113 80.909273 161.62327 81.199408 162.18183 81.780021 C 162.74774 82.360635 163.0895 83.191476 163.20709 84.271859 L 156.61473 84.271859 C 156.70292 83.603051 156.89786 83.014743 157.19919 82.507625 C 157.50787 82.000507 157.89722 81.607652 158.36759 81.328369 C 158.83796 81.049087 159.36713 80.909273 159.95509 80.909273 z M 38.08243 99.370679 L 38.08243 101.61964 L 40.066805 101.61964 L 40.066805 99.370679 L 38.08243 99.370679 z M 89.668945 99.64198 L 89.668945 101.89094 L 91.65332 101.89094 L 91.65332 99.64198 L 89.668945 99.64198 z M 137.2061 99.64198 L 137.2061 101.89094 L 139.19047 101.89094 L 139.19047 99.64198 L 137.2061 99.64198 z M 30.960384 103.57094 C 30.203382 103.57094 29.51287 103.73981 28.888159 104.07788 C 28.270798 104.41596 27.767182 104.87898 27.377657 105.46695 L 27.377657 103.83552 L 25.525574 103.83552 L 25.525574 115.53248 L 27.509949 115.53248 L 27.509949 109.01712 C 27.509949 107.71625 27.782053 106.76816 28.32592 106.17285 C 28.877135 105.57753 29.644817 105.27988 30.629655 105.27988 C 31.408706 105.27988 32.01154 105.50036 32.437813 105.94134 C 32.864086 106.38231 33.077051 107.02872 33.077051 107.88127 L 33.077051 115.53248 L 35.061426 115.53248 L 35.061426 107.61669 C 35.061426 106.31581 34.716169 105.31663 34.025313 104.61842 C 33.334457 103.92021 32.312699 103.57094 30.960384 103.57094 z M 48.566545 103.57094 C 47.809543 103.57094 47.118514 103.73981 46.493803 104.07788 C 45.876442 104.41596 45.372826 104.87898 44.983301 105.46695 L 44.983301 103.83552 L 43.131217 103.83552 L 43.131217 115.53248 L 45.115592 115.53248 L 45.115592 109.01712 C 45.115592 107.71625 45.387697 106.76816 45.931563 106.17285 C 46.482778 105.57753 47.250977 105.27988 48.235815 105.27988 C 49.014867 105.27988 49.617184 105.50036 50.043457 105.94134 C 50.46973 106.38231 50.683211 107.02872 50.683211 107.88127 L 50.683211 115.53248 L 52.667586 115.53248 L 52.667586 107.61669 C 52.667586 106.31581 52.321814 105.31663 51.630957 104.61842 C 50.940101 103.92021 49.91886 103.57094 48.566545 103.57094 z M 60.428353 103.57094 C 59.311223 103.57094 58.337582 103.8245 57.507084 104.33162 C 56.683936 104.83874 56.052048 105.55882 55.611076 106.49221 C 55.170104 107.4256 54.949618 108.52103 54.949618 109.7778 C 54.949618 110.99782 55.173606 112.06315 55.621928 112.9745 C 56.07025 113.87849 56.706157 114.57704 57.529305 115.06946 C 58.359803 115.56187 59.333444 115.80792 60.450574 115.80792 C 61.722044 115.80792 62.809947 115.48069 63.71394 114.82658 C 64.625283 114.16512 65.246147 113.2431 65.576876 112.05983 L 63.636426 111.76217 C 63.423289 112.48978 63.041457 113.07406 62.490243 113.51503 C 61.946376 113.95601 61.299445 114.17649 60.549792 114.17649 C 59.866285 114.17649 59.263451 114.02216 58.741634 113.71347 C 58.227167 113.39745 57.819267 112.94143 57.517936 112.34611 C 57.216608 111.74345 57.044238 111.02337 57.000138 110.18552 L 65.753092 110.18552 L 65.753092 109.7778 C 65.753092 108.46958 65.536625 107.3486 65.103003 106.41521 C 64.66938 105.48182 64.052019 104.77626 63.25092 104.29854 C 62.44982 103.81347 61.508735 103.57094 60.428353 103.57094 z M 38.08243 103.83552 L 38.08243 115.53248 L 40.066805 115.53248 L 40.066805 103.83552 L 38.08243 103.83552 z M 82.546899 103.84224 C 81.789897 103.84224 81.099385 104.01111 80.474674 104.34919 C 79.857314 104.68727 79.353698 105.15028 78.964172 105.73825 L 78.964172 104.10682 L 77.112089 104.10682 L 77.112089 115.80327 L 79.096464 115.80327 L 79.096464 109.2879 C 79.096464 107.98703 79.368569 107.03894 79.912435 106.44363 C 80.46365 105.84832 81.231333 105.55066 82.21617 105.55066 C 82.995221 105.55066 83.598056 105.77115 84.024329 106.21212 C 84.450602 106.65309 84.663566 107.30003 84.663566 108.15257 L 84.663566 115.80327 L 86.647941 115.80327 L 86.647941 107.88799 C 86.647941 106.58712 86.302685 105.58741 85.611829 104.8892 C 84.920972 104.191 83.899214 103.84224 82.546899 103.84224 z M 100.15306 103.84224 C 99.396059 103.84224 98.705029 104.01111 98.080318 104.34919 C 97.462957 104.68727 96.959342 105.15028 96.569816 105.73825 L 96.569816 104.10682 L 94.717733 104.10682 L 94.717733 115.80327 L 96.702108 115.80327 L 96.702108 109.2879 C 96.702108 107.98703 96.974213 107.03894 97.518079 106.44363 C 98.069294 105.84832 98.837493 105.55066 99.822331 105.55066 C 100.60138 105.55066 101.2037 105.77115 101.62997 106.21212 C 102.05625 106.65309 102.26973 107.30003 102.26973 108.15257 L 102.26973 115.80327 L 104.2541 115.80327 L 104.2541 107.88799 C 104.2541 106.58712 103.90833 105.58741 103.21747 104.8892 C 102.52662 104.191 101.50538 103.84224 100.15306 103.84224 z M 112.01487 103.84224 C 110.89774 103.84224 109.9241 104.0958 109.0936 104.60292 C 108.27045 105.11004 107.63856 105.83012 107.19759 106.76351 C 106.75662 107.69689 106.53613 108.79181 106.53613 110.04858 C 106.53613 111.26861 106.76012 112.33446 107.20844 113.2458 C 107.65677 114.1498 108.29267 114.84783 109.11582 115.34025 C 109.94632 115.83267 110.91996 116.07922 112.03709 116.07922 C 113.30855 116.07922 114.39646 115.75199 115.30046 115.09788 C 116.2118 114.43642 116.83266 113.51388 117.16339 112.33061 L 115.22294 112.03295 C 115.00981 112.76056 114.62798 113.34485 114.07676 113.78582 C 113.53289 114.22679 112.88596 114.44728 112.13631 114.44728 C 111.4528 114.44728 110.84996 114.29294 110.32815 113.98426 C 109.81368 113.66823 109.40578 113.21273 109.10445 112.61742 C 108.80315 112.01475 108.63079 111.29467 108.58665 110.45682 L 117.33961 110.45682 L 117.33961 110.04858 C 117.33961 108.74036 117.12314 107.6199 116.68952 106.68651 C 116.25589 105.75312 115.63853 105.04756 114.83743 104.56984 C 114.03634 104.08477 113.09525 103.84224 112.01487 103.84224 z M 130.08457 103.84224 C 129.32756 103.84224 128.63653 104.01111 128.01182 104.34919 C 127.39447 104.68727 126.89085 105.15028 126.50132 105.73825 L 126.50132 104.10682 L 124.64924 104.10682 L 124.64924 115.80327 L 126.63361 115.80327 L 126.63361 109.2879 C 126.63361 107.98703 126.90572 107.03894 127.44958 106.44363 C 128.0008 105.84832 128.769 105.55066 129.75384 105.55066 C 130.53289 105.55066 131.13572 105.77115 131.562 106.21212 C 131.98827 106.65309 132.20123 107.30003 132.20123 108.15257 L 132.20123 115.80327 L 134.18561 115.80327 L 134.18561 107.88799 C 134.18561 106.58712 133.84035 105.58741 133.1495 104.8892 C 132.45864 104.191 131.43688 103.84224 130.08457 103.84224 z M 147.69021 103.84224 C 146.93321 103.84224 146.2427 104.01111 145.61799 104.34919 C 145.00063 104.68727 144.49701 105.15028 144.10748 105.73825 L 144.10748 104.10682 L 142.2554 104.10682 L 142.2554 115.80327 L 144.23977 115.80327 L 144.23977 109.2879 C 144.23977 107.98703 144.51188 107.03894 145.05575 106.44363 C 145.60696 105.84832 146.37465 105.55066 147.35948 105.55066 C 148.13853 105.55066 148.74137 105.77115 149.16764 106.21212 C 149.59391 106.65309 149.80688 107.30003 149.80688 108.15257 L 149.80688 115.80327 L 151.79125 115.80327 L 151.79125 107.88799 C 151.79125 106.58712 151.446 105.58741 150.75514 104.8892 C 150.06429 104.191 149.04253 103.84224 147.69021 103.84224 z M 159.55253 103.84224 C 158.4354 103.84224 157.46177 104.0958 156.63127 104.60292 C 155.80812 105.11004 155.17571 105.83012 154.73474 106.76351 C 154.29377 107.69689 154.07328 108.79181 154.07328 110.04858 C 154.07328 111.26861 154.29778 112.33446 154.74611 113.2458 C 155.19443 114.1498 155.82982 114.84783 156.65297 115.34025 C 157.48347 115.83267 158.45762 116.07922 159.57476 116.07922 C 160.84622 116.07922 161.93361 115.75199 162.83761 115.09788 C 163.74895 114.43642 164.37033 113.51388 164.70106 112.33061 L 162.76061 112.03295 C 162.54747 112.76056 162.16512 113.34485 161.61391 113.78582 C 161.07004 114.22679 160.42363 114.44728 159.67397 114.44728 C 158.99046 114.44728 158.38763 114.29294 157.86582 113.98426 C 157.35135 113.66823 156.94345 113.21273 156.64212 112.61742 C 156.34076 112.01475 156.16787 111.29467 156.1238 110.45682 L 164.87727 110.45682 L 164.87727 110.04858 C 164.87727 108.74036 164.66029 107.6199 164.22667 106.68651 C 163.79304 105.75312 163.17568 105.04756 162.37458 104.56984 C 161.57349 104.08477 160.63291 103.84224 159.55253 103.84224 z M 89.668945 104.10682 L 89.668945 115.80327 L 91.65332 115.80327 L 91.65332 104.10682 L 89.668945 104.10682 z M 137.2061 104.10682 L 137.2061 115.80327 L 139.19047 115.80327 L 139.19047 104.10682 L 137.2061 104.10682 z M 60.406649 105.19151 C 61.332691 105.19151 62.074821 105.48165 62.633386 106.06226 C 63.1993 106.64287 63.541054 107.47372 63.658647 108.5541 L 57.066284 108.5541 C 57.154479 107.88529 57.348897 107.29698 57.650228 106.78986 C 57.958908 106.28275 58.348779 105.88989 58.819149 105.61061 C 59.289519 105.33133 59.818685 105.19151 60.406649 105.19151 z M 111.99316 105.46281 C 112.9192 105.46281 113.66134 105.75295 114.2199 106.33356 C 114.78581 106.91417 115.12757 107.7445 115.24516 108.82488 L 108.6528 108.82488 C 108.74099 108.15608 108.93541 107.56828 109.23674 107.06117 C 109.54542 106.55405 109.93529 106.16068 110.40566 105.88139 C 110.87603 105.60211 111.4052 105.46281 111.99316 105.46281 z M 159.53031 105.46281 C 160.45635 105.46281 161.199 105.75295 161.75757 106.33356 C 162.32348 106.91417 162.66524 107.7445 162.78283 108.82488 L 156.18995 108.82488 C 156.27814 108.15608 156.47308 107.56828 156.77441 107.06117 C 157.08309 106.55405 157.47244 106.16068 157.94281 105.88139 C 158.41318 105.60211 158.94235 105.46281 159.53031 105.46281 z " />
    <text
       xml:space="preserve"
       transform="scale(0.26458333)"
       id="text2262"
       style="font-style:normal;font-variant:normal;font-weight:normal;font-stretch:normal;font-size:85.3333px;font-family:'Arial Nova';-inkscape-font-specification:'Arial Nova, Normal';font-variant-ligatures:normal;font-variant-caps:normal;font-variant-numeric:normal;font-variant-east-asian:normal;white-space:pre;shape-inside:url(#rect2264);display:inline;fill:#000000" />
  </g>
</svg>
