<?xml version="1.0" encoding="UTF-8" standalone="no"?>
<!-- Created with Inkscape (http://www.inkscape.org/) -->

<svg
   width="720"
   height="720"
   viewBox="0 0 190.5 190.5"
   version="1.1"
   id="svg5"
   sodipodi:docname="79.svg"
   inkscape:version="1.2.1 (9c6d41e410, 2022-07-14)"
   xmlns:inkscape="http://www.inkscape.org/namespaces/inkscape"
   xmlns:sodipodi="http://sodipodi.sourceforge.net/DTD/sodipodi-0.dtd"
   xmlns="http://www.w3.org/2000/svg"
   xmlns:svg="http://www.w3.org/2000/svg">
  <sodipodi:namedview
     id="namedview7"
     pagecolor="#ffffff"
     bordercolor="#000000"
     borderopacity="0.25"
     inkscape:showpageshadow="2"
     inkscape:pageopacity="0.0"
     inkscape:pagecheckerboard="0"
     inkscape:deskcolor="#d1d1d1"
     inkscape:document-units="mm"
     showgrid="true"
     inkscape:zoom="1.0255231"
     inkscape:cx="572.87838"
     inkscape:cy="365.1795"
     inkscape:window-width="1920"
     inkscape:window-height="1001"
     inkscape:window-x="-9"
     inkscape:window-y="-9"
     inkscape:window-maximized="1"
     inkscape:current-layer="layer1">
    <inkscape:grid
       type="xygrid"
       id="grid9"
       spacingx="19.05"
       spacingy="19.05" />
  </sodipodi:namedview>
  <defs
     id="defs2" />
  <g
     inkscape:label="Ebene 1"
     inkscape:groupmode="layer"
     id="layer1">
    <path
       id="path654"
       style="font-size:22.5778px;font-family:'Arial Nova';-inkscape-font-specification:'Arial Nova';stroke-width:0.264583"
       d="m 69.742523,62.712973 c -0.992188,0 -1.874132,0.242535 -2.645834,0.727604 -0.764352,0.48507 -1.359664,1.143025 -1.785937,1.973523 -0.418924,0.830497 -0.628386,1.749017 -0.628386,2.755904 0,0.984838 0.212964,1.874305 0.639238,2.668054 0.426273,0.793751 0.999537,1.418117 1.719792,1.873788 0.727604,0.448322 1.528875,0.672827 2.40347,0.672827 0.830498,0 1.576132,-0.183911 2.23759,-0.551388 0.668808,-0.367477 1.21652,-0.896643 1.642794,-1.5875 h 0.04392 v 0.242363 c 0,1.256771 -0.157843,2.341171 -0.473873,3.252515 -0.31603,0.903993 -0.753499,1.594505 -1.312065,2.072224 -0.558565,0.470371 -1.193956,0.705901 -1.90686,0.705901 -0.734954,0 -1.334286,-0.224506 -1.797306,-0.672828 -0.463021,-0.455671 -0.782726,-1.102086 -0.959115,-1.939933 l -1.962154,0.308508 c 0.124942,0.815799 0.393028,1.521354 0.804602,2.116667 0.418923,0.587963 0.952109,1.039959 1.598869,1.35599 0.654108,0.30868 1.388718,0.463021 2.204516,0.463021 1.881482,0 3.314642,-0.731107 4.299479,-2.193665 0.984838,-1.469907 1.47743,-3.630671 1.47743,-6.482292 0,-2.53559 -0.477548,-4.461341 -1.432988,-5.776908 -0.94809,-1.322917 -2.337153,-1.984375 -4.167187,-1.984375 z m 51.414517,0.107487 c -0.99218,0 -1.87413,0.242535 -2.64583,0.727604 -0.76435,0.48507 -1.35967,1.143025 -1.78594,1.973523 -0.41892,0.830497 -0.62838,1.749017 -0.62838,2.755904 0,0.984838 0.21296,1.874304 0.63923,2.668054 0.42628,0.79375 0.99954,1.418634 1.7198,1.874305 0.7276,0.448322 1.52887,0.67231 2.40347,0.67231 0.83049,0 1.57664,-0.183911 2.2381,-0.551388 0.66882,-0.367477 1.21601,-0.896643 1.64228,-1.5875 h 0.0444 v 0.24288 c 0,1.25677 -0.15836,2.340654 -0.47439,3.251998 -0.31603,0.903993 -0.75298,1.595022 -1.31155,2.072741 -0.55856,0.47037 -1.19447,0.705384 -1.90737,0.705384 -0.73496,0 -1.33377,-0.223989 -1.79679,-0.672311 -0.46302,-0.455671 -0.78273,-1.102602 -0.95912,-1.94045 l -1.96267,0.308508 c 0.12494,0.815799 0.39355,1.521354 0.80512,2.116667 0.41893,0.587963 0.95159,1.039959 1.59835,1.35599 0.65411,0.30868 1.38924,0.46302 2.20504,0.46302 1.88148,0 3.31464,-0.731106 4.29947,-2.193664 0.98484,-1.469907 1.47692,-3.630671 1.47692,-6.482292 0,-2.53559 -0.47754,-4.461341 -1.43299,-5.776908 -0.94809,-1.322917 -2.33715,-1.984375 -4.16719,-1.984375 z m -51.392813,1.513086 c 0.62471,0 1.18695,0.172887 1.686719,0.518314 0.499768,0.338079 0.89314,0.8011 1.179772,1.389063 0.286632,0.580613 0.429948,1.216004 0.429948,1.90686 0,0.668808 -0.146818,1.271643 -0.4408,1.808159 -0.286631,0.536516 -0.676502,0.955439 -1.16892,1.256771 -0.49242,0.293981 -1.025089,0.440799 -1.598353,0.440799 -0.610012,0 -1.153705,-0.15032 -1.631424,-0.451652 -0.477721,-0.30868 -0.849045,-0.735125 -1.113628,-1.278991 -0.264583,-0.551216 -0.396875,-1.179601 -0.396875,-1.885156 0,-0.676158 0.128789,-1.297021 0.386023,-1.862936 0.264583,-0.565914 0.628386,-1.014408 1.091407,-1.345137 0.47037,-0.330729 0.995517,-0.496094 1.576131,-0.496094 z m 51.415033,0.107487 c 0.62472,0 1.18696,0.172887 1.68672,0.518314 0.49977,0.338079 0.89263,0.8011 1.17926,1.389063 0.28663,0.580613 0.42995,1.21652 0.42995,1.907377 0,0.668808 -0.14682,1.271126 -0.4408,1.807642 -0.28664,0.536516 -0.67599,0.955439 -1.16841,1.25677 -0.49242,0.293982 -1.02561,0.441317 -1.59887,0.441317 -0.61001,0 -1.1537,-0.150838 -1.63142,-0.452169 -0.47772,-0.30868 -0.84904,-0.735125 -1.11363,-1.278991 -0.26458,-0.551216 -0.39687,-1.179601 -0.39687,-1.885157 0,-0.676157 0.12879,-1.297021 0.38602,-1.862935 0.26458,-0.565915 0.62839,-1.014408 1.09141,-1.345137 0.47037,-0.330729 0.99603,-0.496094 1.57664,-0.496094 z M 45.361065,86.964206 c -0.992188,0 -1.874132,0.242534 -2.645833,0.727604 -0.764352,0.48507 -1.359664,1.142508 -1.785938,1.973006 -0.418923,0.830497 -0.628385,1.749534 -0.628385,2.756421 0,0.984838 0.212964,1.874304 0.639237,2.668054 0.426273,0.793751 0.999537,1.418117 1.719792,1.873788 0.727604,0.448322 1.528876,0.672827 2.403471,0.672827 0.830498,0 1.576648,-0.183911 2.238106,-0.551388 0.668808,-0.367477 1.216004,-0.896643 1.642277,-1.5875 h 0.04444 v 0.242363 c 0,1.256771 -0.158359,2.341171 -0.47439,3.252514 -0.316029,0.903988 -0.752982,1.594505 -1.311548,2.072235 -0.558564,0.47037 -1.194472,0.7059 -1.907377,0.7059 -0.734954,0 -1.333768,-0.22451 -1.796789,-0.67283 -0.463021,-0.45568 -0.782726,-1.102097 -0.959115,-1.93994 l -1.962671,0.308508 c 0.124942,0.815802 0.393545,1.521352 0.805119,2.116672 0.418924,0.58797 0.951593,1.03997 1.598352,1.356 0.654109,0.30868 1.389234,0.46302 2.205034,0.46302 1.881481,0 3.314641,-0.73111 4.299479,-2.19367 0.984838,-1.469917 1.476912,-3.63068 1.476912,-6.482301 0,-2.53559 -0.477547,-4.461341 -1.432987,-5.776908 -0.948091,-1.322917 -2.337154,-1.984375 -4.167188,-1.984375 z m 51.586515,0.271301 c -0.992186,0 -1.874132,0.242535 -2.645833,0.727604 -0.764351,0.48507 -1.359664,1.14251 -1.785937,1.973006 -0.418923,0.830498 -0.628386,1.749536 -0.628386,2.756421 0,0.984837 0.212965,1.873789 0.639238,2.667538 0.426273,0.793749 0.999537,1.418633 1.719791,1.874304 0.727604,0.448322 1.528877,0.67231 2.403471,0.67231 0.830497,0 1.576648,-0.183394 2.238106,-0.55087 0.668803,-0.367477 1.216,-0.896644 1.64228,-1.5875 h 0.0444 v 0.242362 c 0,1.256769 -0.15836,2.340656 -0.47439,3.251998 -0.316027,0.90399 -0.752985,1.59502 -1.311549,2.07275 -0.558564,0.47037 -1.194473,0.70538 -1.907377,0.70538 -0.734953,0 -1.333769,-0.22399 -1.79679,-0.67231 -0.46302,-0.45567 -0.782726,-1.10261 -0.959115,-1.940455 l -1.96267,0.309028 c 0.124941,0.815797 0.393544,1.521357 0.805118,2.116667 0.418923,0.58797 0.951594,1.03997 1.598352,1.356 0.654108,0.30868 1.389236,0.46302 2.205034,0.46302 1.881479,0 3.314637,-0.73162 4.299487,-2.19419 0.98484,-1.46991 1.47692,-3.630678 1.47692,-6.482296 0,-2.535588 -0.47756,-4.460826 -1.433,-5.776392 -0.94809,-1.322915 -2.337158,-1.984375 -4.16719,-1.984375 z m 47.53775,0 c -0.99218,0 -1.87413,0.242535 -2.64583,0.727604 -0.76435,0.48507 -1.35966,1.142509 -1.78594,1.973006 -0.41892,0.830498 -0.62838,1.749534 -0.62838,2.756421 0,0.984838 0.21296,1.873788 0.63924,2.667538 0.42627,0.79375 0.99953,1.418633 1.71979,1.874304 0.7276,0.448322 1.52887,0.67231 2.40347,0.67231 0.83049,0 1.57664,-0.183394 2.2381,-0.55087 0.66882,-0.367477 1.21601,-0.896644 1.64228,-1.5875 h 0.0444 v 0.242362 c 0,1.256771 -0.15836,2.340656 -0.47439,3.251998 -0.31603,0.90399 -0.75298,1.59502 -1.31154,2.07275 -0.55856,0.47037 -1.19448,0.70538 -1.90738,0.70538 -0.73495,0 -1.33376,-0.22399 -1.79679,-0.67231 -0.46302,-0.45567 -0.78273,-1.10261 -0.95912,-1.940455 l -1.96267,0.309028 c 0.12494,0.815797 0.39303,1.521357 0.80461,2.116667 0.41892,0.58797 0.9521,1.03997 1.59886,1.356 0.65412,0.30868 1.38925,0.46302 2.20504,0.46302 1.88148,0 3.31464,-0.73162 4.29948,-2.19419 0.98484,-1.46991 1.47691,-3.630676 1.47691,-6.482296 0,-2.53559 -0.47755,-4.460825 -1.43299,-5.776392 -0.94809,-1.322917 -2.33715,-1.984375 -4.16719,-1.984375 z m -99.102044,1.349272 c 0.624711,0 1.18695,0.172369 1.686719,0.517798 0.499768,0.338079 0.892624,0.801099 1.179256,1.389062 0.286632,0.580614 0.429948,1.216521 0.429948,1.907377 0,0.668808 -0.146818,1.271642 -0.4408,1.808159 -0.286632,0.536516 -0.675985,0.955439 -1.168404,1.25677 -0.49242,0.293982 -1.025606,0.4408 -1.598869,0.4408 -0.610012,0 -1.153705,-0.150321 -1.631425,-0.451652 -0.47772,-0.30868 -0.849044,-0.735125 -1.113627,-1.278991 -0.264584,-0.551216 -0.396875,-1.179601 -0.396875,-1.885157 0,-0.676157 0.128788,-1.297537 0.386023,-1.863452 0.264583,-0.565914 0.628385,-1.013891 1.091406,-1.34462 0.47037,-0.33073 0.996035,-0.496094 1.576648,-0.496094 z m 51.586515,0.271301 c 0.62471,0 1.186952,0.17237 1.686719,0.517798 0.499768,0.338078 0.892623,0.8011 1.179253,1.389062 0.286637,0.580613 0.429947,1.216522 0.429947,1.907377 0,0.668808 -0.14682,1.271643 -0.440797,1.808159 -0.28663,0.536515 -0.675984,0.95544 -1.168403,1.256771 -0.492418,0.293981 -1.025605,0.4408 -1.598869,0.4408 -0.61001,0 -1.153705,-0.150839 -1.631425,-0.452169 -0.477719,-0.30868 -0.849044,-0.73461 -1.113627,-1.278475 -0.264583,-0.551215 -0.396875,-1.179602 -0.396875,-1.885156 0,-0.676157 0.128789,-1.297538 0.386023,-1.863452 0.264583,-0.565914 0.628386,-1.013892 1.091406,-1.344621 0.47037,-0.330729 0.996035,-0.496094 1.576648,-0.496094 z m 47.537759,0 c 0.62471,0 1.18695,0.17237 1.68671,0.517798 0.49978,0.338079 0.89263,0.8011 1.17926,1.389062 0.28663,0.580614 0.42995,1.216521 0.42995,1.907377 0,0.668808 -0.14682,1.271643 -0.4408,1.808159 -0.28663,0.536516 -0.67599,0.95544 -1.16841,1.256771 -0.49242,0.293981 -1.02561,0.4408 -1.59886,0.4408 -0.61002,0 -1.15371,-0.150838 -1.63143,-0.452169 -0.47772,-0.308681 -0.84904,-0.73461 -1.11363,-1.278475 -0.26458,-0.551215 -0.39687,-1.179601 -0.39687,-1.885156 0,-0.676158 0.12879,-1.297538 0.38602,-1.863452 0.26458,-0.565915 0.62839,-1.013892 1.09141,-1.344621 0.47037,-0.33073 0.99603,-0.496094 1.57665,-0.496094 z m -74.483918,22.08087 c -0.992187,0 -1.874132,0.24254 -2.645833,0.7276 -0.764351,0.48507 -1.359665,1.14303 -1.785937,1.97352 -0.418924,0.8305 -0.628386,1.74902 -0.628386,2.75591 0,0.98484 0.212965,1.87431 0.639238,2.66805 0.426273,0.79376 0.999537,1.41864 1.719791,1.87431 0.727604,0.44832 1.528877,0.67231 2.403471,0.67231 0.830497,0 1.576649,-0.18391 2.238107,-0.55139 0.668807,-0.36747 1.216004,-0.89664 1.642277,-1.5875 h 0.04444 v 0.24288 c 0,1.25676 -0.15836,2.34065 -0.474389,3.252 -0.31603,0.90399 -0.752984,1.59502 -1.311548,2.07274 -0.558565,0.47037 -1.194473,0.70538 -1.907377,0.70538 -0.734954,0 -1.33377,-0.22399 -1.79679,-0.67231 -0.46302,-0.45567 -0.782725,-1.1026 -0.959114,-1.94045 l -1.962671,0.30851 c 0.124941,0.8158 0.393545,1.52135 0.805118,2.11667 0.418924,0.58796 0.951594,1.03995 1.598352,1.35599 0.654108,0.30868 1.389236,0.46302 2.205034,0.46302 1.881479,0 3.314642,-0.73111 4.299479,-2.19367 0.984837,-1.4699 1.476912,-3.63067 1.476912,-6.48229 0,-2.53559 -0.477548,-4.46134 -1.432987,-5.77691 -0.948089,-1.32291 -2.337155,-1.98437 -4.167187,-1.98437 z m 50.901888,0.0129 c -0.99219,0 -1.87413,0.24253 -2.64583,0.7276 -0.76435,0.48507 -1.35967,1.14302 -1.78594,1.97352 -0.41893,0.8305 -0.62838,1.74902 -0.62838,2.75591 0,0.98484 0.21296,1.8743 0.63923,2.66805 0.42628,0.79375 0.99954,1.41812 1.71979,1.87379 0.72761,0.44832 1.52888,0.67283 2.40348,0.67283 0.83049,0 1.57613,-0.18392 2.23759,-0.55139 0.6688,-0.36748 1.21652,-0.89664 1.64279,-1.5875 h 0.0439 v 0.24236 c 0,1.25677 -0.15784,2.34118 -0.47387,3.25252 -0.31603,0.90399 -0.7535,1.5945 -1.31206,2.07222 -0.55857,0.47037 -1.19396,0.7059 -1.90686,0.7059 -0.73496,0 -1.33429,-0.22451 -1.79731,-0.67283 -0.46303,-0.45567 -0.78273,-1.10208 -0.95911,-1.93993 l -1.96216,0.30851 c 0.12495,0.8158 0.39303,1.52135 0.8046,2.11667 0.41892,0.58796 0.95211,1.03995 1.59887,1.35599 0.65411,0.30868 1.38872,0.46302 2.20452,0.46302 1.88148,0 3.31464,-0.73111 4.29948,-2.19367 0.98484,-1.4699 1.47743,-3.63067 1.47743,-6.48229 0,-2.53559 -0.47755,-4.46134 -1.43299,-5.77691 -0.94809,-1.32292 -2.33716,-1.98437 -4.16719,-1.98437 z m -50.879667,1.60765 c 0.62471,0 1.186951,0.17289 1.686719,0.51832 0.499768,0.33807 0.892625,0.80109 1.179256,1.38906 0.286632,0.58061 0.429948,1.21652 0.429948,1.90737 0,0.66881 -0.146818,1.27113 -0.4408,1.80765 -0.286631,0.53651 -0.675986,0.95543 -1.168404,1.25677 -0.492418,0.29398 -1.025605,0.44131 -1.598869,0.44131 -0.610011,0 -1.153705,-0.15083 -1.631425,-0.45216 -0.477719,-0.30868 -0.849044,-0.73513 -1.113627,-1.279 -0.264583,-0.55121 -0.396875,-1.1796 -0.396875,-1.88515 0,-0.67616 0.12879,-1.29703 0.386023,-1.86294 0.264583,-0.56591 0.628386,-1.01441 1.091406,-1.34514 0.47037,-0.33073 0.996036,-0.49609 1.576648,-0.49609 z m 50.901377,0.0129 c 0.62471,0 1.18695,0.17289 1.68671,0.51831 0.49978,0.33808 0.89314,0.8011 1.17978,1.38907 0.28662,0.58061 0.42995,1.216 0.42995,1.90686 0,0.6688 -0.14682,1.27164 -0.4408,1.80816 -0.28664,0.53651 -0.67651,0.95543 -1.16893,1.25677 -0.49241,0.29398 -1.02508,0.4408 -1.59835,0.4408 -0.61001,0 -1.1537,-0.15033 -1.63142,-0.45166 -0.47772,-0.30868 -0.84904,-0.73512 -1.11363,-1.27899 -0.26458,-0.55122 -0.39687,-1.1796 -0.39687,-1.88515 0,-0.67616 0.12879,-1.29703 0.38602,-1.86294 0.26458,-0.56591 0.62838,-1.0144 1.0914,-1.34514 0.47037,-0.33072 0.99552,-0.49609 1.57614,-0.49609 z" />
  </g>
</svg>
