<?xml version="1.0" encoding="UTF-8" standalone="no"?>
<!-- Created with Inkscape (http://www.inkscape.org/) -->

<svg
   width="720"
   height="720"
   viewBox="0 0 190.5 190.5"
   version="1.1"
   id="svg5"
   sodipodi:docname="7H.svg"
   inkscape:version="1.2.1 (9c6d41e410, 2022-07-14)"
   xmlns:inkscape="http://www.inkscape.org/namespaces/inkscape"
   xmlns:sodipodi="http://sodipodi.sourceforge.net/DTD/sodipodi-0.dtd"
   xmlns="http://www.w3.org/2000/svg"
   xmlns:svg="http://www.w3.org/2000/svg">
  <sodipodi:namedview
     id="namedview7"
     pagecolor="#ffffff"
     bordercolor="#000000"
     borderopacity="0.25"
     inkscape:showpageshadow="2"
     inkscape:pageopacity="0.0"
     inkscape:pagecheckerboard="0"
     inkscape:deskcolor="#d1d1d1"
     inkscape:document-units="mm"
     showgrid="true"
     inkscape:zoom="1.0255231"
     inkscape:cx="342.75192"
     inkscape:cy="365.66705"
     inkscape:window-width="1520"
     inkscape:window-height="1030"
     inkscape:window-x="10"
     inkscape:window-y="1"
     inkscape:window-maximized="0"
     inkscape:current-layer="layer1">
    <inkscape:grid
       type="xygrid"
       id="grid9"
       spacingx="19.05"
       spacingy="19.05" />
  </sodipodi:namedview>
  <defs
     id="defs2" />
  <g
     inkscape:label="Ebene 1"
     inkscape:groupmode="layer"
     id="layer1">
    <path
       id="path1276"
       style="font-size:22.5778px;font-family:'Arial Nova';-inkscape-font-specification:'Arial Nova';stroke-width:0.264583"
       d="M 63.910311 62.712968 L 63.910311 78.874772 L 66.06005 78.874772 L 66.06005 71.268001 L 73.99755 71.268001 L 73.99755 78.874772 L 76.14729 78.874772 L 76.14729 62.712968 L 73.99755 62.712968 L 73.99755 69.349772 L 66.06005 69.349772 L 66.06005 62.712968 L 63.910311 62.712968 z M 115.32526 62.820455 L 115.32526 78.982259 L 117.475 78.982259 L 117.475 71.375488 L 125.4125 71.375488 L 125.4125 78.982259 L 127.56224 78.982259 L 127.56224 62.820455 L 125.4125 62.820455 L 125.4125 69.457259 L 117.475 69.457259 L 117.475 62.820455 L 115.32526 62.820455 z M 39.52937 86.964201 L 39.52937 103.12601 L 41.67911 103.12601 L 41.67911 95.519234 L 49.61661 95.519234 L 49.61661 103.12601 L 51.766349 103.12601 L 51.766349 86.964201 L 49.61661 86.964201 L 49.61661 93.601005 L 41.67911 93.601005 L 41.67911 86.964201 L 39.52937 86.964201 z M 91.115885 87.235502 L 91.115885 103.39679 L 93.265625 103.39679 L 93.265625 95.790019 L 101.20312 95.790019 L 101.20312 103.39679 L 103.35286 103.39679 L 103.35286 87.235502 L 101.20312 87.235502 L 101.20312 93.87179 L 93.265625 93.87179 L 93.265625 87.235502 L 91.115885 87.235502 z M 138.65304 87.235502 L 138.65304 103.39679 L 140.80278 103.39679 L 140.80278 95.790019 L 148.74028 95.790019 L 148.74028 103.39679 L 150.89001 103.39679 L 150.89001 87.235502 L 148.74028 87.235502 L 148.74028 93.87179 L 140.80278 93.87179 L 140.80278 87.235502 L 138.65304 87.235502 z M 64.191947 110.9369 L 64.191947 127.0987 L 66.341687 127.0987 L 66.341687 119.49193 L 74.279187 119.49193 L 74.279187 127.0987 L 76.428927 127.0987 L 76.428927 110.9369 L 74.279187 110.9369 L 74.279187 117.5737 L 66.341687 117.5737 L 66.341687 110.9369 L 64.191947 110.9369 z M 115.09323 110.94982 L 115.09323 127.11162 L 117.24297 127.11162 L 117.24297 119.50485 L 125.18047 119.50485 L 125.18047 127.11162 L 127.33021 127.11162 L 127.33021 110.94982 L 125.18047 110.94982 L 125.18047 117.58662 L 117.24297 117.58662 L 117.24297 110.94982 L 115.09323 110.94982 z " />
  </g>
</svg>
