<?xml version="1.0" encoding="UTF-8" standalone="no"?>
<!-- Created with Inkscape (http://www.inkscape.org/) -->

<svg
   width="720"
   height="720"
   viewBox="0 0 190.5 190.5"
   version="1.1"
   id="svg5"
   sodipodi:docname="77.svg"
   inkscape:version="1.2.1 (9c6d41e410, 2022-07-14)"
   xmlns:inkscape="http://www.inkscape.org/namespaces/inkscape"
   xmlns:sodipodi="http://sodipodi.sourceforge.net/DTD/sodipodi-0.dtd"
   xmlns="http://www.w3.org/2000/svg"
   xmlns:svg="http://www.w3.org/2000/svg">
  <sodipodi:namedview
     id="namedview7"
     pagecolor="#ffffff"
     bordercolor="#000000"
     borderopacity="0.25"
     inkscape:showpageshadow="2"
     inkscape:pageopacity="0.0"
     inkscape:pagecheckerboard="0"
     inkscape:deskcolor="#d1d1d1"
     inkscape:document-units="mm"
     showgrid="true"
     inkscape:zoom="1.0255231"
     inkscape:cx="572.87838"
     inkscape:cy="365.1795"
     inkscape:window-width="1920"
     inkscape:window-height="1001"
     inkscape:window-x="-9"
     inkscape:window-y="-9"
     inkscape:window-maximized="1"
     inkscape:current-layer="layer1">
    <inkscape:grid
       type="xygrid"
       id="grid9"
       spacingx="19.05"
       spacingy="19.05" />
  </sodipodi:namedview>
  <defs
     id="defs2" />
  <g
     inkscape:label="Ebene 1"
     inkscape:groupmode="layer"
     id="layer1">
    <path
       id="path1101"
       style="font-size:22.5778px;font-family:'Arial Nova';-inkscape-font-specification:'Arial Nova';stroke-width:0.264583"
       d="M 66.556144 62.977551 L 65.310742 71.289705 L 67.074459 71.554289 C 67.368441 71.091268 67.787364 70.709437 68.33123 70.408105 C 68.882445 70.106774 69.43366 69.955937 69.984875 69.955937 C 70.631634 69.955937 71.201396 70.106774 71.693815 70.408105 C 72.186234 70.702087 72.568065 71.124513 72.839998 71.675728 C 73.119281 72.226944 73.259094 72.873875 73.259094 73.616178 C 73.259094 74.351132 73.115779 75.016093 72.829146 75.611405 C 72.542515 76.199369 72.142137 76.665892 71.627669 77.01132 C 71.113202 77.349399 70.532416 77.518783 69.885657 77.518783 C 69.069858 77.518783 68.386351 77.261204 67.835136 76.746737 C 67.29127 76.232269 66.93097 75.475611 66.754582 74.476074 L 64.770207 74.784583 C 64.998042 76.195694 65.553277 77.276075 66.435221 78.025728 C 67.317166 78.775381 68.463694 79.150208 69.874805 79.150208 C 70.991935 79.150208 71.965576 78.907673 72.796073 78.422603 C 73.626571 77.937534 74.26598 77.265051 74.714303 76.405155 C 75.162624 75.53791 75.386613 74.545722 75.386613 73.428593 C 75.386613 72.384959 75.170146 71.466439 74.736523 70.672689 C 74.310251 69.878939 73.725962 69.268582 72.983659 68.84231 C 72.248705 68.408687 71.428887 68.19222 70.524894 68.19222 C 69.944281 68.19222 69.400587 68.280414 68.893469 68.456803 C 68.386351 68.633192 67.930852 68.882732 67.526628 69.206112 L 68.176717 64.89578 L 74.615084 64.89578 L 74.615084 62.977551 L 66.556144 62.977551 z M 117.97109 63.085038 L 116.72517 71.397709 L 118.48889 71.662292 C 118.78287 71.199272 119.2018 70.816923 119.74566 70.515592 C 120.29688 70.214261 120.8481 70.063424 121.39931 70.063424 C 122.04607 70.063424 122.61583 70.214261 123.10825 70.515592 C 123.60067 70.809573 123.98301 71.232 124.25495 71.783215 C 124.53423 72.334431 124.67353 72.981362 124.67353 73.723665 C 124.67353 74.458619 124.53021 75.12358 124.24358 75.718892 C 123.95695 76.306856 123.55657 76.773895 123.0421 77.119324 C 122.52764 77.457402 121.94685 77.62627 121.30009 77.62627 C 120.48429 77.62627 119.80078 77.369208 119.24957 76.85474 C 118.7057 76.340273 118.34592 75.583098 118.16953 74.583561 L 116.18516 74.892069 C 116.41299 76.30318 116.96771 77.383562 117.84965 78.133215 C 118.7316 78.882868 119.87813 79.257694 121.28924 79.257694 C 122.40636 79.257694 123.38001 79.01516 124.21051 78.53009 C 125.04101 78.045021 125.68042 77.372538 126.12874 76.512642 C 126.57706 75.645397 126.80156 74.653209 126.80156 73.53608 C 126.80156 72.492446 126.58458 71.573926 126.15096 70.780176 C 125.72468 69.986426 125.1404 69.376586 124.39809 68.950313 C 123.66314 68.51669 122.84384 68.299707 121.93984 68.299707 C 121.35923 68.299707 120.81502 68.387901 120.3079 68.56429 C 119.80079 68.740679 119.34529 68.990736 118.94106 69.314115 L 119.59167 65.003267 L 126.02952 65.003267 L 126.02952 63.085038 L 117.97109 63.085038 z M 42.175203 87.228784 L 40.929285 95.540938 L 42.693001 95.805522 C 42.986983 95.342501 43.405906 94.960669 43.949772 94.659338 C 44.500987 94.358007 45.052203 94.20717 45.603418 94.20717 C 46.250177 94.20717 46.819939 94.358007 47.312358 94.659338 C 47.804776 94.95332 48.187125 95.375746 48.459058 95.926961 C 48.73834 96.478176 48.877637 97.125108 48.877637 97.867411 C 48.877637 98.602365 48.734321 99.267326 48.447689 99.862638 C 48.161056 100.4506 47.760679 100.91713 47.246212 101.26255 C 46.731744 101.60063 46.150959 101.77002 45.504199 101.77002 C 44.688401 101.77002 44.004894 101.51244 43.453678 100.99797 C 42.909813 100.4835 42.55003 99.726847 42.373641 98.727307 L 40.389266 99.035815 C 40.617102 100.44693 41.171819 101.52731 42.053764 102.27696 C 42.935708 103.02661 44.082236 103.40144 45.493347 103.40144 C 46.610477 103.40144 47.584118 103.15891 48.414616 102.67384 C 49.245114 102.18877 49.884524 101.51629 50.332845 100.65639 C 50.781167 99.789145 51.005672 98.796955 51.005672 97.679826 C 51.005672 96.636192 50.788688 95.717672 50.355066 94.923922 C 49.928792 94.130172 49.344505 93.519816 48.602201 93.093542 C 47.867248 92.65992 47.047947 92.443453 46.143953 92.443453 C 45.56334 92.443453 45.01913 92.531648 44.512012 92.708036 C 44.004894 92.884425 43.549395 93.133965 43.14517 93.457345 L 43.795776 89.147013 L 50.233626 89.147013 L 50.233626 87.228784 L 42.175203 87.228784 z M 93.761719 87.500085 L 92.5158 95.81224 L 94.279517 96.076823 C 94.573498 95.613802 94.992421 95.231454 95.536287 94.930123 C 96.087502 94.628792 96.638718 94.478471 97.189933 94.478471 C 97.836693 94.478471 98.406454 94.628792 98.898873 94.930123 C 99.391292 95.224105 99.77364 95.647047 100.04557 96.198263 C 100.32485 96.749477 100.46415 97.395893 100.46415 98.138196 C 100.46415 98.87315 100.32083 99.538626 100.0342 100.13394 C 99.747569 100.7219 99.347195 101.18842 98.832727 101.53385 C 98.31826 101.87193 97.737474 102.0408 97.090715 102.0408 C 96.274916 102.0408 95.591409 101.78374 95.040194 101.26927 C 94.496328 100.7548 94.136545 99.997628 93.960156 98.998092 L 91.975781 99.307117 C 92.203617 100.71823 92.758335 101.79861 93.640279 102.54826 C 94.522224 103.29792 95.668751 103.67274 97.079862 103.67274 C 98.196992 103.67274 99.170635 103.4302 100.00113 102.94514 C 100.83163 102.46006 101.47104 101.78758 101.91936 100.92769 C 102.36769 100.06044 102.59219 99.068257 102.59219 97.951127 C 102.59219 96.907493 102.37521 95.988456 101.94158 95.194706 C 101.51531 94.400956 100.93102 93.791117 100.18872 93.364844 C 99.453761 92.931221 98.634462 92.714237 97.730469 92.714237 C 97.149855 92.714237 96.605645 92.802432 96.098527 92.978821 C 95.591409 93.15521 95.13591 93.405266 94.731685 93.728646 L 95.382292 89.418315 L 101.82014 89.418315 L 101.82014 87.500085 L 93.761719 87.500085 z M 141.29887 87.500085 L 140.05347 95.81224 L 141.81718 96.076823 C 142.11116 95.613802 142.53009 95.231454 143.07395 94.930123 C 143.62517 94.628792 144.17639 94.478471 144.7276 94.478471 C 145.37436 94.478471 145.94412 94.628792 146.43654 94.930123 C 146.92896 95.224105 147.31079 95.647047 147.58272 96.198263 C 147.862 96.749477 148.00182 97.395893 148.00182 98.138196 C 148.00182 98.87315 147.8585 99.538626 147.57187 100.13394 C 147.28524 100.7219 146.88486 101.18842 146.37039 101.53385 C 145.85593 101.87193 145.27514 102.0408 144.62838 102.0408 C 143.81258 102.0408 143.12907 101.78374 142.57786 101.26927 C 142.03399 100.7548 141.6737 99.997628 141.49731 98.998092 L 139.51293 99.307117 C 139.74076 100.71823 140.296 101.79861 141.17795 102.54826 C 142.05989 103.29792 143.20642 103.67274 144.61753 103.67274 C 145.73465 103.67274 146.7083 103.4302 147.5388 102.94514 C 148.3693 102.46006 149.00871 101.78758 149.45703 100.92769 C 149.90535 100.06044 150.12934 99.068257 150.12934 97.951127 C 150.12934 96.907493 149.91287 95.988456 149.47925 95.194706 C 149.05298 94.400956 148.46869 93.791117 147.72638 93.364844 C 146.99143 92.931221 146.17161 92.714237 145.26762 92.714237 C 144.68701 92.714237 144.14331 92.802432 143.63619 92.978821 C 143.12907 93.15521 142.67357 93.405266 142.26935 93.728646 L 142.91944 89.418315 L 149.35781 89.418315 L 149.35781 87.500085 L 141.29887 87.500085 z M 66.837781 111.20148 L 65.591862 119.51415 L 67.355579 119.77874 C 67.64956 119.31572 68.068484 118.93336 68.612349 118.63204 C 69.163565 118.3307 69.71478 118.17987 70.265995 118.17987 C 70.912755 118.17987 71.482516 118.3307 71.974935 118.63204 C 72.467354 118.92602 72.849702 119.34845 73.121635 119.89966 C 73.400917 120.45088 73.540214 121.09781 73.540214 121.84011 C 73.540214 122.57506 73.396898 123.24002 73.110266 123.83534 C 72.823634 124.4233 72.423257 124.89034 71.908789 125.23577 C 71.394322 125.57385 70.813536 125.74271 70.166777 125.74271 C 69.350978 125.74271 68.667471 125.48565 68.116256 124.97118 C 67.57239 124.45672 67.212607 123.69954 67.036218 122.7 L 65.051843 123.00851 C 65.279679 124.41962 65.834397 125.50001 66.716341 126.24966 C 67.598286 126.99931 68.744813 127.37414 70.155924 127.37414 C 71.273054 127.37414 72.246695 127.13161 73.077193 126.64653 C 73.907691 126.16147 74.547101 125.48898 74.995422 124.62909 C 75.443744 123.76184 75.66825 122.76965 75.66825 121.65252 C 75.66825 120.60889 75.451266 119.69037 75.017643 118.89662 C 74.59137 118.10287 74.007082 117.49303 73.264779 117.06676 C 72.529825 116.63314 71.710524 116.41615 70.806531 116.41615 C 70.225917 116.41615 69.681707 116.50435 69.174589 116.68073 C 68.667471 116.85713 68.211972 117.10718 67.807747 117.43056 L 68.458354 113.11971 L 74.896204 113.11971 L 74.896204 111.20148 L 66.837781 111.20148 z M 117.73907 111.2144 L 116.49366 119.52655 L 118.25738 119.79114 C 118.55136 119.32812 118.97029 118.94629 119.51415 118.64495 C 120.06537 118.34363 120.61659 118.19279 121.1678 118.19279 C 121.81456 118.19279 122.38432 118.34363 122.87674 118.64495 C 123.36916 118.93894 123.75099 119.36136 124.02292 119.91258 C 124.3022 120.46379 124.44202 121.11072 124.44202 121.85303 C 124.44202 122.58798 124.2987 123.25294 124.01207 123.84825 C 123.72544 124.43622 123.32506 124.90274 122.81059 125.24817 C 122.29613 125.58625 121.71534 125.75563 121.06858 125.75563 C 120.25278 125.75563 119.56927 125.49805 119.01806 124.98359 C 118.47419 124.46911 118.11389 123.71246 117.9375 122.71292 L 115.95313 123.02143 C 116.18096 124.43254 116.7362 125.51292 117.61814 126.26258 C 118.50009 127.01223 119.64662 127.38706 121.05773 127.38706 C 122.17485 127.38706 123.1485 127.14453 123.979 126.65945 C 124.80949 126.17439 125.44891 125.5019 125.89722 124.642 C 126.34555 123.77476 126.56954 122.78257 126.56954 121.66544 C 126.56954 120.6218 126.35307 119.70328 125.91945 118.90954 C 125.49317 118.11579 124.90889 117.50543 124.16658 117.07916 C 123.43163 116.64554 122.61181 116.42907 121.70782 116.42907 C 121.1272 116.42907 120.58351 116.51727 120.07639 116.69365 C 119.56928 116.87004 119.11378 117.11958 118.70955 117.44296 L 119.35964 113.13263 L 125.79801 113.13263 L 125.79801 111.2144 L 117.73907 111.2144 z " />
  </g>
</svg>
