<?xml version="1.0" encoding="UTF-8" standalone="no"?>
<!-- Created with Inkscape (http://www.inkscape.org/) -->

<svg
   width="720"
   height="720"
   viewBox="0 0 190.5 190.5"
   version="1.1"
   id="svg5"
   sodipodi:docname="7four.svg"
   inkscape:version="1.2.1 (9c6d41e410, 2022-07-14)"
   xmlns:inkscape="http://www.inkscape.org/namespaces/inkscape"
   xmlns:sodipodi="http://sodipodi.sourceforge.net/DTD/sodipodi-0.dtd"
   xmlns="http://www.w3.org/2000/svg"
   xmlns:svg="http://www.w3.org/2000/svg">
  <sodipodi:namedview
     id="namedview7"
     pagecolor="#ffffff"
     bordercolor="#000000"
     borderopacity="0.25"
     inkscape:showpageshadow="2"
     inkscape:pageopacity="0.0"
     inkscape:pagecheckerboard="0"
     inkscape:deskcolor="#d1d1d1"
     inkscape:document-units="mm"
     showgrid="true"
     inkscape:zoom="1.0255231"
     inkscape:cx="572.87838"
     inkscape:cy="365.1795"
     inkscape:window-width="1920"
     inkscape:window-height="1001"
     inkscape:window-x="-9"
     inkscape:window-y="-9"
     inkscape:window-maximized="1"
     inkscape:current-layer="layer1">
    <inkscape:grid
       type="xygrid"
       id="grid9"
       spacingx="19.05"
       spacingy="19.05" />
  </sodipodi:namedview>
  <defs
     id="defs2" />
  <g
     inkscape:label="Ebene 1"
     inkscape:groupmode="layer"
     id="layer1">
    <path
       id="path870"
       style="font-size:22.5778px;font-family:'Arial Nova';-inkscape-font-specification:'Arial Nova';stroke-width:0.264583"
       d="M 55.157357 62.437533 C 54.010829 62.437533 53.184006 62.709121 52.676888 63.252987 C 52.16977 63.789503 51.916211 64.634872 51.916211 65.788749 L 51.916211 67.177812 L 50.151978 67.177812 L 50.151978 68.710018 L 51.916211 68.710018 L 51.916211 78.874772 L 53.900586 78.874772 L 53.900586 68.710018 L 56.160396 68.710018 L 56.160396 67.177812 L 53.900586 67.177812 L 53.900586 65.943262 C 53.900586 65.524338 53.929643 65.193609 53.988436 64.951074 C 54.054582 64.708539 54.197898 64.517107 54.418384 64.377466 C 54.63887 64.230475 54.973619 64.157324 55.42194 64.157324 C 55.914359 64.157324 56.42498 64.237997 56.954146 64.399687 L 57.384094 62.712968 C 56.634442 62.529229 55.892311 62.437533 55.157357 62.437533 z M 106.57179 62.54502 C 105.42526 62.54502 104.59844 62.817125 104.09132 63.36099 C 103.5842 63.897507 103.33064 64.742359 103.33064 65.896236 L 103.33064 67.285299 L 101.56693 67.285299 L 101.56693 68.818022 L 103.33064 68.818022 L 103.33064 78.982259 L 105.31502 78.982259 L 105.31502 68.818022 L 107.57483 68.818022 L 107.57483 67.285299 L 105.31502 67.285299 L 105.31502 66.050749 C 105.31502 65.631825 105.34459 65.301096 105.40339 65.058561 C 105.46953 64.816027 105.61285 64.625111 105.83333 64.48547 C 106.05382 64.338478 106.38805 64.264811 106.83637 64.264811 C 107.32879 64.264811 107.83941 64.345484 108.36858 64.507174 L 108.79853 62.820455 C 108.04887 62.636716 107.30674 62.54502 106.57179 62.54502 z M 62.301107 66.913228 C 61.213375 66.913228 60.254261 67.155763 59.423763 67.640833 C 58.600615 68.125902 57.961205 68.827955 57.505534 69.746647 C 57.049862 70.665339 56.821855 71.760248 56.821855 73.031718 C 56.821855 74.339936 57.053365 75.453391 57.516386 76.372083 C 57.986757 77.290775 58.633688 77.985306 59.456836 78.455676 C 60.279984 78.918697 61.228074 79.150208 62.301107 79.150208 C 63.381488 79.150208 64.333081 78.911176 65.15623 78.433455 C 65.986727 77.948386 66.633659 77.246849 67.09668 76.328158 C 67.5597 75.402116 67.791211 74.295666 67.791211 73.009497 C 67.791211 71.715979 67.5597 70.613548 67.09668 69.702205 C 66.641008 68.783514 66.001599 68.088982 65.178451 67.618612 C 64.355303 67.148241 63.396188 66.913228 62.301107 66.913228 z M 87.469596 66.913228 C 86.837536 66.913228 86.297346 67.067568 85.849023 67.376249 C 85.400702 67.68493 84.95973 68.206574 84.526107 68.941528 L 84.526107 67.177812 L 82.674023 67.177812 L 82.674023 78.874772 L 84.658398 78.874772 L 84.658398 72.634843 C 84.658398 71.473616 84.878885 70.569623 85.319857 69.922864 C 85.768179 69.268755 86.414594 68.941528 87.25979 68.941528 C 87.796306 68.941528 88.277873 69.055791 88.704146 69.283626 L 89.387826 67.453247 C 89.071796 67.262159 88.759096 67.126365 88.450415 67.04552 C 88.149084 66.957325 87.822374 66.913228 87.469596 66.913228 z M 113.71554 67.020715 C 112.62781 67.020715 111.66869 67.26325 110.8382 67.748319 C 110.01505 68.233389 109.37564 68.935442 108.91997 69.854134 C 108.46429 70.772826 108.23629 71.867735 108.23629 73.139205 C 108.23629 74.447423 108.46779 75.560878 108.93082 76.479569 C 109.40118 77.398262 110.04812 78.092793 110.87127 78.563163 C 111.69441 79.026184 112.64251 79.257694 113.71554 79.257694 C 114.79592 79.257694 115.74751 79.019179 116.57066 78.541459 C 117.40116 78.05639 118.04809 77.354336 118.51111 76.435645 C 118.97413 75.509603 119.20564 74.40367 119.20564 73.117501 C 119.20564 71.823982 118.97413 70.721552 118.51111 69.810209 C 118.05544 68.891517 117.41603 68.196986 116.59288 67.726615 C 115.76973 67.256245 114.81062 67.020715 113.71554 67.020715 z M 138.88403 67.020715 C 138.25197 67.020715 137.71178 67.175055 137.26346 67.483736 C 136.81514 67.792417 136.37417 68.314578 135.94054 69.049532 L 135.94054 67.285299 L 134.08846 67.285299 L 134.08846 78.982259 L 136.07283 78.982259 L 136.07283 72.74233 C 136.07283 71.581103 136.29332 70.67711 136.73429 70.030351 C 137.18262 69.376242 137.82955 69.049532 138.67474 69.049532 C 139.21126 69.049532 139.69231 69.163278 140.11858 69.391113 L 140.80226 67.561251 C 140.48623 67.370163 140.17404 67.233852 139.86536 67.153007 C 139.56403 67.064812 139.2368 67.020715 138.88403 67.020715 z M 70.073242 67.177812 L 70.073242 75.093091 C 70.073242 76.393959 70.414995 77.39717 71.098503 78.102726 C 71.789359 78.800932 72.814619 79.150208 74.174284 79.150208 C 74.923936 79.150208 75.599922 78.988345 76.202584 78.664966 C 76.812596 78.341586 77.327235 77.871561 77.746159 77.254199 L 77.746159 78.874772 L 79.598242 78.874772 L 79.598242 67.177812 L 77.613867 67.177812 L 77.613867 73.704028 C 77.613867 74.600672 77.503624 75.299222 77.283138 75.798991 C 77.062652 76.298759 76.705855 76.695634 76.213436 76.989616 C 75.728366 77.283598 75.159122 77.430416 74.505013 77.430416 C 73.718613 77.430416 73.112276 77.20993 72.686003 76.768958 C 72.267079 76.327985 72.057617 75.681054 72.057617 74.828507 L 72.057617 67.177812 L 70.073242 67.177812 z M 121.48767 67.285299 L 121.48767 75.201095 C 121.48767 76.501963 121.82943 77.505174 122.51294 78.21073 C 123.20379 78.908936 124.22905 79.257694 125.58872 79.257694 C 126.33837 79.257694 127.01436 79.096349 127.61702 78.77297 C 128.22703 78.44959 128.74167 77.979048 129.16059 77.361686 L 129.16059 78.982259 L 131.01267 78.982259 L 131.01267 67.285299 L 129.0283 67.285299 L 129.0283 73.812032 C 129.0283 74.708676 128.91806 75.406709 128.69757 75.906478 C 128.47708 76.406246 128.1208 76.803121 127.62839 77.097103 C 127.14331 77.391085 126.57355 77.537903 125.91945 77.537903 C 125.13305 77.537903 124.52671 77.317417 124.10044 76.876444 C 123.68151 76.435472 123.47205 75.789058 123.47205 74.936511 L 123.47205 67.285299 L 121.48767 67.285299 z M 62.289738 68.544653 C 62.973245 68.544653 63.57608 68.71754 64.097896 69.062968 C 64.619714 69.401047 65.027613 69.904663 65.321594 70.57347 C 65.615575 71.242278 65.762394 72.054057 65.762394 73.009497 C 65.762394 73.957587 65.619078 74.769884 65.332446 75.446041 C 65.053164 76.122199 64.652787 76.636838 64.130969 76.989616 C 63.609152 77.342394 62.999313 77.518783 62.301107 77.518783 C 61.624949 77.518783 61.025618 77.349399 60.5038 77.01132 C 59.989333 76.665892 59.585453 76.158774 59.291471 75.489966 C 58.99749 74.813808 58.850155 73.994508 58.850155 73.031718 C 58.850155 72.068929 58.99749 71.25313 59.291471 70.584322 C 59.592802 69.908165 60.000702 69.401047 60.515169 69.062968 C 61.036987 68.71754 61.62828 68.544653 62.289738 68.544653 z M 113.70469 68.652657 C 114.38819 68.652657 114.99052 68.825027 115.51233 69.170455 C 116.03415 69.508534 116.44205 70.012149 116.73603 70.680957 C 117.03001 71.349764 117.17734 72.16206 117.17734 73.117501 C 117.17734 74.065591 117.03403 74.87737 116.7474 75.553528 C 116.46811 76.229685 116.06721 76.744325 115.5454 77.097103 C 115.02358 77.449881 114.41375 77.62627 113.71554 77.62627 C 113.03938 77.62627 112.44056 77.457402 111.91875 77.119324 C 111.40428 76.773895 110.99988 76.266778 110.7059 75.59797 C 110.41192 74.921812 110.2651 74.101995 110.2651 73.139205 C 110.2651 72.176416 110.41192 71.360617 110.7059 70.691809 C 111.00724 70.015652 111.41514 69.508534 111.9296 69.170455 C 112.45142 68.825027 113.04323 68.652657 113.70469 68.652657 z M 30.775899 86.688249 C 29.629372 86.688249 28.802549 86.960354 28.295431 87.50422 C 27.788312 88.040736 27.534753 88.886105 27.534753 90.039982 L 27.534753 91.429045 L 25.771037 91.429045 L 25.771037 92.961251 L 27.534753 92.961251 L 27.534753 103.12601 L 29.519128 103.12601 L 29.519128 92.961251 L 31.778939 92.961251 L 31.778939 91.429045 L 29.519128 91.429045 L 29.519128 90.194495 C 29.519128 89.775571 29.548702 89.444842 29.607495 89.202307 C 29.673641 88.959772 29.816957 88.76834 30.037443 88.628699 C 30.257929 88.481708 30.592161 88.408557 31.040483 88.408557 C 31.532901 88.408557 32.043522 88.48923 32.572689 88.65092 L 33.002637 86.964201 C 32.252984 86.780462 31.510853 86.688249 30.775899 86.688249 z M 82.362415 86.95955 C 81.215886 86.95955 80.389063 87.231655 79.881946 87.775521 C 79.374828 88.312038 79.121269 89.157407 79.121269 90.311283 L 79.121269 91.700346 L 77.357552 91.700346 L 77.357552 93.232552 L 79.121269 93.232552 L 79.121269 103.39679 L 81.105644 103.39679 L 81.105644 93.232552 L 83.365454 93.232552 L 83.365454 91.700346 L 81.105644 91.700346 L 81.105644 90.465279 C 81.105644 90.046356 81.135217 89.715627 81.19401 89.473092 C 81.260156 89.230557 81.403472 89.039641 81.623958 88.9 C 81.844444 88.753009 82.178676 88.679342 82.626998 88.679342 C 83.119417 88.679342 83.630038 88.760531 84.159204 88.922221 L 84.589152 87.235502 C 83.839499 87.051764 83.097368 86.95955 82.362415 86.95955 z M 129.90008 86.95955 C 128.75355 86.95955 127.92673 87.231655 127.41961 87.775521 C 126.91249 88.312038 126.65894 89.157407 126.65894 90.311283 L 126.65894 91.700346 L 124.8947 91.700346 L 124.8947 93.232552 L 126.65894 93.232552 L 126.65894 103.39679 L 128.64331 103.39679 L 128.64331 93.232552 L 130.90312 93.232552 L 130.90312 91.700346 L 128.64331 91.700346 L 128.64331 90.465279 C 128.64331 90.046356 128.67236 89.715627 128.73116 89.473092 C 128.79731 89.230557 128.94062 89.039641 129.16111 88.9 C 129.38159 88.753009 129.71635 88.679342 130.16466 88.679342 C 130.65708 88.679342 131.1677 88.760531 131.69687 88.922221 L 132.12682 87.235502 C 131.37717 87.051764 130.63503 86.95955 129.90008 86.95955 z M 37.919649 91.164461 C 36.831918 91.164461 35.872803 91.406996 35.042306 91.892065 C 34.219158 92.377135 33.579748 93.079188 33.124076 93.99788 C 32.668405 94.916572 32.440397 96.011481 32.440397 97.282951 C 32.440397 98.591168 32.671908 99.704625 33.134928 100.62332 C 33.605299 101.54201 34.252231 102.23654 35.075378 102.70691 C 35.898527 103.16993 36.846617 103.40144 37.919649 103.40144 C 39.000031 103.40144 39.951624 103.16241 40.774772 102.68469 C 41.60527 102.19962 42.252201 101.49808 42.715222 100.57939 C 43.178243 99.653346 43.409753 98.546899 43.409753 97.26073 C 43.409753 95.967212 43.178243 94.864781 42.715222 93.953438 C 42.259551 93.034747 41.620142 92.340215 40.796993 91.869845 C 39.973845 91.399474 39.01473 91.164461 37.919649 91.164461 z M 63.088139 91.164461 C 62.456079 91.164461 61.915887 91.318801 61.467566 91.627482 C 61.019244 91.936162 60.578271 92.457807 60.144649 93.192761 L 60.144649 91.429045 L 58.292566 91.429045 L 58.292566 103.12601 L 60.276941 103.12601 L 60.276941 96.886076 C 60.276941 95.724849 60.497427 94.820856 60.938399 94.174097 C 61.386721 93.519988 62.033653 93.192761 62.878849 93.192761 C 63.415365 93.192761 63.896932 93.307024 64.323206 93.534859 L 65.006368 91.70448 C 64.690338 91.513392 64.378155 91.377598 64.069474 91.296753 C 63.768143 91.208558 63.440916 91.164461 63.088139 91.164461 z M 45.691785 91.429045 L 45.691785 99.344324 C 45.691785 100.64519 46.033538 101.64841 46.717045 102.35396 C 47.407901 103.05217 48.433162 103.40144 49.792826 103.40144 C 50.542479 103.40144 51.218464 103.23958 51.821126 102.9162 C 52.431138 102.59282 52.945778 102.12279 53.364701 101.50543 L 53.364701 103.12601 L 55.216785 103.12601 L 55.216785 91.429045 L 53.23241 91.429045 L 53.23241 97.955261 C 53.23241 98.851905 53.122167 99.550454 52.901681 100.05022 C 52.681195 100.54999 52.324914 100.94687 51.832495 101.24085 C 51.347426 101.53484 50.777664 101.68165 50.123556 101.68165 C 49.337155 101.68165 48.730819 101.46116 48.304545 101.02019 C 47.885622 100.57922 47.67616 99.932287 47.67616 99.07974 L 47.67616 91.429045 L 45.691785 91.429045 z M 89.506165 91.435763 C 88.418433 91.435763 87.459318 91.678298 86.628821 92.163367 C 85.805672 92.648436 85.166263 93.349972 84.710592 94.268665 C 84.254921 95.187357 84.026912 96.282783 84.026912 97.554252 C 84.026912 98.86247 84.258423 99.975924 84.721444 100.89462 C 85.191814 101.81331 85.838746 102.50784 86.661894 102.97821 C 87.485042 103.44123 88.433132 103.67274 89.506165 103.67274 C 90.586547 103.67274 91.53814 103.43371 92.361287 102.95599 C 93.191785 102.47092 93.838717 101.76887 94.301737 100.85017 C 94.764758 99.924135 94.996269 98.8182 94.996269 97.532031 C 94.996269 96.238513 94.764758 95.136082 94.301737 94.22474 C 93.846066 93.306047 93.206656 92.611516 92.383508 92.141146 C 91.56036 91.670776 90.601245 91.435763 89.506165 91.435763 z M 114.67465 91.435763 C 114.04259 91.435763 113.5024 91.590103 113.05408 91.898783 C 112.60575 92.207464 112.16478 92.729109 111.73116 93.464062 L 111.73116 91.700346 L 109.87908 91.700346 L 109.87908 103.39679 L 111.86346 103.39679 L 111.86346 97.157377 C 111.86346 95.99615 112.08394 95.092157 112.52491 94.445398 C 112.97323 93.791289 113.62017 93.464062 114.46536 93.464062 C 115.00188 93.464063 115.48293 93.577808 115.9092 93.805644 L 116.59288 91.975781 C 116.27686 91.784693 115.96468 91.648899 115.65599 91.568054 C 115.35466 91.47986 115.02743 91.435763 114.67465 91.435763 z M 137.04383 91.435763 C 135.9561 91.435763 134.99699 91.678298 134.16649 92.163367 C 133.34334 92.648436 132.70393 93.349972 132.24826 94.268665 C 131.79259 95.187357 131.56458 96.282783 131.56458 97.554252 C 131.56458 98.86247 131.79609 99.975924 132.25911 100.89462 C 132.72948 101.81331 133.37641 102.50784 134.19956 102.97821 C 135.02271 103.44123 135.9708 103.67274 137.04383 103.67274 C 138.12421 103.67274 139.07581 103.43371 139.89895 102.95599 C 140.72945 102.47092 141.37638 101.76887 141.8394 100.85017 C 142.30243 99.924135 142.53394 98.8182 142.53394 97.532031 C 142.53394 96.238513 142.30243 95.136082 141.8394 94.22474 C 141.38374 93.306047 140.74433 92.611516 139.92118 92.141146 C 139.09803 91.670776 138.13891 91.435763 137.04383 91.435763 z M 162.21232 91.435763 C 161.58026 91.435763 161.04007 91.590103 160.59175 91.898783 C 160.14342 92.207464 159.70245 92.729109 159.26883 93.464062 L 159.26883 91.700346 L 157.41675 91.700346 L 157.41675 103.39679 L 159.40112 103.39679 L 159.40112 97.157377 C 159.40112 95.99615 159.62161 95.092157 160.06258 94.445398 C 160.5109 93.791289 161.15783 93.464062 162.00303 93.464062 C 162.53954 93.464063 163.02059 93.577808 163.44687 93.805644 L 164.13055 91.975781 C 163.81452 91.784693 163.50234 91.648899 163.19366 91.568054 C 162.89232 91.47986 162.5651 91.435763 162.21232 91.435763 z M 97.2783 91.700346 L 97.2783 99.615625 C 97.2783 100.91649 97.620054 101.9197 98.30356 102.62526 C 98.994417 103.32347 100.01968 103.67274 101.37934 103.67274 C 102.12899 103.67274 102.80498 103.51088 103.40764 103.1875 C 104.01765 102.86412 104.5323 102.39358 104.95122 101.77622 L 104.95122 103.39679 L 106.8033 103.39679 L 106.8033 91.700346 L 104.81892 91.700346 L 104.81892 98.226562 C 104.81892 99.123206 104.70868 99.821243 104.4882 100.32101 C 104.26771 100.82078 103.91143 101.21765 103.41901 101.51163 C 102.93394 101.80561 102.36418 101.95295 101.71007 101.95295 C 100.92367 101.95295 100.31733 101.73246 99.89106 101.29149 C 99.472137 100.85053 99.262675 100.20359 99.262675 99.351042 L 99.262675 91.700346 L 97.2783 91.700346 z M 144.81597 91.700346 L 144.81597 99.615625 C 144.81597 100.91649 145.15772 101.9197 145.84123 102.62526 C 146.53209 103.32347 147.55735 103.67274 148.91701 103.67274 C 149.66667 103.67274 150.34265 103.51088 150.94531 103.1875 C 151.55532 102.86412 152.06996 102.39358 152.48888 101.77622 L 152.48888 103.39679 L 154.34097 103.39679 L 154.34097 91.700346 L 152.35659 91.700346 L 152.35659 98.226562 C 152.35659 99.123206 152.24635 99.821243 152.02586 100.32101 C 151.80538 100.82078 151.4491 101.21765 150.95668 101.51163 C 150.47161 101.80561 149.90185 101.95295 149.24774 101.95295 C 148.46134 101.95295 147.855 101.73246 147.42873 101.29149 C 147.00981 100.85053 146.80034 100.20359 146.80034 99.351042 L 146.80034 91.700346 L 144.81597 91.700346 z M 37.908797 92.795886 C 38.592305 92.795886 39.194622 92.968773 39.716439 93.314201 C 40.238256 93.65228 40.646155 94.155896 40.940137 94.824703 C 41.234118 95.493511 41.381453 96.30529 41.381453 97.26073 C 41.381453 98.20882 41.238137 99.021116 40.951506 99.697274 C 40.672223 100.37343 40.271329 100.88808 39.749512 101.24085 C 39.227695 101.59363 38.617855 101.77002 37.919649 101.77002 C 37.243492 101.77002 36.644677 101.60063 36.12286 101.26255 C 35.608392 100.91713 35.203996 100.41001 34.910014 99.741199 C 34.616033 99.065041 34.469214 98.245741 34.469214 97.282951 C 34.469214 96.320162 34.616033 95.504363 34.910014 94.835555 C 35.211345 94.159398 35.619244 93.65228 36.133712 93.314201 C 36.655529 92.968773 37.247339 92.795886 37.908797 92.795886 z M 89.495312 93.067187 C 90.178819 93.067188 90.781137 93.240074 91.302954 93.585502 C 91.824771 93.923581 92.23267 94.426679 92.526652 95.095487 C 92.820634 95.764295 92.967969 96.576592 92.967969 97.532031 C 92.967969 98.480122 92.824653 99.292418 92.538021 99.968575 C 92.258738 100.64473 91.857844 101.15885 91.336027 101.51163 C 90.81421 101.86441 90.204371 102.0408 89.506165 102.0408 C 88.830007 102.0408 88.231192 101.87193 87.709375 101.53385 C 87.194907 101.18843 86.79051 100.68131 86.496529 100.0125 C 86.202547 99.336345 86.055729 98.517042 86.055729 97.554252 C 86.055729 96.591463 86.202547 95.775664 86.496529 95.106856 C 86.79786 94.430699 87.20576 93.923581 87.720227 93.585502 C 88.242044 93.240074 88.833854 93.067188 89.495312 93.067187 z M 137.03246 93.067187 C 137.71597 93.067188 138.3188 93.240074 138.84062 93.585502 C 139.36244 93.923581 139.77034 94.426679 140.06432 95.095487 C 140.3583 95.764295 140.50564 96.576592 140.50564 97.532031 C 140.50564 98.480122 140.36232 99.292418 140.07569 99.968575 C 139.79641 100.64473 139.39551 101.15885 138.87369 101.51163 C 138.35188 101.86441 137.74204 102.0408 137.04383 102.0408 C 136.36767 102.0408 135.76834 101.87193 135.24653 101.53385 C 134.73206 101.18843 134.32818 100.68131 134.0342 100.0125 C 133.74021 99.336345 133.59288 98.517042 133.59288 97.554252 C 133.59288 96.591463 133.74021 95.775664 134.0342 95.106856 C 134.33552 94.430699 134.74342 93.923581 135.25789 93.585502 C 135.77971 93.240074 136.371 93.067188 137.03246 93.067187 z M 55.438477 110.66146 C 54.291949 110.66146 53.465126 110.93357 52.958008 111.47743 C 52.45089 112.01395 52.197331 112.8588 52.197331 114.01268 L 52.197331 115.40174 L 50.433614 115.40174 L 50.433614 116.93446 L 52.197331 116.93446 L 52.197331 127.0987 L 54.181706 127.0987 L 54.181706 116.93446 L 56.441516 116.93446 L 56.441516 115.40174 L 54.181706 115.40174 L 54.181706 114.16719 C 54.181706 113.74827 54.211279 113.41754 54.270072 113.175 C 54.336218 112.93247 54.479535 112.74156 54.70002 112.60191 C 54.920507 112.45493 55.254738 112.38125 55.70306 112.38125 C 56.195479 112.38125 56.706099 112.46193 57.235266 112.62362 L 57.665214 110.9369 C 56.915561 110.75316 56.17343 110.66146 55.438477 110.66146 z M 106.34028 110.67438 C 105.19375 110.67438 104.36692 110.94597 103.85981 111.48984 C 103.35269 112.02636 103.09913 112.87172 103.09913 114.0256 L 103.09913 115.41466 L 101.3349 115.41466 L 101.3349 116.94687 L 103.09913 116.94687 L 103.09913 127.11162 L 105.08351 127.11162 L 105.08351 116.94687 L 107.34332 116.94687 L 107.34332 115.41466 L 105.08351 115.41466 L 105.08351 114.18011 C 105.08351 113.76118 105.11256 113.43046 105.17136 113.18792 C 105.2375 112.94539 105.38082 112.75396 105.60131 112.61431 C 105.82179 112.46733 106.15654 112.39417 106.60486 112.39417 C 107.09728 112.39417 107.6079 112.47485 108.13707 112.63654 L 108.56702 110.94982 C 107.81736 110.76608 107.07523 110.67438 106.34028 110.67438 z M 62.582227 115.13716 C 61.494495 115.13716 60.535381 115.3797 59.704883 115.86476 C 58.881735 116.34984 58.242325 117.05188 57.786654 117.97058 C 57.330982 118.88927 57.102974 119.98418 57.102974 121.25565 C 57.102974 122.56387 57.334485 123.67732 57.797506 124.59601 C 58.267877 125.5147 58.914808 126.20923 59.737956 126.67961 C 60.561104 127.14263 61.509194 127.37414 62.582227 127.37414 C 63.662608 127.37414 64.614201 127.13562 65.437349 126.6579 C 66.267847 126.17283 66.914779 125.47078 67.377799 124.55209 C 67.84082 123.62605 68.072331 122.52012 68.072331 121.23394 C 68.072331 119.94042 67.84082 118.83799 67.377799 117.92665 C 66.922128 117.00796 66.282718 116.31343 65.45957 115.84306 C 64.636422 115.37269 63.677307 115.13716 62.582227 115.13716 z M 87.750716 115.13716 C 87.118656 115.13716 86.578465 115.2915 86.130143 115.60018 C 85.681821 115.90886 85.240849 116.43102 84.807227 117.16597 L 84.807227 115.40174 L 82.955143 115.40174 L 82.955143 127.0987 L 84.939518 127.0987 L 84.939518 120.85877 C 84.939518 119.69755 85.160004 118.79355 85.600977 118.14679 C 86.049299 117.49268 86.69623 117.16597 87.541427 117.16597 C 88.077943 117.16597 88.558993 117.27972 88.985266 117.50756 L 89.668945 115.67769 C 89.352916 115.48661 89.040733 115.3503 88.732052 115.26945 C 88.430721 115.18126 88.103494 115.13716 87.750716 115.13716 z M 113.48403 115.15008 C 112.3963 115.15008 111.43718 115.39262 110.60669 115.87768 C 109.78354 116.36275 109.14413 117.0648 108.68846 117.9835 C 108.23278 118.90218 108.00478 119.99709 108.00478 121.26857 C 108.00478 122.57679 108.23629 123.69024 108.69931 124.60893 C 109.16968 125.52762 109.81661 126.22215 110.63976 126.69253 C 111.46291 127.15554 112.411 127.38706 113.48403 127.38706 C 114.56441 127.38706 115.51601 127.14802 116.33915 126.6703 C 117.16965 126.18523 117.81658 125.4837 118.2796 124.56501 C 118.74263 123.63897 118.97413 122.53252 118.97413 121.24635 C 118.97413 119.95283 118.74263 118.85039 118.2796 117.93905 C 117.82394 117.02036 117.18453 116.32583 116.36137 115.85546 C 115.53823 115.38509 114.57911 115.15008 113.48403 115.15008 z M 138.65252 115.15008 C 138.02046 115.15008 137.48027 115.30442 137.03195 115.6131 C 136.58362 115.92178 136.14265 116.44342 135.70903 117.17838 L 135.70903 115.41466 L 133.85695 115.41466 L 133.85695 127.11162 L 135.84132 127.11162 L 135.84132 120.87169 C 135.84132 119.71046 136.06181 118.80647 136.50278 118.15971 C 136.9511 117.50561 137.59751 117.17838 138.44271 117.17838 C 138.97923 117.17838 139.46079 117.29264 139.88707 117.52048 L 140.57075 115.6901 C 140.25472 115.49901 139.94202 115.36322 139.63334 115.28237 C 139.332 115.19418 139.0053 115.15008 138.65252 115.15008 z M 70.354362 115.40174 L 70.354362 123.31754 C 70.354362 124.6184 70.696115 125.62161 71.379622 126.32717 C 72.070479 127.02538 73.09574 127.37414 74.455404 127.37414 C 75.205056 127.37414 75.881042 127.21279 76.483704 126.88941 C 77.093716 126.56603 77.608355 126.09549 78.027279 125.47813 L 78.027279 127.0987 L 79.879362 127.0987 L 79.879362 115.40174 L 77.894987 115.40174 L 77.894987 121.92847 C 77.894987 122.82511 77.784744 123.52315 77.564258 124.02292 C 77.343772 124.52269 76.987491 124.91957 76.495072 125.21355 C 76.010003 125.50753 75.440241 125.65435 74.786133 125.65435 C 73.999732 125.65435 73.393396 125.43386 72.967122 124.99289 C 72.548199 124.55191 72.338737 123.9055 72.338737 123.05295 L 72.338737 115.40174 L 70.354362 115.40174 z M 121.25616 115.41466 L 121.25616 123.32994 C 121.25616 124.63081 121.59792 125.63402 122.28142 126.33958 C 122.97228 127.03778 123.99755 127.38706 125.35721 127.38706 C 126.10686 127.38706 126.78284 127.22519 127.38551 126.90181 C 127.99552 126.57844 128.51016 126.10841 128.92908 125.49105 L 128.92908 127.11162 L 130.78116 127.11162 L 130.78116 115.41466 L 128.79679 115.41466 L 128.79679 121.94088 C 128.79679 122.83752 128.68655 123.53607 128.46606 124.03584 C 128.24557 124.53561 127.88878 124.93249 127.39636 125.22646 C 126.91129 125.52044 126.34205 125.66726 125.68794 125.66726 C 124.90154 125.66726 124.2952 125.44677 123.86892 125.00581 C 123.45001 124.56483 123.24054 123.9179 123.24054 123.06536 L 123.24054 115.41466 L 121.25616 115.41466 z M 62.571375 116.7691 C 63.254881 116.7691 63.857199 116.94147 64.379016 117.2869 C 64.900833 117.62498 65.308732 118.12859 65.602714 118.7974 C 65.896695 119.46621 66.044031 120.2785 66.044031 121.23394 C 66.044031 122.18204 65.900715 122.99381 65.614083 123.66997 C 65.3348 124.34613 64.933907 124.86077 64.412089 125.21355 C 63.890272 125.56633 63.280433 125.74271 62.582227 125.74271 C 61.906069 125.74271 61.307254 125.57385 60.785437 125.23577 C 60.27097 124.89034 59.866573 124.38322 59.572591 123.71441 C 59.27861 123.03825 59.131791 122.21844 59.131791 121.25565 C 59.131791 120.29286 59.27861 119.47706 59.572591 118.80825 C 59.873922 118.1321 60.281821 117.62498 60.796289 117.2869 C 61.318106 116.94147 61.909916 116.7691 62.571375 116.7691 z M 113.47266 116.7815 C 114.15617 116.7815 114.759 116.95438 115.28082 117.29982 C 115.80264 117.6379 116.21054 118.14151 116.50452 118.81032 C 116.7985 119.47913 116.94532 120.29091 116.94532 121.24635 C 116.94532 122.19444 116.802 123.00673 116.51537 123.68289 C 116.23609 124.35904 115.83571 124.87369 115.31389 125.22646 C 114.79208 125.57924 114.18224 125.75563 113.48403 125.75563 C 112.80787 125.75563 112.20854 125.58625 111.68672 125.24817 C 111.17226 124.90274 110.76837 124.39563 110.47439 123.72681 C 110.18041 123.05066 110.03308 122.23136 110.03308 121.26857 C 110.03308 120.30578 110.18041 119.48998 110.47439 118.82117 C 110.77572 118.14502 111.18362 117.6379 111.69809 117.29982 C 112.2199 116.95438 112.8112 116.7815 113.47266 116.7815 z " />
  </g>
</svg>
