<?xml version="1.0" encoding="UTF-8" standalone="no"?>
<!-- Created with Inkscape (http://www.inkscape.org/) -->

<svg
   width="720"
   height="720"
   viewBox="0 0 190.5 190.5"
   version="1.1"
   id="svg5"
   sodipodi:docname="7K.svg"
   inkscape:version="1.2.1 (9c6d41e410, 2022-07-14)"
   xmlns:inkscape="http://www.inkscape.org/namespaces/inkscape"
   xmlns:sodipodi="http://sodipodi.sourceforge.net/DTD/sodipodi-0.dtd"
   xmlns="http://www.w3.org/2000/svg"
   xmlns:svg="http://www.w3.org/2000/svg">
  <sodipodi:namedview
     id="namedview7"
     pagecolor="#ffffff"
     bordercolor="#000000"
     borderopacity="0.25"
     inkscape:showpageshadow="2"
     inkscape:pageopacity="0.0"
     inkscape:pagecheckerboard="0"
     inkscape:deskcolor="#d1d1d1"
     inkscape:document-units="mm"
     showgrid="true"
     inkscape:zoom="1.0255231"
     inkscape:cx="342.75192"
     inkscape:cy="365.66705"
     inkscape:window-width="1520"
     inkscape:window-height="1030"
     inkscape:window-x="10"
     inkscape:window-y="1"
     inkscape:window-maximized="0"
     inkscape:current-layer="layer1">
    <inkscape:grid
       type="xygrid"
       id="grid9"
       spacingx="19.05"
       spacingy="19.05" />
  </sodipodi:namedview>
  <defs
     id="defs2" />
  <g
     inkscape:label="Ebene 1"
     inkscape:groupmode="layer"
     id="layer1">
    <path
       id="path1241"
       style="font-size:22.5778px;font-family:'Arial Nova';-inkscape-font-specification:'Arial Nova';stroke-width:0.264583"
       d="M 63.910311 62.712968 L 63.910311 78.874772 L 66.049198 78.874772 L 66.049198 72.976424 L 68.353451 70.584322 L 73.689042 78.874772 L 76.257878 78.874772 L 69.79729 69.118262 L 75.981925 62.712968 L 73.215169 62.712968 L 66.049198 70.45203 L 66.049198 62.712968 L 63.910311 62.712968 z M 115.32526 62.820455 L 115.32526 78.982259 L 117.46363 78.982259 L 117.46363 73.084428 L 119.76788 70.691809 L 125.10347 78.982259 L 127.67231 78.982259 L 121.21224 69.225749 L 127.39687 62.820455 L 124.6296 62.820455 L 117.46363 70.559517 L 117.46363 62.820455 L 115.32526 62.820455 z M 39.52937 86.964201 L 39.52937 103.12601 L 41.667741 103.12601 L 41.667741 97.227657 L 43.971993 94.835555 L 49.307585 103.12601 L 51.87642 103.12601 L 45.416349 93.369495 L 51.600985 86.964201 L 48.833712 86.964201 L 41.667741 94.703263 L 41.667741 86.964201 L 39.52937 86.964201 z M 91.115885 87.235502 L 91.115885 103.39679 L 93.254256 103.39679 L 93.254256 97.498958 L 95.558508 95.106856 L 100.8941 103.39679 L 103.46294 103.39679 L 97.002865 93.640279 L 103.1875 87.235502 L 100.42023 87.235502 L 93.254256 94.974565 L 93.254256 87.235502 L 91.115885 87.235502 z M 138.65304 87.235502 L 138.65304 103.39679 L 140.79192 103.39679 L 140.79192 97.498958 L 143.09618 95.106856 L 148.43177 103.39679 L 151.0006 103.39679 L 144.54001 93.640279 L 150.72465 87.235502 L 147.95789 87.235502 L 140.79192 94.974565 L 140.79192 87.235502 L 138.65304 87.235502 z M 64.191947 110.9369 L 64.191947 127.0987 L 66.330318 127.0987 L 66.330318 121.20087 L 68.63457 118.80825 L 73.970162 127.0987 L 76.538997 127.0987 L 70.078927 117.34219 L 76.263562 110.9369 L 73.496289 110.9369 L 66.330318 118.67596 L 66.330318 110.9369 L 64.191947 110.9369 z M 115.09323 110.94982 L 115.09323 127.11162 L 117.23212 127.11162 L 117.23212 121.21327 L 119.53637 118.82117 L 124.87196 127.11162 L 127.4408 127.11162 L 120.98021 117.35511 L 127.16485 110.94982 L 124.39809 110.94982 L 117.23212 118.68888 L 117.23212 110.94982 L 115.09323 110.94982 z " />
  </g>
</svg>
