<?xml version="1.0" encoding="UTF-8" standalone="no"?>
<!-- Created with Inkscape (http://www.inkscape.org/) -->

<svg
   width="720"
   height="720"
   viewBox="0 0 190.5 190.5"
   version="1.1"
   id="svg5"
   sodipodi:docname="7nine.svg"
   inkscape:version="1.2.1 (9c6d41e410, 2022-07-14)"
   xmlns:inkscape="http://www.inkscape.org/namespaces/inkscape"
   xmlns:sodipodi="http://sodipodi.sourceforge.net/DTD/sodipodi-0.dtd"
   xmlns="http://www.w3.org/2000/svg"
   xmlns:svg="http://www.w3.org/2000/svg">
  <sodipodi:namedview
     id="namedview7"
     pagecolor="#ffffff"
     bordercolor="#000000"
     borderopacity="0.25"
     inkscape:showpageshadow="2"
     inkscape:pageopacity="0.0"
     inkscape:pagecheckerboard="0"
     inkscape:deskcolor="#d1d1d1"
     inkscape:document-units="mm"
     showgrid="true"
     inkscape:zoom="1.0255231"
     inkscape:cx="572.87838"
     inkscape:cy="365.1795"
     inkscape:window-width="1920"
     inkscape:window-height="1001"
     inkscape:window-x="-9"
     inkscape:window-y="-9"
     inkscape:window-maximized="1"
     inkscape:current-layer="layer1">
    <inkscape:grid
       type="xygrid"
       id="grid9"
       spacingx="19.05"
       spacingy="19.05" />
  </sodipodi:namedview>
  <defs
     id="defs2" />
  <g
     inkscape:label="Ebene 1"
     inkscape:groupmode="layer"
     id="layer1">
    <path
       id="path766"
       style="font-size:22.5778px;font-family:'Arial Nova';-inkscape-font-specification:'Arial Nova';stroke-width:0.264583"
       d="m 62.477323,62.712972 v 2.248958 h 1.984375 v -2.248958 z m 51.414437,0.107487 v 2.248958 h 1.98437 v -2.248958 z m -58.535966,4.092773 c -0.757002,0 -1.448031,0.168868 -2.072741,0.506946 -0.617362,0.338079 -1.120977,0.8011 -1.510503,1.389063 v -1.631425 h -1.852083 v 11.69696 h 1.984375 v -6.515364 c 0,-1.300868 0.272106,-2.248959 0.815971,-2.844271 0.551215,-0.595312 1.319414,-0.892969 2.304252,-0.892969 0.779051,0 1.381368,0.220486 1.807642,0.661458 0.426273,0.440973 0.639754,1.087387 0.639754,1.939934 v 7.651212 h 1.984375 V 70.95898 c 0,-1.300868 -0.345773,-2.30006 -1.036629,-2.998266 -0.690857,-0.698206 -1.712098,-1.047482 -3.064413,-1.047482 z m 17.605644,0 c -0.757003,0 -1.448032,0.168868 -2.072742,0.506946 -0.617361,0.338079 -1.120459,0.8011 -1.509985,1.389063 v -1.631425 h -1.852083 v 11.69696 h 1.984375 v -6.515364 c 0,-1.300868 0.271588,-2.248959 0.815454,-2.844271 0.551215,-0.595312 1.319413,-0.892969 2.304252,-0.892969 0.77905,0 1.381885,0.220486 1.808158,0.661458 0.426273,0.440973 0.639238,1.087387 0.639238,1.939934 v 7.651212 H 77.06248 V 70.95898 c 0,-1.300868 -0.345256,-2.30006 -1.036113,-2.998266 -0.690856,-0.698206 -1.712614,-1.047482 -3.064929,-1.047482 z m 11.862325,0 c -1.11713,0 -2.091288,0.253559 -2.921785,0.760677 -0.823148,0.507118 -1.455037,1.2272 -1.896009,2.160592 -0.440972,0.933391 -0.661458,2.028817 -0.661458,3.285588 0,1.220023 0.223989,2.285361 0.67231,3.196704 0.448322,0.903993 1.084229,1.602543 1.907377,2.094962 0.830498,0.492419 1.80414,0.738457 2.921269,0.738457 1.27147,0 2.359374,-0.327227 3.263367,-0.981336 0.911343,-0.661458 1.532206,-1.583481 1.862935,-2.766756 l -1.939933,-0.297656 c -0.213137,0.727604 -0.595485,1.311892 -1.1467,1.752864 -0.543866,0.440972 -1.190798,0.661459 -1.94045,0.661459 -0.683507,0 -1.285825,-0.154341 -1.807642,-0.463021 -0.514468,-0.316031 -0.922367,-0.772047 -1.223698,-1.367359 -0.301327,-0.602662 -0.474214,-1.322744 -0.518314,-2.160591 h 8.753471 v -0.407727 c 0,-1.308218 -0.216984,-2.429194 -0.650607,-3.362586 -0.433622,-0.933391 -1.050983,-1.638947 -1.852083,-2.116666 -0.801099,-0.48507 -1.741668,-0.727605 -2.82205,-0.727605 z m 21.946467,0.107487 c -0.75701,0 -1.44804,0.169385 -2.07274,0.507463 -0.61737,0.338079 -1.12047,0.8011 -1.50999,1.389062 v -1.631941 h -1.85208 v 11.69696 h 1.98437 v -6.515364 c 0,-1.300869 0.27159,-2.248959 0.81546,-2.844271 0.55121,-0.595312 1.31941,-0.892969 2.30425,-0.892969 0.77905,0 1.38188,0.220486 1.80816,0.661458 0.42627,0.440973 0.63923,1.087904 0.63923,1.94045 v 7.650696 h 1.98438 v -7.915279 c 0,-1.300868 -0.34526,-2.300577 -1.03611,-2.998783 -0.69086,-0.698206 -1.71262,-1.047482 -3.06493,-1.047482 z m 17.60564,0 c -0.757,0 -1.44751,0.169385 -2.07222,0.507463 -0.61736,0.338079 -1.12098,0.8011 -1.51051,1.389062 v -1.631941 h -1.85208 v 11.69696 h 1.98438 v -6.515364 c 0,-1.300869 0.2721,-2.248959 0.81597,-2.844271 0.55122,-0.595312 1.3189,-0.892969 2.30373,-0.892969 0.77905,0 1.38189,0.220486 1.80816,0.661458 0.42627,0.440973 0.63924,1.087904 0.63924,1.94045 v 7.650696 h 1.98437 v -7.915279 c 0,-1.300868 -0.34525,-2.300577 -1.03611,-2.998783 -0.69085,-0.698206 -1.71261,-1.047482 -3.06493,-1.047482 z m 11.86233,0 c -1.11714,0 -2.09077,0.253559 -2.92127,0.760677 -0.82315,0.507118 -1.45556,1.227717 -1.89653,2.161109 -0.44097,0.933391 -0.66146,2.0283 -0.66146,3.285071 0,1.220023 0.22451,2.285878 0.67283,3.19722 0.44833,0.903994 1.08372,1.602027 1.90686,2.094446 0.8305,0.492419 1.80465,0.738456 2.92179,0.738456 1.27146,0 2.35885,-0.32671 3.26285,-0.980818 0.91134,-0.661458 1.53272,-1.583998 1.86345,-2.767273 l -1.94045,-0.297656 c -0.21313,0.727604 -0.59548,1.311892 -1.1467,1.752864 -0.54387,0.440972 -1.19028,0.661459 -1.93993,0.661459 -0.68351,0 -1.28635,-0.154341 -1.80816,-0.463021 -0.51448,-0.31603 -0.92237,-0.771529 -1.2237,-1.366842 -0.30137,-0.602662 -0.47425,-1.323261 -0.51832,-2.161108 h 8.75348 v -0.407727 c 0,-1.308218 -0.21647,-2.429194 -0.65009,-3.362586 -0.43363,-0.933391 -1.05151,-1.638947 -1.8526,-2.116667 -0.8011,-0.485069 -1.74168,-0.727604 -2.82205,-0.727604 z m -73.760877,0.157097 v 11.69696 h 1.984375 v -11.69696 z m 51.414437,0.107487 v 11.69696 h 1.98437 v -11.69696 z m -29.090218,1.248502 c 0.926042,0 1.668173,0.290135 2.226738,0.870748 0.565914,0.580614 0.907667,1.411455 1.02526,2.491838 h -6.592362 c 0.08819,-0.668808 0.283129,-1.257116 0.58446,-1.764234 0.308681,-0.507118 0.698034,-0.899973 1.168404,-1.179256 0.47037,-0.279282 0.999537,-0.419096 1.5875,-0.419096 z m 51.414428,0.107487 c 0.92604,0 1.66869,0.290651 2.22726,0.871265 0.56591,0.580613 0.90767,1.410938 1.02526,2.491321 h -6.59288 c 0.0882,-0.668808 0.28313,-1.256599 0.58446,-1.763717 0.30868,-0.507118 0.69803,-0.90049 1.1684,-1.179773 0.47037,-0.279282 0.99954,-0.419096 1.5875,-0.419096 z M 38.095866,86.964205 v 2.248958 h 1.984375 v -2.248958 z m 51.586515,0.271301 v 2.248958 h 1.984375 v -2.248958 z m 47.537669,0 v 2.248958 h 1.98437 V 87.235506 Z M 30.974337,91.164465 c -0.757002,0 -1.448031,0.168868 -2.072742,0.506946 -0.617361,0.338079 -1.12046,0.8011 -1.509985,1.389063 v -1.631425 h -1.852084 v 11.696961 h 1.984375 v -6.515366 c 0,-1.300868 0.271589,-2.249474 0.815454,-2.844787 0.551216,-0.595312 1.319414,-0.892969 2.304253,-0.892969 0.77905,0 1.381884,0.220486 1.808158,0.661458 0.426273,0.440973 0.639237,1.087905 0.639237,1.94045 v 7.651214 h 1.984375 v -7.915797 c 0,-1.300868 -0.345255,-2.300577 -1.036112,-2.998783 -0.690857,-0.698206 -1.712615,-1.046965 -3.064929,-1.046965 z m 17.605643,0 c -0.757002,0 -1.447514,0.168868 -2.072224,0.506946 -0.617362,0.338079 -1.120977,0.8011 -1.510503,1.389063 V 91.429049 H 43.14517 v 11.696961 h 1.984375 v -6.515366 c 0,-1.300868 0.272105,-2.249474 0.815971,-2.844787 0.551215,-0.595312 1.318897,-0.892969 2.303735,-0.892969 0.779051,0 1.381885,0.220486 1.808159,0.661458 0.426273,0.440973 0.639237,1.087905 0.639237,1.94045 v 7.651214 h 1.984375 v -7.915797 c 0,-1.300868 -0.345256,-2.300577 -1.036112,-2.998783 -0.690857,-0.698206 -1.712615,-1.046965 -3.06493,-1.046965 z m 11.862326,0 c -1.11713,0 -2.090771,0.25356 -2.921269,0.760677 -0.823148,0.507119 -1.455553,1.2272 -1.896525,2.160592 -0.440973,0.933391 -0.661459,2.028817 -0.661459,3.285588 0,1.220023 0.224506,2.285361 0.672828,3.196708 0.448321,0.90399 1.083711,1.60254 1.90686,2.09496 0.830498,0.49242 1.804656,0.73846 2.921785,0.73846 1.27147,0 2.358858,-0.32723 3.26285,-0.98134 0.911343,-0.66146 1.532723,-1.58348 1.863452,-2.766757 l -1.94045,-0.297656 c -0.213136,0.727603 -0.595484,1.311893 -1.1467,1.752863 -0.543865,0.44098 -1.19028,0.66146 -1.939933,0.66146 -0.683507,0 -1.286341,-0.15434 -1.808158,-0.46302 -0.514468,-0.31603 -0.922367,-0.77204 -1.223698,-1.367357 -0.301335,-0.602665 -0.474221,-1.322747 -0.518315,-2.160594 h 8.753471 v -0.407727 c 0,-1.308218 -0.216467,-2.429194 -0.650089,-3.362586 C 64.683333,93.075345 64.065455,92.369789 63.264355,91.892069 62.463256,91.407 61.522688,91.164465 60.442306,91.164465 Z m -22.34644,0.264584 v 11.696961 h 1.984375 V 91.429049 Z m 44.464986,0.0067 c -0.757003,0 -1.448031,0.168867 -2.072742,0.506945 -0.617361,0.338079 -1.12046,0.8011 -1.509985,1.389063 v -1.631425 h -1.852083 v 11.696448 h 1.984375 v -6.515369 c 0,-1.300868 0.271588,-2.248958 0.815454,-2.844271 0.551215,-0.595312 1.319414,-0.892969 2.304252,-0.892969 0.779051,0 1.381885,0.220486 1.808158,0.661459 0.426273,0.440972 0.639238,1.087904 0.639238,1.94045 v 7.6507 h 1.984375 v -7.915284 c 0,-1.300868 -0.345257,-2.300577 -1.036113,-2.998783 -0.690856,-0.698206 -1.712614,-1.046964 -3.064929,-1.046964 z m 17.605648,0 c -0.757007,0 -1.447518,0.168867 -2.072229,0.506945 -0.617362,0.338079 -1.120977,0.8011 -1.510502,1.389063 v -1.631425 h -1.852084 v 11.696448 h 1.984375 v -6.515369 c 0,-1.300868 0.272105,-2.248958 0.815971,-2.844271 0.551216,-0.595312 1.318898,-0.892969 2.303736,-0.892969 0.779053,0 1.381883,0.220486 1.808153,0.661459 0.42628,0.440972 0.63924,1.087904 0.63924,1.94045 v 7.6507 h 1.98438 v -7.915284 c 0,-1.300868 -0.34526,-2.300577 -1.03612,-2.998783 -0.69085,-0.698206 -1.71261,-1.046964 -3.06492,-1.046964 z m 11.86232,0 c -1.11712,0 -2.09077,0.253559 -2.92127,0.760677 -0.82314,0.507118 -1.45555,1.2272 -1.89652,2.160591 -0.44098,0.933392 -0.66146,2.0283 -0.66146,3.285071 0,1.220023 0.22451,2.285875 0.67283,3.197222 0.44832,0.90399 1.0837,1.60203 1.90686,2.09445 0.8305,0.49242 1.80466,0.73898 2.92178,0.73898 1.27147,0 2.35938,-0.32723 3.26337,-0.98134 0.91134,-0.66147 1.53221,-1.584 1.86293,-2.767277 l -1.94045,-0.29766 c -0.21314,0.727607 -0.59548,1.311897 -1.1467,1.752867 -0.54386,0.44097 -1.19028,0.66146 -1.93993,0.66146 -0.68351,0 -1.28634,-0.15435 -1.80816,-0.46302 -0.51446,-0.31603 -0.92236,-0.77153 -1.2237,-1.36685 -0.30136,-0.602657 -0.47424,-1.322741 -0.51831,-2.160588 h 8.75347 v -0.408244 c 0,-1.308217 -0.21698,-2.428677 -0.65061,-3.362069 -0.43362,-0.933391 -1.05046,-1.638946 -1.85156,-2.116666 -0.8011,-0.485069 -1.74218,-0.727604 -2.82257,-0.727604 z m 18.0697,0 c -0.75701,0 -1.44804,0.168867 -2.07274,0.506945 -0.61737,0.338079 -1.12047,0.8011 -1.50999,1.389063 v -1.631425 h -1.85208 v 11.696448 h 1.98437 v -6.515369 c 0,-1.300868 0.27159,-2.248958 0.81546,-2.844271 0.55121,-0.595312 1.31941,-0.892969 2.30425,-0.892969 0.77905,0 1.38189,0.220486 1.80816,0.661459 0.42627,0.440972 0.63924,1.087904 0.63924,1.94045 v 7.6507 h 1.98437 v -7.915284 c 0,-1.300868 -0.34526,-2.300577 -1.03611,-2.998783 -0.69086,-0.698206 -1.71262,-1.046964 -3.06493,-1.046964 z m 17.60564,0 c -0.757,0 -1.44751,0.168867 -2.07222,0.506945 -0.61736,0.338079 -1.12098,0.8011 -1.5105,1.389063 v -1.631425 h -1.85209 v 11.696448 h 1.98438 v -6.515369 c 0,-1.300868 0.2721,-2.248958 0.81597,-2.844271 0.55122,-0.595312 1.3189,-0.892969 2.30373,-0.892969 0.77906,0 1.38189,0.220486 1.80816,0.661459 0.42627,0.440972 0.63924,1.087904 0.63924,1.94045 v 7.6507 h 1.98437 v -7.915284 c 0,-1.300868 -0.34525,-2.300577 -1.03611,-2.998783 -0.69085,-0.698206 -1.71261,-1.046964 -3.06493,-1.046964 z m 11.86233,0 c -1.11713,0 -2.09077,0.253559 -2.92127,0.760677 -0.82315,0.507118 -1.45555,1.2272 -1.89653,2.160591 -0.44097,0.933392 -0.66145,2.0283 -0.66145,3.285071 0,1.220023 0.2245,2.285875 0.67282,3.197222 0.44832,0.90399 1.08372,1.60203 1.90686,2.09445 0.8305,0.49242 1.80466,0.73898 2.92179,0.73898 1.27146,0 2.35886,-0.32723 3.26285,-0.98134 0.91134,-0.66147 1.53272,-1.584 1.86345,-2.767277 l -1.94045,-0.29766 c -0.21313,0.727607 -0.59549,1.311897 -1.1467,1.752867 -0.54387,0.44097 -1.19028,0.66146 -1.93993,0.66146 -0.68352,0 -1.28635,-0.15435 -1.80816,-0.46302 -0.51447,-0.31603 -0.92237,-0.77153 -1.2237,-1.36685 -0.30136,-0.602657 -0.47425,-1.322741 -0.51831,-2.160588 h 8.75347 v -0.408244 c 0,-1.308217 -0.21699,-2.428677 -0.65061,-3.362069 -0.43363,-0.933391 -1.05098,-1.638946 -1.85208,-2.116666 -0.8011,-0.485069 -1.74167,-0.727604 -2.82205,-0.727604 z m -69.884109,0.264583 v 11.696448 h 1.984375 V 91.70035 Z m 47.537669,0 v 11.696448 h 1.98437 V 91.70035 Z M 60.420085,92.78502 c 0.926041,0 1.668689,0.290135 2.227254,0.870748 0.565915,0.580613 0.907668,1.411455 1.02526,2.491838 H 57.07972 c 0.08819,-0.668808 0.283129,-1.257116 0.584461,-1.764234 0.308681,-0.507118 0.698033,-0.90049 1.168404,-1.179773 0.47037,-0.279282 0.999537,-0.418579 1.5875,-0.418579 z m 51.586515,0.271301 c 0.92605,0 1.66869,0.290135 2.22725,0.870748 0.56592,0.580614 0.90767,1.410939 1.02526,2.491321 h -6.59287 c 0.0882,-0.668808 0.28312,-1.256598 0.58446,-1.763717 0.30868,-0.507118 0.69803,-0.90049 1.1684,-1.179772 0.47037,-0.279283 0.99954,-0.41858 1.5875,-0.41858 z m 47.53767,0 c 0.92604,0 1.66868,0.290135 2.22725,0.870748 0.56591,0.580614 0.90767,1.410939 1.02526,2.491321 h -6.59288 c 0.0882,-0.668808 0.28313,-1.256598 0.58446,-1.763717 0.30868,-0.507118 0.69803,-0.90049 1.16841,-1.179772 0.47036,-0.279283 0.99953,-0.41858 1.5875,-0.41858 z M 62.758443,110.93694 v 2.24896 h 1.984375 v -2.24896 z m 50.901807,0.0129 v 2.24896 h 1.98437 v -2.24896 z m -58.023336,4.18734 c -0.757002,0 -1.448031,0.16938 -2.072742,0.50746 -0.617361,0.33807 -1.120459,0.8011 -1.509985,1.38906 v -1.63194 h -1.852083 v 11.69696 h 1.984375 v -6.51536 c 0,-1.30087 0.271588,-2.24896 0.815454,-2.84427 0.551215,-0.59532 1.319414,-0.89297 2.304252,-0.89297 0.77905,0 1.381885,0.22048 1.808158,0.66146 0.426273,0.44096 0.639238,1.08789 0.639238,1.94045 v 7.65069 h 1.984375 v -7.91528 c 0,-1.30086 -0.345256,-2.30057 -1.036113,-2.99878 -0.690856,-0.69821 -1.712614,-1.04748 -3.064929,-1.04748 z m 17.605644,0 c -0.757002,0 -1.447514,0.16938 -2.072225,0.50746 -0.617362,0.33807 -1.120977,0.8011 -1.510502,1.38906 v -1.63194 h -1.852084 v 11.69696 h 1.984375 v -6.51536 c 0,-1.30087 0.272105,-2.24896 0.815971,-2.84427 0.551215,-0.59532 1.318897,-0.89297 2.303736,-0.89297 0.77905,0 1.381884,0.22048 1.808158,0.66146 0.426273,0.44096 0.639237,1.08789 0.639237,1.94045 v 7.65069 h 1.984375 v -7.91528 c 0,-1.30086 -0.345255,-2.30057 -1.036112,-2.99878 -0.690856,-0.69821 -1.712614,-1.04748 -3.064929,-1.04748 z m 11.862325,0 c -1.11713,0 -2.090771,0.25356 -2.921269,0.76068 -0.823148,0.50711 -1.455553,1.22771 -1.896525,2.1611 -0.440972,0.9334 -0.661458,2.0283 -0.661458,3.28507 0,1.22002 0.224505,2.28588 0.672827,3.19723 0.448321,0.90399 1.083712,1.60202 1.90686,2.09444 0.830498,0.49242 1.804656,0.73846 2.921786,0.73846 1.27147,0 2.358857,-0.32671 3.26285,-0.98082 0.911342,-0.66145 1.532723,-1.584 1.863452,-2.76727 l -1.94045,-0.29766 c -0.213137,0.72761 -0.595485,1.31189 -1.1467,1.75286 -0.543866,0.44098 -1.190281,0.66146 -1.939934,0.66146 -0.683507,0 -1.286341,-0.15434 -1.808158,-0.46302 -0.514467,-0.31603 -0.922367,-0.77153 -1.223698,-1.36684 -0.301328,-0.60266 -0.474215,-1.32326 -0.518314,-2.16111 h 8.75347 v -0.40773 c 0,-1.30821 -0.216984,-2.42919 -0.650606,-3.36258 -0.433623,-0.93339 -1.050983,-1.63895 -1.852083,-2.11667 -0.801099,-0.48506 -1.741668,-0.7276 -2.82205,-0.7276 z m 21.433837,0.0129 c -0.757,0 -1.44803,0.16886 -2.07275,0.50694 -0.61735,0.33808 -1.12097,0.80111 -1.5105,1.38907 v -1.63143 h -1.85208 v 11.69696 h 1.98437 v -6.51536 c 0,-1.30087 0.27211,-2.24896 0.81598,-2.84427 0.55121,-0.59532 1.31941,-0.89297 2.30425,-0.89297 0.77905,0 1.38137,0.22048 1.80764,0.66146 0.42627,0.44097 0.63975,1.08738 0.63975,1.93993 v 7.65121 h 1.98438 v -7.91579 c 0,-1.30087 -0.34577,-2.30007 -1.03663,-2.99827 -0.69085,-0.69821 -1.71209,-1.04748 -3.06441,-1.04748 z m 17.60564,0 c -0.75701,0 -1.44803,0.16886 -2.07274,0.50694 -0.61736,0.33808 -1.12046,0.80111 -1.50999,1.38907 v -1.63143 h -1.85208 v 11.69696 h 1.98437 v -6.51536 c 0,-1.30087 0.27159,-2.24896 0.81546,-2.84427 0.55122,-0.59532 1.31941,-0.89297 2.30425,-0.89297 0.77905,0 1.38189,0.22048 1.80816,0.66146 0.42627,0.44097 0.63924,1.08738 0.63924,1.93993 v 7.65121 h 1.98437 v -7.91579 c 0,-1.30087 -0.34526,-2.30007 -1.03611,-2.99827 -0.69086,-0.69821 -1.71262,-1.04748 -3.06493,-1.04748 z m 11.86233,0 c -1.11714,0 -2.0913,0.25355 -2.92179,0.76067 -0.82315,0.50712 -1.45504,1.2272 -1.89601,2.1606 -0.44097,0.93339 -0.66146,2.02881 -0.66146,3.28558 0,1.22003 0.22399,2.28537 0.67231,3.19671 0.44832,0.90399 1.08423,1.60254 1.90738,2.09496 0.8305,0.49242 1.80414,0.73846 2.92127,0.73846 1.27147,0 2.35937,-0.32723 3.26337,-0.98134 0.91134,-0.66146 1.5322,-1.58348 1.86293,-2.76676 l -1.93993,-0.29765 c -0.21314,0.7276 -0.59549,1.31189 -1.1467,1.75286 -0.54387,0.44098 -1.1908,0.66146 -1.94045,0.66146 -0.68351,0 -1.28582,-0.15434 -1.80764,-0.46302 -0.51447,-0.31603 -0.92237,-0.77204 -1.2237,-1.36736 -0.30136,-0.60266 -0.47425,-1.32274 -0.51832,-2.16059 h 8.75347 v -0.40773 c 0,-1.30822 -0.21698,-2.42919 -0.6506,-3.36258 -0.43362,-0.93339 -1.05099,-1.63895 -1.85208,-2.11667 -0.80111,-0.48506 -1.74168,-0.7276 -2.82205,-0.7276 z m -73.248247,0.25166 v 11.69696 h 1.984375 v -11.69696 z m 50.901807,0.0129 v 11.69696 h 1.98437 v -11.69696 z m -28.577588,1.34307 c 0.926041,0 1.668689,0.29065 2.227254,0.87127 0.565914,0.58061 0.907668,1.41093 1.025261,2.49132 h -6.59288 c 0.08819,-0.66881 0.28313,-1.2566 0.584461,-1.76372 0.308681,-0.50712 0.698034,-0.90049 1.168404,-1.17977 0.47037,-0.27929 0.999537,-0.4191 1.5875,-0.4191 z m 50.901798,0.0129 c 0.92605,0 1.66818,0.29014 2.22674,0.87075 0.56592,0.58061 0.90768,1.41145 1.02526,2.49184 h -6.59236 c 0.0882,-0.66881 0.28313,-1.25712 0.58446,-1.76424 0.30868,-0.50712 0.69803,-0.89997 1.1684,-1.17925 0.47038,-0.27929 0.99955,-0.4191 1.5875,-0.4191 z" />
  </g>
</svg>
