<?xml version="1.0" encoding="UTF-8" standalone="no"?>
<!-- Created with Inkscape (http://www.inkscape.org/) -->

<svg
   width="720"
   height="720"
   viewBox="0 0 190.5 190.5"
   version="1.1"
   id="svg5"
   sodipodi:docname="8P.svg"
   inkscape:version="1.2.1 (9c6d41e410, 2022-07-14)"
   xmlns:inkscape="http://www.inkscape.org/namespaces/inkscape"
   xmlns:sodipodi="http://sodipodi.sourceforge.net/DTD/sodipodi-0.dtd"
   xmlns="http://www.w3.org/2000/svg"
   xmlns:svg="http://www.w3.org/2000/svg">
  <sodipodi:namedview
     id="namedview7"
     pagecolor="#ffffff"
     bordercolor="#000000"
     borderopacity="0.25"
     inkscape:showpageshadow="2"
     inkscape:pageopacity="0.0"
     inkscape:pagecheckerboard="0"
     inkscape:deskcolor="#d1d1d1"
     inkscape:document-units="mm"
     showgrid="true"
     inkscape:zoom="1.0255231"
     inkscape:cx="342.75192"
     inkscape:cy="395.89553"
     inkscape:window-width="1520"
     inkscape:window-height="1030"
     inkscape:window-x="10"
     inkscape:window-y="1"
     inkscape:window-maximized="0"
     inkscape:current-layer="layer1">
    <inkscape:grid
       type="xygrid"
       id="grid9"
       spacingx="19.05"
       spacingy="19.05" />
  </sodipodi:namedview>
  <defs
     id="defs2" />
  <g
     inkscape:label="Ebene 1"
     inkscape:groupmode="layer"
     id="layer1">
    <path
       id="path1682"
       style="font-size:22.5778px;font-family:'Arial Nova';-inkscape-font-specification:'Arial Nova';stroke-width:0.264583"
       d="M 40.469364 62.646305 L 40.469364 78.80811 L 42.607735 78.80811 L 42.607735 72.391964 L 46.014246 72.391964 C 47.248968 72.391964 48.311321 72.201048 49.200614 71.818872 C 50.089908 71.436696 50.769396 70.870437 51.239766 70.120785 C 51.717486 69.371132 51.956519 68.460134 51.956519 67.387101 C 51.956519 65.836349 51.449401 64.66025 50.435164 63.859151 C 49.420929 63.050702 47.96572 62.646305 46.069539 62.646305 L 40.469364 62.646305 z M 92.05588 62.917607 L 92.05588 79.079411 L 94.19425 79.079411 L 94.19425 72.663265 L 97.600761 72.663265 C 98.835483 72.663265 99.897838 72.471833 100.78713 72.089657 C 101.67643 71.707481 102.35592 71.141738 102.82628 70.392086 C 103.304 69.642433 103.54303 68.730918 103.54303 67.657886 C 103.54303 66.107133 103.03591 64.931552 102.02168 64.130452 C 101.00744 63.322003 99.552235 62.917607 97.656055 62.917607 L 92.05588 62.917607 z M 139.59303 62.917607 L 139.59303 79.079411 L 141.73192 79.079411 L 141.73192 72.663265 L 145.13843 72.663265 C 146.37315 72.663265 147.43499 72.471833 148.32428 72.089657 C 149.21358 71.707481 149.89358 71.141738 150.36395 70.392086 C 150.84167 69.642433 151.0807 68.730918 151.0807 67.657886 C 151.0807 66.107133 150.57358 64.931552 149.55935 64.130452 C 148.54511 63.322003 147.0899 62.917607 145.19372 62.917607 L 139.59303 62.917607 z M 42.607735 64.564535 L 45.992542 64.564535 C 47.271361 64.564535 48.215432 64.800064 48.825444 65.270435 C 49.435455 65.733455 49.740633 66.461059 49.740633 67.453247 C 49.740633 68.467483 49.431952 69.224141 48.814591 69.72391 C 48.20458 70.223678 47.275036 70.473735 46.025614 70.473735 L 42.607735 70.473735 L 42.607735 64.564535 z M 94.19425 64.835836 L 97.579057 64.835836 C 98.857876 64.835836 99.801945 65.070849 100.41196 65.541219 C 101.02196 66.00424 101.32715 66.731844 101.32715 67.724032 C 101.32715 68.738268 101.01847 69.495443 100.40111 69.995211 C 99.791097 70.49498 98.861551 70.745036 97.61213 70.745036 L 94.19425 70.745036 L 94.19425 64.835836 z M 141.73192 64.835836 L 145.11621 64.835836 C 146.39503 64.835836 147.33961 65.070849 147.94963 65.541219 C 148.55963 66.00424 148.86482 66.731844 148.86482 67.724032 C 148.86482 68.738268 148.55613 69.495443 147.93877 69.995211 C 147.32876 70.49498 146.3987 70.745036 145.14928 70.745036 L 141.73192 70.745036 L 141.73192 64.835836 z M 116.38359 87.162122 L 116.38359 103.32393 L 118.52196 103.32393 L 118.52196 96.90778 L 121.92899 96.90778 C 123.16371 96.90778 124.22555 96.716864 125.11484 96.334688 C 126.00414 95.952512 126.68415 95.386253 127.15451 94.636601 C 127.63223 93.886948 127.87075 92.97595 127.87075 91.902917 C 127.87075 90.352165 127.36363 89.176067 126.34939 88.374967 C 125.33515 87.566518 123.87995 87.162122 121.98377 87.162122 L 116.38359 87.162122 z M 65.186719 87.235502 L 65.186719 103.39679 L 67.32509 103.39679 L 67.32509 96.980644 L 70.7316 96.980644 C 71.966323 96.980644 73.028675 96.789728 73.917969 96.407552 C 74.807263 96.025376 75.48675 95.459634 75.957121 94.709981 C 76.43484 93.960328 76.673873 93.048814 76.673873 91.975781 C 76.673873 90.425029 76.166755 89.24893 75.152519 88.447831 C 74.138283 87.639382 72.683074 87.235502 70.786894 87.235502 L 65.186719 87.235502 z M 118.52196 89.080351 L 121.90677 89.080351 C 123.18559 89.080351 124.13018 89.31588 124.74019 89.786251 C 125.3502 90.249272 125.65486 90.976876 125.65486 91.969063 C 125.65486 92.9833 125.34618 93.739957 124.72882 94.239726 C 124.11881 94.739494 123.18926 94.989551 121.93984 94.989551 L 118.52196 94.989551 L 118.52196 89.080351 z M 67.32509 89.153731 L 70.709896 89.153731 C 71.988715 89.153731 72.932786 89.388744 73.542798 89.859115 C 74.152809 90.322135 74.457987 91.049739 74.457987 92.041927 C 74.457987 93.056163 74.149307 93.813338 73.531946 94.313106 C 72.921934 94.812875 71.99239 95.062415 70.742969 95.062415 L 67.32509 95.062415 L 67.32509 89.153731 z M 40.193412 110.69919 L 40.193412 126.86099 L 42.331783 126.86099 L 42.331783 120.44484 L 45.738293 120.44484 C 46.973016 120.44484 48.035368 120.25393 48.924662 119.87175 C 49.813957 119.48958 50.493444 118.92332 50.963814 118.17367 C 51.441534 117.42401 51.680566 116.51301 51.680566 115.43998 C 51.680566 113.88923 51.173448 112.71313 50.159212 111.91203 C 49.144976 111.10358 47.689768 110.69919 45.793587 110.69919 L 40.193412 110.69919 z M 91.779928 110.97049 L 91.779928 127.13229 L 93.918298 127.13229 L 93.918298 120.71615 L 97.324809 120.71615 C 98.559531 120.71615 99.621883 120.52471 100.51118 120.14254 C 101.40047 119.76036 102.07996 119.19462 102.55033 118.44497 C 103.02805 117.69531 103.26708 116.7838 103.26708 115.71077 C 103.26708 114.16001 102.75997 112.98443 101.74573 112.18333 C 100.7315 111.37489 99.276285 110.97049 97.380103 110.97049 L 91.779928 110.97049 z M 139.31708 110.97049 L 139.31708 127.13229 L 141.45597 127.13229 L 141.45597 120.71615 L 144.86248 120.71615 C 146.09719 120.71615 147.15904 120.52471 148.04833 120.14254 C 148.93763 119.76036 149.61763 119.19462 150.088 118.44497 C 150.56572 117.69531 150.80475 116.7838 150.80475 115.71077 C 150.80475 114.16001 150.29763 112.98443 149.28339 112.18333 C 148.26916 111.37489 146.81395 110.97049 144.91777 110.97049 L 139.31708 110.97049 z M 42.331783 112.61742 L 45.716589 112.61742 C 46.995409 112.61742 47.93948 112.85294 48.549491 113.32332 C 49.159503 113.78633 49.464681 114.51394 49.464681 115.50613 C 49.464681 116.52037 49.156001 117.27702 48.538639 117.77679 C 47.928628 118.27656 46.999084 118.52662 45.749662 118.52662 L 42.331783 118.52662 L 42.331783 112.61742 z M 93.918298 112.88872 L 97.303105 112.88872 C 98.581924 112.88872 99.525997 113.12373 100.13601 113.5941 C 100.74602 114.05712 101.0512 114.78472 101.0512 115.77691 C 101.0512 116.79114 100.74251 117.54832 100.12515 118.04809 C 99.515142 118.54786 98.585599 118.79792 97.336178 118.79792 L 93.918298 118.79792 L 93.918298 112.88872 z M 141.45597 112.88872 L 144.84025 112.88872 C 146.11907 112.88872 147.06366 113.12373 147.67367 113.5941 C 148.28368 114.05712 148.58886 114.78472 148.58886 115.77691 C 148.58886 116.79114 148.28018 117.54832 147.66282 118.04809 C 147.05281 118.54786 146.12275 118.79792 144.87333 118.79792 L 141.45597 118.79792 L 141.45597 112.88872 z " />
  </g>
</svg>
