<?xml version="1.0" encoding="UTF-8" standalone="no"?>
<!-- Created with Inkscape (http://www.inkscape.org/) -->

<svg
   width="720"
   height="720"
   viewBox="0 0 190.5 190.5"
   version="1.1"
   id="svg5"
   sodipodi:docname="85.svg"
   inkscape:version="1.2.1 (9c6d41e410, 2022-07-14)"
   xmlns:inkscape="http://www.inkscape.org/namespaces/inkscape"
   xmlns:sodipodi="http://sodipodi.sourceforge.net/DTD/sodipodi-0.dtd"
   xmlns="http://www.w3.org/2000/svg"
   xmlns:svg="http://www.w3.org/2000/svg">
  <sodipodi:namedview
     id="namedview7"
     pagecolor="#ffffff"
     bordercolor="#000000"
     borderopacity="0.25"
     inkscape:showpageshadow="2"
     inkscape:pageopacity="0.0"
     inkscape:pagecheckerboard="0"
     inkscape:deskcolor="#d1d1d1"
     inkscape:document-units="mm"
     showgrid="true"
     inkscape:zoom="1.0255231"
     inkscape:cx="342.75192"
     inkscape:cy="395.89553"
     inkscape:window-width="1520"
     inkscape:window-height="1030"
     inkscape:window-x="10"
     inkscape:window-y="1"
     inkscape:window-maximized="0"
     inkscape:current-layer="layer1">
    <inkscape:grid
       type="xygrid"
       id="grid9"
       spacingx="19.05"
       spacingy="19.05" />
  </sodipodi:namedview>
  <defs
     id="defs2" />
  <g
     inkscape:label="Ebene 1"
     inkscape:groupmode="layer"
     id="layer1">
    <path
       id="path1799"
       style="font-size:22.5778px;font-family:'Arial Nova';-inkscape-font-specification:'Arial Nova';stroke-width:0.264583"
       d="M 42.586031 63.440055 L 41.340112 71.752726 L 43.103829 72.01731 C 43.39781 71.554289 43.816734 71.171941 44.3606 70.87061 C 44.911815 70.569279 45.463031 70.418441 46.014246 70.418441 C 46.661005 70.418441 47.230766 70.569279 47.723185 70.87061 C 48.215605 71.164591 48.597953 71.587017 48.869885 72.138232 C 49.149168 72.689448 49.288464 73.336379 49.288464 74.078682 C 49.288464 74.813636 49.145148 75.478597 48.858516 76.07391 C 48.571885 76.661872 48.171507 77.128912 47.657039 77.474341 C 47.142571 77.81242 46.561786 77.981287 45.915027 77.981287 C 45.099228 77.981287 44.415721 77.724226 43.864506 77.209757 C 43.32064 76.69529 42.960858 75.938115 42.784469 74.938578 L 40.800094 75.247087 C 41.027929 76.658198 41.582647 77.73858 42.464591 78.488232 C 43.346536 79.237886 44.493064 79.612712 45.904175 79.612712 C 47.021304 79.612712 47.994946 79.370177 48.825444 78.885107 C 49.655941 78.400038 50.295351 77.727555 50.743673 76.86766 C 51.191995 76.000414 51.4165 75.008227 51.4165 73.891097 C 51.4165 72.847463 51.199516 71.928943 50.765894 71.135193 C 50.33962 70.341443 49.755332 69.731604 49.013029 69.30533 C 48.278076 68.871708 47.458774 68.654724 46.554781 68.654724 C 45.974168 68.654724 45.429958 68.742919 44.922839 68.919307 C 44.415721 69.095697 43.960222 69.345753 43.555998 69.669132 L 44.206604 65.358285 L 50.644454 65.358285 L 50.644454 63.440055 L 42.586031 63.440055 z M 94.172546 63.711357 L 92.926628 72.023511 L 94.690344 72.288094 C 94.984326 71.825073 95.40325 71.443242 95.947115 71.141911 C 96.498331 70.84058 97.049545 70.689742 97.600761 70.689742 C 98.24752 70.689742 98.817282 70.84058 99.309701 71.141911 C 99.802117 71.435893 100.18447 71.858318 100.4564 72.409534 C 100.73569 72.960748 100.87498 73.60768 100.87498 74.349984 C 100.87498 75.084938 100.73166 75.749898 100.44503 76.345211 C 100.1584 76.933174 99.758022 77.399697 99.243555 77.745125 C 98.729087 78.083204 98.148302 78.252588 97.501542 78.252588 C 96.685744 78.252588 96.002237 77.995009 95.451021 77.480542 C 94.907156 76.966075 94.547373 76.209417 94.370984 75.20988 L 92.386609 75.518388 C 92.614445 76.929499 93.169162 78.009881 94.051107 78.759534 C 94.933051 79.509186 96.079579 79.884013 97.49069 79.884013 C 98.60782 79.884013 99.581459 79.641478 100.41196 79.156409 C 101.24245 78.67134 101.88186 77.998857 102.33019 77.138961 C 102.77851 76.271716 103.00302 75.279528 103.00302 74.162398 C 103.00302 73.118764 102.78603 72.200244 102.35241 71.406494 C 101.92614 70.612744 101.34185 70.002388 100.59954 69.576115 C 99.86459 69.142492 99.045289 68.926025 98.141296 68.926025 C 97.560683 68.926025 97.016473 69.01422 96.509355 69.190609 C 96.002237 69.366998 95.546738 69.616537 95.142513 69.939917 L 95.793119 65.629586 L 102.23097 65.629586 L 102.23097 63.711357 L 94.172546 63.711357 z M 141.7097 63.711357 L 140.46378 72.023511 L 142.22801 72.288094 C 142.52199 71.825073 142.94092 71.443242 143.48478 71.141911 C 144.036 70.84058 144.58721 70.689742 145.13843 70.689742 C 145.78519 70.689742 146.35443 70.84058 146.84685 71.141911 C 147.33927 71.435893 147.72162 71.858318 147.99355 72.409534 C 148.27283 72.960748 148.41265 73.60768 148.41265 74.349984 C 148.41265 75.084938 148.26933 75.749898 147.9827 76.345211 C 147.69607 76.933174 147.29518 77.399697 146.7807 77.745125 C 146.26624 78.083204 145.68597 78.252588 145.03921 78.252588 C 144.22341 78.252588 143.5399 77.995009 142.98869 77.480542 C 142.44482 76.966075 142.08452 76.209417 141.90813 75.20988 L 139.92376 75.518388 C 140.15159 76.929499 140.70631 78.009881 141.58826 78.759534 C 142.4702 79.509186 143.61673 79.884013 145.02784 79.884013 C 146.14497 79.884013 147.11913 79.641478 147.94963 79.156409 C 148.78012 78.67134 149.41954 77.998857 149.86785 77.138961 C 150.31618 76.271716 150.54017 75.279528 150.54017 74.162398 C 150.54017 73.118764 150.32319 72.200244 149.88956 71.406494 C 149.46329 70.612744 148.879 70.002388 148.13669 69.576115 C 147.40174 69.142492 146.58244 68.926025 145.67845 68.926025 C 145.09783 68.926025 144.55414 69.01422 144.04702 69.190609 C 143.53991 69.366998 143.08389 69.616537 142.67966 69.939917 L 143.33027 65.629586 L 149.76864 65.629586 L 149.76864 63.711357 L 141.7097 63.711357 z M 118.50026 87.955872 L 117.25434 96.268542 L 119.01858 96.533126 C 119.31255 96.070105 119.73148 95.687757 120.27535 95.386426 C 120.82656 95.085095 121.37777 94.934257 121.92899 94.934257 C 122.57575 94.934257 123.145 95.085095 123.63741 95.386426 C 124.12983 95.680407 124.51218 96.102833 124.78411 96.654049 C 125.0634 97.205264 125.20321 97.852195 125.20321 98.594499 C 125.20321 99.329453 125.0599 99.994415 124.77326 100.58973 C 124.48663 101.17769 124.08573 101.64473 123.57127 101.99016 C 123.0568 102.32824 122.47653 102.4971 121.82977 102.4971 C 121.01397 102.4971 120.32995 102.24004 119.77874 101.72557 C 119.23487 101.2111 118.87508 100.45393 118.6987 99.454395 L 116.71432 99.762903 C 116.94216 101.17402 117.49688 102.25491 118.37882 103.00457 C 119.26076 103.75422 120.40729 104.12904 121.8184 104.12904 C 122.93554 104.12904 123.90969 103.886 124.74019 103.40092 C 125.57068 102.91586 126.21009 102.24337 126.65842 101.38348 C 127.10674 100.51623 127.33073 99.524041 127.33073 98.406913 C 127.33073 97.363279 127.11374 96.444759 126.68012 95.651009 C 126.25385 94.857259 125.66956 94.24742 124.92726 93.821147 C 124.19231 93.387524 123.373 93.17054 122.46901 93.17054 C 121.8884 93.17054 121.3447 93.258735 120.83759 93.435124 C 120.33047 93.611512 119.87445 93.861569 119.47023 94.184949 L 120.12083 89.874101 L 126.5592 89.874101 L 126.5592 87.955872 L 118.50026 87.955872 z M 67.303385 88.029252 L 66.057467 96.341406 L 67.821183 96.60599 C 68.115164 96.142969 68.534088 95.760621 69.077954 95.45929 C 69.62917 95.157959 70.180385 95.007638 70.7316 95.007638 C 71.378359 95.007638 71.948121 95.157959 72.44054 95.45929 C 72.932959 95.753271 73.315307 96.176214 73.58724 96.727429 C 73.866522 97.278644 74.005819 97.925059 74.005819 98.667362 C 74.005819 99.402316 73.862502 100.06779 73.575871 100.66311 C 73.289239 101.25107 72.888861 101.71759 72.374394 102.06302 C 71.859926 102.4011 71.279141 102.56997 70.632381 102.56997 C 69.816583 102.56997 69.133075 102.3129 68.58186 101.79844 C 68.037994 101.28397 67.678212 100.5268 67.501823 99.527258 L 65.517448 99.836283 C 65.745284 101.24739 66.300001 102.32778 67.181946 103.07743 C 68.06389 103.82708 69.210418 104.20191 70.621529 104.20191 C 71.738659 104.20191 72.7123 103.95937 73.542798 103.4743 C 74.373296 102.98923 75.012705 102.31675 75.461027 101.45686 C 75.909349 100.58961 76.133854 99.597425 76.133854 98.480294 C 76.133854 97.436659 75.916871 96.517623 75.483248 95.723873 C 75.056974 94.930123 74.472687 94.320284 73.730383 93.89401 C 72.99543 93.460388 72.176129 93.243404 71.272135 93.243404 C 70.691522 93.243404 70.147312 93.331599 69.640194 93.507987 C 69.133076 93.684377 68.677576 93.934433 68.273352 94.257812 L 68.923958 89.947481 L 75.361808 89.947481 L 75.361808 88.029252 L 67.303385 88.029252 z M 42.310079 111.49294 L 41.06416 119.80561 L 42.827877 120.07019 C 43.121858 119.60717 43.540782 119.22482 44.084648 118.92349 C 44.635863 118.62216 45.187078 118.47132 45.738293 118.47132 C 46.385052 118.47132 46.954814 118.62216 47.447233 118.92349 C 47.939652 119.21747 48.322 119.63989 48.593933 120.19111 C 48.873215 120.74233 49.012512 121.38926 49.012512 122.13156 C 49.012512 122.86652 48.869197 123.53148 48.582564 124.12679 C 48.295933 124.71475 47.895555 125.18179 47.381087 125.52722 C 46.86662 125.8653 46.285834 126.03417 45.639075 126.03417 C 44.823276 126.03417 44.139769 125.77711 43.588554 125.26264 C 43.044688 124.74817 42.684905 123.991 42.508516 122.99146 L 40.524141 123.29997 C 40.751977 124.71107 41.306695 125.79146 42.188639 126.54111 C 43.070584 127.29077 44.217112 127.66559 45.628223 127.66559 C 46.745353 127.66559 47.718994 127.42306 48.549491 126.93799 C 49.379989 126.45292 50.019398 125.78044 50.467721 124.92054 C 50.916042 124.05329 51.140548 123.06111 51.140548 121.94398 C 51.140548 120.90035 50.923564 119.98182 50.489941 119.18807 C 50.063668 118.39432 49.47938 117.78448 48.737077 117.35821 C 48.002123 116.92459 47.182822 116.7076 46.278829 116.7076 C 45.698216 116.7076 45.154005 116.7958 44.646887 116.97219 C 44.139769 117.14857 43.68427 117.39863 43.280046 117.72201 L 43.930652 113.41117 L 50.368502 113.41117 L 50.368502 111.49294 L 42.310079 111.49294 z M 93.896594 111.76424 L 92.650675 120.07639 L 94.414392 120.34097 C 94.708374 119.87796 95.127297 119.49612 95.671163 119.19479 C 96.222378 118.89346 96.773593 118.74262 97.324809 118.74262 C 97.971567 118.74262 98.541329 118.89346 99.033748 119.19479 C 99.526167 119.48877 99.908515 119.9112 100.18045 120.46241 C 100.45973 121.01363 100.59903 121.66057 100.59903 122.40286 C 100.59903 123.13782 100.45571 123.80278 100.16908 124.39809 C 99.882445 124.98606 99.48207 125.45258 98.967603 125.79801 C 98.453135 126.13609 97.872349 126.30547 97.22559 126.30547 C 96.409791 126.30547 95.726285 126.04789 95.175069 125.53342 C 94.631203 125.01896 94.27142 124.2623 94.095032 123.26276 L 92.110657 123.57127 C 92.338493 124.98238 92.89321 126.06276 93.775155 126.81241 C 94.657099 127.56207 95.803627 127.93689 97.214738 127.93689 C 98.331868 127.93689 99.305511 127.69436 100.13601 127.20929 C 100.96651 126.72422 101.60592 126.05174 102.05424 125.19184 C 102.50256 124.3246 102.72706 123.3324 102.72706 122.21528 C 102.72706 121.17165 102.51008 120.25313 102.07646 119.45937 C 101.65018 118.66562 101.06589 118.05527 100.32359 117.629 C 99.588636 117.19538 98.769337 116.97891 97.865344 116.97891 C 97.284731 116.97891 96.740521 117.0671 96.233403 117.24349 C 95.726284 117.41988 95.270785 117.66942 94.866561 117.9928 L 95.517167 113.68247 L 101.95502 113.68247 L 101.95502 111.76424 L 93.896594 111.76424 z M 141.43374 111.76424 L 140.18783 120.07639 L 141.95206 120.34097 C 142.24604 119.87796 142.66496 119.49612 143.20883 119.19479 C 143.76005 118.89346 144.31126 118.74262 144.86248 118.74262 C 145.50923 118.74262 146.079 118.89346 146.57142 119.19479 C 147.06383 119.48877 147.44567 119.9112 147.7176 120.46241 C 147.99688 121.01363 148.13669 121.66057 148.13669 122.40286 C 148.13669 123.13782 147.99338 123.80278 147.70675 124.39809 C 147.42012 124.98606 147.01923 125.45258 146.50475 125.79801 C 145.99029 126.13609 145.41002 126.30547 144.76326 126.30547 C 143.94746 126.30547 143.26395 126.04789 142.71274 125.53342 C 142.16887 125.01896 141.80857 124.2623 141.63218 123.26276 L 139.64781 123.57127 C 139.87564 124.98238 140.43036 126.06276 141.3123 126.81241 C 142.19425 127.56207 143.34129 127.93689 144.7524 127.93689 C 145.86953 127.93689 146.84317 127.69436 147.67367 127.20929 C 148.50417 126.72422 149.14358 126.05174 149.5919 125.19184 C 150.04023 124.3246 150.26421 123.3324 150.26421 122.21528 C 150.26421 121.17165 150.04775 120.25313 149.61412 119.45937 C 149.18785 118.66562 148.60305 118.05527 147.86074 117.629 C 147.12579 117.19538 146.30649 116.97891 145.40249 116.97891 C 144.82188 116.97891 144.27819 117.0671 143.77107 117.24349 C 143.26396 117.41988 142.80845 117.66942 142.40423 117.9928 L 143.05432 113.68247 L 149.49268 113.68247 L 149.49268 111.76424 L 141.43374 111.76424 z " />
  </g>
</svg>
