<?xml version="1.0" encoding="UTF-8" standalone="no"?>
<!-- Created with Inkscape (http://www.inkscape.org/) -->

<svg
   width="720"
   height="720"
   viewBox="0 0 190.5 190.5"
   version="1.1"
   id="svg5"
   sodipodi:docname="89.svg"
   inkscape:version="1.2.1 (9c6d41e410, 2022-07-14)"
   xmlns:inkscape="http://www.inkscape.org/namespaces/inkscape"
   xmlns:sodipodi="http://sodipodi.sourceforge.net/DTD/sodipodi-0.dtd"
   xmlns="http://www.w3.org/2000/svg"
   xmlns:svg="http://www.w3.org/2000/svg">
  <sodipodi:namedview
     id="namedview7"
     pagecolor="#ffffff"
     bordercolor="#000000"
     borderopacity="0.25"
     inkscape:showpageshadow="2"
     inkscape:pageopacity="0.0"
     inkscape:pagecheckerboard="0"
     inkscape:deskcolor="#d1d1d1"
     inkscape:document-units="mm"
     showgrid="true"
     inkscape:zoom="1.0255231"
     inkscape:cx="342.75192"
     inkscape:cy="395.89553"
     inkscape:window-width="1520"
     inkscape:window-height="1030"
     inkscape:window-x="10"
     inkscape:window-y="1"
     inkscape:window-maximized="0"
     inkscape:current-layer="layer1">
    <inkscape:grid
       type="xygrid"
       id="grid9"
       spacingx="19.05"
       spacingy="19.05" />
  </sodipodi:namedview>
  <defs
     id="defs2" />
  <g
     inkscape:label="Ebene 1"
     inkscape:groupmode="layer"
     id="layer1">
    <path
       id="path1838"
       style="font-size:22.5778px;font-family:'Arial Nova';-inkscape-font-specification:'Arial Nova';stroke-width:0.264583"
       d="M 45.771883 63.175472 C 44.779696 63.175472 43.897752 63.418007 43.12605 63.903076 C 42.361698 64.388146 41.766385 65.046101 41.340112 65.876599 C 40.921189 66.707097 40.711727 67.625617 40.711727 68.632503 C 40.711727 69.617341 40.924691 70.506807 41.350964 71.300557 C 41.777238 72.094307 42.350501 72.71919 43.070756 73.174862 C 43.79836 73.623183 44.599632 73.847172 45.474227 73.847172 C 46.304725 73.847172 47.050875 73.663261 47.712333 73.295785 C 48.381141 72.928308 48.928337 72.399141 49.35461 71.708285 L 49.399052 71.708285 L 49.399052 71.951164 C 49.399052 73.207935 49.240693 74.291819 48.924662 75.203162 C 48.608632 76.107155 48.171679 76.798184 47.613114 77.275903 C 47.05455 77.746274 46.418643 77.981287 45.705737 77.981287 C 44.970784 77.981287 44.371969 77.757298 43.908948 77.308976 C 43.445927 76.853305 43.126222 76.206373 42.949833 75.368526 L 40.987162 75.677035 C 41.112104 76.492834 41.380707 77.198389 41.792281 77.793701 C 42.211205 78.381665 42.743874 78.833661 43.390633 79.149691 C 44.044742 79.458372 44.779868 79.612712 45.595667 79.612712 C 47.477148 79.612712 48.910307 78.881606 49.895146 77.419047 C 50.879983 75.94914 51.372058 73.788376 51.372058 70.936755 C 51.372058 68.401165 50.89451 66.475414 49.939071 65.159847 C 48.99098 63.83693 47.601918 63.175472 45.771883 63.175472 z M 97.358398 63.446773 C 96.366211 63.446773 95.484266 63.689308 94.712565 64.174377 C 93.948213 64.659447 93.352901 65.317403 92.926628 66.1479 C 92.507704 66.978398 92.298242 67.896918 92.298242 68.903805 C 92.298242 69.888642 92.511206 70.778109 92.93748 71.571859 C 93.363753 72.365609 93.937017 72.989975 94.657271 73.445646 C 95.384876 73.893968 96.186148 74.118473 97.060742 74.118473 C 97.89124 74.118473 98.63739 73.934563 99.298848 73.567086 C 99.967654 73.199609 100.51485 72.670442 100.94113 71.979586 L 100.98557 71.979586 L 100.98557 72.221948 C 100.98557 73.478719 100.8272 74.56312 100.51118 75.474463 C 100.19514 76.378456 99.758194 77.068968 99.19963 77.546688 C 98.641065 78.017058 98.005158 78.252588 97.292253 78.252588 C 96.557299 78.252588 95.958484 78.028082 95.495463 77.579761 C 95.032442 77.124089 94.712737 76.477675 94.536348 75.639827 L 92.573678 75.948336 C 92.69862 76.764134 92.967223 77.46969 93.378796 78.065002 C 93.797721 78.652965 94.33039 79.104962 94.977148 79.420992 C 95.631258 79.729672 96.366383 79.884013 97.182182 79.884013 C 99.063665 79.884013 100.49682 79.152906 101.48166 77.690348 C 102.46649 76.220441 102.95857 74.059677 102.95857 71.208057 C 102.95857 68.672467 102.48102 66.746716 101.52559 65.431148 C 100.5775 64.108232 99.188436 63.446773 97.358398 63.446773 z M 144.89555 63.446773 C 143.90336 63.446773 143.02141 63.689308 142.24972 64.174377 C 141.48536 64.659447 140.89005 65.317403 140.46378 66.1479 C 140.04485 66.978398 139.83539 67.896918 139.83539 68.903805 C 139.83539 69.888642 140.04887 70.778109 140.47515 71.571859 C 140.90142 72.365609 141.47468 72.989975 142.19494 73.445646 C 142.92254 73.893968 143.7233 74.118473 144.59789 74.118473 C 145.42839 74.118473 146.17454 73.934563 146.836 73.567086 C 147.5048 73.199609 148.05252 72.670442 148.47879 71.979586 L 148.52272 71.979586 L 148.52272 72.221948 C 148.52272 73.478719 148.36488 74.56312 148.04884 75.474463 C 147.73281 76.378456 147.29534 77.068968 146.73678 77.546688 C 146.17821 78.017058 145.54231 78.252588 144.8294 78.252588 C 144.09445 78.252588 143.49563 78.028082 143.03261 77.579761 C 142.56959 77.124089 142.24989 76.477675 142.0735 75.639827 L 140.11134 75.948336 C 140.23629 76.764134 140.50437 77.46969 140.91595 78.065002 C 141.33487 78.652965 141.86754 79.104962 142.5143 79.420992 C 143.16841 79.729672 143.90353 79.884013 144.71933 79.884013 C 146.60081 79.884013 148.03397 79.152906 149.01881 77.690348 C 150.00365 76.220441 150.49624 74.059677 150.49624 71.208057 C 150.49624 68.672467 150.01818 66.746716 149.06274 65.431148 C 148.11464 64.108232 146.72558 63.446773 144.89555 63.446773 z M 45.794104 64.796045 C 46.418815 64.796045 46.981055 64.968931 47.480823 65.31436 C 47.980592 65.652438 48.373447 66.115459 48.660079 66.703422 C 48.946711 67.284035 49.090027 67.919943 49.090027 68.610799 C 49.090027 69.279607 48.943209 69.881925 48.649227 70.418441 C 48.362595 70.954957 47.973242 71.373881 47.480823 71.675212 C 46.988404 71.969193 46.455217 72.116528 45.881954 72.116528 C 45.271942 72.116528 44.728248 71.965691 44.250529 71.66436 C 43.772809 71.355679 43.401485 70.929234 43.136902 70.385368 C 42.872318 69.834153 42.740027 69.205768 42.740027 68.500212 C 42.740027 67.824054 42.868816 67.20319 43.12605 66.637276 C 43.390634 66.071361 43.754435 65.622868 44.217456 65.292139 C 44.687826 64.96141 45.213491 64.796045 45.794104 64.796045 z M 97.380619 65.067346 C 98.00533 65.067346 98.567569 65.240233 99.067338 65.585661 C 99.567106 65.92374 99.959963 66.386761 100.24659 66.974723 C 100.53323 67.555337 100.67654 68.190727 100.67654 68.881584 C 100.67654 69.550392 100.52972 70.153226 100.23574 70.689742 C 99.949108 71.226258 99.559757 71.645182 99.067338 71.946513 C 98.574919 72.240495 98.041733 72.387313 97.468469 72.387313 C 96.858458 72.387313 96.314764 72.236992 95.837044 71.935661 C 95.359325 71.62698 94.988001 71.200535 94.723417 70.656669 C 94.458834 70.105454 94.326542 69.477068 94.326542 68.771513 C 94.326542 68.095356 94.455331 67.474492 94.712565 66.908577 C 94.977148 66.342663 95.34095 65.894169 95.803971 65.56344 C 96.274342 65.232711 96.800006 65.067346 97.380619 65.067346 z M 144.91777 65.067346 C 145.54248 65.067346 146.10472 65.240233 146.60449 65.585661 C 147.10426 65.92374 147.49763 66.386761 147.78426 66.974723 C 148.07089 67.555337 148.21421 68.190727 148.21421 68.881584 C 148.21421 69.550392 148.06687 70.153226 147.77289 70.689742 C 147.48626 71.226258 147.09691 71.645182 146.60449 71.946513 C 146.11208 72.240495 145.5794 72.387313 145.00614 72.387313 C 144.39612 72.387313 143.85191 72.236992 143.37419 71.935661 C 142.89647 71.62698 142.52567 71.200535 142.26108 70.656669 C 141.9965 70.105454 141.86421 69.477068 141.86421 68.771513 C 141.86421 68.095356 141.99248 67.474492 142.24972 66.908577 C 142.51429 66.342663 142.8781 65.894169 143.34112 65.56344 C 143.81149 65.232711 144.33716 65.067346 144.91777 65.067346 z M 121.68611 87.691288 C 120.69393 87.691288 119.81199 87.933824 119.04028 88.418892 C 118.27593 88.903962 117.68061 89.561918 117.25434 90.392415 C 116.83542 91.222913 116.62596 92.141433 116.62596 93.148319 C 116.62596 94.133158 116.83892 95.022624 117.26519 95.816374 C 117.69147 96.610124 118.26473 97.235006 118.98499 97.690678 C 119.71259 98.138999 120.51386 98.362988 121.38846 98.362988 C 122.21896 98.362988 122.9651 98.179078 123.62656 97.811601 C 124.29537 97.444124 124.84308 96.914957 125.26936 96.224101 L 125.31328 96.224101 L 125.31328 96.46698 C 125.31328 97.723751 125.15543 98.807635 124.83941 99.718978 C 124.52338 100.62297 124.08591 101.314 123.52734 101.79172 C 122.96878 102.26209 122.33287 102.4971 121.61997 102.4971 C 120.88501 102.4971 120.2862 102.27311 119.82318 101.82479 C 119.36016 101.36912 119.04045 100.72219 118.86406 99.884342 L 116.90191 100.19337 C 117.02685 101.00917 117.29494 101.71472 117.70651 102.31003 C 118.12544 102.89799 118.6581 103.34999 119.30486 103.66602 C 119.95897 103.9747 120.6941 104.12904 121.5099 104.12904 C 123.39138 104.12904 124.82454 103.39742 125.80937 101.93486 C 126.79421 100.46495 127.2868 98.304191 127.2868 95.452572 C 127.2868 92.916981 126.80874 90.99123 125.8533 89.675663 C 124.90521 88.352747 123.51615 87.691288 121.68611 87.691288 z M 70.489237 87.764669 C 69.49705 87.764669 68.615106 88.007203 67.843404 88.492273 C 67.079052 88.977342 66.48374 89.634781 66.057467 90.465279 C 65.638543 91.295777 65.429081 92.214814 65.429081 93.2217 C 65.429081 94.206538 65.642046 95.095487 66.068319 95.889237 C 66.494592 96.682987 67.067856 97.307871 67.78811 97.763542 C 68.515714 98.211864 69.316986 98.435852 70.191581 98.435852 C 71.022079 98.435852 71.768229 98.252458 72.429687 97.884981 C 73.098495 97.517504 73.645692 96.988338 74.071965 96.297481 L 74.116406 96.297481 L 74.116406 96.539844 C 74.116406 97.796614 73.958047 98.880499 73.642017 99.791842 C 73.325986 100.69584 72.889034 101.38686 72.330469 101.86458 C 71.771904 102.33495 71.135997 102.56997 70.423092 102.56997 C 69.688138 102.56997 69.089323 102.34598 68.626302 101.89766 C 68.163281 101.44198 67.843577 100.79505 67.667187 99.957206 L 65.704517 100.26623 C 65.829458 101.08203 66.098061 101.78759 66.509635 102.3829 C 66.928559 102.97086 67.461228 103.42285 68.107987 103.73889 C 68.762096 104.04757 69.497222 104.20191 70.313021 104.20191 C 72.194502 104.20191 73.627662 103.47029 74.6125 102.00773 C 75.597338 100.53782 76.089412 98.377056 76.089412 95.525435 C 76.089412 92.989845 75.611865 91.064611 74.656425 89.749044 C 73.708335 88.426127 72.319272 87.764669 70.489237 87.764669 z M 121.70833 89.311861 C 122.33305 89.311861 122.89529 89.484747 123.39505 89.830176 C 123.89482 90.168255 124.28819 90.631276 124.57483 91.219238 C 124.86146 91.799852 125.00477 92.435759 125.00477 93.126615 C 125.00477 93.795423 124.85744 94.397741 124.56346 94.934257 C 124.27682 95.470773 123.88747 95.889697 123.39505 96.191028 C 122.90263 96.485009 122.36945 96.632345 121.79618 96.632345 C 121.18618 96.632345 120.64248 96.481507 120.16476 96.180176 C 119.68704 95.871495 119.31623 95.44505 119.05165 94.901184 C 118.78706 94.349969 118.65426 93.721583 118.65426 93.016028 C 118.65426 92.33987 118.78305 91.719007 119.04028 91.153092 C 119.30487 90.587178 119.66867 90.138685 120.13169 89.807955 C 120.60206 89.477226 121.12772 89.311861 121.70833 89.311861 z M 70.511458 89.385242 C 71.136169 89.385242 71.698409 89.557611 72.198177 89.90304 C 72.697946 90.241118 73.090802 90.704139 73.377433 91.292102 C 73.664066 91.872715 73.807381 92.508623 73.807381 93.199479 C 73.807381 93.868287 73.660563 94.471121 73.366581 95.007638 C 73.07995 95.544154 72.690597 95.963077 72.198177 96.264408 C 71.705758 96.55839 71.172572 96.705208 70.599308 96.705208 C 69.989296 96.705208 69.445603 96.554371 68.967883 96.25304 C 68.490163 95.944359 68.118839 95.518431 67.854256 94.974565 C 67.589672 94.42335 67.457381 93.794964 67.457381 93.089408 C 67.457381 92.413251 67.58617 91.79187 67.843404 91.225956 C 68.107988 90.660041 68.47179 90.212064 68.93481 89.881335 C 69.405181 89.550606 69.930845 89.385242 70.511458 89.385242 z M 45.495931 111.22835 C 44.503743 111.22835 43.621799 111.47089 42.850098 111.95596 C 42.085746 112.44103 41.490434 113.09898 41.06416 113.92948 C 40.645237 114.75997 40.435775 115.67849 40.435775 116.68538 C 40.435775 117.67022 40.648739 118.55969 41.075012 119.35344 C 41.501285 120.14719 42.074549 120.77208 42.794804 121.22774 C 43.522408 121.67607 44.32368 121.90005 45.198275 121.90005 C 46.028773 121.90005 46.774923 121.71614 47.436381 121.34867 C 48.105189 120.98119 48.652384 120.45202 49.078658 119.76117 L 49.1231 119.76117 L 49.1231 120.00404 C 49.1231 121.26082 48.96474 122.3447 48.64871 123.25604 C 48.33268 124.16003 47.895727 124.85106 47.337162 125.32878 C 46.778597 125.79916 46.14269 126.03417 45.429785 126.03417 C 44.694831 126.03417 44.096016 125.81018 43.632996 125.36186 C 43.169975 124.90619 42.85027 124.25926 42.673881 123.42141 L 40.71121 123.72992 C 40.836153 124.54571 41.104755 125.25127 41.516329 125.84658 C 41.935253 126.43455 42.467922 126.88655 43.114681 127.20257 C 43.76879 127.51126 44.503915 127.66559 45.319714 127.66559 C 47.201196 127.66559 48.634356 126.93449 49.619194 125.47193 C 50.604032 124.00202 51.096106 121.84125 51.096106 118.98964 C 51.096106 116.45405 50.618559 114.52829 49.663118 113.21273 C 48.715029 111.88981 47.325966 111.22835 45.495931 111.22835 z M 97.082446 111.49965 C 96.090259 111.49965 95.208314 111.74219 94.436613 112.22726 C 93.672261 112.71232 93.076949 113.37028 92.650675 114.20078 C 92.231752 115.03128 92.02229 115.9498 92.02229 116.95669 C 92.02229 117.94152 92.235254 118.83099 92.661528 119.62474 C 93.0878 120.41849 93.661065 121.04285 94.381319 121.49853 C 95.108923 121.94685 95.910195 122.17135 96.78479 122.17135 C 97.615288 122.17135 98.361438 121.98744 99.022896 121.61997 C 99.691705 121.25249 100.2389 120.72333 100.66517 120.03247 L 100.70962 120.03247 L 100.70962 120.27483 C 100.70962 121.5316 100.55126 122.616 100.23523 123.52734 C 99.919196 124.43134 99.482242 125.12185 98.923678 125.59957 C 98.365112 126.06994 97.729205 126.30547 97.0163 126.30547 C 96.281347 126.30547 95.682532 126.08096 95.219511 125.63264 C 94.75649 125.17697 94.436785 124.53055 94.260396 123.69271 L 92.297725 124.00122 C 92.422668 124.81702 92.691271 125.52257 93.102844 126.11788 C 93.521768 126.70584 94.054437 127.15784 94.701196 127.47387 C 95.355305 127.78255 96.09043 127.93689 96.90623 127.93689 C 98.787711 127.93689 100.22087 127.20579 101.20571 125.74323 C 102.19055 124.27332 102.68262 122.11256 102.68262 119.26094 C 102.68262 116.72535 102.20507 114.79959 101.24963 113.48403 C 100.30154 112.16111 98.912481 111.49965 97.082446 111.49965 z M 144.62011 111.49965 C 143.62792 111.49965 142.74546 111.74219 141.97376 112.22726 C 141.20941 112.71232 140.6141 113.37028 140.18783 114.20078 C 139.7689 115.03128 139.55944 115.9498 139.55944 116.95669 C 139.55944 117.94152 139.77292 118.83099 140.19919 119.62474 C 140.62547 120.41849 141.19873 121.04285 141.91899 121.49853 C 142.64659 121.94685 143.44786 122.17135 144.32246 122.17135 C 145.15296 122.17135 145.89859 121.98744 146.56005 121.61997 C 147.22885 121.25249 147.77657 120.72333 148.20284 120.03247 L 148.24677 120.03247 L 148.24677 120.27483 C 148.24677 121.5316 148.08893 122.616 147.77289 123.52734 C 147.45686 124.43134 147.01939 125.12185 146.46083 125.59957 C 145.90226 126.06994 145.26687 126.30547 144.55397 126.30547 C 143.81901 126.30547 143.21968 126.08096 142.75666 125.63264 C 142.29363 125.17697 141.97393 124.53055 141.79755 123.69271 L 139.83539 124.00122 C 139.96034 124.81702 140.22842 125.52257 140.63999 126.11788 C 141.05891 126.70584 141.59159 127.15784 142.23835 127.47387 C 142.89246 127.78255 143.62758 127.93689 144.44338 127.93689 C 146.32486 127.93689 147.75802 127.20579 148.74286 125.74323 C 149.7277 124.27332 150.22029 122.11256 150.22029 119.26094 C 150.22029 116.72535 149.74274 114.79959 148.7873 113.48403 C 147.83921 112.16111 146.45014 111.49965 144.62011 111.49965 z M 45.518152 112.84893 C 46.142863 112.84893 46.705102 113.02181 47.204871 113.36724 C 47.704639 113.70531 48.097494 114.16834 48.384127 114.7563 C 48.670759 115.33692 48.814075 115.97282 48.814075 116.66368 C 48.814075 117.33249 48.667256 117.93481 48.373275 118.47132 C 48.086643 119.00784 47.697289 119.42676 47.204871 119.72809 C 46.712452 120.02207 46.179266 120.16941 45.606002 120.16941 C 44.99599 120.16941 44.452297 120.01857 43.974577 119.71724 C 43.496857 119.40856 43.125533 118.98211 42.86095 118.43825 C 42.596367 117.88704 42.464075 117.25865 42.464075 116.55309 C 42.464075 115.87694 42.592864 115.25608 42.850098 114.69016 C 43.114681 114.12424 43.478483 113.67575 43.941504 113.34502 C 44.411874 113.01429 44.937538 112.84893 45.518152 112.84893 z M 97.104667 113.12023 C 97.729378 113.12023 98.291617 113.29312 98.791386 113.63854 C 99.291154 113.97662 99.68401 114.43964 99.970642 115.0276 C 100.25728 115.60822 100.40059 116.24361 100.40059 116.93446 C 100.40059 117.60327 100.25377 118.2061 99.95979 118.74262 C 99.673158 119.27914 99.283805 119.69806 98.791386 119.99939 C 98.298967 120.29337 97.765781 120.44019 97.192517 120.44019 C 96.582506 120.44019 96.038812 120.28987 95.561092 119.98854 C 95.083372 119.67986 94.712048 119.25341 94.447465 118.70955 C 94.182882 118.15833 94.05059 117.52995 94.05059 116.82439 C 94.05059 116.14823 94.179379 115.52737 94.436613 114.96146 C 94.701196 114.39555 95.064998 113.94705 95.528019 113.61632 C 95.998389 113.28559 96.524054 113.12023 97.104667 113.12023 z M 144.64182 113.12023 C 145.26653 113.12023 145.82877 113.29312 146.32854 113.63854 C 146.82831 113.97662 147.22168 114.43964 147.50831 115.0276 C 147.79494 115.60822 147.93826 116.24361 147.93826 116.93446 C 147.93826 117.60327 147.79144 118.2061 147.49746 118.74262 C 147.21082 119.27914 146.82096 119.69806 146.32854 119.99939 C 145.83612 120.29337 145.30345 120.44019 144.73018 120.44019 C 144.12017 120.44019 143.57596 120.28987 143.09824 119.98854 C 142.62052 119.67986 142.24972 119.25341 141.98513 118.70955 C 141.72055 118.15833 141.58826 117.52995 141.58826 116.82439 C 141.58826 116.14823 141.71653 115.52737 141.97376 114.96146 C 142.23834 114.39555 142.60266 113.94705 143.06569 113.61632 C 143.53605 113.28559 144.0612 113.12023 144.64182 113.12023 z " />
  </g>
</svg>
