<?xml version="1.0" encoding="UTF-8" standalone="no"?>
<!-- Created with Inkscape (http://www.inkscape.org/) -->

<svg
   width="720"
   height="720"
   viewBox="0 0 190.5 190.5"
   version="1.1"
   id="svg5"
   sodipodi:docname="8E.svg"
   inkscape:version="1.2.1 (9c6d41e410, 2022-07-14)"
   xmlns:inkscape="http://www.inkscape.org/namespaces/inkscape"
   xmlns:sodipodi="http://sodipodi.sourceforge.net/DTD/sodipodi-0.dtd"
   xmlns="http://www.w3.org/2000/svg"
   xmlns:svg="http://www.w3.org/2000/svg">
  <sodipodi:namedview
     id="namedview7"
     pagecolor="#ffffff"
     bordercolor="#000000"
     borderopacity="0.25"
     inkscape:showpageshadow="2"
     inkscape:pageopacity="0.0"
     inkscape:pagecheckerboard="0"
     inkscape:deskcolor="#d1d1d1"
     inkscape:document-units="mm"
     showgrid="true"
     inkscape:zoom="1.0255231"
     inkscape:cx="342.75192"
     inkscape:cy="395.89553"
     inkscape:window-width="1520"
     inkscape:window-height="1030"
     inkscape:window-x="10"
     inkscape:window-y="1"
     inkscape:window-maximized="0"
     inkscape:current-layer="layer1">
    <inkscape:grid
       type="xygrid"
       id="grid9"
       spacingx="19.05"
       spacingy="19.05" />
  </sodipodi:namedview>
  <defs
     id="defs2" />
  <g
     inkscape:label="Ebene 1"
     inkscape:groupmode="layer"
     id="layer1">
    <path
       id="path1721"
       style="font-size:22.5778px;font-family:'Arial Nova';-inkscape-font-specification:'Arial Nova';stroke-width:0.264583"
       d="M 40.998531 63.175472 L 40.998531 79.337276 L 51.537423 79.337276 L 51.537423 77.419047 L 43.136902 77.419047 L 43.136902 71.951164 L 50.545235 71.951164 L 50.545235 70.032935 L 43.136902 70.032935 L 43.136902 65.093701 L 51.151917 65.093701 L 51.151917 63.175472 L 40.998531 63.175472 z M 92.585046 63.446773 L 92.585046 79.608577 L 103.12394 79.608577 L 103.12394 77.690348 L 94.723417 77.690348 L 94.723417 72.221948 L 102.13175 72.221948 L 102.13175 70.303719 L 94.723417 70.303719 L 94.723417 65.365002 L 102.73843 65.365002 L 102.73843 63.446773 L 92.585046 63.446773 z M 140.1222 63.446773 L 140.1222 79.608577 L 150.6616 79.608577 L 150.6616 77.690348 L 142.26108 77.690348 L 142.26108 72.221948 L 149.66942 72.221948 L 149.66942 70.303719 L 142.26108 70.303719 L 142.26108 65.365002 L 150.27558 65.365002 L 150.27558 63.446773 L 140.1222 63.446773 z M 116.91276 87.691288 L 116.91276 103.85309 L 127.45217 103.85309 L 127.45217 101.93486 L 119.05165 101.93486 L 119.05165 96.46698 L 126.45998 96.46698 L 126.45998 94.548751 L 119.05165 94.548751 L 119.05165 89.609517 L 127.06615 89.609517 L 127.06615 87.691288 L 116.91276 87.691288 z M 65.715885 87.764669 L 65.715885 103.92596 L 76.254777 103.92596 L 76.254777 102.00773 L 67.854256 102.00773 L 67.854256 96.539844 L 75.26259 96.539844 L 75.26259 94.621615 L 67.854256 94.621615 L 67.854256 89.682898 L 75.869271 89.682898 L 75.869271 87.764669 L 65.715885 87.764669 z M 40.722579 111.22835 L 40.722579 127.39016 L 51.261471 127.39016 L 51.261471 125.47193 L 42.86095 125.47193 L 42.86095 120.00404 L 50.269283 120.00404 L 50.269283 118.08582 L 42.86095 118.08582 L 42.86095 113.14658 L 50.875964 113.14658 L 50.875964 111.22835 L 40.722579 111.22835 z M 92.309094 111.49965 L 92.309094 127.66146 L 102.84799 127.66146 L 102.84799 125.74323 L 94.447465 125.74323 L 94.447465 120.27483 L 101.8558 120.27483 L 101.8558 118.3566 L 94.447465 118.3566 L 94.447465 113.41788 L 102.46248 113.41788 L 102.46248 111.49965 L 92.309094 111.49965 z M 139.84624 111.49965 L 139.84624 127.66146 L 150.38565 127.66146 L 150.38565 125.74323 L 141.98513 125.74323 L 141.98513 120.27483 L 149.39347 120.27483 L 149.39347 118.3566 L 141.98513 118.3566 L 141.98513 113.41788 L 149.99963 113.41788 L 149.99963 111.49965 L 139.84624 111.49965 z " />
  </g>
</svg>
