<?xml version="1.0" encoding="UTF-8" standalone="no"?>
<!-- Created with Inkscape (http://www.inkscape.org/) -->

<svg
   width="720"
   height="720"
   viewBox="0 0 190.5 190.5"
   version="1.1"
   id="svg5"
   sodipodi:docname="8J.svg"
   inkscape:version="1.2.1 (9c6d41e410, 2022-07-14)"
   xmlns:inkscape="http://www.inkscape.org/namespaces/inkscape"
   xmlns:sodipodi="http://sodipodi.sourceforge.net/DTD/sodipodi-0.dtd"
   xmlns="http://www.w3.org/2000/svg"
   xmlns:svg="http://www.w3.org/2000/svg">
  <sodipodi:namedview
     id="namedview7"
     pagecolor="#ffffff"
     bordercolor="#000000"
     borderopacity="0.25"
     inkscape:showpageshadow="2"
     inkscape:pageopacity="0.0"
     inkscape:pagecheckerboard="0"
     inkscape:deskcolor="#d1d1d1"
     inkscape:document-units="mm"
     showgrid="true"
     inkscape:zoom="1.0255231"
     inkscape:cx="342.75192"
     inkscape:cy="395.89553"
     inkscape:window-width="1520"
     inkscape:window-height="1030"
     inkscape:window-x="10"
     inkscape:window-y="1"
     inkscape:window-maximized="0"
     inkscape:current-layer="layer1">
    <inkscape:grid
       type="xygrid"
       id="grid9"
       spacingx="19.05"
       spacingy="19.05" />
  </sodipodi:namedview>
  <defs
     id="defs2" />
  <g
     inkscape:label="Ebene 1"
     inkscape:groupmode="layer"
     id="layer1">
    <path
       id="path1643"
       style="font-size:22.5778px;font-family:'Arial Nova';-inkscape-font-specification:'Arial Nova';stroke-width:0.264583"
       d="M 48.163985 62.646305 L 48.163985 73.858024 C 48.163985 74.681173 48.07981 75.331607 47.910771 75.809326 C 47.741731 76.287046 47.48065 76.632819 47.127873 76.845955 C 46.782444 77.051743 46.330448 77.154464 45.771883 77.154464 C 44.978133 77.154464 44.379318 76.886378 43.975094 76.349862 C 43.57087 75.805996 43.361408 74.975154 43.346708 73.858024 L 41.428479 74.310193 C 41.443178 75.853596 41.829029 77.036699 42.586031 77.859847 C 43.343033 78.675646 44.408371 79.083545 45.782735 79.083545 C 48.796045 79.083545 50.302873 77.378797 50.302873 73.968612 L 50.302873 62.646305 L 48.163985 62.646305 z M 99.7505 62.917607 L 99.7505 74.129325 C 99.7505 74.952473 99.666325 75.602907 99.497286 76.080627 C 99.328247 76.558348 99.067166 76.903603 98.714388 77.11674 C 98.36896 77.322527 97.916963 77.425765 97.358398 77.425765 C 96.564649 77.425765 95.965834 77.157162 95.561609 76.620646 C 95.157385 76.07678 94.947923 75.246455 94.933223 74.129325 L 93.014994 74.581494 C 93.029694 76.124897 93.415544 77.308 94.172546 78.131148 C 94.929549 78.946947 95.994887 79.354846 97.36925 79.354846 C 100.38256 79.354846 101.88939 77.649581 101.88939 74.239396 L 101.88939 62.917607 L 99.7505 62.917607 z M 147.28817 62.917607 L 147.28817 74.129325 C 147.28817 74.952473 147.20348 75.602907 147.03444 76.080627 C 146.8654 76.558348 146.60432 76.903603 146.25154 77.11674 C 145.90611 77.322527 145.45411 77.425765 144.89555 77.425765 C 144.1018 77.425765 143.50298 77.157162 143.09876 76.620646 C 142.69457 76.07678 142.48511 75.246455 142.47037 74.129325 L 140.55214 74.581494 C 140.56684 76.124897 140.9527 77.308 141.7097 78.131148 C 142.4667 78.946947 143.53256 79.354846 144.90692 79.354846 C 147.92023 79.354846 149.42654 77.649581 149.42654 74.239396 L 149.42654 62.917607 L 147.28817 62.917607 z M 124.07821 87.162122 L 124.07821 98.37384 C 124.07821 99.196988 123.99404 99.847422 123.825 100.32514 C 123.65596 100.80286 123.39488 101.14864 123.0421 101.36177 C 122.69667 101.56756 122.24467 101.67028 121.68611 101.67028 C 120.89236 101.67028 120.29355 101.4022 119.88932 100.86568 C 119.48507 100.32181 119.2756 99.490969 119.26094 98.37384 L 117.34271 98.826009 C 117.35741 100.36941 117.74325 101.55252 118.50026 102.37566 C 119.25726 103.19146 120.3226 103.59988 121.69696 103.59988 C 124.71027 103.59988 126.2171 101.89461 126.2171 98.484428 L 126.2171 87.162122 L 124.07821 87.162122 z M 72.88134 87.235502 L 72.88134 98.447221 C 72.88134 99.270369 72.797164 99.920805 72.628125 100.39852 C 72.459085 100.87624 72.198005 101.2215 71.845227 101.43464 C 71.499799 101.64042 71.047802 101.74314 70.489237 101.74314 C 69.695488 101.74314 69.096672 101.47506 68.692448 100.93854 C 68.288224 100.39468 68.078762 99.564348 68.064062 98.447221 L 66.145833 98.898873 C 66.160533 100.44227 66.546383 101.62589 67.303385 102.44904 C 68.060387 103.26484 69.125726 103.67274 70.50009 103.67274 C 73.513399 103.67274 75.020227 101.96747 75.020227 98.557292 L 75.020227 87.235502 L 72.88134 87.235502 z M 47.888033 110.69919 L 47.888033 121.9109 C 47.888033 122.73406 47.803858 123.38449 47.634819 123.86221 C 47.465779 124.33993 47.204698 124.6857 46.851921 124.89884 C 46.506492 125.10462 46.054496 125.20734 45.495931 125.20734 C 44.70218 125.20734 44.103366 124.93926 43.699141 124.40274 C 43.294918 123.85888 43.085456 123.02804 43.070756 121.9109 L 41.152527 122.36307 C 41.167226 123.90648 41.553076 125.08958 42.310079 125.91273 C 43.067082 126.72853 44.13242 127.13643 45.506783 127.13643 C 48.520093 127.13643 50.026921 125.43168 50.026921 122.02149 L 50.026921 110.69919 L 47.888033 110.69919 z M 99.474548 110.97049 L 99.474548 122.18221 C 99.474548 123.00535 99.390373 123.65579 99.221334 124.13351 C 99.052295 124.61123 98.791214 124.95648 98.438436 125.16962 C 98.093008 125.37541 97.641011 125.47865 97.082446 125.47865 C 96.288696 125.47865 95.689881 125.21005 95.285657 124.67353 C 94.881433 124.12966 94.671971 123.29933 94.657271 122.18221 L 92.739042 122.63437 C 92.753741 124.17778 93.139592 125.36088 93.896594 126.18403 C 94.653597 126.99983 95.718935 127.40773 97.093298 127.40773 C 100.10661 127.40773 101.61344 125.70246 101.61344 122.29228 L 101.61344 110.97049 L 99.474548 110.97049 z M 147.01222 110.97049 L 147.01222 122.18221 C 147.01222 123.00535 146.92752 123.65579 146.75848 124.13351 C 146.58944 124.61123 146.32837 124.95648 145.97559 125.16962 C 145.63016 125.37541 145.17816 125.47865 144.6196 125.47865 C 143.82584 125.47865 143.22703 125.21005 142.82281 124.67353 C 142.41861 124.12966 142.20915 123.29933 142.19442 122.18221 L 140.27619 122.63437 C 140.29089 124.17778 140.67675 125.36088 141.43374 126.18403 C 142.19075 126.99983 143.25661 127.40773 144.63097 127.40773 C 147.64428 127.40773 149.15059 125.70246 149.15059 122.29228 L 149.15059 110.97049 L 147.01222 110.97049 z " />
  </g>
</svg>
