<?xml version="1.0" encoding="UTF-8" standalone="no"?>
<!-- Created with Inkscape (http://www.inkscape.org/) -->

<svg
   width="720"
   height="720"
   viewBox="0 0 190.5 190.5"
   version="1.1"
   id="svg5"
   sodipodi:docname="8K.svg"
   inkscape:version="1.2.1 (9c6d41e410, 2022-07-14)"
   xmlns:inkscape="http://www.inkscape.org/namespaces/inkscape"
   xmlns:sodipodi="http://sodipodi.sourceforge.net/DTD/sodipodi-0.dtd"
   xmlns="http://www.w3.org/2000/svg"
   xmlns:svg="http://www.w3.org/2000/svg">
  <sodipodi:namedview
     id="namedview7"
     pagecolor="#ffffff"
     bordercolor="#000000"
     borderopacity="0.25"
     inkscape:showpageshadow="2"
     inkscape:pageopacity="0.0"
     inkscape:pagecheckerboard="0"
     inkscape:deskcolor="#d1d1d1"
     inkscape:document-units="mm"
     showgrid="true"
     inkscape:zoom="1.0255231"
     inkscape:cx="342.75192"
     inkscape:cy="395.89553"
     inkscape:window-width="1520"
     inkscape:window-height="1030"
     inkscape:window-x="10"
     inkscape:window-y="1"
     inkscape:window-maximized="0"
     inkscape:current-layer="layer1">
    <inkscape:grid
       type="xygrid"
       id="grid9"
       spacingx="19.05"
       spacingy="19.05" />
  </sodipodi:namedview>
  <defs
     id="defs2" />
  <g
     inkscape:label="Ebene 1"
     inkscape:groupmode="layer"
     id="layer1">
    <path
       id="path1760"
       style="font-size:22.5778px;font-family:'Arial Nova';-inkscape-font-specification:'Arial Nova';stroke-width:0.264583"
       d="M 39.940198 63.175472 L 39.940198 79.337276 L 42.078569 79.337276 L 42.078569 73.439445 L 44.382821 71.046826 L 49.718412 79.337276 L 52.287248 79.337276 L 45.827177 69.580766 L 52.011812 63.175472 L 49.244539 63.175472 L 42.078569 70.914535 L 42.078569 63.175472 L 39.940198 63.175472 z M 91.526713 63.446773 L 91.526713 79.608577 L 93.665084 79.608577 L 93.665084 73.710229 L 95.969336 71.318127 L 101.30493 79.608577 L 103.87376 79.608577 L 97.413692 69.852067 L 103.59833 63.446773 L 100.83105 63.446773 L 93.665084 71.185836 L 93.665084 63.446773 L 91.526713 63.446773 z M 139.06386 63.446773 L 139.06386 79.608577 L 141.20275 79.608577 L 141.20275 73.710229 L 143.507 71.318127 L 148.84259 79.608577 L 151.41143 79.608577 L 144.95084 69.852067 L 151.13548 63.446773 L 148.36872 63.446773 L 141.20275 71.185836 L 141.20275 63.446773 L 139.06386 63.446773 z M 115.85443 87.691288 L 115.85443 103.85309 L 117.9928 103.85309 L 117.9928 97.955261 L 120.29705 95.562642 L 125.63316 103.85309 L 128.20148 103.85309 L 121.74141 94.096582 L 127.92604 87.691288 L 125.15877 87.691288 L 117.9928 95.430351 L 117.9928 87.691288 L 115.85443 87.691288 z M 64.657552 87.764669 L 64.657552 103.92596 L 66.795923 103.92596 L 66.795923 98.028125 L 69.100175 95.636023 L 74.435767 103.92596 L 77.004602 103.92596 L 70.544531 94.169446 L 76.729167 87.764669 L 73.961894 87.764669 L 66.795923 95.503731 L 66.795923 87.764669 L 64.657552 87.764669 z M 39.664246 111.22835 L 39.664246 127.39016 L 41.802616 127.39016 L 41.802616 121.49233 L 44.106868 119.09971 L 49.44246 127.39016 L 52.011296 127.39016 L 45.551225 117.63365 L 51.73586 111.22835 L 48.968587 111.22835 L 41.802616 118.96742 L 41.802616 111.22835 L 39.664246 111.22835 z M 91.250761 111.49965 L 91.250761 127.66146 L 93.389132 127.66146 L 93.389132 121.76311 L 95.693384 119.37101 L 101.02898 127.66146 L 103.59781 127.66146 L 97.13774 117.90495 L 103.32238 111.49965 L 100.5551 111.49965 L 93.389132 119.23872 L 93.389132 111.49965 L 91.250761 111.49965 z M 138.78791 111.49965 L 138.78791 127.66146 L 140.9268 127.66146 L 140.9268 121.76311 L 143.23105 119.37101 L 148.56664 127.66146 L 151.13548 127.66146 L 144.67489 117.90495 L 150.85953 111.49965 L 148.09277 111.49965 L 140.9268 119.23872 L 140.9268 111.49965 L 138.78791 111.49965 z " />
  </g>
</svg>
