<?xml version="1.0" encoding="UTF-8" standalone="no"?>
<!-- Created with Inkscape (http://www.inkscape.org/) -->

<svg
   width="720"
   height="720"
   viewBox="0 0 190.5 190.5"
   version="1.1"
   id="svg5"
   sodipodi:docname="8nine.svg"
   inkscape:version="1.2.1 (9c6d41e410, 2022-07-14)"
   xmlns:inkscape="http://www.inkscape.org/namespaces/inkscape"
   xmlns:sodipodi="http://sodipodi.sourceforge.net/DTD/sodipodi-0.dtd"
   xmlns="http://www.w3.org/2000/svg"
   xmlns:svg="http://www.w3.org/2000/svg">
  <sodipodi:namedview
     id="namedview7"
     pagecolor="#ffffff"
     bordercolor="#000000"
     borderopacity="0.25"
     inkscape:showpageshadow="2"
     inkscape:pageopacity="0.0"
     inkscape:pagecheckerboard="0"
     inkscape:deskcolor="#d1d1d1"
     inkscape:document-units="mm"
     showgrid="true"
     inkscape:zoom="1.0255231"
     inkscape:cx="342.75192"
     inkscape:cy="395.89553"
     inkscape:window-width="1520"
     inkscape:window-height="1030"
     inkscape:window-x="10"
     inkscape:window-y="1"
     inkscape:window-maximized="0"
     inkscape:current-layer="layer1">
    <inkscape:grid
       type="xygrid"
       id="grid9"
       spacingx="19.05"
       spacingy="19.05" />
  </sodipodi:namedview>
  <defs
     id="defs2" />
  <g
     inkscape:label="Ebene 1"
     inkscape:groupmode="layer"
     id="layer1">
    <path
       id="path2011"
       style="font-size:22.5778px;font-family:'Arial Nova';-inkscape-font-specification:'Arial Nova';stroke-width:0.264583"
       d="M 38.506694 63.175472 L 38.506694 65.42443 L 40.491069 65.42443 L 40.491069 63.175472 L 38.506694 63.175472 z M 90.093209 63.446773 L 90.093209 65.695732 L 92.077584 65.695732 L 92.077584 63.446773 L 90.093209 63.446773 z M 137.63088 63.446773 L 137.63088 65.695732 L 139.61525 65.695732 L 139.61525 63.446773 L 137.63088 63.446773 z M 31.385164 67.375732 C 30.628162 67.375732 29.937133 67.545117 29.312423 67.883195 C 28.695062 68.221274 28.191963 68.684295 27.802437 69.272257 L 27.802437 67.640316 L 25.950354 67.640316 L 25.950354 79.337276 L 27.934729 79.337276 L 27.934729 72.821912 C 27.934729 71.521044 28.206318 70.572953 28.750183 69.977641 C 29.301399 69.382328 30.069598 69.084672 31.054435 69.084672 C 31.833486 69.084672 32.436321 69.305158 32.862594 69.74613 C 33.288867 70.187103 33.501831 70.834034 33.501831 71.68658 L 33.501831 79.337276 L 35.486206 79.337276 L 35.486206 71.421997 C 35.486206 70.121129 35.14095 69.12142 34.450094 68.423214 C 33.759237 67.725008 32.737479 67.375732 31.385164 67.375732 z M 48.990808 67.375732 C 48.233806 67.375732 47.543294 67.545117 46.918583 67.883195 C 46.301222 68.221274 45.797607 68.684295 45.408081 69.272257 L 45.408081 67.640316 L 43.555998 67.640316 L 43.555998 79.337276 L 45.540373 79.337276 L 45.540373 72.821912 C 45.540373 71.521044 45.812478 70.572953 46.356344 69.977641 C 46.907559 69.382328 47.675241 69.084672 48.660079 69.084672 C 49.43913 69.084672 50.041964 69.305158 50.468237 69.74613 C 50.894511 70.187103 51.107475 70.834034 51.107475 71.68658 L 51.107475 79.337276 L 53.09185 79.337276 L 53.09185 71.421997 C 53.09185 70.121129 52.746594 69.12142 52.055737 68.423214 C 51.364881 67.725008 50.343123 67.375732 48.990808 67.375732 z M 60.853133 67.375732 C 59.736004 67.375732 58.762362 67.629291 57.931864 68.13641 C 57.108716 68.643528 56.476312 69.364127 56.035339 70.297518 C 55.594367 71.230909 55.373881 72.325818 55.373881 73.582589 C 55.373881 74.802612 55.598386 75.868467 56.046708 76.77981 C 56.49503 77.683803 57.130421 78.381837 57.953569 78.874255 C 58.784066 79.366675 59.758224 79.612712 60.875354 79.612712 C 62.146824 79.612712 63.234211 79.286002 64.138204 78.631893 C 65.049546 77.970435 65.670926 77.047895 66.001656 75.86462 L 64.061206 75.566964 C 63.84807 76.294568 63.465721 76.878856 62.914506 77.319828 C 62.370641 77.760801 61.724226 77.981287 60.974573 77.981287 C 60.291066 77.981287 59.688232 77.826947 59.166414 77.518266 C 58.651947 77.202236 58.244048 76.746737 57.942716 76.151424 C 57.641388 75.548762 57.468502 74.828163 57.424402 73.990316 L 66.177873 73.990316 L 66.177873 73.582589 C 66.177873 72.274371 65.960889 71.153394 65.527266 70.220003 C 65.093644 69.286612 64.476282 68.581056 63.675183 68.103337 C 62.874083 67.618267 61.933515 67.375732 60.853133 67.375732 z M 38.506694 67.640316 L 38.506694 79.337276 L 40.491069 79.337276 L 40.491069 67.640316 L 38.506694 67.640316 z M 82.97168 67.647034 C 82.214678 67.647034 81.523649 67.815901 80.898938 68.153979 C 80.281577 68.492058 79.778478 68.955079 79.388953 69.543042 L 79.388953 67.911617 L 77.536869 67.911617 L 77.536869 79.608577 L 79.521244 79.608577 L 79.521244 73.093213 C 79.521244 71.792345 79.792832 70.844255 80.336698 70.248942 C 80.887913 69.65363 81.656112 69.355973 82.640951 69.355973 C 83.420001 69.355973 84.022835 69.576459 84.449109 70.017432 C 84.875382 70.458404 85.088346 71.104818 85.088346 71.957365 L 85.088346 79.608577 L 87.072721 79.608577 L 87.072721 71.692782 C 87.072721 70.391914 86.727466 69.392721 86.036609 68.694515 C 85.345753 67.996309 84.323995 67.647034 82.97168 67.647034 z M 100.57732 67.647034 C 99.820323 67.647034 99.129809 67.815901 98.505098 68.153979 C 97.887737 68.492058 97.384122 68.955079 96.994596 69.543042 L 96.994596 67.911617 L 95.142513 67.911617 L 95.142513 79.608577 L 97.126888 79.608577 L 97.126888 73.093213 C 97.126888 71.792345 97.398993 70.844255 97.942859 70.248942 C 98.494074 69.65363 99.261759 69.355973 100.24659 69.355973 C 101.02565 69.355973 101.62848 69.576459 102.05475 70.017432 C 102.48103 70.458404 102.69399 71.104818 102.69399 71.957365 L 102.69399 79.608577 L 104.67837 79.608577 L 104.67837 71.692782 C 104.67837 70.391914 104.33311 69.392721 103.64225 68.694515 C 102.9514 67.996309 101.92964 67.647034 100.57732 67.647034 z M 112.43965 67.647034 C 111.32252 67.647034 110.34888 67.900593 109.51838 68.407711 C 108.69523 68.914828 108.06283 69.634911 107.62185 70.568302 C 107.18088 71.501693 106.9604 72.597119 106.9604 73.85389 C 106.9604 75.073913 107.1849 76.139252 107.63322 77.050594 C 108.08154 77.954587 108.71694 78.653138 109.54008 79.145557 C 110.37058 79.637975 111.34474 79.884013 112.46187 79.884013 C 113.73333 79.884013 114.82073 79.556786 115.72472 78.902677 C 116.63606 78.241219 117.25745 77.319197 117.58817 76.135921 L 115.64772 75.838265 C 115.43459 76.565869 115.05224 77.150157 114.50102 77.59113 C 113.95716 78.032102 113.31075 78.252588 112.56109 78.252588 C 111.87758 78.252588 111.27474 78.098247 110.75293 77.789567 C 110.23846 77.473537 109.83056 77.017521 109.52923 76.422209 C 109.22787 75.819547 109.05498 75.099464 109.01092 74.261617 L 117.76439 74.261617 L 117.76439 73.85389 C 117.76439 72.545673 117.5474 71.424696 117.11378 70.491305 C 116.68016 69.557913 116.0628 68.852357 115.2617 68.374638 C 114.4606 67.889568 113.52003 67.647034 112.43965 67.647034 z M 130.50935 67.647034 C 129.75234 67.647034 129.06131 67.815901 128.4366 68.153979 C 127.81924 68.492058 127.31563 68.955079 126.9261 69.543042 L 126.9261 67.911617 L 125.07402 67.911617 L 125.07402 79.608577 L 127.05839 79.608577 L 127.05839 73.093213 C 127.05839 71.792345 127.3305 70.844255 127.87437 70.248942 C 128.42558 69.65363 129.19378 69.355973 130.17862 69.355973 C 130.95767 69.355973 131.55999 69.576459 131.98626 70.017432 C 132.41253 70.458404 132.62601 71.104818 132.62601 71.957365 L 132.62601 79.608577 L 134.61039 79.608577 L 134.61039 71.692782 C 134.61039 70.391914 134.26461 69.392721 133.57376 68.694515 C 132.8829 67.996309 131.86166 67.647034 130.50935 67.647034 z M 148.11499 67.647034 C 147.35799 67.647034 146.66696 67.815901 146.04225 68.153979 C 145.42489 68.492058 144.92179 68.955079 144.53226 69.543042 L 144.53226 67.911617 L 142.68018 67.911617 L 142.68018 79.608577 L 144.66455 79.608577 L 144.66455 73.093213 C 144.66455 71.792345 144.93614 70.844255 145.48001 70.248942 C 146.03122 69.65363 146.79942 69.355973 147.78426 69.355973 C 148.56331 69.355973 149.16615 69.576459 149.59242 70.017432 C 150.01869 70.458404 150.23166 71.104818 150.23166 71.957365 L 150.23166 79.608577 L 152.21603 79.608577 L 152.21603 71.692782 C 152.21603 70.391914 151.87078 69.392721 151.17992 68.694515 C 150.48907 67.996309 149.46731 67.647034 148.11499 67.647034 z M 159.97732 67.647034 C 158.86018 67.647034 157.88603 67.900593 157.05553 68.407711 C 156.23238 68.914828 155.60049 69.634911 155.15952 70.568302 C 154.71855 71.501693 154.49806 72.597119 154.49806 73.85389 C 154.49806 75.073913 154.72205 76.139252 155.17037 77.050594 C 155.6187 77.954587 156.2546 78.653138 157.07775 79.145557 C 157.90825 79.637975 158.88189 79.884013 159.99902 79.884013 C 161.27049 79.884013 162.35839 79.556786 163.26239 78.902677 C 164.17373 78.241219 164.7946 77.319197 165.12532 76.135921 L 163.18539 75.838265 C 162.97226 76.565869 162.58991 77.150157 162.03869 77.59113 C 161.49482 78.032102 160.84789 78.252588 160.09824 78.252588 C 159.41473 78.252588 158.81241 78.098247 158.2906 77.789567 C 157.77612 77.473537 157.36822 77.017521 157.0669 76.422209 C 156.76553 75.819547 156.59265 75.099464 156.54858 74.261617 L 165.30205 74.261617 L 165.30205 73.85389 C 165.30205 72.545673 165.08507 71.424696 164.65145 70.491305 C 164.21782 69.557913 163.60046 68.852357 162.79937 68.374638 C 161.99827 67.889568 161.05769 67.647034 159.97732 67.647034 z M 90.093209 67.911617 L 90.093209 79.608577 L 92.077584 79.608577 L 92.077584 67.911617 L 90.093209 67.911617 z M 137.63088 67.911617 L 137.63088 79.608577 L 139.61525 79.608577 L 139.61525 67.911617 L 137.63088 67.911617 z M 60.830912 68.996305 C 61.756954 68.996305 62.499602 69.286956 63.058167 69.86757 C 63.624081 70.448183 63.965834 71.278509 64.083427 72.358891 L 57.490548 72.358891 C 57.578742 71.690083 57.773677 71.102292 58.075008 70.595174 C 58.383688 70.088057 58.773041 69.694684 59.243412 69.415401 C 59.713782 69.136118 60.24295 68.996305 60.830912 68.996305 z M 112.41743 69.267607 C 113.34347 69.267607 114.08612 69.557741 114.64468 70.138354 C 115.21059 70.718968 115.55235 71.54981 115.66994 72.630192 L 109.07706 72.630192 C 109.16526 71.961384 109.36019 71.373077 109.66152 70.865959 C 109.9702 70.35884 110.35955 69.965985 110.82993 69.686702 C 111.30029 69.40742 111.82946 69.267607 112.41743 69.267607 z M 159.95509 69.267607 C 160.88113 69.267607 161.62327 69.557741 162.18183 70.138354 C 162.74774 70.718968 163.0895 71.54981 163.20709 72.630192 L 156.61473 72.630192 C 156.70292 71.961384 156.89786 71.373077 157.19919 70.865959 C 157.50787 70.35884 157.89722 69.965985 158.36759 69.686702 C 158.83796 69.40742 159.36713 69.267607 159.95509 69.267607 z M 114.42092 87.691288 L 114.42092 89.940247 L 116.4053 89.940247 L 116.4053 87.691288 L 114.42092 87.691288 z M 63.224048 87.764669 L 63.224048 90.013627 L 65.208423 90.013627 L 65.208423 87.764669 L 63.224048 87.764669 z M 107.29939 91.891549 C 106.54239 91.891549 105.85136 92.060932 105.22665 92.399011 C 104.60929 92.73709 104.10619 93.20011 103.71667 93.788074 L 103.71667 92.156132 L 101.86458 92.156132 L 101.86458 103.85309 L 103.84896 103.85309 L 103.84896 97.337728 C 103.84896 96.03686 104.12055 95.08877 104.66441 94.493457 C 105.21563 93.898144 105.98383 93.600488 106.96866 93.600488 C 107.74772 93.600488 108.35055 93.820974 108.77682 94.261947 C 109.2031 94.702919 109.41606 95.34985 109.41606 96.202397 L 109.41606 103.85309 L 111.40044 103.85309 L 111.40044 95.937813 C 111.40044 94.636945 111.05518 93.637236 110.36432 92.93903 C 109.67346 92.240824 108.65171 91.891549 107.29939 91.891549 z M 124.90555 91.891549 C 124.14855 91.891549 123.45753 92.060932 122.83281 92.399011 C 122.21545 92.73709 121.71184 93.20011 121.32231 93.788074 L 121.32231 92.156132 L 119.47023 92.156132 L 119.47023 103.85309 L 121.4546 103.85309 L 121.4546 97.337728 C 121.4546 96.03686 121.72671 95.08877 122.27057 94.493457 C 122.82179 93.898144 123.58999 93.600488 124.57483 93.600488 C 125.35388 93.600488 125.95619 93.820974 126.38247 94.261947 C 126.80874 94.702919 127.02222 95.34985 127.02222 96.202397 L 127.02222 103.85309 L 129.0066 103.85309 L 129.0066 95.937813 C 129.0066 94.636945 128.66083 93.637236 127.96997 92.93903 C 127.27911 92.240824 126.25787 91.891549 124.90555 91.891549 z M 136.76736 91.891549 C 135.65023 91.891549 134.67659 92.145108 133.84609 92.652226 C 133.02295 93.159344 132.39106 93.879943 131.95009 94.813334 C 131.50911 95.746725 131.28863 96.841634 131.28863 98.098405 C 131.28863 99.318428 131.51262 100.38428 131.96094 101.29563 C 132.40926 102.19962 133.04517 102.89765 133.86831 103.39007 C 134.69881 103.88249 135.67245 104.12904 136.78958 104.12904 C 138.06105 104.12904 139.14896 103.80182 140.05295 103.14771 C 140.9643 102.48626 141.58516 101.56372 141.91589 100.38044 L 139.97544 100.08278 C 139.7623 100.81039 139.38047 101.39467 138.82925 101.83564 C 138.28539 102.27662 137.63845 102.4971 136.8888 102.4971 C 136.2053 102.4971 135.60246 102.34276 135.08064 102.03408 C 134.56617 101.71805 134.15827 101.26255 133.85695 100.66724 C 133.55558 100.06458 133.38321 99.343979 133.33915 98.506132 L 142.0921 98.506132 L 142.0921 98.098405 C 142.0921 96.790187 141.87563 95.669211 141.44201 94.735819 C 141.00839 93.802428 140.39103 93.096873 139.58993 92.619153 C 138.78883 92.134083 137.84774 91.891549 136.76736 91.891549 z M 56.102519 91.964929 C 55.345516 91.964929 54.654488 92.133797 54.029777 92.471875 C 53.412416 92.809954 52.909317 93.272975 52.519792 93.860937 L 52.519792 92.229513 L 50.667708 92.229513 L 50.667708 103.92596 L 52.652083 103.92596 L 52.652083 97.410592 C 52.652083 96.109724 52.923672 95.161633 53.467537 94.566321 C 54.018753 93.971008 54.786952 93.673352 55.77179 93.673352 C 56.550841 93.673352 57.153675 93.893838 57.579948 94.33481 C 58.006221 94.775783 58.219185 95.422714 58.219185 96.27526 L 58.219185 103.92596 L 60.20356 103.92596 L 60.20356 96.010677 C 60.20356 94.709809 59.858305 93.7101 59.167448 93.011894 C 58.476591 92.313688 57.454833 91.964929 56.102519 91.964929 z M 73.708162 91.964929 C 72.95116 91.964929 72.260648 92.133797 71.635937 92.471875 C 71.018577 92.809954 70.514961 93.272975 70.125435 93.860937 L 70.125435 92.229513 L 68.273352 92.229513 L 68.273352 103.92596 L 70.257727 103.92596 L 70.257727 97.410592 C 70.257727 96.109724 70.529832 95.161633 71.073698 94.566321 C 71.624913 93.971008 72.392596 93.673352 73.377433 93.673352 C 74.156484 93.673352 74.759319 93.893838 75.185592 94.33481 C 75.611865 94.775783 75.824829 95.422714 75.824829 96.27526 L 75.824829 103.92596 L 77.809204 103.92596 L 77.809204 96.010677 C 77.809204 94.709809 77.463948 93.7101 76.773092 93.011894 C 76.082235 92.313688 75.060477 91.964929 73.708162 91.964929 z M 85.570487 91.964929 C 84.453358 91.964929 83.479717 92.218488 82.649219 92.725606 C 81.82607 93.232724 81.193666 93.952807 80.752694 94.886198 C 80.311721 95.819589 80.091235 96.914498 80.091235 98.171269 C 80.091235 99.391294 80.31574 100.45715 80.764062 101.36849 C 81.212384 102.27248 81.847775 102.97052 82.670923 103.46294 C 83.501421 103.95535 84.475579 104.20191 85.592708 104.20191 C 86.864178 104.20191 87.951565 103.87468 88.855558 103.22057 C 89.766901 102.55911 90.388281 101.63658 90.71901 100.4533 L 88.77856 100.15564 C 88.565424 100.88324 88.183076 101.46754 87.63186 101.90851 C 87.087995 102.34948 86.44158 102.56997 85.691927 102.56997 C 85.00842 102.56997 84.405586 102.41563 83.883769 102.10695 C 83.369301 101.79092 82.961402 101.33542 82.660071 100.7401 C 82.358742 100.13744 82.185856 99.41736 82.141756 98.579513 L 90.895227 98.579513 L 90.895227 98.171269 C 90.895227 96.863051 90.678244 95.742591 90.244621 94.8092 C 89.810998 93.875808 89.193637 93.170253 88.392537 92.692533 C 87.591438 92.207464 86.650869 91.964929 85.570487 91.964929 z M 114.42092 92.156132 L 114.42092 103.85309 L 116.4053 103.85309 L 116.4053 92.156132 L 114.42092 92.156132 z M 63.224048 92.229513 L 63.224048 103.92596 L 65.208423 103.92596 L 65.208423 92.229513 L 63.224048 92.229513 z M 136.74566 93.512122 C 137.6717 93.512122 138.41383 93.802773 138.9724 94.383386 C 139.53831 94.964 139.88006 95.794325 139.99766 96.874707 L 133.40529 96.874707 C 133.49349 96.2059 133.6879 95.618109 133.98924 95.11099 C 134.29792 94.603872 134.68779 94.2105 135.15816 93.931217 C 135.62852 93.651935 136.15769 93.512122 136.74566 93.512122 z M 85.548267 93.585502 C 86.474308 93.585502 87.216956 93.875637 87.775521 94.45625 C 88.341436 95.036863 88.683189 95.867189 88.800781 96.947571 L 82.207902 96.947571 C 82.296097 96.278763 82.491031 95.690972 82.792362 95.183854 C 83.101043 94.676736 83.490396 94.283364 83.960767 94.004081 C 84.431137 93.724799 84.960304 93.585502 85.548267 93.585502 z M 38.230741 111.22835 L 38.230741 113.47731 L 40.215116 113.47731 L 40.215116 111.22835 L 38.230741 111.22835 z M 89.817257 111.49965 L 89.817257 113.74861 L 91.801632 113.74861 L 91.801632 111.49965 L 89.817257 111.49965 z M 137.35492 111.49965 L 137.35492 113.74861 L 139.3393 113.74861 L 139.3393 111.49965 L 137.35492 111.49965 z M 31.109212 115.42861 C 30.35221 115.42861 29.661181 115.598 29.036471 115.93608 C 28.419109 116.27416 27.916011 116.73717 27.526485 117.32514 L 27.526485 115.6932 L 25.674402 115.6932 L 25.674402 127.39016 L 27.658777 127.39016 L 27.658777 120.87479 C 27.658777 119.57392 27.930366 118.62583 28.474231 118.03052 C 29.025446 117.43521 29.793645 117.13755 30.778483 117.13755 C 31.557534 117.13755 32.160368 117.35804 32.586641 117.79901 C 33.012914 118.23998 33.225879 118.88692 33.225879 119.73946 L 33.225879 127.39016 L 35.210254 127.39016 L 35.210254 119.47488 C 35.210254 118.17401 34.864998 117.1743 34.174141 116.47609 C 33.483285 115.77789 32.461527 115.42861 31.109212 115.42861 z M 48.714856 115.42861 C 47.957853 115.42861 47.267341 115.598 46.642631 115.93608 C 46.02527 116.27416 45.521655 116.73717 45.132129 117.32514 L 45.132129 115.6932 L 43.280046 115.6932 L 43.280046 127.39016 L 45.264421 127.39016 L 45.264421 120.87479 C 45.264421 119.57392 45.536526 118.62583 46.080391 118.03052 C 46.631607 117.43521 47.399288 117.13755 48.384127 117.13755 C 49.163177 117.13755 49.766012 117.35804 50.192285 117.79901 C 50.618558 118.23998 50.831523 118.88692 50.831523 119.73946 L 50.831523 127.39016 L 52.815898 127.39016 L 52.815898 119.47488 C 52.815898 118.17401 52.470642 117.1743 51.779785 116.47609 C 51.088929 115.77789 50.067171 115.42861 48.714856 115.42861 z M 60.577181 115.42861 C 59.460051 115.42861 58.48641 115.68217 57.655912 116.18929 C 56.832764 116.69641 56.200359 117.41701 55.759387 118.3504 C 55.318415 119.28379 55.097929 120.3787 55.097929 121.63547 C 55.097929 122.8555 55.322434 123.92134 55.770756 124.83269 C 56.219078 125.73668 56.854468 126.43472 57.677616 126.92714 C 58.508114 127.41956 59.482272 127.66559 60.599402 127.66559 C 61.870872 127.66559 62.958259 127.33889 63.862252 126.68477 C 64.773595 126.02331 65.394975 125.10077 65.725704 123.9175 L 63.785254 123.61984 C 63.572117 124.34745 63.189769 124.93174 62.638554 125.37271 C 62.094688 125.81368 61.448273 126.03417 60.698621 126.03417 C 60.015113 126.03417 59.412279 125.87983 58.890462 125.57115 C 58.375994 125.25512 57.968095 124.79962 57.666764 124.20431 C 57.36543 123.60165 57.192543 122.88105 57.14845 122.0432 L 65.901921 122.0432 L 65.901921 121.63547 C 65.901921 120.32726 65.684937 119.20628 65.251314 118.27288 C 64.817692 117.33949 64.200331 116.63394 63.399231 116.15622 C 62.598132 115.67114 61.657563 115.42861 60.577181 115.42861 z M 38.230741 115.6932 L 38.230741 127.39016 L 40.215116 127.39016 L 40.215116 115.6932 L 38.230741 115.6932 z M 82.695728 115.69991 C 81.938725 115.69991 81.247696 115.86878 80.622986 116.20686 C 80.005624 116.54493 79.502526 117.00796 79.113 117.59592 L 79.113 115.9645 L 77.260917 115.9645 L 77.260917 127.66146 L 79.245292 127.66146 L 79.245292 121.14609 C 79.245292 119.84523 79.516881 118.89714 80.060746 118.30182 C 80.611962 117.70651 81.38016 117.40885 82.364998 117.40885 C 83.144049 117.40885 83.746883 117.62934 84.173157 118.07031 C 84.59943 118.51128 84.812394 119.1577 84.812394 120.01025 L 84.812394 127.66146 L 86.796769 127.66146 L 86.796769 119.74566 C 86.796769 118.4448 86.451513 117.4456 85.760657 116.7474 C 85.0698 116.04919 84.048042 115.69991 82.695728 115.69991 z M 100.30137 115.69991 C 99.544368 115.69991 98.853856 115.86878 98.229146 116.20686 C 97.611785 116.54493 97.10817 117.00796 96.718644 117.59592 L 96.718644 115.9645 L 94.866561 115.9645 L 94.866561 127.66146 L 96.850936 127.66146 L 96.850936 121.14609 C 96.850936 119.84523 97.123041 118.89714 97.666907 118.30182 C 98.218122 117.70651 98.985804 117.40885 99.970642 117.40885 C 100.74969 117.40885 101.35253 117.62934 101.7788 118.07031 C 102.20507 118.51128 102.41804 119.1577 102.41804 120.01025 L 102.41804 127.66146 L 104.40241 127.66146 L 104.40241 119.74566 C 104.40241 118.4448 104.05715 117.4456 103.3663 116.7474 C 102.67544 116.04919 101.65368 115.69991 100.30137 115.69991 z M 112.1637 115.69991 C 111.04657 115.69991 110.07293 115.95348 109.24243 116.46059 C 108.41928 116.96771 107.78688 117.68779 107.3459 118.62118 C 106.90493 119.55458 106.68444 120.65 106.68444 121.90677 C 106.68444 123.12679 106.90895 124.19213 107.35727 125.10347 C 107.80559 126.00747 108.44098 126.70602 109.26413 127.19844 C 110.09463 127.69086 111.06879 127.93689 112.18592 127.93689 C 113.45739 127.93689 114.54477 127.60967 115.44877 126.95556 C 116.36011 126.29411 116.98149 125.37208 117.31222 124.1888 L 115.37177 123.89115 C 115.15863 124.61875 114.77628 125.20304 114.22507 125.64401 C 113.6812 126.08498 113.03479 126.30547 112.28514 126.30547 C 111.60163 126.30547 110.9988 126.15113 110.47698 125.84245 C 109.96251 125.52641 109.55461 125.0704 109.25328 124.47509 C 108.95192 123.87243 108.77903 123.15234 108.73497 122.3145 L 117.48844 122.3145 L 117.48844 121.90677 C 117.48844 120.59855 117.27146 119.47758 116.83783 118.54419 C 116.40421 117.61079 115.78685 116.90524 114.98575 116.42752 C 114.18465 115.94245 113.24408 115.69991 112.1637 115.69991 z M 130.23339 115.69991 C 129.47639 115.69991 128.78536 115.86878 128.16065 116.20686 C 127.54329 116.54493 127.03968 117.00796 126.65015 117.59592 L 126.65015 115.9645 L 124.79807 115.9645 L 124.79807 127.66146 L 126.78244 127.66146 L 126.78244 121.14609 C 126.78244 119.84523 127.05455 118.89714 127.59841 118.30182 C 128.14963 117.70651 128.91783 117.40885 129.90267 117.40885 C 130.68172 117.40885 131.28403 117.62934 131.71031 118.07031 C 132.13658 118.51128 132.35006 119.1577 132.35006 120.01025 L 132.35006 127.66146 L 134.33444 127.66146 L 134.33444 119.74566 C 134.33444 118.4448 133.98866 117.4456 133.29781 116.7474 C 132.60695 116.04919 131.58571 115.69991 130.23339 115.69991 z M 147.83904 115.69991 C 147.08204 115.69991 146.39101 115.86878 145.7663 116.20686 C 145.14894 116.54493 144.64584 117.00796 144.25631 117.59592 L 144.25631 115.9645 L 142.40423 115.9645 L 142.40423 127.66146 L 144.3886 127.66146 L 144.3886 121.14609 C 144.3886 119.84523 144.66019 118.89714 145.20406 118.30182 C 145.75527 117.70651 146.52347 117.40885 147.50831 117.40885 C 148.28736 117.40885 148.89019 117.62934 149.31647 118.07031 C 149.74274 118.51128 149.9557 119.1577 149.9557 120.01025 L 149.9557 127.66146 L 151.94008 127.66146 L 151.94008 119.74566 C 151.94008 118.4448 151.59483 117.4456 150.90397 116.7474 C 150.21311 116.04919 149.19136 115.69991 147.83904 115.69991 z M 159.70136 115.69991 C 158.58423 115.69991 157.61008 115.95348 156.77958 116.46059 C 155.95643 116.96771 155.32454 117.68779 154.88357 118.62118 C 154.4426 119.55458 154.22211 120.65 154.22211 121.90677 C 154.22211 123.12679 154.4461 124.19213 154.89442 125.10347 C 155.34275 126.00747 155.97865 126.70602 156.8018 127.19844 C 157.6323 127.69086 158.60594 127.93689 159.72307 127.93689 C 160.99454 127.93689 162.08244 127.60967 162.98643 126.95556 C 163.89778 126.29411 164.51864 125.37208 164.84937 124.1888 L 162.90944 123.89115 C 162.6963 124.61875 162.31396 125.20304 161.76274 125.64401 C 161.21887 126.08498 160.57194 126.30547 159.82229 126.30547 C 159.13878 126.30547 158.53646 126.15113 158.01464 125.84245 C 157.50017 125.52641 157.09227 125.0704 156.79095 124.47509 C 156.48958 123.87243 156.3167 123.15234 156.27263 122.3145 L 165.0261 122.3145 L 165.0261 121.90677 C 165.0261 120.59855 164.80912 119.47758 164.3755 118.54419 C 163.94187 117.61079 163.32451 116.90524 162.52341 116.42752 C 161.72231 115.94245 160.78174 115.69991 159.70136 115.69991 z M 89.817257 115.9645 L 89.817257 127.66146 L 91.801632 127.66146 L 91.801632 115.9645 L 89.817257 115.9645 z M 137.35492 115.9645 L 137.35492 127.66146 L 139.3393 127.66146 L 139.3393 115.9645 L 137.35492 115.9645 z M 60.55496 117.04919 C 61.481002 117.04919 62.22365 117.33984 62.782214 117.92045 C 63.348129 118.50106 63.689882 119.33139 63.807475 120.41177 L 57.214596 120.41177 C 57.30279 119.74297 57.497725 119.15517 57.799056 118.64806 C 58.107737 118.14094 58.49709 117.74757 58.96746 117.46828 C 59.43783 117.189 59.966997 117.04919 60.55496 117.04919 z M 112.14148 117.32049 C 113.06752 117.32049 113.81016 117.61062 114.36873 118.19124 C 114.93464 118.77185 115.2764 119.60269 115.39399 120.68307 L 108.80111 120.68307 C 108.8893 120.01427 109.08424 119.42596 109.38557 118.91884 C 109.69425 118.41172 110.08361 118.01886 110.55398 117.73958 C 111.02435 117.4603 111.55352 117.32049 112.14148 117.32049 z M 159.67914 117.32049 C 160.60518 117.32049 161.34731 117.61062 161.90588 118.19124 C 162.47179 118.77185 162.81355 119.60269 162.93114 120.68307 L 156.33878 120.68307 C 156.42697 120.01427 156.62191 119.42596 156.92324 118.91884 C 157.23192 118.41172 157.62127 118.01886 158.09164 117.73958 C 158.56201 117.4603 159.09118 117.32049 159.67914 117.32049 z " />
  </g>
</svg>
