<?xml version="1.0" encoding="UTF-8" standalone="no"?>
<!-- Created with Inkscape (http://www.inkscape.org/) -->

<svg
   width="720"
   height="720"
   viewBox="0 0 190.5 190.5"
   version="1.1"
   id="svg5"
   sodipodi:docname="90.svg"
   inkscape:version="1.2.1 (9c6d41e410, 2022-07-14)"
   xmlns:inkscape="http://www.inkscape.org/namespaces/inkscape"
   xmlns:sodipodi="http://sodipodi.sourceforge.net/DTD/sodipodi-0.dtd"
   xmlns="http://www.w3.org/2000/svg"
   xmlns:svg="http://www.w3.org/2000/svg">
  <sodipodi:namedview
     id="namedview7"
     pagecolor="#ffffff"
     bordercolor="#000000"
     borderopacity="0.25"
     inkscape:showpageshadow="2"
     inkscape:pageopacity="0.0"
     inkscape:pagecheckerboard="0"
     inkscape:deskcolor="#d1d1d1"
     inkscape:document-units="mm"
     showgrid="true"
     inkscape:zoom="1.0255231"
     inkscape:cx="342.75192"
     inkscape:cy="395.89553"
     inkscape:window-width="1520"
     inkscape:window-height="1030"
     inkscape:window-x="10"
     inkscape:window-y="1"
     inkscape:window-maximized="0"
     inkscape:current-layer="layer1">
    <inkscape:grid
       type="xygrid"
       id="grid9"
       spacingx="19.05"
       spacingy="19.05" />
  </sodipodi:namedview>
  <defs
     id="defs2">
    <rect
       x="67.282738"
       y="190.14687"
       width="570.4406"
       height="346.16481"
       id="rect2264" />
  </defs>
  <g
     inkscape:label="Ebene 1"
     inkscape:groupmode="layer"
     id="layer1">
    <path
       id="path2360"
       style="font-size:22.5778px;font-family:'Arial Nova';-inkscape-font-specification:'Arial Nova';stroke-width:0.264583"
       d="M 46.047319 63.175472 C 44.658256 63.175472 43.581893 63.550298 42.817542 64.299951 C 42.05319 65.049604 41.524023 66.001713 41.230042 67.155591 C 40.93606 68.302118 40.788725 69.724254 40.788725 71.421997 C 40.788725 74.031083 41.189619 76.048531 41.990719 77.474341 C 42.791818 78.900151 44.143788 79.612712 46.047319 79.612712 C 47.862654 79.612712 49.193093 78.9222 50.038289 77.540487 C 50.890836 76.158773 51.317281 74.108253 51.317281 71.388924 C 51.317281 68.529954 50.876309 66.44636 49.994364 65.138143 C 49.11242 63.829925 47.796508 63.175472 46.047319 63.175472 z M 97.633834 63.446773 C 96.244771 63.446773 95.168409 63.8216 94.404057 64.571252 C 93.639705 65.320906 93.110539 66.272498 92.816557 67.426375 C 92.522576 68.572904 92.37524 69.995039 92.37524 71.692782 C 92.37524 74.301867 92.776135 76.319315 93.577234 77.745125 C 94.378334 79.170935 95.730304 79.884013 97.633834 79.884013 C 99.449166 79.884013 100.77961 79.192984 101.6248 77.811271 C 102.47735 76.429558 102.9038 74.379037 102.9038 71.659709 C 102.9038 68.800739 102.46283 66.717145 101.58088 65.408927 C 100.69894 64.10071 99.383026 63.446773 97.633834 63.446773 z M 145.1715 63.446773 C 143.78244 63.446773 142.70556 63.8216 141.94121 64.571252 C 141.17685 65.320906 140.64769 66.272498 140.35371 67.426375 C 140.05972 68.572904 139.91291 69.995039 139.91291 71.692782 C 139.91291 74.301867 140.31328 76.319315 141.11438 77.745125 C 141.91549 79.170935 143.26798 79.884013 145.1715 79.884013 C 146.98684 79.884013 148.31676 79.192984 149.16195 77.811271 C 150.0145 76.429558 150.44095 74.379037 150.44095 71.659709 C 150.44095 68.800739 149.99998 66.717145 149.11803 65.408927 C 148.23608 64.10071 146.92069 63.446773 145.1715 63.446773 z M 46.014246 64.807414 C 46.763898 64.807414 47.374255 65.020378 47.844625 65.446651 C 48.322345 65.865575 48.678625 66.560107 48.91381 67.530245 C 49.156345 68.493035 49.277612 69.786381 49.277612 71.410628 C 49.277612 73.027527 49.159847 74.31737 48.924662 75.28016 C 48.696826 76.235599 48.348068 76.926628 47.877698 77.352901 C 47.407328 77.771825 46.796971 77.981287 46.047319 77.981287 C 45.290316 77.981287 44.676974 77.771825 44.206604 77.352901 C 43.743583 76.926628 43.397811 76.235599 43.169975 75.28016 C 42.942139 74.31737 42.828394 73.027527 42.828394 71.410628 C 42.828394 69.786381 42.946158 68.493035 43.181344 67.530245 C 43.416529 66.560107 43.765287 65.865575 44.228308 65.446651 C 44.691329 65.020378 45.286641 64.807414 46.014246 64.807414 z M 97.600761 65.078198 C 98.350413 65.078198 98.96077 65.29168 99.43114 65.717952 C 99.908858 66.136876 100.26514 66.831407 100.50033 67.801546 C 100.74286 68.764336 100.86413 70.057682 100.86413 71.68193 C 100.86413 73.298827 100.74636 74.588671 100.51118 75.551461 C 100.28334 76.5069 99.934583 77.19793 99.464213 77.624202 C 98.993843 78.043126 98.383486 78.252588 97.633834 78.252588 C 96.876831 78.252588 96.263489 78.043126 95.793119 77.624202 C 95.330098 77.19793 94.984326 76.5069 94.75649 75.551461 C 94.528654 74.588671 94.414909 73.298827 94.414909 71.68193 C 94.414909 70.057682 94.532674 68.764336 94.767859 67.801546 C 95.003045 66.831407 95.351803 66.136876 95.814823 65.717952 C 96.277844 65.29168 96.873156 65.078198 97.600761 65.078198 z M 145.13843 65.078198 C 145.88808 65.078198 146.49792 65.29168 146.96829 65.717952 C 147.44601 66.136876 147.80229 66.831407 148.03748 67.801546 C 148.28001 68.764336 148.40128 70.057682 148.40128 71.68193 C 148.40128 73.298827 148.28403 74.588671 148.04884 75.551461 C 147.82101 76.5069 147.47174 77.19793 147.00136 77.624202 C 146.53099 78.043126 145.92115 78.252588 145.1715 78.252588 C 144.4145 78.252588 143.80064 78.043126 143.33027 77.624202 C 142.86725 77.19793 142.52199 76.5069 142.29416 75.551461 C 142.06632 74.588671 141.95206 73.298827 141.95206 71.68193 C 141.95206 70.057682 142.06982 68.764336 142.30501 67.801546 C 142.5402 66.831407 142.88947 66.136876 143.35249 65.717952 C 143.81551 65.29168 144.41082 65.078198 145.13843 65.078198 z M 45.623055 87.729012 C 44.233992 87.729012 43.157113 88.103838 42.392761 88.853491 C 41.628409 89.603144 41.099243 90.554737 40.805261 91.708614 C 40.51128 92.855142 40.364461 94.277277 40.364461 95.97502 C 40.364461 98.584106 40.764838 100.60155 41.565938 102.02736 C 42.367038 103.45317 43.719525 104.16625 45.623055 104.16625 C 47.438391 104.16625 48.768313 103.47522 49.613509 102.09351 C 50.466056 100.7118 50.892501 98.661275 50.892501 95.941947 C 50.892501 93.082978 50.451529 90.999384 49.569584 89.691166 C 48.68764 88.382948 47.372245 87.729012 45.623055 87.729012 z M 97.20957 88.000313 C 95.820508 88.000313 94.743628 88.375139 93.979277 89.124792 C 93.214925 89.874445 92.685758 90.826038 92.391777 91.979915 C 92.097795 93.126443 91.950977 94.548579 91.950977 96.246322 C 91.950977 98.855405 92.351354 100.87285 93.152454 102.29867 C 93.953553 103.72448 95.30604 104.43755 97.20957 104.43755 C 99.024906 104.43755 100.35483 103.74652 101.20002 102.36481 C 102.05257 100.9831 102.47902 98.932581 102.47902 96.213249 C 102.47902 93.354279 102.03805 91.270685 101.1561 89.962467 C 100.27416 88.654249 98.958761 88.000313 97.20957 88.000313 z M 144.74672 88.000313 C 143.35766 88.000313 142.28078 88.375139 141.51643 89.124792 C 140.75207 89.874445 140.22291 90.826038 139.92893 91.979915 C 139.63495 93.126443 139.48813 94.548579 139.48813 96.246322 C 139.48813 98.855405 139.8885 100.87285 140.6896 102.29867 C 141.4907 103.72448 142.84319 104.43755 144.74672 104.43755 C 146.56205 104.43755 147.89249 103.74652 148.73769 102.36481 C 149.59024 100.9831 150.01617 98.932581 150.01617 96.213249 C 150.01617 93.354279 149.5752 91.270685 148.69325 89.962467 C 147.8113 88.654249 146.49591 88.000313 144.74672 88.000313 z M 45.589982 89.360437 C 46.339635 89.360437 46.949474 89.573918 47.419845 90.000191 C 47.897565 90.419115 48.253845 91.113646 48.48903 92.083785 C 48.731564 93.046574 48.852832 94.339921 48.852832 95.964168 C 48.852832 97.581067 48.735584 98.870911 48.500399 99.8337 C 48.272563 100.78914 47.923288 101.48017 47.452917 101.90644 C 46.982547 102.32537 46.372708 102.53483 45.623055 102.53483 C 44.866052 102.53483 44.252194 102.32537 43.781824 101.90644 C 43.318803 101.48017 42.973547 100.78914 42.745711 99.8337 C 42.517875 98.870911 42.403613 97.581067 42.403613 95.964168 C 42.403613 94.339921 42.521378 93.046574 42.756563 92.083785 C 42.991748 91.113646 43.341024 90.419115 43.804045 90.000191 C 44.267065 89.573918 44.862377 89.360437 45.589982 89.360437 z M 97.176497 89.631738 C 97.926151 89.631738 98.53599 89.844702 99.00636 90.270976 C 99.484079 90.689899 99.84036 91.38443 100.07555 92.354569 C 100.31808 93.317359 100.43935 94.611222 100.43935 96.23547 C 100.43935 97.852368 100.3221 99.142213 100.08691 100.105 C 99.859082 101.06044 99.509803 101.75095 99.039433 102.17723 C 98.569062 102.59615 97.959223 102.80561 97.20957 102.80561 C 96.452568 102.80561 95.83871 102.59615 95.368339 102.17723 C 94.905318 101.75095 94.560062 101.06044 94.332227 100.105 C 94.104391 99.142213 93.990129 97.852368 93.990129 96.23547 C 93.990129 94.611222 94.107894 93.317359 94.343079 92.354569 C 94.578264 91.38443 94.927539 90.689899 95.39056 90.270976 C 95.853581 89.844702 96.448893 89.631738 97.176497 89.631738 z M 144.71365 89.631738 C 145.4633 89.631738 146.07314 89.844702 146.54351 90.270976 C 147.02123 90.689899 147.37803 91.38443 147.61321 92.354569 C 147.85575 93.317359 147.97701 94.611222 147.97701 96.23547 C 147.97701 97.852368 147.85925 99.142213 147.62406 100.105 C 147.39623 101.06044 147.04696 101.75095 146.57658 102.17723 C 146.10622 102.59615 145.49637 102.80561 144.74672 102.80561 C 143.98971 102.80561 143.37586 102.59615 142.90549 102.17723 C 142.44246 101.75095 142.09721 101.06044 141.86938 100.105 C 141.64154 99.142213 141.5278 97.852368 141.5278 96.23547 C 141.5278 94.611222 141.64505 93.317359 141.88023 92.354569 C 142.11542 91.38443 142.46469 90.689899 142.92771 90.270976 C 143.39074 89.844702 143.98605 89.631738 144.71365 89.631738 z M 45.771366 111.22835 C 44.382304 111.22835 43.305941 111.60318 42.541589 112.35283 C 41.777237 113.10248 41.24807 114.05459 40.954089 115.20847 C 40.660108 116.355 40.512773 117.77713 40.512773 119.47488 C 40.512773 122.08396 40.913667 124.10141 41.714766 125.52722 C 42.515866 126.95303 43.867836 127.66559 45.771366 127.66559 C 47.586702 127.66559 48.91714 126.97509 49.762337 125.59337 C 50.614883 124.21166 51.041329 122.16114 51.041329 119.44181 C 51.041329 116.58284 50.600357 114.49924 49.718412 113.19102 C 48.836468 111.88281 47.520556 111.22835 45.771366 111.22835 z M 97.357882 111.49965 C 95.968819 111.49965 94.892457 111.87448 94.128105 112.62413 C 93.363753 113.37379 92.834586 114.32538 92.540605 115.47926 C 92.246623 116.62578 92.099288 118.04792 92.099288 119.74566 C 92.099288 122.35475 92.500182 124.37219 93.301282 125.79801 C 94.102382 127.22382 95.454352 127.93689 97.357882 127.93689 C 99.173217 127.93689 100.50365 127.24586 101.34885 125.86415 C 102.2014 124.48244 102.62784 122.43192 102.62784 119.71259 C 102.62784 116.85362 102.18687 114.77003 101.30493 113.46181 C 100.42298 112.15359 99.107071 111.49965 97.357882 111.49965 z M 144.89555 111.49965 C 143.50649 111.49965 142.42961 111.87448 141.66525 112.62413 C 140.9009 113.37379 140.37173 114.32538 140.07775 115.47926 C 139.78377 116.62578 139.63695 118.04792 139.63695 119.74566 C 139.63695 122.35475 140.03733 124.37219 140.83843 125.79801 C 141.63954 127.22382 142.99202 127.93689 144.89555 127.93689 C 146.71089 127.93689 148.04132 127.24586 148.88652 125.86415 C 149.73907 124.48244 150.16499 122.43192 150.16499 119.71259 C 150.16499 116.85362 149.72402 114.77003 148.84208 113.46181 C 147.96013 112.15359 146.64474 111.49965 144.89555 111.49965 z M 45.738293 112.86029 C 46.487946 112.86029 47.098302 113.07326 47.568673 113.49953 C 48.046392 113.91845 48.402673 114.61299 48.637858 115.58313 C 48.880393 116.54592 49.00166 117.83926 49.00166 119.46351 C 49.00166 121.08041 48.883895 122.37025 48.64871 123.33304 C 48.420874 124.28848 48.072116 124.97951 47.601746 125.40578 C 47.131375 125.82471 46.521019 126.03417 45.771366 126.03417 C 45.014364 126.03417 44.401022 125.82471 43.930652 125.40578 C 43.467631 124.97951 43.121858 124.28848 42.894023 123.33304 C 42.666187 122.37025 42.552441 121.08041 42.552441 119.46351 C 42.552441 117.83926 42.670206 116.54592 42.905391 115.58313 C 43.140577 114.61299 43.489335 113.91845 43.952356 113.49953 C 44.415377 113.07326 45.01069 112.86029 45.738293 112.86029 z M 97.324809 113.13108 C 98.074461 113.13108 98.684818 113.34456 99.155188 113.77083 C 99.632908 114.18976 99.989186 114.88429 100.22437 115.85443 C 100.46691 116.81721 100.58818 118.11056 100.58818 119.73481 C 100.58818 121.35171 100.47041 122.64156 100.23523 123.60434 C 100.00739 124.55978 99.658631 125.25081 99.188261 125.67708 C 98.717891 126.09601 98.107534 126.30547 97.357882 126.30547 C 96.600879 126.30547 95.987537 126.09601 95.517167 125.67708 C 95.054146 125.25081 94.708374 124.55978 94.480538 123.60434 C 94.252702 122.64156 94.138957 121.35171 94.138957 119.73481 C 94.138957 118.11056 94.256722 116.81721 94.491907 115.85443 C 94.727092 114.88429 95.07585 114.18976 95.538871 113.77083 C 96.001892 113.34456 96.597204 113.13108 97.324809 113.13108 z M 144.86248 113.13108 C 145.61213 113.13108 146.22197 113.34456 146.69234 113.77083 C 147.17006 114.18976 147.52685 114.88429 147.76204 115.85443 C 148.00457 116.81721 148.12584 118.11056 148.12584 119.73481 C 148.12584 121.35171 148.00808 122.64156 147.77289 123.60434 C 147.54506 124.55978 147.19578 125.25081 146.72541 125.67708 C 146.25504 126.09601 145.6452 126.30547 144.89555 126.30547 C 144.13855 126.30547 143.52469 126.09601 143.05432 125.67708 C 142.5913 125.25081 142.24604 124.55978 142.0182 123.60434 C 141.79036 122.64156 141.67611 121.35171 141.67611 119.73481 C 141.67611 118.11056 141.79387 116.81721 142.02906 115.85443 C 142.26424 114.88429 142.61352 114.18976 143.07654 113.77083 C 143.53956 113.34456 144.13487 113.13108 144.86248 113.13108 z " />
    <text
       xml:space="preserve"
       transform="scale(0.26458333)"
       id="text2262"
       style="fill:#000000;font-size:85.33333333px;-inkscape-font-specification:'Arial Nova, Normal';font-family:'Arial Nova';font-weight:normal;font-style:normal;font-stretch:normal;font-variant:normal;font-variant-ligatures:normal;font-variant-caps:normal;font-variant-numeric:normal;font-variant-east-asian:normal;white-space:pre;shape-inside:url(#rect2264)" />
  </g>
</svg>
