<?xml version="1.0" encoding="UTF-8" standalone="no"?>
<!-- Created with Inkscape (http://www.inkscape.org/) -->

<svg
   width="720"
   height="720"
   viewBox="0 0 190.5 190.5"
   version="1.1"
   id="svg5"
   sodipodi:docname="94.svg"
   inkscape:version="1.2.1 (9c6d41e410, 2022-07-14)"
   xmlns:inkscape="http://www.inkscape.org/namespaces/inkscape"
   xmlns:sodipodi="http://sodipodi.sourceforge.net/DTD/sodipodi-0.dtd"
   xmlns="http://www.w3.org/2000/svg"
   xmlns:svg="http://www.w3.org/2000/svg">
  <sodipodi:namedview
     id="namedview7"
     pagecolor="#ffffff"
     bordercolor="#000000"
     borderopacity="0.25"
     inkscape:showpageshadow="2"
     inkscape:pageopacity="0.0"
     inkscape:pagecheckerboard="0"
     inkscape:deskcolor="#d1d1d1"
     inkscape:document-units="mm"
     showgrid="true"
     inkscape:zoom="1.0255231"
     inkscape:cx="342.75192"
     inkscape:cy="395.89553"
     inkscape:window-width="1520"
     inkscape:window-height="1030"
     inkscape:window-x="10"
     inkscape:window-y="1"
     inkscape:window-maximized="0"
     inkscape:current-layer="layer1">
    <inkscape:grid
       type="xygrid"
       id="grid9"
       spacingx="19.05"
       spacingy="19.05" />
  </sodipodi:namedview>
  <defs
     id="defs2">
    <rect
       x="67.282738"
       y="190.14687"
       width="570.4406"
       height="346.16481"
       id="rect2264" />
  </defs>
  <g
     inkscape:label="Ebene 1"
     inkscape:groupmode="layer"
     id="layer1">
    <path
       id="path2314"
       style="font-size:22.5778px;font-family:'Arial Nova';-inkscape-font-specification:'Arial Nova';stroke-width:0.264583"
       d="M 47.458602 63.175472 L 40.105562 73.648735 L 40.105562 75.478597 L 47.105652 75.478597 L 47.105652 79.337276 L 49.090027 79.337276 L 49.090027 75.478597 L 51.272839 75.478597 L 51.272839 73.648735 L 49.090027 73.648735 L 49.090027 63.175472 L 47.458602 63.175472 z M 99.045117 63.446773 L 91.692078 73.920036 L 91.692078 75.749898 L 98.692167 75.749898 L 98.692167 79.608577 L 100.67654 79.608577 L 100.67654 75.749898 L 102.85935 75.749898 L 102.85935 73.920036 L 100.67654 73.920036 L 100.67654 63.446773 L 99.045117 63.446773 z M 146.58227 63.446773 L 139.22923 73.920036 L 139.22923 75.749898 L 146.22983 75.749898 L 146.22983 79.608577 L 148.21421 79.608577 L 148.21421 75.749898 L 150.39702 75.749898 L 150.39702 73.920036 L 148.21421 73.920036 L 148.21421 63.446773 L 146.58227 63.446773 z M 47.061727 66.648128 L 47.105652 66.648128 L 47.105652 73.648735 L 42.133862 73.648735 L 47.061727 66.648128 z M 98.648242 66.91943 L 98.692167 66.91943 L 98.692167 73.920036 L 93.720378 73.920036 L 98.648242 66.91943 z M 146.18539 66.91943 L 146.22983 66.91943 L 146.22983 73.920036 L 141.25753 73.920036 L 146.18539 66.91943 z M 47.033822 87.729012 L 39.680782 98.202275 L 39.680782 100.03214 L 46.681388 100.03214 L 46.681388 103.89082 L 48.665763 103.89082 L 48.665763 100.03214 L 50.848576 100.03214 L 50.848576 98.202275 L 48.665763 98.202275 L 48.665763 87.729012 L 47.033822 87.729012 z M 98.620337 88.000313 L 91.267297 98.473059 L 91.267297 100.30344 L 98.267904 100.30344 L 98.267904 104.1616 L 100.25228 104.1616 L 100.25228 100.30344 L 102.43509 100.30344 L 102.43509 98.473059 L 100.25228 98.473059 L 100.25228 88.000313 L 98.620337 88.000313 z M 146.158 88.000313 L 138.80445 98.473059 L 138.80445 100.30344 L 145.80505 100.30344 L 145.80505 104.1616 L 147.78943 104.1616 L 147.78943 100.30344 L 149.97224 100.30344 L 149.97224 98.473059 L 147.78943 98.473059 L 147.78943 88.000313 L 146.158 88.000313 z M 46.636947 91.201668 L 46.681388 91.201668 L 46.681388 98.202275 L 41.709082 98.202275 L 46.636947 91.201668 z M 98.223462 91.47297 L 98.267904 91.47297 L 98.267904 98.473059 L 93.295597 98.473059 L 98.223462 91.47297 z M 145.76113 91.47297 L 145.80505 91.47297 L 145.80505 98.473059 L 140.83326 98.473059 L 145.76113 91.47297 z M 47.18265 111.22835 L 39.82961 121.70162 L 39.82961 123.53148 L 46.8297 123.53148 L 46.8297 127.39016 L 48.814075 127.39016 L 48.814075 123.53148 L 50.996887 123.53148 L 50.996887 121.70162 L 48.814075 121.70162 L 48.814075 111.22835 L 47.18265 111.22835 z M 98.769165 111.49965 L 91.416125 121.97292 L 91.416125 123.80278 L 98.416215 123.80278 L 98.416215 127.66146 L 100.40059 127.66146 L 100.40059 123.80278 L 102.5834 123.80278 L 102.5834 121.97292 L 100.40059 121.97292 L 100.40059 111.49965 L 98.769165 111.49965 z M 146.30683 111.49965 L 138.95328 121.97292 L 138.95328 123.80278 L 145.95388 123.80278 L 145.95388 127.66146 L 147.93826 127.66146 L 147.93826 123.80278 L 150.12107 123.80278 L 150.12107 121.97292 L 147.93826 121.97292 L 147.93826 111.49965 L 146.30683 111.49965 z M 46.785775 114.70101 L 46.8297 114.70101 L 46.8297 121.70162 L 41.85791 121.70162 L 46.785775 114.70101 z M 98.37229 114.97231 L 98.416215 114.97231 L 98.416215 121.97292 L 93.444425 121.97292 L 98.37229 114.97231 z M 145.90996 114.97231 L 145.95388 114.97231 L 145.95388 121.97292 L 140.98158 121.97292 L 145.90996 114.97231 z " />
    <text
       xml:space="preserve"
       transform="scale(0.26458333)"
       id="text2262"
       style="fill:#000000;font-size:85.33333333px;-inkscape-font-specification:'Arial Nova, Normal';font-family:'Arial Nova';font-weight:normal;font-style:normal;font-stretch:normal;font-variant:normal;font-variant-ligatures:normal;font-variant-caps:normal;font-variant-numeric:normal;font-variant-east-asian:normal;white-space:pre;shape-inside:url(#rect2264)" />
  </g>
</svg>
