<?xml version="1.0" encoding="UTF-8" standalone="no"?>
<!-- Created with Inkscape (http://www.inkscape.org/) -->

<svg
   width="720"
   height="720"
   viewBox="0 0 190.5 190.5"
   version="1.1"
   id="svg5"
   sodipodi:docname="9A.svg"
   inkscape:version="1.2.1 (9c6d41e410, 2022-07-14)"
   xmlns:inkscape="http://www.inkscape.org/namespaces/inkscape"
   xmlns:sodipodi="http://sodipodi.sourceforge.net/DTD/sodipodi-0.dtd"
   xmlns="http://www.w3.org/2000/svg"
   xmlns:svg="http://www.w3.org/2000/svg">
  <sodipodi:namedview
     id="namedview7"
     pagecolor="#ffffff"
     bordercolor="#000000"
     borderopacity="0.25"
     inkscape:showpageshadow="2"
     inkscape:pageopacity="0.0"
     inkscape:pagecheckerboard="0"
     inkscape:deskcolor="#d1d1d1"
     inkscape:document-units="mm"
     showgrid="true"
     inkscape:zoom="1.0255231"
     inkscape:cx="342.75192"
     inkscape:cy="395.89553"
     inkscape:window-width="1520"
     inkscape:window-height="1030"
     inkscape:window-x="10"
     inkscape:window-y="1"
     inkscape:window-maximized="0"
     inkscape:current-layer="layer1">
    <inkscape:grid
       type="xygrid"
       id="grid9"
       spacingx="19.05"
       spacingy="19.05" />
  </sodipodi:namedview>
  <defs
     id="defs2" />
  <g
     inkscape:label="Ebene 1"
     inkscape:groupmode="layer"
     id="layer1">
    <path
       id="path2219"
       style="font-size:22.5778px;font-family:'Arial Nova';-inkscape-font-specification:'Arial Nova';stroke-width:0.264583"
       d="M 44.3606 63.175472 L 38.175964 79.337276 L 40.414071 79.337276 L 42.222229 74.420264 L 48.957735 74.420264 L 50.85426 79.337276 L 53.23551 79.337276 L 46.664852 63.175472 L 44.3606 63.175472 z M 95.947115 63.446773 L 89.76248 79.608577 L 92.000586 79.608577 L 93.808744 74.691565 L 100.54425 74.691565 L 102.44078 79.608577 L 104.82203 79.608577 L 98.251367 63.446773 L 95.947115 63.446773 z M 143.48478 63.446773 L 137.30015 79.608577 L 139.53825 79.608577 L 141.34589 74.691565 L 148.08192 74.691565 L 149.97793 79.608577 L 152.35918 79.608577 L 145.78903 63.446773 L 143.48478 63.446773 z M 45.474227 64.862191 L 45.518152 64.862191 C 45.70924 65.575095 45.882127 66.17793 46.036466 66.670349 C 46.190807 67.162768 46.359674 67.65134 46.543412 68.13641 L 48.307646 72.722693 L 42.828394 72.722693 L 44.50426 68.15863 C 44.937883 66.968006 45.26109 65.869077 45.474227 64.862191 z M 97.060742 65.133492 L 97.104667 65.133492 C 97.295755 65.846397 97.468641 66.449232 97.622982 66.94165 C 97.777322 67.43407 97.946189 67.922641 98.129928 68.407711 L 99.894161 72.993994 L 94.414909 72.993994 L 96.090776 68.429932 C 96.524398 67.239307 96.847606 66.140379 97.060742 65.133492 z M 144.59841 65.133492 L 144.64233 65.133492 C 144.83342 65.846397 145.00631 66.449232 145.16065 66.94165 C 145.31499 67.43407 145.48385 67.922641 145.66759 68.407711 L 147.43131 72.993994 L 141.95258 72.993994 L 143.62793 68.429932 C 144.06155 67.239307 144.38528 66.140379 144.59841 65.133492 z M 43.936336 87.729012 L 37.751701 103.89082 L 39.98929 103.89082 L 41.797449 98.973804 L 48.533472 98.973804 L 50.42948 103.89082 L 52.81073 103.89082 L 46.240072 87.729012 L 43.936336 87.729012 z M 95.522852 88.000313 L 89.338216 104.1616 L 91.575806 104.1616 L 93.383964 99.245105 L 100.11999 99.245105 L 102.016 104.1616 L 104.39725 104.1616 L 97.826587 88.000313 L 95.522852 88.000313 z M 143.06 88.000313 L 136.87537 104.1616 L 139.11347 104.1616 L 140.92163 99.245105 L 147.65714 99.245105 L 149.55366 104.1616 L 151.93491 104.1616 L 145.36425 88.000313 L 143.06 88.000313 z M 45.049447 89.415731 L 45.093888 89.415731 C 45.284977 90.128636 45.457346 90.73147 45.611686 91.223889 C 45.766027 91.716308 45.93541 92.20488 46.119149 92.68995 L 47.882865 97.276233 L 42.403613 97.276233 L 44.07948 92.71217 C 44.513103 91.521545 44.83631 90.422617 45.049447 89.415731 z M 96.635962 89.687032 L 96.680404 89.687032 C 96.871491 90.399937 97.043861 91.002255 97.198201 91.494674 C 97.352542 91.987093 97.521926 92.476181 97.705664 92.961251 L 99.469381 97.547017 L 93.990129 97.547017 L 95.665995 92.982955 C 96.099618 91.792329 96.422825 90.693918 96.635962 89.687032 z M 144.17363 89.687032 L 144.21755 89.687032 C 144.40864 90.399937 144.58152 91.002255 144.73587 91.494674 C 144.89021 91.987093 145.05908 92.476181 145.24281 92.961251 L 147.00705 97.547017 L 141.5278 97.547017 L 143.20366 92.982955 C 143.63728 91.792329 143.96049 90.693918 144.17363 89.687032 z M 44.084648 111.22835 L 37.900012 127.39016 L 40.138118 127.39016 L 41.946277 122.47314 L 48.681783 122.47314 L 50.578308 127.39016 L 52.959558 127.39016 L 46.3889 111.22835 L 44.084648 111.22835 z M 95.671163 111.49965 L 89.486528 127.66146 L 91.724634 127.66146 L 93.532792 122.74445 L 100.2683 122.74445 L 102.16482 127.66146 L 104.54607 127.66146 L 97.975415 111.49965 L 95.671163 111.49965 z M 143.20883 111.49965 L 137.02419 127.66146 L 139.2623 127.66146 L 141.06994 122.74445 L 147.80597 122.74445 L 149.70197 127.66146 L 152.08322 127.66146 L 145.51308 111.49965 L 143.20883 111.49965 z M 45.198275 112.91507 L 45.2422 112.91507 C 45.433288 113.62798 45.606174 114.23081 45.760514 114.72323 C 45.914854 115.21565 46.083722 115.70422 46.26746 116.18929 L 48.031694 120.77557 L 42.552441 120.77557 L 44.228308 116.21151 C 44.66193 115.02089 44.985138 113.92196 45.198275 112.91507 z M 96.78479 113.18637 L 96.828715 113.18637 C 97.019803 113.89928 97.19269 114.50211 97.34703 114.99453 C 97.50137 115.48695 97.670237 115.97553 97.853975 116.46059 L 99.618209 121.04687 L 94.138957 121.04687 L 95.814823 116.48281 C 96.248446 115.29219 96.571654 114.19326 96.78479 113.18637 z M 144.32246 113.18637 L 144.36638 113.18637 C 144.55747 113.89928 144.73036 114.50211 144.8847 114.99453 C 145.03904 115.48695 145.2079 115.97553 145.39164 116.46059 L 147.15536 121.04687 L 141.67662 121.04687 L 143.35197 116.48281 C 143.7856 115.29219 144.10932 114.19326 144.32246 113.18637 z " />
  </g>
</svg>
