<?xml version="1.0" encoding="UTF-8" standalone="no"?>
<!-- Created with Inkscape (http://www.inkscape.org/) -->

<svg
   width="720"
   height="720"
   viewBox="0 0 190.5 190.5"
   version="1.1"
   id="svg5"
   sodipodi:docname="9V.svg"
   inkscape:version="1.2.1 (9c6d41e410, 2022-07-14)"
   xmlns:inkscape="http://www.inkscape.org/namespaces/inkscape"
   xmlns:sodipodi="http://sodipodi.sourceforge.net/DTD/sodipodi-0.dtd"
   xmlns="http://www.w3.org/2000/svg"
   xmlns:svg="http://www.w3.org/2000/svg">
  <sodipodi:namedview
     id="namedview7"
     pagecolor="#ffffff"
     bordercolor="#000000"
     borderopacity="0.25"
     inkscape:showpageshadow="2"
     inkscape:pageopacity="0.0"
     inkscape:pagecheckerboard="0"
     inkscape:deskcolor="#d1d1d1"
     inkscape:document-units="mm"
     showgrid="true"
     inkscape:zoom="1.0255231"
     inkscape:cx="342.75192"
     inkscape:cy="395.89553"
     inkscape:window-width="1520"
     inkscape:window-height="1030"
     inkscape:window-x="10"
     inkscape:window-y="1"
     inkscape:window-maximized="0"
     inkscape:current-layer="layer1">
    <inkscape:grid
       type="xygrid"
       id="grid9"
       spacingx="19.05"
       spacingy="19.05" />
  </sodipodi:namedview>
  <defs
     id="defs2">
    <rect
       x="67.282738"
       y="190.14687"
       width="570.4406"
       height="346.16481"
       id="rect2264" />
  </defs>
  <g
     inkscape:label="Ebene 1"
     inkscape:groupmode="layer"
     id="layer1">
    <path
       id="path2268"
       style="font-size:22.5778px;font-family:'Arial Nova';-inkscape-font-specification:'Arial Nova';stroke-width:0.264583"
       d="M 38.749573 63.175472 L 44.779696 79.337276 L 46.97336 79.337276 L 53.070146 63.175472 L 50.809819 63.175472 L 46.609558 74.916357 C 46.352324 75.651311 46.124833 76.471129 45.926396 77.375122 L 45.881954 77.375122 C 45.801109 76.93415 45.694885 76.474631 45.562594 75.996912 C 45.430302 75.519191 45.301513 75.096766 45.176571 74.729289 L 41.09775 63.175472 L 38.749573 63.175472 z M 90.336088 63.446773 L 96.366211 79.608577 L 98.559875 79.608577 L 104.65666 63.446773 L 102.39633 63.446773 L 98.196073 75.187659 C 97.93884 75.922613 97.711349 76.741913 97.512911 77.645907 L 97.468469 77.645907 C 97.387625 77.204934 97.281401 76.745933 97.149109 76.268213 C 97.016817 75.790493 96.888028 75.36755 96.763086 75.000073 L 92.684265 63.446773 L 90.336088 63.446773 z M 137.87324 63.446773 L 143.90388 79.608577 L 146.09754 79.608577 L 152.19381 63.446773 L 149.934 63.446773 L 145.73374 75.187659 C 145.47651 75.922613 145.2485 76.741913 145.05006 77.645907 L 145.00614 77.645907 C 144.9253 77.204934 144.81855 76.745933 144.68626 76.268213 C 144.55397 75.790493 144.42569 75.36755 144.30075 75.000073 L 140.22142 63.446773 L 137.87324 63.446773 z M 38.324792 87.729012 L 44.354915 103.89082 L 46.549097 103.89082 L 52.645365 87.729012 L 50.385555 87.729012 L 46.185295 99.469897 C 45.928061 100.20485 45.700053 101.02415 45.501615 101.92815 L 45.45769 101.92815 C 45.376845 101.48717 45.270105 101.02817 45.137813 100.55045 C 45.005521 100.07273 44.876732 99.649789 44.75179 99.282312 L 40.67297 87.729012 L 38.324792 87.729012 z M 89.911308 88.000313 L 95.941431 104.1616 L 98.135612 104.1616 L 104.23188 88.000313 L 101.97207 88.000313 L 97.77181 99.741199 C 97.514576 100.47615 97.286568 101.29545 97.088131 102.19945 L 97.044206 102.19945 C 96.963361 101.75847 96.85662 101.29896 96.724329 100.82124 C 96.592037 100.34352 96.463248 99.921089 96.338306 99.553613 L 92.259485 88.000313 L 89.911308 88.000313 z M 137.44897 88.000313 L 143.4791 104.1616 L 145.67276 104.1616 L 151.76955 88.000313 L 149.50922 88.000313 L 145.30896 99.741199 C 145.05173 100.47615 144.82424 101.29545 144.6258 102.19945 L 144.58136 102.19945 C 144.50051 101.75847 144.39429 101.29896 144.262 100.82124 C 144.1297 100.34352 144.00091 99.921089 143.87597 99.553613 L 139.79715 88.000313 L 137.44897 88.000313 z M 38.473621 111.22835 L 44.503743 127.39016 L 46.697408 127.39016 L 52.794194 111.22835 L 50.533866 111.22835 L 46.333606 122.96924 C 46.076372 123.70419 45.848881 124.52401 45.650444 125.428 L 45.606002 125.428 C 45.525157 124.98703 45.418933 124.52751 45.286641 124.04979 C 45.15435 123.57207 45.02556 123.14965 44.900618 122.78217 L 40.821798 111.22835 L 38.473621 111.22835 z M 90.060136 111.49965 L 96.090259 127.66146 L 98.283923 127.66146 L 104.38071 111.49965 L 102.12038 111.49965 L 97.920121 123.24054 C 97.662888 123.97549 97.435397 124.7948 97.236959 125.69879 L 97.192517 125.69879 C 97.111672 125.25781 97.005448 124.79881 96.873157 124.32109 C 96.740865 123.84337 96.612076 123.42043 96.487134 123.05295 L 92.408313 111.49965 L 90.060136 111.49965 z M 137.59729 111.49965 L 143.62793 127.66146 L 145.82159 127.66146 L 151.91786 111.49965 L 149.65805 111.49965 L 145.45779 123.24054 C 145.20056 123.97549 144.97255 124.7948 144.77411 125.69879 L 144.73018 125.69879 C 144.64934 125.25781 144.5426 124.79881 144.41031 124.32109 C 144.27801 123.84337 144.14974 123.42043 144.0248 123.05295 L 139.94546 111.49965 L 137.59729 111.49965 z " />
    <text
       xml:space="preserve"
       transform="scale(0.26458333)"
       id="text2262"
       style="fill:#000000;font-size:85.33333333px;-inkscape-font-specification:'Arial Nova, Normal';font-family:'Arial Nova';font-weight:normal;font-style:normal;font-stretch:normal;font-variant:normal;font-variant-ligatures:normal;font-variant-caps:normal;font-variant-numeric:normal;font-variant-east-asian:normal;white-space:pre;shape-inside:url(#rect2264)" />
  </g>
</svg>
