<?xml version="1.0" encoding="UTF-8" standalone="no"?>
<!-- Created with Inkscape (http://www.inkscape.org/) -->

<svg
   width="720"
   height="720"
   viewBox="0 0 190.5 190.5"
   version="1.1"
   id="svg5"
   sodipodi:docname="25.svg"
   inkscape:version="1.2.1 (9c6d41e410, 2022-07-14)"
   xmlns:inkscape="http://www.inkscape.org/namespaces/inkscape"
   xmlns:sodipodi="http://sodipodi.sourceforge.net/DTD/sodipodi-0.dtd"
   xmlns="http://www.w3.org/2000/svg"
   xmlns:svg="http://www.w3.org/2000/svg">
  <sodipodi:namedview
     id="namedview7"
     pagecolor="#ffffff"
     bordercolor="#000000"
     borderopacity="0.25"
     inkscape:showpageshadow="2"
     inkscape:pageopacity="0.0"
     inkscape:pagecheckerboard="0"
     inkscape:deskcolor="#d1d1d1"
     inkscape:document-units="mm"
     showgrid="true"
     inkscape:zoom="1.0255231"
     inkscape:cx="402.23375"
     inkscape:cy="371.51772"
     inkscape:window-width="1520"
     inkscape:window-height="1030"
     inkscape:window-x="10"
     inkscape:window-y="0"
     inkscape:window-maximized="0"
     inkscape:current-layer="layer1">
    <inkscape:grid
       type="xygrid"
       id="grid9"
       spacingx="19.05"
       spacingy="19.05" />
  </sodipodi:namedview>
  <defs
     id="defs2">
    <rect
       x="584.09216"
       y="481.70539"
       width="537.28678"
       height="297.4092"
       id="rect4253" />
    <rect
       x="266.20561"
       y="258.40471"
       width="392.97018"
       height="108.23744"
       id="rect3681" />
  </defs>
  <g
     inkscape:label="Ebene 1"
     inkscape:groupmode="layer"
     id="layer1">
    <text
       xml:space="preserve"
       transform="scale(0.26458333)"
       id="text3679"
       style="font-size:85.3333px;font-family:'Arial Nova';-inkscape-font-specification:'Arial Nova, Normal';white-space:pre;shape-inside:url(#rect3681);display:inline;fill:#000000" />
    <path
       id="path4432"
       style="font-size:22.5778px;font-family:'Arial Nova';-inkscape-font-specification:'Arial Nova';stroke-width:0.264583"
       d="M 65.511764 87.63031 L 64.265845 95.942464 L 66.029561 96.207048 C 66.323543 95.744027 66.742467 95.361679 67.286332 95.060347 C 67.837548 94.759016 68.388763 94.608695 68.939978 94.608695 C 69.586737 94.608695 70.156499 94.759016 70.648918 95.060347 C 71.141336 95.354329 71.523685 95.777272 71.795618 96.328487 C 72.0749 96.879702 72.214197 97.526117 72.214197 98.26842 C 72.214197 99.003374 72.070881 99.668849 71.784249 100.26416 C 71.497617 100.85212 71.097239 101.31865 70.582772 101.66408 C 70.068304 102.00216 69.487519 102.17102 68.840759 102.17102 C 68.024961 102.17102 67.341454 101.91396 66.790238 101.3995 C 66.246372 100.88503 65.886589 100.12785 65.710201 99.128316 L 63.725826 99.437341 C 63.953662 100.84845 64.508379 101.92883 65.390324 102.67849 C 66.272268 103.42814 67.418797 103.80297 68.829907 103.80297 C 69.947037 103.80297 70.920679 103.56043 71.751176 103.07536 C 72.581674 102.59029 73.221083 101.91781 73.669405 101.05791 C 74.117727 100.19067 74.342232 99.198481 74.342232 98.081352 C 74.342232 97.037717 74.125249 96.118681 73.691626 95.324931 C 73.265353 94.531181 72.681065 93.921342 71.938761 93.495068 C 71.203807 93.061446 70.384507 92.844462 69.480514 92.844462 C 68.8999 92.844462 68.35569 92.932657 67.848572 93.109045 C 67.341454 93.285435 66.885954 93.535491 66.48173 93.85887 L 67.132336 89.548539 L 73.570186 89.548539 L 73.570186 87.63031 L 65.511764 87.63031 z M 116.41305 87.642712 L 115.16765 95.955383 L 116.93136 96.219967 C 117.22534 95.756946 117.64427 95.374598 118.18813 95.073267 C 118.73935 94.771936 119.29057 94.621098 119.84178 94.621098 C 120.48854 94.621098 121.0583 94.771936 121.55072 95.073267 C 122.04314 95.367248 122.42497 95.789674 122.6969 96.340889 C 122.97618 96.892105 123.116 97.539036 123.116 98.28134 C 123.116 99.016293 122.97268 99.681254 122.68605 100.27657 C 122.39943 100.86453 121.99905 101.33156 121.48457 101.677 C 120.97011 102.01508 120.38932 102.18394 119.74256 102.18394 C 118.92676 102.18394 118.24325 101.92689 117.69204 101.41241 C 117.14817 100.89795 116.78787 100.14077 116.61149 99.141235 L 114.62711 99.449744 C 114.85494 100.86085 115.41018 101.94124 116.29213 102.69089 C 117.17407 103.44054 118.3206 103.81537 119.73171 103.81537 C 120.84884 103.81537 121.82248 103.57283 122.65298 103.08776 C 123.48348 102.6027 124.12289 101.93022 124.57121 101.07032 C 125.01953 100.20307 125.24352 99.210884 125.24352 98.093754 C 125.24352 97.05012 125.02705 96.1316 124.59343 95.33785 C 124.16716 94.5441 123.58286 93.93426 122.84056 93.507987 C 122.1056 93.074365 121.28579 92.857381 120.3818 92.857381 C 119.80119 92.857381 119.25749 92.945575 118.75037 93.121965 C 118.24326 93.298353 117.78776 93.54841 117.38353 93.87179 L 118.03362 89.560942 L 124.47199 89.560942 L 124.47199 87.642712 L 116.41305 87.642712 z " />
    <text
       xml:space="preserve"
       transform="scale(0.26458333)"
       id="text4251"
       style="fill:#000000;font-size:85.33333333px;-inkscape-font-specification:'Arial Nova, Normal';font-family:'Arial Nova';white-space:pre;shape-inside:url(#rect4253)" />
  </g>
</svg>
