<?xml version="1.0" encoding="UTF-8" standalone="no"?>
<!-- Created with Inkscape (http://www.inkscape.org/) -->

<svg
   width="720"
   height="720"
   viewBox="0 0 190.5 190.5"
   version="1.1"
   id="svg5"
   sodipodi:docname="4four.svg"
   inkscape:version="1.2.1 (9c6d41e410, 2022-07-14)"
   xmlns:inkscape="http://www.inkscape.org/namespaces/inkscape"
   xmlns:sodipodi="http://sodipodi.sourceforge.net/DTD/sodipodi-0.dtd"
   xmlns="http://www.w3.org/2000/svg"
   xmlns:svg="http://www.w3.org/2000/svg">
  <sodipodi:namedview
     id="namedview7"
     pagecolor="#ffffff"
     bordercolor="#000000"
     borderopacity="0.25"
     inkscape:showpageshadow="2"
     inkscape:pageopacity="0.0"
     inkscape:pagecheckerboard="0"
     inkscape:deskcolor="#d1d1d1"
     inkscape:document-units="mm"
     showgrid="true"
     inkscape:zoom="1.0255231"
     inkscape:cx="349.57769"
     inkscape:cy="371.51772"
     inkscape:window-width="1520"
     inkscape:window-height="1030"
     inkscape:window-x="10"
     inkscape:window-y="0"
     inkscape:window-maximized="0"
     inkscape:current-layer="layer1">
    <inkscape:grid
       type="xygrid"
       id="grid9"
       spacingx="19.05"
       spacingy="19.05" />
  </sodipodi:namedview>
  <defs
     id="defs2">
    <rect
       x="266.20561"
       y="258.40471"
       width="392.97018"
       height="108.23744"
       id="rect3681" />
  </defs>
  <g
     inkscape:label="Ebene 1"
     inkscape:groupmode="layer"
     id="layer1">
    <path
       id="path3965"
       style="font-size:22.5778px;font-family:'Arial Nova';-inkscape-font-specification:'Arial Nova';stroke-width:0.264583"
       d="M 55.699959 75.448108 C 54.553431 75.448108 53.726608 75.720213 53.219491 76.264079 C 52.712372 76.800595 52.458813 77.645964 52.458813 78.799841 L 52.458813 80.188904 L 50.695097 80.188904 L 50.695097 81.72111 L 52.458813 81.72111 L 52.458813 91.885347 L 54.443188 91.885347 L 54.443188 81.72111 L 56.702999 81.72111 L 56.702999 80.188904 L 54.443188 80.188904 L 54.443188 78.953837 C 54.443188 78.534913 54.472762 78.204184 54.531555 77.96165 C 54.597701 77.719114 54.741017 77.528199 54.961503 77.388558 C 55.181989 77.241567 55.51622 77.1679 55.964543 77.1679 C 56.456961 77.1679 56.967582 77.249089 57.496749 77.410779 L 57.926697 75.72406 C 57.177044 75.540322 56.434913 75.448108 55.699959 75.448108 z M 106.60176 75.461027 C 105.45524 75.461027 104.62841 75.733132 104.12129 76.276998 C 103.61417 76.813514 103.36062 77.658367 103.36062 78.812244 L 103.36062 80.201306 L 101.59638 80.201306 L 101.59638 81.734029 L 103.36062 81.734029 L 103.36062 91.898267 L 105.34499 91.898267 L 105.34499 81.734029 L 107.6048 81.734029 L 107.6048 80.201306 L 105.34499 80.201306 L 105.34499 78.966756 C 105.34499 78.547833 105.37404 78.217104 105.43284 77.974569 C 105.49899 77.732034 105.6423 77.541118 105.86279 77.401477 C 106.08328 77.254487 106.41802 77.180819 106.86635 77.180819 C 107.35876 77.180819 107.86939 77.261491 108.39855 77.423181 L 108.8285 75.736462 C 108.07885 75.552724 107.33671 75.461027 106.60176 75.461027 z M 62.843709 79.92432 C 61.755978 79.92432 60.796863 80.166855 59.966366 80.651925 C 59.143217 81.136994 58.503807 81.83853 58.048136 82.757222 C 57.592465 83.675914 57.364457 84.77134 57.364457 86.04281 C 57.364457 87.351027 57.595968 88.464482 58.058988 89.383175 C 58.529359 90.301867 59.17629 90.996398 59.999438 91.466768 C 60.822586 91.929789 61.770677 92.1613 62.843709 92.1613 C 63.924092 92.1613 64.875684 91.922268 65.698832 91.444548 C 66.52933 90.959478 67.176261 90.257425 67.639282 89.338733 C 68.102303 88.412691 68.333813 87.306759 68.333813 86.020589 C 68.333813 84.727071 68.102303 83.624641 67.639282 82.713298 C 67.183611 81.794606 66.544201 81.100074 65.721053 80.629704 C 64.897905 80.159333 63.938791 79.92432 62.843709 79.92432 z M 88.012199 79.92432 C 87.380138 79.92432 86.839948 80.07866 86.391626 80.387341 C 85.943304 80.696022 85.502332 81.217667 85.068709 81.95262 L 85.068709 80.188904 L 83.216626 80.188904 L 83.216626 91.885347 L 85.201001 91.885347 L 85.201001 85.645935 C 85.201001 84.484708 85.421487 83.580715 85.862459 82.933956 C 86.310781 82.279847 86.957712 81.95262 87.802909 81.95262 C 88.339425 81.95262 88.820476 82.066367 89.246749 82.294202 L 89.930428 80.464339 C 89.614398 80.273251 89.302215 80.137457 88.993534 80.056612 C 88.692203 79.968418 88.364977 79.92432 88.012199 79.92432 z M 113.74551 79.936723 C 112.65778 79.936723 111.69867 80.179257 110.86817 80.664327 C 110.04502 81.149397 109.40561 81.85145 108.94994 82.770142 C 108.49427 83.688834 108.26626 84.783742 108.26626 86.055212 C 108.26626 87.36343 108.49776 88.476885 108.96079 89.395577 C 109.43116 90.314269 110.07809 91.008801 110.90124 91.479171 C 111.72439 91.942192 112.67248 92.173702 113.74551 92.173702 C 114.82589 92.173702 115.77748 91.935186 116.60063 91.457467 C 117.43113 90.972397 118.07807 90.270344 118.54108 89.351652 C 119.0041 88.42561 119.23562 87.319677 119.23562 86.033508 C 119.23562 84.73999 119.0041 83.637559 118.54108 82.726217 C 118.08541 81.807524 117.446 81.112993 116.62286 80.642623 C 115.7997 80.172253 114.84059 79.936723 113.74551 79.936723 z M 138.914 79.936723 C 138.28194 79.936723 137.74175 80.091063 137.29343 80.399744 C 136.84511 80.708424 136.40414 81.230586 135.97051 81.96554 L 135.97051 80.201306 L 134.11843 80.201306 L 134.11843 91.898267 L 136.1028 91.898267 L 136.1028 85.658337 C 136.1028 84.497111 136.3233 83.593118 136.76426 82.946358 C 137.21259 82.29225 137.859 81.96554 138.7042 81.96554 C 139.24071 81.96554 139.72228 82.079285 140.14855 82.307121 L 140.83223 80.477258 C 140.5162 80.28617 140.2035 80.149859 139.89482 80.069014 C 139.59349 79.98082 139.26677 79.936723 138.914 79.936723 z M 70.615845 80.188904 L 70.615845 88.104183 C 70.615845 89.405051 70.957598 90.408262 71.641105 91.113818 C 72.331962 91.812024 73.357222 92.1613 74.716886 92.1613 C 75.466539 92.1613 76.142524 91.999438 76.745186 91.676058 C 77.355198 91.352678 77.869838 90.882136 78.288761 90.264775 L 78.288761 91.885347 L 80.140845 91.885347 L 80.140845 80.188904 L 78.15647 80.188904 L 78.15647 86.71512 C 78.15647 87.611764 78.046226 88.309797 77.825741 88.809566 C 77.605254 89.309334 77.248974 89.70621 76.756555 90.000191 C 76.271486 90.294172 75.701724 90.441508 75.047616 90.441508 C 74.261215 90.441508 73.654878 90.221022 73.228605 89.78005 C 72.809682 89.339077 72.60022 88.692145 72.60022 87.8396 L 72.60022 80.188904 L 70.615845 80.188904 z M 121.51765 80.201306 L 121.51765 88.117102 C 121.51765 89.41797 121.8594 90.421182 122.54291 91.126737 C 123.23377 91.824943 124.25902 92.173702 125.61869 92.173702 C 126.36834 92.173702 127.04433 92.012357 127.64699 91.688977 C 128.257 91.365598 128.77164 90.895055 129.19056 90.277694 L 129.19056 91.898267 L 131.04265 91.898267 L 131.04265 80.201306 L 129.05827 80.201306 L 129.05827 86.72804 C 129.05827 87.624683 128.94803 88.322717 128.72754 88.822485 C 128.50706 89.322254 128.15026 89.719129 127.65784 90.01311 C 127.17277 90.307092 126.60352 90.45391 125.94942 90.45391 C 125.16302 90.45391 124.55668 90.233424 124.13041 89.792452 C 123.71148 89.35148 123.50202 88.705065 123.50202 87.852519 L 123.50202 80.201306 L 121.51765 80.201306 z M 62.832857 81.555745 C 63.516364 81.555745 64.118681 81.728632 64.640499 82.07406 C 65.162316 82.412139 65.570215 82.915238 65.864197 83.584045 C 66.158178 84.252853 66.305514 85.065149 66.305514 86.020589 C 66.305514 86.96868 66.162198 87.780976 65.875566 88.457133 C 65.596283 89.133291 65.195389 89.647414 64.673572 90.000191 C 64.151754 90.352969 63.541915 90.529358 62.843709 90.529358 C 62.167552 90.529358 61.568737 90.360491 61.04692 90.022412 C 60.532452 89.676984 60.128056 89.169866 59.834074 88.501058 C 59.540092 87.824901 59.393274 87.0056 59.393274 86.04281 C 59.393274 85.080021 59.540092 84.264222 59.834074 83.595414 C 60.135405 82.919257 60.543304 82.412139 61.057772 82.07406 C 61.579589 81.728632 62.171399 81.555745 62.832857 81.555745 z M 113.73414 81.568665 C 114.41765 81.568665 115.02049 81.741034 115.5423 82.086462 C 116.06412 82.424541 116.47202 82.928157 116.766 83.596965 C 117.05999 84.265773 117.2068 85.078069 117.2068 86.033508 C 117.2068 86.981599 117.06348 87.793378 116.77685 88.469535 C 116.49757 89.145693 116.09719 89.660333 115.57537 90.01311 C 115.05355 90.365889 114.44372 90.542277 113.74551 90.542277 C 113.06935 90.542277 112.47002 90.37341 111.94821 90.035331 C 111.43373 89.689903 111.02986 89.182785 110.73588 88.513977 C 110.4419 87.83782 110.29456 87.018001 110.29456 86.055212 C 110.29456 85.092423 110.4419 84.276625 110.73588 83.607817 C 111.03721 82.931659 111.44511 82.424541 111.95957 82.086462 C 112.48139 81.741034 113.07268 81.568665 113.73414 81.568665 z M 55.438477 99.019796 C 54.291948 99.019796 53.465126 99.2919 52.958008 99.835767 C 52.45089 100.37228 52.197331 101.21713 52.197331 102.37101 L 52.197331 103.76007 L 50.433614 103.76007 L 50.433614 105.2928 L 52.197331 105.2928 L 52.197331 115.45704 L 54.181706 115.45704 L 54.181706 105.2928 L 56.441516 105.2928 L 56.441516 103.76007 L 54.181706 103.76007 L 54.181706 102.52552 C 54.181706 102.1066 54.211279 101.77587 54.270072 101.53334 C 54.336218 101.2908 54.479535 101.09989 54.70002 100.96025 C 54.920507 100.81326 55.254738 100.73959 55.70306 100.73959 C 56.195479 100.73959 56.706099 100.82026 57.235266 100.98195 L 57.665214 99.295231 C 56.915561 99.111493 56.17343 99.019796 55.438477 99.019796 z M 106.34028 99.032715 C 105.19375 99.032715 104.36693 99.304303 103.85981 99.848169 C 103.35269 100.38469 103.09913 101.23005 103.09913 102.38393 L 103.09913 103.77299 L 101.3349 103.77299 L 101.3349 105.3052 L 103.09913 105.3052 L 103.09913 115.46995 L 105.08351 115.46995 L 105.08351 105.3052 L 107.34332 105.3052 L 107.34332 103.77299 L 105.08351 103.77299 L 105.08351 102.53844 C 105.08351 102.11952 105.11256 101.78879 105.17136 101.54626 C 105.2375 101.30372 105.38082 101.11229 105.60131 100.97265 C 105.82179 100.82566 106.15654 100.75251 106.60486 100.75251 C 107.09728 100.75251 107.6079 100.83318 108.13707 100.99487 L 108.56702 99.30815 C 107.81736 99.124412 107.07523 99.032715 106.34028 99.032715 z M 62.582227 103.49549 C 61.494495 103.49549 60.535381 103.73803 59.704883 104.2231 C 58.881735 104.70817 58.242325 105.41022 57.786654 106.32891 C 57.330983 107.2476 57.102974 108.34252 57.102974 109.61398 C 57.102974 110.9222 57.334485 112.03565 57.797506 112.95435 C 58.267876 113.87304 58.914808 114.56757 59.737956 115.03794 C 60.561104 115.50096 61.509194 115.73247 62.582227 115.73247 C 63.662609 115.73247 64.614202 115.49395 65.437349 115.01624 C 66.267847 114.53116 66.914779 113.82911 67.377799 112.91042 C 67.84082 111.98438 68.072331 110.87845 68.072331 109.59228 C 68.072331 108.29876 67.84082 107.19632 67.377799 106.28499 C 66.922128 105.36629 66.282718 104.67176 65.45957 104.20139 C 64.636422 103.73103 63.677307 103.49549 62.582227 103.49549 z M 87.750716 103.49549 C 87.118656 103.49549 86.578465 103.64983 86.130143 103.95851 C 85.681822 104.26719 85.240849 104.78936 84.807227 105.52431 L 84.807227 103.76007 L 82.955143 103.76007 L 82.955143 115.45704 L 84.939518 115.45704 L 84.939518 109.21711 C 84.939518 108.05588 85.160004 107.15189 85.600977 106.50513 C 86.049298 105.85101 86.69623 105.52431 87.541427 105.52431 C 88.077943 105.52431 88.558993 105.63805 88.985266 105.86589 L 89.668945 104.03603 C 89.352915 103.84494 89.040732 103.70863 88.732052 103.62778 C 88.430721 103.53959 88.103494 103.49549 87.750716 103.49549 z M 113.48403 103.50841 C 112.3963 103.50841 111.43718 103.75095 110.60669 104.23601 C 109.78354 104.72109 109.14413 105.42314 108.68846 106.34183 C 108.23278 107.26052 108.00478 108.35543 108.00478 109.6269 C 108.00478 110.93512 108.23628 112.04857 108.69931 112.96726 C 109.16967 113.88596 109.81661 114.58049 110.63976 115.05086 C 111.4629 115.51388 112.411 115.74539 113.48403 115.74539 C 114.56441 115.74539 115.516 115.50636 116.33915 115.02864 C 117.16965 114.54356 117.81658 113.84203 118.2796 112.92334 C 118.74262 111.9973 118.97413 110.89085 118.97413 109.60468 C 118.97413 108.31116 118.74262 107.20873 118.2796 106.29739 C 117.82393 105.3787 117.18452 104.68417 116.36137 104.21379 C 115.53822 103.74343 114.57911 103.50841 113.48403 103.50841 z M 138.65252 103.50841 C 138.02046 103.50841 137.48027 103.66275 137.03195 103.97143 C 136.58363 104.28011 136.14266 104.80176 135.70903 105.53671 L 135.70903 103.77299 L 133.85695 103.77299 L 133.85695 115.46995 L 135.84132 115.46995 L 135.84132 109.23003 C 135.84132 108.06879 136.06181 107.16481 136.50278 106.51805 C 136.95111 105.86394 137.59752 105.53671 138.44271 105.53671 C 138.97923 105.53671 139.4608 105.65098 139.88707 105.87881 L 140.57075 104.04843 C 140.25471 103.85734 139.94202 103.72155 139.63334 103.6407 C 139.332 103.55251 139.00529 103.50841 138.65252 103.50841 z M 70.354362 103.76007 L 70.354362 111.67587 C 70.354362 112.97674 70.696115 113.97995 71.379622 114.68551 C 72.070479 115.38371 73.09574 115.73247 74.455404 115.73247 C 75.205057 115.73247 75.881042 115.57113 76.483704 115.24775 C 77.093715 114.92437 77.608355 114.45382 78.027279 113.83646 L 78.027279 115.45704 L 79.879362 115.45704 L 79.879362 103.76007 L 77.894987 103.76007 L 77.894987 110.28681 C 77.894987 111.18345 77.784744 111.88148 77.564258 112.38125 C 77.343771 112.88102 76.987491 113.2779 76.495072 113.57188 C 76.010003 113.86587 75.440241 114.01268 74.786133 114.01268 C 73.999732 114.01268 73.393395 113.79219 72.967122 113.35122 C 72.548199 112.91025 72.338737 112.26383 72.338737 111.41129 L 72.338737 103.76007 L 70.354362 103.76007 z M 121.25616 103.77299 L 121.25616 111.68827 C 121.25616 112.98914 121.59792 113.99235 122.28142 114.69791 C 122.97228 115.39611 123.99754 115.74539 125.35721 115.74539 C 126.10686 115.74539 126.78285 115.58353 127.38551 115.26015 C 127.99552 114.93677 128.51015 114.46674 128.92908 113.84938 L 128.92908 115.46995 L 130.78116 115.46995 L 130.78116 103.77299 L 128.79679 103.77299 L 128.79679 110.29921 C 128.79679 111.19585 128.68655 111.8944 128.46606 112.39417 C 128.24557 112.89394 127.88878 113.29082 127.39636 113.5848 C 126.91129 113.87878 126.34204 114.0256 125.68794 114.0256 C 124.90154 114.0256 124.2952 113.80511 123.86892 113.36414 C 123.45 112.92317 123.24054 112.27624 123.24054 111.42369 L 123.24054 103.77299 L 121.25616 103.77299 z M 62.571375 105.12743 C 63.254881 105.12743 63.857199 105.2998 64.379016 105.64523 C 64.900833 105.98331 65.308732 106.48693 65.602714 107.15573 C 65.896696 107.82454 66.044031 108.63684 66.044031 109.59228 C 66.044031 110.54037 65.900715 111.35214 65.614083 112.0283 C 65.3348 112.70446 64.933906 113.21911 64.412089 113.57188 C 63.890272 113.92466 63.280433 114.10105 62.582227 114.10105 C 61.906069 114.10105 61.307254 113.93218 60.785437 113.5941 C 60.27097 113.24867 59.866572 112.74155 59.572591 112.07275 C 59.278609 111.39659 59.131791 110.57677 59.131791 109.61398 C 59.131791 108.6512 59.278609 107.8354 59.572591 107.16659 C 59.873922 106.49043 60.281822 105.98331 60.796289 105.64523 C 61.318106 105.2998 61.909916 105.12743 62.571375 105.12743 z M 113.47266 105.13984 C 114.15617 105.13984 114.75901 105.31272 115.28082 105.65815 C 115.80264 105.99623 116.21054 106.49985 116.50452 107.16865 C 116.7985 107.83746 116.94532 108.64924 116.94532 109.60468 C 116.94532 110.55277 116.802 111.36506 116.51537 112.04122 C 116.23608 112.71738 115.8357 113.23202 115.31389 113.5848 C 114.79207 113.93758 114.18224 114.11396 113.48403 114.11396 C 112.80787 114.11396 112.20854 113.94458 111.68672 113.6065 C 111.17225 113.26108 110.76837 112.75396 110.47439 112.08515 C 110.18041 111.409 110.03308 110.58969 110.03308 109.6269 C 110.03308 108.66411 110.18041 107.84832 110.47439 107.1795 C 110.77573 106.50335 111.18363 105.99623 111.69809 105.65815 C 112.21991 105.31272 112.8112 105.13984 113.47266 105.13984 z " />
    <text
       xml:space="preserve"
       transform="scale(0.26458333)"
       id="text3679"
       style="font-size:85.3333px;font-family:'Arial Nova';-inkscape-font-specification:'Arial Nova, Normal';white-space:pre;shape-inside:url(#rect3681);display:inline;fill:#000000" />
  </g>
</svg>
