<?xml version="1.0" encoding="UTF-8" standalone="no"?>
<!-- Created with Inkscape (http://www.inkscape.org/) -->

<svg
   width="720"
   height="720"
   viewBox="0 0 190.5 190.5"
   version="1.1"
   id="svg5"
   sodipodi:docname="6G.svg"
   inkscape:version="1.2.1 (9c6d41e410, 2022-07-14)"
   xmlns:inkscape="http://www.inkscape.org/namespaces/inkscape"
   xmlns:sodipodi="http://sodipodi.sourceforge.net/DTD/sodipodi-0.dtd"
   xmlns="http://www.w3.org/2000/svg"
   xmlns:svg="http://www.w3.org/2000/svg">
  <sodipodi:namedview
     id="namedview7"
     pagecolor="#ffffff"
     bordercolor="#000000"
     borderopacity="0.25"
     inkscape:showpageshadow="2"
     inkscape:pageopacity="0.0"
     inkscape:pagecheckerboard="0"
     inkscape:deskcolor="#d1d1d1"
     inkscape:document-units="mm"
     showgrid="true"
     inkscape:zoom="1.0255231"
     inkscape:cx="342.75192"
     inkscape:cy="395.89553"
     inkscape:window-width="1520"
     inkscape:window-height="1030"
     inkscape:window-x="10"
     inkscape:window-y="1"
     inkscape:window-maximized="0"
     inkscape:current-layer="layer1">
    <inkscape:grid
       type="xygrid"
       id="grid9"
       spacingx="19.05"
       spacingy="19.05" />
  </sodipodi:namedview>
  <defs
     id="defs2">
    <rect
       x="67.282738"
       y="190.14687"
       width="570.4406"
       height="346.16481"
       id="rect2264" />
  </defs>
  <g
     inkscape:label="Ebene 1"
     inkscape:groupmode="layer"
     id="layer1">
    <path
       id="path2806"
       style="font-size:22.5778px;font-family:'Arial Nova';-inkscape-font-specification:'Arial Nova';stroke-width:0.264583"
       d="M 46.720146 74.541703 C 45.257588 74.541703 43.9527 74.886959 42.806173 75.577816 C 41.666994 76.268672 40.781547 77.238811 40.149487 78.488232 C 39.524777 79.730304 39.212594 81.178508 39.212594 82.832153 C 39.212594 84.596042 39.517254 86.109874 40.127266 87.373995 C 40.744627 88.630766 41.641615 89.593383 42.817542 90.262191 C 43.993468 90.923649 45.404578 91.254378 47.050875 91.254378 C 48.219451 91.254378 49.365979 91.044916 50.490458 90.625993 C 51.622287 90.207069 52.610455 89.630302 53.455652 88.895349 L 53.455652 82.732935 L 46.896362 82.732935 L 46.896362 84.662016 L 51.383427 84.662016 L 51.383427 87.98016 C 50.868959 88.384384 50.203482 88.726138 49.387683 89.00542 C 48.579234 89.284702 47.793006 89.424516 47.028654 89.424516 C 45.838029 89.424516 44.823793 89.163435 43.985946 88.641618 C 43.148098 88.119801 42.512191 87.370148 42.078569 86.39266 C 41.644946 85.407821 41.428479 84.228221 41.428479 82.853857 C 41.428479 81.560339 41.633921 80.424835 42.045496 79.447347 C 42.457069 78.469859 43.056401 77.713201 43.842802 77.176685 C 44.636552 76.640168 45.584643 76.371566 46.687073 76.371566 C 47.811552 76.371566 48.752121 76.662217 49.509123 77.24283 C 50.273475 77.816094 50.810163 78.653941 51.118844 79.756372 L 53.213289 79.260278 C 52.787016 77.731575 52.018817 76.562998 50.909037 75.754549 C 49.806607 74.9461 48.410539 74.541703 46.720146 74.541703 z M 98.306661 74.813005 C 96.844103 74.813005 95.539216 75.15826 94.392688 75.849117 C 93.25351 76.539974 92.368063 77.510113 91.736003 78.759534 C 91.111292 80.001606 90.799109 81.449292 90.799109 83.102938 C 90.799109 84.866827 91.10377 86.381175 91.713782 87.645296 C 92.331142 88.902067 93.228131 89.864684 94.404057 90.533492 C 95.579983 91.19495 96.991094 91.52568 98.63739 91.52568 C 99.805968 91.52568 100.95249 91.316218 102.07697 90.897294 C 103.2088 90.478371 104.19697 89.901604 105.04217 89.16665 L 105.04217 83.003719 L 98.482878 83.003719 L 98.482878 84.933317 L 102.96994 84.933317 L 102.96994 88.251461 C 102.45548 88.655686 101.79 88.997439 100.9742 89.276721 C 100.16575 89.556004 99.379521 89.695817 98.615169 89.695817 C 97.424544 89.695817 96.410308 89.434737 95.572461 88.912919 C 94.734613 88.391102 94.098706 87.64145 93.665084 86.663961 C 93.231461 85.679123 93.014994 84.499522 93.014994 83.125159 C 93.014994 81.83164 93.220437 80.696137 93.632011 79.718648 C 94.043585 78.74116 94.642917 77.983985 95.429317 77.447469 C 96.223068 76.910953 97.171158 76.642867 98.273588 76.642867 C 99.398068 76.642867 100.33864 76.933001 101.09564 77.513615 C 101.85999 78.086878 102.39668 78.924726 102.70536 80.027157 L 104.7998 79.531063 C 104.37353 78.002359 103.60533 76.833783 102.49555 76.025334 C 101.39313 75.216884 99.997058 74.813005 98.306661 74.813005 z M 145.84381 74.813005 C 144.38125 74.813005 143.07688 75.15826 141.93035 75.849117 C 140.79118 76.539974 139.90573 77.510113 139.27367 78.759534 C 138.64896 80.001606 138.33626 81.449292 138.33626 83.102938 C 138.33626 84.866827 138.64144 86.381175 139.25145 87.645296 C 139.86881 88.902067 140.76528 89.864684 141.94121 90.533492 C 143.11713 91.19495 144.52824 91.52568 146.17454 91.52568 C 147.34312 91.52568 148.48964 91.316218 149.61412 90.897294 C 150.74595 90.478371 151.73463 89.901604 152.57983 89.16665 L 152.57983 83.003719 L 146.02054 83.003719 L 146.02054 84.933317 L 150.50709 84.933317 L 150.50709 88.251461 C 149.99262 88.655686 149.32766 88.997439 148.51187 89.276721 C 147.70342 89.556004 146.91719 89.695817 146.15284 89.695817 C 144.96221 89.695817 143.94797 89.434737 143.11013 88.912919 C 142.27228 88.391102 141.63638 87.64145 141.20275 86.663961 C 140.76913 85.679123 140.55214 84.499522 140.55214 83.125159 C 140.55214 81.83164 140.7581 80.696137 141.16968 79.718648 C 141.58125 78.74116 142.18007 77.983985 142.96647 77.447469 C 143.76022 76.910953 144.70831 76.642867 145.81074 76.642867 C 146.93522 76.642867 147.87631 76.933001 148.6333 77.513615 C 149.39766 78.086878 149.93383 78.924726 150.24251 80.027157 L 152.33747 79.531063 C 151.9112 78.002359 151.143 76.833783 150.03322 76.025334 C 148.93079 75.216884 147.5342 74.813005 145.84381 74.813005 z M 46.295365 99.095243 C 44.832808 99.095243 43.528437 99.440497 42.381909 100.13136 C 41.24273 100.82221 40.356767 101.79235 39.724707 103.04177 C 39.099996 104.28384 38.787813 105.73153 38.787813 107.38518 C 38.787813 109.14906 39.092991 110.66341 39.703003 111.92753 C 40.320364 113.1843 41.216835 114.14692 42.392761 114.81573 C 43.568687 115.47718 44.979799 115.80792 46.626095 115.80792 C 47.794671 115.80792 48.941199 115.59845 50.065678 115.17953 C 51.197507 114.76061 52.186191 114.18384 53.031388 113.44889 L 53.031388 107.28596 L 46.471582 107.28596 L 46.471582 109.21556 L 50.958647 109.21556 L 50.958647 112.5337 C 50.444179 112.93793 49.779218 113.27968 48.96342 113.55896 C 48.15497 113.83825 47.368226 113.97806 46.603874 113.97806 C 45.413249 113.97806 44.399013 113.71698 43.561165 113.19516 C 42.723318 112.67335 42.087927 111.92369 41.654305 110.9462 C 41.220682 109.96136 41.003699 108.78176 41.003699 107.4074 C 41.003699 106.11388 41.209658 104.97838 41.621232 104.00089 C 42.032806 103.0234 42.631621 102.26623 43.418022 101.72971 C 44.211772 101.1932 45.159862 100.92511 46.262292 100.92511 C 47.386771 100.92511 48.32734 101.21524 49.084342 101.79585 C 49.848694 102.36912 50.385383 103.20697 50.694063 104.3094 L 52.788509 103.8133 C 52.362236 102.2846 51.594554 101.11602 50.484774 100.30757 C 49.382344 99.499121 47.985759 99.095243 46.295365 99.095243 z M 97.881881 99.366028 C 96.419323 99.366028 95.114953 99.711798 93.968424 100.40266 C 92.829246 101.09351 91.943282 102.06365 91.311222 103.31307 C 90.686512 104.55514 90.374329 106.00283 90.374329 107.65648 C 90.374329 109.42036 90.679507 110.9342 91.289518 112.19832 C 91.90688 113.45509 92.803351 114.41822 93.979277 115.08703 C 95.155203 115.74848 96.566314 116.07922 98.21261 116.07922 C 99.381186 116.07922 100.52771 115.86975 101.65219 115.45083 C 102.78402 115.03191 103.7727 114.45463 104.6179 113.71967 L 104.6179 107.55726 L 98.058097 107.55726 L 98.058097 109.48634 L 102.54516 109.48634 L 102.54516 112.805 C 102.0307 113.20923 101.36573 113.55098 100.54993 113.83026 C 99.741483 114.10955 98.954741 114.24884 98.190389 114.24884 C 96.999764 114.24884 95.985528 113.98828 95.147681 113.46646 C 94.309834 112.94464 93.674443 112.19499 93.24082 111.2175 C 92.807198 110.23266 92.590214 109.05306 92.590214 107.6787 C 92.590214 106.38519 92.796174 105.24968 93.207747 104.27219 C 93.619322 103.2947 94.218136 102.53753 95.004537 102.00101 C 95.798287 101.4645 96.746377 101.19641 97.848808 101.19641 C 98.973287 101.19641 99.913858 101.48654 100.67086 102.06715 C 101.43521 102.64041 101.9719 103.47826 102.28058 104.5807 L 104.37502 104.0846 C 103.94875 102.5559 103.18107 101.38733 102.07129 100.57887 C 100.96886 99.770428 99.572271 99.366028 97.881881 99.366028 z M 145.41955 99.366028 C 143.95699 99.366028 142.6521 99.711798 141.50557 100.40266 C 140.3664 101.09351 139.48095 102.06365 138.84889 103.31307 C 138.22418 104.55514 137.912 106.00283 137.912 107.65648 C 137.912 109.42036 138.21666 110.9342 138.82667 112.19832 C 139.44403 113.45509 140.34101 114.41822 141.51694 115.08703 C 142.69287 115.74848 144.10399 116.07922 145.75028 116.07922 C 146.91886 116.07922 148.06538 115.86975 149.18986 115.45083 C 150.32169 115.03191 151.30985 114.45463 152.15505 113.71967 L 152.15505 107.55726 L 145.59576 107.55726 L 145.59576 109.48634 L 150.08283 109.48634 L 150.08283 112.805 C 149.56836 113.20923 148.90288 113.55098 148.08708 113.83026 C 147.27863 114.10955 146.49241 114.24884 145.72806 114.24884 C 144.53743 114.24884 143.52319 113.98828 142.68535 113.46646 C 141.8475 112.94464 141.21159 112.19499 140.77797 111.2175 C 140.34434 110.23266 140.12788 109.05306 140.12788 107.6787 C 140.12788 106.38519 140.33332 105.24968 140.7449 104.27219 C 141.15647 103.2947 141.7558 102.53753 142.5422 102.00101 C 143.33595 101.4645 144.28404 101.19641 145.38647 101.19641 C 146.51095 101.19641 147.45152 101.48654 148.20852 102.06715 C 148.97287 102.64041 149.50956 103.47826 149.81825 104.5807 L 151.91269 104.0846 C 151.48642 102.5559 150.71822 101.38733 149.60844 100.57887 C 148.50601 99.770428 147.10995 99.366028 145.41955 99.366028 z " />
    <text
       xml:space="preserve"
       transform="scale(0.26458333)"
       id="text2262"
       style="font-style:normal;font-variant:normal;font-weight:normal;font-stretch:normal;font-size:85.3333px;font-family:'Arial Nova';-inkscape-font-specification:'Arial Nova, Normal';font-variant-ligatures:normal;font-variant-caps:normal;font-variant-numeric:normal;font-variant-east-asian:normal;white-space:pre;shape-inside:url(#rect2264);display:inline;fill:#000000" />
  </g>
</svg>
