<?xml version="1.0" encoding="UTF-8" standalone="no"?>
<!-- Created with Inkscape (http://www.inkscape.org/) -->

<svg
   width="720"
   height="720"
   viewBox="0 0 190.5 190.5"
   version="1.1"
   id="svg5"
   sodipodi:docname="6J.svg"
   inkscape:version="1.2.1 (9c6d41e410, 2022-07-14)"
   xmlns:inkscape="http://www.inkscape.org/namespaces/inkscape"
   xmlns:sodipodi="http://sodipodi.sourceforge.net/DTD/sodipodi-0.dtd"
   xmlns="http://www.w3.org/2000/svg"
   xmlns:svg="http://www.w3.org/2000/svg">
  <sodipodi:namedview
     id="namedview7"
     pagecolor="#ffffff"
     bordercolor="#000000"
     borderopacity="0.25"
     inkscape:showpageshadow="2"
     inkscape:pageopacity="0.0"
     inkscape:pagecheckerboard="0"
     inkscape:deskcolor="#d1d1d1"
     inkscape:document-units="mm"
     showgrid="true"
     inkscape:zoom="1.0255231"
     inkscape:cx="342.75192"
     inkscape:cy="395.89553"
     inkscape:window-width="1520"
     inkscape:window-height="1030"
     inkscape:window-x="10"
     inkscape:window-y="1"
     inkscape:window-maximized="0"
     inkscape:current-layer="layer1">
    <inkscape:grid
       type="xygrid"
       id="grid9"
       spacingx="19.05"
       spacingy="19.05" />
  </sodipodi:namedview>
  <defs
     id="defs2">
    <rect
       x="67.282738"
       y="190.14687"
       width="570.4406"
       height="346.16481"
       id="rect2264" />
  </defs>
  <g
     inkscape:label="Ebene 1"
     inkscape:groupmode="layer"
     id="layer1">
    <path
       id="path2840"
       style="font-size:22.5778px;font-family:'Arial Nova';-inkscape-font-specification:'Arial Nova';stroke-width:0.264583"
       d="M 48.163985 74.817139 L 48.163985 86.028857 C 48.163985 86.852006 48.07981 87.50244 47.910771 87.98016 C 47.741732 88.45788 47.48065 88.803652 47.127873 89.016789 C 46.782444 89.222576 46.330448 89.325297 45.771883 89.325297 C 44.978133 89.325297 44.379318 89.057211 43.975094 88.520695 C 43.57087 87.976829 43.361408 87.145987 43.346708 86.028857 L 41.428479 86.481026 C 41.443178 88.024429 41.829029 89.207532 42.586031 90.03068 C 43.343034 90.846479 44.408372 91.254378 45.782735 91.254378 C 48.796046 91.254378 50.302873 89.54963 50.302873 86.139445 L 50.302873 74.817139 L 48.163985 74.817139 z M 99.7505 75.08844 L 99.7505 86.300159 C 99.7505 87.123307 99.666325 87.773741 99.497286 88.251461 C 99.328247 88.729181 99.067166 89.074437 98.714388 89.287573 C 98.36896 89.49336 97.916963 89.596598 97.358398 89.596598 C 96.564649 89.596598 95.965834 89.327996 95.561609 88.791479 C 95.157385 88.247613 94.947923 87.417288 94.933223 86.300159 L 93.014994 86.752327 C 93.029694 88.295731 93.415544 89.478834 94.172546 90.301982 C 94.929549 91.11778 95.994887 91.52568 97.36925 91.52568 C 100.38256 91.52568 101.88939 89.820415 101.88939 86.410229 L 101.88939 75.08844 L 99.7505 75.08844 z M 147.28817 75.08844 L 147.28817 86.300159 C 147.28817 87.123307 147.20348 87.773741 147.03444 88.251461 C 146.8654 88.729181 146.60432 89.074437 146.25154 89.287573 C 145.90611 89.49336 145.45411 89.596598 144.89555 89.596598 C 144.1018 89.596598 143.50298 89.327996 143.09876 88.791479 C 142.69457 88.247613 142.48511 87.417288 142.47037 86.300159 L 140.55214 86.752327 C 140.56684 88.295731 140.9527 89.478834 141.7097 90.301982 C 142.4667 91.11778 143.53256 91.52568 144.90692 91.52568 C 147.92023 91.52568 149.42654 89.820415 149.42654 86.410229 L 149.42654 75.08844 L 147.28817 75.08844 z M 47.739722 99.370679 L 47.739722 110.5824 C 47.739722 111.40554 47.65503 112.05598 47.48599 112.5337 C 47.316951 113.01142 47.05587 113.35667 46.703092 113.56981 C 46.357664 113.7756 45.905668 113.87884 45.347103 113.87884 C 44.553352 113.87884 43.954538 113.61024 43.550313 113.07372 C 43.14609 112.52985 42.936628 111.69952 42.921928 110.5824 L 41.003699 111.03457 C 41.018397 112.57796 41.404248 113.76107 42.161251 114.58422 C 42.918253 115.40001 43.984108 115.80792 45.358472 115.80792 C 48.371782 115.80792 49.878092 114.10265 49.878092 110.69247 L 49.878092 99.370679 L 47.739722 99.370679 z M 99.326237 99.64198 L 99.326237 110.8537 C 99.326237 111.67684 99.241545 112.32728 99.072506 112.805 C 98.903466 113.28272 98.642385 113.62797 98.289608 113.84111 C 97.944179 114.0469 97.492183 114.14962 96.933618 114.14962 C 96.139868 114.14962 95.541053 113.88154 95.136829 113.34502 C 94.732605 112.80115 94.523143 111.97082 94.508443 110.8537 L 92.590214 111.30535 C 92.604913 112.84875 92.990764 114.03237 93.747766 114.85552 C 94.504768 115.67131 95.570623 116.07922 96.944987 116.07922 C 99.958294 116.07922 101.46461 114.37395 101.46461 110.96377 L 101.46461 99.64198 L 99.326237 99.64198 z M 146.86339 99.64198 L 146.86339 110.8537 C 146.86339 111.67684 146.7787 112.32728 146.60966 112.805 C 146.44062 113.28272 146.18005 113.62797 145.82727 113.84111 C 145.48185 114.0469 145.02985 114.14962 144.47128 114.14962 C 143.67754 114.14962 143.0782 113.88154 142.67398 113.34502 C 142.26979 112.80115 142.06033 111.97082 142.04559 110.8537 L 140.12736 111.30535 C 140.14206 112.84875 140.52791 114.03237 141.28492 114.85552 C 142.04192 115.67131 143.10777 116.07922 144.48214 116.07922 C 147.49545 116.07922 149.00227 114.37395 149.00227 110.96377 L 149.00227 99.64198 L 146.86339 99.64198 z " />
    <text
       xml:space="preserve"
       transform="scale(0.26458333)"
       id="text2262"
       style="font-style:normal;font-variant:normal;font-weight:normal;font-stretch:normal;font-size:85.3333px;font-family:'Arial Nova';-inkscape-font-specification:'Arial Nova, Normal';font-variant-ligatures:normal;font-variant-caps:normal;font-variant-numeric:normal;font-variant-east-asian:normal;white-space:pre;shape-inside:url(#rect2264);display:inline;fill:#000000" />
  </g>
</svg>
