<?xml version="1.0" encoding="UTF-8" standalone="no"?>
<!-- Created with Inkscape (http://www.inkscape.org/) -->

<svg
   width="720"
   height="720"
   viewBox="0 0 190.5 190.5"
   version="1.1"
   id="svg5"
   sodipodi:docname="6N.svg"
   inkscape:version="1.2.1 (9c6d41e410, 2022-07-14)"
   xmlns:inkscape="http://www.inkscape.org/namespaces/inkscape"
   xmlns:sodipodi="http://sodipodi.sourceforge.net/DTD/sodipodi-0.dtd"
   xmlns="http://www.w3.org/2000/svg"
   xmlns:svg="http://www.w3.org/2000/svg">
  <sodipodi:namedview
     id="namedview7"
     pagecolor="#ffffff"
     bordercolor="#000000"
     borderopacity="0.25"
     inkscape:showpageshadow="2"
     inkscape:pageopacity="0.0"
     inkscape:pagecheckerboard="0"
     inkscape:deskcolor="#d1d1d1"
     inkscape:document-units="mm"
     showgrid="true"
     inkscape:zoom="1.0255231"
     inkscape:cx="342.75192"
     inkscape:cy="395.89553"
     inkscape:window-width="1520"
     inkscape:window-height="1030"
     inkscape:window-x="10"
     inkscape:window-y="1"
     inkscape:window-maximized="0"
     inkscape:current-layer="layer1">
    <inkscape:grid
       type="xygrid"
       id="grid9"
       spacingx="19.05"
       spacingy="19.05" />
  </sodipodi:namedview>
  <defs
     id="defs2">
    <rect
       x="67.282738"
       y="190.14687"
       width="570.4406"
       height="346.16481"
       id="rect2264" />
  </defs>
  <g
     inkscape:label="Ebene 1"
     inkscape:groupmode="layer"
     id="layer1">
    <path
       id="path2942"
       style="font-size:22.5778px;font-family:'Arial Nova';-inkscape-font-specification:'Arial Nova';stroke-width:0.264583"
       d="M 39.940198 74.817139 L 39.940198 90.978943 L 41.968498 90.978943 L 41.968498 78.355941 L 42.012423 78.355941 L 50.137508 90.978943 L 52.331173 90.978943 L 52.331173 74.817139 L 50.302873 74.817139 L 50.302873 87.429289 L 50.258948 87.429289 L 42.144714 74.817139 L 39.940198 74.817139 z M 91.526713 75.08844 L 91.526713 91.250244 L 93.555013 91.250244 L 93.555013 78.627242 L 93.598938 78.627242 L 101.72402 91.250244 L 103.91769 91.250244 L 103.91769 75.08844 L 101.88939 75.08844 L 101.88939 87.700073 L 101.84546 87.700073 L 93.73123 75.08844 L 91.526713 75.08844 z M 139.06386 75.08844 L 139.06386 91.250244 L 141.09268 91.250244 L 141.09268 78.627242 L 141.1366 78.627242 L 149.26169 91.250244 L 151.45535 91.250244 L 151.45535 75.08844 L 149.42705 75.08844 L 149.42705 87.700073 L 149.38261 87.700073 L 141.2689 75.08844 L 139.06386 75.08844 z M 39.515417 99.370679 L 39.515417 115.53248 L 41.543717 115.53248 L 41.543717 102.90948 L 41.588159 102.90948 L 49.712728 115.53248 L 51.906909 115.53248 L 51.906909 99.370679 L 49.878092 99.370679 L 49.878092 111.98231 L 49.834167 111.98231 L 41.720451 99.370679 L 39.515417 99.370679 z M 91.101933 99.64198 L 91.101933 115.80327 L 93.130233 115.80327 L 93.130233 103.18078 L 93.174674 103.18078 L 101.29924 115.80327 L 103.49342 115.80327 L 103.49342 99.64198 L 101.46461 99.64198 L 101.46461 112.25361 L 101.42068 112.25361 L 93.306966 99.64198 L 91.101933 99.64198 z M 138.6396 99.64198 L 138.6396 115.80327 L 140.6679 115.80327 L 140.6679 103.18078 L 140.71182 103.18078 L 148.83691 115.80327 L 151.03057 115.80327 L 151.03057 99.64198 L 149.00227 99.64198 L 149.00227 112.25361 L 148.95835 112.25361 L 140.84412 99.64198 L 138.6396 99.64198 z " />
    <text
       xml:space="preserve"
       transform="scale(0.26458333)"
       id="text2262"
       style="font-style:normal;font-variant:normal;font-weight:normal;font-stretch:normal;font-size:85.3333px;font-family:'Arial Nova';-inkscape-font-specification:'Arial Nova, Normal';font-variant-ligatures:normal;font-variant-caps:normal;font-variant-numeric:normal;font-variant-east-asian:normal;white-space:pre;shape-inside:url(#rect2264);display:inline;fill:#000000" />
  </g>
</svg>
