<?xml version="1.0" encoding="UTF-8" standalone="no"?>
<!-- Created with Inkscape (http://www.inkscape.org/) -->

<svg
   width="720"
   height="720"
   viewBox="0 0 190.5 190.5"
   version="1.1"
   id="svg5"
   sodipodi:docname="74.svg"
   inkscape:version="1.2.1 (9c6d41e410, 2022-07-14)"
   xmlns:inkscape="http://www.inkscape.org/namespaces/inkscape"
   xmlns:sodipodi="http://sodipodi.sourceforge.net/DTD/sodipodi-0.dtd"
   xmlns="http://www.w3.org/2000/svg"
   xmlns:svg="http://www.w3.org/2000/svg">
  <sodipodi:namedview
     id="namedview7"
     pagecolor="#ffffff"
     bordercolor="#000000"
     borderopacity="0.25"
     inkscape:showpageshadow="2"
     inkscape:pageopacity="0.0"
     inkscape:pagecheckerboard="0"
     inkscape:deskcolor="#d1d1d1"
     inkscape:document-units="mm"
     showgrid="true"
     inkscape:zoom="1.0255231"
     inkscape:cx="572.87838"
     inkscape:cy="365.1795"
     inkscape:window-width="1920"
     inkscape:window-height="1001"
     inkscape:window-x="-9"
     inkscape:window-y="-9"
     inkscape:window-maximized="1"
     inkscape:current-layer="layer1">
    <inkscape:grid
       type="xygrid"
       id="grid9"
       spacingx="19.05"
       spacingy="19.05" />
  </sodipodi:namedview>
  <defs
     id="defs2" />
  <g
     inkscape:label="Ebene 1"
     inkscape:groupmode="layer"
     id="layer1">
    <path
       id="path1136"
       style="font-size:22.5778px;font-family:'Arial Nova';-inkscape-font-specification:'Arial Nova';stroke-width:0.264583"
       d="M 71.429232 62.712968 L 64.075675 73.18623 L 64.075675 75.016093 L 71.076282 75.016093 L 71.076282 78.874772 L 73.060657 78.874772 L 73.060657 75.016093 L 75.243469 75.016093 L 75.243469 73.18623 L 73.060657 73.18623 L 73.060657 62.712968 L 71.429232 62.712968 z M 122.84366 62.820455 L 115.49062 73.293717 L 115.49062 75.12358 L 122.49071 75.12358 L 122.49071 78.982259 L 124.47509 78.982259 L 124.47509 75.12358 L 126.6579 75.12358 L 126.6579 73.293717 L 124.47509 73.293717 L 124.47509 62.820455 L 122.84366 62.820455 z M 71.032357 66.185624 L 71.076282 66.185624 L 71.076282 73.18623 L 66.104492 73.18623 L 71.032357 66.185624 z M 122.44679 66.293111 L 122.49071 66.293111 L 122.49071 73.293717 L 117.51892 73.293717 L 122.44679 66.293111 z M 47.047774 86.964201 L 39.694735 97.437463 L 39.694735 99.267326 L 46.694824 99.267326 L 46.694824 103.12601 L 48.679199 103.12601 L 48.679199 99.267326 L 50.862012 99.267326 L 50.862012 97.437463 L 48.679199 97.437463 L 48.679199 86.964201 L 47.047774 86.964201 z M 98.63429 87.235502 L 91.28125 97.708248 L 91.28125 99.538627 L 98.28134 99.538627 L 98.28134 103.39679 L 100.26571 103.39679 L 100.26571 99.538627 L 102.44853 99.538627 L 102.44853 97.708248 L 100.26571 97.708248 L 100.26571 87.235502 L 98.63429 87.235502 z M 146.17196 87.235502 L 138.8184 97.708248 L 138.8184 99.538627 L 145.81901 99.538627 L 145.81901 103.39679 L 147.80338 103.39679 L 147.80338 99.538627 L 149.98619 99.538627 L 149.98619 97.708248 L 147.80338 97.708248 L 147.80338 87.235502 L 146.17196 87.235502 z M 46.650899 90.436857 L 46.694824 90.436857 L 46.694824 97.437463 L 41.723035 97.437463 L 46.650899 90.436857 z M 98.237415 90.708158 L 98.28134 90.708158 L 98.28134 97.708248 L 93.30955 97.708248 L 98.237415 90.708158 z M 145.77508 90.708158 L 145.81901 90.708158 L 145.81901 97.708248 L 140.84722 97.708248 L 145.77508 90.708158 z M 71.710352 110.9369 L 64.357312 121.41016 L 64.357312 123.24002 L 71.357402 123.24002 L 71.357402 127.0987 L 73.341777 127.0987 L 73.341777 123.24002 L 75.524589 123.24002 L 75.524589 121.41016 L 73.341777 121.41016 L 73.341777 110.9369 L 71.710352 110.9369 z M 122.61215 110.94982 L 115.2586 121.42308 L 115.2586 123.25294 L 122.2592 123.25294 L 122.2592 127.11162 L 124.24358 127.11162 L 124.24358 123.25294 L 126.42639 123.25294 L 126.42639 121.42308 L 124.24358 121.42308 L 124.24358 110.94982 L 122.61215 110.94982 z M 71.313477 114.40955 L 71.357402 114.40955 L 71.357402 121.41016 L 66.385612 121.41016 L 71.313477 114.40955 z M 122.21528 114.42247 L 122.2592 114.42247 L 122.2592 121.42308 L 117.28741 121.42308 L 122.21528 114.42247 z " />
  </g>
</svg>
