<?xml version="1.0" encoding="UTF-8" standalone="no"?>
<!-- Created with Inkscape (http://www.inkscape.org/) -->

<svg
   width="720"
   height="720"
   viewBox="0 0 190.5 190.5"
   version="1.1"
   id="svg5"
   sodipodi:docname="7P.svg"
   inkscape:version="1.2.1 (9c6d41e410, 2022-07-14)"
   xmlns:inkscape="http://www.inkscape.org/namespaces/inkscape"
   xmlns:sodipodi="http://sodipodi.sourceforge.net/DTD/sodipodi-0.dtd"
   xmlns="http://www.w3.org/2000/svg"
   xmlns:svg="http://www.w3.org/2000/svg">
  <sodipodi:namedview
     id="namedview7"
     pagecolor="#ffffff"
     bordercolor="#000000"
     borderopacity="0.25"
     inkscape:showpageshadow="2"
     inkscape:pageopacity="0.0"
     inkscape:pagecheckerboard="0"
     inkscape:deskcolor="#d1d1d1"
     inkscape:document-units="mm"
     showgrid="true"
     inkscape:zoom="1.0255231"
     inkscape:cx="342.75192"
     inkscape:cy="365.66705"
     inkscape:window-width="1520"
     inkscape:window-height="1030"
     inkscape:window-x="10"
     inkscape:window-y="1"
     inkscape:window-maximized="0"
     inkscape:current-layer="layer1">
    <inkscape:grid
       type="xygrid"
       id="grid9"
       spacingx="19.05"
       spacingy="19.05" />
  </sodipodi:namedview>
  <defs
     id="defs2" />
  <g
     inkscape:label="Ebene 1"
     inkscape:groupmode="layer"
     id="layer1">
    <path
       id="path1206"
       style="font-size:22.5778px;font-family:'Arial Nova';-inkscape-font-specification:'Arial Nova';stroke-width:0.264583"
       d="M 64.439478 62.712968 L 64.439478 78.874772 L 66.578365 78.874772 L 66.578365 72.458626 L 69.984875 72.458626 C 71.219598 72.458626 72.281434 72.267194 73.170728 71.885018 C 74.060022 71.502842 74.740026 70.9371 75.210396 70.187447 C 75.688116 69.437795 75.927148 68.526279 75.927148 67.453247 C 75.927148 65.902495 75.42003 64.726914 74.405794 63.925814 C 73.391558 63.117365 71.93635 62.712968 70.040169 62.712968 L 64.439478 62.712968 z M 115.85443 62.820455 L 115.85443 78.982259 L 117.9928 78.982259 L 117.9928 72.566113 L 121.39931 72.566113 C 122.63403 72.566113 123.69638 72.375198 124.58568 71.993022 C 125.47498 71.610846 126.15446 71.044587 126.62483 70.294934 C 127.10255 69.545281 127.34158 68.634283 127.34158 67.561251 C 127.34158 66.010498 126.83446 64.8344 125.82023 64.033301 C 124.80599 63.224852 123.35078 62.820455 121.4546 62.820455 L 115.85443 62.820455 z M 66.578365 64.631197 L 69.962655 64.631197 C 71.241474 64.631197 72.186062 64.86621 72.796073 65.33658 C 73.406085 65.799601 73.711263 66.527205 73.711263 67.519393 C 73.711263 68.533629 73.402583 69.290803 72.785221 69.790572 C 72.17521 70.290341 71.245149 70.540397 69.995728 70.540397 L 66.578365 70.540397 L 66.578365 64.631197 z M 117.9928 64.738684 L 121.3776 64.738684 C 122.65642 64.738684 123.60049 64.974214 124.21051 65.444584 C 124.82051 65.907605 125.1257 66.635209 125.1257 67.627397 C 125.1257 68.641633 124.81701 69.398291 124.19965 69.898059 C 123.58964 70.397828 122.6601 70.647884 121.41068 70.647884 L 117.9928 70.647884 L 117.9928 64.738684 z M 40.058537 86.964201 L 40.058537 103.12601 L 42.196908 103.12601 L 42.196908 96.709859 L 45.603418 96.709859 C 46.83814 96.709859 47.900492 96.518426 48.789787 96.136251 C 49.679081 95.754075 50.358569 95.188333 50.828939 94.43868 C 51.306659 93.689027 51.545691 92.777513 51.545691 91.70448 C 51.545691 90.153728 51.038573 88.978147 50.024337 88.177047 C 49.0101 87.368598 47.554892 86.964201 45.658712 86.964201 L 40.058537 86.964201 z M 91.645052 87.235502 L 91.645052 103.39679 L 93.783423 103.39679 L 93.783423 96.980644 L 97.189933 96.980644 C 98.424655 96.980644 99.487008 96.789728 100.3763 96.407552 C 101.26559 96.025376 101.94508 95.459634 102.41545 94.709981 C 102.89317 93.960328 103.13221 93.048814 103.13221 91.975781 C 103.13221 90.425029 102.62509 89.24893 101.61085 88.447831 C 100.59662 87.639382 99.141409 87.235502 97.245227 87.235502 L 91.645052 87.235502 z M 139.1822 87.235502 L 139.1822 103.39679 L 141.32109 103.39679 L 141.32109 96.980644 L 144.7276 96.980644 C 145.96233 96.980644 147.02416 96.789728 147.91345 96.407552 C 148.80274 96.025376 149.48275 95.459634 149.95312 94.709981 C 150.43084 93.960328 150.66987 93.048814 150.66987 91.975781 C 150.66987 90.425029 150.16275 89.24893 149.14852 88.447831 C 148.13428 87.639382 146.67907 87.235502 144.78289 87.235502 L 139.1822 87.235502 z M 42.196908 88.88243 L 45.581714 88.88243 C 46.860533 88.88243 47.804604 89.117442 48.414616 89.587813 C 49.024627 90.050834 49.329806 90.778439 49.329806 91.770626 C 49.329806 92.784862 49.021125 93.542036 48.403764 94.041805 C 47.793752 94.541573 46.864208 94.79163 45.614787 94.79163 L 42.196908 94.79163 L 42.196908 88.88243 z M 93.783423 89.153731 L 97.168229 89.153731 C 98.447049 89.153731 99.391122 89.388744 100.00113 89.859115 C 100.61114 90.322135 100.91632 91.049739 100.91632 92.041927 C 100.91632 93.056163 100.60764 93.813338 99.990279 94.313106 C 99.380267 94.812875 98.450724 95.062415 97.201302 95.062415 L 93.783423 95.062415 L 93.783423 89.153731 z M 141.32109 89.153731 L 144.70538 89.153731 C 145.9842 89.153731 146.92879 89.388744 147.5388 89.859115 C 148.1488 90.322135 148.45399 91.049739 148.45399 92.041927 C 148.45399 93.056163 148.14531 93.813338 147.52795 94.313106 C 146.91793 94.812875 145.98787 95.062415 144.73845 95.062415 L 141.32109 95.062415 L 141.32109 89.153731 z M 64.721114 110.9369 L 64.721114 127.0987 L 66.859485 127.0987 L 66.859485 120.68256 L 70.265995 120.68256 C 71.500717 120.68256 72.56307 120.49164 73.452364 120.10946 C 74.341658 119.72729 75.021146 119.16103 75.491516 118.41138 C 75.969236 117.66172 76.208268 116.75073 76.208268 115.67769 C 76.208268 114.12694 75.70115 112.95084 74.686914 112.14974 C 73.672678 111.34129 72.217469 110.9369 70.321289 110.9369 L 64.721114 110.9369 z M 115.6224 110.94982 L 115.6224 127.11162 L 117.76129 127.11162 L 117.76129 120.69548 L 121.1678 120.69548 C 122.40252 120.69548 123.46436 120.50405 124.35365 120.12187 C 125.24295 119.73969 125.92295 119.17395 126.39332 118.4243 C 126.87104 117.67464 127.11007 116.76313 127.11007 115.6901 C 127.11007 114.13934 126.60295 112.96376 125.58872 112.16266 C 124.57448 111.35421 123.11927 110.94982 121.22309 110.94982 L 115.6224 110.94982 z M 66.859485 112.85513 L 70.244291 112.85513 C 71.523111 112.85513 72.467181 113.09065 73.077193 113.56103 C 73.687205 114.02405 73.992383 114.75114 73.992383 115.74332 C 73.992383 116.75756 73.683703 117.51474 73.066341 118.0145 C 72.45633 118.51427 71.526786 118.76433 70.277364 118.76433 L 66.859485 118.76433 L 66.859485 112.85513 z M 117.76129 112.86805 L 121.14558 112.86805 C 122.4244 112.86805 123.36898 113.10306 123.979 113.57343 C 124.589 114.03645 124.89419 114.76406 124.89419 115.75624 C 124.89419 116.77048 124.5855 117.52765 123.96814 118.02742 C 123.35813 118.52719 122.42807 118.77725 121.17865 118.77725 L 117.76129 118.77725 L 117.76129 112.86805 z " />
  </g>
</svg>
