<?xml version="1.0" encoding="UTF-8" standalone="no"?>
<!-- Created with Inkscape (http://www.inkscape.org/) -->

<svg
   width="720"
   height="720"
   viewBox="0 0 190.5 190.5"
   version="1.1"
   id="svg5"
   sodipodi:docname="9four.svg"
   inkscape:version="1.2.1 (9c6d41e410, 2022-07-14)"
   xmlns:inkscape="http://www.inkscape.org/namespaces/inkscape"
   xmlns:sodipodi="http://sodipodi.sourceforge.net/DTD/sodipodi-0.dtd"
   xmlns="http://www.w3.org/2000/svg"
   xmlns:svg="http://www.w3.org/2000/svg">
  <sodipodi:namedview
     id="namedview7"
     pagecolor="#ffffff"
     bordercolor="#000000"
     borderopacity="0.25"
     inkscape:showpageshadow="2"
     inkscape:pageopacity="0.0"
     inkscape:pagecheckerboard="0"
     inkscape:deskcolor="#d1d1d1"
     inkscape:document-units="mm"
     showgrid="true"
     inkscape:zoom="1.0255231"
     inkscape:cx="342.75192"
     inkscape:cy="395.89553"
     inkscape:window-width="1520"
     inkscape:window-height="1030"
     inkscape:window-x="10"
     inkscape:window-y="1"
     inkscape:window-maximized="0"
     inkscape:current-layer="layer1">
    <inkscape:grid
       type="xygrid"
       id="grid9"
       spacingx="19.05"
       spacingy="19.05" />
  </sodipodi:namedview>
  <defs
     id="defs2">
    <rect
       x="67.282738"
       y="190.14687"
       width="570.4406"
       height="346.16481"
       id="rect2264" />
  </defs>
  <g
     inkscape:label="Ebene 1"
     inkscape:groupmode="layer"
     id="layer1">
    <path
       id="path2406"
       style="font-size:22.5778px;font-family:'Arial Nova';-inkscape-font-specification:'Arial Nova';stroke-width:0.264583"
       d="M 31.715894 62.900037 C 30.569366 62.900037 29.742543 63.172141 29.235425 63.716007 C 28.728307 64.252524 28.474748 65.097376 28.474748 66.251253 L 28.474748 67.640316 L 26.711031 67.640316 L 26.711031 69.173039 L 28.474748 69.173039 L 28.474748 79.337276 L 30.459123 79.337276 L 30.459123 69.173039 L 32.718933 69.173039 L 32.718933 67.640316 L 30.459123 67.640316 L 30.459123 66.405766 C 30.459123 65.986842 30.488696 65.656113 30.547489 65.413578 C 30.613635 65.171043 30.756952 64.980128 30.977437 64.840487 C 31.197924 64.693496 31.532155 64.619828 31.980477 64.619828 C 32.472896 64.619828 32.983516 64.700501 33.512683 64.862191 L 33.942631 63.175472 C 33.192978 62.991734 32.450847 62.900037 31.715894 62.900037 z M 83.302409 63.171338 C 82.155881 63.171338 81.329058 63.442926 80.82194 63.986792 C 80.314823 64.523308 80.061263 65.368678 80.061263 66.522555 L 80.061263 67.911617 L 78.297546 67.911617 L 78.297546 69.443823 L 80.061263 69.443823 L 80.061263 79.608577 L 82.045638 79.608577 L 82.045638 69.443823 L 84.305448 69.443823 L 84.305448 67.911617 L 82.045638 67.911617 L 82.045638 66.677067 C 82.045638 66.258143 82.075211 65.927415 82.134005 65.68488 C 82.200151 65.442345 82.343467 65.250912 82.563953 65.111271 C 82.784439 64.964281 83.118671 64.89113 83.566992 64.89113 C 84.059412 64.89113 84.570032 64.971803 85.099198 65.133492 L 85.529146 63.446773 C 84.779493 63.263035 84.037362 63.171338 83.302409 63.171338 z M 130.84008 63.171338 C 129.69355 63.171338 128.86673 63.442926 128.35961 63.986792 C 127.85249 64.523308 127.59893 65.368678 127.59893 66.522555 L 127.59893 67.911617 L 125.8347 67.911617 L 125.8347 69.443823 L 127.59893 69.443823 L 127.59893 79.608577 L 129.5833 79.608577 L 129.5833 69.443823 L 131.84312 69.443823 L 131.84312 67.911617 L 129.5833 67.911617 L 129.5833 66.677067 C 129.5833 66.258143 129.61235 65.927415 129.67115 65.68488 C 129.7373 65.442345 129.88062 65.250912 130.1011 65.111271 C 130.32159 64.964281 130.65634 64.89113 131.10466 64.89113 C 131.59708 64.89113 132.1077 64.971803 132.63687 65.133492 L 133.06681 63.446773 C 132.31716 63.263035 131.57503 63.171338 130.84008 63.171338 z M 38.859644 67.375732 C 37.771912 67.375732 36.812798 67.618267 35.9823 68.103337 C 35.159152 68.588406 34.519742 69.290459 34.064071 70.209151 C 33.608399 71.127844 33.380391 72.222752 33.380391 73.494222 C 33.380391 74.802439 33.611902 75.915894 34.074923 76.834587 C 34.545294 77.753278 35.192225 78.447809 36.015373 78.91818 C 36.838521 79.381201 37.786611 79.612712 38.859644 79.612712 C 39.940025 79.612712 40.891618 79.374196 41.714766 78.896476 C 42.545264 78.411407 43.192196 77.709354 43.655216 76.790662 C 44.118237 75.864621 44.349748 74.758687 44.349748 73.472518 C 44.349748 72.178999 44.118237 71.076569 43.655216 70.165226 C 43.199545 69.246534 42.560136 68.552003 41.736987 68.081632 C 40.913839 67.611262 39.954724 67.375732 38.859644 67.375732 z M 64.028133 67.375732 C 63.396073 67.375732 62.855882 67.530073 62.40756 67.838753 C 61.959238 68.147434 61.518266 68.669596 61.084644 69.404549 L 61.084644 67.640316 L 59.23256 67.640316 L 59.23256 79.337276 L 61.216935 79.337276 L 61.216935 73.097347 C 61.216935 71.93612 61.437421 71.032127 61.878394 70.385368 C 62.326716 69.731259 62.973647 69.404549 63.818844 69.404549 C 64.35536 69.404549 64.83641 69.518295 65.262683 69.74613 L 65.946362 67.916268 C 65.630333 67.72518 65.31815 67.588869 65.009469 67.508024 C 64.708138 67.41983 64.380911 67.375732 64.028133 67.375732 z M 46.631779 67.640316 L 46.631779 75.556112 C 46.631779 76.85698 46.973532 77.860192 47.657039 78.565747 C 48.347895 79.263954 49.373156 79.612712 50.732821 79.612712 C 51.482473 79.612712 52.158459 79.451366 52.761121 79.127987 C 53.371133 78.804607 53.885772 78.334065 54.304696 77.716703 L 54.304696 79.337276 L 56.156779 79.337276 L 56.156779 67.640316 L 54.172404 67.640316 L 54.172404 74.167049 C 54.172404 75.063693 54.062161 75.761727 53.841675 76.261495 C 53.621189 76.761264 53.264908 77.158139 52.772489 77.45212 C 52.28742 77.746102 51.717658 77.89292 51.06355 77.89292 C 50.277149 77.89292 49.670813 77.672434 49.244539 77.231462 C 48.825616 76.790489 48.616154 76.144075 48.616154 75.291528 L 48.616154 67.640316 L 46.631779 67.640316 z M 90.446159 67.647034 C 89.358427 67.647034 88.399313 67.889568 87.568815 68.374638 C 86.745667 68.859707 86.106257 69.561761 85.650586 70.480452 C 85.194915 71.399145 84.966907 72.494053 84.966907 73.765523 C 84.966907 75.073741 85.198417 76.187196 85.661438 77.105888 C 86.131808 78.02458 86.77874 78.719111 87.601888 79.189482 C 88.425037 79.652502 89.373127 79.884013 90.446159 79.884013 C 91.526541 79.884013 92.478134 79.64498 93.301282 79.167261 C 94.13178 78.682191 94.778711 77.980655 95.241732 77.061963 C 95.704753 76.135921 95.936263 75.029471 95.936263 73.743302 C 95.936263 72.449784 95.704753 71.347353 95.241732 70.436011 C 94.78606 69.517318 94.14665 68.822787 93.323503 68.352417 C 92.500354 67.882047 91.54124 67.647034 90.446159 67.647034 z M 115.61465 67.647034 C 114.98259 67.647034 114.4424 67.801374 113.99408 68.110055 C 113.54575 68.418735 113.10478 68.94038 112.67116 69.675334 L 112.67116 67.911617 L 110.81908 67.911617 L 110.81908 79.608577 L 112.80345 79.608577 L 112.80345 73.368648 C 112.80345 72.207421 113.02394 71.303428 113.46491 70.656669 C 113.91323 70.00256 114.56016 69.675334 115.40536 69.675334 C 115.94187 69.675334 116.42293 69.789596 116.8492 70.017432 L 117.53288 68.187052 C 117.21685 67.995965 116.90466 67.86017 116.59598 67.779325 C 116.29465 67.691131 115.96743 67.647034 115.61465 67.647034 z M 137.98383 67.647034 C 136.89609 67.647034 135.93698 67.889568 135.10648 68.374638 C 134.28334 68.859707 133.64393 69.561761 133.18825 70.480452 C 132.73258 71.399145 132.50457 72.494053 132.50457 73.765523 C 132.50457 75.073741 132.73609 76.187196 133.1991 77.105888 C 133.66948 78.02458 134.31641 78.719111 135.13955 79.189482 C 135.96271 79.652502 136.91079 79.884013 137.98383 79.884013 C 139.0642 79.884013 140.0158 79.64498 140.83895 79.167261 C 141.66944 78.682191 142.31637 77.980655 142.7794 77.061963 C 143.24242 76.135921 143.47393 75.029471 143.47393 73.743302 C 143.47393 72.449784 143.24242 71.347353 142.7794 70.436011 C 142.32373 69.517318 141.68432 68.822787 140.86117 68.352417 C 140.03802 67.882047 139.0789 67.647034 137.98383 67.647034 z M 163.15232 67.647034 C 162.52026 67.647034 161.98006 67.801374 161.53174 68.110055 C 161.08342 68.418735 160.64245 68.94038 160.20883 69.675334 L 160.20883 67.911617 L 158.35674 67.911617 L 158.35674 79.608577 L 160.34112 79.608577 L 160.34112 73.368648 C 160.34112 72.207421 160.5616 71.303428 161.00258 70.656669 C 161.4509 70.00256 162.09732 69.675334 162.94251 69.675334 C 163.47903 69.675334 163.96059 69.789596 164.38687 70.017432 L 165.07054 68.187052 C 164.75451 67.995965 164.44181 67.86017 164.13313 67.779325 C 163.8318 67.691131 163.50509 67.647034 163.15232 67.647034 z M 98.218294 67.911617 L 98.218294 75.826896 C 98.218294 77.127764 98.560047 78.130976 99.243555 78.836532 C 99.934414 79.534738 100.95968 79.884013 102.31934 79.884013 C 103.06899 79.884013 103.74497 79.722151 104.34764 79.398771 C 104.95765 79.075391 105.47229 78.605365 105.89121 77.988005 L 105.89121 79.608577 L 107.74329 79.608577 L 107.74329 67.911617 L 105.75892 67.911617 L 105.75892 74.437834 C 105.75892 75.334477 105.64868 76.033027 105.42819 76.532796 C 105.2077 77.032565 104.85142 77.42944 104.359 77.723421 C 103.87394 78.017403 103.30418 78.164221 102.65007 78.164221 C 101.86367 78.164221 101.25733 77.943735 100.83105 77.502763 C 100.41214 77.061791 100.20267 76.414859 100.20267 75.562313 L 100.20267 67.911617 L 98.218294 67.911617 z M 145.75596 67.911617 L 145.75596 75.826896 C 145.75596 77.127764 146.09772 78.130976 146.78122 78.836532 C 147.47208 79.534738 148.49734 79.884013 149.857 79.884013 C 150.60666 79.884013 151.28264 79.722151 151.8853 79.398771 C 152.49532 79.075391 153.00995 78.605365 153.42888 77.988005 L 153.42888 79.608577 L 155.28096 79.608577 L 155.28096 67.911617 L 153.29659 67.911617 L 153.29659 74.437834 C 153.29659 75.334477 153.18634 76.033027 152.96586 76.532796 C 152.74538 77.032565 152.38857 77.42944 151.89615 77.723421 C 151.41108 78.017403 150.84184 78.164221 150.18773 78.164221 C 149.40133 78.164221 148.795 77.943735 148.36872 77.502763 C 147.9498 77.061791 147.74034 76.414859 147.74034 75.562313 L 147.74034 67.911617 L 145.75596 67.911617 z M 38.848792 69.007674 C 39.532299 69.007674 40.134616 69.180044 40.656433 69.525472 C 41.178251 69.86355 41.586149 70.367166 41.880131 71.035974 C 42.174112 71.704782 42.321448 72.517078 42.321448 73.472518 C 42.321448 74.420608 42.178132 75.232388 41.8915 75.908545 C 41.612217 76.584702 41.211324 77.099342 40.689506 77.45212 C 40.167689 77.804898 39.55785 77.981287 38.859644 77.981287 C 38.183486 77.981287 37.584671 77.81242 37.062854 77.474341 C 36.548387 77.128912 36.14399 76.621795 35.850008 75.952987 C 35.556027 75.276829 35.409208 74.457011 35.409208 73.494222 C 35.409208 72.531432 35.556027 71.715634 35.850008 71.046826 C 36.151339 70.370669 36.559239 69.86355 37.073706 69.525472 C 37.595524 69.180044 38.187333 69.007674 38.848792 69.007674 z M 90.435307 69.278459 C 91.118813 69.278459 91.721131 69.451346 92.242948 69.796773 C 92.764765 70.134852 93.172665 70.638467 93.466646 71.307275 C 93.760628 71.976083 93.907963 72.787863 93.907963 73.743302 C 93.907963 74.691393 93.764648 75.503689 93.478015 76.179846 C 93.198733 76.856004 92.797838 77.370644 92.276021 77.723421 C 91.754204 78.076199 91.144365 78.252588 90.446159 78.252588 C 89.770002 78.252588 89.171187 78.083204 88.649369 77.745125 C 88.134902 77.399697 87.730504 76.892579 87.436523 76.223771 C 87.142542 75.547614 86.995723 74.728312 86.995723 73.765523 C 86.995723 72.802734 87.142542 71.986935 87.436523 71.318127 C 87.737854 70.64197 88.145754 70.134852 88.660221 69.796773 C 89.182038 69.451346 89.773848 69.278459 90.435307 69.278459 z M 137.97246 69.278459 C 138.65597 69.278459 139.2588 69.451346 139.78062 69.796773 C 140.30243 70.134852 140.71033 70.638467 141.00431 71.307275 C 141.29829 71.976083 141.44511 72.787863 141.44511 73.743302 C 141.44511 74.691393 141.30179 75.503689 141.01517 76.179846 C 140.73588 76.856004 140.33551 77.370644 139.81369 77.723421 C 139.29188 78.076199 138.68203 78.252588 137.98383 78.252588 C 137.30767 78.252588 136.70834 78.083204 136.18652 77.745125 C 135.67205 77.399697 135.26817 76.892579 134.97419 76.223771 C 134.68021 75.547614 134.53287 74.728312 134.53287 73.765523 C 134.53287 72.802734 134.68021 71.986935 134.97419 71.318127 C 135.27552 70.64197 135.68342 70.134852 136.19789 69.796773 C 136.71971 69.451346 137.311 69.278459 137.97246 69.278459 z M 31.291113 87.453577 C 30.144586 87.453577 29.317763 87.725165 28.810645 88.269031 C 28.303526 88.805547 28.049967 89.650916 28.049967 90.804793 L 28.049967 92.193856 L 26.286251 92.193856 L 26.286251 93.726062 L 28.049967 93.726062 L 28.049967 103.89082 L 30.034342 103.89082 L 30.034342 93.726062 L 32.29467 93.726062 L 32.29467 92.193856 L 30.034342 92.193856 L 30.034342 90.959306 C 30.034342 90.540382 30.063916 90.209653 30.122709 89.967118 C 30.188855 89.724583 30.332171 89.533151 30.552657 89.39351 C 30.773144 89.246519 31.107375 89.173368 31.555697 89.173368 C 32.048115 89.173368 32.559253 89.254041 33.08842 89.415731 L 33.518368 87.729012 C 32.768715 87.545274 32.026067 87.453577 31.291113 87.453577 z M 82.877629 87.724361 C 81.731101 87.724361 80.904278 87.996466 80.39716 88.540332 C 79.890042 89.076848 79.636483 89.922217 79.636483 91.076095 L 79.636483 92.465157 L 77.872766 92.465157 L 77.872766 93.997363 L 79.636483 93.997363 L 79.636483 104.1616 L 81.620858 104.1616 L 81.620858 93.997363 L 83.881185 93.997363 L 83.881185 92.465157 L 81.620858 92.465157 L 81.620858 91.23009 C 81.620858 90.811167 81.650431 90.480437 81.709224 90.237903 C 81.77537 89.995368 81.918686 89.804452 82.139172 89.664811 C 82.359658 89.517821 82.69389 89.444153 83.142212 89.444153 C 83.634631 89.444153 84.145768 89.525342 84.674935 89.687032 L 85.104883 88.000313 C 84.35523 87.816575 83.612583 87.724361 82.877629 87.724361 z M 130.4153 87.724361 C 129.26877 87.724361 128.44195 87.996466 127.93483 88.540332 C 127.42771 89.076848 127.17415 89.922217 127.17415 91.076095 L 127.17415 92.465157 L 125.41043 92.465157 L 125.41043 93.997363 L 127.17415 93.997363 L 127.17415 104.1616 L 129.15852 104.1616 L 129.15852 93.997363 L 131.41833 93.997363 L 131.41833 92.465157 L 129.15852 92.465157 L 129.15852 91.23009 C 129.15852 90.811167 129.18809 90.480437 129.24689 90.237903 C 129.31304 89.995368 129.45635 89.804452 129.67684 89.664811 C 129.89733 89.517821 130.23155 89.444153 130.67988 89.444153 C 131.17229 89.444153 131.68291 89.525342 132.21208 89.687032 L 132.64203 88.000313 C 131.89238 87.816575 131.15025 87.724361 130.4153 87.724361 z M 38.434863 91.929272 C 37.347132 91.929272 36.388017 92.171807 35.55752 92.656877 C 34.734372 93.141946 34.094962 93.843999 33.63929 94.762691 C 33.183619 95.681383 32.956128 96.776292 32.956128 98.047762 C 32.956128 99.355981 33.187638 100.46943 33.650659 101.38813 C 34.12103 102.30682 34.767445 103.00135 35.590592 103.47172 C 36.41374 103.93474 37.36183 104.16625 38.434863 104.16625 C 39.515245 104.16625 40.467354 103.92722 41.290503 103.4495 C 42.121001 102.96443 42.767415 102.26289 43.230436 101.3442 C 43.693456 100.41816 43.924967 99.311711 43.924967 98.025541 C 43.924967 96.732023 43.693456 95.629593 43.230436 94.71825 C 42.774765 93.799558 42.135356 93.105027 41.312207 92.634656 C 40.489059 92.164286 39.529944 91.929272 38.434863 91.929272 z M 63.603353 91.929272 C 62.971293 91.929272 62.431102 92.083613 61.98278 92.392293 C 61.534458 92.700974 61.093486 93.222619 60.659863 93.957572 L 60.659863 92.193856 L 58.80778 92.193856 L 58.80778 103.89082 L 60.792155 103.89082 L 60.792155 97.650887 C 60.792155 96.48966 61.012641 95.585667 61.453613 94.938908 C 61.901935 94.284799 62.548867 93.957572 63.394063 93.957572 C 63.930579 93.957572 64.412146 94.071835 64.83842 94.29967 L 65.521582 92.469291 C 65.205552 92.278203 64.893369 92.142409 64.584688 92.061564 C 64.283357 91.97337 63.956131 91.929272 63.603353 91.929272 z M 46.206999 92.193856 L 46.206999 100.10913 C 46.206999 101.41 46.548752 102.41322 47.232259 103.11877 C 47.923115 103.81698 48.948376 104.16625 50.30804 104.16625 C 51.057693 104.16625 51.734195 104.00439 52.336857 103.68101 C 52.946869 103.35763 53.460992 102.8876 53.879915 102.27024 L 53.879915 103.89082 L 55.731999 103.89082 L 55.731999 92.193856 L 53.747624 92.193856 L 53.747624 98.720072 C 53.747624 99.616717 53.637381 100.31527 53.416895 100.81503 C 53.196409 101.31481 52.840128 101.71168 52.347709 102.00566 C 51.86264 102.29964 51.292879 102.44646 50.63877 102.44646 C 49.85237 102.44646 49.246033 102.22597 48.819759 101.785 C 48.400836 101.34403 48.191374 100.6971 48.191374 99.844552 L 48.191374 92.193856 L 46.206999 92.193856 z M 90.021379 92.200574 C 88.933647 92.200574 87.974533 92.443108 87.144035 92.928178 C 86.320886 93.413247 85.681477 94.114783 85.225806 95.033476 C 84.770134 95.952167 84.542643 97.047593 84.542643 98.319063 C 84.542643 99.62728 84.774154 100.74074 85.237174 101.65943 C 85.707545 102.57812 86.353959 103.27265 87.177108 103.74302 C 88.000256 104.20604 88.948346 104.43755 90.021379 104.43755 C 91.10176 104.43755 92.05387 104.19852 92.877018 103.7208 C 93.707515 103.23573 94.353931 102.53368 94.816951 101.61499 C 95.279972 100.68895 95.511483 99.583012 95.511483 98.296842 C 95.511483 97.003324 95.279972 95.900894 94.816951 94.989551 C 94.361281 94.070859 93.721871 93.376328 92.898722 92.905957 C 92.075574 92.435587 91.116459 92.200574 90.021379 92.200574 z M 115.18987 92.200574 C 114.55781 92.200574 114.01761 92.354914 113.5693 92.663595 C 113.12097 92.972276 112.68 93.49392 112.24638 94.228874 L 112.24638 92.465157 L 110.3943 92.465157 L 110.3943 104.1616 L 112.37867 104.1616 L 112.37867 97.922188 C 112.37867 96.760961 112.59916 95.856968 113.04013 95.210209 C 113.48845 94.5561 114.13538 94.228874 114.98058 94.228874 C 115.51709 94.228874 115.99866 94.342619 116.42493 94.570455 L 117.1081 92.740592 C 116.79207 92.549504 116.47988 92.41371 116.1712 92.332865 C 115.86987 92.244671 115.54265 92.200574 115.18987 92.200574 z M 137.55905 92.200574 C 136.47131 92.200574 135.5122 92.443108 134.6817 92.928178 C 133.85856 93.413247 133.21915 94.114783 132.76347 95.033476 C 132.3078 95.952167 132.07979 97.047593 132.07979 98.319063 C 132.07979 99.62728 132.3113 100.74074 132.77432 101.65943 C 133.24469 102.57812 133.89162 103.27265 134.71477 103.74302 C 135.53792 104.20604 136.48601 104.43755 137.55905 104.43755 C 138.63942 104.43755 139.59102 104.19852 140.41417 103.7208 C 141.24466 103.23573 141.89159 102.53368 142.35462 101.61499 C 142.81764 100.68895 143.04915 99.583012 143.04915 98.296842 C 143.04915 97.003324 142.81764 95.900894 142.35462 94.989551 C 141.89895 94.070859 141.25954 93.376328 140.43639 92.905957 C 139.61324 92.435587 138.65412 92.200574 137.55905 92.200574 z M 162.72753 92.200574 C 162.09547 92.200574 161.55528 92.354914 161.10696 92.663595 C 160.65864 92.972276 160.21767 93.49392 159.78405 94.228874 L 159.78405 92.465157 L 157.93196 92.465157 L 157.93196 104.1616 L 159.91634 104.1616 L 159.91634 97.922188 C 159.91634 96.760961 160.13682 95.856968 160.5778 95.210209 C 161.02612 94.5561 161.67305 94.228874 162.51825 94.228874 C 163.05476 94.228874 163.53581 94.342619 163.96208 94.570455 L 164.64576 92.740592 C 164.32973 92.549504 164.01755 92.41371 163.70887 92.332865 C 163.40754 92.244671 163.08031 92.200574 162.72753 92.200574 z M 97.793514 92.465157 L 97.793514 100.38044 C 97.793514 101.6813 98.135268 102.68451 98.818774 103.39007 C 99.509631 104.08828 100.53489 104.43755 101.89456 104.43755 C 102.64421 104.43755 103.32071 104.27569 103.92337 103.95231 C 104.53339 103.62893 105.04751 103.15839 105.46643 102.54103 L 105.46643 104.1616 L 107.31851 104.1616 L 107.31851 92.465157 L 105.33414 92.465157 L 105.33414 98.991374 C 105.33414 99.888015 105.2239 100.58605 105.00341 101.08582 C 104.78292 101.58559 104.42664 101.98246 103.93422 102.27644 C 103.44916 102.57043 102.8794 102.71776 102.22528 102.71776 C 101.43889 102.71776 100.83255 102.49728 100.40627 102.0563 C 99.987351 101.61533 99.777889 100.9684 99.777889 100.11585 L 99.777889 92.465157 L 97.793514 92.465157 z M 145.33118 92.465157 L 145.33118 100.38044 C 145.33118 101.6813 145.67294 102.68451 146.35644 103.39007 C 147.0473 104.08828 148.07256 104.43755 149.43222 104.43755 C 150.18188 104.43755 150.85786 104.27569 151.46052 103.95231 C 152.07054 103.62893 152.58517 103.15839 153.0041 102.54103 L 153.0041 104.1616 L 154.85618 104.1616 L 154.85618 92.465157 L 152.87181 92.465157 L 152.87181 98.991374 C 152.87181 99.888015 152.76156 100.58605 152.54108 101.08582 C 152.32059 101.58559 151.96431 101.98246 151.47189 102.27644 C 150.98682 102.57043 150.41706 102.71776 149.76295 102.71776 C 148.97655 102.71776 148.37021 102.49728 147.94394 102.0563 C 147.52501 101.61533 147.31556 100.9684 147.31556 100.11585 L 147.31556 92.465157 L 145.33118 92.465157 z M 38.424011 93.560697 C 39.107519 93.560697 39.710353 93.733584 40.23217 94.079012 C 40.753987 94.41709 41.161886 94.920706 41.455868 95.589514 C 41.749849 96.258322 41.896667 97.070101 41.896667 98.025541 C 41.896667 98.973632 41.753351 99.78593 41.46672 100.46208 C 41.187437 101.13824 40.78706 101.65288 40.265243 102.00566 C 39.743426 102.35844 39.133069 102.53483 38.434863 102.53483 C 37.758706 102.53483 37.159891 102.36544 36.638074 102.02736 C 36.123606 101.68193 35.71921 101.17482 35.425228 100.50601 C 35.131247 99.829853 34.984428 99.010551 34.984428 98.047762 C 34.984428 97.084972 35.131247 96.269174 35.425228 95.600366 C 35.726559 94.924208 36.134458 94.41709 36.648926 94.079012 C 37.170743 93.733584 37.762553 93.560697 38.424011 93.560697 z M 90.010527 93.831999 C 90.694034 93.831999 91.296868 94.004885 91.818685 94.350313 C 92.340502 94.688392 92.748402 95.191491 93.042383 95.860299 C 93.336365 96.529107 93.483183 97.341403 93.483183 98.296842 C 93.483183 99.244933 93.339867 100.05723 93.053235 100.73339 C 92.773952 101.40955 92.373575 101.92367 91.851758 102.27644 C 91.329941 102.62922 90.719585 102.80561 90.021379 102.80561 C 89.345221 102.80561 88.746406 102.63675 88.224589 102.29867 C 87.710122 101.95324 87.305725 101.44612 87.011743 100.77731 C 86.717761 100.10115 86.570943 99.281852 86.570943 98.319063 C 86.570943 97.356274 86.717761 96.540475 87.011743 95.871667 C 87.313074 95.195509 87.720974 94.688392 88.235441 94.350313 C 88.757259 94.004885 89.349069 93.831999 90.010527 93.831999 z M 137.54819 93.831999 C 138.23171 93.831999 138.83402 94.004885 139.35583 94.350313 C 139.87765 94.688392 140.28555 95.191491 140.57953 95.860299 C 140.87351 96.529107 141.02085 97.341403 141.02085 98.296842 C 141.02085 99.244933 140.87753 100.05723 140.5909 100.73339 C 140.31162 101.40955 139.91072 101.92367 139.38891 102.27644 C 138.86709 102.62922 138.25725 102.80561 137.55905 102.80561 C 136.88289 102.80561 136.28407 102.63675 135.76226 102.29867 C 135.24778 101.95324 134.84339 101.44612 134.54941 100.77731 C 134.25543 100.10115 134.10861 99.281852 134.10861 98.319063 C 134.10861 97.356274 134.25543 96.540475 134.54941 95.871667 C 134.85074 95.195509 135.25864 94.688392 135.77311 94.350313 C 136.29493 94.004885 136.88674 93.831999 137.54819 93.831999 z M 31.439941 110.95292 C 30.293413 110.95292 29.466591 111.22502 28.959473 111.76889 C 28.452355 112.30541 28.198796 113.15026 28.198796 114.30413 L 28.198796 115.6932 L 26.435079 115.6932 L 26.435079 117.22592 L 28.198796 117.22592 L 28.198796 127.39016 L 30.183171 127.39016 L 30.183171 117.22592 L 32.442981 117.22592 L 32.442981 115.6932 L 30.183171 115.6932 L 30.183171 114.45865 C 30.183171 114.03973 30.212744 113.70899 30.271537 113.46646 C 30.337683 113.22392 30.480999 113.03301 30.701485 112.89337 C 30.921972 112.74637 31.256203 112.67271 31.704525 112.67271 C 32.196944 112.67271 32.707565 112.75338 33.236731 112.91507 L 33.666679 111.22835 C 32.917026 111.04461 32.174895 110.95292 31.439941 110.95292 z M 83.026457 111.22422 C 81.879929 111.22422 81.053106 111.49581 80.545988 112.03967 C 80.03887 112.57619 79.785311 113.42156 79.785311 114.57544 L 79.785311 115.9645 L 78.021594 115.9645 L 78.021594 117.4967 L 79.785311 117.4967 L 79.785311 127.66146 L 81.769686 127.66146 L 81.769686 117.4967 L 84.029496 117.4967 L 84.029496 115.9645 L 81.769686 115.9645 L 81.769686 114.72995 C 81.769686 114.31102 81.799259 113.98029 81.858053 113.73776 C 81.924199 113.49523 82.067515 113.3038 82.288 113.16415 C 82.508487 113.01717 82.842718 112.94401 83.29104 112.94401 C 83.783459 112.94401 84.294079 113.02469 84.823246 113.18637 L 85.253194 111.49965 C 84.503542 111.31591 83.76141 111.22422 83.026457 111.22422 z M 130.56412 111.22422 C 129.4176 111.22422 128.59077 111.49581 128.08365 112.03967 C 127.57654 112.57619 127.32298 113.42156 127.32298 114.57544 L 127.32298 115.9645 L 125.55874 115.9645 L 125.55874 117.4967 L 127.32298 117.4967 L 127.32298 127.66146 L 129.30735 127.66146 L 129.30735 117.4967 L 131.56716 117.4967 L 131.56716 115.9645 L 129.30735 115.9645 L 129.30735 114.72995 C 129.30735 114.31102 129.3364 113.98029 129.3952 113.73776 C 129.46135 113.49523 129.60466 113.3038 129.82515 113.16415 C 130.04564 113.01717 130.38039 112.94401 130.82871 112.94401 C 131.32113 112.94401 131.83175 113.02469 132.36091 113.18637 L 132.79086 111.49965 C 132.04121 111.31591 131.29908 111.22422 130.56412 111.22422 z M 38.583691 115.42861 C 37.49596 115.42861 36.536845 115.67114 35.706348 116.15622 C 34.8832 116.64128 34.24379 117.34334 33.788118 118.26203 C 33.332448 119.18072 33.104439 120.27563 33.104439 121.5471 C 33.104439 122.85532 33.33595 123.96878 33.798971 124.88747 C 34.269341 125.80616 34.916273 126.5007 35.739421 126.97106 C 36.562569 127.43409 37.510659 127.66559 38.583691 127.66559 C 39.664074 127.66559 40.615666 127.42708 41.438814 126.94936 C 42.269312 126.46429 42.916243 125.76223 43.379264 124.84354 C 43.842285 123.9175 44.073796 122.81157 44.073796 121.5254 C 44.073796 120.23188 43.842285 119.12945 43.379264 118.21811 C 42.923593 117.29941 42.284183 116.60489 41.461035 116.13451 C 40.637887 115.66414 39.678772 115.42861 38.583691 115.42861 z M 63.752181 115.42861 C 63.120121 115.42861 62.57993 115.58295 62.131608 115.89163 C 61.683287 116.20032 61.242314 116.72248 60.808691 117.45743 L 60.808691 115.6932 L 58.956608 115.6932 L 58.956608 127.39016 L 60.940983 127.39016 L 60.940983 121.15023 C 60.940983 119.989 61.161469 119.08501 61.602441 118.43825 C 62.050763 117.78414 62.697695 117.45743 63.542891 117.45743 C 64.079408 117.45743 64.560458 117.57118 64.986731 117.79901 L 65.67041 115.96915 C 65.35438 115.77806 65.042197 115.64174 64.733516 115.5609 C 64.432185 115.47271 64.104959 115.42861 63.752181 115.42861 z M 46.355827 115.6932 L 46.355827 123.60899 C 46.355827 124.90986 46.697581 125.91307 47.381087 126.61863 C 48.071944 127.31683 49.097205 127.66559 50.456868 127.66559 C 51.206522 127.66559 51.882506 127.50425 52.485168 127.18087 C 53.09518 126.85749 53.60982 126.38695 54.028743 125.76958 L 54.028743 127.39016 L 55.880827 127.39016 L 55.880827 115.6932 L 53.896452 115.6932 L 53.896452 122.21993 C 53.896452 123.11658 53.786208 123.81461 53.565723 124.31438 C 53.345236 124.81415 52.988956 125.21102 52.496537 125.505 C 52.011468 125.79898 51.441706 125.9458 50.787598 125.9458 C 50.001197 125.9458 49.39486 125.72532 48.968587 125.28434 C 48.549664 124.84337 48.340202 124.19695 48.340202 123.34441 L 48.340202 115.6932 L 46.355827 115.6932 z M 90.170207 115.69991 C 89.082475 115.69991 88.123361 115.94245 87.292863 116.42752 C 86.469715 116.91259 85.830305 117.61464 85.374634 118.53333 C 84.918962 119.45203 84.690955 120.54694 84.690955 121.8184 C 84.690955 123.12662 84.922465 124.24008 85.385486 125.15877 C 85.855857 126.07746 86.502788 126.77199 87.325936 127.24236 C 88.149084 127.70538 89.097174 127.93689 90.170207 127.93689 C 91.250588 127.93689 92.202181 127.69786 93.02533 127.22014 C 93.855827 126.73507 94.502759 126.03354 94.96578 125.11484 C 95.4288 124.1888 95.660311 123.08236 95.660311 121.79618 C 95.660311 120.50266 95.4288 119.40023 94.96578 118.48889 C 94.510108 117.5702 93.870698 116.87567 93.04755 116.4053 C 92.224402 115.93493 91.265288 115.69991 90.170207 115.69991 z M 115.3387 115.69991 C 114.70664 115.69991 114.16645 115.85426 113.71812 116.16294 C 113.2698 116.47162 112.82883 116.99326 112.39521 117.72821 L 112.39521 115.9645 L 110.54312 115.9645 L 110.54312 127.66146 L 112.5275 127.66146 L 112.5275 121.42153 C 112.5275 120.2603 112.74798 119.35631 113.18896 118.70955 C 113.63728 118.05544 114.28421 117.72821 115.12941 117.72821 C 115.66592 117.72821 116.14697 117.84247 116.57325 118.07031 L 117.25693 116.23993 C 116.94089 116.04885 116.62871 115.91305 116.32003 115.83221 C 116.0187 115.74401 115.69147 115.69991 115.3387 115.69991 z M 137.70787 115.69991 C 136.62014 115.69991 135.66103 115.94245 134.83053 116.42752 C 134.00738 116.91259 133.36797 117.61464 132.9123 118.53333 C 132.45663 119.45203 132.22862 120.54694 132.22862 121.8184 C 132.22862 123.12662 132.46013 124.24008 132.92315 125.15877 C 133.39353 126.07746 134.04046 126.77199 134.8636 127.24236 C 135.68676 127.70538 136.63484 127.93689 137.70787 127.93689 C 138.78825 127.93689 139.73984 127.69786 140.563 127.22014 C 141.39349 126.73507 142.04042 126.03354 142.50345 125.11484 C 142.96647 124.1888 143.19798 123.08236 143.19798 121.79618 C 143.19798 120.50266 142.96647 119.40023 142.50345 118.48889 C 142.04777 117.5702 141.40836 116.87567 140.58522 116.4053 C 139.76206 115.93493 138.80295 115.69991 137.70787 115.69991 z M 162.87636 115.69991 C 162.2443 115.69991 161.70411 115.85426 161.25579 116.16294 C 160.80747 116.47162 160.3665 116.99326 159.93287 117.72821 L 159.93287 115.9645 L 158.08079 115.9645 L 158.08079 127.66146 L 160.06517 127.66146 L 160.06517 121.42153 C 160.06517 120.2603 160.28565 119.35631 160.72662 118.70955 C 161.17495 118.05544 161.82136 117.72821 162.66656 117.72821 C 163.20308 117.72821 163.68464 117.84247 164.11091 118.07031 L 164.79459 116.23993 C 164.47856 116.04885 164.16586 115.91305 163.85718 115.83221 C 163.55585 115.74401 163.22914 115.69991 162.87636 115.69991 z M 97.942342 115.9645 L 97.942342 123.87978 C 97.942342 125.18064 98.284095 126.18385 98.967603 126.88941 C 99.658458 127.58762 100.68372 127.93689 102.04338 127.93689 C 102.79304 127.93689 103.46902 127.77503 104.07168 127.45165 C 104.6817 127.12827 105.19633 126.65824 105.61526 126.04089 L 105.61526 127.66146 L 107.46734 127.66146 L 107.46734 115.9645 L 105.48297 115.9645 L 105.48297 122.49071 C 105.48297 123.38735 105.37272 124.0859 105.15224 124.58568 C 104.93175 125.08544 104.57547 125.48232 104.08305 125.7763 C 103.59798 126.07029 103.02822 126.2171 102.37411 126.2171 C 101.58771 126.2171 100.98138 125.99662 100.5551 125.55564 C 100.13618 125.11467 99.926717 124.46774 99.926717 123.61519 L 99.926717 115.9645 L 97.942342 115.9645 z M 145.48001 115.9645 L 145.48001 123.87978 C 145.48001 125.18064 145.82176 126.18385 146.50527 126.88941 C 147.19613 127.58762 148.22139 127.93689 149.58105 127.93689 C 150.3307 127.93689 151.00669 127.77503 151.60935 127.45165 C 152.21936 127.12827 152.734 126.65824 153.15293 126.04089 L 153.15293 127.66146 L 155.00501 127.66146 L 155.00501 115.9645 L 153.02063 115.9645 L 153.02063 122.49071 C 153.02063 123.38735 152.91039 124.0859 152.6899 124.58568 C 152.46943 125.08544 152.11262 125.48232 151.6202 125.7763 C 151.13513 126.07029 150.56589 126.2171 149.91178 126.2171 C 149.12538 126.2171 148.51905 125.99662 148.09277 125.55564 C 147.67385 125.11467 147.46438 124.46774 147.46438 123.61519 L 147.46438 115.9645 L 145.48001 115.9645 z M 38.572839 117.06056 C 39.256346 117.06056 39.858663 117.23292 40.380481 117.57835 C 40.902298 117.91643 41.310197 118.42004 41.604179 119.08885 C 41.898161 119.75766 42.045496 120.56996 42.045496 121.5254 C 42.045496 122.47349 41.90218 123.28527 41.615548 123.96143 C 41.336265 124.63759 40.935371 125.15222 40.413554 125.505 C 39.891736 125.85778 39.281897 126.03417 38.583691 126.03417 C 37.907534 126.03417 37.308719 125.8653 36.786902 125.52722 C 36.272434 125.18179 35.868037 124.67467 35.574056 124.00587 C 35.280074 123.32971 35.133256 122.50989 35.133256 121.5471 C 35.133256 120.58431 35.280074 119.76851 35.574056 119.09971 C 35.875387 118.42355 36.283286 117.91643 36.797754 117.57835 C 37.319571 117.23292 37.911381 117.06056 38.572839 117.06056 z M 90.159355 117.33134 C 90.842861 117.33134 91.445179 117.50423 91.966996 117.84965 C 92.488813 118.18773 92.896712 118.69135 93.190694 119.36016 C 93.484675 120.02896 93.632011 120.84074 93.632011 121.79618 C 93.632011 122.74428 93.488695 123.55657 93.202063 124.23273 C 92.922781 124.90889 92.521887 125.42353 92.000069 125.7763 C 91.478252 126.12908 90.868413 126.30547 90.170207 126.30547 C 89.494049 126.30547 88.895235 126.13609 88.373417 125.79801 C 87.85895 125.45258 87.454553 124.94546 87.160571 124.27665 C 86.86659 123.60049 86.719771 122.7812 86.719771 121.8184 C 86.719771 120.85562 86.86659 120.03982 87.160571 119.37101 C 87.461902 118.69486 87.869801 118.18773 88.384269 117.84965 C 88.906086 117.50423 89.497896 117.33134 90.159355 117.33134 z M 137.6965 117.33134 C 138.38002 117.33134 138.98285 117.50423 139.50466 117.84965 C 140.02648 118.18773 140.43438 118.69135 140.72836 119.36016 C 141.02234 120.02896 141.16916 120.84074 141.16916 121.79618 C 141.16916 122.74428 141.02584 123.55657 140.73921 124.23273 C 140.45993 124.90889 140.05956 125.42353 139.53774 125.7763 C 139.01592 126.12908 138.40608 126.30547 137.70787 126.30547 C 137.03171 126.30547 136.43239 126.13609 135.91057 125.79801 C 135.3961 125.45258 134.99222 124.94546 134.69824 124.27665 C 134.40426 123.60049 134.25692 122.7812 134.25692 121.8184 C 134.25692 120.85562 134.40426 120.03982 134.69824 119.37101 C 134.99957 118.69486 135.40747 118.18773 135.92194 117.84965 C 136.44376 117.50423 137.03505 117.33134 137.6965 117.33134 z " />
    <text
       xml:space="preserve"
       transform="scale(0.26458333)"
       id="text2262"
       style="fill:#000000;font-size:85.33333333px;-inkscape-font-specification:'Arial Nova, Normal';font-family:'Arial Nova';font-weight:normal;font-style:normal;font-stretch:normal;font-variant:normal;font-variant-ligatures:normal;font-variant-caps:normal;font-variant-numeric:normal;font-variant-east-asian:normal;white-space:pre;shape-inside:url(#rect2264)" />
  </g>
</svg>
