<?xml version="1.0" encoding="UTF-8" standalone="no"?>
<!-- Created with Inkscape (http://www.inkscape.org/) -->

<svg
   width="720"
   height="720"
   viewBox="0 0 190.5 190.5"
   version="1.1"
   id="svg5"
   sodipodi:docname="9zero.svg"
   inkscape:version="1.2.1 (9c6d41e410, 2022-07-14)"
   xmlns:inkscape="http://www.inkscape.org/namespaces/inkscape"
   xmlns:sodipodi="http://sodipodi.sourceforge.net/DTD/sodipodi-0.dtd"
   xmlns="http://www.w3.org/2000/svg"
   xmlns:svg="http://www.w3.org/2000/svg">
  <sodipodi:namedview
     id="namedview7"
     pagecolor="#ffffff"
     bordercolor="#000000"
     borderopacity="0.25"
     inkscape:showpageshadow="2"
     inkscape:pageopacity="0.0"
     inkscape:pagecheckerboard="0"
     inkscape:deskcolor="#d1d1d1"
     inkscape:document-units="mm"
     showgrid="true"
     inkscape:zoom="1.0255231"
     inkscape:cx="342.75192"
     inkscape:cy="395.89553"
     inkscape:window-width="1520"
     inkscape:window-height="1030"
     inkscape:window-x="10"
     inkscape:window-y="1"
     inkscape:window-maximized="0"
     inkscape:current-layer="layer1">
    <inkscape:grid
       type="xygrid"
       id="grid9"
       spacingx="19.05"
       spacingy="19.05" />
  </sodipodi:namedview>
  <defs
     id="defs2">
    <rect
       x="67.282738"
       y="190.14687"
       width="570.4406"
       height="346.16481"
       id="rect2264" />
  </defs>
  <g
     inkscape:label="Ebene 1"
     inkscape:groupmode="layer"
     id="layer1">
    <path
       id="path2533"
       style="font-size:22.5778px;font-family:'Arial Nova';-inkscape-font-specification:'Arial Nova';stroke-width:0.264583"
       d="M 41.09775 65.259066 C 39.98062 65.259066 39.006462 65.512625 38.175964 66.019743 C 37.352816 66.526861 36.720928 67.24746 36.279956 68.180851 C 35.838984 69.114242 35.618498 70.209151 35.618498 71.465922 C 35.618498 72.685945 35.842486 73.7518 36.290808 74.663143 C 36.73913 75.567136 37.375037 76.265169 38.198185 76.757589 C 39.028683 77.250008 40.002324 77.496045 41.119454 77.496045 C 42.390924 77.496045 43.478828 77.169335 44.382821 76.515226 C 45.294163 75.853768 45.915026 74.931229 46.245756 73.747953 L 44.305823 73.450297 C 44.092686 74.177901 43.710338 74.762189 43.159123 75.203162 C 42.615257 75.644134 41.968326 75.86462 41.218673 75.86462 C 40.535166 75.86462 39.932849 75.710279 39.411031 75.401599 C 38.896564 75.085569 38.488664 74.63007 38.187333 74.034757 C 37.886005 73.432095 37.713119 72.711496 37.669019 71.873649 L 46.422489 71.873649 L 46.422489 71.465922 C 46.422489 70.157704 46.205506 69.036728 45.771883 68.103337 C 45.33826 67.169946 44.720899 66.46439 43.9198 65.98667 C 43.1187 65.5016 42.178131 65.259066 41.09775 65.259066 z M 53.521798 65.259066 C 52.889738 65.259066 52.349546 65.413406 51.901225 65.722087 C 51.452903 66.030767 51.01193 66.552929 50.578308 67.287882 L 50.578308 65.523649 L 48.726225 65.523649 L 48.726225 77.22061 L 50.7106 77.22061 L 50.7106 70.98068 C 50.7106 69.819453 50.931086 68.915461 51.372058 68.268701 C 51.82038 67.614592 52.467312 67.287882 53.312508 67.287882 C 53.849024 67.287882 54.330591 67.401628 54.756864 67.629464 L 55.440027 65.799601 C 55.123997 65.608513 54.811814 65.472202 54.503133 65.391357 C 54.201802 65.303163 53.874575 65.259066 53.521798 65.259066 z M 61.393152 65.259066 C 60.30542 65.259066 59.346306 65.5016 58.515808 65.98667 C 57.69266 66.471739 57.05325 67.173792 56.597579 68.092485 C 56.141907 69.011176 55.914417 70.106085 55.914417 71.377555 C 55.914417 72.685773 56.145927 73.799228 56.608948 74.71792 C 57.079318 75.636612 57.725733 76.331143 58.548881 76.801514 C 59.372029 77.264535 60.320119 77.496045 61.393152 77.496045 C 62.473533 77.496045 63.425643 77.25753 64.248792 76.77981 C 65.079289 76.29474 65.725704 75.592687 66.188725 74.673995 C 66.651746 73.747953 66.883256 72.642021 66.883256 71.355851 C 66.883256 70.062333 66.651746 68.959903 66.188725 68.04856 C 65.733054 67.129868 65.093644 66.435337 64.270496 65.964966 C 63.447348 65.494596 62.488233 65.259066 61.393152 65.259066 z M 25.233602 65.523649 L 25.233602 67.155591 L 31.396016 67.155591 L 24.8698 75.622257 L 24.8698 77.22061 L 34.372579 77.22061 L 34.372579 75.500818 L 27.394194 75.500818 L 34.107996 66.813493 L 34.107996 65.523649 L 25.233602 65.523649 z M 92.684265 65.530367 C 91.567136 65.530367 90.592977 65.783926 89.76248 66.291044 C 88.939332 66.798162 88.307444 67.518245 87.866471 68.451636 C 87.425499 69.385027 87.205013 70.480453 87.205013 71.737223 C 87.205013 72.957247 87.429002 74.022585 87.877323 74.933927 C 88.325645 75.837921 88.961552 76.536471 89.784701 77.02889 C 90.615198 77.521309 91.58884 77.767346 92.705969 77.767346 C 93.977439 77.767346 95.065344 77.44012 95.969336 76.786011 C 96.880679 76.124553 97.501542 75.20253 97.832271 74.019255 L 95.892338 73.721598 C 95.679202 74.449203 95.296853 75.033491 94.745638 75.474463 C 94.201773 75.915435 93.554841 76.135921 92.805188 76.135921 C 92.121681 76.135921 91.519363 75.981581 90.997546 75.6729 C 90.483078 75.356871 90.07518 74.900855 89.773848 74.305542 C 89.472514 73.70288 89.299627 72.982798 89.255534 72.14495 L 98.009005 72.14495 L 98.009005 71.737223 C 98.009005 70.429006 97.792021 69.308029 97.358398 68.374638 C 96.924776 67.441246 96.307415 66.735691 95.506315 66.257971 C 94.705216 65.772902 93.764647 65.530367 92.684265 65.530367 z M 105.10831 65.530367 C 104.47625 65.530367 103.93606 65.684708 103.48774 65.993388 C 103.03942 66.302069 102.59845 66.823714 102.16482 67.558667 L 102.16482 65.79495 L 100.31274 65.79495 L 100.31274 77.491911 L 102.29712 77.491911 L 102.29712 71.251982 C 102.29712 70.090755 102.5176 69.186762 102.95857 68.540002 C 103.4069 67.885894 104.05383 67.558667 104.89902 67.558667 C 105.43554 67.558667 105.91711 67.672929 106.34338 67.900765 L 107.02654 66.070386 C 106.71051 65.879297 106.39833 65.743503 106.08965 65.662659 C 105.78832 65.574464 105.46109 65.530367 105.10831 65.530367 z M 112.97967 65.530367 C 111.89193 65.530367 110.93282 65.772902 110.10232 66.257971 C 109.27918 66.743041 108.63977 67.445094 108.18409 68.363786 C 107.72842 69.282478 107.50093 70.377387 107.50093 71.648857 C 107.50093 72.957074 107.73244 74.070529 108.19546 74.989221 C 108.66583 75.907913 109.31224 76.602444 110.1354 77.072815 C 110.95854 77.535836 111.90663 77.767346 112.97967 77.767346 C 114.06005 77.767346 115.01215 77.528314 115.83531 77.050594 C 116.6658 76.565525 117.31221 75.863988 117.77524 74.945296 C 118.23826 74.019254 118.46977 72.912805 118.46977 71.626636 C 118.46977 70.333117 118.23826 69.230686 117.77524 68.319344 C 117.31957 67.400652 116.68016 66.706121 115.85701 66.23575 C 115.03386 65.76538 114.07475 65.530367 112.97967 65.530367 z M 140.22142 65.530367 C 139.10429 65.530367 138.13065 65.783926 137.30015 66.291044 C 136.477 66.798162 135.84511 67.518245 135.40414 68.451636 C 134.96317 69.385027 134.74268 70.480453 134.74268 71.737223 C 134.74268 72.957247 134.96667 74.022585 135.41499 74.933927 C 135.86332 75.837921 136.49922 76.536471 137.32237 77.02889 C 138.15287 77.521309 139.12651 77.767346 140.24364 77.767346 C 141.51511 77.767346 142.60301 77.44012 143.507 76.786011 C 144.41835 76.124553 145.03921 75.20253 145.36994 74.019255 L 143.42949 73.721598 C 143.21635 74.449203 142.83452 75.033491 142.2833 75.474463 C 141.73944 75.915435 141.09251 76.135921 140.34285 76.135921 C 139.65935 76.135921 139.05652 75.981581 138.5347 75.6729 C 138.02023 75.356871 137.61233 74.900855 137.311 74.305542 C 137.00964 73.70288 136.83727 72.982798 136.7932 72.14495 L 145.54615 72.14495 L 145.54615 71.737223 C 145.54615 70.429006 145.32969 69.308029 144.89607 68.374638 C 144.46245 67.441246 143.84508 66.735691 143.04398 66.257971 C 142.24288 65.772902 141.3018 65.530367 140.22142 65.530367 z M 152.64598 65.530367 C 152.01392 65.530367 151.47373 65.684708 151.02541 65.993388 C 150.57709 66.302069 150.13611 66.823714 149.70249 67.558667 L 149.70249 65.79495 L 147.85041 65.79495 L 147.85041 77.491911 L 149.83478 77.491911 L 149.83478 71.251982 C 149.83478 70.090755 150.05527 69.186762 150.49624 68.540002 C 150.94456 67.885894 151.59149 67.558667 152.43669 67.558667 C 152.9732 67.558667 153.45426 67.672929 153.88053 67.900765 L 154.56421 66.070386 C 154.24818 65.879297 153.93599 65.743503 153.62732 65.662659 C 153.32599 65.574464 152.99876 65.530367 152.64598 65.530367 z M 160.51733 65.530367 C 159.4296 65.530367 158.47048 65.772902 157.63999 66.257971 C 156.81684 66.743041 156.17743 67.445094 155.72176 68.363786 C 155.26609 69.282478 155.03808 70.377387 155.03808 71.648857 C 155.03808 72.957074 155.26959 74.070529 155.73261 74.989221 C 156.20298 75.907913 156.84991 76.602444 157.67306 77.072815 C 158.49621 77.535836 159.4443 77.767346 160.51733 77.767346 C 161.59772 77.767346 162.54931 77.528314 163.37246 77.050594 C 164.20296 76.565525 164.84989 75.863988 165.31291 74.945296 C 165.77593 74.019254 166.00744 72.912805 166.00744 71.626636 C 166.00744 70.333117 165.77593 69.230686 165.31291 68.319344 C 164.85723 67.400652 164.21782 66.706121 163.39468 66.23575 C 162.57153 65.76538 161.61242 65.530367 160.51733 65.530367 z M 76.820117 65.79495 L 76.820117 67.426375 L 82.982532 67.426375 L 76.456315 75.893042 L 76.456315 77.491911 L 85.959094 77.491911 L 85.959094 75.772119 L 78.980709 75.772119 L 85.694511 67.084794 L 85.694511 65.79495 L 76.820117 65.79495 z M 124.35778 65.79495 L 124.35778 67.426375 L 130.5202 67.426375 L 123.99398 75.893042 L 123.99398 77.491911 L 133.49676 77.491911 L 133.49676 75.772119 L 126.51838 75.772119 L 133.23218 67.084794 L 133.23218 65.79495 L 124.35778 65.79495 z M 41.075529 66.879639 C 42.001571 66.879639 42.743702 67.17029 43.302266 67.750903 C 43.868181 68.331517 44.209934 69.161843 44.327527 70.242224 L 37.735164 70.242224 C 37.823359 69.573417 38.018294 68.985626 38.319625 68.478507 C 38.628305 67.971389 39.017658 67.578017 39.488029 67.298735 C 39.958399 67.019452 40.487566 66.879639 41.075529 66.879639 z M 61.3823 66.891007 C 62.065807 66.891007 62.668641 67.063377 63.190458 67.408805 C 63.712276 67.746884 64.120175 68.2505 64.414156 68.919307 C 64.708138 69.588115 64.854956 70.400412 64.854956 71.355851 C 64.854956 72.303942 64.71164 73.115721 64.425008 73.791878 C 64.145726 74.468036 63.745349 74.982676 63.223531 75.335453 C 62.701714 75.688231 62.091358 75.86462 61.393152 75.86462 C 60.716994 75.86462 60.118179 75.695753 59.596362 75.357674 C 59.081895 75.012246 58.677498 74.505127 58.383516 73.83632 C 58.089535 73.160163 57.942716 72.340345 57.942716 71.377555 C 57.942716 70.414766 58.089535 69.598968 58.383516 68.93016 C 58.684847 68.254002 59.092747 67.746884 59.607214 67.408805 C 60.129032 67.063377 60.720842 66.891007 61.3823 66.891007 z M 92.662044 67.15094 C 93.588086 67.15094 94.330217 67.441074 94.888782 68.021688 C 95.454697 68.602301 95.79645 69.433144 95.914042 70.513525 L 89.32168 70.513525 C 89.409874 69.844717 89.604809 69.256409 89.90614 68.749292 C 90.214821 68.242174 90.604174 67.849318 91.074544 67.570036 C 91.544914 67.290753 92.074082 67.15094 92.662044 67.15094 z M 140.19971 67.15094 C 141.12575 67.15094 141.86788 67.441074 142.42645 68.021688 C 142.99236 68.602301 143.33412 69.433144 143.45171 70.513525 L 136.85935 70.513525 C 136.94754 69.844717 137.14196 69.256409 137.44329 68.749292 C 137.75197 68.242174 138.14184 67.849318 138.61221 67.570036 C 139.08258 67.290753 139.61175 67.15094 140.19971 67.15094 z M 112.96882 67.161792 C 113.65233 67.161792 114.25516 67.334678 114.77697 67.680107 C 115.29879 68.018185 115.70669 68.521801 116.00067 69.190609 C 116.29465 69.859417 116.44147 70.671196 116.44147 71.626636 C 116.44147 72.574726 116.29815 73.387022 116.01152 74.06318 C 115.73224 74.739337 115.33186 75.253976 114.81005 75.606755 C 114.28823 75.959532 113.67787 76.135921 112.97967 76.135921 C 112.30351 76.135921 111.70469 75.966538 111.18288 75.628459 C 110.6684 75.28303 110.26401 74.775912 109.97003 74.107104 C 109.67605 73.430947 109.52923 72.611646 109.52923 71.648857 C 109.52923 70.686067 109.67605 69.870269 109.97003 69.201461 C 110.27136 68.525303 110.67926 68.018185 111.19373 67.680107 C 111.71555 67.334678 112.30736 67.161792 112.96882 67.161792 z M 160.50648 67.161792 C 161.18999 67.161792 161.7923 67.334678 162.31412 67.680107 C 162.83594 68.018185 163.24384 68.521801 163.53782 69.190609 C 163.83181 69.859417 163.97914 70.671196 163.97914 71.626636 C 163.97914 72.574726 163.83582 73.387022 163.54919 74.06318 C 163.26991 74.739337 162.86902 75.253976 162.3472 75.606755 C 161.82538 75.959532 161.21554 76.135921 160.51733 76.135921 C 159.84117 76.135921 159.24236 75.966538 158.72054 75.628459 C 158.20608 75.28303 157.80168 74.775912 157.5077 74.107104 C 157.21372 73.430947 157.0669 72.611646 157.0669 71.648857 C 157.0669 70.686067 157.21372 69.870269 157.5077 69.201461 C 157.80903 68.525303 158.21693 68.018185 158.7314 67.680107 C 159.25322 67.334678 159.84502 67.161792 160.50648 67.161792 z M 40.67297 89.812606 C 39.55584 89.812606 38.582199 90.066165 37.751701 90.573283 C 36.928552 91.0804 36.296148 91.800483 35.855176 92.733875 C 35.414204 93.667266 35.193717 94.762691 35.193717 96.019462 C 35.193717 97.239486 35.418222 98.304824 35.866545 99.216166 C 36.314866 100.12016 36.950257 100.81871 37.773405 101.31113 C 38.603903 101.80355 39.578061 102.04958 40.69519 102.04958 C 41.96666 102.04958 43.054047 101.72236 43.95804 101.06825 C 44.869383 100.40679 45.490763 99.484769 45.821493 98.301493 L 43.881042 98.003837 C 43.667906 98.731441 43.285558 99.315729 42.734342 99.756702 C 42.190477 100.19767 41.544062 100.41816 40.794409 100.41816 C 40.110903 100.41816 39.508068 100.26382 38.986251 99.955139 C 38.471783 99.639109 38.063884 99.183093 37.762553 98.587781 C 37.461225 97.985119 37.288338 97.265036 37.244238 96.427189 L 45.997709 96.427189 L 45.997709 96.019462 C 45.997709 94.711245 45.780726 93.590268 45.347103 92.656877 C 44.91348 91.723486 44.296119 91.017929 43.49502 90.54021 C 42.69392 90.05514 41.753351 89.812606 40.67297 89.812606 z M 53.097534 89.812606 C 52.465474 89.812606 51.925283 89.966946 51.476961 90.275627 C 51.02864 90.584307 50.587667 91.105952 50.154045 91.840906 L 50.154045 90.077189 L 48.301961 90.077189 L 48.301961 101.77415 L 50.286336 101.77415 L 50.286336 95.53422 C 50.286336 94.372994 50.506822 93.469001 50.947795 92.822241 C 51.396117 92.168133 52.042531 91.840906 52.887728 91.840906 C 53.424244 91.840906 53.905811 91.955168 54.332084 92.183004 L 55.015763 90.352625 C 54.699734 90.161537 54.387034 90.025742 54.078353 89.944897 C 53.777022 89.856703 53.450312 89.812606 53.097534 89.812606 z M 60.968888 89.812606 C 59.881157 89.812606 58.922042 90.05514 58.091545 90.54021 C 57.268396 91.025279 56.628986 91.727333 56.173315 92.646025 C 55.717644 93.564717 55.489636 94.659625 55.489636 95.931095 C 55.489636 97.239313 55.721147 98.352768 56.184167 99.27146 C 56.654538 100.19015 57.301469 100.88468 58.124618 101.35505 C 58.947765 101.81807 59.895855 102.04958 60.968888 102.04958 C 62.04927 102.04958 63.000863 101.81055 63.824011 101.33283 C 64.654508 100.84777 65.30144 100.14623 65.764461 99.227535 C 66.227482 98.301493 66.458993 97.195043 66.458993 95.908875 C 66.458993 94.615356 66.227482 93.512925 65.764461 92.601583 C 65.30879 91.68289 64.669381 90.988359 63.846232 90.517989 C 63.023084 90.047619 62.063969 89.812606 60.968888 89.812606 z M 24.808822 90.077189 L 24.808822 91.708614 L 30.971753 91.708614 L 24.44502 100.17528 L 24.44502 101.77415 L 33.948315 101.77415 L 33.948315 100.05436 L 26.96993 100.05436 L 33.683732 91.367033 L 33.683732 90.077189 L 24.808822 90.077189 z M 92.259485 90.083907 C 91.142355 90.083907 90.168713 90.337466 89.338216 90.844584 C 88.515068 91.351702 87.882663 92.071785 87.441691 93.005176 C 87.000719 93.938568 86.780233 95.033476 86.780233 96.290247 C 86.780233 97.510269 87.004738 98.576124 87.45306 99.487467 C 87.901382 100.39146 88.536772 101.08949 89.35992 101.58191 C 90.190418 102.07433 91.164576 102.32089 92.281706 102.32089 C 93.553176 102.32089 94.640563 101.99366 95.544556 101.33955 C 96.455898 100.67809 97.077279 99.755555 97.408008 98.572278 L 95.467558 98.274622 C 95.254421 99.002226 94.872073 99.586515 94.320858 100.02749 C 93.776992 100.46846 93.130577 100.68894 92.380924 100.68894 C 91.697418 100.68894 91.094584 100.5346 90.572766 100.22592 C 90.058299 99.909893 89.650399 99.454394 89.349068 98.859082 C 89.04774 98.25642 88.874854 97.536338 88.830754 96.69849 L 97.584224 96.69849 L 97.584224 96.290247 C 97.584224 94.982029 97.367241 93.861569 96.933618 92.928178 C 96.499995 91.994787 95.882634 91.289231 95.081535 90.811511 C 94.280435 90.326442 93.339866 90.083907 92.259485 90.083907 z M 104.68405 90.083907 C 104.05199 90.083907 103.5118 90.238247 103.06348 90.546928 C 102.61516 90.855608 102.17419 91.377253 101.74056 92.112207 L 101.74056 90.34849 L 99.888477 90.34849 L 99.888477 102.04493 L 101.87285 102.04493 L 101.87285 95.805522 C 101.87285 94.644295 102.09334 93.740302 102.53431 93.093542 C 102.98264 92.439434 103.62905 92.112207 104.47424 92.112207 C 105.01076 92.112207 105.49233 92.225953 105.9186 92.453788 L 106.60228 90.623926 C 106.28625 90.432838 105.97355 90.297044 105.66487 90.216199 C 105.36354 90.128004 105.03683 90.083907 104.68405 90.083907 z M 112.5554 90.083907 C 111.46767 90.083907 110.50856 90.326442 109.67806 90.811511 C 108.85491 91.296581 108.2155 91.998117 107.75983 92.916809 C 107.30416 93.835501 107.07615 94.930927 107.07615 96.202397 C 107.07615 97.510615 107.30766 98.624069 107.77068 99.542761 C 108.24106 100.46145 108.88799 101.15598 109.71113 101.62635 C 110.53429 102.08937 111.48237 102.32089 112.5554 102.32089 C 113.63578 102.32089 114.58737 102.08185 115.41053 101.60413 C 116.24102 101.11906 116.88795 100.41701 117.35098 99.498319 C 117.814 98.572278 118.04551 97.466344 118.04551 96.180176 C 118.04551 94.886657 117.814 93.784227 117.35098 92.872884 C 116.8953 91.954192 116.25589 91.259661 115.43275 90.78929 C 114.60959 90.31892 113.65048 90.083907 112.5554 90.083907 z M 139.79715 90.083907 C 138.68002 90.083907 137.70586 90.337466 136.87537 90.844584 C 136.05221 91.351702 135.42033 92.071785 134.97936 93.005176 C 134.53839 93.938568 134.3179 95.033476 134.3179 96.290247 C 134.3179 97.510269 134.54188 98.576124 134.99021 99.487467 C 135.43853 100.39146 136.07443 101.08949 136.89759 101.58191 C 137.72808 102.07433 138.70172 102.32089 139.81886 102.32089 C 141.09033 102.32089 142.17823 101.99366 143.08222 101.33955 C 143.99356 100.67809 144.61442 99.755555 144.94516 98.572278 L 143.00522 98.274622 C 142.79208 99.002226 142.40974 99.586515 141.85852 100.02749 C 141.31466 100.46846 140.66773 100.68894 139.91807 100.68894 C 139.23457 100.68894 138.63225 100.5346 138.11043 100.22592 C 137.59597 99.909893 137.18807 99.454394 136.88674 98.859082 C 136.58538 98.25642 136.41249 97.536338 136.36842 96.69849 L 145.12189 96.69849 L 145.12189 96.290247 C 145.12189 94.982029 144.90491 93.861569 144.47128 92.928178 C 144.03767 91.994787 143.4203 91.289231 142.6192 90.811511 C 141.8181 90.326442 140.87753 90.083907 139.79715 90.083907 z M 152.2212 90.083907 C 151.58914 90.083907 151.04895 90.238247 150.60063 90.546928 C 150.15231 90.855608 149.71134 91.377253 149.27771 92.112207 L 149.27771 90.34849 L 147.42563 90.34849 L 147.42563 102.04493 L 149.41 102.04493 L 149.41 95.805522 C 149.41 94.644295 149.63049 93.740302 150.07146 93.093542 C 150.51979 92.439434 151.16672 92.112207 152.01191 92.112207 C 152.54843 92.112207 153.02999 92.225953 153.45627 92.453788 L 154.13943 90.623926 C 153.8234 90.432838 153.51121 90.297044 153.20253 90.216199 C 152.9012 90.128004 152.57398 90.083907 152.2212 90.083907 z M 160.09255 90.083907 C 159.00482 90.083907 158.04571 90.326442 157.21521 90.811511 C 156.39206 91.296581 155.75265 91.998117 155.29698 92.916809 C 154.84131 93.835501 154.61382 94.930927 154.61382 96.202397 C 154.61382 97.510615 154.84533 98.624069 155.30835 99.542761 C 155.77872 100.46145 156.42514 101.15598 157.24828 101.62635 C 158.07144 102.08937 159.01952 102.32089 160.09255 102.32089 C 161.17293 102.32089 162.12504 102.08185 162.94819 101.60413 C 163.77869 101.11906 164.4251 100.41701 164.88813 99.498319 C 165.35115 98.572278 165.58266 97.466344 165.58266 96.180176 C 165.58266 94.886657 165.35115 93.784227 164.88813 92.872884 C 164.43245 91.954192 163.79305 91.259661 162.9699 90.78929 C 162.14675 90.31892 161.18763 90.083907 160.09255 90.083907 z M 76.395337 90.34849 L 76.395337 91.979915 L 82.558268 91.979915 L 76.031535 100.44658 L 76.031535 102.04493 L 85.534831 102.04493 L 85.534831 100.32514 L 78.556445 100.32514 L 85.270247 91.638334 L 85.270247 90.34849 L 76.395337 90.34849 z M 123.933 90.34849 L 123.933 91.979915 L 130.09542 91.979915 L 123.5692 100.44658 L 123.5692 102.04493 L 133.07198 102.04493 L 133.07198 100.32514 L 126.0936 100.32514 L 132.8074 91.638334 L 132.8074 90.34849 L 123.933 90.34849 z M 40.650749 91.433179 C 41.57679 91.433179 42.319438 91.723313 42.878003 92.303927 C 43.443917 92.88454 43.78567 93.715382 43.903263 94.795764 L 37.310384 94.795764 C 37.398579 94.126956 37.593514 93.538649 37.894845 93.031531 C 38.203525 92.524413 38.592879 92.131557 39.063249 91.852275 C 39.53362 91.572992 40.062786 91.433179 40.650749 91.433179 z M 60.95752 91.444031 C 61.641027 91.444031 62.243861 91.616918 62.765678 91.962345 C 63.287495 92.300424 63.695395 92.804039 63.989376 93.472847 C 64.283358 94.141655 64.430176 94.953435 64.430176 95.908875 C 64.430176 96.856965 64.28686 97.669261 64.000228 98.345418 C 63.720945 99.021576 63.320568 99.536216 62.798751 99.888993 C 62.276934 100.24177 61.667094 100.41816 60.968888 100.41816 C 60.29273 100.41816 59.693399 100.24877 59.171582 99.910697 C 58.657115 99.565269 58.253235 99.058151 57.959253 98.389343 C 57.665271 97.713186 57.517936 96.893884 57.517936 95.931095 C 57.517936 94.968306 57.665271 94.152508 57.959253 93.4837 C 58.260584 92.807542 58.668483 92.300424 59.182951 91.962345 C 59.704768 91.616918 60.296062 91.444031 60.95752 91.444031 z M 92.237264 91.70448 C 93.163306 91.70448 93.905953 91.994614 94.464518 92.575228 C 95.030432 93.155841 95.372186 93.986166 95.489779 95.066549 L 88.896899 95.066549 C 88.985094 94.397741 89.180029 93.80995 89.48136 93.302832 C 89.79004 92.795714 90.179394 92.402341 90.649764 92.123059 C 91.120135 91.843777 91.649301 91.70448 92.237264 91.70448 z M 139.77493 91.70448 C 140.70098 91.70448 141.44311 91.994614 142.00167 92.575228 C 142.56759 93.155841 142.90934 93.986166 143.02693 95.066549 L 136.43457 95.066549 C 136.52277 94.397741 136.7177 93.80995 137.01903 93.302832 C 137.32771 92.795714 137.71706 92.402341 138.18743 92.123059 C 138.6578 91.843777 139.18697 91.70448 139.77493 91.70448 z M 112.54403 91.715332 C 113.22755 91.715332 113.83038 91.888218 114.35219 92.233647 C 114.87401 92.571726 115.28191 93.074824 115.57589 93.743632 C 115.86987 94.412439 116.01669 95.224735 116.01669 96.180176 C 116.01669 97.128265 115.87337 97.940562 115.58674 98.61672 C 115.30746 99.292877 114.90709 99.807003 114.38527 100.15978 C 113.86345 100.51256 113.25361 100.68894 112.5554 100.68894 C 111.87924 100.68894 111.27992 100.52008 110.7581 100.182 C 110.24363 99.836572 109.83975 99.329453 109.54577 98.660645 C 109.25179 97.984487 109.10445 97.165186 109.10445 96.202397 C 109.10445 95.239608 109.25179 94.423809 109.54577 93.755001 C 109.8471 93.078843 110.255 92.571726 110.76947 92.233647 C 111.29129 91.888218 111.88258 91.715332 112.54403 91.715332 z M 160.0817 91.715332 C 160.76521 91.715332 161.36805 91.888218 161.88986 92.233647 C 162.41168 92.571726 162.81958 93.074824 163.11356 93.743632 C 163.40754 94.412439 163.55436 95.224735 163.55436 96.180176 C 163.55436 97.128265 163.41104 97.940562 163.12441 98.61672 C 162.84512 99.292877 162.44475 99.807003 161.92293 100.15978 C 161.40112 100.51256 160.79076 100.68894 160.09255 100.68894 C 159.41639 100.68894 158.81758 100.52008 158.29576 100.182 C 157.7813 99.836572 157.3769 99.329453 157.08292 98.660645 C 156.78894 97.984487 156.64212 97.165186 156.64212 96.202397 C 156.64212 95.239608 156.78894 94.423809 157.08292 93.755001 C 157.38425 93.078843 157.79215 92.571726 158.30662 92.233647 C 158.82844 91.888218 159.42025 91.715332 160.0817 91.715332 z M 40.821798 113.31195 C 39.704668 113.31195 38.73051 113.5655 37.900012 114.07262 C 37.076864 114.57974 36.444976 115.30035 36.004004 116.23373 C 35.563032 117.16712 35.342546 118.26203 35.342546 119.5188 C 35.342546 120.73883 35.566534 121.80468 36.014856 122.71602 C 36.463178 123.62002 37.099085 124.31805 37.922233 124.81047 C 38.752731 125.30289 39.726372 125.54893 40.843502 125.54893 C 42.114972 125.54893 43.202875 125.22221 44.106868 124.56811 C 45.018211 123.90665 45.639075 122.98411 45.969804 121.80083 L 44.029871 121.50318 C 43.816734 122.23078 43.434386 122.81507 42.883171 123.25604 C 42.339305 123.69702 41.692373 123.9175 40.942721 123.9175 C 40.259213 123.9175 39.656896 123.76316 39.135079 123.45448 C 38.620611 123.13845 38.212712 122.68295 37.911381 122.08764 C 37.610053 121.48497 37.437166 120.76438 37.393066 119.92653 L 46.146537 119.92653 L 46.146537 119.5188 C 46.146537 118.21058 45.929554 117.08961 45.495931 116.15622 C 45.062309 115.22283 44.444948 114.51727 43.643848 114.03955 C 42.842748 113.55448 41.90218 113.31195 40.821798 113.31195 z M 53.245846 113.31195 C 52.613786 113.31195 52.073594 113.46629 51.625273 113.77497 C 51.176951 114.08365 50.735979 114.60581 50.302356 115.34076 L 50.302356 113.57653 L 48.450273 113.57653 L 48.450273 125.27349 L 50.434648 125.27349 L 50.434648 119.03356 C 50.434648 117.87234 50.655134 116.96834 51.096106 116.32158 C 51.544428 115.66747 52.19136 115.34076 53.036556 115.34076 C 53.573073 115.34076 54.054639 115.4545 54.480912 115.68234 L 55.164075 113.85248 C 54.848044 113.6614 54.535861 113.52508 54.227181 113.44424 C 53.92585 113.35605 53.598624 113.31195 53.245846 113.31195 z M 61.1172 113.31195 C 60.029468 113.31195 59.070354 113.55448 58.239856 114.03955 C 57.416708 114.52462 56.777298 115.22667 56.321627 116.14537 C 55.865955 117.06406 55.638464 118.15896 55.638464 119.43044 C 55.638464 120.73865 55.869975 121.85211 56.332996 122.7708 C 56.803366 123.68949 57.449781 124.38402 58.272929 124.85439 C 59.096077 125.31741 60.044167 125.54893 61.1172 125.54893 C 62.197581 125.54893 63.149691 125.31041 63.972839 124.83269 C 64.803337 124.34762 65.449752 123.64557 65.912773 122.72688 C 66.375793 121.80083 66.607304 120.6949 66.607304 119.40873 C 66.607304 118.11521 66.375793 117.01279 65.912773 116.10144 C 65.457101 115.18275 64.817691 114.48821 63.994543 114.01785 C 63.171395 113.54747 62.212281 113.31195 61.1172 113.31195 z M 24.95765 113.57653 L 24.95765 115.20847 L 31.120064 115.20847 L 24.593848 123.67514 L 24.593848 125.27349 L 34.096627 125.27349 L 34.096627 123.5537 L 27.118241 123.5537 L 33.832043 114.86637 L 33.832043 113.57653 L 24.95765 113.57653 z M 92.408313 113.58325 C 91.291183 113.58325 90.317025 113.83681 89.486528 114.34392 C 88.66338 114.85104 88.031491 115.57112 87.590519 116.50452 C 87.149546 117.43791 86.929061 118.53333 86.929061 119.7901 C 86.929061 121.01013 87.153049 122.07547 87.601371 122.98681 C 88.049693 123.8908 88.6856 124.58935 89.508748 125.08177 C 90.339246 125.57419 91.312887 125.82023 92.430017 125.82023 C 93.701486 125.82023 94.789391 125.493 95.693384 124.83889 C 96.604727 124.17743 97.22559 123.25541 97.556319 122.07214 L 95.616386 121.77448 C 95.403249 122.50208 95.020901 123.08637 94.469686 123.52734 C 93.92582 123.96832 93.278889 124.1888 92.529236 124.1888 C 91.845729 124.1888 91.243412 124.03446 90.721594 123.72578 C 90.207127 123.40975 89.799227 122.95374 89.497896 122.35842 C 89.196568 121.75576 89.023682 121.03568 88.979582 120.19783 L 97.733053 120.19783 L 97.733053 119.7901 C 97.733053 118.48189 97.516069 117.36091 97.082446 116.42752 C 96.648824 115.49413 96.031463 114.78857 95.230363 114.31085 C 94.429263 113.82579 93.488695 113.58325 92.408313 113.58325 z M 104.83236 113.58325 C 104.2003 113.58325 103.66011 113.73759 103.21179 114.04627 C 102.76346 114.35495 102.32249 114.8766 101.88887 115.61155 L 101.88887 113.84783 L 100.03679 113.84783 L 100.03679 125.54479 L 102.02116 125.54479 L 102.02116 119.30486 C 102.02116 118.14364 102.24165 117.23964 102.68262 116.59288 C 103.13094 115.93877 103.77787 115.61155 104.62307 115.61155 C 105.15958 115.61155 105.64115 115.72581 106.06743 115.95365 L 106.75059 114.12327 C 106.43456 113.93218 106.12238 113.79639 105.8137 113.71554 C 105.51236 113.62735 105.18514 113.58325 104.83236 113.58325 z M 112.70372 113.58325 C 111.61599 113.58325 110.65687 113.82579 109.82637 114.31085 C 109.00322 114.79592 108.36381 115.49797 107.90814 116.41667 C 107.45247 117.33536 107.22498 118.43027 107.22498 119.70174 C 107.22498 121.00996 107.45649 122.12341 107.91951 123.0421 C 108.38988 123.96079 109.0363 124.65532 109.85944 125.1257 C 110.68259 125.58872 111.63068 125.82023 112.70372 125.82023 C 113.7841 125.82023 114.73621 125.58119 115.55935 125.10347 C 116.38985 124.6184 117.03627 123.91687 117.49929 122.99818 C 117.96231 122.07214 118.19382 120.96568 118.19382 119.67952 C 118.19382 118.386 117.96231 117.28357 117.49929 116.37222 C 117.04362 115.45353 116.4042 114.759 115.58106 114.28863 C 114.75791 113.81826 113.7988 113.58325 112.70372 113.58325 z M 139.94546 113.58325 C 138.82834 113.58325 137.85469 113.83681 137.02419 114.34392 C 136.20105 114.85104 135.56916 115.57112 135.12819 116.50452 C 134.68721 117.43791 134.46673 118.53333 134.46673 119.7901 C 134.46673 121.01013 134.69072 122.07547 135.13904 122.98681 C 135.58736 123.8908 136.22327 124.58935 137.04642 125.08177 C 137.87691 125.57419 138.85056 125.82023 139.96768 125.82023 C 141.23916 125.82023 142.32706 125.493 143.23105 124.83889 C 144.1424 124.17743 144.76326 123.25541 145.09399 122.07214 L 143.15354 121.77448 C 142.9404 122.50208 142.55857 123.08637 142.00735 123.52734 C 141.46349 123.96832 140.81656 124.1888 140.0669 124.1888 C 139.3834 124.1888 138.78056 124.03446 138.25874 123.72578 C 137.74428 123.40975 137.33638 122.95374 137.03505 122.35842 C 136.73369 121.75576 136.56132 121.03568 136.51725 120.19783 L 145.2702 120.19783 L 145.2702 119.7901 C 145.2702 118.48189 145.05374 117.36091 144.62011 116.42752 C 144.18649 115.49413 143.56913 114.78857 142.76803 114.31085 C 141.96693 113.82579 141.02585 113.58325 139.94546 113.58325 z M 152.37003 113.58325 C 151.73797 113.58325 151.19778 113.73759 150.74945 114.04627 C 150.30114 114.35495 149.86016 114.8766 149.42654 115.61155 L 149.42654 113.84783 L 147.57445 113.84783 L 147.57445 125.54479 L 149.55883 125.54479 L 149.55883 119.30486 C 149.55883 118.14364 149.77932 117.23964 150.22029 116.59288 C 150.66861 115.93877 151.31554 115.61155 152.16074 115.61155 C 152.69725 115.61155 153.1783 115.72581 153.60458 115.95365 L 154.28826 114.12327 C 153.97222 113.93218 153.66004 113.79639 153.35136 113.71554 C 153.05004 113.62735 152.72281 113.58325 152.37003 113.58325 z M 160.24138 113.58325 C 159.15365 113.58325 158.19453 113.82579 157.36404 114.31085 C 156.54089 114.79592 155.90148 115.49797 155.44581 116.41667 C 154.99014 117.33536 154.76213 118.43027 154.76213 119.70174 C 154.76213 121.00996 154.99364 122.12341 155.45666 123.0421 C 155.92703 123.96079 156.57396 124.65532 157.39711 125.1257 C 158.22026 125.58872 159.16835 125.82023 160.24138 125.82023 C 161.32177 125.82023 162.27336 125.58119 163.0965 125.10347 C 163.927 124.6184 164.57394 123.91687 165.03695 122.99818 C 165.49997 122.07214 165.73149 120.96568 165.73149 119.67952 C 165.73149 118.386 165.49997 117.28357 165.03695 116.37222 C 164.58128 115.45353 163.94187 114.759 163.11873 114.28863 C 162.29558 113.81826 161.33647 113.58325 160.24138 113.58325 z M 76.544165 113.84783 L 76.544165 115.47926 L 82.70658 115.47926 L 76.180363 123.94592 L 76.180363 125.54479 L 85.683142 125.54479 L 85.683142 123.825 L 78.704757 123.825 L 85.418559 115.13767 L 85.418559 113.84783 L 76.544165 113.84783 z M 124.08183 113.84783 L 124.08183 115.47926 L 130.24425 115.47926 L 123.71803 123.94592 L 123.71803 125.54479 L 133.22081 125.54479 L 133.22081 123.825 L 126.24242 123.825 L 132.95623 115.13767 L 132.95623 113.84783 L 124.08183 113.84783 z M 40.799577 114.93252 C 41.725619 114.93252 42.46775 115.22316 43.026314 115.80378 C 43.592229 116.3844 43.933982 117.21473 44.051575 118.2951 L 37.459212 118.2951 C 37.547406 117.6263 37.742342 117.03851 38.043673 116.53139 C 38.352354 116.02427 38.741707 115.6309 39.212077 115.35162 C 39.682447 115.07233 40.211614 114.93252 40.799577 114.93252 z M 61.106348 114.94389 C 61.789854 114.94389 62.392689 115.11626 62.914506 115.46169 C 63.436323 115.79977 63.844222 116.30338 64.138204 116.97219 C 64.432185 117.641 64.579004 118.45329 64.579004 119.40873 C 64.579004 120.35682 64.435688 121.1686 64.149056 121.84476 C 63.869774 122.52092 63.469396 123.03555 62.947579 123.38833 C 62.425762 123.74111 61.815406 123.9175 61.1172 123.9175 C 60.441042 123.9175 59.842228 123.74863 59.32041 123.41056 C 58.805943 123.06513 58.401546 122.55801 58.107564 121.8892 C 57.813583 121.21304 57.666764 120.39322 57.666764 119.43044 C 57.666764 118.46764 57.813583 117.65185 58.107564 116.98304 C 58.408895 116.30688 58.816794 115.79977 59.331262 115.46169 C 59.853079 115.11626 60.444889 114.94389 61.106348 114.94389 z M 92.386092 115.20382 C 93.312134 115.20382 94.054265 115.49396 94.61283 116.07457 C 95.178744 116.65518 95.520497 117.48602 95.63809 118.56641 L 89.045728 118.56641 C 89.133922 117.8976 89.328857 117.30929 89.630188 116.80217 C 89.938868 116.29505 90.328221 115.9022 90.798592 115.62292 C 91.268962 115.34363 91.798129 115.20382 92.386092 115.20382 z M 139.92376 115.20382 C 140.8498 115.20382 141.59193 115.49396 142.1505 116.07457 C 142.71641 116.65518 143.05816 117.48602 143.17576 118.56641 L 136.58339 118.56641 C 136.67159 117.8976 136.86601 117.30929 137.16734 116.80217 C 137.47602 116.29505 137.86589 115.9022 138.33626 115.62292 C 138.80663 115.34363 139.33579 115.20382 139.92376 115.20382 z M 112.69286 115.21467 C 113.37637 115.21467 113.9792 115.38756 114.50102 115.73299 C 115.02283 116.07107 115.43073 116.57468 115.72472 117.24349 C 116.0187 117.9123 116.16552 118.72407 116.16552 119.67952 C 116.16552 120.6276 116.0222 121.4399 115.73557 122.11606 C 115.45629 122.79222 115.05591 123.30686 114.53409 123.65964 C 114.01227 124.01242 113.40192 124.1888 112.70372 124.1888 C 112.02756 124.1888 111.42874 124.01942 110.90693 123.68134 C 110.39246 123.33591 109.98806 122.82879 109.69408 122.15999 C 109.40009 121.48383 109.25328 120.66453 109.25328 119.70174 C 109.25328 118.73895 109.40009 117.92315 109.69408 117.25434 C 109.99541 116.57818 110.4033 116.07107 110.91778 115.73299 C 111.43959 115.38756 112.0314 115.21467 112.69286 115.21467 z M 160.23053 115.21467 C 160.91404 115.21467 161.51635 115.38756 162.03817 115.73299 C 162.55998 116.07107 162.96789 116.57468 163.26187 117.24349 C 163.55586 117.9123 163.70319 118.72407 163.70319 119.67952 C 163.70319 120.6276 163.55987 121.4399 163.27324 122.11606 C 162.99396 122.79222 162.59306 123.30686 162.07124 123.65964 C 161.54942 124.01242 160.93959 124.1888 160.24138 124.1888 C 159.56523 124.1888 158.96641 124.01942 158.44459 123.68134 C 157.93013 123.33591 157.52573 122.82879 157.23175 122.15999 C 156.93777 121.48383 156.79095 120.66453 156.79095 119.70174 C 156.79095 118.73895 156.93777 117.92315 157.23175 117.25434 C 157.53308 116.57818 157.94098 116.07107 158.45544 115.73299 C 158.97726 115.38756 159.56907 115.21467 160.23053 115.21467 z " />
    <text
       xml:space="preserve"
       transform="scale(0.26458333)"
       id="text2262"
       style="fill:#000000;font-size:85.33333333px;-inkscape-font-specification:'Arial Nova, Normal';font-family:'Arial Nova';font-weight:normal;font-style:normal;font-stretch:normal;font-variant:normal;font-variant-ligatures:normal;font-variant-caps:normal;font-variant-numeric:normal;font-variant-east-asian:normal;white-space:pre;shape-inside:url(#rect2264)" />
  </g>
</svg>
