<?xml version="1.0" encoding="UTF-8"?>
<svg id="Layer_1" data-name="Layer 1" xmlns="http://www.w3.org/2000/svg" viewBox="0 0 1364.37 1142.38">
  <defs>
    <style>
      .cls-1 {
        fill: #f9b5a4;
      }

      .cls-1, .cls-2, .cls-3 {
        fill-rule: evenodd;
        stroke-miterlimit: 10;
        stroke-width: 25px;
      }

      .cls-1, .cls-3 {
        stroke: #ae3e50;
      }

      .cls-2 {
        fill: none;
        stroke: #e98081;
      }

      .cls-3 {
        fill: #e98081;
      }
    </style>
  </defs>
  <path class="cls-3" d="M852.86,1033.82s32.43,25.76,45,50,10.04,44.19,40,46,56-43,56-43l-26-62s-125.76,13.1-115,9Z"/>
  <path class="cls-3" d="M1189.86,901.82c-23.69,88.05-114.1,122.72-216,148s-137-14-137-14l-24,13-30-15s-14.74-29.74-15-41-3-35-3-35c62.5-93.45,122-80,122-80,0,0,251.51-33.98,252-32s74.69-32.05,51,56Z"/>
  <path class="cls-1" d="M122.86,775.82c-76.3-15.91-73.51-81.18-74-99s-5.61-19.87-15-20-26.28-68.69-20-123c6.28-54.31,8.89-32.87,13-42s2-31,2-31c0,0,25.47-108.22,38-126s58.37-89.76,74-92,34-29,34-29c0,0,45.21-67.66,145-107s146.23-66.19,215-68c68.77-1.81,76.5-14.64,89-15s63,17,63,17l10-20s89.15-12.3,123-7,79.89,19.84,91,31,109,30.05,129,52c20,21.95,13,37,13,37,0,0,62.46,4.85,75,42s47.2,38.53,64,59,52,121,52,121c0,0,51.54,39.24,58,54s1.7,56.51,15,80c13.3,23.49,34.85,116.75,35,122s-4.75,57.19-18,79,4,42,4,42c0,0-17.44,43.36-31,58-13.56,14.64-3,36-3,36,0,0-58.1,70.08-106,66s-59,26-59,26c0,0-127.15-26.55-157-29s-121,58-121,58l-144,11-92,60-40-7-22,11s-47.58,12.07-120-18-99.26-51.67-107-75-21-42-21-42c0,0-11.83-50.82,13-70s-5-41-5-41c0,0-116.84,16.34-200-1Z"/>
  <path class="cls-2" d="M68.86,647.82s72.05,34,109,27,42.99-38.18,43-42"/>
  <path class="cls-2" d="M336.86,425.82s-85.16-32.85-106-10-29,40-29,40"/>
  <path class="cls-2" d="M743.86,91.82s-44.45-24.46-72,8c-27.55,32.46-46.05,125.41-63,130s-44.89-8.11-66,16"/>
  <path class="cls-2" d="M376.86,177.82s-107.58,45.88-119,65,13.7,40.24,34,47-56.65-5.57-91,41"/>
  <path class="cls-2" d="M64.86,587.82s21.2-41.42,37-42,42-17,42-17l-31-37"/>
  <path class="cls-2" d="M1062.86,458.82s-33.91,35.8,14,62,29.21,12.44,43,2,32.47-86.3,44-87c11.53-.7,23.17-10.83,36,8s6.07,37.46,13,69,11.52,41.82,15,50"/>
  <path class="cls-2" d="M908.86,830.82s-127.28,48.41-227-24"/>
  <path class="cls-2" d="M460.86,919.82s29.83-50.7,72-55"/>
  <path class="cls-2" d="M1325.86,643.82s-40.81-11.55-69,0"/>
  <path class="cls-2" d="M1291.86,755.82s-58.62-33.57-87-22"/>
  <path class="cls-2" d="M545.86,487.82s4.64-61.8,36-87,47.42-51.24,102-40c54.58,11.24,24-4,24-4,0,0-51.98-5.35-44-55s51.1-106.9,137-136"/>
  <path class="cls-2" d="M1077.86,207.82s41.95,59.7,28,80c-13.95,20.3-27,20-27,20,0,0-.29-41.26-66-60s-100.4-7.42-147,22"/>
  <path class="cls-2" d="M575.86,671.82s84.54-99.84,132-95"/>
  <path class="cls-2" d="M678.86,480.82s-22.09,129.36,108,100"/>
  <path class="cls-2" d="M339.86,760.82s71.25-166.75,206-76"/>
  <path class="cls-2" d="M431.86,484.82s-52.91,82.5-184,91"/>
  <path class="cls-2" d="M968.86,594.82s35.87,59.89,95,58"/>
  <path class="cls-2" d="M990.86,402.82s60.5,299.81-298,353"/>
</svg>