<?xml version="1.0" encoding="UTF-8" standalone="no"?>
<!-- Created with Inkscape (http://www.inkscape.org/) -->

<svg
   width="720"
   height="720"
   viewBox="0 0 190.5 190.5"
   version="1.1"
   id="svg5"
   sodipodi:docname="2five.svg"
   inkscape:version="1.2.1 (9c6d41e410, 2022-07-14)"
   xmlns:inkscape="http://www.inkscape.org/namespaces/inkscape"
   xmlns:sodipodi="http://sodipodi.sourceforge.net/DTD/sodipodi-0.dtd"
   xmlns="http://www.w3.org/2000/svg"
   xmlns:svg="http://www.w3.org/2000/svg">
  <sodipodi:namedview
     id="namedview7"
     pagecolor="#ffffff"
     bordercolor="#000000"
     borderopacity="0.25"
     inkscape:showpageshadow="2"
     inkscape:pageopacity="0.0"
     inkscape:pagecheckerboard="0"
     inkscape:deskcolor="#d1d1d1"
     inkscape:document-units="mm"
     showgrid="true"
     inkscape:zoom="1.0255231"
     inkscape:cx="477.31738"
     inkscape:cy="371.51772"
     inkscape:window-width="1520"
     inkscape:window-height="1030"
     inkscape:window-x="10"
     inkscape:window-y="0"
     inkscape:window-maximized="0"
     inkscape:current-layer="layer1">
    <inkscape:grid
       type="xygrid"
       id="grid9"
       spacingx="19.05"
       spacingy="19.05" />
  </sodipodi:namedview>
  <defs
     id="defs2">
    <rect
       x="584.09216"
       y="481.70539"
       width="537.28678"
       height="297.4092"
       id="rect4253" />
    <rect
       x="266.20561"
       y="258.40471"
       width="392.97018"
       height="108.23744"
       id="rect3681" />
  </defs>
  <g
     inkscape:label="Ebene 1"
     inkscape:groupmode="layer"
     id="layer1">
    <text
       xml:space="preserve"
       transform="scale(0.26458333)"
       id="text3679"
       style="font-size:85.3333px;font-family:'Arial Nova';-inkscape-font-specification:'Arial Nova, Normal';white-space:pre;shape-inside:url(#rect3681);display:inline;fill:#000000" />
    <path
       id="path4474"
       style="font-size:22.5778px;font-family:'Arial Nova';-inkscape-font-specification:'Arial Nova';stroke-width:0.264583"
       d="M 58.180428 87.089775 C 57.092696 87.089775 56.306468 87.376406 55.821399 87.94967 C 55.343679 88.522935 55.104647 89.302158 55.104647 90.286995 L 55.104647 91.83057 L 53.34093 91.83057 L 53.34093 93.362777 L 55.104647 93.362777 L 55.104647 103.52701 L 57.089022 103.52701 L 57.089022 93.362777 L 59.172616 93.362777 L 59.172616 91.83057 L 57.089022 91.83057 L 57.089022 90.716943 C 57.089022 90.14368 57.177217 89.684161 57.353605 89.338733 C 57.529994 88.985955 57.857221 88.809566 58.334941 88.809566 C 58.65832 88.809566 59.066219 88.883234 59.558639 89.030225 L 59.977218 87.365727 C 59.61709 87.270185 59.297385 87.20002 59.018103 87.15592 C 58.74617 87.11182 58.46706 87.089775 58.180428 87.089775 z M 109.08223 87.102694 C 107.9945 87.102694 107.20776 87.389326 106.72268 87.96259 C 106.24497 88.535854 106.00645 89.315076 106.00645 90.299915 L 106.00645 91.842973 L 104.24222 91.842973 L 104.24222 93.375696 L 106.00645 93.375696 L 106.00645 103.53993 L 107.99082 103.53993 L 107.99082 93.375696 L 110.07442 93.375696 L 110.07442 91.842973 L 107.99082 91.842973 L 107.99082 90.729862 C 107.99082 90.156598 108.07902 89.69708 108.25541 89.351652 C 108.4318 88.998874 108.75851 88.822485 109.23623 88.822485 C 109.55961 88.822485 109.9675 88.896153 110.45992 89.043144 L 110.87902 87.378129 C 110.51889 87.282588 110.19919 87.212939 109.91991 87.16884 C 109.64797 87.12474 109.36886 87.102694 109.08223 87.102694 z M 60.859334 87.365727 L 60.859334 89.614685 L 62.854561 89.614685 L 62.854561 87.365727 L 60.859334 87.365727 z M 111.76114 87.378129 L 111.76114 89.627087 L 113.75636 89.627087 L 113.75636 87.378129 L 111.76114 87.378129 z M 81.419836 91.565987 C 80.302707 91.565987 79.328549 91.819546 78.498051 92.326664 C 77.674902 92.833782 77.043015 93.553865 76.602043 94.487256 C 76.16107 95.420647 75.940584 96.515556 75.940584 97.772327 C 75.940584 98.99235 76.164572 100.05821 76.612895 100.96955 C 77.061216 101.87354 77.697123 102.57157 78.520272 103.06399 C 79.350769 103.55641 80.32441 103.80297 81.441541 103.80297 C 82.71301 103.80297 83.800914 103.47574 84.704907 102.82163 C 85.61625 102.16017 86.237114 101.23764 86.567843 100.05436 L 84.627909 99.756702 C 84.414773 100.4843 84.032425 101.06859 83.481209 101.50957 C 82.937344 101.95054 82.290413 102.17102 81.540759 102.17102 C 80.857253 102.17102 80.254935 102.01668 79.733118 101.708 C 79.21865 101.39198 78.810751 100.93647 78.50942 100.34116 C 78.208091 99.738497 78.035205 99.018418 77.991105 98.18057 L 86.744576 98.18057 L 86.744576 97.772327 C 86.744576 96.464109 86.527593 95.343649 86.09397 94.410258 C 85.660347 93.476866 85.042986 92.771311 84.241886 92.293591 C 83.440787 91.808522 82.500218 91.565987 81.419836 91.565987 z M 132.32112 91.578389 C 131.204 91.578389 130.23035 91.831948 129.39985 92.339067 C 128.57671 92.846185 127.94482 93.566784 127.50385 94.500175 C 127.06287 95.433566 126.84239 96.528474 126.84239 97.785246 C 126.84239 99.005269 127.06638 100.07112 127.5147 100.98247 C 127.96302 101.88646 128.59893 102.58449 129.42207 103.07691 C 130.25257 103.56933 131.22622 103.81537 132.34334 103.81537 C 133.61482 103.81537 134.70272 103.48866 135.60671 102.83455 C 136.51806 102.17309 137.13892 101.25055 137.46965 100.06728 L 135.5292 99.769621 C 135.31606 100.49723 134.93423 101.08151 134.38301 101.52249 C 133.83915 101.96346 133.19221 102.18394 132.44256 102.18394 C 131.75906 102.18394 131.15622 102.02961 130.6344 101.72092 C 130.11994 101.4049 129.71203 100.94939 129.41071 100.35408 C 129.10934 99.751418 128.93697 99.03082 128.89291 98.192973 L 137.64586 98.192973 L 137.64586 97.785246 C 137.64586 96.477028 137.42939 95.356051 136.99577 94.42266 C 136.56215 93.489269 135.94479 92.783714 135.14369 92.305994 C 134.34259 91.820924 133.40151 91.578389 132.32112 91.578389 z M 60.859334 91.83057 L 60.859334 103.52701 L 62.854561 103.52701 L 62.854561 91.83057 L 60.859334 91.83057 z M 64.563501 91.83057 L 69.017493 103.52701 L 70.869576 103.52701 L 75.289978 91.83057 L 73.261678 91.83057 L 70.65977 98.962952 C 70.321691 99.881647 70.083176 100.6278 69.943534 101.20106 L 69.899093 101.20106 C 69.649208 100.27502 69.373601 99.393072 69.07227 98.555225 L 66.669316 91.83057 L 64.563501 91.83057 z M 111.76114 91.842973 L 111.76114 103.53993 L 113.75636 103.53993 L 113.75636 91.842973 L 111.76114 91.842973 z M 115.4653 91.842973 L 119.91878 103.53993 L 121.77086 103.53993 L 126.19178 91.842973 L 124.16348 91.842973 L 121.56157 98.975871 C 121.22349 99.894563 120.98446 100.64071 120.84482 101.21398 L 120.8009 101.21398 C 120.55102 100.28793 120.27541 99.405991 119.97407 98.568144 L 117.5706 91.842973 L 115.4653 91.842973 z M 81.397616 93.18656 C 82.323657 93.18656 83.065788 93.476695 83.624353 94.057308 C 84.190268 94.637921 84.532021 95.468246 84.649613 96.548629 L 78.057251 96.548629 C 78.145446 95.879821 78.34038 95.29203 78.641711 94.784912 C 78.950392 94.277794 79.339745 93.884422 79.810116 93.605139 C 80.280486 93.325857 80.809653 93.18656 81.397616 93.18656 z M 132.29942 93.198962 C 133.22546 93.198962 133.96759 93.489614 134.52616 94.070227 C 135.09207 94.65084 135.43382 95.481166 135.55142 96.561548 L 128.95905 96.561548 C 129.04725 95.892741 129.24166 95.304949 129.543 94.797831 C 129.85168 94.290713 130.24155 93.897341 130.71192 93.618058 C 131.18229 93.338776 131.71145 93.198962 132.29942 93.198962 z " />
    <text
       xml:space="preserve"
       transform="scale(0.26458333)"
       id="text4251"
       style="fill:#000000;font-size:85.33333333px;-inkscape-font-specification:'Arial Nova, Normal';font-family:'Arial Nova';white-space:pre;shape-inside:url(#rect4253)" />
  </g>
</svg>
