<?xml version="1.0" encoding="UTF-8" standalone="no"?>
<!-- Created with Inkscape (http://www.inkscape.org/) -->

<svg
   width="720"
   height="720"
   viewBox="0 0 190.5 190.5"
   version="1.1"
   id="svg5"
   sodipodi:docname="3G.svg"
   inkscape:version="1.2.1 (9c6d41e410, 2022-07-14)"
   xmlns:inkscape="http://www.inkscape.org/namespaces/inkscape"
   xmlns:sodipodi="http://sodipodi.sourceforge.net/DTD/sodipodi-0.dtd"
   xmlns="http://www.w3.org/2000/svg"
   xmlns:svg="http://www.w3.org/2000/svg">
  <sodipodi:namedview
     id="namedview7"
     pagecolor="#ffffff"
     bordercolor="#000000"
     borderopacity="0.25"
     inkscape:showpageshadow="2"
     inkscape:pageopacity="0.0"
     inkscape:pagecheckerboard="0"
     inkscape:deskcolor="#d1d1d1"
     inkscape:document-units="mm"
     showgrid="true"
     inkscape:zoom="1.0255231"
     inkscape:cx="402.23375"
     inkscape:cy="371.51772"
     inkscape:window-width="1520"
     inkscape:window-height="1030"
     inkscape:window-x="10"
     inkscape:window-y="0"
     inkscape:window-maximized="0"
     inkscape:current-layer="layer1">
    <inkscape:grid
       type="xygrid"
       id="grid9"
       spacingx="19.05"
       spacingy="19.05" />
  </sodipodi:namedview>
  <defs
     id="defs2">
    <rect
       x="584.09216"
       y="481.70539"
       width="537.28678"
       height="297.4092"
       id="rect4253" />
    <rect
       x="266.20561"
       y="258.40471"
       width="392.97018"
       height="108.23744"
       id="rect3681" />
  </defs>
  <g
     inkscape:label="Ebene 1"
     inkscape:groupmode="layer"
     id="layer1">
    <path
       id="path4307"
       style="font-size:22.5778px;font-family:'Arial Nova';-inkscape-font-specification:'Arial Nova';stroke-width:0.264583"
       d="M 70.175045 75.448108 C 68.712487 75.448108 67.407599 75.793881 66.261072 76.484737 C 65.121894 77.175594 64.236447 78.145732 63.604386 79.395154 C 62.979676 80.637226 62.667493 82.084912 62.667493 83.738558 C 62.667493 85.502447 62.972153 87.01628 63.582166 88.2804 C 64.199526 89.537171 65.096514 90.500305 66.272441 91.169112 C 67.448367 91.830571 68.859478 92.1613 70.505774 92.1613 C 71.67435 92.1613 72.820878 91.951838 73.945357 91.532914 C 75.077185 91.113991 76.065354 90.536708 76.910551 89.801754 L 76.910551 83.639339 L 70.351261 83.639339 L 70.351261 85.56842 L 74.838326 85.56842 L 74.838326 88.887081 C 74.323859 89.291305 73.658381 89.633059 72.842582 89.912341 C 72.034133 90.191624 71.247905 90.33092 70.483553 90.33092 C 69.292928 90.33092 68.278692 90.070356 67.440845 89.548539 C 66.602998 89.026722 65.967091 88.277069 65.533468 87.299581 C 65.099845 86.314743 64.883378 85.135143 64.883378 83.760779 C 64.883378 82.467261 65.08882 81.331757 65.500395 80.354268 C 65.911969 79.376779 66.5113 78.619605 67.297701 78.083089 C 68.091451 77.546573 69.039542 77.278487 70.141972 77.278487 C 71.266451 77.278487 72.20702 77.568622 72.964022 78.149235 C 73.728374 78.722499 74.265062 79.560346 74.573743 80.662777 L 76.668188 80.166683 C 76.241915 78.637979 75.473716 77.469403 74.363936 76.660954 C 73.261505 75.852505 71.865438 75.448108 70.175045 75.448108 z M 121.07633 75.461027 C 119.61377 75.461027 118.3094 75.806283 117.16287 76.497139 C 116.0237 77.187996 115.13825 78.158135 114.50619 79.407556 C 113.88148 80.649628 113.56878 82.097831 113.56878 83.751477 C 113.56878 85.515366 113.87396 87.029198 114.48397 88.293319 C 115.10133 89.550089 115.9978 90.512706 117.17373 91.181514 C 118.34965 91.842972 119.76076 92.173702 121.40706 92.173702 C 122.57563 92.173702 123.72216 91.96424 124.84664 91.545317 C 125.97848 91.126393 126.96715 90.549626 127.81235 89.814673 L 127.81235 83.652258 L 121.25306 83.652258 L 121.25306 85.58134 L 125.73961 85.58134 L 125.73961 88.899483 C 125.22515 89.303708 124.56018 89.645461 123.74438 89.924744 C 122.93594 90.204026 122.14971 90.34384 121.38536 90.34384 C 120.19473 90.34384 119.18049 90.082759 118.34265 89.560942 C 117.50479 89.039125 116.86889 88.289472 116.43527 87.311983 C 116.00165 86.327145 115.78466 85.147544 115.78466 83.773181 C 115.78466 82.479662 115.99062 81.344159 116.4022 80.366671 C 116.81377 79.389182 117.41259 78.632524 118.19899 78.096008 C 118.99274 77.559492 119.94083 77.290889 121.04326 77.290889 C 122.16774 77.290889 123.10882 77.581541 123.86582 78.162154 C 124.63018 78.735418 125.16635 79.573266 125.47503 80.675696 L 127.56999 80.179602 C 127.14372 78.650898 126.37552 77.482322 125.26574 76.673873 C 124.16331 75.865424 122.76672 75.461027 121.07633 75.461027 z M 95.944014 99.032715 C 94.481457 99.032715 93.177086 99.377971 92.030558 100.06883 C 90.89138 100.75969 90.005933 101.72983 89.373873 102.97924 C 88.749162 104.22132 88.436462 105.669 88.436462 107.32265 C 88.436462 109.08654 88.741641 110.60089 89.351652 111.86501 C 89.969013 113.12178 90.865484 114.0844 92.04141 114.7532 C 93.217336 115.41466 94.628447 115.74539 96.274744 115.74539 C 97.44332 115.74539 98.589848 115.53593 99.714327 115.117 C 100.84615 114.69808 101.83484 114.12132 102.68004 113.38636 L 102.68004 107.22343 L 96.120748 107.22343 L 96.120748 109.15303 L 100.6073 109.15303 L 100.6073 112.47117 C 100.09283 112.87539 99.427868 113.21715 98.612069 113.49643 C 97.80362 113.77571 97.017391 113.91553 96.25304 113.91553 C 95.062414 113.91553 94.048178 113.65445 93.210331 113.13263 C 92.372484 112.61082 91.736577 111.86116 91.302954 110.88367 C 90.869332 109.89884 90.652348 108.71923 90.652348 107.34487 C 90.652348 106.05135 90.858308 104.91585 91.269881 103.93836 C 91.681455 102.96087 92.28027 102.20369 93.066671 101.66718 C 93.860421 101.13066 94.808511 100.86258 95.910942 100.86258 C 97.03542 100.86258 97.976506 101.15271 98.733508 101.73333 C 99.49786 102.30659 100.03403 103.14443 100.34271 104.24687 L 102.43767 103.75077 C 102.0114 102.22207 101.2432 101.05349 100.13342 100.24504 C 99.030995 99.436594 97.634408 99.032715 95.944014 99.032715 z " />
    <text
       xml:space="preserve"
       transform="scale(0.26458333)"
       id="text3679"
       style="font-size:85.3333px;font-family:'Arial Nova';-inkscape-font-specification:'Arial Nova, Normal';white-space:pre;shape-inside:url(#rect3681);display:inline;fill:#000000" />
    <text
       xml:space="preserve"
       transform="scale(0.26458333)"
       id="text4251"
       style="fill:#000000;font-size:85.33333333px;-inkscape-font-specification:'Arial Nova, Normal';font-family:'Arial Nova';white-space:pre;shape-inside:url(#rect4253)" />
  </g>
</svg>
