<?xml version="1.0" encoding="UTF-8" standalone="no"?>
<!-- Created with Inkscape (http://www.inkscape.org/) -->

<svg
   width="720"
   height="720"
   viewBox="0 0 190.5 190.5"
   version="1.1"
   id="svg5"
   sodipodi:docname="3nine.svg"
   inkscape:version="1.2.1 (9c6d41e410, 2022-07-14)"
   xmlns:inkscape="http://www.inkscape.org/namespaces/inkscape"
   xmlns:sodipodi="http://sodipodi.sourceforge.net/DTD/sodipodi-0.dtd"
   xmlns="http://www.w3.org/2000/svg"
   xmlns:svg="http://www.w3.org/2000/svg">
  <sodipodi:namedview
     id="namedview7"
     pagecolor="#ffffff"
     bordercolor="#000000"
     borderopacity="0.25"
     inkscape:showpageshadow="2"
     inkscape:pageopacity="0.0"
     inkscape:pagecheckerboard="0"
     inkscape:deskcolor="#d1d1d1"
     inkscape:document-units="mm"
     showgrid="true"
     inkscape:zoom="1.0255231"
     inkscape:cx="349.57769"
     inkscape:cy="371.51772"
     inkscape:window-width="1520"
     inkscape:window-height="1030"
     inkscape:window-x="10"
     inkscape:window-y="0"
     inkscape:window-maximized="0"
     inkscape:current-layer="layer1">
    <inkscape:grid
       type="xygrid"
       id="grid9"
       spacingx="19.05"
       spacingy="19.05" />
  </sodipodi:namedview>
  <defs
     id="defs2">
    <rect
       x="266.20561"
       y="258.40471"
       width="392.97018"
       height="108.23744"
       id="rect3681" />
  </defs>
  <g
     inkscape:label="Ebene 1"
     inkscape:groupmode="layer"
     id="layer1">
    <path
       id="path4131"
       style="font-size:22.5778px;font-family:'Arial Nova';-inkscape-font-specification:'Arial Nova';stroke-width:0.264583"
       d="M 62.490759 75.72406 L 62.490759 77.973018 L 64.475134 77.973018 L 64.475134 75.72406 L 62.490759 75.72406 z M 113.39256 75.736462 L 113.39256 77.985421 L 115.37694 77.985421 L 115.37694 75.736462 L 113.39256 75.736462 z M 55.36923 79.92432 C 54.612228 79.92432 53.921199 80.093187 53.296488 80.431266 C 52.679127 80.769345 52.176028 81.232365 51.786503 81.820329 L 51.786503 80.188904 L 49.93442 80.188904 L 49.93442 91.885347 L 51.918795 91.885347 L 51.918795 85.369983 C 51.918795 84.069115 52.190383 83.121025 52.734249 82.525712 C 53.285464 81.930399 54.053663 81.632743 55.038501 81.632743 C 55.817552 81.632743 56.420386 81.853229 56.846659 82.294202 C 57.272932 82.735174 57.485897 83.382105 57.485897 84.234652 L 57.485897 91.885347 L 59.470272 91.885347 L 59.470272 83.970068 C 59.470272 82.6692 59.125015 81.669491 58.434159 80.971285 C 57.743303 80.273079 56.721545 79.92432 55.36923 79.92432 z M 72.974874 79.92432 C 72.217872 79.92432 71.52736 80.093187 70.902649 80.431266 C 70.285288 80.769345 69.781672 81.232365 69.392147 81.820329 L 69.392147 80.188904 L 67.540063 80.188904 L 67.540063 91.885347 L 69.524438 91.885347 L 69.524438 85.369983 C 69.524438 84.069115 69.796543 83.121025 70.340409 82.525712 C 70.891625 81.930399 71.659307 81.632743 72.644145 81.632743 C 73.423196 81.632743 74.02603 81.853229 74.452303 82.294202 C 74.878576 82.735174 75.091541 83.382105 75.091541 84.234652 L 75.091541 91.885347 L 77.075916 91.885347 L 77.075916 83.970068 C 77.075916 82.6692 76.730659 81.669491 76.039803 80.971285 C 75.348946 80.273079 74.327189 79.92432 72.974874 79.92432 z M 84.837199 79.92432 C 83.720069 79.92432 82.746427 80.177879 81.91593 80.684998 C 81.092782 81.192116 80.460377 81.912198 80.019405 82.845589 C 79.578433 83.77898 79.357947 84.873889 79.357947 86.13066 C 79.357947 87.350683 79.582452 88.416538 80.030774 89.327881 C 80.479096 90.231874 81.114486 90.929907 81.937634 91.422327 C 82.768132 91.914746 83.74229 92.1613 84.85942 92.1613 C 86.13089 92.1613 87.218277 91.834073 88.12227 91.179964 C 89.033612 90.518506 89.654993 89.595967 89.985722 88.412691 L 88.045272 88.115035 C 87.832135 88.842639 87.449787 89.426927 86.898572 89.8679 C 86.354706 90.308872 85.708291 90.529358 84.958639 90.529358 C 84.275131 90.529358 83.672297 90.375017 83.15048 90.066337 C 82.636013 89.750307 82.228113 89.294808 81.926782 88.699495 C 81.625454 88.096833 81.452568 87.376751 81.408468 86.538904 L 90.161938 86.538904 L 90.161938 86.13066 C 90.161938 84.822442 89.944954 83.701982 89.511332 82.768591 C 89.077709 81.8352 88.460348 81.129645 87.659249 80.651925 C 86.858149 80.166855 85.917581 79.92432 84.837199 79.92432 z M 106.27103 79.936723 C 105.51403 79.936723 104.823 80.106107 104.19829 80.444185 C 103.58093 80.782264 103.07732 81.245285 102.68779 81.833248 L 102.68779 80.201306 L 100.83571 80.201306 L 100.83571 91.898267 L 102.82008 91.898267 L 102.82008 85.382902 C 102.82008 84.082034 103.09219 83.133943 103.63605 82.538631 C 104.18727 81.943318 104.95547 81.645662 105.9403 81.645662 C 106.71936 81.645662 107.32167 81.866149 107.74795 82.307121 C 108.17422 82.748093 108.3877 83.395024 108.3877 84.247571 L 108.3877 91.898267 L 110.37207 91.898267 L 110.37207 83.982987 C 110.37207 82.682119 110.0263 81.68241 109.33545 80.984204 C 108.64459 80.285998 107.62335 79.936723 106.27103 79.936723 z M 123.87668 79.936723 C 123.11967 79.936723 122.42864 80.106107 121.80393 80.444185 C 121.18657 80.782264 120.68347 81.245285 120.29395 81.833248 L 120.29395 80.201306 L 118.44187 80.201306 L 118.44187 91.898267 L 120.42624 91.898267 L 120.42624 85.382902 C 120.42624 84.082034 120.69783 83.133943 121.2417 82.538631 C 121.79291 81.943318 122.56111 81.645662 123.54595 81.645662 C 124.325 81.645662 124.92783 81.866149 125.35411 82.307121 C 125.78038 82.748093 125.99334 83.395024 125.99334 84.247571 L 125.99334 91.898267 L 127.97772 91.898267 L 127.97772 83.982987 C 127.97772 82.682119 127.63246 81.68241 126.94161 80.984204 C 126.25075 80.285998 125.22899 79.936723 123.87668 79.936723 z M 135.739 79.936723 C 134.62188 79.936723 133.64772 80.190282 132.81722 80.6974 C 131.99406 81.204518 131.36217 81.925117 130.92121 82.858508 C 130.48023 83.791899 130.25975 84.886808 130.25975 86.143579 C 130.25975 87.363603 130.48374 88.429458 130.93206 89.3408 C 131.38038 90.244793 132.01628 90.942827 132.83944 91.435246 C 133.66993 91.927665 134.64357 92.173702 135.76071 92.173702 C 137.03218 92.173702 138.12008 91.846992 139.02407 91.192883 C 139.93541 90.531425 140.55627 89.608886 140.88701 88.42561 L 138.94707 88.127954 C 138.73393 88.855559 138.35159 89.439846 137.80037 89.880819 C 137.25651 90.321791 136.60958 90.542277 135.85992 90.542277 C 135.17642 90.542277 134.5741 90.387937 134.05228 90.079256 C 133.53782 89.763227 133.12992 89.307727 132.82858 88.712415 C 132.52729 88.109752 132.3544 87.389153 132.31027 86.551306 L 141.06374 86.551306 L 141.06374 86.143579 C 141.06374 84.835362 140.84676 83.714385 140.41313 82.780994 C 139.97952 81.847602 139.36215 81.142047 138.56105 80.664327 C 137.75995 80.179257 136.81939 79.936723 135.739 79.936723 z M 62.490759 80.188904 L 62.490759 91.885347 L 64.475134 91.885347 L 64.475134 80.188904 L 62.490759 80.188904 z M 113.39256 80.201306 L 113.39256 91.898267 L 115.37694 91.898267 L 115.37694 80.201306 L 113.39256 80.201306 z M 84.814978 81.544893 C 85.74102 81.544893 86.483667 81.835028 87.042232 82.415641 C 87.608146 82.996255 87.9499 83.82658 88.067493 84.906962 L 81.474613 84.906962 C 81.562808 84.238155 81.757743 83.650364 82.059074 83.143245 C 82.367754 82.636127 82.757108 82.242755 83.227478 81.963472 C 83.697848 81.68419 84.227015 81.544893 84.814978 81.544893 z M 135.71678 81.557296 C 136.64283 81.557296 137.38495 81.847947 137.94352 82.42856 C 138.50943 83.009174 138.85119 83.839499 138.96878 84.919881 L 132.37642 84.919881 C 132.46461 84.251073 132.65955 83.663283 132.96088 83.156165 C 133.26956 82.649046 133.65891 82.255674 134.12928 81.976392 C 134.59965 81.697109 135.12882 81.557296 135.71678 81.557296 z M 88.260246 99.30815 L 88.260246 101.55711 L 90.244621 101.55711 L 90.244621 99.30815 L 88.260246 99.30815 z M 81.138717 103.50841 C 80.381714 103.50841 79.690686 103.67728 79.065975 104.01536 C 78.448614 104.35344 77.944998 104.81645 77.555473 105.40442 L 77.555473 103.77299 L 75.703389 103.77299 L 75.703389 115.46995 L 77.687764 115.46995 L 77.687764 108.95459 C 77.687764 107.65372 77.95987 106.70563 78.503735 106.11032 C 79.054951 105.51501 79.823149 105.21735 80.807987 105.21735 C 81.587038 105.21735 82.189356 105.43784 82.615629 105.87881 C 83.041903 106.31978 83.255383 106.9662 83.255383 107.81874 L 83.255383 115.46995 L 85.239758 115.46995 L 85.239758 107.55416 C 85.239758 106.25329 84.893986 105.2541 84.203129 104.55589 C 83.512272 103.85769 82.491031 103.50841 81.138717 103.50841 z M 98.74436 103.50841 C 97.987358 103.50841 97.296329 103.67728 96.671619 104.01536 C 96.054258 104.35344 95.551159 104.81645 95.161633 105.40442 L 95.161633 103.77299 L 93.30955 103.77299 L 93.30955 115.46995 L 95.293925 115.46995 L 95.293925 108.95459 C 95.293925 107.65372 95.565514 106.70563 96.109379 106.11032 C 96.660595 105.51501 97.428794 105.21735 98.413631 105.21735 C 99.192682 105.21735 99.795516 105.43784 100.22179 105.87881 C 100.64806 106.31978 100.86103 106.9662 100.86103 107.81874 L 100.86103 115.46995 L 102.8454 115.46995 L 102.8454 107.55416 C 102.8454 106.25329 102.50015 105.2541 101.80929 104.55589 C 101.11844 103.85769 100.09668 103.50841 98.74436 103.50841 z M 110.60669 103.50841 C 109.48956 103.50841 108.5154 103.76197 107.6849 104.26909 C 106.86175 104.77621 106.22986 105.49629 105.78889 106.42968 C 105.34792 107.36307 105.12743 108.45849 105.12743 109.71527 C 105.12743 110.93529 105.35142 112.00063 105.79974 112.91197 C 106.24807 113.81596 106.88397 114.51451 107.70712 115.00693 C 108.53762 115.49935 109.51126 115.74539 110.62839 115.74539 C 111.89986 115.74539 112.98776 115.41817 113.89176 114.76405 C 114.8031 114.1026 115.42397 113.18058 115.75469 111.9973 L 113.81476 111.69964 C 113.60163 112.42725 113.21928 113.01153 112.66806 113.45251 C 112.12419 113.89348 111.47726 114.11396 110.72761 114.11396 C 110.0441 114.11396 109.44179 113.95962 108.91997 113.65094 C 108.4055 113.33491 107.9976 112.8789 107.69627 112.28359 C 107.39497 111.68093 107.22209 110.96084 107.17795 110.12299 L 115.93142 110.12299 L 115.93142 109.71527 C 115.93142 108.40705 115.71444 107.28607 115.28082 106.35268 C 114.84719 105.41929 114.22983 104.71373 113.42874 104.23601 C 112.62764 103.75095 111.68707 103.50841 110.60669 103.50841 z M 88.260246 103.77299 L 88.260246 115.46995 L 90.244621 115.46995 L 90.244621 103.77299 L 88.260246 103.77299 z M 110.58446 105.12898 C 111.5105 105.12898 112.25264 105.41912 112.8112 105.99973 C 113.37711 106.58034 113.71887 107.41118 113.83646 108.49157 L 107.2441 108.49157 C 107.33229 107.82276 107.52723 107.23445 107.82856 106.72734 C 108.13724 106.22022 108.5266 105.82737 108.99696 105.54808 C 109.46734 105.2688 109.9965 105.12898 110.58446 105.12898 z " />
    <text
       xml:space="preserve"
       transform="scale(0.26458333)"
       id="text3679"
       style="font-size:85.3333px;font-family:'Arial Nova';-inkscape-font-specification:'Arial Nova, Normal';white-space:pre;shape-inside:url(#rect3681);display:inline;fill:#000000" />
  </g>
</svg>
