<?xml version="1.0" encoding="UTF-8" standalone="no"?>
<!-- Created with Inkscape (http://www.inkscape.org/) -->

<svg
   width="720"
   height="720"
   viewBox="0 0 190.5 190.5"
   version="1.1"
   id="svg5"
   sodipodi:docname="59.svg"
   inkscape:version="1.2.1 (9c6d41e410, 2022-07-14)"
   xmlns:inkscape="http://www.inkscape.org/namespaces/inkscape"
   xmlns:sodipodi="http://sodipodi.sourceforge.net/DTD/sodipodi-0.dtd"
   xmlns="http://www.w3.org/2000/svg"
   xmlns:svg="http://www.w3.org/2000/svg">
  <sodipodi:namedview
     id="namedview7"
     pagecolor="#ffffff"
     bordercolor="#000000"
     borderopacity="0.25"
     inkscape:showpageshadow="2"
     inkscape:pageopacity="0.0"
     inkscape:pagecheckerboard="0"
     inkscape:deskcolor="#d1d1d1"
     inkscape:document-units="mm"
     showgrid="true"
     inkscape:zoom="1.0255231"
     inkscape:cx="377.85594"
     inkscape:cy="365.66704"
     inkscape:window-width="1520"
     inkscape:window-height="1030"
     inkscape:window-x="10"
     inkscape:window-y="0"
     inkscape:window-maximized="0"
     inkscape:current-layer="layer1">
    <inkscape:grid
       type="xygrid"
       id="grid9"
       spacingx="19.05"
       spacingy="19.05" />
  </sodipodi:namedview>
  <defs
     id="defs2" />
  <g
     inkscape:label="Ebene 1"
     inkscape:groupmode="layer"
     id="layer1">
    <path
       id="path3310"
       style="font-size:22.5778px;font-family:'Arial Nova';-inkscape-font-specification:'Arial Nova';stroke-width:0.264583"
       d="M 45.361056 75.851701 C 44.368868 75.851701 43.486923 76.094235 42.715222 76.579305 C 41.95087 77.064375 41.355558 77.721813 40.929285 78.552311 C 40.510361 79.382809 40.300899 80.301846 40.300899 81.308732 C 40.300899 82.29357 40.513864 83.183036 40.940137 83.976786 C 41.36641 84.770536 41.939673 85.394902 42.659928 85.850574 C 43.387532 86.298895 44.188804 86.523401 45.063399 86.523401 C 45.893896 86.523401 46.640047 86.33949 47.301506 85.972013 C 47.970314 85.604536 48.51751 85.075369 48.943783 84.384513 L 48.988224 84.384513 L 48.988224 84.626876 C 48.988224 85.883647 48.829864 86.968048 48.513835 87.87939 C 48.197804 88.783384 47.760852 89.473895 47.202287 89.951615 C 46.643722 90.421986 46.007815 90.657515 45.29491 90.657515 C 44.559956 90.657515 43.961141 90.43301 43.49812 89.984688 C 43.035099 89.529017 42.715395 88.882602 42.539006 88.044755 L 40.576335 88.353263 C 40.701277 89.169062 40.969879 89.874617 41.381453 90.46993 C 41.800377 91.057893 42.333046 91.509889 42.979806 91.82592 C 43.633914 92.1346 44.36904 92.28894 45.184839 92.28894 C 47.06632 92.28894 48.49948 91.557834 49.484318 90.095276 C 50.469156 88.625368 50.96123 86.464604 50.96123 83.612984 C 50.96123 81.077393 50.483683 79.151643 49.528243 77.836076 C 48.580153 76.513159 47.19109 75.851701 45.361056 75.851701 z M 96.947571 76.122485 C 95.955383 76.122485 95.073439 76.36502 94.301737 76.85009 C 93.537386 77.335159 92.942073 77.993115 92.5158 78.823612 C 92.096876 79.65411 91.887415 80.57263 91.887415 81.579517 C 91.887415 82.564355 92.100379 83.453821 92.526652 84.247571 C 92.952925 85.041321 93.526189 85.666203 94.246444 86.121875 C 94.974048 86.570197 95.775319 86.794185 96.649915 86.794185 C 97.480412 86.794185 98.226562 86.610792 98.888021 86.243315 C 99.556829 85.875838 100.10402 85.346671 100.5303 84.655815 L 100.57474 84.655815 L 100.57474 84.898177 C 100.57474 86.154948 100.41638 87.238833 100.10035 88.150175 C 99.784321 89.054168 99.347367 89.745197 98.788802 90.222917 C 98.230237 90.693288 97.59433 90.9283 96.881425 90.9283 C 96.146472 90.9283 95.547656 90.704312 95.084635 90.25599 C 94.621615 89.800319 94.30191 89.153387 94.125521 88.31554 L 92.16285 88.624565 C 92.287792 89.440363 92.556394 90.145919 92.967969 90.741231 C 93.386892 91.329195 93.919561 91.781191 94.566321 92.097221 C 95.220429 92.405902 95.955556 92.560242 96.771354 92.560242 C 98.652836 92.560242 100.086 91.828618 101.07083 90.36606 C 102.05567 88.896153 102.54775 86.735389 102.54775 83.883769 C 102.54775 81.348179 102.0702 79.422428 101.11476 78.10686 C 100.16667 76.783944 98.777606 76.122485 96.947571 76.122485 z M 144.48524 76.122485 C 143.49305 76.122485 142.6111 76.36502 141.8394 76.85009 C 141.07505 77.335159 140.47974 77.993115 140.05347 78.823612 C 139.63454 79.65411 139.42508 80.57263 139.42508 81.579517 C 139.42508 82.564355 139.63805 83.453821 140.06432 84.247571 C 140.49059 85.041321 141.06385 85.666203 141.78411 86.121875 C 142.51171 86.570197 143.31298 86.794185 144.18758 86.794185 C 145.01808 86.794185 145.76372 86.610792 146.42517 86.243315 C 147.09398 85.875838 147.64169 85.346671 148.06796 84.655815 L 148.11189 84.655815 L 148.11189 84.898177 C 148.11189 86.154948 147.95404 87.238833 147.63802 88.150175 C 147.32198 89.054168 146.88452 89.745197 146.32595 90.222917 C 145.76739 90.693288 145.132 90.9283 144.41909 90.9283 C 143.68414 90.9283 143.08481 90.704312 142.62179 90.25599 C 142.15877 89.800319 141.83906 89.153387 141.66267 88.31554 L 139.70052 88.624565 C 139.82546 89.440363 140.09354 90.145919 140.50512 90.741231 C 140.92404 91.329195 141.45723 91.781191 142.10399 92.097221 C 142.7581 92.405902 143.49271 92.560242 144.3085 92.560242 C 146.18999 92.560242 147.62314 91.828618 148.60798 90.36606 C 149.59282 88.896153 150.08541 86.735389 150.08541 83.883769 C 150.08541 81.348179 149.60786 79.422428 148.65243 78.10686 C 147.70433 76.783944 146.31528 76.122485 144.48524 76.122485 z M 45.383276 77.472274 C 46.007987 77.472274 46.570227 77.644643 47.069995 77.990072 C 47.569764 78.328151 47.96262 78.791688 48.249251 79.379651 C 48.535883 79.960264 48.679199 80.595655 48.679199 81.286511 C 48.679199 81.955319 48.53238 82.558153 48.238399 83.09467 C 47.951767 83.631186 47.562414 84.050109 47.069995 84.35144 C 46.577576 84.645421 46.04439 84.79224 45.471126 84.79224 C 44.861115 84.79224 44.317422 84.641919 43.839701 84.340588 C 43.361982 84.031908 42.990658 83.605462 42.726074 83.061597 C 42.461491 82.510381 42.329199 81.881996 42.329199 81.17644 C 42.329199 80.500282 42.457988 79.879419 42.715222 79.313505 C 42.979806 78.747591 43.343608 78.299097 43.806628 77.968368 C 44.276999 77.637639 44.802663 77.472274 45.383276 77.472274 z M 96.969792 77.743058 C 97.594502 77.743058 98.156742 77.915945 98.65651 78.261373 C 99.156279 78.599451 99.549135 79.062472 99.835767 79.650435 C 100.1224 80.231049 100.26571 80.866957 100.26571 81.557812 C 100.26571 82.22662 100.1189 82.829455 99.824915 83.365971 C 99.538282 83.902488 99.148929 84.321411 98.65651 84.622742 C 98.164092 84.916723 97.630906 85.063542 97.057642 85.063542 C 96.44763 85.063542 95.903937 84.912704 95.426217 84.611373 C 94.948497 84.302693 94.577173 83.876764 94.31259 83.332898 C 94.048006 82.781683 93.915715 82.152781 93.915715 81.447225 C 93.915715 80.771068 94.044504 80.150204 94.301737 79.58429 C 94.566321 79.018375 94.930123 78.569881 95.393144 78.239152 C 95.863515 77.908423 96.389178 77.743058 96.969792 77.743058 z M 144.50694 77.743058 C 145.13165 77.743058 145.69389 77.915945 146.19366 78.261373 C 146.69343 78.599451 147.0868 79.062472 147.37343 79.650435 C 147.66006 80.231049 147.80338 80.866957 147.80338 81.557812 C 147.80338 82.22662 147.65656 82.829455 147.36258 83.365971 C 147.07595 83.902488 146.68608 84.321411 146.19366 84.622742 C 145.70124 84.916723 145.16857 85.063542 144.59531 85.063542 C 143.9853 85.063542 143.4416 84.912704 142.96388 84.611373 C 142.48616 84.302693 142.11484 83.876764 141.85026 83.332898 C 141.58568 82.781683 141.45338 82.152781 141.45338 81.447225 C 141.45338 80.771068 141.58217 80.150204 141.8394 79.58429 C 142.10398 79.018375 142.46778 78.569881 142.93081 78.239152 C 143.40118 77.908423 143.92633 77.743058 144.50694 77.743058 z M 70.023633 99.824398 C 69.031445 99.824398 68.149501 100.06693 67.377799 100.552 C 66.613448 101.03707 66.018135 101.69503 65.591862 102.52552 C 65.172938 103.35602 64.963477 104.27454 64.963477 105.28143 C 64.963477 106.26627 65.176441 107.15573 65.602714 107.94948 C 66.028987 108.74323 66.602251 109.36811 67.322506 109.82379 C 68.05011 110.27211 68.851382 110.4961 69.725977 110.4961 C 70.556474 110.4961 71.302624 110.31218 71.964083 109.94471 C 72.632891 109.57723 73.180087 109.04806 73.60636 108.35721 L 73.650802 108.35721 L 73.650802 108.60009 C 73.650802 109.85686 73.492442 110.94075 73.176412 111.85209 C 72.860382 112.75608 72.423429 113.4471 71.864864 113.92483 C 71.306299 114.3952 70.670392 114.63021 69.957487 114.63021 C 69.222533 114.63021 68.623718 114.40622 68.160697 113.9579 C 67.697677 113.50223 67.377971 112.8553 67.201583 112.01745 L 65.238912 112.32596 C 65.363854 113.14176 65.632457 113.84731 66.044031 114.44263 C 66.462954 115.03059 66.995623 115.48258 67.642383 115.79862 C 68.296491 116.1073 69.031618 116.26164 69.847416 116.26164 C 71.728898 116.26164 73.162058 115.53053 74.146895 114.06797 C 75.131734 112.59807 75.623808 110.4373 75.623808 107.58568 C 75.623808 105.05009 75.14626 103.12434 74.19082 101.80877 C 73.24273 100.48586 71.853668 99.824398 70.023633 99.824398 z M 120.92544 99.837317 C 119.93324 99.837317 119.0513 100.07985 118.2796 100.56492 C 117.51525 101.04999 116.91994 101.70794 116.49366 102.53844 C 116.07474 103.36894 115.86528 104.28746 115.86528 105.29435 C 115.86528 106.27919 116.07824 107.16866 116.50452 107.9624 C 116.9308 108.75615 117.50406 109.38052 118.22431 109.83619 C 118.95191 110.28451 119.75319 110.50902 120.62778 110.50902 C 121.45828 110.50902 122.20391 110.3251 122.86537 109.95763 C 123.53417 109.59015 124.08189 109.06099 124.50816 108.37013 L 124.55209 108.37013 L 124.55209 108.61249 C 124.55209 109.86926 124.39425 110.95367 124.07821 111.86501 C 123.76218 112.769 123.32471 113.45951 122.76615 113.93723 C 122.20758 114.4076 121.5722 114.64313 120.85929 114.64313 C 120.12434 114.64313 119.525 114.41862 119.06198 113.9703 C 118.59896 113.51463 118.27926 112.86822 118.10287 112.03037 L 116.14071 112.33888 C 116.26566 113.15468 116.53374 113.86023 116.94532 114.45555 C 117.36424 115.04351 117.89743 115.4955 118.54419 115.81154 C 119.1983 116.12022 119.9329 116.27456 120.7487 116.27456 C 122.63018 116.27456 124.06334 115.54345 125.04818 114.08089 C 126.03302 112.61099 126.52561 110.45022 126.52561 107.5986 C 126.52561 105.06301 126.04806 103.13726 125.09262 101.82169 C 124.14453 100.49878 122.75547 99.837317 120.92544 99.837317 z M 70.045854 101.44497 C 70.670564 101.44497 71.232804 101.61786 71.732572 101.96329 C 72.232341 102.30136 72.625197 102.76438 72.911829 103.35235 C 73.19846 103.93296 73.341777 104.56887 73.341777 105.25972 C 73.341777 105.92854 73.194958 106.53085 72.900977 107.06737 C 72.614344 107.60389 72.224991 108.02281 71.732572 108.32414 C 71.240154 108.61812 70.706968 108.76545 70.133704 108.76545 C 69.523692 108.76545 68.979999 108.61462 68.502279 108.31329 C 68.024559 108.00461 67.653235 107.57816 67.388652 107.03429 C 67.124068 106.48307 66.991777 105.85469 66.991777 105.14914 C 66.991777 104.47298 67.120566 103.85211 67.377799 103.2862 C 67.642383 102.72029 68.006185 102.2718 68.469206 101.94106 C 68.939577 101.61034 69.46524 101.44497 70.045854 101.44497 z M 120.94714 101.45789 C 121.57185 101.45789 122.13409 101.63078 122.63386 101.9762 C 123.13363 102.31428 123.527 102.77731 123.81363 103.36527 C 124.10026 103.94589 124.24358 104.58127 124.24358 105.27213 C 124.24358 105.94093 124.09677 106.54377 123.80278 107.08029 C 123.51615 107.6168 123.12628 108.03572 122.63386 108.33706 C 122.14145 108.63104 121.60877 108.77786 121.03551 108.77786 C 120.42549 108.77786 119.8818 108.62753 119.40408 108.3262 C 118.92636 108.01752 118.55504 107.59108 118.29045 107.04721 C 118.02587 106.49599 117.89358 105.86761 117.89358 105.16206 C 117.89358 104.4859 118.02237 103.86503 118.2796 103.29912 C 118.54419 102.73321 118.90799 102.28472 119.37101 101.95398 C 119.84137 101.62326 120.36653 101.45789 120.94714 101.45789 z " />
  </g>
</svg>
