<?xml version="1.0" encoding="UTF-8" standalone="no"?>
<!-- Created with Inkscape (http://www.inkscape.org/) -->

<svg
   width="720"
   height="720"
   viewBox="0 0 190.5 190.5"
   version="1.1"
   id="svg5"
   sodipodi:docname="5nine.svg"
   inkscape:version="1.2.1 (9c6d41e410, 2022-07-14)"
   xmlns:inkscape="http://www.inkscape.org/namespaces/inkscape"
   xmlns:sodipodi="http://sodipodi.sourceforge.net/DTD/sodipodi-0.dtd"
   xmlns="http://www.w3.org/2000/svg"
   xmlns:svg="http://www.w3.org/2000/svg">
  <sodipodi:namedview
     id="namedview7"
     pagecolor="#ffffff"
     bordercolor="#000000"
     borderopacity="0.25"
     inkscape:showpageshadow="2"
     inkscape:pageopacity="0.0"
     inkscape:pagecheckerboard="0"
     inkscape:deskcolor="#d1d1d1"
     inkscape:document-units="mm"
     showgrid="true"
     inkscape:zoom="1.0255231"
     inkscape:cx="377.85594"
     inkscape:cy="365.66704"
     inkscape:window-width="1520"
     inkscape:window-height="1030"
     inkscape:window-x="10"
     inkscape:window-y="0"
     inkscape:window-maximized="0"
     inkscape:current-layer="layer1">
    <inkscape:grid
       type="xygrid"
       id="grid9"
       spacingx="19.05"
       spacingy="19.05" />
  </sodipodi:namedview>
  <defs
     id="defs2" />
  <g
     inkscape:label="Ebene 1"
     inkscape:groupmode="layer"
     id="layer1">
    <path
       id="path3607"
       style="font-size:22.5778px;font-family:'Arial Nova';-inkscape-font-specification:'Arial Nova';stroke-width:0.264583"
       d="M 38.625033 75.851701 L 38.625033 78.100659 L 40.609408 78.100659 L 40.609408 75.851701 L 38.625033 75.851701 z M 90.211548 76.122485 L 90.211548 78.371444 L 92.195923 78.371444 L 92.195923 76.122485 L 90.211548 76.122485 z M 137.74921 76.122485 L 137.74921 78.371444 L 139.73359 78.371444 L 139.73359 76.122485 L 137.74921 76.122485 z M 31.503503 80.051961 C 30.746501 80.051961 30.055472 80.220828 29.430762 80.558907 C 28.813401 80.896985 28.310302 81.360006 27.920776 81.94797 L 27.920776 80.316545 L 26.068693 80.316545 L 26.068693 92.013505 L 28.053068 92.013505 L 28.053068 85.49814 C 28.053068 84.197272 28.324657 83.249182 28.868522 82.65387 C 29.419738 82.058557 30.187937 81.760901 31.172774 81.760901 C 31.951825 81.760901 32.55466 81.981387 32.980933 82.422359 C 33.407206 82.863331 33.62017 83.509746 33.62017 84.362292 L 33.62017 92.013505 L 35.604545 92.013505 L 35.604545 84.097709 C 35.604545 82.796841 35.259289 81.797649 34.568433 81.099443 C 33.877576 80.401237 32.855818 80.051961 31.503503 80.051961 z M 49.109147 80.051961 C 48.352145 80.051961 47.661633 80.220828 47.036922 80.558907 C 46.419561 80.896985 45.915946 81.360006 45.52642 81.94797 L 45.52642 80.316545 L 43.674337 80.316545 L 43.674337 92.013505 L 45.658712 92.013505 L 45.658712 85.49814 C 45.658712 84.197272 45.930817 83.249182 46.474683 82.65387 C 47.025898 82.058557 47.79358 81.760901 48.778418 81.760901 C 49.557469 81.760901 50.160303 81.981387 50.586576 82.422359 C 51.01285 82.863331 51.225814 83.509746 51.225814 84.362292 L 51.225814 92.013505 L 53.210189 92.013505 L 53.210189 84.097709 C 53.210189 82.796841 52.864933 81.797649 52.174076 81.099443 C 51.48322 80.401237 50.461462 80.051961 49.109147 80.051961 z M 60.971472 80.051961 C 59.854343 80.051961 58.880701 80.30552 58.050203 80.812638 C 57.227055 81.319757 56.594651 82.039839 56.153678 82.97323 C 55.712706 83.906621 55.49222 85.002046 55.49222 86.258818 C 55.49222 87.47884 55.716725 88.544179 56.165047 89.455522 C 56.613369 90.359515 57.24876 91.058065 58.071908 91.550484 C 58.902405 92.042903 59.876563 92.28894 60.993693 92.28894 C 62.265163 92.28894 63.35255 91.961714 64.256543 91.307605 C 65.167885 90.646146 65.789265 89.724124 66.119995 88.540849 L 64.179545 88.243193 C 63.966409 88.970796 63.584061 89.555085 63.032845 89.996057 C 62.48898 90.437029 61.842565 90.657515 61.092912 90.657515 C 60.409405 90.657515 59.806571 90.503175 59.284753 90.194495 C 58.770286 89.878464 58.362387 89.422449 58.061056 88.827136 C 57.759727 88.224474 57.586841 87.504392 57.542741 86.666545 L 66.296212 86.666545 L 66.296212 86.258818 C 66.296212 84.9506 66.079228 83.829623 65.645605 82.896232 C 65.211983 81.962841 64.594621 81.257286 63.793522 80.779565 C 62.992422 80.294496 62.051854 80.051961 60.971472 80.051961 z M 38.625033 80.316545 L 38.625033 92.013505 L 40.609408 92.013505 L 40.609408 80.316545 L 38.625033 80.316545 z M 83.090019 80.322746 C 82.333016 80.322746 81.641988 80.492129 81.017277 80.830208 C 80.399916 81.168287 79.896817 81.631308 79.507292 82.219271 L 79.507292 80.587329 L 77.655208 80.587329 L 77.655208 92.28429 L 79.639583 92.28429 L 79.639583 85.768925 C 79.639583 84.468057 79.911172 83.519966 80.455037 82.924654 C 81.006253 82.329341 81.774452 82.031685 82.75929 82.031685 C 83.538341 82.031685 84.141175 82.252171 84.567448 82.693144 C 84.993721 83.134116 85.206685 83.781047 85.206685 84.633594 L 85.206685 92.28429 L 87.19106 92.28429 L 87.19106 84.36901 C 87.19106 83.068142 86.845805 82.068433 86.154948 81.370227 C 85.464091 80.672021 84.442333 80.322746 83.090019 80.322746 z M 100.69566 80.322746 C 99.938658 80.322746 99.248148 80.492129 98.623437 80.830208 C 98.006077 81.168287 97.502461 81.631308 97.112935 82.219271 L 97.112935 80.587329 L 95.260852 80.587329 L 95.260852 92.28429 L 97.245227 92.28429 L 97.245227 85.768925 C 97.245227 84.468057 97.517332 83.519966 98.061198 82.924654 C 98.612413 82.329341 99.380094 82.031685 100.36493 82.031685 C 101.14398 82.031685 101.74681 82.252171 102.17309 82.693144 C 102.59936 83.134116 102.81233 83.781047 102.81233 84.633594 L 102.81233 92.28429 L 104.7967 92.28429 L 104.7967 84.36901 C 104.7967 83.068142 104.45144 82.068433 103.76059 81.370227 C 103.06973 80.672021 102.04797 80.322746 100.69566 80.322746 z M 112.55799 80.322746 C 111.44086 80.322746 110.46721 80.576305 109.63672 81.083423 C 108.81357 81.590541 108.18117 82.31114 107.74019 83.244531 C 107.29923 84.177922 107.07874 85.272831 107.07874 86.529602 C 107.07874 87.749625 107.30324 88.81548 107.75156 89.726823 C 108.19988 90.630816 108.83527 91.32885 109.65842 91.821269 C 110.48892 92.313688 111.46308 92.560242 112.58021 92.560242 C 113.85168 92.560242 114.93958 92.233016 115.84358 91.578906 C 116.75491 90.917448 117.37578 89.994909 117.70651 88.811633 L 115.76606 88.513977 C 115.55292 89.241582 115.17109 89.825869 114.61988 90.266842 C 114.07601 90.707814 113.42908 90.9283 112.67943 90.9283 C 111.99592 90.9283 111.39309 90.77396 110.87127 90.465279 C 110.3568 90.149249 109.9489 89.69375 109.64757 89.098437 C 109.34621 88.495775 109.17332 87.775693 109.12926 86.937846 L 117.88273 86.937846 L 117.88273 86.529602 C 117.88273 85.221385 117.66626 84.100924 117.23264 83.167533 C 116.79902 82.234142 116.18165 81.528069 115.38055 81.05035 C 114.57946 80.56528 113.63837 80.322746 112.55799 80.322746 z M 130.62769 80.322746 C 129.87068 80.322746 129.17965 80.492129 128.55494 80.830208 C 127.93758 81.168287 127.43448 81.631308 127.04496 82.219271 L 127.04496 80.587329 L 125.19288 80.587329 L 125.19288 92.28429 L 127.17725 92.28429 L 127.17725 85.768925 C 127.17725 84.468057 127.44884 83.519966 127.9927 82.924654 C 128.54392 82.329341 129.31212 82.031685 130.29696 82.031685 C 131.07601 82.031685 131.67884 82.252171 132.10511 82.693144 C 132.53139 83.134116 132.74435 83.781047 132.74435 84.633594 L 132.74435 92.28429 L 134.72873 92.28429 L 134.72873 84.36901 C 134.72873 83.068142 134.38347 82.068433 133.69261 81.370227 C 133.00176 80.672021 131.98 80.322746 130.62769 80.322746 z M 148.23333 80.322746 C 147.47633 80.322746 146.78582 80.492129 146.1611 80.830208 C 145.54374 81.168287 145.04013 81.631308 144.6506 82.219271 L 144.6506 80.587329 L 142.79852 80.587329 L 142.79852 92.28429 L 144.78289 92.28429 L 144.78289 85.768925 C 144.78289 84.468057 145.055 83.519966 145.59886 82.924654 C 146.15008 82.329341 146.91777 82.031685 147.9026 82.031685 C 148.68165 82.031685 149.28449 82.252171 149.71076 82.693144 C 150.13703 83.134116 150.35 83.781047 150.35 84.633594 L 150.35 92.28429 L 152.33437 92.28429 L 152.33437 84.36901 C 152.33437 83.068142 151.98912 82.068433 151.29826 81.370227 C 150.60741 80.672021 149.58565 80.322746 148.23333 80.322746 z M 160.09565 80.322746 C 158.97852 80.322746 158.00488 80.576305 157.17439 81.083423 C 156.35124 81.590541 155.71883 82.31114 155.27786 83.244531 C 154.83689 84.177922 154.6164 85.272831 154.6164 86.529602 C 154.6164 87.749625 154.8409 88.81548 155.28923 89.726823 C 155.73755 90.630816 156.37294 91.32885 157.19609 91.821269 C 158.02659 92.313688 159.00074 92.560242 160.11788 92.560242 C 161.38934 92.560242 162.47673 92.233016 163.38073 91.578906 C 164.29207 90.917448 164.91345 89.994909 165.24418 88.811633 L 163.30373 88.513977 C 163.09059 89.241582 162.70825 89.825869 162.15703 90.266842 C 161.61317 90.707814 160.96675 90.9283 160.21709 90.9283 C 159.53359 90.9283 158.93075 90.77396 158.40894 90.465279 C 157.89446 90.149249 157.48656 89.69375 157.18524 89.098437 C 156.88394 88.495775 156.71106 87.775693 156.66692 86.937846 L 165.42039 86.937846 L 165.42039 86.529602 C 165.42039 85.221385 165.20341 84.100924 164.76979 83.167533 C 164.33616 82.234142 163.7188 81.528069 162.9177 81.05035 C 162.11661 80.56528 161.17603 80.322746 160.09565 80.322746 z M 90.211548 80.587329 L 90.211548 92.28429 L 92.195923 92.28429 L 92.195923 80.587329 L 90.211548 80.587329 z M 137.74921 80.587329 L 137.74921 92.28429 L 139.73359 92.28429 L 139.73359 80.587329 L 137.74921 80.587329 z M 60.949251 81.672534 C 61.875293 81.672534 62.617941 81.962669 63.176506 82.543282 C 63.74242 83.123895 64.084173 83.954738 64.201766 85.03512 L 57.608887 85.03512 C 57.697081 84.366312 57.892016 83.778004 58.193347 83.270886 C 58.502028 82.763768 58.891381 82.370912 59.361751 82.09163 C 59.832122 81.812348 60.361289 81.672534 60.949251 81.672534 z M 112.53577 81.943319 C 113.46181 81.943319 114.20446 82.23397 114.76302 82.814583 C 115.32894 83.395197 115.67069 84.225523 115.78828 85.305904 L 109.1954 85.305904 C 109.2836 84.637096 109.47854 84.049306 109.77986 83.542187 C 110.08854 83.03507 110.47789 82.641697 110.94827 82.362415 C 111.41864 82.083132 111.94781 81.943319 112.53577 81.943319 z M 160.07343 81.943319 C 160.99947 81.943319 161.74212 82.23397 162.30069 82.814583 C 162.8666 83.395197 163.20835 84.225523 163.32595 85.305904 L 156.73307 85.305904 C 156.82126 84.637096 157.0162 84.049306 157.31753 83.542187 C 157.62621 83.03507 158.01556 82.641697 158.48593 82.362415 C 158.9563 82.083132 159.48547 81.943319 160.07343 81.943319 z M 63.28761 99.824398 L 63.28761 102.07336 L 65.271985 102.07336 L 65.271985 99.824398 L 63.28761 99.824398 z M 114.18941 99.837317 L 114.18941 102.08628 L 116.17379 102.08628 L 116.17379 99.837317 L 114.18941 99.837317 z M 56.166081 104.02466 C 55.409078 104.02466 54.71805 104.19404 54.093339 104.53212 C 53.475978 104.8702 52.972879 105.33322 52.583354 105.92118 L 52.583354 104.28924 L 50.73127 104.28924 L 50.73127 115.9862 L 52.715645 115.9862 L 52.715645 109.47084 C 52.715645 108.16997 52.987233 107.22188 53.531099 106.62657 C 54.082315 106.03125 54.850514 105.7336 55.835352 105.7336 C 56.614403 105.7336 57.217237 105.95408 57.64351 106.39506 C 58.069783 106.83603 58.282747 107.48296 58.282747 108.33551 L 58.282747 115.9862 L 60.267122 115.9862 L 60.267122 108.07092 C 60.267122 106.77006 59.921866 105.77035 59.23101 105.07214 C 58.540153 104.37393 57.518395 104.02466 56.166081 104.02466 z M 73.771724 104.02466 C 73.014722 104.02466 72.32421 104.19404 71.6995 104.53212 C 71.082138 104.8702 70.578522 105.33322 70.188997 105.92118 L 70.188997 104.28924 L 68.336914 104.28924 L 68.336914 115.9862 L 70.321289 115.9862 L 70.321289 109.47084 C 70.321289 108.16997 70.593394 107.22188 71.13726 106.62657 C 71.688475 106.03125 72.456158 105.7336 73.440995 105.7336 C 74.220047 105.7336 74.822881 105.95408 75.249154 106.39506 C 75.675427 106.83603 75.888391 107.48296 75.888391 108.33551 L 75.888391 115.9862 L 77.872766 115.9862 L 77.872766 108.07092 C 77.872766 106.77006 77.52751 105.77035 76.836654 105.07214 C 76.145797 104.37393 75.124039 104.02466 73.771724 104.02466 z M 85.634049 104.02466 C 84.516919 104.02466 83.543278 104.27822 82.712781 104.78534 C 81.889632 105.29245 81.257228 106.01305 80.816256 106.94644 C 80.375283 107.87984 80.154797 108.97474 80.154797 110.23151 C 80.154797 111.45154 80.379303 112.5174 80.827625 113.42874 C 81.275947 114.33273 81.911337 115.03076 82.734485 115.52318 C 83.564983 116.0156 84.539141 116.26164 85.65627 116.26164 C 86.92774 116.26164 88.015127 115.93492 88.91912 115.28082 C 89.830463 114.61936 90.451843 113.69682 90.782572 112.51355 L 88.842122 112.21589 C 88.628986 112.94349 88.246638 113.52778 87.695422 113.96875 C 87.151556 114.40973 86.505142 114.63021 85.755489 114.63021 C 85.071982 114.63021 84.469148 114.47587 83.947331 114.16719 C 83.432863 113.85116 83.024964 113.39566 82.723633 112.80035 C 82.422304 112.19768 82.249418 111.47709 82.205318 110.63924 L 90.958789 110.63924 L 90.958789 110.23151 C 90.958789 108.9233 90.741806 107.80232 90.308183 106.86893 C 89.87456 105.93554 89.257199 105.22998 88.456099 104.75226 C 87.655 104.2672 86.714431 104.02466 85.634049 104.02466 z M 107.06788 104.03758 C 106.31088 104.03758 105.61985 104.20644 104.99514 104.54452 C 104.37778 104.8826 103.87416 105.34563 103.48464 105.93359 L 103.48464 104.30216 L 101.63256 104.30216 L 101.63256 115.99912 L 103.61693 115.99912 L 103.61693 109.48376 C 103.61693 108.18289 103.88904 107.2348 104.4329 106.63949 C 104.98411 106.04417 105.75232 105.74652 106.73715 105.74652 C 107.51621 105.74652 108.11852 105.967 108.5448 106.40798 C 108.97107 106.84895 109.18455 107.49536 109.18455 108.34791 L 109.18455 115.99912 L 111.16892 115.99912 L 111.16892 108.08333 C 111.16892 106.78246 110.82315 105.78326 110.1323 105.08506 C 109.44144 104.38685 108.4202 104.03758 107.06788 104.03758 z M 124.67353 104.03758 C 123.91653 104.03758 123.2255 104.20644 122.60079 104.54452 C 121.98343 104.8826 121.48033 105.34563 121.0908 105.93359 L 121.0908 104.30216 L 119.23872 104.30216 L 119.23872 115.99912 L 121.22309 115.99912 L 121.22309 109.48376 C 121.22309 108.18289 121.49468 107.2348 122.03855 106.63949 C 122.58977 106.04417 123.35797 105.74652 124.3428 105.74652 C 125.12185 105.74652 125.72468 105.967 126.15096 106.40798 C 126.57723 106.84895 126.79019 107.49536 126.79019 108.34791 L 126.79019 115.99912 L 128.77457 115.99912 L 128.77457 108.08333 C 128.77457 106.78246 128.42932 105.78326 127.73846 105.08506 C 127.0476 104.38685 126.02585 104.03758 124.67353 104.03758 z M 136.53585 104.03758 C 135.41872 104.03758 134.44457 104.29113 133.61407 104.79825 C 132.79092 105.30537 132.15903 106.02545 131.71806 106.95885 C 131.27709 107.89224 131.0566 108.98766 131.0566 110.24443 C 131.0566 111.46446 131.28059 112.5298 131.72891 113.44114 C 132.17724 114.34513 132.81314 115.04368 133.63629 115.5361 C 134.46679 116.02852 135.44042 116.27456 136.55756 116.27456 C 137.82902 116.27456 138.91693 115.94733 139.82092 115.29322 C 140.73227 114.63176 141.35313 113.70974 141.68386 112.52646 L 139.74392 112.22881 C 139.53079 112.95641 139.14844 113.5407 138.59722 113.98167 C 138.05336 114.42265 137.40643 114.64313 136.65677 114.64313 C 135.97327 114.64313 135.37095 114.48879 134.84913 114.18011 C 134.33466 113.86408 133.92676 113.40807 133.62544 112.81275 C 133.32407 112.21009 133.15119 111.49001 133.10712 110.65216 L 141.86059 110.65216 L 141.86059 110.24443 C 141.86059 108.93621 141.6436 107.81524 141.20999 106.88185 C 140.77636 105.94846 140.159 105.2429 139.3579 104.76518 C 138.5568 104.28012 137.61623 104.03758 136.53585 104.03758 z M 63.28761 104.28924 L 63.28761 115.9862 L 65.271985 115.9862 L 65.271985 104.28924 L 63.28761 104.28924 z M 114.18941 104.30216 L 114.18941 115.99912 L 116.17379 115.99912 L 116.17379 104.30216 L 114.18941 104.30216 z M 85.611829 105.64523 C 86.53787 105.64523 87.280518 105.93588 87.839083 106.5165 C 88.404997 107.09712 88.746751 107.92744 88.864343 109.00782 L 82.271464 109.00782 C 82.359659 108.33901 82.554593 107.75122 82.855924 107.2441 C 83.164605 106.73698 83.553958 106.34361 84.024329 106.06433 C 84.494699 105.78504 85.023866 105.64523 85.611829 105.64523 z M 136.51363 105.65815 C 137.43967 105.65815 138.1818 105.94829 138.74037 106.5289 C 139.30628 107.10951 139.64804 107.94035 139.76563 109.02074 L 133.17327 109.02074 C 133.26146 108.35193 133.45639 107.76362 133.75773 107.2565 C 134.06641 106.74938 134.45576 106.35653 134.92613 106.07725 C 135.3965 105.79796 135.92567 105.65815 136.51363 105.65815 z " />
  </g>
</svg>
