<?xml version="1.0" encoding="UTF-8" standalone="no"?>
<!-- Created with Inkscape (http://www.inkscape.org/) -->

<svg
   width="720"
   height="720"
   viewBox="0 0 190.5 190.5"
   version="1.1"
   id="svg5"
   sodipodi:docname="5W.svg"
   inkscape:version="1.2.1 (9c6d41e410, 2022-07-14)"
   xmlns:inkscape="http://www.inkscape.org/namespaces/inkscape"
   xmlns:sodipodi="http://sodipodi.sourceforge.net/DTD/sodipodi-0.dtd"
   xmlns="http://www.w3.org/2000/svg"
   xmlns:svg="http://www.w3.org/2000/svg">
  <sodipodi:namedview
     id="namedview7"
     pagecolor="#ffffff"
     bordercolor="#000000"
     borderopacity="0.25"
     inkscape:showpageshadow="2"
     inkscape:pageopacity="0.0"
     inkscape:pagecheckerboard="0"
     inkscape:deskcolor="#d1d1d1"
     inkscape:document-units="mm"
     showgrid="true"
     inkscape:zoom="1.0255231"
     inkscape:cx="377.85594"
     inkscape:cy="365.66704"
     inkscape:window-width="1520"
     inkscape:window-height="1030"
     inkscape:window-x="10"
     inkscape:window-y="0"
     inkscape:window-maximized="0"
     inkscape:current-layer="layer1">
    <inkscape:grid
       type="xygrid"
       id="grid9"
       spacingx="19.05"
       spacingy="19.05" />
  </sodipodi:namedview>
  <defs
     id="defs2" />
  <g
     inkscape:label="Ebene 1"
     inkscape:groupmode="layer"
     id="layer1">
    <path
       id="path3445"
       style="font-size:22.5778px;font-family:'Arial Nova';-inkscape-font-specification:'Arial Nova';stroke-width:0.264583"
       d="M 36.497514 75.851701 L 40.598556 92.013505 L 42.748295 92.013505 L 46.011662 79.71038 C 46.166002 79.122417 46.290772 78.559661 46.386316 78.023145 C 46.452462 78.346524 46.555183 78.780492 46.694824 79.324357 L 49.969043 92.013505 L 52.118783 92.013505 L 56.297339 75.851701 L 54.147599 75.851701 L 51.766349 86.071232 C 51.362125 87.813072 51.11959 88.948576 51.038745 89.477743 C 50.877055 88.294467 50.645545 87.129393 50.344214 85.982865 L 47.720085 75.851701 L 45.162618 75.851701 L 42.318347 86.62262 C 42.193405 87.10034 42.072138 87.607458 41.954545 88.143974 C 41.844302 88.68049 41.763629 89.124965 41.712183 89.477743 C 41.587241 88.514953 41.395808 87.486191 41.138574 86.391109 L 38.680326 75.851701 L 36.497514 75.851701 z M 88.084029 76.122485 L 92.185071 92.28429 L 94.33481 92.28429 L 97.598177 79.981165 C 97.752518 79.393202 97.877287 78.830962 97.972831 78.294446 C 98.038977 78.617825 98.141698 79.051276 98.28134 79.595142 L 101.55556 92.28429 L 103.7053 92.28429 L 107.88385 76.122485 L 105.73411 76.122485 L 103.35286 86.342533 C 102.94864 88.084374 102.70611 89.219877 102.62526 89.749044 C 102.46357 88.565768 102.23206 87.400695 101.93073 86.254167 L 99.3066 76.122485 L 96.749133 76.122485 L 93.904862 86.893404 C 93.77992 87.371124 93.658653 87.878242 93.54106 88.414758 C 93.430817 88.951275 93.350145 89.396266 93.298698 89.749044 C 93.173756 88.786254 92.982323 87.756975 92.72509 86.661894 L 90.266842 76.122485 L 88.084029 76.122485 z M 135.6217 76.122485 L 139.72274 92.28429 L 141.87248 92.28429 L 145.13533 79.981165 C 145.28967 79.393202 145.41496 78.830962 145.5105 78.294446 C 145.57664 78.617825 145.67937 79.051276 145.81901 79.595142 L 149.09323 92.28429 L 151.24296 92.28429 L 155.421 76.122485 L 153.27126 76.122485 L 150.89001 86.342533 C 150.48579 88.084374 150.24326 89.219877 150.16241 89.749044 C 150.00072 88.565768 149.76921 87.400695 149.46788 86.254167 L 146.84427 76.122485 L 144.2868 76.122485 L 141.44253 86.893404 C 141.31759 87.371124 141.19632 87.878242 141.07873 88.414758 C 140.9685 88.951275 140.88731 89.396266 140.83585 89.749044 C 140.71091 88.786254 140.51999 87.756975 140.26276 86.661894 L 137.80451 76.122485 L 135.6217 76.122485 z M 61.160091 99.824398 L 65.261133 115.9862 L 67.410872 115.9862 L 70.674239 103.68308 C 70.82858 103.09511 70.953349 102.53288 71.048893 101.99636 C 71.115038 102.31974 71.21776 102.75319 71.357402 103.29705 L 74.63162 115.9862 L 76.78136 115.9862 L 80.959916 99.824398 L 78.810177 99.824398 L 76.428927 110.04393 C 76.024702 111.78577 75.782168 112.92127 75.701322 113.45044 C 75.539633 112.26716 75.308122 111.1026 75.006791 109.95608 L 72.382662 99.824398 L 69.825195 99.824398 L 66.980924 110.59532 C 66.855982 111.07304 66.734715 111.58015 66.617122 112.11667 C 66.506879 112.65318 66.426207 113.09766 66.37476 113.45044 C 66.249818 112.48765 66.058385 111.45889 65.801152 110.36381 L 63.342904 99.824398 L 61.160091 99.824398 z M 112.06189 99.837317 L 116.16294 115.99912 L 118.31267 115.99912 L 121.57552 103.696 C 121.72986 103.10804 121.85515 102.5458 121.9507 102.00928 C 122.01684 102.33266 122.11956 102.76611 122.2592 103.30997 L 125.53342 115.99912 L 127.68316 115.99912 L 131.8612 99.837317 L 129.71146 99.837317 L 127.33021 110.05685 C 126.92599 111.79869 126.68345 112.93419 126.60261 113.46336 C 126.44092 112.28008 126.2094 111.11501 125.90808 109.96848 L 123.28446 99.837317 L 120.727 99.837317 L 117.88273 110.60824 C 117.75779 111.08596 117.63652 111.59307 117.51892 112.12959 C 117.40871 112.6661 117.32751 113.11058 117.27605 113.46336 C 117.1511 112.50057 116.96019 111.4718 116.70295 110.37673 L 114.24471 99.837317 L 112.06189 99.837317 z " />
  </g>
</svg>
