<?xml version="1.0" encoding="UTF-8" standalone="no"?>
<!-- Created with Inkscape (http://www.inkscape.org/) -->

<svg
   width="720"
   height="720"
   viewBox="0 0 190.5 190.5"
   version="1.1"
   id="svg5"
   sodipodi:docname="64.svg"
   inkscape:version="1.2.1 (9c6d41e410, 2022-07-14)"
   xmlns:inkscape="http://www.inkscape.org/namespaces/inkscape"
   xmlns:sodipodi="http://sodipodi.sourceforge.net/DTD/sodipodi-0.dtd"
   xmlns="http://www.w3.org/2000/svg"
   xmlns:svg="http://www.w3.org/2000/svg">
  <sodipodi:namedview
     id="namedview7"
     pagecolor="#ffffff"
     bordercolor="#000000"
     borderopacity="0.25"
     inkscape:showpageshadow="2"
     inkscape:pageopacity="0.0"
     inkscape:pagecheckerboard="0"
     inkscape:deskcolor="#d1d1d1"
     inkscape:document-units="mm"
     showgrid="true"
     inkscape:zoom="1.0255231"
     inkscape:cx="342.75192"
     inkscape:cy="395.89553"
     inkscape:window-width="1520"
     inkscape:window-height="1030"
     inkscape:window-x="10"
     inkscape:window-y="1"
     inkscape:window-maximized="0"
     inkscape:current-layer="layer1">
    <inkscape:grid
       type="xygrid"
       id="grid9"
       spacingx="19.05"
       spacingy="19.05" />
  </sodipodi:namedview>
  <defs
     id="defs2">
    <rect
       x="67.282738"
       y="190.14687"
       width="570.4406"
       height="346.16481"
       id="rect2264" />
  </defs>
  <g
     inkscape:label="Ebene 1"
     inkscape:groupmode="layer"
     id="layer1">
    <path
       id="path2680"
       style="font-size:22.5778px;font-family:'Arial Nova';-inkscape-font-specification:'Arial Nova';stroke-width:0.264583"
       d="M 47.458602 74.817139 L 40.105562 85.290401 L 40.105562 87.120264 L 47.105652 87.120264 L 47.105652 90.978943 L 49.090027 90.978943 L 49.090027 87.120264 L 51.272839 87.120264 L 51.272839 85.290401 L 49.090027 85.290401 L 49.090027 74.817139 L 47.458602 74.817139 z M 99.045117 75.08844 L 91.692078 85.561702 L 91.692078 87.391565 L 98.692167 87.391565 L 98.692167 91.250244 L 100.67654 91.250244 L 100.67654 87.391565 L 102.85935 87.391565 L 102.85935 85.561702 L 100.67654 85.561702 L 100.67654 75.08844 L 99.045117 75.08844 z M 146.58227 75.08844 L 139.22923 85.561702 L 139.22923 87.391565 L 146.22983 87.391565 L 146.22983 91.250244 L 148.21421 91.250244 L 148.21421 87.391565 L 150.39702 87.391565 L 150.39702 85.561702 L 148.21421 85.561702 L 148.21421 75.08844 L 146.58227 75.08844 z M 47.061727 78.289795 L 47.105652 78.289795 L 47.105652 85.290401 L 42.133862 85.290401 L 47.061727 78.289795 z M 98.648242 78.561096 L 98.692167 78.561096 L 98.692167 85.561702 L 93.720378 85.561702 L 98.648242 78.561096 z M 146.18539 78.561096 L 146.22983 78.561096 L 146.22983 85.561702 L 141.25753 85.561702 L 146.18539 78.561096 z M 47.033822 99.370679 L 39.680782 109.84394 L 39.680782 111.6738 L 46.681388 111.6738 L 46.681388 115.53248 L 48.665763 115.53248 L 48.665763 111.6738 L 50.848576 111.6738 L 50.848576 109.84394 L 48.665763 109.84394 L 48.665763 99.370679 L 47.033822 99.370679 z M 98.620337 99.64198 L 91.267297 110.11473 L 91.267297 111.9451 L 98.267904 111.9451 L 98.267904 115.80327 L 100.25228 115.80327 L 100.25228 111.9451 L 102.43509 111.9451 L 102.43509 110.11473 L 100.25228 110.11473 L 100.25228 99.64198 L 98.620337 99.64198 z M 146.158 99.64198 L 138.80445 110.11473 L 138.80445 111.9451 L 145.80505 111.9451 L 145.80505 115.80327 L 147.78943 115.80327 L 147.78943 111.9451 L 149.97224 111.9451 L 149.97224 110.11473 L 147.78943 110.11473 L 147.78943 99.64198 L 146.158 99.64198 z M 46.636947 102.84333 L 46.681388 102.84333 L 46.681388 109.84394 L 41.709082 109.84394 L 46.636947 102.84333 z M 98.223462 103.11464 L 98.267904 103.11464 L 98.267904 110.11473 L 93.295597 110.11473 L 98.223462 103.11464 z M 145.76113 103.11464 L 145.80505 103.11464 L 145.80505 110.11473 L 140.83326 110.11473 L 145.76113 103.11464 z " />
    <text
       xml:space="preserve"
       transform="scale(0.26458333)"
       id="text2262"
       style="font-style:normal;font-variant:normal;font-weight:normal;font-stretch:normal;font-size:85.3333px;font-family:'Arial Nova';-inkscape-font-specification:'Arial Nova, Normal';font-variant-ligatures:normal;font-variant-caps:normal;font-variant-numeric:normal;font-variant-east-asian:normal;white-space:pre;shape-inside:url(#rect2264);display:inline;fill:#000000" />
  </g>
</svg>
