<?xml version="1.0" encoding="UTF-8" standalone="no"?>
<!-- Created with Inkscape (http://www.inkscape.org/) -->

<svg
   width="720"
   height="720"
   viewBox="0 0 190.5 190.5"
   version="1.1"
   id="svg5"
   sodipodi:docname="69.svg"
   inkscape:version="1.2.1 (9c6d41e410, 2022-07-14)"
   xmlns:inkscape="http://www.inkscape.org/namespaces/inkscape"
   xmlns:sodipodi="http://sodipodi.sourceforge.net/DTD/sodipodi-0.dtd"
   xmlns="http://www.w3.org/2000/svg"
   xmlns:svg="http://www.w3.org/2000/svg">
  <sodipodi:namedview
     id="namedview7"
     pagecolor="#ffffff"
     bordercolor="#000000"
     borderopacity="0.25"
     inkscape:showpageshadow="2"
     inkscape:pageopacity="0.0"
     inkscape:pagecheckerboard="0"
     inkscape:deskcolor="#d1d1d1"
     inkscape:document-units="mm"
     showgrid="true"
     inkscape:zoom="1.0255231"
     inkscape:cx="342.75192"
     inkscape:cy="395.89553"
     inkscape:window-width="1520"
     inkscape:window-height="1030"
     inkscape:window-x="10"
     inkscape:window-y="1"
     inkscape:window-maximized="0"
     inkscape:current-layer="layer1">
    <inkscape:grid
       type="xygrid"
       id="grid9"
       spacingx="19.05"
       spacingy="19.05" />
  </sodipodi:namedview>
  <defs
     id="defs2">
    <rect
       x="67.282738"
       y="190.14687"
       width="570.4406"
       height="346.16481"
       id="rect2264" />
  </defs>
  <g
     inkscape:label="Ebene 1"
     inkscape:groupmode="layer"
     id="layer1">
    <path
       id="path2738"
       style="font-size:22.5778px;font-family:'Arial Nova';-inkscape-font-specification:'Arial Nova';stroke-width:0.264583"
       d="M 45.771883 74.817139 C 44.779695 74.817139 43.897751 75.059673 43.12605 75.544743 C 42.361698 76.029812 41.766386 76.687768 41.340112 77.518266 C 40.921189 78.348763 40.711727 79.267283 40.711727 80.27417 C 40.711727 81.259008 40.924691 82.148474 41.350964 82.942224 C 41.777237 83.735974 42.350501 84.360857 43.070756 84.816528 C 43.79836 85.264851 44.599632 85.488839 45.474227 85.488839 C 46.304725 85.488839 47.050875 85.304928 47.712333 84.937451 C 48.381141 84.569974 48.928337 84.040808 49.35461 83.349951 L 49.399052 83.349951 L 49.399052 83.59283 C 49.399052 84.849601 49.240693 85.933485 48.924662 86.844828 C 48.608633 87.748821 48.171679 88.43985 47.613114 88.91757 C 47.05455 89.387941 46.418643 89.622953 45.705737 89.622953 C 44.970783 89.622953 44.371969 89.398965 43.908948 88.950643 C 43.445927 88.494972 43.126222 87.848041 42.949833 87.010193 L 40.987162 87.318701 C 41.112105 88.1345 41.380707 88.840055 41.792281 89.435368 C 42.211205 90.023331 42.743874 90.475327 43.390633 90.791357 C 44.044742 91.100038 44.779867 91.254378 45.595667 91.254378 C 47.477148 91.254378 48.910308 90.523272 49.895146 89.060714 C 50.879984 87.590807 51.372058 85.430043 51.372058 82.578422 C 51.372058 80.042832 50.894511 78.117081 49.939071 76.801514 C 48.990981 75.478597 47.601918 74.817139 45.771883 74.817139 z M 97.358398 75.08844 C 96.366211 75.08844 95.484266 75.330975 94.712565 75.816044 C 93.948213 76.301114 93.352901 76.95907 92.926628 77.789567 C 92.507704 78.620065 92.298242 79.538584 92.298242 80.545471 C 92.298242 81.530309 92.511206 82.419776 92.93748 83.213525 C 93.363753 84.007276 93.937017 84.631642 94.657271 85.087313 C 95.384876 85.535635 96.186148 85.76014 97.060742 85.76014 C 97.89124 85.76014 98.63739 85.576229 99.298848 85.208752 C 99.967654 84.841275 100.51485 84.312109 100.94113 83.621252 L 100.98557 83.621252 L 100.98557 83.863615 C 100.98557 85.120386 100.8272 86.204787 100.51118 87.11613 C 100.19514 88.020123 99.758194 88.710634 99.19963 89.188354 C 98.641065 89.658725 98.005158 89.894255 97.292253 89.894255 C 96.557299 89.894255 95.958484 89.669749 95.495463 89.221427 C 95.032442 88.765756 94.712737 88.119341 94.536348 87.281494 L 92.573678 87.590002 C 92.69862 88.405801 92.967223 89.111356 93.378796 89.706669 C 93.797721 90.294632 94.33039 90.746628 94.977148 91.062659 C 95.631258 91.371339 96.366383 91.52568 97.182182 91.52568 C 99.063665 91.52568 100.49682 90.794573 101.48166 89.332015 C 102.46649 87.862108 102.95857 85.701344 102.95857 82.849723 C 102.95857 80.314133 102.48102 78.388382 101.52559 77.072815 C 100.5775 75.749898 99.188436 75.08844 97.358398 75.08844 z M 144.89555 75.08844 C 143.90336 75.08844 143.02141 75.330975 142.24972 75.816044 C 141.48536 76.301114 140.89005 76.95907 140.46378 77.789567 C 140.04485 78.620065 139.83539 79.538584 139.83539 80.545471 C 139.83539 81.530309 140.04887 82.419776 140.47515 83.213525 C 140.90142 84.007276 141.47468 84.631642 142.19494 85.087313 C 142.92254 85.535635 143.7233 85.76014 144.59789 85.76014 C 145.42839 85.76014 146.17454 85.576229 146.836 85.208752 C 147.5048 84.841275 148.05252 84.312109 148.47879 83.621252 L 148.52272 83.621252 L 148.52272 83.863615 C 148.52272 85.120386 148.36488 86.204787 148.04884 87.11613 C 147.73281 88.020123 147.29534 88.710634 146.73678 89.188354 C 146.17821 89.658725 145.54231 89.894255 144.8294 89.894255 C 144.09445 89.894255 143.49563 89.669749 143.03261 89.221427 C 142.56959 88.765756 142.24989 88.119341 142.0735 87.281494 L 140.11134 87.590002 C 140.23629 88.405801 140.50437 89.111356 140.91595 89.706669 C 141.33487 90.294632 141.86754 90.746628 142.5143 91.062659 C 143.16841 91.371339 143.90353 91.52568 144.71933 91.52568 C 146.60081 91.52568 148.03397 90.794573 149.01881 89.332015 C 150.00365 87.862108 150.49624 85.701344 150.49624 82.849723 C 150.49624 80.314133 150.01818 78.388382 149.06274 77.072815 C 148.11464 75.749898 146.72558 75.08844 144.89555 75.08844 z M 45.794104 76.437712 C 46.418815 76.437712 46.981054 76.610598 47.480823 76.956026 C 47.980591 77.294105 48.373447 77.757126 48.660079 78.345089 C 48.946711 78.925702 49.090027 79.561609 49.090027 80.252466 C 49.090027 80.921274 48.943209 81.523591 48.649227 82.060107 C 48.362595 82.596624 47.973242 83.015547 47.480823 83.316878 C 46.988404 83.61086 46.455218 83.758195 45.881954 83.758195 C 45.271943 83.758195 44.728249 83.607357 44.250529 83.306026 C 43.772809 82.997346 43.401485 82.570901 43.136902 82.027035 C 42.872319 81.475819 42.740027 80.847434 42.740027 80.141878 C 42.740027 79.465721 42.868816 78.844857 43.12605 78.278943 C 43.390633 77.713028 43.754435 77.264534 44.217456 76.933805 C 44.687826 76.603076 45.213491 76.437712 45.794104 76.437712 z M 97.380619 76.709013 C 98.00533 76.709013 98.567569 76.881899 99.067338 77.227327 C 99.567106 77.565406 99.959963 78.028427 100.24659 78.61639 C 100.53323 79.197003 100.67654 79.832394 100.67654 80.52325 C 100.67654 81.192058 100.52972 81.794893 100.23574 82.331409 C 99.949108 82.867925 99.559757 83.286848 99.067338 83.58818 C 98.574919 83.882161 98.041733 84.028979 97.468469 84.028979 C 96.858458 84.028979 96.314764 83.878659 95.837044 83.577327 C 95.359325 83.268646 94.988001 82.842201 94.723417 82.298336 C 94.458834 81.74712 94.326542 81.118735 94.326542 80.41318 C 94.326542 79.737022 94.455331 79.116159 94.712565 78.550244 C 94.977148 77.98433 95.34095 77.535836 95.803971 77.205107 C 96.274342 76.874377 96.800006 76.709013 97.380619 76.709013 z M 144.91777 76.709013 C 145.54248 76.709013 146.10472 76.881899 146.60449 77.227327 C 147.10426 77.565406 147.49763 78.028427 147.78426 78.61639 C 148.07089 79.197003 148.21421 79.832394 148.21421 80.52325 C 148.21421 81.192058 148.06687 81.794893 147.77289 82.331409 C 147.48626 82.867925 147.09691 83.286848 146.60449 83.58818 C 146.11208 83.882161 145.5794 84.028979 145.00614 84.028979 C 144.39612 84.028979 143.85191 83.878659 143.37419 83.577327 C 142.89647 83.268646 142.52567 82.842201 142.26108 82.298336 C 141.9965 81.74712 141.86421 81.118735 141.86421 80.41318 C 141.86421 79.737022 141.99248 79.116159 142.24972 78.550244 C 142.51429 77.98433 142.8781 77.535836 143.34112 77.205107 C 143.81149 76.874377 144.33716 76.709013 144.91777 76.709013 z M 45.347103 99.370679 C 44.354915 99.370679 43.472971 99.613216 42.70127 100.09828 C 41.936918 100.58336 41.341606 101.24131 40.915332 102.07181 C 40.496408 102.9023 40.286947 103.82082 40.286947 104.82771 C 40.286947 105.81254 40.500427 106.70201 40.926701 107.49576 C 41.352974 108.28952 41.926238 108.91389 42.646493 109.36955 C 43.374096 109.81788 44.174851 110.04238 45.049447 110.04238 C 45.879944 110.04238 46.626095 109.85847 47.287553 109.49099 C 47.956361 109.12352 48.504073 108.59435 48.930347 107.90349 L 48.974272 107.90349 L 48.974272 108.14585 C 48.974272 109.40263 48.816429 110.48702 48.500399 111.39837 C 48.184369 112.30236 47.746899 112.99287 47.188334 113.47059 C 46.629769 113.94097 45.993862 114.17649 45.280957 114.17649 C 44.546003 114.17649 43.947188 113.95199 43.484167 113.50367 C 43.021147 113.048 42.701441 112.40159 42.525053 111.56373 L 40.562899 111.87224 C 40.687841 112.68804 40.955927 113.3936 41.367501 113.98891 C 41.786424 114.57687 42.319094 115.02887 42.965853 115.3449 C 43.619962 115.65358 44.355087 115.80792 45.170886 115.80792 C 47.052368 115.80792 48.485528 115.07681 49.470365 113.61425 C 50.455204 112.14434 50.947795 109.98358 50.947795 107.13196 C 50.947795 104.59637 50.469731 102.67062 49.51429 101.35505 C 48.566201 100.03213 47.177138 99.370679 45.347103 99.370679 z M 96.933618 99.64198 C 95.941431 99.64198 95.059487 99.884517 94.287785 100.36958 C 93.523433 100.85466 92.92812 101.51209 92.501847 102.34259 C 92.082924 103.17308 91.873462 104.09213 91.873462 105.09901 C 91.873462 106.08385 92.086943 106.9728 92.513216 107.76655 C 92.93949 108.5603 93.512753 109.18519 94.233008 109.64085 C 94.960612 110.08918 95.761367 110.31316 96.635962 110.31316 C 97.46646 110.31316 98.21261 110.12977 98.874068 109.76229 C 99.542876 109.39481 100.09059 108.86565 100.51686 108.17479 L 100.56079 108.17479 L 100.56079 108.41715 C 100.56079 109.67393 100.40295 110.75781 100.08691 111.66915 C 99.770887 112.57315 99.333414 113.26418 98.774849 113.74189 C 98.216285 114.21227 97.580378 114.44728 96.867472 114.44728 C 96.132519 114.44728 95.533704 114.22329 95.070683 113.77497 C 94.607662 113.31929 94.287957 112.67236 94.111568 111.83452 L 92.149414 112.14354 C 92.274356 112.95934 92.542442 113.6649 92.954016 114.26021 C 93.37294 114.84818 93.905609 115.30017 94.552368 115.6162 C 95.206477 115.92488 95.941603 116.07922 96.757402 116.07922 C 98.638883 116.07922 100.07205 115.34759 101.05688 113.88504 C 102.04172 112.41513 102.53431 110.25436 102.53431 107.40275 C 102.53431 104.86716 102.05624 102.94193 101.10081 101.62635 C 100.15272 100.30344 98.763653 99.64198 96.933618 99.64198 z M 144.47128 99.64198 C 143.4791 99.64198 142.59716 99.884517 141.82545 100.36958 C 141.0611 100.85466 140.46579 101.51209 140.03951 102.34259 C 139.62059 103.17308 139.41113 104.09213 139.41113 105.09901 C 139.41113 106.08385 139.62409 106.9728 140.05037 107.76655 C 140.47664 108.5603 141.04991 109.18519 141.77016 109.64085 C 142.49776 110.08918 143.29904 110.31316 144.17363 110.31316 C 145.00413 110.31316 145.74976 110.12977 146.41122 109.76229 C 147.08002 109.39481 147.62774 108.86565 148.05401 108.17479 L 148.09794 108.17479 L 148.09794 108.41715 C 148.09794 109.67393 147.9401 110.75781 147.62406 111.66915 C 147.30804 112.57315 146.87057 113.26418 146.312 113.74189 C 145.75343 114.21227 145.11805 114.44728 144.40514 114.44728 C 143.67019 114.44728 143.07085 114.22329 142.60783 113.77497 C 142.14481 113.31929 141.82511 112.67236 141.64872 111.83452 L 139.68656 112.14354 C 139.8115 112.95934 140.07959 113.6649 140.49117 114.26021 C 140.91009 114.84818 141.44328 115.30017 142.09003 115.6162 C 142.74414 115.92488 143.47875 116.07922 144.29455 116.07922 C 146.17604 116.07922 147.6092 115.34759 148.59403 113.88504 C 149.57887 112.41513 150.07146 110.25436 150.07146 107.40275 C 150.07146 104.86716 149.59391 102.94193 148.63847 101.62635 C 147.69038 100.30344 146.30132 99.64198 144.47128 99.64198 z M 45.369324 100.99125 C 45.994034 100.99125 46.556274 101.16413 47.056042 101.50957 C 47.555811 101.84764 47.949183 102.31066 48.235815 102.89863 C 48.522447 103.47924 48.665763 104.11463 48.665763 104.80549 C 48.665763 105.4743 48.518428 106.07713 48.224447 106.61365 C 47.937815 107.15017 47.548461 107.56909 47.056042 107.87042 C 46.563624 108.1644 46.030955 108.31122 45.45769 108.31122 C 44.847679 108.31122 44.303469 108.1609 43.825749 107.85957 C 43.348029 107.55089 42.977221 107.12444 42.712638 106.58057 C 42.448055 106.02936 42.315763 105.40098 42.315763 104.69542 C 42.315763 104.01927 42.444036 103.3984 42.70127 102.83248 C 42.965853 102.26657 43.329655 101.81807 43.792676 101.48735 C 44.263046 101.15661 44.78871 100.99125 45.369324 100.99125 z M 96.955839 101.26255 C 97.58055 101.26255 98.14279 101.43492 98.642558 101.78035 C 99.142327 102.11842 99.535699 102.58145 99.822331 103.16941 C 100.10896 103.75003 100.25228 104.38593 100.25228 105.07679 C 100.25228 105.7456 100.10494 106.34844 99.810962 106.88495 C 99.52433 107.42147 99.134977 107.84039 98.642558 108.14172 C 98.150139 108.4357 97.61747 108.58252 97.044206 108.58252 C 96.434194 108.58252 95.889984 108.43168 95.412264 108.13035 C 94.934544 107.82167 94.563737 107.39574 94.299154 106.85188 C 94.03457 106.30066 93.902279 105.67228 93.902279 104.96672 C 93.902279 104.29057 94.030551 103.66919 94.287785 103.10327 C 94.552369 102.53735 94.91617 102.08937 95.379191 101.75865 C 95.849561 101.42791 96.375226 101.26255 96.955839 101.26255 z M 144.49299 101.26255 C 145.1177 101.26255 145.67994 101.43492 146.17971 101.78035 C 146.67947 102.11842 147.07285 102.58145 147.35948 103.16941 C 147.64611 103.75003 147.78943 104.38593 147.78943 105.07679 C 147.78943 105.7456 147.64261 106.34844 147.34863 106.88495 C 147.062 107.42147 146.67213 107.84039 146.17971 108.14172 C 145.68729 108.4357 145.15462 108.58252 144.58136 108.58252 C 143.97134 108.58252 143.42765 108.43168 142.94993 108.13035 C 142.47221 107.82167 142.10088 107.39574 141.8363 106.85188 C 141.57172 106.30066 141.43943 105.67228 141.43943 104.96672 C 141.43943 104.29057 141.56822 103.66919 141.82545 103.10327 C 142.09004 102.53735 142.45384 102.08937 142.91686 101.75865 C 143.38723 101.42791 143.91238 101.26255 144.49299 101.26255 z " />
    <text
       xml:space="preserve"
       transform="scale(0.26458333)"
       id="text2262"
       style="font-style:normal;font-variant:normal;font-weight:normal;font-stretch:normal;font-size:85.3333px;font-family:'Arial Nova';-inkscape-font-specification:'Arial Nova, Normal';font-variant-ligatures:normal;font-variant-caps:normal;font-variant-numeric:normal;font-variant-east-asian:normal;white-space:pre;shape-inside:url(#rect2264);display:inline;fill:#000000" />
  </g>
</svg>
