<?xml version="1.0" encoding="UTF-8" standalone="no"?>
<!-- Created with Inkscape (http://www.inkscape.org/) -->

<svg
   width="720"
   height="720"
   viewBox="0 0 190.5 190.5"
   version="1.1"
   id="svg5"
   sodipodi:docname="6X.svg"
   inkscape:version="1.2.1 (9c6d41e410, 2022-07-14)"
   xmlns:inkscape="http://www.inkscape.org/namespaces/inkscape"
   xmlns:sodipodi="http://sodipodi.sourceforge.net/DTD/sodipodi-0.dtd"
   xmlns="http://www.w3.org/2000/svg"
   xmlns:svg="http://www.w3.org/2000/svg">
  <sodipodi:namedview
     id="namedview7"
     pagecolor="#ffffff"
     bordercolor="#000000"
     borderopacity="0.25"
     inkscape:showpageshadow="2"
     inkscape:pageopacity="0.0"
     inkscape:pagecheckerboard="0"
     inkscape:deskcolor="#d1d1d1"
     inkscape:document-units="mm"
     showgrid="true"
     inkscape:zoom="1.0255231"
     inkscape:cx="342.75192"
     inkscape:cy="395.89553"
     inkscape:window-width="1520"
     inkscape:window-height="1030"
     inkscape:window-x="10"
     inkscape:window-y="1"
     inkscape:window-maximized="0"
     inkscape:current-layer="layer1">
    <inkscape:grid
       type="xygrid"
       id="grid9"
       spacingx="19.05"
       spacingy="19.05" />
  </sodipodi:namedview>
  <defs
     id="defs2">
    <rect
       x="67.282738"
       y="190.14687"
       width="570.4406"
       height="346.16481"
       id="rect2264" />
  </defs>
  <g
     inkscape:label="Ebene 1"
     inkscape:groupmode="layer"
     id="layer1">
    <path
       id="path2908"
       style="font-size:22.5778px;font-family:'Arial Nova';-inkscape-font-specification:'Arial Nova';stroke-width:0.264583"
       d="M 39.543323 74.817139 L 44.823621 82.556201 L 38.815719 90.978943 L 41.1856 90.978943 L 45.121277 85.466618 C 45.312365 85.209384 45.606519 84.728334 46.003394 84.022778 C 46.054841 84.133021 46.168586 84.342483 46.344975 84.651164 C 46.528713 84.952495 46.720145 85.242629 46.918583 85.521912 L 50.600529 90.978943 L 53.180216 90.978943 L 47.304089 82.402205 L 52.728048 74.817139 L 50.358167 74.817139 L 47.546969 78.797257 C 46.951656 79.642455 46.488635 80.370059 46.157906 80.98007 C 45.812478 80.340661 45.35296 79.59451 44.779696 78.741964 L 42.111641 74.817139 L 39.543323 74.817139 z M 91.129838 75.08844 L 96.410136 82.827502 L 90.402234 91.250244 L 92.772115 91.250244 L 96.707792 85.737919 C 96.89888 85.480685 97.193033 84.999119 97.589909 84.293563 C 97.641355 84.403806 97.755102 84.613268 97.93149 84.921948 C 98.115229 85.223279 98.306661 85.513931 98.505098 85.793213 L 102.18704 91.250244 L 104.76673 91.250244 L 98.890605 82.67299 L 104.31456 75.08844 L 101.94468 75.08844 L 99.133484 79.068042 C 98.538171 79.913239 98.07515 80.640843 97.744421 81.250854 C 97.398993 80.611444 96.939475 79.865811 96.366211 79.013265 L 93.698157 75.08844 L 91.129838 75.08844 z M 138.66699 75.08844 L 143.9478 82.827502 L 137.93938 91.250244 L 140.30978 91.250244 L 144.24546 85.737919 C 144.43655 85.480685 144.7307 84.999119 145.12758 84.293563 C 145.17902 84.403806 145.29276 84.613268 145.46916 84.921948 C 145.65289 85.223279 145.84381 85.513931 146.04225 85.793213 L 149.72471 91.250244 L 152.3044 91.250244 L 146.42827 82.67299 L 151.85223 75.08844 L 149.48183 75.08844 L 146.67063 79.068042 C 146.07532 79.913239 145.6123 80.640843 145.28157 81.250854 C 144.93615 80.611444 144.47714 79.865811 143.90388 79.013265 L 141.23582 75.08844 L 138.66699 75.08844 z M 39.118542 99.370679 L 44.399357 107.10974 L 38.390938 115.53248 L 40.761336 115.53248 L 44.697013 110.02016 C 44.888101 109.76292 45.181738 109.28136 45.578613 108.5758 C 45.630061 108.68605 45.744323 108.89551 45.920711 109.20419 C 46.10445 109.50552 46.295365 109.79617 46.493803 110.07545 L 50.175749 115.53248 L 52.755436 115.53248 L 46.879826 106.95523 L 52.303784 99.370679 L 49.933386 99.370679 L 47.122188 103.35028 C 46.526876 104.19547 46.063855 104.92308 45.733126 105.53309 C 45.387697 104.89369 44.928179 104.14805 44.354915 103.2955 L 41.687378 99.370679 L 39.118542 99.370679 z M 90.705058 99.64198 L 95.985872 107.38104 L 89.977454 115.80327 L 92.347852 115.80327 L 96.283529 110.29146 C 96.474616 110.03423 96.768254 109.55266 97.165129 108.8471 C 97.216575 108.95735 97.330837 109.16681 97.507227 109.47549 C 97.690965 109.77682 97.881881 110.06696 98.080318 110.34624 L 101.76226 115.80327 L 104.34195 115.80327 L 98.466341 107.22653 L 103.8903 99.64198 L 101.5199 99.64198 L 98.708704 103.62158 C 98.113392 104.46677 97.650371 105.19438 97.319641 105.80439 C 96.974213 105.16499 96.514695 104.41884 95.941431 103.56629 L 93.273893 99.64198 L 90.705058 99.64198 z M 138.24272 99.64198 L 143.52302 107.38104 L 137.5146 115.80327 L 139.885 115.80327 L 143.82068 110.29146 C 144.01177 110.03423 144.30592 109.55266 144.7028 108.8471 C 144.75424 108.95735 144.86799 109.16681 145.04438 109.47549 C 145.22812 109.77682 145.41955 110.06696 145.61799 110.34624 L 149.29993 115.80327 L 151.87962 115.80327 L 146.00349 107.22653 L 151.42745 99.64198 L 149.05757 99.64198 L 146.24637 103.62158 C 145.65106 104.46677 145.18803 105.19438 144.85731 105.80439 C 144.51187 105.16499 144.05236 104.41884 143.4791 103.56629 L 140.81104 99.64198 L 138.24272 99.64198 z " />
    <text
       xml:space="preserve"
       transform="scale(0.26458333)"
       id="text2262"
       style="font-style:normal;font-variant:normal;font-weight:normal;font-stretch:normal;font-size:85.3333px;font-family:'Arial Nova';-inkscape-font-specification:'Arial Nova, Normal';font-variant-ligatures:normal;font-variant-caps:normal;font-variant-numeric:normal;font-variant-east-asian:normal;white-space:pre;shape-inside:url(#rect2264);display:inline;fill:#000000" />
  </g>
</svg>
