<?xml version="1.0" encoding="UTF-8" standalone="no"?>
<!-- Created with Inkscape (http://www.inkscape.org/) -->

<svg
   width="720"
   height="720"
   viewBox="0 0 190.5 190.5"
   version="1.1"
   id="svg5"
   sodipodi:docname="7C.svg"
   inkscape:version="1.2.1 (9c6d41e410, 2022-07-14)"
   xmlns:inkscape="http://www.inkscape.org/namespaces/inkscape"
   xmlns:sodipodi="http://sodipodi.sourceforge.net/DTD/sodipodi-0.dtd"
   xmlns="http://www.w3.org/2000/svg"
   xmlns:svg="http://www.w3.org/2000/svg">
  <sodipodi:namedview
     id="namedview7"
     pagecolor="#ffffff"
     bordercolor="#000000"
     borderopacity="0.25"
     inkscape:showpageshadow="2"
     inkscape:pageopacity="0.0"
     inkscape:pagecheckerboard="0"
     inkscape:deskcolor="#d1d1d1"
     inkscape:document-units="mm"
     showgrid="true"
     inkscape:zoom="1.0255231"
     inkscape:cx="342.75192"
     inkscape:cy="365.66705"
     inkscape:window-width="1520"
     inkscape:window-height="1030"
     inkscape:window-x="10"
     inkscape:window-y="1"
     inkscape:window-maximized="0"
     inkscape:current-layer="layer1">
    <inkscape:grid
       type="xygrid"
       id="grid9"
       spacingx="19.05"
       spacingy="19.05" />
  </sodipodi:namedview>
  <defs
     id="defs2" />
  <g
     inkscape:label="Ebene 1"
     inkscape:groupmode="layer"
     id="layer1">
    <path
       id="path1330"
       style="font-size:22.5778px;font-family:'Arial Nova';-inkscape-font-specification:'Arial Nova';stroke-width:0.264583"
       d="M 70.679407 62.437533 C 69.224198 62.437533 67.926833 62.771764 66.787655 63.440572 C 65.655826 64.10203 64.770379 65.057642 64.130969 66.307064 C 63.498909 67.549135 63.182707 69.007846 63.182707 70.683541 C 63.182707 72.44008 63.480363 73.953912 64.075675 75.225382 C 64.670988 76.489503 65.527381 77.459642 66.644511 78.135799 C 67.76899 78.811956 69.110453 79.150208 70.668555 79.150208 C 71.815083 79.150208 72.85487 78.937243 73.788261 78.51097 C 74.729002 78.077347 75.511728 77.455967 76.136438 76.647518 C 76.768499 75.831719 77.209471 74.8656 77.459355 73.74847 L 75.375761 73.252376 C 75.059731 74.575293 74.493989 75.585509 73.67819 76.283716 C 72.869741 76.974572 71.840461 77.320345 70.59104 77.320345 C 69.495959 77.320345 68.558893 77.051742 67.779842 76.515226 C 67.000792 75.97871 66.409498 75.211028 66.005273 74.211491 C 65.601049 73.211954 65.398592 72.032353 65.398592 70.672689 C 65.398592 69.423267 65.601049 68.316817 66.005273 67.354028 C 66.409498 66.391239 67.00481 65.638083 67.791211 65.094218 C 68.577611 64.543002 69.532707 64.267395 70.657186 64.267395 C 71.803713 64.267395 72.744799 64.546505 73.479753 65.10507 C 74.214707 65.663635 74.750878 66.512506 75.088957 67.651685 L 77.183919 67.155591 C 76.757646 65.619538 75.985945 64.450961 74.868815 63.649862 C 73.759035 62.841412 72.36245 62.437533 70.679407 62.437533 z M 122.09384 62.54502 C 120.63863 62.54502 119.34178 62.879251 118.2026 63.548059 C 117.07078 64.209517 116.18481 65.165129 115.5454 66.414551 C 114.91334 67.656622 114.59766 69.115333 114.59766 70.791028 C 114.59766 72.547567 114.89531 74.061916 115.49062 75.333386 C 116.08594 76.597507 116.94181 77.567646 118.05894 78.243803 C 119.18342 78.91996 120.52489 79.257694 122.08299 79.257694 C 123.22952 79.257694 124.26931 79.04473 125.20269 78.618457 C 126.14344 78.184834 126.92616 77.563971 127.55087 76.755522 C 128.18294 75.939723 128.62391 74.973087 128.87379 73.855957 L 126.79019 73.359863 C 126.47416 74.68278 125.90842 75.693514 125.09262 76.39172 C 124.28418 77.082576 123.25542 77.427832 122.00599 77.427832 C 120.91091 77.427832 119.97384 77.159746 119.19479 76.62323 C 118.41574 76.086714 117.82393 75.318515 117.41971 74.318978 C 117.01548 73.319441 116.81354 72.13984 116.81354 70.780176 C 116.81354 69.530755 117.01548 68.424822 117.41971 67.462032 C 117.82393 66.499243 118.41924 65.745571 119.20564 65.201705 C 119.99204 64.650489 120.94766 64.374882 122.07214 64.374882 C 123.21866 64.374882 124.15923 64.654509 124.89419 65.213074 C 125.62914 65.771639 126.16583 66.620509 126.50391 67.759688 L 128.59835 67.263595 C 128.17208 65.727541 127.40037 64.558965 126.28325 63.757865 C 125.17347 62.949416 123.77688 62.54502 122.09384 62.54502 z M 46.297949 86.688765 C 44.842741 86.688765 43.545892 87.022997 42.406714 87.691805 C 41.274886 88.353264 40.388922 89.308876 39.749512 90.558297 C 39.117452 91.800369 38.801766 93.259079 38.801766 94.934774 C 38.801766 96.691313 39.099423 98.205145 39.694735 99.476615 C 40.290047 100.74073 41.145924 101.71087 42.263053 102.38703 C 43.387533 103.06319 44.728995 103.40144 46.287097 103.40144 C 47.433625 103.40144 48.473412 103.18848 49.406803 102.7622 C 50.347544 102.32858 51.13027 101.7072 51.75498 100.89875 C 52.387041 100.08295 52.828013 99.116833 53.077897 97.999703 L 50.994303 97.503609 C 50.678273 98.826526 50.112531 99.83674 49.296733 100.53495 C 48.488283 101.2258 47.45952 101.57158 46.210099 101.57158 C 45.115018 101.57158 44.177952 101.30297 43.398901 100.76646 C 42.61985 100.22994 42.02804 99.462261 41.623816 98.462724 C 41.219591 97.463186 41.017651 96.283586 41.017651 94.923922 C 41.017651 93.6745 41.219591 92.56805 41.623816 91.605261 C 42.02804 90.642472 42.623353 89.889316 43.409753 89.345451 C 44.196154 88.794235 45.151766 88.518628 46.276245 88.518628 C 47.422773 88.518628 48.363341 88.797738 49.098295 89.356303 C 49.833248 89.914868 50.369937 90.763739 50.708016 91.902917 L 52.802462 91.406824 C 52.376189 89.870771 51.604487 88.702194 50.487358 87.901095 C 49.377577 87.092645 47.980994 86.688765 46.297949 86.688765 z M 97.884465 86.95955 C 96.429256 86.95955 95.132407 87.294298 93.993229 87.963106 C 92.861401 88.624564 91.975437 89.57966 91.336027 90.829081 C 90.703967 92.071153 90.388281 93.530381 90.388281 95.206075 C 90.388281 96.962615 90.685938 98.476447 91.28125 99.747917 C 91.876563 101.01204 92.732439 101.98217 93.849569 102.65833 C 94.974048 103.33449 96.315511 103.67274 97.873612 103.67274 C 99.02014 103.67274 100.05993 103.45926 100.99332 103.03299 C 101.93406 102.59937 102.71678 101.9785 103.3415 101.17005 C 103.97356 100.35426 104.41453 99.387617 104.66441 98.270487 L 102.58082 97.774394 C 102.26479 99.09731 101.69905 100.10805 100.88325 100.80625 C 100.0748 101.49711 99.046035 101.84236 97.796615 101.84236 C 96.701533 101.84236 95.764467 101.57428 94.985417 101.03776 C 94.206365 100.50125 93.614555 99.733047 93.210331 98.733508 C 92.806106 97.733971 92.604167 96.55437 92.604167 95.194706 C 92.604167 93.945285 92.806106 92.839352 93.210331 91.876562 C 93.614555 90.913773 94.209868 90.160618 94.996269 89.616752 C 95.782669 89.065537 96.738282 88.789929 97.86276 88.789929 C 99.009289 88.789929 99.949857 89.069039 100.68481 89.627604 C 101.41976 90.186169 101.95645 91.035041 102.29453 92.174219 L 104.38898 91.678125 C 103.9627 90.142071 103.19101 88.973495 102.07387 88.172396 C 100.96409 87.363947 99.567507 86.95955 97.884465 86.95955 z M 145.42213 86.95955 C 143.96693 86.95955 142.66956 87.294298 141.53038 87.963106 C 140.39855 88.624564 139.51311 89.57966 138.87369 90.829081 C 138.24163 92.071153 137.92543 93.530381 137.92543 95.206075 C 137.92543 96.962615 138.22309 98.476447 138.8184 99.747917 C 139.41371 101.01204 140.27011 101.98217 141.38724 102.65833 C 142.51171 103.33449 143.85317 103.67274 145.41128 103.67274 C 146.5578 103.67274 147.59759 103.45926 148.53099 103.03299 C 149.47172 102.59937 150.25445 101.9785 150.87916 101.17005 C 151.51122 100.35426 151.95219 99.387617 152.20208 98.270487 L 150.11849 97.774394 C 149.80246 99.09731 149.23671 100.10805 148.42091 100.80625 C 147.61246 101.49711 146.58318 101.84236 145.33376 101.84236 C 144.23869 101.84236 143.30162 101.57428 142.52257 101.03776 C 141.74351 100.50125 141.15222 99.733047 140.748 98.733508 C 140.34378 97.733971 140.14132 96.55437 140.14132 95.194706 C 140.14132 93.945285 140.34378 92.839352 140.748 91.876562 C 141.15222 90.913773 141.74754 90.160618 142.53394 89.616752 C 143.32033 89.065537 144.27542 88.789929 145.39991 88.789929 C 146.54644 88.789929 147.48752 89.069039 148.22248 89.627604 C 148.95743 90.186169 149.4936 91.035041 149.83168 92.174219 L 151.92664 91.678125 C 151.50037 90.142071 150.72867 88.973495 149.61154 88.172396 C 148.50176 87.363947 147.10518 86.95955 145.42213 86.95955 z M 70.960527 110.66146 C 69.505318 110.66146 68.208469 110.99569 67.069291 111.6645 C 65.937462 112.32596 65.051498 113.28157 64.412089 114.53099 C 63.780029 115.77307 63.464343 117.23178 63.464343 118.90747 C 63.464343 120.66402 63.762 122.17836 64.357312 123.44983 C 64.952625 124.71395 65.808501 125.68409 66.925631 126.36025 C 68.05011 127.03641 69.391573 127.37414 70.949674 127.37414 C 72.096202 127.37414 73.13599 127.16117 74.069381 126.7349 C 75.010122 126.30127 75.792847 125.68041 76.417558 124.87196 C 77.049618 124.05617 77.49059 123.08953 77.740474 121.9724 L 75.656881 121.47631 C 75.34085 122.79922 74.775108 123.80996 73.95931 124.50816 C 73.150861 125.19902 72.122098 125.54427 70.872677 125.54427 C 69.777596 125.54427 68.840529 125.27619 68.061479 124.73967 C 67.282427 124.20315 66.690617 123.43496 66.286393 122.43542 C 65.882168 121.43589 65.680229 120.25628 65.680229 118.89662 C 65.680229 117.6472 65.882168 116.54127 66.286393 115.57847 C 66.690617 114.61568 67.28593 113.86201 68.072331 113.31815 C 68.858731 112.76694 69.814344 112.49132 70.938822 112.49132 C 72.085351 112.49132 73.025919 112.77095 73.760872 113.32952 C 74.495826 113.88808 75.032514 114.73695 75.370593 115.87613 L 77.465039 115.38004 C 77.038766 113.84399 76.267065 112.67541 75.149935 111.87431 C 74.040155 111.06586 72.643571 110.66146 70.960527 110.66146 z M 121.86233 110.67438 C 120.40712 110.67438 119.10976 111.00861 117.97058 111.67742 C 116.83875 112.33887 115.9533 113.29449 115.31389 114.54391 C 114.68183 115.78598 114.36563 117.2447 114.36563 118.92039 C 114.36563 120.67693 114.66329 122.19076 115.2586 123.46223 C 115.85391 124.72635 116.7103 125.69649 117.82743 126.37265 C 118.95191 127.04881 120.29338 127.38706 121.85148 127.38706 C 122.99801 127.38706 124.0378 127.17409 124.97118 126.74782 C 125.91193 126.31419 126.69465 125.69281 127.31936 124.88437 C 127.95143 124.06857 128.3924 123.10245 128.64228 121.98532 L 126.55868 121.48923 C 126.24265 122.81214 125.67691 123.82236 124.86111 124.52056 C 124.05267 125.21142 123.02339 125.55719 121.77396 125.55719 C 120.67888 125.55719 119.74182 125.28859 118.96276 124.75208 C 118.18371 124.21556 117.59242 123.44788 117.1882 122.44834 C 116.78397 121.44881 116.58151 120.2692 116.58151 118.90954 C 116.58151 117.66011 116.78397 116.55366 117.1882 115.59088 C 117.59242 114.62808 118.18773 113.87493 118.97413 113.33107 C 119.76053 112.77985 120.71563 112.50424 121.84011 112.50424 C 122.98663 112.50424 123.92772 112.78335 124.66267 113.34192 C 125.39763 113.90049 125.93381 114.74935 126.27188 115.88853 L 128.36684 115.39244 C 127.94057 113.85639 127.16886 112.68781 126.05174 111.88671 C 124.94196 111.07826 123.54537 110.67438 121.86233 110.67438 z " />
  </g>
</svg>
