<?xml version="1.0" encoding="UTF-8" standalone="no"?>
<!-- Created with Inkscape (http://www.inkscape.org/) -->

<svg
   width="720"
   height="720"
   viewBox="0 0 190.5 190.5"
   version="1.1"
   id="svg5"
   sodipodi:docname="7five.svg"
   inkscape:version="1.2.1 (9c6d41e410, 2022-07-14)"
   xmlns:inkscape="http://www.inkscape.org/namespaces/inkscape"
   xmlns:sodipodi="http://sodipodi.sourceforge.net/DTD/sodipodi-0.dtd"
   xmlns="http://www.w3.org/2000/svg"
   xmlns:svg="http://www.w3.org/2000/svg">
  <sodipodi:namedview
     id="namedview7"
     pagecolor="#ffffff"
     bordercolor="#000000"
     borderopacity="0.25"
     inkscape:showpageshadow="2"
     inkscape:pageopacity="0.0"
     inkscape:pagecheckerboard="0"
     inkscape:deskcolor="#d1d1d1"
     inkscape:document-units="mm"
     showgrid="true"
     inkscape:zoom="1.0255231"
     inkscape:cx="572.87838"
     inkscape:cy="365.1795"
     inkscape:window-width="1920"
     inkscape:window-height="1001"
     inkscape:window-x="-9"
     inkscape:window-y="-9"
     inkscape:window-maximized="1"
     inkscape:current-layer="layer1">
    <inkscape:grid
       type="xygrid"
       id="grid9"
       spacingx="19.05"
       spacingy="19.05" />
  </sodipodi:namedview>
  <defs
     id="defs2" />
  <g
     inkscape:label="Ebene 1"
     inkscape:groupmode="layer"
     id="layer1">
    <path
       id="path689"
       style="font-size:22.5778px;font-family:'Arial Nova';-inkscape-font-specification:'Arial Nova';stroke-width:0.264583"
       d="m 58.166995,62.966705 c -1.087731,0 -1.874476,0.286631 -2.359546,0.859895 -0.477719,0.573264 -0.716235,1.35197 -0.716235,2.336809 v 1.543575 h -1.764233 v 1.532206 h 1.764233 v 10.164754 h 1.984375 V 69.23919 h 2.083594 v -1.532206 h -2.083594 v -1.113627 c 0,-0.573264 0.08819,-1.032266 0.264583,-1.377694 0.176389,-0.352778 0.503099,-0.529167 0.980819,-0.529167 0.32338,0 0.731278,0.07315 1.223698,0.220142 L 59.963785,63.24214 C 59.603657,63.1466 59.283953,63.07695 59.00467,63.03285 58.732737,62.98875 58.453627,62.96671 58.166995,62.96671 Z m 51.414455,0.107487 c -1.08772,0 -1.87395,0.286631 -2.35902,0.859895 -0.47772,0.573264 -0.71676,1.352488 -0.71676,2.337325 v 1.543059 h -1.76372 v 1.532723 h 1.76372 v 10.164237 h 1.98438 V 69.347194 h 2.08359 v -1.532723 h -2.08359 V 66.70136 c 0,-0.573263 0.0882,-1.032782 0.26458,-1.37821 0.17639,-0.352778 0.50362,-0.529167 0.98134,-0.529167 0.32338,0 0.73128,0.07367 1.2237,0.220659 l 0.41857,-1.665015 c -0.36012,-0.09554 -0.67982,-0.16519 -0.95911,-0.20929 -0.27193,-0.0441 -0.55104,-0.06614 -0.83768,-0.06614 z M 60.845901,63.24214 v 2.248958 h 1.995227 V 63.24214 Z m 51.414459,0.107487 v 2.248958 h 1.99523 V 63.349627 Z M 81.405887,67.4424 c -1.11713,0 -2.090771,0.253559 -2.921269,0.760677 -0.823148,0.507118 -1.455036,1.2272 -1.896008,2.160592 -0.440972,0.933391 -0.661459,2.028817 -0.661459,3.285588 0,1.220023 0.223989,2.285361 0.672311,3.196704 0.448321,0.903993 1.084228,1.602543 1.907377,2.094962 0.830497,0.492419 1.804138,0.738457 2.921269,0.738457 1.271469,0 2.359373,-0.327227 3.263366,-0.981336 0.911343,-0.661458 1.532207,-1.583481 1.862936,-2.766756 l -1.94045,-0.297656 c -0.213137,0.727604 -0.594968,1.311892 -1.146184,1.752864 -0.543865,0.440972 -1.190796,0.661459 -1.94045,0.661459 -0.683506,0 -1.28634,-0.154341 -1.808158,-0.463021 -0.514467,-0.316031 -0.922367,-0.772047 -1.223698,-1.367359 -0.301328,-0.602662 -0.473698,-1.322744 -0.517798,-2.160591 h 8.752954 v -0.407727 c 0,-1.308218 -0.216466,-2.429194 -0.650089,-3.362586 -0.433622,-0.933391 -1.050984,-1.638947 -1.852083,-2.116666 -0.8011,-0.48507 -1.742186,-0.727605 -2.822567,-0.727605 z m 51.414973,0.107487 c -1.11712,0 -2.09128,0.253559 -2.92178,0.760677 -0.82315,0.507118 -1.45504,1.227717 -1.89601,2.161109 -0.44097,0.933391 -0.66146,2.0283 -0.66146,3.285071 0,1.220023 0.22399,2.285878 0.67231,3.19722 0.44832,0.903994 1.08423,1.602027 1.90738,2.094446 0.8305,0.492419 1.80414,0.738456 2.92127,0.738456 1.27147,0 2.35937,-0.32671 3.26336,-0.980818 0.91134,-0.661458 1.53221,-1.583998 1.86294,-2.767273 l -1.93993,-0.297656 c -0.21314,0.727604 -0.59549,1.311892 -1.1467,1.752864 -0.54387,0.440972 -1.1908,0.661459 -1.94045,0.661459 -0.68351,0 -1.28583,-0.154341 -1.80765,-0.463021 -0.51446,-0.31603 -0.92236,-0.771529 -1.22369,-1.366842 -0.30136,-0.602662 -0.47425,-1.323261 -0.51832,-2.161108 h 8.75347 v -0.407727 c 0,-1.308218 -0.21698,-2.429194 -0.6506,-3.362586 -0.43362,-0.933391 -1.05099,-1.638947 -1.85209,-2.116667 -0.8011,-0.485069 -1.74166,-0.727604 -2.82205,-0.727604 z m -71.974959,0.157097 v 11.69696 h 1.995227 v -11.69696 z m 3.704167,0 4.453475,11.69696 h 1.852083 l 4.420919,-11.69696 h -2.0283 l -2.601908,7.132898 c -0.338079,0.918692 -0.577111,1.664325 -0.716752,2.237589 h -0.04393 c -0.24988,-0.926042 -0.525487,-1.807986 -0.826818,-2.645833 l -2.403471,-6.724654 z m 47.710292,0.107487 v 11.69696 h 1.99523 v -11.69696 z m 3.70417,0 4.45399,11.69696 h 1.85208 l 4.4204,-11.69696 h -2.0283 l -2.6019,7.132898 c -0.33808,0.918692 -0.5766,1.664842 -0.71624,2.238106 h -0.0444 c -0.24988,-0.926042 -0.52549,-1.807986 -0.82682,-2.645833 l -2.40296,-6.725171 z m -34.580347,1.248502 c 0.926041,0 1.668172,0.290135 2.226737,0.870748 0.565915,0.580614 0.907668,1.411455 1.025261,2.491838 h -6.592363 c 0.0882,-0.668808 0.282613,-1.257116 0.583944,-1.764234 0.30868,-0.507118 0.69855,-0.899973 1.168921,-1.179256 0.47037,-0.279282 0.999537,-0.419096 1.5875,-0.419096 z m 51.414457,0.107487 c 0.92605,0 1.66817,0.290651 2.22674,0.871265 0.56591,0.580613 0.90767,1.410938 1.02526,2.491321 h -6.59236 c 0.0882,-0.668808 0.28313,-1.256599 0.58446,-1.763717 0.30868,-0.507118 0.69804,-0.90049 1.1684,-1.179773 0.47038,-0.279282 0.99954,-0.419096 1.5875,-0.419096 z M 33.785538,87.217421 c -1.087732,0 -1.87396,0.286631 -2.359029,0.859896 -0.47772,0.573263 -0.716753,1.352486 -0.716753,2.337325 v 1.543575 H 28.94604 v 1.532206 h 1.763716 v 10.164767 h 1.984375 V 93.490423 h 2.083594 v -1.532206 h -2.083594 v -1.113628 c 0,-0.573263 0.08819,-1.032782 0.264584,-1.37821 0.176389,-0.352778 0.503615,-0.529167 0.981335,-0.529167 0.323379,0 0.731279,0.07367 1.223698,0.220659 l 0.418579,-1.664498 c -0.360127,-0.09554 -0.679832,-0.165707 -0.959114,-0.209806 -0.271933,-0.0441 -0.551044,-0.06615 -0.837675,-0.06615 z m 51.586515,0.271301 c -1.087732,0 -1.87396,0.286632 -2.359029,0.859896 -0.47772,0.573263 -0.716752,1.352486 -0.716752,2.337325 v 1.543575 h -1.763717 v 1.532206 h 1.763717 v 10.164256 h 1.984375 V 93.761724 h 2.083593 v -1.532206 h -2.083593 v -1.113627 c 0,-0.573264 0.08819,-1.032783 0.264583,-1.378211 0.176389,-0.352778 0.503615,-0.529166 0.981335,-0.529166 0.32338,0 0.73128,0.07367 1.223698,0.220658 l 0.41858,-1.664498 c -0.360127,-0.09554 -0.679833,-0.165706 -0.959115,-0.209806 -0.271933,-0.0441 -0.551043,-0.06615 -0.837675,-0.06615 z m 47.537697,0 c -1.08773,0 -1.87396,0.286632 -2.35903,0.859896 -0.47772,0.573263 -0.71675,1.352486 -0.71675,2.337325 v 1.543575 h -1.76372 v 1.532206 h 1.76372 v 10.164256 h 1.98437 V 93.761724 h 2.08359 v -1.532206 h -2.08359 v -1.113627 c 0,-0.573264 0.0882,-1.032783 0.26458,-1.378211 0.17639,-0.352778 0.50361,-0.529166 0.98134,-0.529166 0.32338,0 0.73128,0.07367 1.2237,0.220658 l 0.41858,-1.664498 c -0.36013,-0.09554 -0.67983,-0.165706 -0.95912,-0.209806 -0.27193,-0.0441 -0.55104,-0.06615 -0.83767,-0.06615 z m -96.445306,0.0047 v 2.248958 h 1.995227 v -2.248958 z m 51.586515,0.271301 v 2.248958 h 1.995227 v -2.248958 z m 47.537691,0 v 2.248958 h 1.99523 v -2.248958 z m -78.563704,3.928959 c -1.11713,0 -2.091288,0.25356 -2.921785,0.760677 -0.823149,0.507119 -1.455037,1.2272 -1.896009,2.160592 -0.440972,0.933391 -0.661458,2.028817 -0.661458,3.285588 0,1.220023 0.223988,2.285361 0.67231,3.196711 0.448322,0.90399 1.084229,1.60255 1.907377,2.09497 0.830498,0.49242 1.804139,0.73846 2.921269,0.73846 1.27147,0 2.359374,-0.32723 3.263367,-0.98134 0.911343,-0.66146 1.532206,-1.58349 1.862935,-2.76677 l -1.939933,-0.297656 c -0.213137,0.727606 -0.595485,1.311896 -1.1467,1.752876 -0.543866,0.44097 -1.190797,0.66146 -1.94045,0.66146 -0.683507,0 -1.285824,-0.15434 -1.807642,-0.46303 -0.514467,-0.31603 -0.922367,-0.77205 -1.223698,-1.36736 -0.301328,-0.602665 -0.474214,-1.322747 -0.518314,-2.160594 h 8.753471 v -0.407727 c 0,-1.308218 -0.216984,-2.429194 -0.650607,-3.362586 -0.433622,-0.933391 -1.050983,-1.638947 -1.852083,-2.116667 -0.8011,-0.485069 -1.741668,-0.727604 -2.82205,-0.727604 z m -20.560502,0.264584 v 11.696974 h 1.995227 V 91.958266 Z m 3.704167,0 4.453991,11.696974 h 1.852084 l 4.420402,-11.696974 h -2.0283 l -2.601909,7.132898 c -0.338079,0.918696 -0.576594,1.664326 -0.716235,2.237596 h -0.04444 c -0.249884,-0.92605 -0.525492,-1.807992 -0.826823,-2.64584 l -2.402954,-6.724654 z m 68.442879,0.0067 c -1.11713,0 -2.09129,0.253559 -2.92179,0.760677 -0.82315,0.507118 -1.45504,1.2272 -1.89601,2.160591 -0.44098,0.933392 -0.66147,2.0283 -0.66147,3.285071 0,1.220023 0.224,2.285875 0.67232,3.197225 0.44833,0.904 1.08424,1.60204 1.90738,2.09446 0.8305,0.49242 1.80414,0.73898 2.92127,0.73898 1.27147,0 2.35937,-0.32723 3.26337,-0.98134 0.91134,-0.66147 1.5322,-1.58401 1.86293,-2.76729 l -1.93993,-0.29766 c -0.21314,0.72761 -0.59549,1.3119 -1.1467,1.75287 -0.54386,0.44098 -1.1908,0.66146 -1.94045,0.66146 -0.6835,0 -1.28582,-0.15434 -1.80764,-0.46302 -0.51447,-0.31603 -0.92237,-0.77153 -1.2237,-1.36685 -0.30136,-0.60266 -0.47425,-1.322744 -0.51831,-2.160591 h 8.75347 v -0.408244 c 0,-1.308217 -0.21699,-2.428677 -0.65061,-3.362069 -0.43362,-0.933391 -1.05098,-1.638946 -1.85208,-2.116666 -0.8011,-0.485069 -1.74167,-0.727604 -2.82205,-0.727604 z m 47.53767,0 c -1.11713,0 -2.09129,0.253559 -2.92179,0.760677 -0.82315,0.507118 -1.45504,1.2272 -1.89601,2.160591 -0.44097,0.933392 -0.66146,2.0283 -0.66146,3.285071 0,1.220023 0.22399,2.285875 0.67231,3.197225 0.44832,0.904 1.08423,1.60204 1.90738,2.09446 0.8305,0.49242 1.80414,0.73898 2.92127,0.73898 1.27147,0 2.35937,-0.32723 3.26337,-0.98134 0.91134,-0.66147 1.53221,-1.58401 1.86293,-2.76729 l -1.93993,-0.29766 c -0.21314,0.72761 -0.59549,1.3119 -1.1467,1.75287 -0.54387,0.44098 -1.1908,0.66146 -1.94045,0.66146 -0.68351,0 -1.28582,-0.15434 -1.80764,-0.46302 -0.51447,-0.31603 -0.92237,-0.77153 -1.2237,-1.36685 -0.30136,-0.60266 -0.47425,-1.322744 -0.51832,-2.160591 h 8.75347 v -0.408244 c 0,-1.308217 -0.21698,-2.428677 -0.6506,-3.362069 -0.43362,-0.933391 -1.05099,-1.638946 -1.85208,-2.116666 -0.8011,-0.485069 -1.74167,-0.727604 -2.82205,-0.727604 z m -68.098201,0.264552 v 11.696462 h 1.995227 V 92.229518 Z m 3.704167,0 4.453992,11.696462 h 1.852083 l 4.420409,-11.696462 h -2.02831 l -2.601905,7.132381 c -0.338079,0.918691 -0.576595,1.664841 -0.716236,2.238111 h -0.04444 c -0.249886,-0.92604 -0.525493,-1.807991 -0.826824,-2.645838 L 93.86094,92.229518 Z m 43.833524,0 v 11.696462 h 1.99523 V 92.229518 Z m 3.70417,0 4.45399,11.696462 h 1.85208 l 4.42041,-11.696462 h -2.0283 l -2.60191,7.132381 c -0.33808,0.918691 -0.5766,1.664841 -0.71624,2.238111 h -0.0444 c -0.24988,-0.92604 -0.52549,-1.807991 -0.82682,-2.645838 l -2.40296,-6.724654 z m -82.290095,1.084688 c 0.926042,0 1.668173,0.290135 2.226738,0.870748 0.565914,0.580613 0.907668,1.411455 1.02526,2.491838 h -6.592362 c 0.08819,-0.668808 0.283129,-1.257116 0.58446,-1.764234 0.30868,-0.507118 0.698033,-0.90049 1.168404,-1.179773 0.47037,-0.279282 0.999537,-0.418579 1.5875,-0.418579 z m 51.586545,0.271301 c 0.92604,0 1.66817,0.290135 2.22673,0.870748 0.56592,0.580614 0.90768,1.410939 1.02527,2.491321 h -6.59237 c 0.0882,-0.668808 0.28313,-1.256598 0.58446,-1.763717 0.30868,-0.507118 0.69803,-0.90049 1.16841,-1.179772 0.47037,-0.279283 0.99954,-0.41858 1.5875,-0.41858 z m 47.53766,0 c 0.92605,0 1.66818,0.290135 2.22674,0.870748 0.56591,0.580614 0.90767,1.410939 1.02526,2.491321 h -6.59236 c 0.0882,-0.668808 0.28313,-1.256598 0.58446,-1.763717 0.30868,-0.507118 0.69804,-0.90049 1.1684,-1.179772 0.47038,-0.279283 0.99954,-0.41858 1.5875,-0.41858 z M 58.448115,111.19068 c -1.087732,0 -1.87396,0.28663 -2.359029,0.8599 -0.47772,0.57326 -0.716752,1.35248 -0.716752,2.33732 v 1.54306 h -1.763717 v 1.53272 h 1.763717 v 10.16424 h 1.984375 v -10.16424 h 2.083593 v -1.53272 h -2.083593 v -1.11311 c 0,-0.57326 0.08819,-1.03278 0.264583,-1.37821 0.176389,-0.35278 0.503615,-0.52917 0.981336,-0.52917 0.323379,0 0.731279,0.0732 1.223697,0.22015 l 0.41858,-1.6645 c -0.360128,-0.0955 -0.679833,-0.16516 -0.959115,-0.20929 -0.271932,-0.0441 -0.551043,-0.0661 -0.837675,-0.0661 z m 50.901825,0.0129 c -1.08773,0 -1.87447,0.28664 -2.35954,0.8599 -0.47772,0.57326 -0.71624,1.35197 -0.71624,2.33681 v 1.54357 h -1.76423 v 1.53221 h 1.76423 v 10.16475 h 1.98438 v -10.16475 h 2.08359 v -1.53221 h -2.08359 v -1.11363 c 0,-0.57326 0.0882,-1.03226 0.26458,-1.37769 0.17639,-0.35278 0.5031,-0.52917 0.98082,-0.52917 v -5.1e-4 c 0.32338,0 0.73128,0.0737 1.2237,0.22065 l 0.41909,-1.66449 c -0.36012,-0.0956 -0.67982,-0.16574 -0.95911,-0.20981 -0.27193,-0.0441 -0.55104,-0.0656 -0.83768,-0.0656 z m -48.222919,0.26252 v 2.24896 h 1.995227 v -2.24896 z m 50.901829,0.0129 v 2.24896 h 1.99523 V 111.479 Z m -30.341327,4.18734 c -1.117129,0 -2.091287,0.25356 -2.921785,0.76068 -0.823148,0.50711 -1.455036,1.22771 -1.896008,2.1611 -0.440973,0.9334 -0.661459,2.0283 -0.661459,3.28507 0,1.22002 0.223989,2.28588 0.672311,3.19723 0.448321,0.90399 1.084228,1.60202 1.907377,2.09444 0.830498,0.49242 1.804139,0.73846 2.921268,0.73846 1.27147,0 2.359374,-0.32671 3.263367,-0.98082 0.911343,-0.66145 1.532207,-1.584 1.862936,-2.76727 l -1.939934,-0.29766 c -0.213136,0.72761 -0.595484,1.31189 -1.1467,1.75286 -0.543865,0.44098 -1.190797,0.66146 -1.94045,0.66146 -0.683507,0 -1.285825,-0.15434 -1.807641,-0.46302 -0.514469,-0.31603 -0.922367,-0.77153 -1.223698,-1.36684 -0.301335,-0.60266 -0.474222,-1.32326 -0.518315,-2.16111 h 8.753471 v -0.40773 c 0,-1.30821 -0.216983,-2.42919 -0.650606,-3.36258 -0.433623,-0.93339 -1.050984,-1.63895 -1.852084,-2.11667 -0.801099,-0.48506 -1.741667,-0.7276 -2.82205,-0.7276 z m 50.901317,0.0129 c -1.11714,0 -2.09077,0.25355 -2.92127,0.76067 -0.82315,0.50712 -1.45504,1.2272 -1.89601,2.1606 -0.44097,0.93339 -0.66146,2.02881 -0.66146,3.28558 0,1.22003 0.22399,2.28537 0.67231,3.19671 0.44833,0.90399 1.08423,1.60254 1.90738,2.09496 0.8305,0.49242 1.80414,0.73846 2.92127,0.73846 1.27147,0 2.35937,-0.32723 3.26336,-0.98134 0.91135,-0.66146 1.53221,-1.58348 1.86294,-2.76676 l -1.94045,-0.29765 c -0.21313,0.7276 -0.59496,1.31189 -1.14618,1.75286 -0.54387,0.44098 -1.1908,0.66146 -1.94045,0.66146 -0.68351,0 -1.28635,-0.15434 -1.80816,-0.46302 -0.51448,-0.31603 -0.92237,-0.77204 -1.2237,-1.36736 -0.30137,-0.60266 -0.47373,-1.32274 -0.5178,-2.16059 h 8.75296 v -0.40773 c 0,-1.30822 -0.21647,-2.42919 -0.65009,-3.36258 -0.43363,-0.93339 -1.05099,-1.63895 -1.85209,-2.11667 -0.8011,-0.48506 -1.74218,-0.7276 -2.82256,-0.7276 z m -71.461819,0.25166 v 11.69696 h 1.995227 V 115.9309 Z m 3.704167,0 4.453992,11.69696 h 1.852083 l 4.420402,-11.69696 h -2.0283 l -2.601908,7.1329 c -0.338079,0.91869 -0.576595,1.66484 -0.716236,2.23811 h -0.04444 c -0.249885,-0.92604 -0.525492,-1.80799 -0.826823,-2.64584 l -2.402954,-6.72517 z m 47.197662,0.0129 v 11.69696 h 1.99523 V 115.9438 Z m 3.70417,0 4.45347,11.69696 h 1.85209 l 4.42091,-11.69696 h -2.0283 l -2.6019,7.1329 c -0.33808,0.91869 -0.57712,1.66432 -0.71676,2.23759 h -0.0439 c -0.24989,-0.92604 -0.52549,-1.80799 -0.82682,-2.64584 l -2.40347,-6.72465 z m -34.067718,1.34307 c 0.926042,0 1.668173,0.29065 2.226738,0.87127 0.565915,0.58061 0.907668,1.41093 1.02526,2.49132 h -6.592362 c 0.08819,-0.66881 0.283129,-1.2566 0.58446,-1.76372 0.308681,-0.50712 0.698034,-0.90049 1.168404,-1.17977 0.470371,-0.27929 0.999538,-0.4191 1.5875,-0.4191 z m 50.901828,0.0129 c 0.92604,0 1.66817,0.29014 2.22674,0.87075 0.56591,0.58061 0.90767,1.41145 1.02526,2.49184 h -6.59236 c 0.0882,-0.66881 0.28261,-1.25712 0.58394,-1.76424 0.30868,-0.50712 0.69855,-0.89997 1.16892,-1.17925 0.47037,-0.27929 0.99954,-0.4191 1.5875,-0.4191 z" />
  </g>
</svg>
