<?xml version="1.0" encoding="UTF-8" standalone="no"?>
<!-- Created with Inkscape (http://www.inkscape.org/) -->

<svg
   width="720"
   height="720"
   viewBox="0 0 190.5 190.5"
   version="1.1"
   id="svg5"
   sodipodi:docname="8five.svg"
   inkscape:version="1.2.1 (9c6d41e410, 2022-07-14)"
   xmlns:inkscape="http://www.inkscape.org/namespaces/inkscape"
   xmlns:sodipodi="http://sodipodi.sourceforge.net/DTD/sodipodi-0.dtd"
   xmlns="http://www.w3.org/2000/svg"
   xmlns:svg="http://www.w3.org/2000/svg">
  <sodipodi:namedview
     id="namedview7"
     pagecolor="#ffffff"
     bordercolor="#000000"
     borderopacity="0.25"
     inkscape:showpageshadow="2"
     inkscape:pageopacity="0.0"
     inkscape:pagecheckerboard="0"
     inkscape:deskcolor="#d1d1d1"
     inkscape:document-units="mm"
     showgrid="true"
     inkscape:zoom="1.0255231"
     inkscape:cx="342.75192"
     inkscape:cy="395.89553"
     inkscape:window-width="1520"
     inkscape:window-height="1030"
     inkscape:window-x="10"
     inkscape:window-y="1"
     inkscape:window-maximized="0"
     inkscape:current-layer="layer1">
    <inkscape:grid
       type="xygrid"
       id="grid9"
       spacingx="19.05"
       spacingy="19.05" />
  </sodipodi:namedview>
  <defs
     id="defs2" />
  <g
     inkscape:label="Ebene 1"
     inkscape:groupmode="layer"
     id="layer1">
    <path
       id="path1877"
       style="font-size:22.5778px;font-family:'Arial Nova';-inkscape-font-specification:'Arial Nova';stroke-width:0.264583"
       d="M 34.196362 62.900037 C 33.108631 62.900037 32.322402 63.186668 31.837333 63.759932 C 31.359613 64.333197 31.120581 65.11242 31.120581 66.097257 L 31.120581 67.640316 L 29.356864 67.640316 L 29.356864 69.173039 L 31.120581 69.173039 L 31.120581 79.337276 L 33.104956 79.337276 L 33.104956 69.173039 L 35.18855 69.173039 L 35.18855 67.640316 L 33.104956 67.640316 L 33.104956 66.527205 C 33.104956 65.953941 33.19315 65.494423 33.369539 65.148995 C 33.545928 64.796217 33.873155 64.619828 34.350875 64.619828 C 34.674255 64.619828 35.082154 64.693496 35.574573 64.840487 L 35.993152 63.175472 C 35.633024 63.079931 35.31332 63.010282 35.034037 62.966182 C 34.762105 62.922082 34.482995 62.900037 34.196362 62.900037 z M 85.782878 63.171338 C 84.695146 63.171338 83.908918 63.45797 83.423848 64.031234 C 82.946128 64.604498 82.707096 65.383204 82.707096 66.368042 L 82.707096 67.911617 L 80.94338 67.911617 L 80.94338 69.443823 L 82.707096 69.443823 L 82.707096 79.608577 L 84.691471 79.608577 L 84.691471 69.443823 L 86.775065 69.443823 L 86.775065 67.911617 L 84.691471 67.911617 L 84.691471 66.79799 C 84.691471 66.224726 84.779666 65.765725 84.956055 65.420296 C 85.132444 65.067519 85.459671 64.89113 85.93739 64.89113 C 86.26077 64.89113 86.668669 64.964281 87.161088 65.111271 L 87.579667 63.446773 C 87.21954 63.351232 86.899835 63.281584 86.620553 63.237484 C 86.34862 63.193384 86.069509 63.171338 85.782878 63.171338 z M 133.32054 63.171338 C 132.23281 63.171338 131.44606 63.45797 130.961 64.031234 C 130.48328 64.604498 130.24476 65.383204 130.24476 66.368042 L 130.24476 67.911617 L 128.48053 67.911617 L 128.48053 69.443823 L 130.24476 69.443823 L 130.24476 79.608577 L 132.22914 79.608577 L 132.22914 69.443823 L 134.31273 69.443823 L 134.31273 67.911617 L 132.22914 67.911617 L 132.22914 66.79799 C 132.22914 66.224726 132.31733 65.765725 132.49372 65.420296 C 132.67011 65.067519 132.99682 64.89113 133.47454 64.89113 C 133.79792 64.89113 134.20582 64.964281 134.69824 65.111271 L 135.11733 63.446773 C 134.75721 63.351232 134.4375 63.281584 134.15822 63.237484 C 133.88629 63.193384 133.60718 63.171338 133.32054 63.171338 z M 36.875269 63.175472 L 36.875269 65.42443 L 38.870496 65.42443 L 38.870496 63.175472 L 36.875269 63.175472 z M 88.461784 63.446773 L 88.461784 65.695732 L 90.457011 65.695732 L 90.457011 63.446773 L 88.461784 63.446773 z M 135.99945 63.446773 L 135.99945 65.695732 L 137.99468 65.695732 L 137.99468 63.446773 L 135.99945 63.446773 z M 57.435771 67.375732 C 56.318641 67.375732 55.344483 67.629291 54.513985 68.13641 C 53.690837 68.643528 53.058949 69.364127 52.617977 70.297518 C 52.177005 71.230909 51.956519 72.325818 51.956519 73.582589 C 51.956519 74.802612 52.180507 75.868467 52.628829 76.77981 C 53.07715 77.683803 53.713058 78.381837 54.536206 78.874255 C 55.366704 79.366675 56.340345 79.612712 57.457475 79.612712 C 58.728945 79.612712 59.816848 79.286002 60.720841 78.631893 C 61.632184 77.970435 62.253048 77.047895 62.583777 75.86462 L 60.643844 75.566964 C 60.430707 76.294568 60.048359 76.878856 59.497144 77.319828 C 58.953278 77.760801 58.306346 77.981287 57.556694 77.981287 C 56.873186 77.981287 56.270869 77.826947 55.749052 77.518266 C 55.234584 77.202236 54.826685 76.746737 54.525354 76.151424 C 54.224026 75.548762 54.051139 74.828163 54.007039 73.990316 L 62.76051 73.990316 L 62.76051 73.582589 C 62.76051 72.274371 62.543527 71.153394 62.109904 70.220003 C 61.676282 69.286612 61.058921 68.581056 60.257821 68.103337 C 59.456721 67.618267 58.516153 67.375732 57.435771 67.375732 z M 36.875269 67.640316 L 36.875269 79.337276 L 38.870496 79.337276 L 38.870496 67.640316 L 36.875269 67.640316 z M 40.579435 67.640316 L 45.033427 79.337276 L 46.88551 79.337276 L 51.305912 67.640316 L 49.277612 67.640316 L 46.675704 74.773214 C 46.337625 75.691906 46.09911 76.438056 45.959469 77.01132 L 45.915027 77.01132 C 45.665142 76.085278 45.389535 75.203334 45.088204 74.365487 L 42.68525 67.640316 L 40.579435 67.640316 z M 109.02229 67.647034 C 107.90515 67.647034 106.931 67.900593 106.1005 68.407711 C 105.27735 68.914828 104.64547 69.634911 104.20449 70.568302 C 103.76352 71.501693 103.54303 72.597119 103.54303 73.85389 C 103.54303 75.073913 103.76702 76.139252 104.21534 77.050594 C 104.66366 77.954587 105.29958 78.653138 106.12272 79.145557 C 106.95322 79.637975 107.92686 79.884013 109.04399 79.884013 C 110.31546 79.884013 111.40336 79.556786 112.30736 78.902677 C 113.2187 78.241219 113.83957 77.319197 114.17029 76.135921 L 112.23036 75.838265 C 112.01723 76.565869 111.63488 77.150157 111.08366 77.59113 C 110.5398 78.032102 109.89286 78.252588 109.14321 78.252588 C 108.4597 78.252588 107.85738 78.098247 107.33557 77.789567 C 106.82109 77.473537 106.4132 77.017521 106.11187 76.422209 C 105.81051 75.819547 105.63762 75.099464 105.59355 74.261617 L 114.34703 74.261617 L 114.34703 73.85389 C 114.34703 72.545673 114.13004 71.424696 113.69642 70.491305 C 113.26279 69.557913 112.64544 68.852357 111.84434 68.374638 C 111.04324 67.889568 110.10266 67.647034 109.02229 67.647034 z M 156.55944 67.647034 C 155.4423 67.647034 154.46866 67.900593 153.63817 68.407711 C 152.81501 68.914828 152.18313 69.634911 151.74216 70.568302 C 151.30119 71.501693 151.0807 72.597119 151.0807 73.85389 C 151.0807 75.073913 151.30468 76.139252 151.75301 77.050594 C 152.20133 77.954587 152.83724 78.653138 153.66039 79.145557 C 154.49089 79.637975 155.46452 79.884013 156.58166 79.884013 C 157.85312 79.884013 158.94102 79.556786 159.84502 78.902677 C 160.75636 78.241219 161.37723 77.319197 161.70796 76.135921 L 159.76751 75.838265 C 159.55437 76.565869 159.17254 77.150157 158.62133 77.59113 C 158.07746 78.032102 157.43053 78.252588 156.68088 78.252588 C 155.99737 78.252588 155.39454 78.098247 154.87272 77.789567 C 154.35825 77.473537 153.95035 77.017521 153.64902 76.422209 C 153.34766 75.819547 153.17529 75.099464 153.13122 74.261617 L 161.88418 74.261617 L 161.88418 73.85389 C 161.88418 72.545673 161.66771 71.424696 161.23409 70.491305 C 160.80046 69.557913 160.1831 68.852357 159.382 68.374638 C 158.5809 67.889568 157.63981 67.647034 156.55944 67.647034 z M 88.461784 67.911617 L 88.461784 79.608577 L 90.457011 79.608577 L 90.457011 67.911617 L 88.461784 67.911617 z M 92.165951 67.911617 L 96.619942 79.608577 L 98.472026 79.608577 L 102.89243 67.911617 L 100.86413 67.911617 L 98.262219 75.044515 C 97.924141 75.963207 97.685625 76.70884 97.545984 77.282104 L 97.501542 77.282104 C 97.251658 76.356063 96.97605 75.474118 96.674719 74.636271 L 94.271765 67.911617 L 92.165951 67.911617 z M 135.99945 67.911617 L 135.99945 79.608577 L 137.99468 79.608577 L 137.99468 67.911617 L 135.99945 67.911617 z M 139.70362 67.911617 L 144.15709 79.608577 L 146.00918 79.608577 L 150.43009 67.911617 L 148.40179 67.911617 L 145.79989 75.044515 C 145.46181 75.963207 145.22277 76.70884 145.08313 77.282104 L 145.03921 77.282104 C 144.78932 76.356063 144.51371 75.474118 144.21239 74.636271 L 141.80892 67.911617 L 139.70362 67.911617 z M 57.41355 68.996305 C 58.339591 68.996305 59.081722 69.286956 59.640287 69.86757 C 60.206201 70.448183 60.547955 71.278509 60.665548 72.358891 L 54.073185 72.358891 C 54.161379 71.690083 54.356315 71.102292 54.657646 70.595174 C 54.966327 70.088057 55.35568 69.694684 55.82605 69.415401 C 56.29642 69.136118 56.825586 68.996305 57.41355 68.996305 z M 109.00007 69.267607 C 109.9261 69.267607 110.66824 69.557741 111.2268 70.138354 C 111.79272 70.718968 112.13447 71.54981 112.25206 72.630192 L 105.6597 72.630192 C 105.74789 71.961384 105.94283 71.373077 106.24416 70.865959 C 106.55284 70.35884 106.94219 69.965985 107.41257 69.686702 C 107.88293 69.40742 108.4121 69.267607 109.00007 69.267607 z M 156.53773 69.267607 C 157.46377 69.267607 158.2059 69.557741 158.76447 70.138354 C 159.33038 70.718968 159.67214 71.54981 159.78973 72.630192 L 153.19737 72.630192 C 153.28556 71.961384 153.47998 71.373077 153.78131 70.865959 C 154.08999 70.35884 154.47986 69.965985 154.95023 69.686702 C 155.4206 69.40742 155.94977 69.267607 156.53773 69.267607 z M 110.11059 87.415853 C 109.02286 87.415853 108.23663 87.702485 107.75156 88.275749 C 107.27384 88.849013 107.03481 89.628236 107.03481 90.613074 L 107.03481 92.156132 L 105.27109 92.156132 L 105.27109 93.688855 L 107.03481 93.688855 L 107.03481 103.85309 L 109.01919 103.85309 L 109.01919 93.688855 L 111.10278 93.688855 L 111.10278 92.156132 L 109.01919 92.156132 L 109.01919 91.043022 C 109.01919 90.469758 109.10738 90.01024 109.28377 89.664811 C 109.46016 89.312034 109.78738 89.135645 110.2651 89.135645 C 110.58848 89.135645 110.99638 89.209312 111.4888 89.356303 L 111.90738 87.691288 C 111.54725 87.595747 111.22755 87.526099 110.94827 87.481999 C 110.67633 87.437899 110.39722 87.415853 110.11059 87.415853 z M 58.913717 87.488717 C 57.825985 87.488717 57.039756 87.775348 56.554687 88.348612 C 56.076967 88.921877 55.837935 89.7011 55.837935 90.685937 L 55.837935 92.229513 L 54.074219 92.229513 L 54.074219 93.761719 L 55.837935 93.761719 L 55.837935 103.92596 L 57.82231 103.92596 L 57.82231 93.761719 L 59.905904 93.761719 L 59.905904 92.229513 L 57.82231 92.229513 L 57.82231 91.115885 C 57.82231 90.542622 57.910505 90.083103 58.086894 89.737675 C 58.263282 89.384897 58.590509 89.208508 59.068229 89.208508 C 59.391609 89.208508 59.799508 89.282176 60.291927 89.429167 L 60.710506 87.764669 C 60.350379 87.669128 60.030674 87.598962 59.751392 87.554862 C 59.479459 87.510763 59.200349 87.488717 58.913717 87.488717 z M 112.7895 87.691288 L 112.7895 89.940247 L 114.78472 89.940247 L 114.78472 87.691288 L 112.7895 87.691288 z M 61.592623 87.764669 L 61.592623 90.013627 L 63.58785 90.013627 L 63.58785 87.764669 L 61.592623 87.764669 z M 133.35 91.891549 C 132.23287 91.891549 131.25922 92.145108 130.42873 92.652226 C 129.60558 93.159344 128.97318 93.879943 128.53221 94.813334 C 128.09123 95.746725 127.87075 96.841634 127.87075 98.098405 C 127.87075 99.318428 128.09525 100.38428 128.54358 101.29563 C 128.99189 102.19962 129.62729 102.89765 130.45044 103.39007 C 131.28093 103.88249 132.25509 104.12904 133.37222 104.12904 C 134.64369 104.12904 135.73108 103.80182 136.63507 103.14771 C 137.54641 102.48626 138.16779 101.56372 138.49852 100.38044 L 136.55807 100.08278 C 136.34493 100.81039 135.96259 101.39467 135.41137 101.83564 C 134.86751 102.27662 134.22109 102.4971 133.47144 102.4971 C 132.78793 102.4971 132.1851 102.34276 131.66328 102.03408 C 131.14882 101.71805 130.74092 101.26255 130.43958 100.66724 C 130.13822 100.06458 129.96534 99.343979 129.92127 98.506132 L 138.67474 98.506132 L 138.67474 98.098405 C 138.67474 96.790187 138.45775 95.669211 138.02413 94.735819 C 137.59051 93.802428 136.97316 93.096873 136.17205 92.619153 C 135.37095 92.134083 134.43038 91.891549 133.35 91.891549 z M 82.153125 91.964929 C 81.035995 91.964929 80.061837 92.218488 79.23134 92.725606 C 78.408192 93.232724 77.776303 93.952807 77.335331 94.886198 C 76.894359 95.819589 76.673873 96.914498 76.673873 98.171269 C 76.673873 99.391294 76.897862 100.45715 77.346183 101.36849 C 77.794505 102.27248 78.430412 102.97052 79.25356 103.46294 C 80.084058 103.95535 81.0577 104.20191 82.174829 104.20191 C 83.446299 104.20191 84.534203 103.87468 85.438196 103.22057 C 86.349538 102.55911 86.970402 101.63658 87.301131 100.4533 L 85.361198 100.15564 C 85.148061 100.88324 84.765713 101.46754 84.214498 101.90851 C 83.670632 102.34948 83.0237 102.56997 82.274048 102.56997 C 81.590541 102.56997 80.988223 102.41563 80.466406 102.10695 C 79.951939 101.79092 79.544039 101.33542 79.242708 100.7401 C 78.94138 100.13744 78.768494 99.41736 78.724394 98.579513 L 87.477865 98.579513 L 87.477865 98.171269 C 87.477865 96.863051 87.260881 95.742591 86.827258 94.8092 C 86.393636 93.875808 85.776275 93.170253 84.975175 92.692533 C 84.174076 92.207464 83.233507 91.964929 82.153125 91.964929 z M 112.7895 92.156132 L 112.7895 103.85309 L 114.78472 103.85309 L 114.78472 92.156132 L 112.7895 92.156132 z M 116.49366 92.156132 L 120.94766 103.85309 L 122.79974 103.85309 L 127.22066 92.156132 L 125.19184 92.156132 L 122.58993 99.28903 C 122.25185 100.20772 122.01334 100.95387 121.8737 101.52714 L 121.82926 101.52714 C 121.57937 100.6011 121.30376 99.719153 121.00243 98.881303 L 118.59948 92.156132 L 116.49366 92.156132 z M 61.592623 92.229513 L 61.592623 103.92596 L 63.58785 103.92596 L 63.58785 92.229513 L 61.592623 92.229513 z M 65.29679 92.229513 L 69.750781 103.92596 L 71.602865 103.92596 L 76.023267 92.229513 L 73.994967 92.229513 L 71.393058 99.361894 C 71.054979 100.28059 70.816464 101.02674 70.676823 101.6 L 70.632381 101.6 C 70.382497 100.67396 70.106889 99.792014 69.805558 98.954167 L 67.402604 92.229513 L 65.29679 92.229513 z M 133.32778 93.512122 C 134.25382 93.512122 134.99647 93.802773 135.55503 94.383386 C 136.12095 94.964 136.46271 95.794325 136.58029 96.874707 L 129.98741 96.874707 C 130.07561 96.2059 130.27055 95.618109 130.57187 95.11099 C 130.88055 94.603872 131.26991 94.2105 131.74028 93.931217 C 132.21065 93.651935 132.73982 93.512122 133.32778 93.512122 z M 82.130904 93.585502 C 83.056945 93.585502 83.799076 93.875637 84.357642 94.45625 C 84.923556 95.036863 85.265309 95.867189 85.382902 96.947571 L 78.79054 96.947571 C 78.878733 96.278763 79.073669 95.690972 79.375 95.183854 C 79.683681 94.676736 80.073034 94.283364 80.543404 94.004081 C 81.013774 93.724799 81.542941 93.585502 82.130904 93.585502 z M 33.92041 110.95292 C 32.832679 110.95292 32.046451 111.23955 31.561381 111.81281 C 31.083661 112.38607 30.844629 113.1653 30.844629 114.15014 L 30.844629 115.6932 L 29.080912 115.6932 L 29.080912 117.22592 L 30.844629 117.22592 L 30.844629 127.39016 L 32.829004 127.39016 L 32.829004 117.22592 L 34.912598 117.22592 L 34.912598 115.6932 L 32.829004 115.6932 L 32.829004 114.58009 C 32.829004 114.00682 32.917198 113.5473 33.093587 113.20188 C 33.269976 112.8491 33.597202 112.67271 34.074923 112.67271 C 34.398302 112.67271 34.806202 112.74637 35.298621 112.89337 L 35.7172 111.22835 C 35.357073 111.13278 35.037368 111.06313 34.758085 111.01906 C 34.486152 110.975 34.207042 110.95292 33.92041 110.95292 z M 85.506925 111.22422 C 84.419194 111.22422 83.632966 111.51085 83.147896 112.08411 C 82.670176 112.65738 82.431144 113.43608 82.431144 114.42092 L 82.431144 115.9645 L 80.667428 115.9645 L 80.667428 117.4967 L 82.431144 117.4967 L 82.431144 127.66146 L 84.415519 127.66146 L 84.415519 117.4967 L 86.499113 117.4967 L 86.499113 115.9645 L 84.415519 115.9645 L 84.415519 114.85087 C 84.415519 114.27761 84.503713 113.81861 84.680103 113.47318 C 84.856491 113.1204 85.183718 112.94401 85.661438 112.94401 C 85.984818 112.94401 86.392717 113.01717 86.885136 113.16415 L 87.303715 111.49965 C 86.943588 111.40415 86.623883 111.3345 86.3446 111.29036 C 86.072667 111.2463 85.793557 111.22422 85.506925 111.22422 z M 133.04459 111.22422 C 131.95686 111.22422 131.17011 111.51085 130.68505 112.08411 C 130.20733 112.65738 129.96881 113.43608 129.96881 114.42092 L 129.96881 115.9645 L 128.20458 115.9645 L 128.20458 117.4967 L 129.96881 117.4967 L 129.96881 127.66146 L 131.95319 127.66146 L 131.95319 117.4967 L 134.03678 117.4967 L 134.03678 115.9645 L 131.95319 115.9645 L 131.95319 114.85087 C 131.95319 114.27761 132.04138 113.81861 132.21777 113.47318 C 132.39416 113.1204 132.72087 112.94401 133.19859 112.94401 C 133.52197 112.94401 133.92987 113.01717 134.42229 113.16415 L 134.84138 111.49965 C 134.48126 111.40415 134.16155 111.3345 133.88227 111.29036 C 133.61033 111.2463 133.33123 111.22422 133.04459 111.22422 z M 36.599316 111.22835 L 36.599316 113.47731 L 38.594543 113.47731 L 38.594543 111.22835 L 36.599316 111.22835 z M 88.185832 111.49965 L 88.185832 113.74861 L 90.181059 113.74861 L 90.181059 111.49965 L 88.185832 111.49965 z M 135.7235 111.49965 L 135.7235 113.74861 L 137.71873 113.74861 L 137.71873 111.49965 L 135.7235 111.49965 z M 57.159819 115.42861 C 56.042689 115.42861 55.06853 115.68217 54.238033 116.18929 C 53.414885 116.69641 52.782997 117.41701 52.342025 118.3504 C 51.901053 119.28379 51.680566 120.3787 51.680566 121.63547 C 51.680566 122.8555 51.904555 123.92134 52.352877 124.83269 C 52.801199 125.73668 53.437106 126.43472 54.260254 126.92714 C 55.090752 127.41956 56.064393 127.66559 57.181523 127.66559 C 58.452993 127.66559 59.540896 127.33889 60.444889 126.68477 C 61.356232 126.02331 61.977096 125.10077 62.307825 123.9175 L 60.367891 123.61984 C 60.154754 124.34745 59.772406 124.93174 59.221191 125.37271 C 58.677325 125.81368 58.030394 126.03417 57.280741 126.03417 C 56.597234 126.03417 55.994917 125.87983 55.4731 125.57115 C 54.958632 125.25512 54.550733 124.79962 54.249402 124.20431 C 53.948073 123.60165 53.775187 122.88105 53.731087 122.0432 L 62.484558 122.0432 L 62.484558 121.63547 C 62.484558 120.32726 62.267574 119.20628 61.833952 118.27288 C 61.400329 117.33949 60.782968 116.63394 59.981868 116.15622 C 59.180769 115.67114 58.240201 115.42861 57.159819 115.42861 z M 36.599316 115.6932 L 36.599316 127.39016 L 38.594543 127.39016 L 38.594543 115.6932 L 36.599316 115.6932 z M 40.303483 115.6932 L 44.757475 127.39016 L 46.609558 127.39016 L 51.02996 115.6932 L 49.00166 115.6932 L 46.399752 122.82609 C 46.061673 123.74479 45.823158 124.49093 45.683516 125.0642 L 45.639075 125.0642 C 45.389191 124.13816 45.113583 123.25621 44.812252 122.41837 L 42.409298 115.6932 L 40.303483 115.6932 z M 108.74633 115.69991 C 107.62921 115.69991 106.65505 115.95348 105.82455 116.46059 C 105.0014 116.96771 104.36951 117.68779 103.92854 118.62118 C 103.48757 119.55458 103.26708 120.65 103.26708 121.90677 C 103.26708 123.12679 103.49107 124.19213 103.93939 125.10347 C 104.38771 126.00747 105.02362 126.70602 105.84677 127.19844 C 106.67727 127.69086 107.65091 127.93689 108.76804 127.93689 C 110.03951 127.93689 111.12741 127.60967 112.0314 126.95556 C 112.94275 126.29411 113.56361 125.37208 113.89434 124.1888 L 111.95441 123.89115 C 111.74127 124.61875 111.35892 125.20304 110.80771 125.64401 C 110.26384 126.08498 109.61691 126.30547 108.86726 126.30547 C 108.18375 126.30547 107.58143 126.15113 107.05962 125.84245 C 106.54515 125.52641 106.13725 125.0704 105.83592 124.47509 C 105.53456 123.87243 105.36167 123.15234 105.3176 122.3145 L 114.07107 122.3145 L 114.07107 121.90677 C 114.07107 120.59855 113.85409 119.47758 113.42047 118.54419 C 112.98685 117.61079 112.36948 116.90524 111.56838 116.42752 C 110.76728 115.94245 109.82672 115.69991 108.74633 115.69991 z M 156.28348 115.69991 C 155.16635 115.69991 154.19271 115.95348 153.36222 116.46059 C 152.53906 116.96771 151.90718 117.68779 151.46621 118.62118 C 151.02523 119.55458 150.80475 120.65 150.80475 121.90677 C 150.80475 123.12679 151.02873 124.19213 151.47706 125.10347 C 151.92538 126.00747 152.56129 126.70602 153.38444 127.19844 C 154.21494 127.69086 155.18857 127.93689 156.3057 127.93689 C 157.57717 127.93689 158.66507 127.60967 159.56907 126.95556 C 160.48041 126.29411 161.10128 125.37208 161.43201 124.1888 L 159.49156 123.89115 C 159.27842 124.61875 158.89659 125.20304 158.34537 125.64401 C 157.80151 126.08498 157.15458 126.30547 156.40492 126.30547 C 155.72142 126.30547 155.11858 126.15113 154.59677 125.84245 C 154.0823 125.52641 153.6744 125.0704 153.37307 124.47509 C 153.07171 123.87243 152.89934 123.15234 152.85527 122.3145 L 161.60822 122.3145 L 161.60822 121.90677 C 161.60822 120.59855 161.39175 119.47758 160.95813 118.54419 C 160.52451 117.61079 159.90715 116.90524 159.10605 116.42752 C 158.30495 115.94245 157.36386 115.69991 156.28348 115.69991 z M 88.185832 115.9645 L 88.185832 127.66146 L 90.181059 127.66146 L 90.181059 115.9645 L 88.185832 115.9645 z M 91.889998 115.9645 L 96.34399 127.66146 L 98.196073 127.66146 L 102.61648 115.9645 L 100.58818 115.9645 L 97.986267 123.0974 C 97.648189 124.01609 97.409673 124.76172 97.270032 125.33499 L 97.22559 125.33499 C 96.975706 124.40895 96.700098 123.527 96.398767 122.68915 L 93.995813 115.9645 L 91.889998 115.9645 z M 135.7235 115.9645 L 135.7235 127.66146 L 137.71873 127.66146 L 137.71873 115.9645 L 135.7235 115.9645 z M 139.42767 115.9645 L 143.88114 127.66146 L 145.73322 127.66146 L 150.15414 115.9645 L 148.12584 115.9645 L 145.52393 123.0974 C 145.18585 124.01609 144.94682 124.76172 144.80718 125.33499 L 144.76326 125.33499 C 144.51337 124.40895 144.23776 123.527 143.93643 122.68915 L 141.53296 115.9645 L 139.42767 115.9645 z M 57.137598 117.04919 C 58.063639 117.04919 58.80577 117.33984 59.364335 117.92045 C 59.930249 118.50106 60.272003 119.33139 60.389596 120.41177 L 53.797233 120.41177 C 53.885428 119.74297 54.080362 119.15517 54.381694 118.64806 C 54.690374 118.14094 55.079727 117.74757 55.550098 117.46828 C 56.020468 117.189 56.549634 117.04919 57.137598 117.04919 z M 108.72411 117.32049 C 109.65016 117.32049 110.39228 117.61062 110.95085 118.19124 C 111.51676 118.77185 111.85852 119.60269 111.97611 120.68307 L 105.38375 120.68307 C 105.47194 120.01427 105.66688 119.42596 105.96821 118.91884 C 106.27689 118.41172 106.66625 118.01886 107.13661 117.73958 C 107.60699 117.4603 108.13615 117.32049 108.72411 117.32049 z M 156.26178 117.32049 C 157.18782 117.32049 157.92995 117.61062 158.48852 118.19124 C 159.05443 118.77185 159.39618 119.60269 159.51378 120.68307 L 152.92142 120.68307 C 153.00961 120.01427 153.20403 119.42596 153.50536 118.91884 C 153.81404 118.41172 154.20391 118.01886 154.67428 117.73958 C 155.14465 117.4603 155.67382 117.32049 156.26178 117.32049 z " />
  </g>
</svg>
